<?xml version="1.0" encoding="UTF-8"?>
<svg width="200px" height="200px" viewBox="0 0 200 200" version="1.1" xmlns="http://www.w3.org/2000/svg" xmlns:xlink="http://www.w3.org/1999/xlink">
    <!-- Generator: Sketch 54.1 (76490) - https://sketchapp.com -->
    <title>alas-fairbanks</title>
    <desc>Created with Sketch.</desc>
    <g id="alas-fairbanks" stroke="none" stroke-width="1" fill="none" fill-rule="evenodd">
        <g id="alas-fairbanks_BGL">
            <g id="alas-fairbanks" transform="translate(17.000000, 0.000000)">
                <g id="g10">
                    <g transform="translate(83.245148, 99.964729) scale(-1, 1) rotate(-180.000000) translate(-83.245148, -99.964729) translate(0.000000, 0.141098)">
                        <g id="g12">
                            <polyline id="path14" fill="#FCD006" fill-rule="nonzero" points="0 0 0 62.1444782 17.7868779 62.1444782 33.4501579 136.831743 21.7013751 136.831743 21.7013751 199.258549 133.025746 199.258549 133.025746 136.831743 121.329803 136.831743 137.836328 62.1444782 155.574599 62.1444782 155.574599 0 0 0"></polyline>
                            <polyline id="path16" fill="#FFFFFF" fill-rule="nonzero" points="27.1128036 50.6610922 47.5937202 148.316751 33.186172 148.316751 33.186172 187.77354 121.541443 187.77354 121.541443 148.316751 106.459257 148.316751 128.674424 50.6610922 144.089591 50.6610922 144.089591 11.4850791 80.6758357 11.4850791 80.6758357 50.6610922 89.3608443 50.6610922 85.9597862 67.4292047 64.1868062 67.4292047 60.5486405 50.6610922 69.2617267 50.6610922 69.2617267 11.4850791 11.4847969 11.4850791 11.4847969 50.6610922 27.1128036 50.6610922"></polyline>
                            <path d="M92.0416203,152.679361 C98.2208088,161.421513 108.436682,161.421513 108.436682,161.421513 L108.436682,174.668779 L46.2919212,174.668779 L46.2919212,161.421513 L63.7320619,161.421513 L38.9655017,43.3261365 L39.1051842,44.6709689 C32.5523801,37.5548491 24.5904756,37.5548491 24.5904756,37.5548491 L24.5904756,24.5896996 L56.1563302,24.5896996 L56.1563302,37.5548491 L44.2945315,37.5548491 L53.6207394,80.5354477 L96.6708971,80.5354477 L105.389768,37.5548491 L93.7798918,37.5548491 L93.7798918,24.5896996 L130.983418,24.5896996 L130.983418,37.5548491 L118.213754,37.5548491 L92.0416203,152.679361" id="path18" fill="#FFFFFF" fill-rule="nonzero"></path>
                            <polyline id="path20" fill="#1E59AE" points="98.2208088 154.868426 114.989768 154.868426 114.989768 181.220454 39.7390466 181.220454 39.7390466 154.868426 55.6629968 154.868426 32.5523801 44.1084998 18.0373893 44.1084998 18.0373893 18.0368249 62.7086404 18.0368249 62.7086404 44.1084998 52.4222915 44.1084998 58.904055 73.9830669 91.3149889 73.9830669 97.374248 44.1084998 87.2282165 44.1084998 87.2282165 18.0368249 137.535799 18.0368249 137.535799 44.1084998 123.443383 44.1084998 98.2208088 154.868426"></polyline>
                            <path d="M87.6338602,18.4416221 L137.130861,18.4416221 L137.130861,43.7037026 L123.120279,43.7037026 L97.7128723,155.273365 L114.58483,155.273365 L114.58483,180.815516 L40.144126,180.815516 L40.144126,155.273365 L56.1612684,155.273365 L32.8816923,43.7037026 L18.4424687,43.7037026 L18.4424687,18.4416221 L62.3034905,18.4416221 L62.3034905,43.7037026 L51.9202103,43.7037026 L58.5774941,74.3880052 L91.6465586,74.3880052 L97.8694861,43.7037026 L87.6338602,43.7037026 L87.6338602,18.4416221 Z M137.940737,17.6317456 L86.8232783,17.6317456 L86.8232783,44.5135791 L96.8790099,44.5135791 L90.9841247,73.5781287 L59.2306158,73.5781287 L52.9243726,44.5135791 L63.1140019,44.5135791 L63.1140019,17.6317456 L17.63231,17.6317456 L17.63231,44.5135791 L32.223068,44.5135791 L55.165078,154.463488 L39.3339673,154.463488 L39.3339673,181.626098 L115.394706,181.626098 L115.394706,154.463488 L98.7280399,154.463488 L123.766487,44.5135791 L137.940737,44.5135791 L137.940737,17.6317456 L137.940737,17.6317456 Z" id="path22" fill="#1E59AE" fill-rule="nonzero"></path>
                            <polygon id="path24" fill="#FFFFFF" points="75.6733667 151.769308 86.806347 96.1058177 63.6954481 96.1058177"></polygon>
                            <polygon id="path26" fill="#FCD006" points="78.5544954 102.870544 72.069134 102.870544 75.4306859 118.491002"></polygon>
                            <polyline id="path28" fill="#231F20" points="97.9379164 82.2962942 103.152731 82.2962942 104.701937 82.0148128 106.112167 81.5922378 107.519574 81.0285694 108.928392 80.464901 111.465958 79.1957652 114.002819 77.7862414 116.538269 76.3774231 119.216223 74.8282168 122.03527 73.5597865 123.443383 72.8543192 125.135799 72.2913562 129.361549 71.1640194 133.731214 70.0361182 138.099467 69.0503686 142.608815 68.0627143 146.696293 66.7950601 148.669485 66.0910036 150.501584 65.2457832 152.332977 64.4000689 153.882183 63.4124146 155.433506 62.1444782 156.701231 60.8768944 157.264899 60.031674 157.686769 58.9043372 158.250437 57.6352719 159.096998 56.2265947 160.083241 55.3827852 161.07019 54.5353778 163.182359 52.9847606 164.170014 52.4217271 164.874775 51.7171063 165.439149 51.0116389 165.577421 50.5905455 165.720631 50.1678294 165.577421 49.7439846 165.439149 49.3212686 164.874775 48.3344609 163.887827 47.490087 162.761195 46.5029971 161.492765 45.6572123 160.083241 44.9523093 158.955904 44.3893463 157.969661 43.9668419 155.995763 43.684655 154.022571 43.684655 151.911107 43.684655 149.796116 43.8257485 147.682536 44.1084998 145.710755 44.3893463 142.187651 45.2344962 140.918515 45.5175297 139.649379 45.9399636 137.255728 46.9248666 134.859961 47.7714274 133.59012 48.0536143 132.323101 48.1938612 130.63139 48.1938612 129.081478 48.0536143 125.841972 47.490087 124.148145 47.2079001 122.458551 47.067371 120.768251 46.9248666 118.934741 47.067371 118.652554 45.5175297 118.652554 43.9668419 118.794353 42.6984116 119.216223 41.5718508 119.920985 40.5856075 120.768251 39.5992935 121.612695 38.7519567 122.740032 37.9084294 125.135799 36.4979885 127.532272 35.0893113 129.786946 33.5386235 130.772484 32.6934736 131.617633 31.8476888 132.603877 30.2984119 133.59012 28.6067012 134.435975 26.9157665 135.141443 24.9424332 135.562607 22.9693116 135.562607 20.8556609 135.562607 19.7291 135.422219 18.6003523 135.141443 17.6154493 134.859961 16.4861372 133.59012 16.347019 132.462078 16.4861372 131.477245 16.7688885 130.63139 17.0510754 129.927334 17.6154493 129.081478 18.1779184 127.813753 19.5866662 125.416575 22.6879712 124.148145 24.0980594 123.443383 24.8021158 122.599644 25.2240558 120.625041 26.351957 118.510755 27.1971775 116.256787 28.0431739 114.143912 29.1710751 112.17072 30.1573185 110.058551 31.0025389 107.944265 31.9893466 105.971779 32.9764366 104.843031 33.821657 103.857493 34.8076182 102.0261 37.0604576 101.038445 38.1892054 100.052908 39.1746727 98.7837718 40.020387 98.2208088 40.3020096 97.5160469 40.5856075 97.093472 39.5992935 96.6708971 38.4705458 96.3880046 37.202962 96.2483221 35.9344612 96.1065232 33.1161896 96.1065232 30.1573185 96.3880046 24.0980594 96.3880046 21.1386944 96.2483221 18.4614457 96.8112851 17.8962958 97.374248 17.4743558 98.6426783 16.9099819 100.19259 16.347019 101.743913 15.9237386 103.152731 15.3607051 103.857493 15.0771778 104.41975 14.6574952 104.843031 14.0908638 105.266311 13.5281831 105.547793 12.8232801 105.547793 11.8369662 103.714989 11.5569662 101.743913 11.1329098 99.9111086 10.9918163 97.9379164 10.8514988 96.1065232 10.8514988 94.273719 10.9918163 92.5841247 11.1329098 90.892414 11.4145323 89.2014087 11.9780597 87.7911795 12.5418692 86.3830666 13.2473365 85.1160473 14.0908638 83.9872995 14.9382712 83.0003507 16.064832 82.2969997 17.332698 81.7326258 18.7414457 81.3093454 20.1515339 81.0285694 21.4200347 80.6045835 24.3780594 80.4641955 27.3382709 80.4641955 30.4387294 80.182714 33.39753 79.9005271 36.3577416 79.6176347 37.7664894 79.1957652 39.0341436 78.6313913 40.162327 78.0684284 41.2896639 77.222573 41.2896639 76.5185166 41.4285704 75.2500863 41.5718508 74.5453244 41.7129443 73.9823615 41.7129443 73.2775996 41.7129443 72.7146366 41.2896639 72.0091693 40.5856075 71.5865943 39.5992935 71.1640194 38.6116392 70.8818324 37.3432089 70.600351 34.8076182 70.3177407 32.1312867 69.8955891 28.7469481 69.3319912 25.3643027 69.3319912 23.815308 69.3319912 22.4062781 69.4730847 21.1386944 69.8955891 19.8693469 70.3177407 19.1655727 70.8818324 18.6003523 71.4455009 18.0368249 72.0091693 17.6154493 73.4179876 16.7688885 74.8268059 16.2053611 76.0952362 15.5012342 77.222573 14.6574952 77.6465589 14.2328039 78.0684284 13.6692766 78.3499099 13.1068074 78.4917088 12.2616575 78.3499099 11.8369662 78.0684284 11.5569662 77.7876524 11.4145323 77.50476 11.2740032 76.7999981 11.2740032 76.3781286 11.1329098 75.2500863 11.1329098 74.2645484 11.4145323 73.1365061 11.4145323 70.740739 11.5569662 65.5274763 11.4145323 63.1313564 11.2740032 61.0171413 11.4145323 60.0311096 11.5569662 59.326771 11.8369662 58.6224324 12.2616575 58.1994342 12.6821866 57.3539315 13.9514635 56.5079351 15.3607051 55.2397164 18.4614457 54.1126618 21.5605638 52.9850428 24.8021158 51.8576354 28.0431739 50.7305102 31.1427858 49.3215508 34.1038439 48.4758365 35.5111808 47.6303339 36.7801754 46.7849018 36.639082 45.9391876 36.4979885 44.248535 35.7920273 42.5576003 34.8076182 41.0077591 33.6811279 37.765925 31.1427858 34.9479356 28.7469481 32.4110045 26.7746731 30.8614454 25.5048318 29.4518511 24.2369659 28.0426095 22.8290647 26.9149905 21.2789413 26.6330152 20.5743205 26.3516748 19.7291 26.0703344 18.8816926 26.0703344 18.0368249 26.2108635 17.4743558 26.3516748 16.9099819 26.7746731 16.2053611 27.3379887 15.6423277 28.0426095 15.0771778 28.7475125 14.5149908 29.311322 13.9514635 29.5929446 13.6692766 29.7338264 13.2473365 29.7338264 12.8232801 29.7338264 12.2616575 29.311322 11.8369662 28.7475125 11.5569662 28.0426095 11.4145323 27.3379887 11.1329098 25.6473362 10.9918163 23.6744968 10.9918163 19.8693469 11.2740032 16.7688885 11.5569662 16.2053611 11.8369662 15.7832095 12.402751 15.2190472 13.3862431 14.6552377 14.6574952 14.2330861 15.9237386 13.5281831 18.4614457 12.9643736 19.7291 12.2594 20.7154139 12.2594 23.3939324 14.6552377 27.3382709 17.1916045 31.0025389 18.601481 32.8340027 20.0102288 34.5240908 21.418906 36.2166481 21.9835621 37.0604576 22.4059959 37.9084294 22.9693116 39.5992935 23.3923098 41.5718508 23.6744968 43.5435615 23.9558371 45.6572123 24.3788354 50.025325 24.801622 52.2806336 25.224338 54.3942844 25.6473362 55.8038787 26.3516748 57.3544959 27.760987 60.45439 29.5929446 63.554919 31.4252549 66.2320971 32.4110045 67.499187 33.5383413 68.9087108 34.80656 70.177776 36.0744259 71.3051129 37.4843024 72.4317442 38.8933324 73.5597865 40.4433852 74.5460299 41.9935087 75.3918852 43.5435615 76.2370351 45.2350606 77.082185 46.9259953 77.6458534 48.6163656 78.2095219 50.4488876 78.7731903 52.1398223 79.1957652 53.9721327 79.4779522 55.6629968 79.6190456 60.5947075 79.7594336 65.8085345 79.901938 76.3781286 79.7594336 81.7326258 79.901938 87.2282165 80.323102 89.9068761 80.6066999 92.5841247 81.0285694 95.2620787 81.5922378 97.796823 82.2962942 97.9379164 82.2962942 158.39153 55.5211274 157.829273 56.5087817 157.405287 57.6352719 156.982712 58.6229262 156.27795 59.7503336 155.151319 61.158517 153.741795 62.2855716 152.191178 63.4124146 150.501584 64.2595398 148.669485 65.1046897 146.696293 65.8088167 144.7231 66.5134375 142.608815 67.077247 138.240561 67.9224674 133.873718 68.7681817 129.504053 69.7552716 125.55908 70.7414444 124.008463 71.3051129 122.599644 72.0091693 119.781302 73.418693 117.103348 74.9686048 114.425394 76.6596101 111.889239 78.2095219 109.213401 79.4779522 107.803172 80.0416206 106.535447 80.6066999 104.983419 80.8867705 103.575306 81.1689574 101.883595 81.3107563 100.333684 81.3107563 97.093472 81.1689574 94.1340364 80.7470879 91.1738954 80.1834195 85.3954123 79.0553772 82.2969997 78.6320968 79.1957652 78.4910033 72.9954126 78.4910033 66.7947779 78.6320968 60.7360831 78.7731903 57.7761538 78.6320968 54.9586582 78.4910033 52.1398223 78.0684284 49.4623621 77.50476 46.9259953 76.6596101 44.5298754 75.5322732 42.2756956 74.4056419 40.1617627 72.9954126 38.3297345 71.4455009 36.4979885 69.7552716 34.80656 67.9224674 33.2570009 65.9499102 31.847971 63.9773529 30.5786941 61.8631378 29.4518511 59.7503336 28.4661721 57.6352719 27.6204579 55.3827852 26.9149905 53.2677235 26.4924861 51.4349193 26.2108635 49.6034556 25.7881475 45.9399636 25.6473362 44.1084998 25.3648671 42.1326268 25.0838089 40.162327 24.5196467 38.3302989 23.9558371 37.202962 23.3923098 36.2166481 22.8285003 35.2304048 22.1240912 34.2432443 20.433227 32.5518158 18.7420101 30.7209163 16.9105463 28.8897347 15.3601407 26.7746731 14.6552377 25.7884297 14.0914282 24.5213398 13.5281831 23.2514985 13.1051849 21.8427508 13.6687122 20.9967543 14.2330861 20.0104404 15.078236 17.8962958 15.6418338 15.6423277 16.3464546 13.3862431 17.3332624 12.9643736 18.7420101 12.5418692 20.2918513 12.2616575 21.9835621 12.1185888 23.6744968 12.1185888 25.224338 12.2616575 26.4924861 12.5418692 26.9149905 12.8232801 27.3379887 13.1068074 25.5059606 13.5281831 23.5334033 14.0908638 21.7013751 14.6574952 20.7151318 14.9382712 20.0102288 15.3607051 20.7151318 17.0510754 21.2786591 18.6003523 21.418906 19.4477597 21.418906 20.2921335 21.418906 21.4200347 21.2786591 22.5468777 21.9835621 23.2514985 22.9693116 23.673368 24.9427154 24.6618689 25.7881475 25.2240558 26.6330152 25.7884297 27.4788 26.4924861 28.0426095 27.1971775 28.1842674 28.0431739 28.1842674 28.7469481 27.9015161 30.1573185 27.6204579 31.2838793 27.3379887 32.5518158 28.1842674 33.39753 29.1705107 34.3838439 31.4252549 35.9344612 33.6794348 37.6253959 35.9347434 39.3171066 36.9207751 40.3020096 37.765925 41.2896639 38.4711101 42.4170712 38.8933324 43.5435615 39.3160484 44.9523093 39.3160484 46.363244 39.1757309 48.0536143 38.6111454 49.7439846 39.8798579 51.4349193 41.2890995 52.8444431 42.8389407 54.3942844 44.3890641 55.6635612 47.4895226 58.3399633 49.039646 59.7503336 50.4488876 61.2996105 50.5899811 60.3132966 50.5899811 59.6092401 50.4488876 57.9174589 50.0264538 56.5087817 49.7437025 55.0984113 49.3215508 53.6896636 49.1804573 52.4217271 49.1804573 51.7171063 49.3215508 51.1540728 49.6031734 50.449452 50.0264538 49.7439846 50.7305102 48.8979882 51.4354837 48.3344609 52.2806336 47.9125208 53.1266301 47.6303339 53.9721327 47.490087 54.9586582 47.490087 56.790122 47.6303339 58.7626793 48.1938612 60.7360831 48.7577413 62.4266651 49.1810217 63.8362594 49.3212686 64.4003511 49.3212686 64.9635963 49.1810217 66.0907215 48.7577413 67.0769648 48.3344609 67.5000336 48.3344609 67.9219031 48.1938612 68.7678995 48.4760482 70.0366826 49.0390817 71.8687813 50.1678294 72.2906508 50.5905455 72.7146366 51.1540728 73.4179876 52.5631027 73.9823615 54.112944 74.8268059 55.5211274 75.6733667 56.9320621 76.6596101 58.1996458 77.222573 58.7640197 77.7876524 59.1859597 78.4917088 59.4667357 79.1957652 59.7503336 79.3375642 58.9043372 79.3375642 58.0585523 79.0546717 57.072309 78.6313913 56.0868416 77.6465589 54.112944 77.364372 53.2677235 77.222573 52.4217271 77.222573 50.7307924 77.50476 48.8979882 78.0684284 46.9248666 78.6313913 45.0955897 79.9005271 41.4285704 80.4641955 40.020387 80.8874759 38.6116392 81.4511443 35.7920273 81.7326258 32.8340027 82.0148128 30.1573185 82.0148128 27.3382709 82.1566117 24.8021158 82.4366822 22.4062781 82.7181637 20.2921335 83.0003507 19.3049731 83.2825376 18.4614457 83.8469115 17.1921689 84.5523788 16.2053611 85.2564353 15.2196116 86.1008797 14.5149908 86.946735 13.8109344 88.0740719 13.2473365 89.0603152 12.8232801 90.189063 12.5418692 91.4567878 12.2616575 92.7245127 12.1185888 95.2620787 11.9780597 98.2208088 11.9780597 101.180244 12.2616575 99.4878282 13.6692766 98.6426783 14.3730508 97.6585514 15.0771778 96.5276872 15.5012342 95.4031722 15.7826451 94.1340364 15.7826451 93.4285691 15.6423277 92.5841247 15.3607051 92.4430312 15.7826451 92.1615497 16.064832 91.4567878 16.4861372 90.610227 16.9099819 89.6246891 17.1921689 88.6384458 17.332698 87.7911795 17.7559784 87.0864176 18.1779184 86.806347 18.4614457 86.5241601 18.7414457 86.806347 19.4477597 87.0864176 19.8693469 87.6507915 20.2921335 88.2144599 20.5743205 89.3432076 21.2789413 89.9068761 21.7016573 90.189063 22.2651846 89.6246891 23.9564015 89.0603152 25.6473362 88.0740719 29.3121686 87.6507915 31.0025389 86.946735 32.6934736 86.2419732 34.2432443 85.2564353 35.6528386 85.5365058 36.639082 85.8193982 37.3432089 86.3830666 38.0472654 86.806347 38.7519567 87.9329784 40.162327 88.3562588 40.8663835 88.4966468 41.7129443 88.3562588 41.9937908 88.0740719 42.2759778 87.2282165 42.5573182 86.806347 42.6984116 86.3830666 42.8395051 86.2419732 43.2627855 86.1008797 43.684655 86.2419732 44.3893463 86.5241601 45.0955897 86.806347 45.6572123 87.2282165 46.2215861 88.0740719 47.067371 89.2014087 47.9125208 91.5971758 49.1810217 92.7245127 49.7439846 93.8518495 50.5905455 93.0059941 51.4349193 92.4430312 52.4217271 92.0190453 53.1258541 91.8786573 53.9718505 91.7382693 54.5353778 91.7382693 55.2408452 91.8786573 55.8038787 92.1615497 56.3676882 93.0059941 57.3544959 93.992943 58.3399633 96.6708971 60.45439 99.6282162 62.9905452 101.180244 64.4000689 102.30617 65.8088167 103.011638 66.7950601 103.293119 67.9224674 103.857493 69.8963651 104.138974 70.7414444 104.701937 71.5865943 105.406699 72.2913562 105.830685 72.5728377 106.393648 72.7139312 106.814812 72.2913562 107.09841 71.8680758 107.661373 70.7414444 108.085359 69.7552716 108.508639 69.3319912 108.788004 68.9087108 109.774953 68.9087108 110.762607 68.9087108 111.607052 68.9087108 111.889239 68.7681817 112.030332 68.4868413 112.030332 68.0627143 112.030332 67.781374 111.607052 67.2175645 111.183771 66.7950601 110.622219 66.5134375 110.058551 66.2320971 109.492766 65.8088167 109.213401 65.1046897 109.213401 64.8225028 109.213401 64.2595398 111.465958 62.8499455 112.594706 62.1444782 113.86102 61.5817974 115.130861 61.158517 115.835623 61.0179879 116.538269 61.0179879 117.244442 61.158517 117.949203 61.2996105 118.652554 61.5817974 119.359433 62.0033847 120.486064 61.5817974 121.329803 61.0179879 122.317457 60.45439 122.879715 60.1727675 123.443383 60.031674 124.290649 60.45439 125.135799 60.5947075 125.841972 60.5947075 126.685711 60.45439 128.237739 59.7503336 129.645852 59.0448662 131.05467 58.3399633 131.617633 58.1996458 132.323101 58.0585523 132.885358 58.0585523 133.449732 58.1996458 133.873718 58.6229262 134.435975 59.3270532 133.873718 60.031674 133.309344 60.45439 131.89982 61.2996105 131.336152 61.8631378 130.772484 62.5672647 130.63139 62.9905452 130.63139 63.4124146 130.772484 64.6814093 131.89982 64.9635963 133.025746 64.9635963 134.154494 64.6814093 135.141443 64.2595398 137.114635 63.4124146 138.946028 62.4266651 138.664547 62.2855716 138.381654 62.1444782 137.679009 62.0033847 136.973542 61.8631378 136.689944 61.8631378 136.409168 61.5817974 137.255728 60.5947075 137.819397 59.4667357 138.804935 57.2134024 139.369309 56.2265947 140.074776 55.3827852 140.49594 54.9586582 140.918515 54.6759069 141.480772 54.5353778 142.187651 54.3942844 142.608815 54.3942844 143.173189 54.5353778 144.29982 55.0984113 145.710755 55.6635612 146.555199 55.8038787 147.399644 55.9449721 148.388003 55.8038787 149.374247 55.5211274 150.361196 55.2408452 151.065957 55.0984113 151.770719 55.3827852 152.332977 55.6635612 153.600702 56.6498751 154.16437 57.072309 154.728038 57.3544959 155.292412 57.4947428 155.856081 57.3544959 155.714282 55.8038787 155.574599 54.6759069 155.292412 53.5491345 155.433506 52.8444431 155.574599 52.0001398 154.869132 51.7171063 154.16437 51.4349193 152.755552 50.8727324 152.05079 50.449452 151.48571 50.025325 151.206345 49.4632086 151.065957 48.6179882 154.869132 48.3344609 156.419044 48.3344609 157.969661 48.4760482 159.519573 48.6179882 160.788709 49.0390817 162.056433 49.7439846 163.182359 50.5905455 162.761195 51.2946724 162.196821 52.0001398 160.929802 53.1258541 159.519573 54.2540374 158.955904 54.8175648 158.39153 55.5211274"></polyline>
                            <polyline id="path30" fill="#FFFFFF" points="163.182359 50.5905455 162.056433 49.7439846 160.788709 49.0390817 159.519573 48.6179882 157.969661 48.4760482 156.419044 48.3344609 154.869132 48.3344609 151.065957 48.6179882 151.206345 49.4632086 151.48571 50.025325 152.05079 50.449452 152.755552 50.8727324 154.16437 51.4349193 154.869132 51.7171063 155.574599 52.0001398 155.433506 52.8444431 155.292412 53.5491345 155.574599 54.6759069 155.714282 55.8038787 155.856081 57.3544959 155.292412 57.4947428 154.728038 57.3544959 154.16437 57.072309 153.600702 56.6498751 152.332977 55.6635612 151.770719 55.3827852 151.065957 55.0984113 150.361196 55.2408452 149.374247 55.5211274 148.388003 55.8038787 147.399644 55.9449721 146.555199 55.8038787 145.710755 55.6635612 144.29982 55.0984113 143.173189 54.5353778 142.608815 54.3942844 142.187651 54.3942844 141.480772 54.5353778 140.918515 54.6759069 140.49594 54.9586582 140.074776 55.3827852 139.369309 56.2265947 138.804935 57.2134024 137.819397 59.4667357 137.255728 60.5947075 136.409168 61.5817974 136.689944 61.8631378 136.973542 61.8631378 137.679009 62.0033847 138.381654 62.1444782 138.664547 62.2855716 138.946028 62.4266651 137.114635 63.4124146 135.141443 64.2595398 134.154494 64.6814093 133.025746 64.9635963 131.89982 64.9635963 130.772484 64.6814093 130.63139 63.4124146 130.63139 62.9905452 130.772484 62.5672647 131.336152 61.8631378 131.89982 61.2996105 133.309344 60.45439 133.873718 60.031674 134.435975 59.3270532 133.873718 58.6229262 133.449732 58.1996458 132.885358 58.0585523 132.323101 58.0585523 131.617633 58.1996458 131.05467 58.3399633 129.645852 59.0448662 128.237739 59.7503336 126.685711 60.45439 125.841972 60.5947075 125.135799 60.5947075 124.290649 60.45439 123.443383 60.031674 122.879715 60.1727675 122.317457 60.45439 121.329803 61.0179879 120.486064 61.5817974 119.359433 62.0033847 118.652554 61.5817974 117.949203 61.2996105 117.244442 61.158517 116.538269 61.0179879 115.835623 61.0179879 115.130861 61.158517 113.86102 61.5817974 112.594706 62.1444782 111.465958 62.8499455 109.213401 64.2595398 109.213401 64.8225028 109.213401 65.1046897 109.492766 65.8088167 110.058551 66.2320971 110.622219 66.5134375 111.183771 66.7950601 111.607052 67.2175645 112.030332 67.781374 112.030332 68.0627143 112.030332 68.4868413 111.889239 68.7681817 111.607052 68.9087108 110.762607 68.9087108 109.774953 68.9087108 108.788004 68.9087108 108.508639 69.3319912 108.085359 69.7552716 107.661373 70.7414444 107.09841 71.8680758 106.814812 72.2913562 106.393648 72.7139312 105.830685 72.5728377 105.406699 72.2913562 104.701937 71.5865943 104.138974 70.7414444 103.857493 69.8963651 103.293119 67.9224674 103.011638 66.7950601 102.30617 65.8088167 101.180244 64.4000689 99.6282162 62.9905452 96.6708971 60.45439 93.992943 58.3399633 93.0059941 57.3544959 92.1615497 56.3676882 91.8786573 55.8038787 91.7382693 55.2408452 91.7382693 54.5353778 91.8786573 53.9718505 92.0190453 53.1258541 92.4430312 52.4217271 93.0059941 51.4349193 93.8518495 50.5905455 92.7245127 49.7439846 91.5971758 49.1810217 89.2014087 47.9125208 88.0740719 47.067371 87.2282165 46.2215861 86.806347 45.6572123 86.5241601 45.0955897 86.2419732 44.3893463 86.1008797 43.684655 86.2419732 43.2627855 86.3830666 42.8395051 86.806347 42.6984116 87.2282165 42.5573182 88.0740719 42.2759778 88.3562588 41.9937908 88.4966468 41.7129443 88.3562588 40.8663835 87.9329784 40.162327 86.806347 38.7519567 86.3830666 38.0472654 85.8193982 37.3432089 85.5365058 36.639082 85.2564353 35.6528386 86.2419732 34.2432443 86.946735 32.6934736 87.6507915 31.0025389 88.0740719 29.3121686 89.0603152 25.6473362 89.6246891 23.9564015 90.189063 22.2651846 89.9068761 21.7016573 89.3432076 21.2789413 88.2144599 20.5743205 87.6507915 20.2921335 87.0864176 19.8693469 86.806347 19.4477597 86.5241601 18.7414457 86.806347 18.4614457 87.0864176 18.1779184 87.7911795 17.7559784 88.6384458 17.332698 89.6246891 17.1921689 90.610227 16.9099819 91.4567878 16.4861372 92.1615497 16.064832 92.4430312 15.7826451 92.5841247 15.3607051 93.4285691 15.6423277 94.1340364 15.7826451 95.4031722 15.7826451 96.5276872 15.5012342 97.6585514 15.0771778 98.6426783 14.3730508 99.4878282 13.6692766 101.180244 12.2616575 98.2208088 11.9780597 95.2620787 11.9780597 92.7245127 12.1185888 91.4567878 12.2616575 90.189063 12.5418692 89.0603152 12.8232801 88.0740719 13.2473365 86.946735 13.8109344 86.1008797 14.5149908 85.2564353 15.2196116 84.5523788 16.2053611 83.8469115 17.1921689 83.2825376 18.4614457 83.0003507 19.3049731 82.7181637 20.2921335 82.4366822 22.4062781 82.1566117 24.8021158 82.0148128 27.3382709 82.0148128 30.1573185 81.7326258 32.8340027 81.4511443 35.7920273 80.8874759 38.6116392 80.4641955 40.020387 79.9005271 41.4285704 78.6313913 45.0955897 78.0684284 46.9248666 77.50476 48.8979882 77.222573 50.7307924 77.222573 52.4217271 77.364372 53.2677235 77.6465589 54.112944 78.6313913 56.0868416 79.0546717 57.072309 79.3375642 58.0585523 79.3375642 58.9043372 79.1957652 59.7503336 78.4917088 59.4667357 77.7876524 59.1859597 77.222573 58.7640197 76.6596101 58.1996458 75.6733667 56.9320621 74.8268059 55.5211274 73.9823615 54.112944 73.4179876 52.5631027 72.7146366 51.1540728 72.2906508 50.5905455 71.8687813 50.1678294 70.0366826 49.0390817 68.7678995 48.4760482 67.9219031 48.1938612 67.5000336 48.3344609 67.0769648 48.3344609 66.0907215 48.7577413 64.9635963 49.1810217 64.4003511 49.3212686 63.8362594 49.3212686 62.4266651 49.1810217 60.7360831 48.7577413 58.7626793 48.1938612 56.790122 47.6303339 54.9586582 47.490087 53.9721327 47.490087 53.1266301 47.6303339 52.2806336 47.9125208 51.4354837 48.3344609 50.7305102 48.8979882 50.0264538 49.7439846 49.6031734 50.449452 49.3215508 51.1540728 49.1804573 51.7171063 49.1804573 52.4217271 49.3215508 53.6896636 49.7437025 55.0984113 50.0264538 56.5087817 50.4488876 57.9174589 50.5899811 59.6092401 50.5899811 60.3132966 50.4488876 61.2996105 49.039646 59.7503336 47.4895226 58.3399633 44.3890641 55.6635612 42.8389407 54.3942844 41.2890995 52.8444431 39.8798579 51.4349193 38.6111454 49.7439846 39.1757309 48.0536143 39.3160484 46.363244 39.3160484 44.9523093 38.8933324 43.5435615 38.4711101 42.4170712 37.765925 41.2896639 36.9207751 40.3020096 35.9347434 39.3171066 33.6794348 37.6253959 31.4252549 35.9344612 29.1705107 34.3838439 28.1842674 33.39753 27.3379887 32.5518158 27.6204579 31.2838793 27.9015161 30.1573185 28.1842674 28.7469481 28.1842674 28.0431739 28.0426095 27.1971775 27.4788 26.4924861 26.6330152 25.7884297 25.7881475 25.2240558 24.9427154 24.6618689 22.9693116 23.673368 21.9835621 23.2514985 21.2786591 22.5468777 21.418906 21.4200347 21.418906 20.2921335 21.418906 19.4477597 21.2786591 18.6003523 20.7151318 17.0510754 20.0102288 15.3607051 20.7151318 14.9382712 21.7013751 14.6574952 23.5334033 14.0908638 25.5059606 13.5281831 27.3379887 13.1068074 26.9149905 12.8232801 26.4924861 12.5418692 25.224338 12.2616575 23.6744968 12.1185888 21.9835621 12.1185888 20.2918513 12.2616575 18.7420101 12.5418692 17.3332624 12.9643736 16.3464546 13.3862431 15.6418338 15.6423277 15.078236 17.8962958 14.2330861 20.0104404 13.6687122 20.9967543 13.1051849 21.8427508 13.5281831 23.2514985 14.0914282 24.5213398 14.6552377 25.7884297 15.3601407 26.7746731 16.9105463 28.8897347 18.7420101 30.7209163 20.433227 32.5518158 22.1240912 34.2432443 22.8285003 35.2304048 23.3923098 36.2166481 23.9558371 37.202962 24.5196467 38.3302989 25.0838089 40.162327 25.3648671 42.1326268 25.6473362 44.1084998 25.7881475 45.9399636 26.2108635 49.6034556 26.4924861 51.4349193 26.9149905 53.2677235 27.6204579 55.3827852 28.4661721 57.6352719 29.4518511 59.7503336 30.5786941 61.8631378 31.847971 63.9773529 33.2570009 65.9499102 34.80656 67.9224674 36.4979885 69.7552716 38.3297345 71.4455009 40.1617627 72.9954126 42.2756956 74.4056419 44.5298754 75.5322732 46.9259953 76.6596101 49.4623621 77.50476 52.1398223 78.0684284 54.9586582 78.4910033 57.7761538 78.6320968 60.7360831 78.7731903 66.7947779 78.6320968 72.9954126 78.4910033 79.1957652 78.4910033 82.2969997 78.6320968 85.3954123 79.0553772 91.1738954 80.1834195 94.1340364 80.7470879 97.093472 81.1689574 100.333684 81.3107563 101.883595 81.3107563 103.575306 81.1689574 104.983419 80.8867705 106.535447 80.6066999 107.803172 80.0416206 109.213401 79.4779522 111.889239 78.2095219 114.425394 76.6596101 117.103348 74.9686048 119.781302 73.418693 122.599644 72.0091693 124.008463 71.3051129 125.55908 70.7414444 129.504053 69.7552716 133.873718 68.7681817 138.240561 67.9224674 142.608815 67.077247 144.7231 66.5134375 146.696293 65.8088167 148.669485 65.1046897 150.501584 64.2595398 152.191178 63.4124146 153.741795 62.2855716 155.151319 61.158517 156.27795 59.7503336 156.982712 58.6229262 157.405287 57.6352719 157.829273 56.5087817 158.39153 55.5211274 158.955904 54.8175648 159.519573 54.2540374 160.929802 53.1258541 162.196821 52.0001398 162.761195 51.2946724 163.042677 50.5905455 163.182359 50.5905455"></polyline>
                            <path d="M163.822924,4.56376708 C163.675481,4.64616567 163.437738,4.68722387 163.111813,4.68722387 L162.60952,4.68722387 L162.60952,3.48021155 L163.140737,3.48021155 C163.389767,3.48021155 163.57601,3.50556605 163.700172,3.55489233 C163.929449,3.64583412 164.043735,3.81944259 164.043735,4.07544963 C164.043735,4.31822917 163.970366,4.4805431 163.822924,4.56376708 Z M163.188003,5.08845843 C163.602112,5.08845843 163.905463,5.04822562 164.098056,4.96858541 C164.443029,4.82473357 164.614458,4.54309689 164.614458,4.12422565 C164.614458,3.826335 164.506521,3.60697698 164.289943,3.46588351 C164.175657,3.39120274 164.0134,3.33746729 163.808109,3.30439498 C164.069132,3.26361191 164.258902,3.15420803 164.380948,2.97839851 C164.501583,2.80203168 164.560842,2.63062427 164.560842,2.46280064 L164.560842,2.21863839 C164.560842,2.14175656 164.563664,2.05935797 164.569308,1.97117455 C164.574952,1.8835414 164.584123,1.82567191 164.598232,1.79811636 L164.619396,1.75650084 L164.069132,1.75650084 C164.06631,1.76780242 164.064193,1.77854669 164.061372,1.78984828 C164.057844,1.80114987 164.055022,1.81299466 164.0522,1.82649731 L164.040208,1.93370013 L164.040208,2.19741793 C164.040208,2.58212339 163.935093,2.83592233 163.725569,2.96020451 C163.602112,3.03130857 163.384828,3.06658193 163.073012,3.06658193 L162.60952,3.06658193 L162.60952,1.75650084 L162.023276,1.75650084 L162.023276,5.08845843 L163.188003,5.08845843 Z M161.403171,5.2579399 C160.895234,4.74785173 160.642677,4.13194346 160.642677,3.41021508 C160.642677,2.68298406 160.894529,2.06266662 161.398232,1.54982712 C161.906169,1.03698057 162.521336,0.780973525 163.246557,0.780973525 C163.971072,0.780973525 164.586945,1.03698057 165.094176,1.54982712 C165.600701,2.06266662 165.85467,2.68298406 165.85467,3.41021508 C165.85467,4.13194346 165.600701,4.74785173 165.094176,5.2579399 C164.584123,5.769954 163.968955,6.02678645 163.246557,6.02678645 C162.52698,6.02678645 161.912518,5.769954 161.403171,5.2579399 L161.403171,5.2579399 Z M165.39541,1.26074776 C164.803523,0.665233846 164.087474,0.367614806 163.246557,0.367614806 C162.406345,0.367614806 161.691001,0.665233846 161.100525,1.26074776 C160.513576,1.85322747 160.220807,2.57082181 160.220807,3.41434912 C160.220807,4.24906515 160.516398,4.96307571 161.109696,5.55555542 C161.699467,6.1452838 162.411989,6.44014799 163.246557,6.44014799 C164.087474,6.44014799 164.803523,6.1452838 165.39541,5.55555542 C165.988708,4.96582704 166.285005,4.25181647 166.285005,3.41434912 C166.285005,2.57358018 165.988708,1.85598584 165.39541,1.26074776 L165.39541,1.26074776 Z" id="path32" fill="#231F20" fill-rule="nonzero"></path>
                        </g>
                    </g>
                </g>
            </g>
        </g>
    </g>
</svg>