<?xml version="1.0" encoding="UTF-8"?>
<svg width="200px" height="200px" viewBox="0 0 200 200" version="1.1" xmlns="http://www.w3.org/2000/svg" xmlns:xlink="http://www.w3.org/1999/xlink">
    <!-- Generator: Sketch 54.1 (76490) - https://sketchapp.com -->
    <title>american-intl</title>
    <desc>Created with Sketch.</desc>
    <defs>
        <polygon id="path-1" points="0.0751031801 0.11314629 87.4401646 0.11314629 87.4401646 51.8253752 0.0751031801 51.8253752"></polygon>
    </defs>
    <g id="american-intl" stroke="none" stroke-width="1" fill="none" fill-rule="evenodd">
        <g id="american-intl_BGL">
            <g id="american-intl" transform="translate(0.000000, 29.000000)">
                <path d="M73.6938608,112.419372 C58.8646658,109.34161 48.3115962,105.174625 43.5279673,98.5470668 C36.752251,89.1601637 38.2592087,85.0351978 38.2592087,85.0351978 C40.9620737,89.2087312 41.6619372,90.3773533 46.3356071,92.7836289 C46.9929059,93.1219645 47.6995907,93.4534789 48.4676671,93.7882674 C58.007367,97.9476126 73.3969986,94.6589359 89.4652115,80.7170532 C94.5053206,76.3432469 122.678854,73.4379263 122.678854,73.4379263" id="Fill-1" fill="#1A1919"></path>
                <path d="M51.3497954,95.957708 C52.5129604,96.2133697 53.3645293,96.3476126 53.3645293,96.3476126 C53.3645293,96.3476126 52.0900409,98.1776262 51.8174625,99.9405184 C51.5350614,101.770805 51.6210095,102.812824 51.6210095,102.812824 C51.6210095,102.812824 50.4406548,102.212824 49.5096862,101.597817 C48.6428377,101.025102 47.528513,100.020464 47.528513,100.020464 C47.528513,100.020464 47.0024557,99.2698499 47.6466576,97.4995907 C48.1328786,96.1639836 49.2739427,95.2583902 49.2739427,95.2583902 C49.2739427,95.2583902 50.3173261,95.7304229 51.3497954,95.957708" id="Fill-2" fill="#F2AF36"></path>
                <path d="M61.860573,96.4472033 C62.6351978,96.3538881 64.3727149,96.0900409 64.3727149,96.0900409 C64.3727149,96.0900409 62.6390177,99.0248295 63.499045,103.356889 C64.3590723,107.688131 65.6210095,108.474488 65.6210095,108.474488 C65.6210095,108.474488 64.8914052,108.597544 61.7156889,107.508322 C58.7986357,106.507503 58.1525239,105.827285 58.1525239,105.827285 C58.1525239,105.827285 56.6684857,103.771623 57.4190996,100.503683 C58.1691678,97.2351978 59.1626194,96.6818554 59.1626194,96.6818554 C59.1626194,96.6818554 60.7628922,96.5792633 61.860573,96.4472033" id="Fill-3" fill="#F2AF36"></path>
                <path d="M74.2360164,93.0070941 C75.4463847,92.4452933 77.2504775,91.5557981 77.46794,91.2963165 C77.46794,91.2963165 75.2693042,96.4401091 78.4360164,103.898772 C81.4739427,111.05457 85.6442019,112.557435 85.6442019,112.557435 C83.8300136,112.569168 82.9934516,112.419645 80.3738063,112.034106 C77.220191,111.569714 75.1356071,110.859482 75.1356071,110.859482 C75.1356071,110.859482 72.6261937,109.606003 70.9366985,105.580355 C67.8079127,98.1276944 71.1675307,94.2594816 71.1675307,94.2594816 C71.1675307,94.2594816 73.0248295,93.5694407 74.2360164,93.0070941" id="Fill-4" fill="#F2AF36"></path>
                <path d="M158.095498,80.972442 C157.821828,80.957708 157.567258,80.8984993 157.326876,80.794543 L111.922237,61.2057299 C111.148977,60.871487 110.637926,60.1416098 110.587449,59.3004093 L110.368895,55.6461119 C110.329877,54.9819918 110.586085,54.3418827 111.072578,53.8900409 C111.481583,53.5105048 112.013643,53.3017735 112.571623,53.3017735 C112.601091,53.3017735 112.648022,53.3031378 112.678308,53.304502 C112.743247,53.3069577 112.825375,53.3151432 112.909141,53.3282401 C114.45648,53.5702592 150.8191,59.2665757 158.38472,61.0409277 C164.779263,62.5396999 173.521965,65.0646658 174.789632,65.9517053 C175.562074,66.4924966 176.924966,68.0979536 177.932606,69.3495225 C178.363984,69.8864939 178.521692,70.5765348 178.366985,71.2450205 C178.213915,71.9148704 177.744065,72.4854025 177.112688,72.7664393 L159.096044,80.7844475 C158.81337,80.9110505 158.511323,80.9748977 158.200546,80.9748977 C158.171078,80.9748977 158.124693,80.9740791 158.095498,80.972442" id="Fill-5" fill="#1A1919"></path>
                <path d="M158.184175,79.1135061 C158.142701,79.1115962 158.102592,79.1023192 158.063574,79.0859482 L112.659482,59.4974079 C112.536153,59.4439291 112.452933,59.3238745 112.444475,59.1882674 L112.226739,55.5356071 C112.219918,55.4291951 112.261119,55.3255116 112.338881,55.2545703 C112.406548,55.1915416 112.496862,55.1587995 112.587722,55.1631651 C112.6,55.1639836 112.612278,55.165075 112.624829,55.166985 C113.001637,55.2261937 150.413643,61.0832196 157.959891,62.8526603 C165.426739,64.6035471 172.95307,66.9380628 173.72251,67.4769441 C174.425648,67.9683492 176.274761,70.2575716 176.483492,70.5170532 C176.552797,70.6030014 176.578718,70.7173261 176.554434,70.8248295 C176.529059,70.9328786 176.45648,71.0215553 176.356889,71.0657572 L158.339427,79.0843111 C158.290041,79.1061392 158.237108,79.1162347 158.184175,79.1135061" id="Fill-6" fill="#FFFFFE"></path>
                <path d="M141.529604,67.2106412 C141.529604,67.2106412 142.426467,67.33397 143.748431,67.5847203 C145.072578,67.8272851 146.816644,68.2084584 148.521965,68.6799454 C149.374352,68.9159618 150.227012,69.1429741 151.009277,69.40191 C151.790996,69.6622101 152.500409,69.9530696 153.098772,70.2204638 C154.294407,70.7557981 155.030559,71.231105 155.030559,71.231105 C155.343793,71.4529332 155.343247,71.4529332 154.971896,71.3664393 C154.971896,71.3664393 154.143247,71.1167804 152.921692,70.6766712 C152.310778,70.4564802 151.596726,70.2002729 150.833561,69.9099591 C150.071214,69.6185539 149.256207,69.2938608 148.421282,69.0171896 C146.750887,68.4646658 145.032742,68.0010914 143.725239,67.695498 C142.415553,67.3983629 141.523329,67.2428377 141.523329,67.2428377 C141.009277,67.1465211 141.004366,67.1347885 141.529604,67.2106412" id="Fill-7" fill="#FFFFFE"></path>
                <path d="M148.386903,66.8619372 C148.386903,66.8619372 148.825375,66.9361528 149.480491,67.0630286 C150.136698,67.1811733 151.008458,67.3530696 151.874216,67.5481583 C152.307231,67.6450205 152.747067,67.7181446 153.150068,67.8210095 C153.55307,67.9241473 153.917053,68.0570259 154.224557,68.1822647 C154.532333,68.3091405 154.781173,68.4365621 154.952251,68.5331514 C155.121146,68.6351978 155.217462,68.6952251 155.217462,68.6952251 C155.374625,68.8261937 155.373533,68.8272851 155.169714,68.8341064 C155.169714,68.8341064 155.058117,68.8210095 154.863029,68.8005457 C154.669577,68.7729877 154.396999,68.7255116 154.075853,68.6488404 C153.755525,68.5702592 153.384993,68.471487 152.99618,68.3356071 C152.607367,68.1989086 152.199454,68.0264666 151.780355,67.8867667 C150.943247,67.6092769 150.094952,67.3538881 149.455116,67.172442 C148.812005,66.9991814 148.379809,66.8938608 148.379809,66.8938608 C148.129877,66.8302865 148.129059,66.8188267 148.386903,66.8619372" id="Fill-8" fill="#FFFFFE"></path>
                <path d="M47.3566166,82.7972715 C46.9863574,82.7948158 46.6188267,82.6976808 46.2957708,82.5148704 L28.06603,72.2365621 C27.4758527,71.9061392 27.0687585,71.3233288 26.9519782,70.6401091 C26.8425648,70 27.0065484,69.3410641 27.4024557,68.8327422 C28.4840382,67.451296 29.9396999,65.6884038 30.7478854,65.1148704 C32.0911323,64.1626194 41.1953615,61.7517053 47.8379263,60.3912688 C55.7135061,58.777899 94.5203274,54.1713506 94.911869,54.1249659 C95.0046385,54.1148704 95.086221,54.1094134 95.1683492,54.1094134 C95.8005457,54.111869 96.3997271,54.3858117 96.8185539,54.8603001 C97.2283765,55.3241473 97.4341064,55.9511596 97.3809004,56.5784447 L97.018281,60.7765348 C96.9440655,61.6245566 96.4215553,62.352251 95.6529332,62.6755798 L48.2139154,82.6261937 C47.954161,82.7377899 47.6652115,82.7972715 47.3678035,82.7972715 L47.3566166,82.7972715" id="Fill-9" fill="#1A1919"></path>
                <path d="M47.3675307,80.9358799 C47.4095498,80.9358799 47.4521146,80.9282401 47.4924966,80.9110505 L94.93206,60.9598909 C95.060573,60.9055935 95.1508868,60.7721692 95.1639836,60.6163711 L95.5257844,56.4210095 C95.5366985,56.2984993 95.4982265,56.1770805 95.4210095,56.0900409 C95.3538881,56.0133697 95.2624829,55.9708049 95.1683492,55.9708049 C95.1560709,55.9708049 95.1435198,55.9710778 95.1309686,55.9727149 C94.7407913,56.0188267 56.0401091,60.6109141 48.2120055,62.2144611 C40.46603,63.8008186 32.6362892,66.0567531 31.8248295,66.633015 C31.0834925,67.1590723 29.0949523,69.6894952 28.8703956,69.9759891 C28.7959072,70.0723056 28.7648022,70.2013643 28.7860846,70.3271487 C28.8079127,70.4521146 28.8791269,70.5590723 28.979809,70.6158254 L47.2087312,80.893588 C47.258663,80.9216917 47.3126876,80.9358799 47.3675307,80.9358799" id="Fill-10" fill="#FFFFFE"></path>
                <path d="M69.8750341,67.306412 C69.8750341,67.306412 68.3765348,67.2308322 66.1620737,67.3156889 C63.473397,67.4065484 60.8259209,67.7601637 58.1691678,68.2125512 C56.7402456,68.4750341 55.3276944,68.7994543 54.0193724,69.1527967 C52.7148704,69.5203274 51.5244202,69.9514325 50.5203274,70.3587995 C48.5121419,71.174352 47.2624829,71.9255116 47.2624829,71.9255116 C46.7236016,72.2619372 46.726603,72.2652115 47.3195089,72.0837653 C47.3195089,72.0837653 48.658663,71.5978172 50.6821282,70.895498 C51.6938608,70.544884 52.8813097,70.1552524 54.1648022,69.7527967 C55.445839,69.3364256 56.8319236,68.9435198 58.2395634,68.6111869 C60.8723056,68.0695771 63.4971351,67.6278308 66.1702592,67.4463847 C68.3773533,67.306412 69.875307,67.3440655 69.875307,67.3440655 C70.7405184,67.3497954 70.7514325,67.3377899 69.8750341,67.306412" id="Fill-11" fill="#FFFFFE"></path>
                <path d="M64.9462483,68.1822647 C64.9462483,68.1822647 64.0190996,68.273397 62.6499318,68.4859482 C61.2793997,68.688131 59.4701228,69.0272851 57.699045,69.4728513 C56.8133697,69.6952251 55.9271487,69.9077763 55.1135061,70.161528 C54.2995907,70.4152797 53.5585266,70.7096862 52.9334243,70.9833561 C51.6837653,71.5306958 50.9080491,72.0360164 50.9080491,72.0360164 C50.577899,72.273397 50.5787176,72.2742156 50.9637108,72.1956344 C50.9637108,72.1956344 51.8259209,71.9555252 53.0984993,71.5186903 C53.7350614,71.3001364 54.4785812,71.045839 55.2744884,70.7555252 C56.0703956,70.4643929 56.9203274,70.1369714 57.7901774,69.8665757 C59.5282401,69.326603 61.3135061,68.8914052 62.6698499,68.614734 C64.0278308,68.3476126 64.9508868,68.2204638 64.9508868,68.2204638 C65.4843111,68.1388813 65.4892224,68.1255116 64.9462483,68.1822647" id="Fill-12" fill="#FFFFFE"></path>
                <path d="M57.9066849,67.385266 C57.9066849,67.385266 57.4526603,67.4455662 56.7746248,67.5536153 C56.0949523,67.6526603 55.1920873,67.8005457 54.2941337,67.9746248 C53.8450205,68.0613915 53.3899045,68.1206003 52.9713506,68.2158254 C52.5536153,68.3105048 52.1732606,68.4439291 51.8515689,68.5699864 C51.5312415,68.6987722 51.2706685,68.8313779 51.0908595,68.9323329 C50.9135061,69.0409277 50.8122783,69.1031378 50.8122783,69.1031378 C50.6455662,69.245839 50.6463847,69.2472033 50.8559345,69.2668486 C50.8559345,69.2668486 50.9710778,69.2581173 51.1727149,69.2450205 C51.3727149,69.2251023 51.6548431,69.1858117 51.9874488,69.1159618 C52.3197817,69.0439291 52.7050477,68.9517053 53.1102319,68.8171896 C53.5151432,68.6824011 53.9416098,68.5072306 54.3770805,68.3705321 C55.2488404,68.0995907 56.1309686,67.8540246 56.7967258,67.6815825 C57.4635744,67.5195089 57.9126876,67.422101 57.9126876,67.422101 C58.1718963,67.3634379 58.1729877,67.3506139 57.9066849,67.385266" id="Fill-13" fill="#FFFFFE"></path>
                <g id="Group-17" transform="translate(41.473397, 6.002729)">
                    <path d="M22.6706685,58.7427012 C22.6706685,58.7427012 21.2452933,58.744884 19.1206003,58.8684857 C16.5244202,59.0057299 13.9492497,59.3061392 11.3713506,59.6673943 C9.97189632,59.8815825 8.57216917,60.093588 7.2728513,60.3680764 C5.97380628,60.6431105 4.77653479,60.9792633 3.75989086,61.2993179 C1.72633015,61.9388813 0.425375171,62.5609823 0.425375171,62.5609823 C-0.133697135,62.8507503 -0.131787176,62.8548431 0.476125512,62.7604366 C0.476125512,62.7604366 1.85620737,62.4673943 3.9047749,61.9642565 C4.92905866,61.7126876 6.12469304,61.4253752 7.40572988,61.1042292 C8.68703956,60.7822647 10.0542974,60.4267394 11.4381992,60.1527967 C13.9942701,59.6821282 16.548704,59.2728513 19.1301501,59.0259209 C21.2480218,58.8354707 22.671487,58.7888131 22.671487,58.7888131 C23.4965894,58.7503411 23.5050477,58.7347885 22.6706685,58.7427012" id="Fill-14" fill="#FFFFFE"></path>
                    <path d="M45.779809,53.4398363 C45.2381992,53.4398363 44.721146,53.2414734 44.3233288,52.8813097 L42.4360164,51.174352 C41.8834925,50.6728513 41.6319236,49.9091405 41.7765348,49.1787176 C41.904502,48.5255116 42.3427012,47.9514325 42.948704,47.6499318 C43.0401091,47.6043656 51.965075,43.159618 61.5208731,37.5276944 C63.9959072,36.0695771 66.5893588,34.4903138 69.3347885,32.8188267 C79.5069577,26.6242838 91.0125512,19.6185539 108.276671,11.2965894 C112.830286,9.10095498 117.467394,7.19099591 122.0603,5.620191 C127.896317,3.62319236 136.867121,1.09959072 146.458936,0.418008186 C148.058117,0.303956344 149.607913,0.246111869 151.064939,0.246111869 C154.387722,0.246111869 156.172715,0.542155525 156.364802,0.575989086 C157.168895,0.715416098 157.804638,1.1904502 158.109141,1.87912688 C158.406821,2.55170532 158.3397,3.31159618 157.924693,3.96371078 L143.508322,26.6480218 C143.276944,27.0114598 142.938608,27.3236016 142.528786,27.5538881 L115.54161,42.7658936 C115.271487,42.9189632 114.971351,43.0283765 114.653479,43.0894952 C114.620191,43.095498 114.584447,43.1017735 114.548158,43.1072306 L46.1072306,53.4152797 C45.9991814,53.4319236 45.8886767,53.4398363 45.779809,53.4398363" id="Fill-16" fill="#1A1919"></path>
                </g>
                <path d="M155.732606,47.2717599 L87.3034106,57.5776262 C87.207367,57.5920873 87.1132333,57.5653479 87.045839,57.5050477 L85.1579809,55.7972715 C85.0875853,55.7334243 85.0567531,55.6390177 85.075307,55.5437926 C85.0941337,55.4480218 85.1598909,55.3637108 85.2523874,55.3181446 C85.3358799,55.2761255 94.3538881,50.7828104 103.938881,45.1342428 C106.430832,43.6654843 108.990177,42.1072306 111.796999,40.39809 C121.706412,34.3637108 133.376535,27.2578445 150.558254,18.9748977 C154.995634,16.8362892 159.566166,14.946794 164.135607,13.3836289 C169.690041,11.4829468 178.595634,8.94924966 188.06412,8.27694407 C194.152524,7.84420191 197.380628,8.38799454 197.517053,8.41173261 C197.872578,8.473397 197.998363,8.69959072 197.828104,8.96834925 L183.410641,31.6529332 C183.34543,31.7555252 183.233834,31.8537517 183.090041,31.9347885 L156.101228,47.1478854 C156.005184,47.2016371 155.894134,47.2412005 155.777899,47.2635744 C155.763165,47.2671214 155.747885,47.2693042 155.732606,47.2717599" id="Fill-18" fill="#FFFFFE"></path>
                <g id="Group-22" transform="translate(0.000000, 3.547067)">
                    <path d="M145.001637,33.2597544 C145.001637,33.2597544 145.877763,32.7323329 147.221828,31.9822647 C148.560437,31.2163711 150.372169,30.2316508 152.228377,29.3102319 C153.156071,28.8491132 154.072578,28.3446112 154.962347,27.9424284 C155.851569,27.541337 156.71296,27.2425648 157.461119,27.0136426 C158.956344,26.5552524 160.023192,26.453206 160.023192,26.453206 C160.497681,26.4466576 160.496589,26.4474761 160.114325,26.7369714 C160.114325,26.7369714 159.201091,27.3031378 157.778718,27.941337 C157.067394,28.260573 156.236289,28.6188267 155.329604,28.9503411 C154.422374,29.2810368 153.438199,29.5849932 152.483492,29.9618008 C150.573806,30.7173261 148.700409,31.5410641 147.313233,32.1869031 C145.931787,32.8485675 145.029195,33.3186903 145.029195,33.3186903 C144.501774,33.5855389 144.48704,33.5694407 145.001637,33.2597544" id="Fill-19" fill="#FFFFFE"></path>
                    <path d="M117.3206,61.6327422 C117.196453,61.6327422 117.071214,61.6218281 116.948431,61.6005457 L46.0357435,49.372442 C45.974352,49.3618008 45.9353342,49.354161 45.8968622,49.3454297 C45.5776262,49.2761255 45.2638472,49.1489768 44.979809,48.9705321 L16.7375171,31.2603001 C16.3372442,31.0100955 16.0076398,30.678854 15.7855389,30.3028649 L0.340245566,4.00982265 C-0.0559345157,3.33533424 -0.108594816,2.56398363 0.195361528,1.89331514 C0.501773533,1.21800819 1.12414734,0.745156889 1.90395634,0.596998636 C2.09358799,0.560982265 3.87175989,0.237380628 7.16834925,0.237380628 C8.74297408,0.237380628 10.4240109,0.312141883 12.1661664,0.458117326 C22.0995907,1.29085948 31.4321965,4.25156889 37.5124147,6.58854025 C42.291678,8.42564802 47.1268759,10.6542974 51.8832196,13.212824 C69.9124147,22.9113233 81.9634379,31.0619372 92.5956344,38.253206 L92.6376535,38.2818554 C95.5069577,40.2223738 98.2174625,42.0556617 100.802729,43.748704 C110.807367,50.3017735 120.138336,55.4851296 120.231651,55.5364256 C120.812824,55.8594816 121.217735,56.418281 121.344338,57.0703956 C121.48322,57.7754434 121.270123,58.5042292 120.773261,59.0152797 L118.86603,60.9800819 C118.464939,61.394543 117.900955,61.6327422 117.3206,61.6327422" id="Fill-21" fill="#1A1919"></path>
                </g>
                <path d="M46.3517053,51.0859482 L117.266576,63.3145975 C117.365621,63.3309686 117.462756,63.3006821 117.530423,63.231105 L119.438745,61.2657572 C119.509959,61.192633 119.538881,61.0829468 119.517326,60.9727149 C119.496044,60.8627558 119.425102,60.765075 119.329604,60.7115962 C119.242019,60.6630286 109.8191,55.4267394 99.7833561,48.8526603 C97.1735334,47.1440655 94.4930423,45.3309686 91.5530696,43.3421555 C81.1716235,36.321146 68.9481583,28.0529332 51.0021828,18.3991814 C46.3678035,15.906412 41.60191,13.7012278 36.8447476,11.8731241 C31.0627558,9.65047749 21.8040928,6.68049113 12.0106412,5.85948158 C5.71241473,5.33151432 2.39181446,5.94570259 2.25238745,5.97244202 C1.88703956,6.0420191 1.76207367,6.30286494 1.94461119,6.61418827 L17.3879945,32.9036835 C17.4578445,33.0223738 17.5754434,33.1364256 17.7263302,33.2308322 L45.9680764,50.941337 C46.0687585,51.0043656 46.1847203,51.0510232 46.3050477,51.0769441 C46.3203274,51.0802183 46.3361528,51.0832196 46.3517053,51.0859482" id="Fill-23" fill="#FFFFFE"></path>
                <path d="M127.575171,101.926057 C125.289495,95.328513 123.672578,87.6283765 122.969441,78.8783083 C122.268759,70.1484311 125.187995,60.1066849 126.019918,57.8665757 C126.851023,55.6272851 98.3675307,41.5377899 98.3675307,41.5377899 L88.0922237,34.3628922 C88.0922237,34.3628922 70.3214188,36.0343793 67.2627558,54.5421555 C65.3039563,66.3983629 65.5105048,86.3874488 88.842292,108.135061" id="Fill-24" fill="#1A1919"></path>
                <path d="M91.8965894,73.9336971 C91.9738063,73.4843111 92.0021828,73.0976808 91.9803547,72.774352 C91.9331514,72.0873124 91.6848568,71.7735334 91.2354707,71.8338336 C90.9326057,71.8742156 90.6218281,72.0927694 90.3042292,72.4884038 C89.9492497,72.9271487 89.6502046,73.5301501 89.4065484,74.2952251 C89.2673943,74.719236 89.1085948,75.434925 88.9312415,76.4431105 L91.5080491,76.2682128 L91.8965894,73.9336971 Z M96.2030014,76.1697135 L96.0603001,76.9042292 C96.0308322,77.0447476 95.961528,77.1178718 95.8537517,77.1255116 L93.2643929,77.3020464 C93.1950887,77.8690314 93.1732606,78.3484311 93.2002729,78.741337 C93.2368349,79.280764 93.3708049,79.6564802 93.6021828,79.8673943 C93.7915416,80.0425648 94.0090041,80.1206003 94.2545703,80.1042292 C94.5495225,80.0843111 94.7748977,79.9626194 94.93206,79.739427 C95.0894952,79.5170532 95.2158254,79.4463847 95.3099591,79.5293315 C95.3822647,79.574352 95.3950887,79.6960437 95.3495225,79.8971351 C95.2728513,80.2174625 95.0630286,80.5424284 94.7208731,80.8709413 C94.33206,81.2431105 93.9115962,81.4442019 93.4603001,81.4744884 C93.3424284,81.4826739 93.2289222,81.480764 93.119236,81.4682128 C92.5317872,81.3803547 92.0613915,81.1358799 91.7091405,80.7361528 C91.3560709,80.3358799 91.1582538,79.8171896 91.1145975,79.1789905 C91.091678,78.8354707 91.1156889,78.4693042 91.1879945,78.0796726 L91.3066849,77.4354707 L88.759618,77.6087312 C88.5732606,78.7849932 88.3186903,79.6854025 87.9967258,80.3080491 C87.5241473,81.1983629 86.822101,81.8136426 85.8884038,82.1530696 C85.5225102,82.286221 85.1634379,82.3648022 84.8098226,82.3893588 C84.1814461,82.4321965 83.5178718,82.2428377 82.8188267,81.8223738 C82.119236,81.4021828 81.8613915,81.0864939 82.0442019,80.8769441 C82.0780355,80.7950887 82.1667121,80.7893588 82.3094134,80.858663 C82.8289222,81.0993179 83.3533424,81.20191 83.8832196,81.1653479 C84.099045,81.1506139 84.2982265,81.1077763 84.4810368,81.0357435 C85.4995907,80.6412005 86.2420191,79.6687585 86.7085948,78.1178718 C86.8843111,77.3762619 87.1626194,76.3175989 87.5421555,74.9402456 C87.9678035,73.6684857 88.5465211,72.6731241 89.2766712,71.952251 C89.9792633,71.273397 90.7301501,70.9214188 91.526603,70.8971351 C92.8755798,70.8643929 93.6038199,71.6428377 93.7126876,73.2335607 C93.7500682,73.7828104 93.6682128,74.6856753 93.4682128,75.9418827 L93.4371078,76.1364256 L95.981719,75.9628922 C96.1582538,75.9508868 96.2321965,76.020191 96.2030014,76.1697135 L96.2030014,76.1697135 Z" id="Fill-25" fill="#FFFFFE"></path>
                <path d="M109.234379,71.8469304 C109.276398,72.0218281 109.302592,72.1972715 109.31487,72.3738063 C109.353615,72.9435198 109.228104,73.4892224 108.938336,74.0122783 C108.664939,74.4941337 108.314052,74.8436562 107.885402,75.0597544 C107.628104,75.1961801 107.347885,75.2739427 107.043656,75.2949523 C106.709686,75.3175989 106.390996,75.2709413 106.086767,75.1530696 C105.823465,75.0526603 105.68895,74.9582538 105.682947,74.8695771 C105.669577,74.6736698 105.811187,74.5751705 106.106685,74.5748977 C106.315143,74.5901774 106.532333,74.5309686 106.760709,74.3972715 C107.062756,74.2092769 107.280491,73.9255116 107.412278,73.5465211 C107.544611,73.1678035 107.599181,72.8163711 107.57708,72.4927694 C107.523056,71.6971351 107.133151,71.3345157 106.408458,71.4032742 C105.800273,71.455116 105.212278,71.8002729 104.64502,72.4406548 C103.975989,73.1863574 103.528786,74.1585266 103.305321,75.3571623 C103.1809,75.9967258 103.137244,76.5768076 103.171896,77.0971351 C103.223465,77.8526603 103.432469,78.4603001 103.799454,78.9178718 C104.100409,79.2919509 104.47176,79.528513 104.912142,79.6259209 C105.193179,79.695498 105.471214,79.7216917 105.746248,79.7025921 C106.424011,79.6564802 107.100955,79.324693 107.778445,78.7055935 C108.21528,78.311869 108.602183,77.8461119 108.940791,77.3102319 C109.172988,76.9500682 109.334243,76.7806276 109.424011,76.8043656 C109.554161,76.8351978 109.627831,76.9729877 109.644475,77.2180082 C109.662756,77.4837653 109.59618,77.8133697 109.445839,78.2076398 C109.202456,78.8360164 108.78472,79.4412005 108.193452,80.0245566 C107.352797,80.8507503 106.427012,81.2982265 105.415825,81.3672578 C105.189359,81.3828104 104.957981,81.3781719 104.719782,81.3555252 C103.676398,81.2485675 102.830832,80.8480218 102.182265,80.1527967 C101.532879,79.4572988 101.168622,78.5257844 101.089222,77.3571623 C101.063302,76.974352 101.06985,76.5699864 101.110232,76.1427012 C101.248022,74.6938608 101.774898,73.3757162 102.690041,72.1890859 C103.506139,71.1377899 104.395362,70.4461119 105.359072,70.1140518 C105.686767,70.0027285 106.017462,69.9356071 106.35116,69.9132333 C107.028922,69.8673943 107.614188,69.9950887 108.108322,70.2965894 C108.67367,70.633015 109.04884,71.1500682 109.234379,71.8469304" id="Fill-26" fill="#FFFFFE"></path>
                <path d="M99.5691678,70.3508868 L99.4109141,70.361528 L98.1732606,70.4461119 C97.324693,70.5039563 96.8076398,71.0245566 96.6229195,72.0098226 L98.4723056,71.8837653 L96.8873124,80.0622101 L96.5402456,80.0859482 C95.6922237,80.1432469 95.1754434,80.6649386 94.9901774,81.6493861 L97.8772169,81.4534789 L98.0354707,81.4425648 L99.2739427,81.3574352 C100.122237,81.3004093 100.638745,80.7789905 100.823738,79.7939973 L98.9050477,79.924693 L100.38472,71.7533424 L100.905866,71.7178718 C101.754161,71.660573 102.270941,71.1388813 102.45648,70.1538881 L99.5691678,70.3508868" id="Fill-27" fill="#FFFFFE"></path>
                <path d="M136.950887,115.66603 C139.653479,117.173806 144.239563,117.544065 147.062756,118.470668 C153.376808,120.542156 155.641746,124.0191 156.938063,127.202183 C158.79236,131.754434 155.60764,139.915962 146.025375,137.085948 C142.14352,135.939427 139.248295,132.446658 138.760437,131.92442 C138.272033,131.402183 135.787995,129.053479 134.087585,128.261392 C132.38663,127.46985 125.654843,123.570805 127.841201,118.443656 C129.66794,114.159072 132.036289,112.924693 136.950887,115.66603" id="Fill-28" fill="#1A1919"></path>
                <path d="M141.008458,127.032742 C146.116508,126.984175 146.13588,122.781446 145.235471,121.324966 C145.235471,121.324966 144.286221,126.1397 139.155798,125.634925 C136.074761,125.33206 132.62292,120.969986 132.62292,120.969986 C132.62292,120.969986 134.904502,127.091951 141.008458,127.032742 M139.274761,118.663302 C141.038745,119.358527 143.609277,119.546521 147.18854,120.550068 C152.383083,122.006548 159.463847,130.721146 152.012551,134.837926 C146.617735,137.818827 140.345157,131.364529 139.880491,130.821282 C137.859482,128.463847 135.839291,126.6794 133.279673,125.601091 C130.719236,124.522783 128.396726,120.840382 129.911596,118.427012 C132.522237,114.268213 138.163438,118.225648 139.274761,118.663302" id="Fill-29" fill="#FFFFFE"></path>
                <path d="M118.955525,80.9833561 C120.070668,81.4231924 122.161255,83.0259209 126.364529,83.0106412 C130.566712,82.9959072 132.734789,81.0894952 132.734789,81.0894952 C132.734789,81.0894952 138.732879,83.8199181 144.955798,81.4949523 C151.17899,79.1694407 147.868759,78.8308322 150.219645,78.3094134 C152.569986,77.7879945 153.329332,76.9587995 153.872306,76.0889495 C154.41528,75.2180082 154.714052,72.500955 154.714052,72.500955 C154.714052,72.500955 158.770259,70.1331514 160.420737,66.6261937 C162.072033,63.1195089 161.201364,54.6540246 160.764529,50.7839018 C160.625648,49.5571623 160.427285,51.0281037 158.927967,51.4141883 C157.428649,51.8002729 155.865211,53.2982265 153.812824,53.0529332 C151.759891,52.807367 149.189632,52.911869 147.087858,51.7571623 C144.985266,50.6013643 144.523874,50.6630286 144.523874,50.6630286 C144.523874,50.6630286 144.153342,51.4163711 143.845839,51.8444748 C143.403547,52.4608458 142.364256,52.9768076 140.42101,53.6594816 C138.490587,54.3372442 138.590177,55.1814461 138.590177,55.1814461 C138.590177,55.1814461 137.043111,53.792633 135.702319,53.2373806 C132.99427,52.1151432 128.88895,51.6240109 126.249113,52.0903138 C123.609277,52.5563438 123.07558,52.6038199 123.07558,52.6038199 L118.955525,80.9833561" id="Fill-30" fill="#1A1919"></path>
                <path d="M155.061119,53.3189632 C159.555252,52.3102319 162.989359,50.3263302 163.847476,46.5126876 C164.826467,42.1661664 162.690587,40.9451569 161.618008,40.4136426 C161.618008,40.4136426 162.234652,39.744884 162.435198,37.53397 C162.636835,35.3227831 161.833561,32.7678035 160.610914,31.7896317 C160.35498,31.5847203 160.419645,31.5789905 160.419645,31.5789905 C160.419645,31.5789905 161.585266,30.5132333 161.33206,28.471487 C161.184447,27.2739427 160.664939,26.5066849 160.234106,26.0914052 C159.675853,25.5533424 158.61146,25.1279673 158.527967,25.0884038 C158.35307,25.0060027 158.501501,24.5143247 158.480218,23.972442 C158.45839,23.4316508 158.866849,21.7470668 157.305593,20.3410641 C155.744065,18.93397 154.11869,18.633015 151.944884,19.2559345 C149.771351,19.8799454 148.979809,20.451296 147.423738,19.9178718 C143.877217,18.7028649 141.269031,18.9099591 139.282674,19.4731241 C136.644748,20.2204638 135.86794,22.0343793 135.669304,24.0392906 C135.564256,25.091678 136.324693,26.3184175 136.751432,26.8594816 C137.122237,27.3301501 136.702046,27.6338336 136.324147,28.3298772 C135.608186,29.6469304 135.655935,30.7822647 135.868759,31.4867667 C136.080764,32.1907231 136.581173,32.4944065 135.756071,33.6622101 C134.930423,34.8297408 134.191269,37.7336971 134.563165,38.9252387 C134.992087,40.3036835 136.171351,41.2687585 137.484584,41.1746248 C138.267667,41.1181446 138.607913,40.6461119 138.698499,40.8507503 C139.050477,41.6450205 139.324966,41.9039563 139.914052,42.4122783 C140.848022,43.2163711 142.753888,43.6401091 143.241473,43.7342428 C143.729059,43.8278308 143.981173,44.1847203 144.296862,44.3869031 C144.463574,44.4946794 144.604366,44.7039563 144.015007,45.8515689 C143.337244,47.1694407 143.380355,50.8469304 146.041473,52.255116 C149.796999,54.2428377 155.061119,53.3189632 155.061119,53.3189632" id="Fill-31" fill="#1A1919"></path>
                <path d="M145.671214,46.1342428 C145.664939,46.5298772 144.910778,49.9680764 150.050205,50.8207367 C155.645566,51.7492497 159.725784,49.6485675 161.28704,46.7997271 C162.705321,44.2130969 161.309141,41.1508868 160.66221,42.0668486 C160.009004,42.9907231 159.311869,44.3637108 156.999454,45.46794 C155.483765,46.1909959 154.161528,46.6889495 152.150887,46.9956344 C149.833288,47.3489768 146.727967,46.4878581 146.150614,45.8515689 C145.866849,45.5386085 145.684857,45.286221 145.671214,46.1342428" id="Fill-32" fill="#FFFFFE"></path>
                <path d="M146.221555,43.5402456 C146.274761,43.7563438 146.679127,44.2840382 147.693042,44.7241473 C148.294134,44.9849932 152.366712,45.4723056 154.631651,44.3593452 C156.895771,43.2455662 159.407367,42.3538881 160.374352,38.1115962 C161.383356,33.686221 158.497135,31.8133697 156.265757,31.4346521 C154.94543,31.2109141 153.879673,31.4267394 153.110505,31.7301501 C152.437926,31.9964529 152.35498,31.2946794 152.7206,31.0744884 C153.268759,30.7440655 153.976535,30.4215553 155.208186,30.3920873 C156.484311,30.3609823 157.849113,30.6824011 158.138336,30.7380628 C158.427558,30.7937244 159.47558,30.0638472 159.574352,29.0327422 C159.640655,28.3416098 159.261937,26.7598909 158.189905,26.2908595 C157.306958,25.904502 155.125784,26.1754434 154.566985,26.2177353 C154.009004,26.2603001 153.678581,26.3784447 153.408731,26.2264666 C153.13779,26.0739427 152.71869,25.3937244 153.306412,25.4567531 C153.894407,25.5200546 155.71296,25.4204638 156.126876,25.3506139 C156.540246,25.2799454 156.876126,24.1058663 156.724693,23.1959072 C156.573261,22.2922237 155.833834,21.4622101 154.95498,21.0924966 C154.647203,20.9631651 153.493042,20.6360164 152.427012,20.9803547 C151.360437,21.324693 149.547067,21.8507503 148.699318,21.8365621 C147.851842,21.8237381 145.520055,20.8572988 144.203547,20.6772169 C142.316235,20.4190996 141.247203,20.6365621 140.164529,20.8854025 C138.523874,21.2624829 137.784447,22.3388813 137.507503,23.0922237 C137.209277,23.9042292 137.499864,24.9839018 137.808186,25.4873124 C138.030286,25.8472033 138.326057,26.3132333 138.924966,25.8848568 C140.548158,24.7225102 142.551432,24.7088677 143.816917,24.627558 C145.707776,24.5066849 148.867394,25.4010914 149.583083,25.8390177 C150.298499,26.2769441 150.724693,26.6592087 150.003547,26.7702592 C149.282128,26.880764 147.294679,26.2984993 145.992906,26.0472033 C144.691678,25.7964529 142.497681,25.7547067 140.670941,26.4210095 C138.788813,27.1085948 137.518417,28.548704 137.282128,30.0360164 C137.041746,31.539427 138.085402,32.5727149 138.443929,32.7915416 C138.801091,33.0103683 139.813643,33.205457 140.395634,32.5178718 C140.978718,31.8305593 142.157981,30.4556617 143.77899,30.2701228 C144.673943,30.1675307 145.212824,30.0968622 146.408731,30.3770805 C147.618008,30.660573 148.14543,30.9618008 148.60955,31.1511596 C149.072306,31.3405184 149.086494,32.0431105 148.027012,31.8387449 C146.966439,31.6343793 144.857572,30.9031378 143.26603,31.8963165 C141.674488,32.8894952 138.942701,35.3877217 139.327694,38.0619372 C139.712142,40.7358799 141.559891,42.0420191 143.583356,42.1819918 C145.606276,42.3219645 146.284857,41.6529332 146.678308,41.4283765 C147.07176,41.2046385 146.976535,40.7978172 146.833561,40.5642565 C146.544065,40.0903138 146.117599,39.6706685 145.655389,39.7312415 C145.193452,39.7923602 143.825102,39.6289222 143.157981,39.2002729 C142.573806,38.8245566 142.110505,38.1481583 142.146248,37.7050477 C142.181719,37.2619372 142.218827,36.8668486 142.538063,37.2305593 C142.906412,37.6518417 142.962619,38.1375171 143.618554,38.3639836 C144.275853,38.5907231 145.090041,38.7721692 144.981173,38.3015007 C144.872306,37.8305593 144.581446,37.073397 144.736971,36.4548431 C144.84502,36.0251023 144.904229,35.5866303 145.113779,35.2774898 C145.323602,34.9675307 145.461937,36.8510232 145.688404,37.4878581 C146.286767,39.1784447 147.210641,39.831105 148.05266,40.3934516 C149.130696,41.1132333 149.732879,41.1380628 150.355798,41.2873124 C150.88131,41.4136426 151.091405,41.878854 150.484311,41.9121419 C149.878308,41.9451569 148.935061,41.913779 148.522783,42.2338336 C148.111596,42.5544338 146.221555,43.5402456 146.221555,43.5402456" id="Fill-33" fill="#FFFFFE"></path>
                <path d="M137.875034,39.6316508 C137.837653,39.825648 136.3397,39.8537517 136.112142,38.3102319 C135.94543,37.1811733 136.301501,36.2540246 136.637108,35.4188267 C137.036835,34.4264666 137.551978,34.0444748 137.551978,34.0444748 C137.722237,34.2024557 138.121965,34.3296044 138.377899,34.4289222 C138.746794,34.572442 138.548158,35.0701228 138.305048,35.7148704 C137.742428,37.2065484 137.813643,38.3948158 137.826194,38.8472033 C137.836562,39.2079127 137.903411,39.4870396 137.875034,39.6316508" id="Fill-34" fill="#FFFFFE"></path>
                <path d="M131.975989,73.7432469 C132.862756,74.5888131 133.515962,75.0897681 136.156344,74.9255116 C137.799727,74.8240109 140.507776,72.1787176 140.507776,72.1787176 C140.507776,72.1787176 138.785266,73.568895 136.505321,73.7290587 C134.224557,73.8894952 134.257026,71.633015 133.645566,70.9154161 C133.645566,70.9154161 131.070668,72.880764 131.975989,73.7432469 M158.242019,51.7317872 C158.242019,51.7317872 159.926057,61.9939973 158.086494,65.3140518 C156.246385,68.6341064 153.295225,69.9402456 152.416098,70.2204638 C151.536971,70.5015007 150.059754,70.9667121 150.752797,70.8747613 C151.445293,70.7830832 152.112415,71.2122783 152.282674,71.8824011 C152.384993,72.2815825 152.408186,73.6207367 151.689768,74.7678035 C151.039563,75.8051842 149.449659,76.6613915 148.60955,76.3495225 C147.770532,76.0371078 147.818827,76.7593452 147.099045,77.1828104 C146.218008,77.7028649 145.652115,78.8542974 142.695498,79.4095498 C139.738336,79.9642565 137.115962,79.7585266 135.2191,79.0930423 C133.321965,78.427558 133.024829,78.2199181 132.045839,78.6319236 C131.066849,79.042292 128.27367,80.304502 126.296044,80.4482947 C124.318417,80.5923602 121.027831,79.9579809 120.666849,79.8884038 C120.305048,79.8185539 118.404911,53.8785812 118.404911,53.8785812 C118.404911,53.8785812 125.261664,53.3252387 128.170532,54.1860846 C131.0794,55.0461119 133.542156,56.2343793 135.140518,57.66794 C136.738881,59.1006821 136.917326,61.7214188 137.067394,62.5001364 C137.21719,63.278854 137.250477,63.8851296 137.374898,65.1841746 C137.499864,66.4834925 137.748431,66.9440655 138.228104,67.3735334 C139.079127,68.1364256 139.93397,68.6398363 140.924966,68.9432469 C141.781992,69.2057299 143.964802,69.0976808 144.813915,68.418281 C145.833834,67.6021828 147.457572,65.4027285 147.457572,65.4027285 C147.457572,65.4027285 144.003547,67.5342428 142.467121,67.3658936 C140.667667,67.1686221 138.813915,66.1301501 138.843656,62.4300136 C138.86221,59.9956344 138.885675,58.1255116 141.234925,56.4412005 C142.166166,55.7735334 144.242292,54.845839 145.102046,53.8870396 C146.025921,52.8567531 146.917872,51.2744884 146.917872,51.2744884 C146.917872,51.2744884 149.229468,52.3197817 152.568895,52.8884038 C155.909686,53.4572988 158.242019,51.7317872 158.242019,51.7317872" id="Fill-35" fill="#F2AF36"></path>
                <path d="M84.4234652,36.4472033 C83.587176,34.5609823 82.2510232,33.0289222 79.6930423,32.2919509 C78.7478854,32.0193724 77.4024557,31.4379263 75.3530696,32.2428377 C75.3530696,32.2428377 71.7323329,29.7225102 69.2657572,29.1948158 C66.6190996,28.6278308 64.0548431,28.6859482 62.108322,28.9773533 C60.1386085,29.2731241 57.8856753,29.8286494 57.2652115,29.8815825 C54.9015007,30.0824011 52.8802183,29.9978172 51.2761255,30.0210095 C48.6815825,30.058663 46.8270123,30.9263302 45.7129604,31.6482947 C44.5983629,32.3710778 44.2270123,32.9372442 44.2270123,32.9372442 C42.2401091,32.741337 40.3939973,33.1732606 39.2103683,34.2572988 C38.0261937,35.3418827 37.0619372,36.8433834 37.0264666,37.9989086 C36.9907231,39.1547067 37.5206003,39.4564802 37.5206003,39.4564802 C36.0848568,40.6799454 35.0024557,42.858663 35.3252387,44.6837653 C35.6488404,46.5080491 39.2087312,56.831105 39.6245566,57.3991814 C40.0406548,57.9664393 41.766985,60.099045 45.4840382,59.8780355 C49.2010914,59.6570259 52.8687585,58.5268759 53.1312415,57.752251 C53.392633,56.9776262 54.6472033,53.5822647 55.1604366,52.6687585 C55.6742156,51.7552524 55.79809,51.891678 57.168895,52.7560709 C58.5396999,53.620191 62.7233288,56.038472 68.5017735,52.1279673 C74.79809,47.8665757 82.9956344,38.7967258 82.9956344,38.7967258 L84.4234652,36.4472033" id="Fill-36" fill="#1A1919"></path>
                <path d="M41.6785812,54.7197817 C40.653206,54.7847203 36.8534789,55.6272851 36.26794,58.6643929 C35.6472033,61.8873124 38.8903138,63.9326057 39.7607094,64.4750341 C40.631105,65.0177353 41.6,65.2420191 41.587176,66.4766712 C41.5748977,67.711869 41.4783083,71.5184175 41.7124147,74.0010914 C41.9457026,76.4832196 44.2199181,80.2095498 46.3219645,80.9514325 C47.726603,81.4472033 48.8652115,82.4158254 49.5227831,82.8933151 C50.8889495,83.8840382 51.9727149,83.0911323 53.3061392,83.8848568 C55.3585266,85.1053206 57.5844475,83.2848568 58.6163711,83.1833561 C60.0259209,83.0452933 63.7849932,81.961528 65.0376535,81.3839018 C66.9309686,80.5113233 68.299045,77.8875853 67.5407913,75.7915416 C66.7822647,73.6949523 65.8281037,73.5866303 66.5326057,73.0472033 C67.2360164,72.5080491 68.1664393,70.987176 67.9748977,69.6504775 C67.7353342,67.9874488 67.2092769,66.6150068 66.1858117,65.8930423 C65.3257844,65.2859482 63.9451569,64.486221 62.9380628,64.0671214 C61.9317872,63.6482947 60.9612551,63.2360164 59.8845839,62.2043656 C58.8087312,61.1716235 58.5530696,60.9585266 57.8889495,60.6941337 C57.4013643,60.5004093 57.2461119,60.3328786 57.2461119,60.3328786 C57.4122783,59.9732606 57.7055935,58.33397 56.9249659,57.1336971 C56.1437926,55.9334243 53.1350614,53.253206 48.255116,53.475307 C43.3754434,53.6974079 41.6785812,54.7197817 41.6785812,54.7197817" id="Fill-37" fill="#1A1919"></path>
                <path d="M48.1770805,40.3443383 C48.4974079,41.6766712 48.7380628,44.6343793 48.5806276,47.0005457 C48.4207367,49.4051842 47.6291951,53.3154161 47.6291951,53.3154161 C48.4739427,50.9440655 49.6005457,48.9697135 49.5929059,45.6242838 C49.5844475,42.2780355 48.1770805,40.3443383 48.1770805,40.3443383 M43.258663,40.8125512 C42.9336971,41.1997271 40.4070941,44.7129604 40.8523874,47.8485675 C41.3255116,51.1754434 43.1716235,54.495498 43.1716235,54.495498 C42.7937244,52.8229195 42.179809,50.304502 42.2810368,46.9241473 C42.3457026,44.7560709 43.258663,40.8125512 43.258663,40.8125512 M82.4870396,38.3238745 L79.8870396,42.4725784 C79.8870396,42.4725784 72.440382,45.3121419 71.5612551,45.592633 C70.6821282,45.873397 70.7710778,46.1904502 69.794543,46.9773533 C68.8177353,47.7639836 67.9849932,51.1863574 62.8365621,51.5607094 C58.8810368,51.8485675 57.7527967,49.5309686 57.5055935,49.2583902 C57.2581173,48.9860846 57.9593452,48.0709413 58.8166439,46.7361528 C59.6739427,45.4013643 60.3418827,43.8804911 60.7287858,43.4300136 C61.1156889,42.9789905 62.1931787,41.7566166 64.0223738,41.5151432 C65.8698499,41.2709413 68.4472033,42.2927694 68.4472033,42.2927694 L67.8084584,41.7197817 C67.168895,41.1462483 66.4215553,40.5746248 64.9828104,40.4253752 C63.2914052,40.2488404 62.0092769,40.6763984 61.233015,41.2021828 C60.4572988,41.7274216 60.7680764,40.418281 60.5525239,39.5457026 C59.5421555,35.451296 55.4057299,36.1544338 53.4597544,38.7287858 C51.8834925,40.8152797 52.119236,45.2952251 52.9225102,46.5748977 C52.9225102,46.5748977 52.6556617,42.1241473 54.5664393,39.9920873 C54.7129604,39.8283765 56.3255116,38.1315143 57.5631651,38.8447476 C58.3514325,39.2995907 58.6851296,40.4109141 58.5514325,41.8854025 C58.4171896,43.359618 56.7334243,46.2592087 55.4447476,47.8859482 C54.1566166,49.5126876 53.8024557,50.5691678 52.6368349,53.1197817 C51.4695771,55.6698499 51.3306958,56.3929059 50.9274216,56.5399727 C50.5241473,56.6873124 48.5233288,57.726603 45.3001364,57.3306958 C43.3773533,57.0938608 41.4744884,56.1678035 41.0793997,55.491678 C40.6851296,54.8158254 37.9899045,45.9713506 37.8594816,43.9222374 C37.7298772,41.8720327 39.9658936,40.1279673 40.5557981,39.7918145 C41.1459754,39.4556617 40.8687585,39.0769441 40.4793997,39.1519782 C40.0894952,39.2270123 39.7336971,38.6084584 39.8316508,38.1023192 C39.9293315,37.5961801 40.1424284,37.1369714 40.80191,36.4392906 C41.4616644,35.741337 42.8804911,35.6401091 42.8804911,35.6401091 C42.8804911,35.6401091 42.5555252,36.5525239 42.5156889,37.1443383 C42.4763984,37.7369714 43.0491132,39.0474761 43.0491132,39.0474761 C43.0491132,39.0474761 43.1776262,37.1901774 43.8960437,36.2109141 C44.8117326,34.9618008 46.222101,34.2589359 48.1388813,33.6537517 C50.0553888,33.0480218 53.1560709,34.4706685 53.4313779,34.5989086 C53.7066849,34.726603 54.4319236,35.2414734 54.0237381,34.6376535 C53.6150068,34.0341064 51.5025921,32.80191 51.5025921,32.80191 C51.5025921,32.80191 53.1634379,32.7470668 54.5345157,32.6365621 C55.9055935,32.5257844 58.5972715,31.9195089 60.8616644,31.4562074 C62.4433834,31.13206 64.7001364,30.9959072 67.5626194,31.447749 C68.8905866,31.6570259 71.6043656,33.1762619 72.5776262,33.9642565 C72.5776262,33.9642565 70.9309686,36.0218281 69.8873124,37.5451569 C68.8442019,39.0690314 68.704502,39.792633 68.704502,39.792633 C68.704502,39.792633 69.2466576,39.0414734 69.8507503,38.2125512 C70.475307,37.352251 72.5129604,35.9227831 74.0706685,35.227558 C75.3623465,34.6510232 77.7768076,33.9664393 79.7495225,35.1465211 C80.5304229,35.6141883 81.8390177,36.6240109 82.4870396,38.3238745" id="Fill-38" fill="#F2AF36"></path>
                <path d="M41.1358799,58.7025921 C40.33206,58.3206003 39.6564802,57.3238745 39.0941337,58.0092769 C37.3948158,60.0813097 39.7072306,61.6180082 40.5039563,62.3683492 C41.8049113,63.5939973 45.8772169,64.1203274 48.0035471,63.9263302 C53.3732606,63.4362892 54.941337,60.8763984 55.4755798,59.4040928 C55.8810368,58.2845839 54.308322,56.704502 53.3691678,57.4859482 C52.9672578,57.8210095 49.3806276,62.6163711 41.1358799,58.7025921" id="Fill-39" fill="#FFFFFE"></path>
                <path d="M43.5402456,65.9410641 C43.5402456,65.9410641 43.9607094,71.0196453 43.7069577,72.5978172 C43.0796726,76.5017735 46.8043656,78.9694407 47.3628922,79.7023192 C47.658663,80.0894952 48.7170532,80.5879945 48.7170532,80.5879945 C48.7170532,80.5879945 48.1276944,79.7800819 48.1140518,79.6968622 C48.0769441,79.4791269 47.5746248,78.992633 48.7648022,79.822101 C49.9547067,80.6518417 51.0589359,81.5388813 51.781719,81.6785812 L52.504502,81.8177353 C52.504502,81.8177353 51.7956344,81.6062756 51.166985,80.585266 C50.5391542,79.5642565 49.9527967,78.3263302 51.4769441,79.3697135 C53.0002729,80.4141883 54.2062756,83.495498 56.4930423,82.1361528 C57.7260573,81.4040928 59.5514325,81.2840382 60.6783083,81.0436562 C62.0341064,80.7552524 63.1866303,80.3053206 64.2903138,79.814734 C65.6439291,79.2130969 65.9819918,78.0409277 66.06603,77.6068213 C66.3656207,76.0507503 65.111869,74.119236 64.4207367,73.6903138 C62.9023192,72.7473397 60.2442019,73.7735334 59.7336971,74.6616644 C59.1129604,75.7416098 58.4327422,76.6106412 57.1260573,77.6834925 C57.1260573,77.6834925 56.5462483,78.0971351 55.9708049,78.3612551 C55.5326057,78.5618008 54.9470668,78.8245566 54.6357435,78.8035471 C54.6357435,78.8035471 54.6177353,78.5879945 54.948704,78.0889495 C55.3238745,77.5233288 55.9836289,77.3833561 56.3328786,77.0338336 C56.5770805,76.7904502 56.9934516,76.2922237 56.4223738,76.1484311 C55.5345157,75.9241473 54.3203274,76.4387449 53.5888131,75.80191 C52.9396999,75.2365621 52.7197817,74.8190996 52.5244202,74.4717599 C52.3276944,74.1238745 51.8922237,73.5309686 52.5939973,73.9609823 C53.4886767,74.5080491 53.8120055,75.2952251 55.1154161,75.1465211 C55.8960437,75.0572988 57.33397,74.3991814 58.7729877,73.5511596 C60.2109141,72.7034106 61.0889495,72.2982265 61.9986357,72.2485675 C62.9080491,72.1983629 63.7230559,72.2272851 64.9416098,71.7656207 C66.9102319,71.0207367 66.9145975,67.4963165 63.9369714,66.4725784 C62.0248295,65.8144611 61.6982265,65.6406548 60.7115962,65.1751705 C60.205457,64.9369714 59.781719,64.4859482 59.4946794,64.2283765 C59.0152797,63.7983629 58.8133697,63.4944065 58.3748977,63.0373806 C57.8619372,62.5055935 56.6690314,61.8965894 56.6690314,61.8965894 C56.6690314,61.8965894 56.1072306,62.7380628 54.8144611,63.7388813 C53.7017735,64.6 50.0583902,66.7552524 45.5874488,66.0854025 C44.4212824,65.9105048 43.5402456,65.9410641 43.5402456,65.9410641" id="Fill-40" fill="#FFFFFE"></path>
                <path d="M125.880764,27.4914052 C125.698499,27.1939973 125.582538,26.3230559 125.357708,25.7967258 C125.190996,25.4065484 124.348158,23.2297408 122.096044,20.6900409 C121.314598,19.8087312 118.355525,16.4698499 114.030014,14.7484311 C110.224284,13.2343793 106.098499,12.9503411 102.512142,13.4616644 C95.4351978,14.4706685 88.5476126,21.1978172 86.7828104,26.2150068 C85.2357435,30.6109141 85.0960437,31.7978172 85.361528,34.7416098 C85.5386085,36.6987722 86.3658936,38.2493861 87.0540246,39.7312415 C87.7427012,41.2139154 87.6922237,40.8600273 87.6922237,40.8600273 C87.5631651,41.4371078 85.5860846,43.0502046 84.8062756,46.7069577 C84.108322,49.9809004 84.1072306,52.3347885 86.5481583,55.6684857 C88.2117326,57.9416098 94.4763984,63.59809 97.8395634,65.4480218 C100.197817,66.7457026 102.639563,67.2976808 105.009004,67.7230559 C106.484584,67.9879945 108.842838,67.9525239 108.842838,67.9525239 C108.842838,67.9525239 109.878308,69.0944065 111.173261,70.1066849 C112.202456,70.9113233 114.162619,72.1533424 115.657299,73.1762619 C121.148158,76.9353342 126.440928,78.0046385 126.440928,78.0046385 C126.440928,78.0046385 129.349795,75.2332879 131.152251,70.7729877 C132.768622,66.7740791 133.386085,63.80191 133.830286,61.0321965 C134.179809,58.8499318 134.573533,54.5432469 134.374079,50.9478854 C134.212824,48.0291951 132.932879,43.4150068 131.744065,40.5263302 C131.117053,39.0005457 129.389359,36.2995907 128.3397,36.093588 C127.65839,35.9593452 129.784993,34.3410641 129.52251,31.8204638 C129.314325,29.822101 128.411187,28.9173261 127.065484,28.0633015 C126.267667,27.5574352 125.880764,27.4914052 125.880764,27.4914052" id="Fill-41" fill="#1A1919"></path>
                <path d="M126.060027,38.6166439 C127.490041,28.2210095 120.367258,18.3885402 109.98472,16.86794 C98.8117326,15.233015 89.8412005,23.0433834 88.4150068,33.4392906 C88.1544338,35.3364256 88.8603001,38.8529332 89.0013643,39.2690314 L89.1421555,39.6843111 C89.1421555,39.6843111 89.2706685,39.5721692 90.3407913,38.6223738 C91.3571623,37.7216917 91.2941337,39.4960437 91.0122783,40.139427 C90.7050477,40.8409277 89.577899,42.0117326 88.9729877,42.8946794 C88.1312415,44.1249659 87.1967258,46.3547067 87.0750341,48.3206003 C86.9418827,50.4630286 87.7252387,52.8698499 90.1549795,55.3844475 C92.5088677,57.8218281 94.5366985,59.7907231 96.8021828,61.3656207 C99.3809004,63.157708 100.415007,63.7459754 102.099045,64.4728513 C103.530969,65.0908595 105.470941,65.2709413 106.815553,65.4065484 C108.244475,65.5503411 108.422374,65.5519782 109.966712,65.2668486 C109.966712,65.2668486 96.1672578,55.5899045 94.675307,54.222101 C93.5309686,53.172442 91.5847203,51.5167804 91.2204638,49.4354707 C90.7691678,46.8578445 92.5885402,44.9050477 93.6641201,44.7287858 C95.6414734,44.4065484 96.7956344,48.6289222 97.9034106,50.6641201 C99.0098226,52.6995907 105.072306,60.0622101 106.420737,61.7847203 C107.769986,63.506412 110.266303,65.5345157 111.249113,66.3140518 C112.232196,67.0933151 115.540246,69.7036835 117.588813,71.0264666 C119.637108,72.3489768 122.142701,73.585266 123.249932,74.1833561 C123.947885,74.5604366 125.771896,75.2984993 125.771896,75.2984993 C125.771896,75.2984993 128.941883,70.5296044 129.892497,66.5983629 C131.156617,61.3705321 131.809004,55.9099591 130.903956,48.79809 C130.529604,45.8556617 128.855116,42.0739427 127.828649,40.8919509 C126.80191,39.7102319 126.001637,39.4016371 126.001637,39.4016371 L126.060027,38.6166439" id="Fill-42" fill="#F2AF36"></path>
                <path d="M101.041473,57.3893588 C101.041473,57.3893588 98.6673943,54.557708 96.8783083,51.8979536 C96.1075034,50.7517053 94.4199181,46.8027285 93.5986357,47.099045 C92.7309686,47.4120055 92.5361528,49.7328786 93.5225102,50.8051842 C94.741337,52.1298772 94.777899,52.1058663 101.041473,57.3893588" id="Fill-43" fill="#FFFFFE"></path>
                <path d="M95.2395634,48.1421555 C92.9781719,49.2682128 95.3915416,53.6144611 95.3915416,53.6144611 C95.3915416,53.6144611 94.7822647,51.7336971 94.9915416,50.5738063 C95.2010914,49.4133697 96.1317872,49.4911323 96.1317872,49.4911323 L95.2395634,48.1421555" id="Fill-44" fill="#1A1919"></path>
                <path d="M97.2594816,50.4518417 C95.1115962,51.5934516 97.3631651,55.9178718 97.3631651,55.9178718 C97.3631651,55.9178718 96.8010914,54.0433834 97.0079127,52.8826739 C97.2144611,51.7216917 98.0946794,51.7937244 98.0946794,51.7937244 L97.2594816,50.4518417" id="Fill-45" fill="#1A1919"></path>
                <path d="M98.7148704,53.1377899 C97.222101,54.214734 99.1085948,57.5326057 99.1085948,57.5326057 C99.1085948,57.5326057 98.5912688,56.0643929 98.6736698,55.1145975 C98.7560709,54.1639836 99.3991814,54.1568895 99.3991814,54.1568895 L98.7148704,53.1377899" id="Fill-46" fill="#1A1919"></path>
                <polyline id="Fill-47" fill="#1A1919" points="118.572988 46.8455662 124.804911 70.5047749 117.441201 47.1216917 118.572988 46.8455662"></polyline>
                <polyline id="Fill-48" fill="#1A1919" points="113.658936 50.73206 115.571623 50.0804911 116.46794 54.2152797 113.658936 50.73206"></polyline>
                <polyline id="Fill-49" fill="#1A1919" points="121.182265 48.4447476 123.233288 47.9582538 123.114325 52.4802183 121.182265 48.4447476"></polyline>
                <path d="M113.00382,47.8848568 C113.00382,47.8848568 111.439018,48.8095498 110.459754,48.7238745 C109.480491,48.6387449 106.483492,49.1683492 104.232469,47.5206003 C101.9809,45.8731241 99.8766712,41.7181446 99.8442019,40.8712142 C99.8125512,40.0248295 100.074216,36.6785812 100.176808,36.295498 C100.278308,35.9132333 101.322237,36.614734 101.845293,37.1323329 C102.368895,37.6504775 103.257026,38.7637108 103.551705,39.4984993 C103.84693,40.2324693 105.018827,42.524693 105.453752,43.3282401 C105.888404,44.1306958 106.457026,45.3983629 107.738608,46.1694407 C109.019645,46.9402456 110.461119,47.6335607 111.00955,47.6098226 C111.557981,47.5866303 112.592906,47.6297408 112.592906,47.6297408 L113.00382,47.8848568" id="Fill-50" fill="#FFFFFE"></path>
                <path d="M113.444475,33.3263302 C114.227831,33.0376535 114.479945,32.1055935 114.479945,32.1055935 C117.39236,41.0174625 117.808458,41.4098226 117.815007,42.6245566 C117.827285,44.7912688 117.236835,46.2864939 115.289495,47.4804911 C113.644748,48.4884038 108.063302,49.2117326 104.772169,42.8744884 C103.924147,41.2414734 103.552797,39.321146 102.715689,38.1937244 C102.171351,37.4622101 100.634106,36.0570259 99.148704,35.9312415 C97.7525239,35.8136426 96.5768076,36.2761255 95.3001364,36.8886767 C92.9525239,38.0155525 90.6657572,40.721146 90.6657572,40.721146 C90.6657572,40.721146 88.3814461,40.1746248 88.8461119,39.4952251 C89.2627558,38.8870396 91.3184175,36.9236016 91.4914052,36.7495225 C92.7500682,35.4763984 95.9012278,33.3290587 98.552251,33.5080491 C100.863302,33.6638472 102.716235,34.6706685 104.12824,36.2070941 C105.80955,38.0368349 106.348158,41.8646658 106.706958,42.8553888 C107.505866,45.0583902 109.68895,46.9776262 112.732606,46.6087312 C114.887312,46.3470668 116.493861,43.8553888 115.737244,41.521146 C114.941883,39.0676671 112.296317,33.8373806 111.729604,33.0903138 C111.729604,33.0903138 112.761528,33.577899 113.444475,33.3263302" id="Fill-51" fill="#1A1919"></path>
                <path d="M114.370259,47.3167804 C114.370259,47.3167804 112.731241,48.3175989 111.933151,48.6417462 C110.725512,49.13206 108.584447,49.5754434 106.048568,48.9967258 C100.847749,47.8109141 99.6884038,43.2987722 99.5102319,40.7757162 C99.3890859,39.0493861 100.022101,36.6090041 100.238199,36.1186903 C100.454297,35.6278308 100.48322,36.2264666 100.48322,36.2264666 C100.48322,36.2264666 100.205184,37.5260573 100.264939,38.3519782 C100.574898,42.6327422 102.340791,47.8548431 107.923874,48.4248295 C109.299318,48.5656207 110.98854,48.2772169 111.520873,48.2136426 C112.3397,48.1154161 114.370259,47.3167804 114.370259,47.3167804" id="Fill-52" fill="#1A1919"></path>
                <path d="M110.523329,47.5437926 C109.723056,47.9536153 109.061937,49.1476126 106.307776,48.6485675 C104.034925,48.2368349 100.604911,42.908322 102.492497,37.4693042 C102.492497,37.4693042 106.204638,43.6291951 107.008186,44.6316508 C108.880491,46.9672578 110.523329,47.5437926 110.523329,47.5437926" id="Fill-53" fill="#1A1919"></path>
                <path d="M125.892769,39.8327422 C125.540518,40.4886767 124.41337,42.4428377 123.921965,43.3527967 C122.844475,45.3459754 120.489495,44.8799454 120.720055,45.5514325 C120.839018,45.8952251 121.721965,45.8341064 122.534516,45.875307 C124.674761,45.9836289 125.448022,45.4952251 126.723329,43.2548431 C129.289495,38.1075034 127.65648,34.0518417 126.499045,32.1855389 C125.616644,30.7631651 124.415825,30.2141883 123.914052,29.8971351 C123.109141,29.2657572 122.564529,29.3519782 122.433561,29.5819918 C121.94352,30.4433834 121.804093,29.5694407 121.755798,30.455116 C121.709141,31.3407913 122.955798,32.8130969 123.406003,33.321146 C123.857026,33.8289222 125.094679,35.6346521 125.525512,36.2884038 C125.570532,36.3568895 126.24502,39.1773533 125.892769,39.8327422" id="Fill-54" fill="#FFFFFE"></path>
                <path d="M125.521965,34.1912688 C129.386085,40.647749 124.752524,44.5587995 122.97899,45.2870396 C120.865757,46.1557981 119.24884,45.8294679 117.567804,44.4613915 C116.905593,43.9222374 116.886494,41.2092769 117.190723,40.6796726 C117.34925,40.4040928 117.479127,41.3358799 117.843383,42.0583902 C118.948977,44.2485675 122.301774,44.2941337 123.783629,42.7096862 C125.878035,40.4695771 125.750614,37.895498 124.590723,35.8600273 C124.40955,35.5410641 122.887312,33.4087312 121.840928,31.280764 C121.056753,29.6864939 120.899591,28.748704 121.455116,27.4130969 C121.938881,26.2491132 124.247749,26.7759891 124.848022,27.1634379 C125.87176,27.8248295 126.467394,28.1792633 127.114052,28.3424284 C127.760982,28.5055935 128.279127,31.3075034 128.06985,31.8439291 C127.811733,32.5050477 127.335334,33.4864939 127.120327,33.0701228 C126.841473,32.5298772 126.051023,31.6190996 125.510232,31.2684857 C123.393179,29.9001364 122.696862,30.1017735 123.454843,31.6180082 C124.292769,33.2957708 125.521965,34.1912688 125.521965,34.1912688" id="Fill-55" fill="#1A1919"></path>
                <path d="M124.834925,32.6627558 C126.026467,33.4504775 127.927149,36.3888131 128.114052,37.1950887 C128.300136,38.0010914 128.379263,41.2158254 127.936426,42.2695771 C127.493861,43.3238745 126.60191,44.6098226 125.826467,45.0894952 C124.350887,46.0016371 122.261937,45.2431105 123.156617,44.5978172 C123.537244,44.3225102 124.595634,42.7765348 124.776808,42.5416098 C124.957981,42.3061392 125.685948,41.0676671 125.746248,40.6302865 C125.806548,40.1929059 125.777626,37.6984993 125.781719,37.4016371 C125.785266,37.1047749 123.563165,33.772442 123.371351,32.4984993 C123.234925,31.5953615 124.834925,32.6627558 124.834925,32.6627558" id="Fill-56" fill="#1A1919"></path>
                <path d="M127.983902,40.0338336 C128.238199,44.3058663 124.825102,46.0663029 121.919236,45.7536153 C121.45648,45.7036835 120.119782,45.4046385 120.119782,45.4046385 C120.119782,45.4046385 121.391814,46.2502046 122.360164,46.3342428 C124.796453,46.5457026 126.765348,45.1639836 127.667121,43.2357435 C128.527422,41.3969986 127.983902,40.0338336 127.983902,40.0338336" id="Fill-57" fill="#1A1919"></path>
                <path d="M116.658117,42.3907231 C116.658117,42.3907231 111.714598,46.1713506 108.116508,38.0196453 C105.937517,33.0856753 104.596453,30.1020464 103.599181,28.7012278 C102.812551,27.5948158 101.637653,25.941337 100.446112,25.1457026 C98.7735334,24.0286494 97.7839018,23.961528 97.1175989,23.9443383 C95.6163711,23.9047749 93.5214188,25.2335607 93.5214188,25.2335607 C93.5214188,25.2335607 94.1015007,26.0567531 93.9530696,26.779809 C93.7446112,27.7909959 93.385266,28.3866303 93.385266,28.3866303 C93.385266,28.3866303 94.1787176,28.5579809 95.700955,27.7637108 C96.5795362,27.3047749 99.6693042,25.9306958 102.929332,31.954161 C104.084311,34.0892224 104.562892,35.1375171 107.160437,39.5609823 C111.768622,47.405457 116.658117,42.3907231 116.658117,42.3907231" id="Fill-58" fill="#1A1919"></path>
                <path d="M117.840928,42.1642565 C117.840928,42.1642565 123.374898,41.5833561 120.336153,34.1257844 C118.496317,29.6114598 117.399181,26.8671214 117.112415,25.3552524 C116.886494,24.1598909 116.87176,22.5628922 117.67367,21.4938608 C118.736971,20.0763984 119.749795,19.5885402 120.558254,19.4373806 C122.389086,19.0949523 125.14352,19.7484311 125.14352,19.7484311 C125.14352,19.7484311 125.315962,20.6341064 125.877217,21.0095498 C126.662756,21.53397 127.273124,21.699045 127.273124,21.699045 C127.273124,21.699045 124.987995,22.7227831 122.798636,22.4215553 C121.927694,22.3020464 118.348158,21.9159618 119.639836,27.0439291 C120.174079,29.1637108 120.684584,30.0957708 121.931241,34.5358799 C124.14161,42.4117326 117.840928,42.1642565 117.840928,42.1642565" id="Fill-59" fill="#1A1919"></path>
                <polyline id="Fill-60" fill="#1A1919" points="106.33015 25.0627558 88.787176 5.60272851 86.5517053 8.16944065 106.33015 25.0627558"></polyline>
                <polyline id="Fill-61" fill="#1A1919" points="124.016371 1.59236016 112.737517 25.0308322 120.935061 0.146521146"></polyline>
                <path d="M104.009823,40.4466576 C104.009823,40.4466576 103.866303,41.7517053 103.997817,43.1028649 C104.203001,45.2125512 105.312142,47.5948158 105.312142,47.5948158 C105.312142,47.5948158 104.986903,45.6360164 105.018008,44.5997271 C105.053752,43.4057299 105.198363,43.7383356 105.198363,43.7383356 C105.198363,43.7383356 104.840928,42.86603 104.591814,42.1620737 C104.412278,41.6570259 104.009823,40.4466576 104.009823,40.4466576" id="Fill-62" fill="#FFFFFE"></path>
                <path d="M125.565075,35.6373806 C125.565075,35.6373806 126.341883,37.1069577 126.522237,37.6894952 C126.635744,38.0564802 126.585812,38.8499318 126.585812,38.8499318 C126.585812,38.8499318 127.097681,39.2673943 127.147885,40.1664393 C127.173261,40.627558 127.296044,42.6897681 127.296044,42.6897681 C127.296044,42.6897681 127.764256,40.2406548 127.46603,38.9345157 C127.04884,37.1050477 125.565075,35.6373806 125.565075,35.6373806" id="Fill-63" fill="#FFFFFE"></path>
                <path d="M106.658663,46.8136426 C106.619918,47.0960437 106.78472,47.3514325 107.026467,47.3847203 C107.26794,47.4177353 107.495498,47.2163711 107.534243,46.9342428 C107.572988,46.6518417 107.408458,46.3964529 107.166985,46.3628922 C106.924966,46.3298772 106.697135,46.5312415 106.658663,46.8136426" id="Fill-64" fill="#FFFFFE"></path>
                <path d="M125.017735,43.7637108 C124.978718,44.0461119 125.143247,44.3015007 125.384993,44.3345157 C125.627012,44.3680764 125.854843,44.1661664 125.893315,43.8843111 C125.93206,43.60191 125.767258,43.3465211 125.525512,43.3129604 C125.284038,43.2796726 125.056753,43.4815825 125.017735,43.7637108" id="Fill-65" fill="#FFFFFE"></path>
                <path d="M82.6103683,97.4984993 C80.9656207,95.352251 75.8652115,90.2927694 68.1162347,97.0594816 C60.3667121,103.826467 63.7402456,112.400819 64.8995907,115.693861 C66.4851296,120.201091 74.9503411,124.977899 74.9503411,124.977899 C74.9503411,124.977899 77.968895,122.928786 79.8090041,122.516508 C81.6482947,122.103956 87.939427,122.519236 90.2886767,123.048022 C92.6368349,123.577353 94.8834925,126.612278 96.2995907,124.967258 C97.7151432,123.319782 98.8594816,122.070668 98.8594816,122.070668 C98.8594816,122.070668 94.6251023,118.610914 93.2766712,116.790177 C91.9282401,114.968349 92.4466576,111.414188 90.4231924,108.028922 C88.528513,104.85839 85.6341064,103.018008 84.8316508,102.507503 C83.9077763,101.9206 83.7511596,98.9869031 82.6103683,97.4984993" id="Fill-66" fill="#1A1919"></path>
                <path d="M75.1721692,104.31296 C75.1721692,104.31296 72.8693042,106.102319 75.4079127,109.53779 C77.9446112,112.973533 77.1424284,109.903411 77.1424284,109.903411 C77.1424284,109.903411 74.1110505,108.039291 75.1721692,104.31296 M83.6717599,103.990996 C83.6717599,103.990996 82.1994543,103.137517 80.1105048,102.790723 C78.9091405,102.590723 77.6998636,104.092769 77.6998636,104.092769 C77.6998636,104.092769 84.293588,102.746248 88.3336971,108.764529 C89.9598909,111.185539 88.8804911,114.15498 90.1058663,115.861664 C91.3306958,117.567258 94.9552524,121.244475 94.9552524,121.244475 C94.9552524,121.244475 95.0567531,122.779809 94.7435198,123.322237 C94.4300136,123.864666 93.0567531,124.016917 92.2125512,123.690859 C91.3691678,123.365348 86.2057299,122.566712 84.306412,122.644475 C82.4076398,122.722237 78.2952251,123.42101 76.2772169,122.830014 C74.2592087,122.239291 67.1377899,117.142701 66.4507503,112.503411 C66.1015007,110.145157 63.9391542,106.00764 68.3069577,100.443656 C74.6321965,92.3890859 80.5331514,97.9206003 81.3937244,100.074761 C81.9315143,101.418827 83.6717599,103.990996 83.6717599,103.990996" id="Fill-67" fill="#F2AF36"></path>
                <path d="M139.079127,124.365075 C137.214188,124.196999 134.891678,123.33779 133.910778,121.795362 C133.18663,120.657572 133.232469,119.618281 133.331787,118.937517 C132.586085,118.304775 131.820464,117.428922 131.431924,115.727149 C131.282128,115.070668 131.312688,114.455662 131.450205,113.887585 C130.580082,114.110778 129.626194,114.25075 128.642838,114.180628 C128.569714,114.176535 128.495498,114.169714 128.423192,114.163711 C120.093861,113.415007 118.860573,104.371078 118.396726,100.966712 C118.078854,98.6360164 118.950068,92.7825375 121.326057,90.2111869 C121.980628,89.5031378 123.152524,88.6941337 125.018281,88.8611187 C125.799454,88.9315143 126.506412,89.1497954 127.075307,89.3263302 C127.302319,89.3959072 127.613643,89.4919509 127.722237,89.506412 C131.791542,89.9238745 135.841201,92.0684857 138.047203,94.0084584 C140.081583,95.7961801 142.449113,97.7942701 144.810914,98.8652115 C149.680764,101.073124 153.001637,105.73015 152.21337,109.245839 C151.506958,112.400273 149.256207,115.3206 147.766712,117.25266 C147.589632,117.48322 147.421828,117.700409 147.267667,117.904775 C145.776262,119.876398 144.336971,121.665757 143.250205,123.006548 C142.405184,124.048022 140.923874,124.530423 139.079127,124.365075" id="Fill-68" fill="#1A1919"></path>
                <g id="Group-74" transform="translate(63.028649, 90.586630)">
                    <mask id="mask-2" fill="white">
                        <use xlink:href="#path-1"></use>
                    </mask>
                    <g id="Clip-70"></g>
                    <path d="M75.7849932,16.5386085 C75.7849932,16.5386085 69.6676671,12.711869 67.6504775,12.1748977 C64.3091405,11.2848568 60.4060027,13.1495225 60.4060027,13.1495225 L61.0032742,15.552251 C61.0032742,15.552251 63.3716235,12.9366985 66.6643929,13.3377899 C69.957708,13.7386085 75.7849932,16.5386085 75.7849932,16.5386085 M73.1879945,7.60736698 C73.1879945,7.60736698 74.7885402,8.85047749 75.5075034,9.48321965 C76.2251023,10.1159618 77.7317872,11.4057299 78.218281,11.8038199 C78.7053206,12.2030014 79.7536153,12.091678 80.3819918,12.3050477 C81.0092769,12.5181446 79.8302865,10.9517053 79.8302865,10.9517053 C79.8302865,10.9517053 79.2963165,10.6919509 77.4608458,9.91350614 C75.6251023,9.13478854 73.1879945,7.60736698 73.1879945,7.60736698 M74.053206,27.6864939 C74.053206,27.6864939 76.875307,27.1121419 78.4455662,24.6813097 C80.0166439,22.2510232 78.8613915,21.0469304 78.8613915,21.0469304 C78.8613915,21.0469304 78.7708049,24.4777626 74.053206,27.6864939 M64.499045,0.77053206 C67.9478854,1.12414734 71.6840382,2.96725784 73.7899045,4.81882674 C75.8957708,6.67066849 78.4223738,8.79809004 81.0133697,9.97298772 C85.1069577,11.8291951 87.9301501,15.7500682 87.3691678,18.2523874 C86.6747613,21.3497954 84.1664393,24.328513 82.7547067,26.1953615 C81.2979536,28.1206003 79.9017735,29.8594816 78.7765348,31.2463847 C77.6136426,32.6799454 73.4070941,31.7102319 72.4521146,30.2098226 C71.5967258,28.8657572 72.7031378,27.8643929 72.00191,27.3244202 C71.2144611,26.7186903 70.559618,26.2248295 70.2180082,24.7260573 C70.0270123,23.8886767 70.3718963,23.0720327 71.0884038,22.0663029 C71.8046385,21.0616644 73.1746248,20.1918145 73.1746248,20.1918145 C73.1746248,20.1918145 72.8944065,20.1001364 71.8695771,20.1525239 C70.8455662,20.2046385 68.3290587,21.9203274 65.7454297,21.7386085 C58.9686221,21.2616644 57.7380628,13.9901774 57.2120055,10.128513 C56.9230559,8.01173261 57.8611187,2.83901774 59.6641201,0.887858117 C61.1511596,-0.721418827 63.4027285,0.657571623 64.499045,0.77053206" id="Fill-69" fill="#F2AF36" mask="url(#mask-2)"></path>
                    <path d="M30.0766712,31.2196453 C30.0766712,31.2196453 30.946794,30.1888131 33.6482947,30.5555252 C35.9718963,30.8712142 37.5317872,33.0567531 38.1012278,34.2668486 C38.6712142,35.475307 38.26794,35.7762619 38.26794,35.7762619 C38.26794,35.7762619 38.8919509,35.4360164 40.3969986,37.3279673 C41.9023192,39.2210095 42.7874488,41.3888131 40.7667121,45.1061392 C37.9961801,50.2040928 27.1618008,55.3672578 11.818281,48.6180082 C-3.52414734,41.8682128 -5.52933151,17.6431105 16.0433834,20.2783083 C26.7290587,21.5828104 30.0766712,31.2196453 30.0766712,31.2196453" id="Fill-71" fill="#1A1919" mask="url(#mask-2)"></path>
                    <path d="M36.7402456,35.2237381 C36.7402456,35.2237381 35.4016371,34.842292 34.0736698,34.3904502 C32.7454297,33.9377899 32.0886767,33.5497954 31.6518417,33.1216917 C31.220191,32.7006821 30.886221,32.5004093 30.886221,32.5004093 C30.886221,32.5004093 32.6005457,32.2848568 33.9181446,32.8081855 C35.0433834,33.2545703 36.7402456,35.2237381 36.7402456,35.2237381" id="Fill-72" fill="#FFFFFE" mask="url(#mask-2)"></path>
                    <path d="M34.6892224,37.2016371 C33.875307,37.1915416 33.1612551,37.0409277 32.5200546,36.7882674 L23.0572988,47.431105 L30.6362892,35.6267394 C29.6368349,34.7735334 28.8106412,33.6796726 27.9697135,32.6092769 C27.9697135,32.6092769 23.5222374,25.0556617 18.4346521,23.8974079 C-2.13178718,19.2171896 2.16507503,40.1001364 10.959618,45.0452933 C15.6133697,47.6611187 29.5634379,52.2452933 36.2057299,46.6373806 C43.1789905,40.7495225 38.4040928,37.2482947 34.6892224,37.2016371" id="Fill-73" fill="#FFFFFE" mask="url(#mask-2)"></path>
                </g>
                <path d="M62.1296044,100.283492 C62.1296044,100.283492 61.1004093,102.577899 62.2100955,104.241746 C63.1795362,105.695225 64.794543,106.099591 64.794543,106.099591 L65.6834925,102.060846 L62.1296044,100.283492" id="Fill-75" fill="#1A1919"></path>
                <path d="M145.076671,95.7795362 C145.076671,95.7795362 145.631924,96.1132333 145.298499,97.1683492 C144.965621,98.2229195 144.799181,98.3345157 144.799181,98.3345157 L143.077763,97.3342428 L145.076671,95.7795362" id="Fill-76" fill="#1A1919"></path>
                <path d="M144.075034,97.2671214 L144.573261,97.5563438 C144.626467,97.418281 144.690587,97.2368349 144.765348,97 C144.804911,96.875307 144.827012,96.7664393 144.837926,96.6736698 L144.075034,97.2671214 Z M144.38663,97.9598909 L144.38663,97.9604366 L144.38663,97.9598909 Z M144.820191,98.9931787 L142.081037,97.4016371 L145.036016,95.1028649 L145.364529,95.3004093 C145.711323,95.5085948 146.199727,96.1713506 145.831378,97.3366985 C145.439563,98.5781719 145.216644,98.7271487 145.110232,98.7991814 L144.820191,98.9931787 L144.820191,98.9931787 Z" id="Fill-77" fill="#1A1919"></path>
                <path d="M132.158527,113.71869 C132.158527,113.71869 129.141064,116.801364 128.261119,117.533424 C126.261937,119.199454 123.834925,118.554161 123.834925,118.554161 L126.640655,113.215553 L132.158527,113.71869" id="Fill-78" fill="#1A1919"></path>
                <path d="M90.4608458,114.46603 C89.9866303,114.602183 91.192633,117.724693 93.9143247,117.363165 C97.8433834,116.840928 105.974352,111.648022 105.974352,111.648022 L91.0021828,111.648022 L90.4608458,114.46603" id="Fill-79" fill="#1A1919"></path>
                <path d="M124.383083,118.072851 C124.154161,118.072851 123.926876,118.013643 123.726603,117.901228 C122.304775,117.106958 118.55307,115.132879 114.410641,113.968895 C110.484311,112.86603 107.018281,111.416098 105.979536,110.967804 C105.82292,111.075307 105.601637,111.237108 105.356617,111.415825 C104.28704,112.197271 102.496044,113.506412 100.535607,114.410641 C99.825648,114.738336 99.1506139,115.065757 98.4974079,115.381719 C96.4316508,116.383356 95.3195089,116.906685 94.5920873,116.906685 C94.5481583,116.906685 94.5058663,116.904775 94.4649386,116.900955 C94.1656207,116.87367 93.8960437,116.701501 93.7454297,116.440655 C92.9047749,114.994543 89.9236016,109.99045 86.8698499,106.341337 C86.2603001,105.61337 85.5271487,104.897681 84.8180082,104.205457 C84.157708,103.560982 83.5334243,102.951978 82.9899045,102.324147 C82.7814461,102.082947 82.5746248,101.841201 82.368895,101.600546 C80.3353342,99.2210095 78.4141883,96.9735334 75.5263302,96.4924966 C74.9691678,96.3997271 74.4125512,96.3525239 73.8720327,96.3525239 C69.888131,96.3525239 67.1527967,98.8212824 64.9552524,100.804911 C64.6851296,101.049113 64.425648,101.282947 64.1773533,101.499864 C64.0092769,101.646385 63.7915416,101.726876 63.5639836,101.726876 C63.5132333,101.726876 63.4616644,101.723329 63.4103683,101.715143 C63.0616644,101.661119 62.7923602,101.412278 62.7085948,101.063574 C62.3716235,99.6646658 65.8472033,95.2289222 67.8332879,93.7956344 C69.7618008,92.4027285 71.3991814,92.1102319 72.433015,92.1102319 L72.434925,92.1102319 L71.7443383,88.7336971 C71.6556617,88.4654843 71.6919509,88.1718963 71.8474761,87.9323329 C72.0212824,87.6649386 72.3140518,87.5050477 72.6294679,87.5050477 C72.7735334,87.5050477 72.9124147,87.5372442 73.0439291,87.6021828 C76.1454297,89.1336971 84.4682128,92.6949523 94.7236016,92.6949523 C96.5841746,92.6949523 98.442292,92.5768076 100.247476,92.3424284 C114.982538,90.4305593 122.228649,84.8092769 122.530696,84.5713506 C122.694407,84.4412005 122.899318,84.3699864 123.107231,84.3699864 C123.508868,84.3699864 123.859209,84.6212824 123.989905,84.9991814 L125.162347,87.8840382 C125.219372,87.8840382 125.281583,87.8837653 125.348158,87.8837653 C126.803547,87.8837653 130.573533,88.018281 134.135334,89.2643929 C137.66985,90.5017735 142.487312,93.6840382 144.394816,94.994543 C144.770805,95.2529332 144.956344,95.6924966 144.879945,96.1421555 C144.80382,96.592633 144.481583,96.9470668 144.040109,97.0668486 C141.906412,97.6466576 136.674488,99.3839018 134.185812,102.98854 C131.459482,106.937517 126.893588,115.004911 125.559345,117.383356 C125.320055,117.808731 124.86985,118.072851 124.383083,118.072851" id="Fill-80" fill="#1A1919"></path>
                <path d="M123.107231,83.7039563 C122.750068,83.7039563 122.39809,83.8259209 122.117053,84.0485675 C121.82101,84.2824011 114.714325,89.7939973 100.161528,91.6813097 C98.3847203,91.911869 96.5549795,92.0289222 94.7233288,92.0289222 C84.6081855,92.0289222 76.3986357,88.5159618 73.3380628,87.0049113 C73.1184175,86.8960437 72.8731241,86.8381992 72.6297408,86.8381992 C72.0870396,86.8381992 71.5858117,87.1110505 71.2884038,87.5691678 C71.0294679,87.9678035 70.9631651,88.4534789 71.099045,88.9020464 L71.6291951,91.4944065 C70.5312415,91.6300136 69.0766712,92.075307 67.4428377,93.2553888 C66.3391542,94.0523874 64.9806276,95.4971351 63.8081855,97.1197817 C61.7568895,99.9585266 61.9694407,100.842292 62.0608458,101.219372 C62.2090041,101.835471 62.6867667,102.27749 63.3094134,102.373533 C63.3942701,102.38663 63.4793997,102.393179 63.5639836,102.393179 C63.9533424,102.393179 64.3268759,102.25457 64.6155525,102.001637 C64.8665757,101.782538 65.1290587,101.545975 65.4024557,101.299591 C67.5151432,99.3920873 70.1443383,97.0185539 73.8723056,97.0190996 C74.3762619,97.0190996 74.8960437,97.0630286 75.4174625,97.1497954 C78.0649386,97.5907231 79.8248295,99.6496589 81.8627558,102.033288 C82.0687585,102.275034 82.2763984,102.518145 82.4859482,102.759618 C83.0480218,103.409277 83.7110505,104.056753 84.3525239,104.682947 C85.0496589,105.363438 85.7710778,106.067121 86.3587995,106.769714 C89.4622101,110.476944 92.5765348,115.755525 93.1686221,116.775989 C93.4289222,117.22292 93.8903138,117.517053 94.4046385,117.565075 C94.4646658,117.569714 94.5268759,117.573261 94.5920873,117.573261 C95.4673943,117.573261 96.5716235,117.05648 98.7879945,115.981719 C99.4379263,115.667121 100.110778,115.340246 100.81528,115.015825 C102.835198,114.084038 104.659482,112.750614 105.74925,111.953888 C105.852387,111.878854 105.959618,111.8 106.0603,111.727149 C107.405184,112.296862 110.623192,113.596453 114.230286,114.610368 C118.305321,115.755525 122.000819,117.699864 123.401364,118.482947 C123.700682,118.651023 124.040382,118.739154 124.383083,118.739154 C125.110232,118.739154 125.783902,118.344611 126.140246,117.709959 C127.470941,115.336971 132.025375,107.290859 134.734243,103.366985 C137.097408,99.9440655 142.15116,98.2706685 144.214734,97.7102319 C144.909686,97.5214188 145.416644,96.9631651 145.536698,96.2537517 C145.657572,95.5454297 145.364529,94.8521146 144.771896,94.4455662 C142.842565,93.119236 137.965348,89.899045 134.35498,88.6357435 C130.895498,87.4245566 127.255935,87.2351978 125.610914,87.2185539 L124.613643,84.7626194 C124.384993,84.1263302 123.79045,83.7039563 123.107231,83.7039563 M123.107231,85.0365621 C123.219645,85.0365621 123.32824,85.1080491 123.364256,85.2283765 L124.637381,88.3634379 C124.671487,88.4766712 124.774079,88.5544338 124.892497,88.5544338 L124.898226,88.5544338 C125.007913,88.5517053 125.159891,88.5497954 125.348431,88.5497954 C126.802729,88.5497954 130.459754,88.6840382 133.915416,89.893588 C137.359891,91.0993179 142.073397,94.2079127 144.016917,95.5437926 C144.362892,95.7814461 144.271214,96.3140518 143.865484,96.4237381 C141.602183,97.038472 136.242019,98.8371078 133.637653,102.609823 C130.88131,106.601091 126.255935,114.77899 124.977626,117.057299 C124.851842,117.280764 124.621828,117.406276 124.383083,117.406276 C124.270941,117.406276 124.156889,117.379263 124.051842,117.319782 C122.628649,116.524147 118.812551,114.513506 114.590723,113.326876 C110.396453,112.14925 106.750068,110.579536 106.049386,110.271214 C106.014461,110.255935 105.978445,110.248295 105.942428,110.248295 C105.898226,110.248295 105.854025,110.259754 105.812551,110.283492 C105.206276,110.628922 102.865757,112.602183 100.25648,113.805457 C97.6859482,114.990996 95.4354707,116.240382 94.5920873,116.240382 C94.5691678,116.240382 94.5473397,116.239018 94.5260573,116.237108 C94.4392906,116.229741 94.365075,116.181446 94.321146,116.106412 C93.9331514,115.437653 90.6892224,109.866849 87.3806276,105.914052 C86.1937244,104.495771 84.6150068,103.184175 83.4941337,101.887858 C81.1653479,99.1964529 79.0690314,96.4070941 75.6360164,95.8354707 C75.0248295,95.7331514 74.4362892,95.6864939 73.8723056,95.686221 C69.1113233,95.6854025 65.9896317,99.0316508 63.7386085,100.997817 C63.6897681,101.040928 63.6278308,101.0603 63.5639836,101.0603 C63.5465211,101.0603 63.5298772,101.059209 63.5126876,101.057026 C62.5732606,100.911596 65.8035471,96.0826739 68.2229195,94.3358799 C70.0218281,93.0368349 71.521146,92.7765348 72.4327422,92.7765348 C72.6150068,92.7765348 72.772442,92.7866303 72.9053206,92.8010914 C72.9159618,92.8027285 72.9263302,92.8030014 72.9361528,92.8030014 C73.1271487,92.8030014 73.2600273,92.6068213 73.179809,92.4259209 L72.3874488,88.5500682 C72.3034106,88.361528 72.4502046,88.1708049 72.6297408,88.1708049 C72.6682128,88.1708049 72.7085948,88.1795362 72.7484311,88.1994543 C75.2761255,89.4472033 83.8728513,93.3618008 94.7233288,93.3618008 C96.5369714,93.3618008 98.4114598,93.2526603 100.33397,93.0032742 C113.959345,91.2357435 121.388267,86.324693 122.94352,85.0938608 C122.993452,85.0545703 123.050477,85.0365621 123.107231,85.0365621" id="Fill-81" fill="#1A1919"></path>
                <path d="M121.523602,114.660573 C121.411733,114.607367 121.368076,114.491405 121.412551,114.390177 C122.139973,112.743247 126.065211,104.018554 129.946248,99.9129604 C134.01719,95.6079127 138.963711,94.3967258 139.428649,94.2911323 L142.758527,95.7282401 C141.363165,96.1454297 135.723056,98.0968622 132.098499,103.264666 C127.975716,109.14352 125.147885,115.306685 124.727422,116.240928 L121.523602,114.660573" id="Fill-82" fill="#1A1919"></path>
                <path d="M94.9579809,115.445293 C94.5276944,114.735061 91.4594816,109.717053 88.3462483,105.840655 C87.7489768,105.097408 87.0223738,104.386085 86.3208731,103.698226 C85.6450205,103.036289 85.0070941,102.411187 84.4720327,101.758799 C81.3115962,97.9012278 78.7249659,95.1710778 74.1959072,95.1710778 C73.7309686,95.1710778 73.2436562,95.2021828 72.748704,95.2616644 C68.7088677,95.7511596 65.5620737,98.6305593 64.2177353,99.8608458 C64.1184175,99.9519782 64.0212824,100.041201 63.9345157,100.117872 C64.0190996,99.9860846 64.1263302,99.8259209 64.2406548,99.6548431 C64.3841746,99.4401091 64.5536153,99.1863574 64.7437926,98.8927694 C65.972442,97.7055935 69.2043656,94.8502046 72.321146,94.4095498 C72.8166439,94.339427 73.3323329,94.3034106 73.8526603,94.3034106 C77.5028649,94.3034106 81.7214188,96.0922237 85.1383356,99.0878581 C91.3506139,104.533424 96.3568895,114.739427 96.4060027,114.841201 C96.4133697,114.856753 96.4090041,114.869304 96.4043656,114.876398 C96.3997271,114.88322 96.3901774,114.894952 96.3702592,114.895498 C96.3563438,114.895771 96.3421555,114.898772 96.3293315,114.903956 L94.9579809,115.445293" id="Fill-83" fill="#1A1919"></path>
                <path d="M95.3072306,96.6960437 C90.2237381,96.6960437 85.7077763,95.7708049 81.0965894,93.7844475 C77.9593452,92.4338336 74.9882674,92.3282401 74.1527967,92.3282401 C74.104502,92.3282401 74.0635744,92.3287858 74.0313779,92.3296044 L73.2049113,89.1920873 C73.1997271,89.174352 73.2030014,89.1587995 73.2133697,89.1446112 C73.2245566,89.1306958 73.2406548,89.1222374 73.2575716,89.1222374 C75.031105,89.9304229 84.3257844,93.9342428 95.508322,93.9342428 C97.3206003,93.9342428 99.1167804,93.8281037 100.846658,93.6188267 C114.470396,91.9683492 121.940791,86.5978172 122.979536,85.8051842 L124.093042,88.6387449 C123.475853,88.7604366 120.904775,89.2987722 118.488131,90.313779 C117.891678,90.5642565 117.107776,90.9481583 116.199181,91.3923602 C112.742701,93.0845839 107.518963,95.6414734 102.069577,96.2611187 C99.4622101,96.5579809 97.3135061,96.6960437 95.3072306,96.6960437" id="Fill-84" fill="#FFFFFE"></path>
                <path d="M120.437381,114.434106 C119.787995,114.235471 116.136971,113.110232 112.629741,111.884311 C111.370532,111.444475 110.195362,111.00764 109.157981,110.621828 C107.321419,109.939154 106.108322,109.488404 105.714598,109.488404 C105.696317,109.488404 105.679673,109.489222 105.664939,109.491132 C105.547067,109.503956 105.34543,109.655662 104.779536,110.091951 C104.035471,110.664666 102.79045,111.623738 101.35498,112.418281 C99.3661664,113.518963 97.5396999,114.223738 97.1388813,114.232469 C96.7508868,113.181719 90.4387449,102.903683 87.251296,99.9560709 C84.0878581,97.0294679 80.080764,94.0095498 74.3495225,93.8035471 C74.2098226,93.7989086 74.0723056,93.7956344 73.9353342,93.7956344 C71.1099591,93.7956344 68.3896317,94.8875853 66.1639836,96.8941337 C66.3418827,96.6589359 66.5252387,96.4139154 66.6933151,96.1768076 C68.0821282,94.8343793 69.6180082,93.9506139 71.3754434,93.4908595 C72.6267394,93.1631651 73.8783083,92.9969986 75.0933151,92.9969986 C76.7446112,92.9969986 78.3702592,93.3020464 79.9255116,93.9031378 C80.3260573,94.0578445 80.7478854,94.2308322 81.1953615,94.4144611 C83.5399727,95.3762619 86.4570259,96.5738063 90.7549795,97.0613915 C92.8365621,97.2979536 94.8927694,97.4169168 96.8682128,97.4169168 C99.4971351,97.4169168 101.917872,97.2038199 104.06221,96.7825375 C110.251569,95.5664393 115.771078,92.4864939 116.814734,91.8824011 C120.570805,89.7042292 125.088404,89.2379263 125.152797,89.2313779 L125.153342,89.2313779 C125.159618,89.2313779 125.236835,89.2294679 125.372169,89.2294679 C126.193724,89.2294679 129.14543,89.3094134 132.604911,90.3380628 C136.039563,91.3590723 138.043111,92.9803547 138.575443,93.4523874 C137.540791,93.7937244 132.572442,95.6379263 127.88704,100.866303 C124.525239,104.616098 120.861119,113.403001 120.437381,114.434106" id="Fill-85" fill="#1A1919"></path>
                <path d="M43.8390177,96.9907231 C43.8390177,96.9907231 44.154161,94.3034106 46.2837653,93.8755798 C46.2837653,93.8755798 39.8357435,90.5642565 38.8305593,87.605457 C38.8305593,87.605457 40.0924966,92.9683492 43.8390177,96.9907231" id="Fill-86" fill="#FFFFFE"></path>
            </g>
        </g>
    </g>
</svg>