<?xml version="1.0" encoding="UTF-8"?>
<svg width="200px" height="200px" viewBox="0 0 200 200" version="1.1" xmlns="http://www.w3.org/2000/svg" xmlns:xlink="http://www.w3.org/1999/xlink">
    <!-- Generator: Sketch 56.3 (81716) - https://sketch.com -->
    <title>clarkson</title>
    <desc>Created with Sketch.</desc>
    <defs>
        <polygon id="path-1" points="6.14166465e-05 0.333571429 167.273214 0.333571429 167.273214 200 6.14166465e-05 200"></polygon>
    </defs>
    <g id="clarkson" stroke="none" stroke-width="1" fill="none" fill-rule="evenodd">
        <g id="clarkson_BGL">
            <g id="Clarkson_knighthead_white-background" transform="translate(16.000000, 0.000000)">
                <g id="Group-4">
                    <mask id="mask-2" fill="white">
                        <use xlink:href="#path-1"></use>
                    </mask>
                    <g id="Clip-2"></g>
                    <path d="M30.5992857,36.5075 C31.0910714,35.9078571 31.6089286,35.2971429 32.1571429,34.6728571 C36.5425,29.6807143 45.7089286,21.305 57.825,21.305 C62.1132143,21.305 66.0103571,22.4382143 68.7978571,24.4964286 C69.6442857,25.1214286 70.8425,26.1946429 71.6292857,27.6689286 C70.5182143,28.6771429 69.5542857,29.85 68.9367857,31.1932143 C64.2210714,32.4357143 60.2292857,34.2896429 56.85,36.5075 L30.5992857,36.5075 Z M159.037857,106.893571 C155.1875,104.870357 150.005357,102.425714 144.181429,99.8507143 L144.181429,36.5075 L108.706429,36.5075 C105.366786,34.3157143 101.426429,32.4810714 96.7839286,31.2389286 C96.1171429,29.7653571 95.0328571,28.495 93.7925,27.4217857 C94.5453571,26.5539286 95.2289286,25.6617857 95.8353571,24.7485714 C98.7442857,20.3707143 99.7714286,15.6817857 98.7271429,11.545 C97.8310714,7.99571429 95.5171429,5.08357143 92.0353571,3.12464286 C88.7432143,1.27285714 84.5125,0.333571429 79.4614286,0.333571429 C74.0389286,0.333571429 67.7110714,1.42107143 60.6539286,3.56571429 C46.2225,7.95107143 31.4396429,16.4075 20.0953571,26.7660714 C8.08571429,37.7321429 0.983571429,49.6782143 0.0964285714,60.4032143 C-0.3625,65.9532143 0.819285714,71.0503571 3.60857143,75.5528571 C6.49607143,80.2135714 11.0657143,84.1157143 17.19,87.1503571 C18.65,87.8735714 20.0914286,88.5753571 21.5192857,89.2603571 L21.5192857,146.019643 L82.8503571,200 L144.181429,146.019643 L144.181429,124.878929 C144.406071,124.697857 144.626786,124.510357 144.838929,124.311071 C147.6725,121.650357 152.391071,117.878929 158.781071,115.02 L167.273571,111.221071 L159.037857,106.893571 L159.037857,106.893571 Z" id="Fill-1" fill="#0D433B" mask="url(#mask-2)"></path>
                    <path d="M81.4875,22.3832143 L82.8503571,21.9521429 L84.2132143,22.3832143 C84.3353571,22.4217857 87.1510714,23.3221429 90.0110714,24.8660714 C100.785714,12.9807143 93.0510714,-1.55571429 61.9682143,7.89 C20.6314286,20.4517857 -17.2157143,65.0578571 19.1967857,83.1003571 C24.2607143,85.6096429 29.0989286,87.8696429 33.7592857,89.905 C33.4546429,88.4632143 33.2975,86.9753571 33.2975,85.4564286 C33.2975,80.8139286 34.7532143,76.8407143 37.0896429,74.3453571 C37.1985714,74.1439286 37.3171429,73.9792857 37.4471429,73.8578571 C37.4985714,72.5039286 37.7025,69.4442857 38.5014286,65.5314286 C19.4875,59.1035714 12.5775,50.1139286 28.7614286,31.6903571 C46.7628571,11.1971429 69.2257143,14.7307143 75.35,25.0510714 C75.3675,25.0410714 75.3853571,25.0310714 75.4028571,25.0214286 C78.3582143,23.3810714 81.3610714,22.4232143 81.4875,22.3832143" id="Fill-3" fill="#FAC922" mask="url(#mask-2)"></path>
                </g>
                <path d="M93.0228571,176.413214 C93.0228571,181.350357 88.4364286,185.352857 82.7782143,185.352857 C77.12,185.352857 72.5332143,181.350357 72.5332143,176.413214 C72.5332143,171.476071 77.12,167.473571 82.7782143,167.473571 C88.4364286,167.473571 93.0228571,171.476071 93.0228571,176.413214 Z M61.3321429,168.088929 C57.3085714,168.088929 54.0471429,165.242857 54.0471429,161.732143 C54.0471429,158.221429 57.3085714,155.375 61.3321429,155.375 C65.3553571,155.375 68.6171429,158.221429 68.6171429,161.732143 C68.6171429,165.242857 65.3553571,168.088929 61.3321429,168.088929 Z M44.1164286,153.983214 C41.0146429,153.983214 38.5,151.788929 38.5,149.082143 C38.5,146.375714 41.0146429,144.181429 44.1164286,144.181429 C47.2185714,144.181429 49.7328571,146.375714 49.7328571,149.082143 C49.7328571,151.788929 47.2185714,153.983214 44.1164286,153.983214 Z M125.792143,135.833214 C120.855357,139.193214 116.489643,142.164286 112.624643,144.794643 L112.624643,137.698571 L109.024643,139.488571 L109.024643,147.244286 C102.575714,151.633214 97.7171429,154.939643 94.0617857,157.427143 L93.3467857,157.913929 L93.4464286,157.747857 L53.0760714,137.752857 L53.0760714,140.35 C53.0760714,140.35 63.235,148.594643 71.6389286,157.427143 C65.3221429,153.128571 55.4246429,146.392857 39.9082143,135.833214 C29.74,137.847143 26.0389286,143.976429 26.0389286,143.976429 L82.8503571,193.979286 L92.5675,185.299286 L92.5567857,185.281429 C95.0675,183.010714 96.6232143,179.873571 96.6232143,176.413214 C96.6232143,171.545 93.5407143,167.321786 89.0539286,165.245357 L126.533214,139.74 C133.543214,141.549643 136.3,145.500714 136.55,145.878571 C136.55,145.878571 136.691071,146.111786 136.735357,146.204286 C136.779643,146.296786 136.852857,146.448929 136.852857,146.448929 L139.661429,143.976429 C139.661429,143.976429 135.960714,137.847143 125.792143,135.833214 L125.792143,135.833214 Z" id="Fill-5" fill="#FAC922"></path>
                <path d="M90.8096429,13.5439286 C90.0125,10.385 85.7703571,8.49964286 79.4614286,8.49964286 C87.8175,10.7632143 89.825,14.8867857 88.72,20.6910714 C90.6217857,18.0264286 91.2953571,15.4667857 90.8096429,13.5439286" id="Fill-6" fill="#FFFFFE"></path>
                <path d="M127.7825,97.8225 L127.5175,118.921786 C130.153571,120.139286 132.449286,121.232143 134.249643,122.125357 C136.735714,123.358929 139.721786,122.916071 141.745,121.016429 C144.783929,118.162857 149.937143,114.025357 156.935714,110.894286 C150.157143,107.332143 139.115357,102.421071 127.7825,97.8225" id="Fill-7" fill="#FAC922"></path>
                <path d="M123.584286,76.255 L123.606429,74.6032143 C123.606429,74.6032143 123.600357,41.1067857 92.9232143,34.9810714 C92.9289286,34.9325 92.9353571,34.8796429 92.9407143,34.8328571 C93.4992857,30.0603571 82.8503571,26.6925 82.8503571,26.6925 C82.8503571,26.6925 72.2014286,30.0603571 72.76,34.8328571 C72.7642857,34.8714286 72.7696429,34.9146429 72.7742857,34.9542857 C41.9571429,41.0060714 41.9496429,74.6032143 41.9496429,74.6032143 C41.9496429,74.6035714 41.9496429,74.6035714 41.9496429,74.6035714 L41.9496429,74.6032143 L41.9728571,76.3107143 C39.5932143,77.2617857 37.8171429,80.9939286 37.8171429,85.4564286 C37.8171429,89.9389286 39.5114286,93.825 42.2517857,96.7857143 L42.6160714,123.521071 C42.6160714,125.975714 44.0078571,128.218214 46.2075,129.3075 L82.8503571,147.455714 L119.348571,129.3075 C121.548571,128.218214 122.94,125.975714 122.94,123.521071 L123.3025,96.9407143 C126.128214,93.9610714 127.883571,90.0182143 127.883571,85.4564286 C127.883571,80.9042857 126.035714,77.1103571 123.584286,76.255" id="Fill-8" fill="#FAC922"></path>
                <path d="M103.763929,102.272143 C92.2975,99.4210714 89.7021429,94.8439286 82.8503571,94.8439286 L82.8503571,143.435357 L117.751071,126.081429 C118.731071,125.596071 119.34,124.614643 119.34,123.521071 L119.405357,119.216071 L119.496786,99.9960714 C115.061071,102.685357 109.382143,103.669286 103.763929,102.272143" id="Fill-9" fill="#0D433B"></path>
                <path d="M119.972857,74.6103571 C119.9725,74.5157143 119.881071,65.0196429 115.156429,55.7667857 C110.411429,46.4728571 102.801429,40.7278571 92.4757143,38.5985714 C91.7675,44.1746429 90.6003571,52.93 89.8485714,58.2596429 C89.5435714,60.4210714 88.1564286,62.3492857 86.0639286,63.5242857 L82.8503571,65.3289286 L82.8407143,65.3035714 C82.8407143,68.5767857 82.8407143,70.9996429 82.8407143,71.6389286 C82.8407143,76.7992857 86.7171429,79.8139286 91.9278571,77.6071429 C97.5821429,75.2125 101.778214,73.4307143 105.560714,72.8 C109.228214,72.1885714 111.446071,72.9114286 112.980357,74.0914286 C110.7425,74.0103571 108.125,74.5478571 105.249286,75.63 C97.9535714,78.3753571 90.0075,85.2817857 85.9596429,82.0614286 C86.2042857,83.4860714 87.1157143,90.1067857 92.9396429,91.6264286 C98.0603571,92.9625 102.318571,93.3614286 110.797857,92.6575 C117.413214,92.1082143 119.350714,81.8542857 119.973929,78.6378571 C119.973929,77.6357143 119.972857,75.5353571 119.972857,74.6103571" id="Fill-10" fill="#0D433B"></path>
                <path d="M87.2639286,86.6082143 L87.2635714,86.6082143 C87.265,86.6114286 87.2664286,86.6142857 87.2682143,86.6171429 C87.2667857,86.6142857 87.2653571,86.6110714 87.2639286,86.6082143" id="Fill-11" fill="#FFFFFE"></path>
                <path d="M110.797857,92.6575 C102.318571,93.3614286 98.0603571,92.9625 92.9396429,91.6264286 C90.2121429,90.915 88.5625,89.0846429 87.5535714,87.1928571 C88.8853571,89.9360714 89.5878571,92.0364286 94.1353571,93.3796429 C98.2667857,94.6 104.268214,95.8960714 110.288571,96.6267857 C116.7225,97.4075 119.973929,92.01 119.973929,78.6378571 C119.350714,81.8542857 117.413214,92.1082143 110.797857,92.6575" id="Fill-12" fill="#FFFFFE"></path>
                <path d="M126.803929,79.8028571 C126.240714,77.9132143 124.964286,76.6642857 123.584643,76.2378571 L123.46,85.3521429 C125.912857,84.8207143 127.530714,82.2403571 126.803929,79.8028571" id="Fill-13" fill="#FFFFFE"></path>
                <path d="M42.1496429,89.2935714 L41.9728571,76.3107143 C39.5932143,77.2617857 37.8171429,80.9939286 37.8171429,85.4564286 C37.8171429,85.8225 37.8292857,86.1842857 37.8514286,86.5417857 C38.4053571,88.1667857 40.1957143,89.0842857 42.1496429,89.2935714" id="Fill-14" fill="#FFFFFE"></path>
                <path d="M113.252857,80.5278571 C113.252857,80.5278571 112.958571,81.3403571 112.673214,82.1446429 C111.734286,84.3946429 110.252143,88.2178571 106.494643,88.6439286 C103.023929,89.0378571 96.8946429,88.7582143 95.5532143,88.4553571 C94.0007143,88.105 92.9982143,87.2242857 92.9982143,85.7007143 C97.3382143,85.3125 103.525,80.0453571 113.252857,80.5278571" id="Fill-15" fill="#FFFFFE"></path>
                <path d="M72.7610714,91.6264286 C78.585,90.1067857 79.4964286,83.4860714 79.7410714,82.0614286 C75.6932143,85.2817857 67.7471429,78.3753571 60.4514286,75.63 C54.7271429,73.4757143 50.0235714,73.4764286 47.3046429,76.2285714 C46.6642857,76.8764286 46.1342857,77.6767857 45.7267857,78.6378571 C46.3496429,81.8542857 48.2875,92.1082143 54.9028571,92.6578571 C63.3821429,93.3614286 67.6403571,92.9625 72.7610714,91.6264286" id="Fill-16" fill="#0D433B"></path>
                <path d="M72.7610714,91.6264286 C67.6403571,92.9625 63.3821429,93.3614286 54.9028571,92.6575 C48.2875,92.1082143 46.3496429,81.8542857 45.7267857,78.6378571 C45.7267857,92.01 48.9782143,97.4075 55.4121429,96.6267857 C61.4325,95.8960714 67.4339286,94.6 71.5653571,93.3796429 C76.1128571,92.0364286 76.8153571,89.9360714 78.1471429,87.1928571 C77.1382143,89.0846429 75.4885714,90.915 72.7610714,91.6264286" id="Fill-17" fill="#FFFFFE"></path>
                <path d="M52.4478571,80.5278571 C52.4478571,80.5278571 52.7421429,81.3403571 53.0275,82.1446429 C53.9667857,84.3946429 55.4485714,88.2178571 59.2060714,88.6439286 C62.6767857,89.0378571 68.8060714,88.7582143 70.1475,88.4553571 C71.7,88.105 72.7021429,87.2242857 72.7021429,85.7007143 C68.3625,85.3125 62.1757143,80.0453571 52.4478571,80.5278571" id="Fill-18" fill="#FFFFFE"></path>
                <path d="M71.1253571,98.9875 L71.1253571,137.605357 L77.1514286,140.601786 L77.1514286,96.0442857 C75.3046429,96.815 73.4639286,97.8760714 71.1253571,98.9875" id="Fill-19" fill="#0D433B"></path>
                <path d="M61.9367857,102.272143 C61.4896429,102.383571 61.0417857,102.474286 60.5942857,102.555357 L60.5942857,132.368929 L66.62,135.365357 L66.62,100.865357 C65.2346429,101.359643 63.6903571,101.836429 61.9367857,102.272143" id="Fill-20" fill="#0D433B"></path>
                <path d="M50.0632143,101.789643 L50.0632143,127.1325 L56.0889286,130.128929 L56.0889286,102.8875 C53.9992857,102.818214 51.9678571,102.440357 50.0632143,101.789643" id="Fill-21" fill="#0D433B"></path>
                <path d="M135.198929,104.860357 C140.166429,108.847857 142.4575,113.248929 141.099643,116.696071 C143.158571,114.925714 145.780714,112.921429 148.933214,110.997143 C144.91,109.091786 140.197143,106.990357 135.198929,104.860357" id="Fill-22" fill="#FFFFFE"></path>
                <path d="M50.4482143,161.732143 C50.4482143,157.455 53.6917857,153.845357 58.1467857,152.656071 L48.63,146.179643 C49.3192857,146.992143 49.7328571,147.993571 49.7328571,149.082143 C49.7328571,151.788929 47.2185714,153.983214 44.1164286,153.983214 C41.0146429,153.983214 38.5,151.788929 38.5,149.082143 C38.5,146.375714 41.0146429,144.181429 44.1164286,144.181429 C44.8617857,144.181429 45.5714286,144.310714 46.2221429,144.541071 L39.1678571,139.740357 C32.1585714,141.549286 29.4017857,145.499286 29.1507143,145.878571 L28.8821429,146.352143 L52.2964286,167.0275 C51.1296429,165.514643 50.4482143,163.692857 50.4482143,161.732143" id="Fill-23" fill="#FFFFFE"></path>
                <path d="M69.4714286,73.0278571 C62.8485714,67.5396429 62.3007143,52.6153571 61.4607143,43.2271429 C56.8385714,46.2164286 53.1403571,50.3985714 50.3996429,55.7667857 C47.8014286,60.8553571 46.6057143,66.0139286 46.0546429,69.6439286 C53.9178571,60.5567857 63.8303571,72.4346429 69.4714286,73.0278571" id="Fill-24" fill="#FFFFFE"></path>
                <path d="M73.3232143,38.8375 C74.0375,44.4232143 75.1342857,53.1696429 75.8521429,58.2596429 C76.1571429,60.4210714 77.5442857,62.3492857 79.6367857,63.5242857 L82.8503571,65.3289286 L82.8503571,30.3542857 C82.8503571,30.3542857 72.7389286,34.0189286 73.3232143,38.8375" id="Fill-25" fill="#FFFFFE"></path>
                <path d="M78.6425,23.4560714 C80.2296429,22.7846429 81.4092857,22.4078571 81.4875,22.3832143 L82.8503571,21.9521429 L84.2132143,22.3832143 C84.2696429,22.4014286 84.9017857,22.6032143 85.8446429,22.9660714 C88.82,16.1207143 83.2264286,10.7992857 75.8339286,10.1139286 C77.4635714,10.725 79.5164286,12.9335714 79.9075,15.2057143 C74.7957143,11.6314286 66.75,10.44 57.8289286,13.1389286 C63.8485714,13.1396429 69.4667857,14.84 73.6478571,17.9271429 C75.795,19.5117857 77.4692857,21.3882143 78.6425,23.4560714" id="Fill-26" fill="#FFFFFE"></path>
                <path d="M11.8871429,49.7142857 C9.81464286,53.6021429 8.535,57.4435714 8.23464286,61.0760714 C7.57464286,69.0585714 11.8075,75.3692857 20.8157143,79.8328571 C21.7357143,80.2889286 22.6467857,80.7342857 23.5532143,81.1742857 C17.5128571,73.6278571 10.0967857,61.805 11.8871429,49.7142857" id="Fill-27" fill="#FFFFFE"></path>
                <polyline id="Fill-28" fill="#0D433B" points="135.005714 159.2675 133.269286 159.2675 133.269286 158.444286 137.715 158.444286 137.715 159.2675 135.978571 159.2675 135.978571 163.683571 135.005714 163.683571 135.005714 159.2675"></polyline>
                <polyline id="Fill-29" fill="#0D433B" points="143.260357 163.683571 143.253214 160.210357 141.532143 163.084643 141.097857 163.084643 139.376429 160.255357 139.376429 163.683571 138.448214 163.683571 138.448214 158.444286 139.249286 158.444286 141.329643 161.916786 143.373214 158.444286 144.173571 158.444286 144.181429 163.683571 143.260357 163.683571"></polyline>
            </g>
        </g>
    </g>
</svg>