<?xml version="1.0" encoding="UTF-8"?>
<svg width="200px" height="200px" viewBox="0 0 200 200" version="1.1" xmlns="http://www.w3.org/2000/svg" xmlns:xlink="http://www.w3.org/1999/xlink">
    <title>colorado-col_BGL</title>
    <defs>
        <polygon id="path-1" points="0 0 178.136771 0 178.136771 200 0 200"></polygon>
    </defs>
    <g id="colorado-col_BGL" stroke="none" stroke-width="1" fill="none" fill-rule="evenodd">
        <g id="colorado-col" transform="translate(11.000000, 0.000000)">
            <g id="Group-3">
                <mask id="mask-2" fill="white">
                    <use xlink:href="#path-1"></use>
                </mask>
                <g id="Clip-2"></g>
                <path d="M116.984751,0 L89.6607452,12.1710423 L61.365823,0.0295551014 L-0.0377299167,27.9333438 L-0.0377299167,110.950479 C-0.0377299167,160.073573 39.9270555,200.03773 89.0495205,200.03773 C138.172614,200.03773 178.136771,160.073573 178.136771,110.950479 L178.136771,27.9446628 L116.984751,0" id="Fill-1" fill="#F2AF36" mask="url(#mask-2)"></path>
            </g>
            <path d="M170.55746,32.8143374 L170.55746,110.950479 C170.55746,155.966043 134.065084,192.458418 89.0495205,192.458418 C44.0339569,192.458418 7.54158151,155.966043 7.54158151,110.950479 L7.54158151,32.8143374 L61.4538595,8.3150448 L81.590316,16.9551957 L66.7756642,30.6612168 L116.944506,8.3150448 L170.55746,32.8143374" id="Fill-4" fill="#000000"></path>
            <path d="M161.341299,95.5855997 C161.341299,95.5855997 161.341299,72.7325892 141.50228,58.6719069 L150.22355,50.0738878 C150.22355,50.0738878 143.960384,48.7910706 134.7939,44.8243987 C125.626788,40.8583556 113.872662,42.0374155 107.000786,47.1680553 C107.000786,47.1680553 95.2409998,35.6679767 62.1047005,43.1322119 C43.1278101,47.4063826 33.3815438,48.3508882 28.5150134,48.377928 L37.1765446,57.8839805 C37.1765446,57.8839805 43.1781166,56.3427134 53.1010847,56.471624 C53.1010847,56.471624 27.7069643,64.684798 15.3422418,95.8195252 L25.0815909,93.4463135 C23.8603993,98.6090237 23.2013834,103.989939 23.2013834,109.526175 C23.2013834,142.166326 45.6588587,169.560761 75.9647854,177.100456 C75.9647854,177.100456 63.5717654,164.383587 69.3633077,143.615784 C73.2243358,145.466436 78.2241786,150.138029 84.1163339,160.622544 C86.6121679,165.063355 89.6563433,167.764188 92.9853797,169.20044 C94.6222292,165.935545 98.2185191,161.58277 105.758214,161.58277 L126.307813,161.581512 C130.331709,161.581512 131.448514,165.064612 131.448514,165.064612 C135.544726,162.507782 138.51973,158.26128 138.974375,153.368338 C139.304512,149.810407 138.265053,146.55746 136.282974,144.057224 C138.260022,118.647382 146.466279,106.317246 146.466279,106.317246 L148.819368,122.138657 C148.819368,122.138657 161.341299,111.539066 155.469895,91.1215218 L161.341299,95.5855997" id="Fill-5" fill="#F2AF36"></path>
            <path d="M99.0731017,84.2452445 C87.1661688,84.8262852 79.5164282,81.826128 79.5164282,81.826128 C83.0215375,89.6695488 97.9669863,88.2892627 97.9669863,88.2892627 C96.1276529,89.8714039 93.047634,91.2296809 90.1166483,92.2685112 C105.531206,98.11036 123.074988,88.7086936 123.074988,88.7086936 C123.074988,88.7086936 122.632919,83.7761358 116.503066,79.2378557 C110.373212,74.6983179 108.516271,71.4730388 108.516271,71.4730388 C93.4249332,64.0999843 81.2155321,72.2138029 81.2155321,72.2138029 C79.4183305,80.1358277 99.0731017,84.2452445 99.0731017,84.2452445" id="Fill-6" fill="#FFFFFE"></path>
            <path d="M155.469895,91.1215218 L155.473039,91.1240371 L155.471152,91.1208929 C155.534664,90.0418173 155.562333,88.9388461 155.454174,87.8151234 C154.551171,78.4077975 147.732118,71.3711681 140.223235,72.0968401 C139.749725,72.1427449 139.301368,72.2150605 138.846722,72.3188178 C138.846722,72.3188178 139.055494,74.3229052 133.856941,79.5478698 C128.660274,84.7678038 128.535136,89.2362836 128.535136,89.2362836 C135.105801,92.0396164 139.404496,91.2718126 141.993397,89.9613268 C139.080648,89.1287533 137.36205,87.2887911 137.36205,87.2887911 C145.398522,87.8962427 146.375727,82.357491 146.375727,82.357491 C143.100141,84.9231253 138.318503,83.7063355 138.318503,83.7063355 C145.104229,81.354504 144.104386,77.0771891 144.104386,77.0771891 C146.467537,78.1204213 151.466122,81.3859456 151.466122,88.6640465 C151.466122,95.9421475 142.991354,100.23141 142.991354,100.23141 C127.800031,136.989781 131.916994,148.053451 131.916994,148.053451 L98.2902059,148.053451 L94.5323062,153.574595 C71.8289577,144.238327 91.4296494,104.885395 91.4296494,104.885395 C83.464864,103.707593 72.7577425,96.3056123 72.7577425,86.5228738 C72.7577425,82.9555101 73.8839805,80.0905518 75.3133155,77.885867 C71.9169942,81.0086464 69.7846251,85.4853011 69.7846251,90.4631347 C69.7846251,95.2510612 71.7553844,99.5761673 74.9265839,102.679453 C74.7580569,102.681968 74.5907876,102.691401 74.4216318,102.690772 C59.5290049,102.663103 47.9446628,91.5334067 47.5554158,77.4016664 L47.4956768,77.5060525 C46.5178431,80.2307813 45.979563,83.0806477 45.9814445,86.0078604 C45.9814445,100.603679 59.0089609,112.262223 76.4974061,114.706493 C76.9199811,117.78714 77.2953938,121.915422 77.2060997,126.513441 C71.5195724,126.291464 66.1361421,125.059582 61.3343814,123.026568 C59.1586229,126.479484 57.4324792,130.242415 56.2389561,134.236755 C58.814023,135.431536 61.7154535,136.521931 65.0036158,137.440654 C65.0036158,137.440654 60.6602735,138.459362 55.094482,138.985065 C54.5945606,141.691558 54.3260494,144.479799 54.3260494,147.331552 C54.3260494,156.257192 56.8897972,164.583556 61.3167741,171.618299 C65.9292564,173.963842 70.8310014,175.823298 75.9647854,177.100456 C75.9647854,177.100456 63.5717654,164.383587 69.3633077,143.615784 C73.2243358,145.466436 78.2241786,150.138029 84.1163339,160.622544 C86.6121679,165.063355 89.6563433,167.764188 92.9853797,169.20044 C94.6222292,165.935545 98.2185191,161.58277 105.758214,161.58277 L126.307813,161.581512 C130.331709,161.581512 131.448514,165.064612 131.448514,165.064612 C135.544726,162.507782 138.51973,158.26128 138.974375,153.368338 C139.304512,149.810407 138.265053,146.55746 136.282974,144.057224 C138.260022,118.647382 146.466279,106.317246 146.466279,106.317246 L148.819368,122.138657 C148.819368,122.138657 161.341299,111.539066 155.469895,91.1215218" id="Fill-7" fill="#FFFFFE"></path>
            <path d="M72.9520516,56.3351674 L86.5964471,67.1234083 L99.8082063,64.0352146 C99.8082063,64.0352146 101.922968,66.6178274 107.750354,67.794372 L100.342713,55.3906618 C100.342713,55.3906618 97.6261594,57.1545355 97.732432,59.5893727 C97.732432,59.5893727 93.1809464,59.6227008 88.6238013,57.122465 C84.0660274,54.6203427 76.8835089,53.4915894 72.9520516,56.3351674" id="Fill-8" fill="#000000"></path>
            <path d="M60.4232039,61.3035686 C60.4232039,61.3035686 53.3828014,69.3607923 56.1553215,81.5381229 C56.1553215,81.5381229 67.3919195,82.6442383 73.0815909,77.1098884 C73.0815909,77.1098884 55.9421475,77.8192108 60.4232039,61.3035686" id="Fill-9" fill="#000000"></path>
            <path d="M76.4974061,114.706493 C59.0089609,112.262223 45.9814495,100.603679 45.9814495,86.0078604 C45.979563,83.0139915 46.5385946,80.1012419 47.5598176,77.3205471 C46.9838076,77.9984279 46.4411256,78.6951737 45.9298852,79.408898 C46.3914479,78.6693916 46.9284704,77.9676152 47.5591888,77.3199183 C47.5591888,77.3199183 32.5565163,87.2642666 35.1762302,107.772363 C35.1762302,107.772363 36.6282031,102.211602 41.0382015,99.6887282 C43.5994341,114.55746 58.8316302,125.795944 77.2060997,126.513441 C77.2953938,121.915422 76.9199811,117.78714 76.4974061,114.706493" id="Fill-10" fill="#000000"></path>
            <path d="M36.8124509,113.746895 C36.8124509,113.746895 40.0031442,130.451187 65.0036158,137.440654 C65.0036158,137.440654 49.2419431,141.140701 39.2787298,138.077661 C39.2787298,138.077661 35.0460619,130.866845 36.8124509,113.746895" id="Fill-11" fill="#000000"></path>
            <path d="M144.104386,77.0771891 C144.104386,77.0771891 145.104229,81.354504 138.318503,83.7063355 C138.318503,83.7063355 143.100141,84.9231253 146.375727,82.357491 C146.375727,82.357491 145.398522,87.8962427 137.36205,87.2887911 C137.36205,87.2887911 139.080648,89.1287533 141.993397,89.9613268 C139.404496,91.2718126 135.105801,92.0396164 128.535136,89.2362836 C128.535136,89.2362836 128.660274,84.7678038 133.856941,79.5478698 C139.055494,74.3229052 138.846722,72.3188178 138.846722,72.3188178 L131.769219,62.4851438 L135.711366,57.4085836 C135.711366,57.4085836 134.084578,55.2718126 129.683383,57.7380915 C125.282188,60.1999686 122.337997,59.4170728 122.337997,59.4170728 L131.842163,71.8930986 C131.842163,71.8930986 126.455589,74.0789184 108.516271,71.4730388 C108.516271,71.4730388 110.373212,74.6983179 116.503066,79.2384845 C122.632919,83.7761358 123.074988,88.7086936 123.074988,88.7086936 C123.074988,88.7086936 105.531206,98.11036 90.1166483,92.2685112 C93.047634,91.2296809 96.1276529,89.8714039 97.9669863,88.2892627 C97.9669863,88.2892627 83.0215375,89.6695488 79.5164282,81.826128 C79.5164282,81.826128 87.1661688,84.8262852 99.0731017,84.2452445 C99.0731017,84.2452445 79.4183305,80.1358277 81.216161,72.2138029 C81.216161,72.2138029 72.7577425,76.740764 72.7577425,86.5228738 C72.7577425,96.3056123 83.464864,103.707593 91.4296494,104.885395 C91.4296494,104.885395 71.8289577,144.238327 94.5323062,153.574595 L98.2902059,148.053451 L131.916994,148.053451 C131.916994,148.053451 127.800031,136.989781 142.991354,100.23141 C142.991354,100.23141 151.466122,95.9421475 151.466122,88.6640465 C151.466122,81.3859456 146.467537,78.1204213 144.104386,77.0771891" id="Fill-12" fill="#000000"></path>
            <path d="M99.9226537,103.793114 L100.72693,117.653828 C100.72693,117.653828 106.664361,113.163339 110.666876,104.639522 L128.36598,104.639522 L128.36598,117.186606 C128.36598,117.186606 135.068071,110.965571 136.589844,100.267882 L125.929256,96.6476969 L99.9226537,103.793114" id="Fill-13" fill="#FFFFFE"></path>
            <path d="M120.677881,135.667348 L104.452759,135.667348 L104.536394,125.034429 C104.536394,125.034429 95.2850181,132.819997 99.2309385,141.186606 L125.6903,141.186606 L127.362993,125.034429 C127.362993,125.034429 123.5856,127.484987 120.677881,135.667348" id="Fill-14" fill="#FFFFFE"></path>
            <path d="M177.557617,174.214117 L176.160981,174.214117 L176.160981,170.140544 L176.010061,170.140544 L174.729131,172.99041 L173.750039,172.99041 L172.454645,170.090237 L172.267882,170.090237 L172.267882,174.214117 L170.943562,174.214117 L170.943562,169.002987 L173.210501,169.002987 L174.26128,171.551014 L175.354818,169.002987 L177.557617,169.002987 L177.557617,174.214117 Z M170.115391,170.132998 L168.625688,170.132998 L168.625688,174.214117 L167.222764,174.214117 L167.222764,170.132998 L165.732432,170.132998 L165.732432,169.002987 L170.115391,169.002987 L170.115391,170.132998 L170.115391,170.132998 Z" id="Fill-15" fill="#F2AF36"></path>
        </g>
    </g>
</svg>