<?xml version="1.0" encoding="UTF-8"?>
<svg width="200px" height="200px" viewBox="0 0 200 200" version="1.1" xmlns="http://www.w3.org/2000/svg" xmlns:xlink="http://www.w3.org/1999/xlink">
    <!-- Generator: Sketch 54.1 (76490) - https://sketchapp.com -->
    <title>denver</title>
    <desc>Created with Sketch.</desc>
    <g id="denver" stroke="none" stroke-width="1" fill="none" fill-rule="evenodd">
        <g id="denver_BGL">
            <g id="denver" transform="translate(0.000000, 47.000000)">
                <g id="g10" transform="translate(99.999998, 53.417627) scale(-1, 1) rotate(-180.000000) translate(-99.999998, -53.417627) translate(0.000000, 0.160923)" fill-rule="nonzero">
                    <g id="g12">
                        <path d="M117.202296,83.5344807 C116.652871,87.2394614 116.217238,91.3222199 116.048656,92.4613004 C116.151721,92.4567027 116.291568,92.4505724 116.330265,92.4505724 L116.34674,92.4754766 C116.742143,92.4455916 117.92835,92.3555532 118.526434,92.3103425 C118.350955,91.2976989 117.840227,87.2057449 117.202296,83.5344807 L117.202296,83.5344807 Z M133.047123,103.832564 C132.993866,103.842526 127.72605,104.826051 117.995399,105.699231 L117.995399,105.70038 C117.995399,105.70038 117.939078,105.704212 117.930265,105.704978 C117.720687,105.723752 117.52107,105.742526 117.307277,105.7613 L116.275093,105.851338 C116.275093,105.851338 116.275093,105.818771 116.275093,105.816472 C109.501913,106.252871 101.54789,106.370112 101.464748,106.371262 L100.496166,106.385055 L100.459001,92.9398444 C100.459001,92.9398444 102.722603,92.9157065 103.555553,92.9065111 C103.827967,91.4068943 111.333331,50.0984662 111.333331,50.0984662 L112.04674,50.0229873 C115.092334,49.700765 121.698848,48.6360141 121.765131,48.6252861 L122.684671,48.4770103 C122.684671,48.4770103 130.402296,89.0846721 130.732181,90.8218368 C131.703445,90.6609173 132.735246,90.4597679 132.749039,90.4570859 L133.897315,90.2321817 L133.822219,103.685821 L133.047123,103.832564 Z M182.154018,63.7547877 C182.155934,64.7275846 182.173942,72.7295001 182.17854,74.9444426 C183.832179,74.1931016 184.744823,73.5681974 185.167811,73.3333315 C185.169727,72.4658986 185.123367,64.5057455 185.128731,62.0145578 C183.673175,62.8727954 182.70421,63.4793088 182.154018,63.7547877 Z M182.006892,36.0249033 C182.005743,36.2744052 181.918769,42.4582365 181.911107,44.2145583 C182.28467,42.2490411 183.092716,37.1782366 183.539459,34.8275853 C183.089267,35.1765892 182.230264,35.8517232 182.006892,36.0249033 Z M199.919152,0 L199.918769,20.4460148 L199.698462,20.7119535 C199.625666,20.7996547 197.332562,23.5727963 197.332562,23.5727963 C197.332562,23.5727963 192.6567,46.6739452 192.511489,47.5191559 C193.027581,48.1164739 197.233712,51.5417612 197.233712,51.5417612 L197.430646,75.8080441 L191.297696,88.4743273 L190.956317,88.6126415 C190.846739,88.6570859 179.916854,93.076626 168.596164,96.6210704 L167.345973,97.0126413 L167.419536,81.3222202 L168.185436,81.1666646 C168.192333,81.1651321 168.852869,81.0176225 170.035245,80.6007643 C170.037544,79.3574693 170.0908,47.5521061 170.095398,44.600382 C169.347505,44.9773935 168.814555,45.1839069 168.780072,45.1969337 L167.486586,45.6919529 L167.413789,30.7240605 L167.812256,30.4359763 C167.896164,30.3750567 176.281605,24.2953634 183.009191,18.4824133 L184.58467,17.1218003 C184.58467,17.1218003 184.384287,25.7240607 184.401528,29.7030644 C185.458616,24.1418385 187.562447,14.1858234 187.562447,14.1858234 C187.562447,14.1858234 193.950187,7.46363966 198.213405,2.13302294 L199.919152,0 L199.919152,0 Z M154.543674,56.6260522 L153.260533,57.1241365 C153.260533,57.1241365 153.216088,54.1904201 153.196931,52.9417611 C151.818004,53.5068952 150.784287,53.9160906 150.178157,54.1528722 C150.183521,55.1865887 150.220303,61.8329486 150.231414,63.7498068 C151.408042,63.3724122 153.321452,62.7478912 155.544824,61.9796919 L156.822601,61.5379295 L156.747889,75.9436763 C156.747889,75.9436763 151.495399,77.362067 150.370111,77.6658984 C150.376625,78.8068946 150.41264,85.1593848 150.422985,86.9160898 C151.122985,86.7521051 152.108425,86.5061281 153.290801,86.1747105 C153.274709,85.2210707 153.227199,82.4145573 153.227199,82.4145573 L153.927199,82.2088102 C153.986203,82.1915688 159.867429,80.462067 163.792333,79.154021 L165.052869,78.7337145 L165.052869,97.4651317 L164.341758,97.6547868 C164.206126,97.6911853 150.604977,101.299231 136.467813,103.549806 L135.365514,103.725285 L135.291184,89.9252851 L136.157085,89.8375456 C136.167046,89.8367794 137.021453,89.7471242 138.169345,89.5471242 L138.169345,58.3693472 C137.446357,58.5348644 136.704211,58.6881211 136.573177,58.7149411 L135.423368,58.9501901 L135.423368,45.6306502 L136.109575,45.4275851 C136.249039,45.3862058 150.215322,41.2122595 163.743291,33.3834858 L165.174709,32.5552099 L165.246739,52.0444431 L164.716088,52.3107267 C161.527582,53.9111098 154.827582,56.5160905 154.543674,56.6260522 L154.543674,56.6260522 Z M50.1777765,58.228351 L49.5551712,57.998466 C49.5551712,57.998466 49.5432938,55.7360139 49.5390792,54.9180063 C48.8961674,54.681991 47.8720295,54.3057458 46.7578532,53.8961672 L46.7578532,62.3455923 C47.8298839,62.7379295 50.1693474,63.5739448 52.6904201,64.3478911 L53.3670485,64.5559371 L53.3670485,78.521454 C53.3670485,78.521454 48.2785429,77.0061283 46.6195391,76.5114923 C46.6272019,78.4256685 46.6551712,85.2766262 46.6593858,86.3601511 C47.227585,86.538312 48.1858226,86.8218369 49.5501903,87.1727948 C49.5643666,86.0015304 49.5980831,83.211109 49.5980831,83.211109 L50.7636003,83.4892699 C50.8287344,83.5045956 57.3168568,85.0501894 60.9321824,85.7808408 L61.7003816,85.9360132 L61.7003816,103.502296 L60.5923356,103.326817 C60.4509563,103.304212 46.2862057,101.036396 32.3202674,97.0762428 L31.6211869,96.8777754 L31.6765509,81.4976991 C31.6765509,81.4976991 34.544252,82.4885037 34.650842,82.5252853 C34.6466275,80.0927183 34.5958995,49.6892708 34.5940988,48.6160907 C33.9044436,48.2517229 31.761685,47.1195391 31.761685,47.1195391 L31.7675471,46.5452096 L31.7675471,30.931072 L33.229003,31.8336774 C33.3677386,31.9198843 47.2808417,40.4708802 61.0053625,44.9080449 L61.6670483,45.121838 L61.7030636,61.9540214 L60.4674314,61.5835234 C60.4034468,61.5643663 54.0183895,59.6467418 50.1777765,58.228351 Z M82.7846723,92.3754766 C82.8536378,92.3789249 84.1337144,92.4233693 84.9126416,92.4643655 C84.9302661,91.7294996 84.8628331,89.3908024 84.9126416,87.3658982 C84.3199213,88.6793081 83.6448255,90.4693464 82.7846723,92.3754766 Z M82.6727949,105.683522 L81.7712623,105.634097 C81.7712623,105.634097 81.7344807,96.8670474 81.7252853,94.7233693 C79.4793084,99.7015301 76.9467414,105.315323 76.9467414,105.315323 L76.2639828,105.249806 C76.2034464,105.244059 70.1149408,104.657469 63.8233701,103.80881 L62.9900367,103.696549 L63.0459754,89.6992315 L64.2026804,89.9505725 C64.2114926,89.952105 64.8701133,90.0942506 65.8704964,90.2555533 C65.8766267,88.2413771 65.9563202,61.379692 65.9605347,60.0153242 C65.1279677,59.7969334 63.0203049,59.2440598 63.0203049,59.2440598 L63.0413777,58.5030637 L63.1471249,45.3865889 L64.3440597,45.708428 C64.4310329,45.7317996 73.1164733,48.0613015 79.7651321,49.1363972 L80.5701129,49.2662823 L80.5701129,62.6685808 C80.5701129,62.6685808 78.7310325,62.4256689 78.0279674,62.3325655 C78.024136,63.4796919 78.0130249,66.601914 78.0007643,70.1467415 C80.4796915,64.3118758 86.5681971,49.9800754 86.5681971,49.9800754 L87.2582354,50.0371635 C87.3065112,50.0409949 92.1348636,50.4379298 95.0743271,50.5616846 L95.9915685,50.5999987 C95.9915685,50.5999987 95.9915685,91.1605341 95.9915685,92.9616835 C96.839078,92.9754766 98.8582351,93.0091931 98.8582351,93.0091931 L98.8651316,93.9513386 L98.8651316,106.27471 L97.8927179,106.259767 C91.3758598,106.158618 82.7590018,105.688503 82.6727949,105.683522 L82.6727949,105.683522 Z M17.0177774,37.9425661 C16.6947889,37.6804971 16.0255168,37.1367807 15.0983138,36.3832175 C15.0942908,39.962068 15.0547889,73.5317989 15.0537161,74.5923353 C15.5054019,74.8314158 16.235172,75.2095767 17.1312256,75.6463583 C17.1226816,72.8685806 17.0204593,38.7961676 17.0177774,37.9425661 Z M0.143528349,84.0547872 L0.107010342,67.0134083 C0.107010342,67.0134083 2.28762446,68.158619 3.06648268,68.5674312 C3.06079303,65.6371631 2.98626046,25.9689266 2.98476238,25.2011488 C2.51930645,24.751417 0.114942526,22.4272791 0.114942526,22.4272791 L0.110452488,22.0218385 L0,1.39308042 L1.71530647,3.50036007 C1.84431796,3.65870489 14.7357084,19.4222984 26.01862,26.818735 L26.2474706,26.9690032 L29.5174705,34.0199991 L29.275938,86.0072775 L21.6934477,93.8540206 L21.0811872,93.5816069 C20.978965,93.536013 10.7269346,88.9727947 0.696390787,84.3114921 L0.143528349,84.0547872 L0.143528349,84.0547872 Z" id="path14" fill="#231F20"></path>
                        <path d="M67.591186,92.1314153 C65.9467416,91.9095762 64.7655156,91.6524881 64.7655156,91.6524881 L64.7176229,102.093101 C71.0635998,102.94904 75.5892701,103.529882 75.5892701,103.529882 L86.4130247,80.6371627 L86.1735611,94.238695 C85.4773925,94.2026796 83.4436761,94.0950168 83.4436761,94.0950168 L83.4915688,103.960917 C83.4915688,103.960917 90.5678138,104.433714 97.1409937,104.53563 L97.1409937,94.7176222 C95.8616834,94.7057448 94.2674306,94.6697294 94.2674306,94.6697294 L94.2674306,52.284673 C91.2743272,52.1586194 87.9455917,51.7578531 87.9455917,51.7578531 L76.2597682,77.9551705 L76.3076609,60.474328 C76.3076609,60.474328 77.4689636,60.6003816 78.845975,60.809577 L78.845975,50.8478914 C72.0693469,49.7528723 64.8613011,47.7827574 64.8613011,47.7827574 L64.7655156,57.744443 C64.7655156,57.744443 66.5413776,58.2409947 67.6869715,58.5107265 L67.591186,92.1314153" id="path16" fill="#A4965F"></path>
                        <path d="M186.443673,74.4444426 L186.473175,59.1701135 C183.040608,61.2773931 180.81149,62.6781594 180.81149,62.6781594 L180.840992,77.5704961 L186.443673,74.4444426 Z M171.758233,82.0417604 L171.822218,41.4287346 C170.455168,42.2908035 169.203827,42.7697307 169.203827,42.7697307 L169.140226,31.9781218 C169.140226,31.9781218 176.030264,27.0318384 182.869344,21.1229497 L182.932946,33.2555164 C181.637543,34.2670873 180.57011,34.8754781 180.57011,34.8754781 L180.668961,51.7976999 L181.527965,51.1590026 L189.062831,15.4394249 C189.062831,15.4394249 193.852486,10.4605361 198.195014,5.03022976 L198.194631,19.334444 L195.799995,22.3275856 L190.851336,48.3494241 L195.752102,52.4999987 L195.704593,74.8256686 L190.08467,87.1107258 C190.08467,87.1107258 180.490417,91.0076606 169.076241,94.58199 L169.139843,82.8720286 L171.758233,82.0417604 L171.758233,82.0417604 Z" id="path18" fill="#A4965F"></path>
                        <path d="M139.893483,91.1095763 L139.893483,56.371263 C139.244824,56.5808415 137.147506,57.0099603 137.147506,57.0099603 L137.147506,47.1122594 C137.147506,47.1122594 149.663598,43.559769 163.456701,35.5778535 L163.520302,50.6881213 C160.335628,52.2865887 154.963598,54.4157075 154.963598,54.4157075 L154.899613,50.2011482 C151.834479,51.4781596 148.450188,52.7314163 148.450188,52.7314163 L148.514173,65.9739447 C148.514173,65.9739447 151.367429,65.1540214 155.091184,63.8666651 L155.027582,74.44291 C155.027582,74.44291 151.688885,75.3467414 148.641759,76.1670479 L148.70536,89.4095763 C148.70536,89.4095763 152.189651,88.4873541 155.027199,87.6613005 L154.963598,83.5107259 C154.963598,83.5107259 159.341758,82.1578524 163.328732,80.8287336 L163.328732,95.9628328 C163.328732,95.9628328 151.335628,99.568963 137.083521,101.837545 L137.01992,91.5567027 L139.893483,91.1095763" id="path20" fill="#A4965F"></path>
                        <path d="M105.122986,94.6218367 L112.91379,51.7417612 C116.020687,51.4130255 121.151338,50.3371635 121.151338,50.3371635 L129.197315,92.673944 C130.322602,92.5241356 132.166663,92.1632161 132.166663,92.1632161 L132.102679,102.124902 C132.102679,102.124902 127.920303,103.146741 117.671261,104.04061 L117.703062,94.1586183 C117.703062,94.1586183 119.063982,94.0888865 120.416855,93.9513386 L117.12835,75.5923353 L114.159001,94.2704957 C114.159001,94.2704957 114.829499,94.2704957 116.202296,94.1747103 L116.266281,104.04061 C109.280074,104.526051 102.217622,104.647124 102.217622,104.647124 L102.185821,94.6536375 L105.122986,94.6218367" id="path22" fill="#A4965F"></path>
                        <path d="M36.3173554,47.2720295 L36.3770489,84.6241358 C35.3408037,84.3049787 35.2674321,84.2317987 33.3958995,83.6065113 L33.3480068,95.3881202 C47.4203053,99.3789247 59.9762437,101.350572 59.9762437,101.350572 L59.9762437,87.1026798 C56.3022974,86.3601511 51.3076616,85.1869711 51.3076616,85.1869711 L51.2597688,89.5452085 C48.0030639,88.7547871 44.9379299,87.8210706 44.9379299,87.8210706 L44.8900372,74.459002 C44.8900372,74.459002 48.338313,75.5245192 51.6429106,76.4704962 L51.6429106,66.0298834 C48.1528724,64.9586191 45.0337153,63.7789256 45.0337153,63.7789256 L45.0337153,51.3747114 C45.0337153,51.3747114 47.5440601,52.5241366 51.2597688,53.8651328 L51.2758608,56.9463587 L59.9762437,59.8996154 L59.9444429,46.5854394 C45.943677,42.0590028 33.491685,34.1811869 33.491685,34.1811869 L33.491685,45.7789261 L36.3173554,47.2720295" id="path24" fill="#A4965F"></path>
                        <path d="M18.7407275,36.719501 L13.376743,32.8401907 L13.3288502,75.9317989 C13.3288502,75.9317989 16.6245973,77.2850555 18.8598463,78.3126417 L18.7407275,36.719501 Z M21.4706125,91.5567027 C21.4706125,91.5567027 12.0058235,87.3885036 1.86631796,82.6766263 L1.83458999,69.7494235 C1.83458999,69.7494235 3.44019532,70.5727952 4.79360141,71.3034465 L4.7081608,24.0279304 C3.63655546,22.9804209 1.83458999,21.2501527 1.83458999,21.2501527 L1.73880455,6.02072782 C1.73880455,6.02072782 10.3765515,18.1781222 24.9960913,28.5954016 L27.7924514,34.9953631 L27.5535625,84.851722 L21.4706125,91.5567027 L21.4706125,91.5567027 Z" id="path26" fill="#A4965F"></path>
                        <path d="M20.2893098,35.6778152 C16.4897697,32.8942137 11.7801146,29.4284284 11.7801146,29.4284284 L11.7801146,76.913408 C11.7801146,76.913408 15.6634479,78.4517222 20.2893098,80.4517221 L20.2893098,35.6778152 Z M20.9437926,89.3773924 C20.9437926,89.3773924 13.6341759,86.1390783 3.49467041,81.427201 L3.49467041,72.6149407 C3.49467041,72.6149407 4.98367804,73.3693468 6.33651325,74.099615 L6.33651325,23.1061297 C5.26475083,22.0581987 3.47895777,20.220306 3.47895777,20.220306 L3.47461677,10.9291185 C3.47461677,10.9291185 11.6526051,20.6992332 23.9671642,30.0743671 L26.2119917,35.2107271 L25.9563595,83.654404 L20.9437926,89.3773924 L20.9437926,89.3773924 Z" id="path28" fill="#960A2C"></path>
                        <path d="M35.024252,44.246359 L35.024252,36.8631792 C35.024252,36.8631792 44.41111,43.208428 58.4118759,47.7348647 L58.4118759,57.7563204 C58.4118759,57.7563204 56.6655158,57.1758606 52.8084278,55.7505733 L52.8084278,52.6796922 C49.0927191,51.338696 43.72452,49.0877382 43.72452,49.0877382 L43.72452,65.1137915 C43.72452,65.1137915 46.6681981,66.3111095 50.1582363,67.3827569 L50.1582363,74.3214541 C46.8536387,73.375094 43.3413782,72.2019139 43.3413782,72.2019139 L43.3413782,89.0724116 C43.3413782,89.0724116 48.5839068,90.5030629 52.7923358,91.484672 L52.7923358,87.3961664 C52.7923358,87.3961664 54.7379297,87.8509557 58.4118759,88.5934844 L58.4118759,99.347124 C58.4118759,99.347124 49.024903,98.0540205 34.9521064,94.0628329 L34.9521064,86.032948 C34.9521064,86.032948 37.149501,86.7674308 37.8499224,86.9827564 L37.8499224,45.7390793 L35.024252,44.246359" id="path30" fill="#960A2C"></path>
                        <path d="M69.2513393,94.2505724 L69.2513393,57.1697304 C68.1061286,56.8999986 66.3938681,56.4816078 66.3938681,56.4816078 L66.3938681,49.7540217 C66.3938681,49.7540217 71.885822,51.2229872 77.4570862,52.3685811 L77.4570862,59.025669 C76.0800747,58.8157073 74.6793085,58.5647495 74.6793085,58.5647495 L74.6793085,85.6816071 L89.0950169,53.6080446 C89.0950169,53.6080446 90.2126414,53.7770101 92.7168559,53.9367803 L92.7187716,96.4593846 C92.7187716,96.4593846 94.2015302,96.5072773 95.4808405,96.5195378 L95.4808405,103.08084 C88.9076606,102.978925 84.8804576,102.608043 84.8804576,102.608043 L84.8804576,95.9804574 C84.8804576,95.9804574 86.946358,96.1302658 87.6425265,96.1662811 L87.6425265,74.5226035 L74.553638,101.90153 C74.553638,101.90153 72.7275844,101.590036 66.3819907,100.734097 L66.3777761,93.7957831 L69.2513393,94.2505724" id="path32" fill="#960A2C"></path>
                        <path d="M106.611875,96.4536374 L114.286587,53.2544048 C117.393484,52.9249029 119.926051,52.2486577 119.926051,52.2486577 L127.774326,94.5321815 C128.899997,94.3823731 130.681989,94.1011471 130.681989,94.1011471 L130.681989,100.955553 C130.681989,100.955553 125.469729,101.877392 119.426817,102.320687 L119.426817,95.6693463 C119.426817,95.6693463 120.793867,95.5436758 122.147123,95.4057447 L117.112258,68.312642 L112.185438,96.1126413 C112.185438,96.1126413 113.472411,96.0283501 114.8613,95.9210704 L114.8613,102.54176 C107.875093,103.026817 103.726434,103.06858 103.726434,103.06858 L103.726434,96.5195378 L106.623752,96.5613003" id="path34" fill="#960A2C"></path>
                        <path d="M141.433713,92.5505724 L141.433713,54.2720293 C140.784671,54.4816078 138.504211,55.1643664 138.504211,55.1643664 L138.504211,48.2616846 C138.504211,48.2616846 149.565514,44.9689644 161.988119,37.7670106 L161.988119,49.554788 C158.803827,51.1528723 156.336395,52.0689642 156.336395,52.0689642 L156.336395,48.189654 C152.570877,49.9137919 146.889652,51.8475083 146.889652,51.8475083 L146.889652,67.9934849 C146.889652,67.9934849 149.97854,67.1137914 153.702295,65.8264351 L153.702295,72.8126419 C153.702295,72.8126419 149.9249,74.0279675 146.877774,74.848274 L146.877774,91.3888866 C146.877774,91.3888866 153.498847,89.6291165 156.336395,88.8026798 L156.336395,85.0551703 C156.336395,85.0551703 157.976624,84.5283504 161.963981,83.1992316 L161.963981,94.6697294 C161.963981,94.6697294 152.756318,97.8245186 138.504211,100.093484 L138.504211,93.1068942 L141.433713,92.5505724" id="path36" fill="#960A2C"></path>
                        <path d="M187.593099,75.2107261 L187.622601,56.8712629 C184.190034,58.9785426 179.662064,61.9118758 179.662064,61.9118758 L179.691566,79.4862049 L187.593099,75.2107261 Z M173.2908,83.5743274 L173.354785,38.7386963 C171.987735,39.6007653 170.736394,40.2153247 170.736394,40.2153247 L170.672793,32.7444053 C170.672793,32.7444053 174.497697,30.0969724 181.336777,24.1880837 L181.400379,32.3850567 C180.104976,33.3964743 179.037543,34.0134091 179.037543,34.0134091 L179.277007,54.5114929 L182.773176,52.1168569 L190.340225,16.293103 C190.340225,16.293103 192.319919,14.6750954 196.662447,9.24478904 L196.662064,18.5919536 L194.554784,20.9865895 L189.254785,49.1157076 L194.315321,53.6973167 L194.267428,74.1475077 L189.095014,85.9291166 C189.095014,85.9291166 182.022984,89.0919518 170.608808,92.6662812 L170.67241,84.4045956 L173.2908,83.5743274 L173.2908,83.5743274 Z" id="path38" fill="#960A2C"></path>
                    </g>
                </g>
            </g>
        </g>
    </g>
</svg>