<svg width="1024" height="1024" viewBox="0 0 1024 1024" fill="none" xmlns="http://www.w3.org/2000/svg">
<circle cx="512" cy="512" r="512" fill="#000064"/>
<path d="M201.294 475.496H299.15L302.67 536.04C313.465 515.859 327.31 499.667 344.206 487.464C361.102 475.261 381.283 469.16 404.75 469.16C433.379 469.16 457.081 478.077 475.854 495.912C495.097 513.747 502.371 541.437 497.678 578.984L480.078 724.008H520.91L514.574 775.4L493.454 793H385.038L406.862 614.184C410.147 586.963 408.035 567.485 400.526 555.752C393.486 544.019 381.283 538.152 363.918 538.152C344.206 538.152 328.953 544.253 318.158 556.456C307.363 568.659 300.323 584.851 297.038 605.032L274.51 793H187.214L217.486 544.488H173.134L179.47 494.504L201.294 475.496ZM536.409 327.656L558.233 308.648H665.945L638.489 533.224C648.345 515.859 661.017 500.84 676.505 488.168C692.462 475.496 712.174 469.16 735.641 469.16C774.126 469.16 802.521 482.771 820.825 509.992C839.129 536.744 848.281 567.955 848.281 603.624C848.281 634.131 842.649 664.637 831.385 695.144C820.59 725.181 803.929 750.291 781.401 770.472C758.873 790.184 730.009 800.04 694.809 800.04C650.692 800.04 621.828 781.736 608.217 745.128L595.545 793H508.249C513.412 776.573 518.105 760.147 522.329 743.72C526.553 727.293 529.604 711.101 531.481 695.144L570.201 377.64H530.073L536.409 327.656ZM683.545 731.048C705.604 731.048 722.734 718.376 734.937 693.032C747.14 667.688 753.241 641.405 753.241 614.184C753.241 593.533 749.252 575.699 741.273 560.68C733.764 545.661 721.092 538.152 703.257 538.152C681.198 538.152 663.833 548.008 651.161 567.72C638.489 586.963 630.276 607.613 626.521 629.672L623.001 657.832C622.532 680.36 627.694 698.195 638.489 711.336C649.284 724.477 664.302 731.048 683.545 731.048Z" fill="white"/>
</svg>
