<?xml version="1.0" encoding="UTF-8"?>
<svg width="200px" height="200px" viewBox="0 0 200 200" version="1.1" xmlns="http://www.w3.org/2000/svg" xmlns:xlink="http://www.w3.org/1999/xlink">
    <!-- Generator: Sketch 54.1 (76490) - https://sketchapp.com -->
    <title>michigan-tech</title>
    <desc>Created with Sketch.</desc>
    <g id="michigan-tech" stroke="none" stroke-width="1" fill="none" fill-rule="evenodd">
        <g id="michigan-tech_BGL">
            <g id="michigan-tech" transform="translate(0.000000, 36.000000)">
                <g id="g10" transform="translate(99.809521, 63.870480) scale(-1, 1) rotate(-180.000000) translate(-99.809521, -63.870480) translate(0.000000, 0.251434)" fill-rule="nonzero">
                    <g id="g12">
                        <path d="M134.446473,105.920759 C130.830473,106.709331 127.138283,107.375997 123.393521,107.907045 C120.559997,113.625902 119.951235,115.020188 119.859807,115.242664 L119.169521,117.491045 L116.632378,116.832759 C112.724569,115.818664 109.619807,113.612188 107.395045,111.505521 C103.359997,118.595045 96.8137119,124.268949 96.4906643,124.547045 L93.8636167,126.92114 L92.333712,123.863616 C92.1843786,123.618283 90.9066644,121.577902 83.8133312,111.563426 C83.1519979,110.630092 82.5059027,109.634283 81.8857122,108.590473 C79.8278075,108.371807 77.7866647,108.110473 75.7606838,107.814854 C32.2705516,101.959616 0,80.3977123 0,54.6916558 C0,24.4869327 44.5586275,0 99.523807,0 C154.489139,0 199.048376,24.4869327 199.048376,54.6916558 C199.048376,78.1455219 172.184377,98.148569 134.446473,105.920759" id="path14" fill="#FFFFFF"></path>
                        <path d="M117.241902,65.5187793 C117.803426,64.176227 118.205711,63.5737889 120.520378,63.2437318 L120.52114,63.2425889 L120.535616,63.2425889 C120.918092,63.1881127 121.344759,63.1395794 121.839235,63.0988175 C121.850664,63.1241127 125.974092,62.8907413 125.976378,62.8839603 C126.948568,62.8491413 128.038854,62.8154651 129.263997,62.7800365 C129.263997,62.7800365 119.194664,72.5952744 114.499045,71.2318458 C114.499045,71.2318458 116.879997,70.499122 117.828568,68.8913507 C117.277711,68.2050269 116.630854,66.991084 117.241902,65.5187793" id="path16" fill="#231F20"></path>
                        <path d="M107.792759,8.83809502 C108.040378,23.0895994 118.731426,27.0148565 118.733711,27.0148565 C126.323044,28.0160755 136.479235,27.0636946 144.00152,26.3868946 L144.00152,26.3868946 L144.00152,26.3868946 C144.559234,26.3369136 145.106282,26.2880755 145.63352,26.2407612 L145.638092,26.2588946 L145.868187,26.2431232 L145.868187,26.2309327 C146.524187,26.1845327 147.15352,26.1372184 147.763044,26.0952374 L147.775996,26.0952374 L147.775996,26.0952374 C151.498663,25.8368755 154.268187,25.7255613 155.379044,26.0131041 C156.076187,26.193447 156.66971,26.3839231 157.190853,26.578285 C157.62971,26.8967612 158.070853,27.2371803 158.517329,27.5848374 L158.517329,27.5848374 C158.517329,27.5848374 158.521901,27.5916945 158.524948,27.5931422 C160.286472,28.9675421 162.091425,30.5309707 163.664758,31.9580182 L163.526091,31.9878087 C165.788948,34.0009134 168.28571,36.258361 169.791234,37.7324181 C170.562281,38.3848371 171.032377,38.7901705 171.032377,38.7901705 C171.672377,39.4324562 172.552377,40.2818276 173.998472,42.0541704 C177.297519,46.1030084 174.467043,47.9336369 173.998472,48.3208369 C173.687615,48.5714274 170.700948,49.5672369 168.674281,50.2262083 C167.951996,50.5669321 166.934853,51.0401511 165.541329,51.6806844 C164.267424,52.2687225 153.944377,57.0297891 151.465139,58.4767985 C151.396568,58.5184747 151.327234,58.560989 151.257901,58.6032747 C151.252568,58.6053319 151.248758,58.6079985 151.245711,58.6101319 C151.243425,58.6101319 151.243425,58.6101319 151.243425,58.6101319 C150.006091,59.3628176 148.97752,60.026208 148.120377,60.626208 C148.118853,60.6288747 148.115806,60.6306271 148.109711,60.6306271 C143.527615,63.5145889 141.31352,76.1494076 141.31352,76.1494076 L132.971425,82.4601884 C130.778663,84.2270455 128.209521,86.1752359 126.043425,87.7851407 C125.786664,90.9843787 125.163425,95.2937119 123.70133,99.5222832 C158.485329,93.7988548 183.846091,76.0526457 183.846091,55.0396177 C183.846091,30.9372183 150.484568,11.1261712 107.792759,8.83809502" id="path18" fill="#FBCB07"></path>
                        <path d="M125.747806,104.436569 C125.747806,104.436569 122.743616,104.911997 121.219806,105.11314 C117.95733,111.592378 117.191616,113.292188 117.028569,113.67695 L116.94933,113.908569 L116.392378,113.747045 L116.393902,113.740188 C111.273902,112.306283 107.698283,108.467807 106.090664,106.405331 C106.088378,106.403045 106.085331,106.398474 106.082283,106.396188 C106.079997,106.398474 106.079997,106.403045 106.079235,106.407616 C102.84114,114.564569 94.0670453,122.010664 94.0670453,122.010664 C94.0670453,122.010664 93.3546643,120.723045 85.4049502,109.642664 C84.5119979,108.390854 83.687617,107.090283 82.9371408,105.761521 C82.8060932,105.749331 82.6742836,105.734854 82.5409503,105.72114 C78.751998,105.459045 74.0214077,104.663616 69.8127983,103.833902 C66.2470079,103.17714 62.7699032,102.406093 59.4107414,101.52914 C59.2886842,101.499426 59.2199604,101.480378 59.2199604,101.480378 C27.650285,93.1832358 5.83392747,75.4524172 5.83392747,54.907732 C5.83392747,37.6562276 21.2202661,22.3824756 44.8473132,13.0178282 C44.8473132,13.0178282 44.8511989,13.0172949 44.853256,13.0154663 C47.5625131,11.9419426 50.3815606,10.9470473 53.2972939,10.0342093 C58.6327604,8.24464741 65.4955412,6.12410651 70.8012173,5.10327606 L57.6946271,30.5030088 C47.5702083,36.1791991 30.9142849,34.0669706 30.9142849,34.0669706 C40.3532942,49.8446464 54.2473129,56.5678462 61.2303223,59.0844938 C62.6068556,59.6351223 63.7130651,60.0118842 64.4565317,60.2473128 L64.4565317,60.2482271 L66.0124936,60.7663985 C66.0124936,60.7663985 68.0657507,56.3315795 70.459503,52.4238463 C72.3541315,49.775313 74.1023981,47.7636559 74.7267791,47.0651417 C74.8160743,47.0026655 74.9050648,46.944075 74.9916934,46.892875 C76.5828552,57.8181319 84.6300931,63.9196174 89.9763787,66.8199602 C86.3154264,67.3875031 83.3386646,67.4672745 83.3386646,67.4672745 C86.7139026,68.9464364 89.7584739,69.9565697 92.3283786,70.6493697 C90.8853311,71.4104363 88.9813311,72.3574077 87.7119978,72.7910839 C87.7119978,72.7910839 90.3756168,73.3657886 93.1588548,73.5484934 C92.2879977,77.0041886 91.9321882,81.8270456 94.8243786,85.8636169 C94.8243786,85.8636169 98.5249499,87.0849502 105.03695,86.5889502 C102.376378,88.846474 98.1569499,91.3409501 92.285712,91.6784739 C87.7318073,102.722283 94.6819024,111.266283 96.2834262,113.026283 C97.6769499,111.699045 100.006855,109.313521 101.96114,106.52114 C102.28495,106.053331 102.603426,105.575616 102.902093,105.087997 L102.902093,105.107045 C102.902093,105.107045 102.970664,104.994283 103.087997,104.781712 C103.739426,103.686093 104.301712,102.55314 104.702474,101.419426 C104.817521,101.091045 104.925712,100.762664 105.012569,100.434283 C105.366093,99.4659023 105.72495,98.3596166 106.053331,97.1359976 L106.053331,97.1337119 C106.510474,95.4430452 106.913521,93.5276167 107.171045,91.4201882 C107.501712,89.6883787 107.834664,87.8270454 108.089902,86.2476169 C108.641521,86.1683788 109.205331,86.0746645 109.78514,85.9695217 C110.211807,85.8895217 122.397711,83.5329503 136.563044,72.7678458 C136.83352,70.8874649 137.81333,65.2752746 140.380187,61.2187413 C137.939806,61.073827 135.888759,60.8235413 135.888759,60.8235413 L144.969901,57.1443795 C146.358092,56.640151 147.979425,55.9815605 149.682282,55.2482272 C149.738663,55.2223224 151.659425,54.3407986 154.263615,53.1993891 L154.260568,53.1943606 C154.296377,53.1824749 154.324568,53.1708177 154.354282,53.1592368 C157.778282,51.6607225 162.346663,49.7318083 165.468186,48.6902083 C165.779043,48.5592369 166.072377,48.438094 166.339805,48.3247226 L165.237329,45.9854465 C165.520758,43.1931418 167.092567,40.7854466 167.593901,40.0815228 L160.073901,33.0270468 L155.257901,28.8410659 C155.065901,28.7589326 154.896758,28.697904 154.742091,28.6598088 C154.347425,28.569066 153.28533,28.6696374 151.703615,28.8830469 L146.530282,29.6463993 L146.532568,29.6586659 C143.683044,30.1484945 140.131044,30.7297516 136.233901,31.1678468 L136.232378,31.1678468 C132.790854,31.5550468 129.078092,31.8294849 125.343235,31.8294849 C124.552378,31.8294849 123.759997,31.8178278 122.969902,31.7928373 C122.966092,31.7928373 122.963045,31.7928373 122.960759,31.7928373 C113.936759,32.1562659 102.192759,30.3628183 96.9744738,29.4574469 C90.3078073,37.0086086 92.1104739,53.5273891 92.1104739,53.5273891 C87.8552359,47.9032369 86.6506645,41.6312371 86.6232359,36.4009134 C86.6247597,36.2285705 86.6719978,34.0473134 86.9599978,31.1970278 C87.3089502,28.6553898 87.8270454,26.7047612 88.1348549,25.7059803 L88.8853311,22.0351233 C98.4114261,25.9595422 108.761902,26.5500184 108.761902,26.5500184 C96.4236166,21.9839233 91.3569501,11.4207997 89.5954263,6.40774079 C89.2975216,5.47440748 89.0232359,4.5568456 88.7794264,3.67172562 C92.3078072,3.44851039 95.8864738,3.32797706 99.5215213,3.32797706 C151.267806,3.32797706 193.211424,26.4214089 193.211424,54.907732 C193.211424,78.3832361 164.726853,98.1912356 125.747806,104.436569" id="path20" fill="#231F20"></path>
                        <path d="M107.792759,8.83809502 C108.040378,23.0895994 118.731426,27.0148565 118.733711,27.0148565 C126.323044,28.0160755 136.479235,27.0636946 144.00152,26.3868946 L144.00152,26.3868946 L144.00152,26.3868946 C144.559234,26.3369136 145.106282,26.2880755 145.63352,26.2407612 L145.638092,26.2588946 L145.868187,26.2431232 L145.868187,26.2309327 C146.524187,26.1845327 147.15352,26.1372184 147.763044,26.0952374 L147.775996,26.0952374 L147.775996,26.0952374 C151.498663,25.8368755 154.268187,25.7255613 155.379044,26.0131041 C156.076187,26.193447 156.66971,26.3839231 157.190853,26.578285 C157.62971,26.8967612 158.070853,27.2371803 158.517329,27.5848374 L158.517329,27.5848374 C158.517329,27.5848374 158.521901,27.5916945 158.524948,27.5931422 C160.286472,28.9675421 163.526091,31.9878087 163.526091,31.9878087 C165.788948,34.0009134 168.28571,36.258361 169.791234,37.7324181 C170.562281,38.3848371 171.032377,38.7901705 171.032377,38.7901705 C171.672377,39.4324562 172.552377,40.2818276 173.998472,42.0541704 C177.297519,46.1030084 174.467043,47.9336369 173.998472,48.3208369 C173.687615,48.5714274 170.700948,49.5672369 168.674281,50.2262083 C167.951996,50.5669321 166.934853,51.0401511 165.541329,51.6806844 C164.267424,52.2687225 153.944377,57.0297891 151.465139,58.4767985 C151.396568,58.5184747 151.327234,58.560989 151.257901,58.6032747 C151.252568,58.6053319 151.248758,58.6079985 151.245711,58.6101319 C151.243425,58.6101319 151.243425,58.6101319 151.243425,58.6101319 C150.006091,59.3628176 148.97752,60.026208 148.120377,60.626208 C148.118853,60.6288747 148.115806,60.6306271 148.109711,60.6306271 C143.527615,63.5145889 141.31352,76.1494076 141.31352,76.1494076 L132.971425,82.4601884 C130.778663,84.2270455 128.209521,86.1752359 126.043425,87.7851407 C125.786664,90.9843787 125.163425,95.2937119 123.70133,99.5222832 C158.485329,93.7988548 183.846091,76.0526457 183.846091,55.0396177 C183.846091,30.9372183 150.484568,11.1261712 107.792759,8.83809502" id="path22" fill="#FBCB07"></path>
                        <path d="M57.5606843,95.3112357 C57.5583224,95.3112357 57.55657,95.3112357 57.5520748,95.3097119 C36.6841896,88.7047597 21.4351233,77.3226647 16.7279996,63.8752746 C17.3359996,64.4240746 17.9497138,64.9592365 18.5667043,65.4872365 C18.7532948,65.6467031 18.9407995,65.8029698 19.1279995,65.9606841 C19.5762281,66.3383602 20.0268185,66.7110079 20.4791614,67.0779412 C20.6758852,67.237484 20.8723042,67.3973316 21.0699423,67.5547412 C21.5979423,67.9759221 22.1279994,68.389865 22.6607232,68.7970269 C22.7612947,68.8741316 22.8616375,68.9535983 22.9628185,69.0303221 C23.5952756,69.5097887 24.2309327,69.9776744 24.8690279,70.4371792 C25.0428946,70.5625125 25.2172946,70.6841887 25.3913898,70.8079982 C25.8687232,71.1473506 26.347047,71.4818268 26.8265136,71.8104363 C27.0318469,71.9508553 27.2371803,72.0910458 27.4431231,72.2300934 C27.9425517,72.5667029 28.4434279,72.8972934 28.9452183,73.2229315 C29.0964564,73.321141 29.2473136,73.4220172 29.3987802,73.5190839 C30.0449516,73.933941 30.6922659,74.3392743 31.3404945,74.7353886 C31.4886849,74.8265124 31.6371802,74.9136743 31.7857516,75.0035791 C32.2934849,75.3103981 32.8012182,75.6124933 33.3095611,75.9086457 C33.5220563,76.0324552 33.7342468,76.1544362 33.946742,76.2765695 C34.419961,76.5478076 34.8931801,76.8137124 35.3663991,77.0765695 C35.5571801,77.1824743 35.7473515,77.2891409 35.9378277,77.3935219 C36.5806467,77.74476 37.2235419,78.0891409 37.8651419,78.4236171 C37.9791991,78.4830457 38.0925705,78.5394266 38.2065514,78.5988552 C38.7416371,78.8754266 39.2764943,79.1466647 39.8101323,79.4125694 C40.0368752,79.5253313 40.2624752,79.6358075 40.4886847,79.7462837 C40.9247228,79.959617 41.3601513,80.1699028 41.7949704,80.3763789 C42.0223228,80.4838075 42.2491418,80.591998 42.4761894,80.6979027 C43.0044942,80.9447599 43.5315799,81.1855218 44.0571418,81.4217123 C44.2145513,81.4925694 44.372037,81.5641884 44.528837,81.6342837 C45.0955417,81.8857122 45.6595036,82.1302837 46.2220179,82.3702837 C46.4738274,82.4777122 46.7244179,82.5813313 46.9753131,82.6864741 C47.3544369,82.8449503 47.7327226,83.0019027 48.110094,83.1550455 C48.3797321,83.2647598 48.6488369,83.3744741 48.9169512,83.4819027 C49.2952369,83.6319979 49.6711607,83.7790455 50.0463987,83.9245693 C50.2913511,84.0190455 50.5372178,84.1173312 50.7809511,84.2095217 C51.3353892,84.4213312 51.8866273,84.6262836 52.434513,84.8266645 C52.7359987,84.9363788 53.0342082,85.0422836 53.333332,85.1489503 C53.6240748,85.2525693 53.9142844,85.3561883 54.2029701,85.4567598 C54.5238082,85.5687598 54.8428939,85.679236 55.1606843,85.7874264 C55.4148558,85.8735217 55.66697,85.9580931 55.9187796,86.0419026 C56.2526462,86.1531407 56.5865891,86.2659026 56.9166462,86.3725693 C56.9419414,86.3809502 56.9663986,86.3885693 56.9916938,86.3969502 C57.8467033,86.6742835 58.6866271,86.9363788 59.5160366,87.1870454 C59.6672747,87.2327597 59.8196556,87.2792359 59.970208,87.3241883 C60.352989,87.4392359 60.731808,87.550474 61.1086461,87.6594264 C61.2363413,87.6959978 61.3628175,87.7325692 61.4895985,87.7683788 C63.2889889,88.2841883 65.0131031,88.7382835 66.6485317,89.1375216 C64.8124936,90.3375216 63.1136746,90.8091406 63.1136746,90.8091406 C68.6624745,92.9729501 73.7714267,93.8735215 77.9817123,94.1577119 C78.280379,95.0979024 78.6095218,96.068569 78.9714266,97.0613309 C79.0087599,97.1619023 79.0460933,97.2624738 79.0834266,97.3630452 C79.2228552,97.740188 79.3676171,98.1188547 79.5169504,98.4998071 C79.5664742,98.6278071 79.615998,98.7542832 79.6662837,98.8822832 C79.8582837,99.363807 80.055617,99.8468546 80.263617,100.333712 C80.263617,100.333712 71.1681506,98.8990451 63.6470079,97.0613309 C61.5696747,96.5219023 59.5378271,95.940569 57.5606843,95.3112357" id="path24" fill="#FBCB07"></path>
                        <path d="M176.856377,10.5889521 C175.487234,10.5889521 174.372567,11.7030092 174.372567,13.0726092 C174.372567,14.4419806 175.487234,15.556571 176.856377,15.556571 C178.226281,15.556571 179.340186,14.4419806 179.340186,13.0726092 C179.340186,11.7030092 178.226281,10.5889521 176.856377,10.5889521 L176.856377,10.5889521 Z M176.856377,16.2515044 C175.103234,16.2515044 173.676948,14.8259044 173.676948,13.0726092 C173.676948,11.3196188 175.103234,9.89348547 176.856377,9.89348547 C178.609519,9.89348547 180.035805,11.3196188 180.035805,13.0726092 C180.035805,14.8259044 178.609519,16.2515044 176.856377,16.2515044 L176.856377,16.2515044 Z" id="path26" fill="#231F20"></path>
                        <path d="M176.387805,14.1279996 L177.161138,14.1279996 C177.247234,14.1279996 177.359996,14.1151996 177.414091,14.0532568 C177.465138,13.9970282 177.489519,13.9208377 177.489519,13.8202663 C177.489519,13.7288378 177.472757,13.6791616 177.457519,13.6532568 C177.436948,13.6137139 177.409519,13.5839235 177.375234,13.5619044 L177.374472,13.5619044 C177.334853,13.5359997 177.288377,13.5193139 177.231996,13.5100949 C177.159615,13.4979044 177.084948,13.4925711 177.00571,13.4925711 L176.387805,13.4925711 L176.387805,14.1279996 Z M178.259805,11.9565711 C178.242281,12.0112759 178.229329,12.069333 178.219424,12.1294473 L178.219424,12.1303616 C178.209519,12.1943616 178.204186,12.2588949 178.201138,12.3238092 C178.198091,12.3999997 178.194281,12.4746664 178.188186,12.5562664 C178.178281,12.6339044 178.166091,12.7092568 178.149329,12.7809521 C178.130281,12.8639997 178.099805,12.9425521 178.058662,13.0118854 C178.031996,13.0574473 177.999234,13.1002663 177.960377,13.1383616 C178.019043,13.1901711 178.070091,13.2493711 178.110472,13.3181711 C178.207996,13.4803806 178.258281,13.6702473 178.258281,13.8818282 C178.258281,14.1753139 178.156948,14.4121901 177.958091,14.5851425 C177.766091,14.7511615 177.505519,14.835733 177.18171,14.835733 L175.619043,14.835733 L175.619043,11.5389711 L176.387805,11.5389711 L176.387805,12.7839235 L177.145138,12.7839235 C177.230472,12.7839235 177.271615,12.7702092 177.288377,12.7619044 C177.318853,12.7467425 177.342472,12.7276949 177.359234,12.7038473 C177.379805,12.6758854 177.395043,12.6431235 177.40571,12.6026664 C177.420186,12.5446092 177.433138,12.4830473 177.443043,12.4112759 C177.455996,12.3506283 177.462853,12.2880759 177.465138,12.2246854 L177.473519,12.0166854 C177.476567,11.9428568 177.483424,11.8764949 177.494853,11.8178283 C177.510091,11.7309711 177.544377,11.6580569 177.596948,11.600914 L177.653329,11.5389711 L178.576757,11.5389711 L178.316186,11.8515045 C178.291805,11.8812188 178.272757,11.9160378 178.259805,11.9565711 L178.259805,11.9565711 Z" id="path28" fill="#231F20"></path>
                    </g>
                </g>
            </g>
        </g>
    </g>
</svg>