<?xml version="1.0" encoding="UTF-8"?>
<svg width="200px" height="200px" viewBox="0 0 200 200" version="1.1" xmlns="http://www.w3.org/2000/svg" xmlns:xlink="http://www.w3.org/1999/xlink">
    <!-- Generator: Sketch 54.1 (76490) - https://sketchapp.com -->
    <title>minn-st-mankato</title>
    <desc>Created with Sketch.</desc>
    <g id="minn-st-mankato" stroke="none" stroke-width="1" fill="none" fill-rule="evenodd">
        <g id="minn-st-mankato_BGL">
            <g id="minn-st-mankato" transform="translate(0.000000, 27.000000)">
                <path d="M1.83484264,4.81138267 C1.83484264,3.31141294 1.83484264,1.51144926 1.83484264,0.0114795324 C3.03757699,2.4114311 3.93962775,4.81138267 5.74372927,6.61134634 C6.34509645,7.21133423 6.94646362,7.81132213 7.84851438,7.81132213 C9.95329949,8.41131002 11.757401,7.51132818 13.8621861,7.51132818 C14.7642369,7.51132818 15.9669712,8.11131607 16.5683384,9.01129791 C17.1697056,9.91127975 17.7710728,10.8112616 18.3724399,11.7112434 C20.7779086,15.3111708 22.5820102,18.9110981 25.588846,21.9110376 C26.1902132,22.8110194 27.3929475,23.4110073 28.2949983,24.0109952 C28.5956819,24.6109831 28.8963655,24.6109831 29.4977327,24.910977 C32.5045685,26.4109468 36.1127716,27.0109347 39.7209746,27.0109347 C45.1332792,27.0109347 50.2449002,27.0109347 55.6572047,27.0109347 C59.2654078,27.0109347 63.1742944,27.0109347 66.7824975,27.0109347 C67.6845482,27.0109347 68.586599,26.4109468 69.1879662,26.1109528 C71.5934349,24.910977 74.2995871,24.3109891 76.7050558,24.0109952 C92.9419695,24.0109952 108.8782,24.0109952 125.115113,24.0109952 C128.121949,24.3109891 131.429469,25.5109649 134.135621,26.7109407 C135.639039,27.0109347 137.44314,26.7109407 138.946558,26.7109407 C141.953394,26.7109407 144.96023,26.7109407 147.967066,26.7109407 C150.673218,26.7109407 153.680054,26.7109407 156.386206,26.7109407 C158.190308,26.7109407 159.693726,26.7109407 161.497827,26.7109407 C165.10603,27.0109347 168.714234,26.7109407 171.721069,24.910977 C175.629956,23.1110134 178.336108,19.511086 180.741577,16.2111526 C182.244995,13.811201 183.748413,11.1112555 185.251831,8.71130396 C185.853198,7.81132213 186.755249,7.51132818 187.657299,7.51132818 C188.55935,7.21133423 189.762085,7.81132213 190.664135,7.81132213 C192.468237,8.11131607 194.272338,8.11131607 195.775756,6.91134029 C196.978491,6.01135845 198.181225,4.21139477 198.782592,2.71142505 C199.383959,1.81144321 199.383959,0.91146137 199.985327,0.311473478 C199.684643,4.21139477 199.985327,7.81132213 199.684643,11.7112434 C199.684643,13.811201 198.782592,15.9111587 197.579858,18.0111163 C196.07644,19.81108 193.670971,19.511086 191.566186,19.511086 C190.363452,25.5109649 189.461401,31.5108439 186.755249,36.9107349 C186.454565,37.8107167 185.552514,38.7106986 185.251831,39.6106804 C182.846362,42.9106138 179.839526,45.6105593 176.532007,47.7105169 C173.525171,49.2104867 170.217651,50.4104624 166.910132,50.4104624 C163.602613,50.4104624 160.295093,50.4104624 156.987574,50.4104624 C158.791675,51.9104322 160.89646,53.110408 162.700562,54.9103716 C166.008081,57.0103293 169.014917,59.1102869 172.62312,60.6102566 C173.224487,60.9102505 173.825854,60.9102505 174.427222,61.2102445 C173.224487,61.8102324 171.721069,62.1102263 170.518335,63.0102082 C165.406714,64.8101718 160.595777,67.2101234 155.484156,68.1101052 C152.47732,68.7100931 149.470484,69.0100871 146.463648,68.7100931 C144.659547,68.7100931 142.855445,68.1101052 141.051343,67.8101113 C140.75066,68.4100992 140.449976,69.0100871 140.149293,69.9100689 C139.848609,70.5100568 139.247242,71.1100447 139.247242,72.0100265 C139.247242,73.5099963 139.247242,75.3099599 139.247242,76.8099297 C139.247242,78.0099055 138.946558,79.2098812 138.645875,80.409857 C137.743824,82.8098086 136.240406,84.9097662 134.436305,87.0097238 C133.534254,88.2096996 132.632203,89.1096815 131.730152,90.0096633 C131.128785,94.2095785 130.527418,98.7094877 129.926051,102.909403 C129.926051,103.509391 129.926051,103.809385 129.926051,104.409373 C131.429469,106.809324 132.331519,109.809264 132.632203,112.809203 C131.730152,115.209155 130.527418,117.9091 129.926051,120.309052 C129.625367,121.209034 129.324684,122.409009 128.723316,123.308991 C128.121949,124.208973 127.520582,124.508967 126.618531,125.108955 C127.821266,126.608925 128.121949,128.708882 127.821266,130.80884 C127.520582,132.608804 126.017164,134.408767 124.213063,134.708761 C123.010328,135.008755 121.807594,134.708761 120.905543,134.708761 C120.304176,135.908737 120.304176,137.408707 119.702809,138.308689 C118.800758,139.808658 117.29734,140.70864 115.493239,140.70864 C110.982985,140.70864 106.172047,140.70864 101.661794,140.70864 C101.36111,140.70864 101.060426,141.008634 100.759743,141.008634 C98.0535905,143.408586 94.7460711,145.208549 91.137868,145.808537 C88.7323993,146.408525 86.3269306,145.808537 84.2221455,144.908555 C81.2153096,143.70858 78.2084738,141.908616 75.8030051,139.808658 C72.7961692,137.108713 70.3907005,133.508785 67.9852318,130.208852 C65.8804467,126.608925 63.7756616,122.709003 61.9715601,118.809082 C60.1674585,115.209155 58.0626734,111.609227 55.9578883,108.309294 C52.3496853,102.909403 49.0421658,97.5095119 45.1332792,92.4096149 C41.2243926,87.0097238 36.4134552,82.2098207 31.0011506,78.3098994 C24.9874788,74.1099842 18.0717563,71.1100447 10.5546667,70.8100508 C7.24714721,70.5100568 3.63894416,70.8100508 0.331424704,71.1100447 C2.7368934,68.4100992 5.1423621,65.7101537 7.5478308,63.0102082 C8.75056514,61.5102384 10.2539831,60.6102566 11.4567174,59.1102869 C15.0649205,56.1103474 18.6731235,53.110408 22.5820102,50.7104564 C24.0854281,49.8104745 25.588846,49.2104867 27.092264,48.0105109 C23.7847445,46.2105472 20.477225,43.8105956 18.0717563,40.8106562 C15.9669712,38.1107107 14.7642369,34.8107773 13.5615025,31.5108439 C12.0580846,27.3109286 11.1560338,23.4110073 10.5546667,19.511086 C9.65261591,19.511086 8.44988156,19.511086 7.5478308,19.511086 C6.04441286,19.2110921 4.54099492,18.6111042 3.93962775,17.1111344 C1.83484264,13.5112071 1.83484264,9.01129791 1.83484264,4.81138267" id="Shape" fill="#000000" fill-rule="nonzero"></path>
                <path d="M3.93962775,8.11131607 C3.93962775,9.6112858 4.24031134,10.8112616 4.54099492,12.0112374 C5.1423621,13.5112071 5.44304569,15.0111768 6.34509645,16.2111526 C8.14919797,17.7111223 10.5546667,16.5111466 12.3587682,17.1111344 C13.5615025,20.7110618 14.1628697,24.3109891 15.0649205,27.9109165 C15.9669712,31.5108439 17.1697056,35.1107712 19.2744907,38.1107107 C21.6799594,41.4106441 24.9874788,44.1105896 28.5956819,45.6105593 C30.700467,46.5105411 32.5045685,47.110529 34.6093536,47.110529 C38.8189239,47.110529 43.3291777,47.110529 47.5387479,47.110529 C48.1401151,47.110529 48.7414822,46.5105411 49.3428494,46.2105472 C51.1469509,45.3105654 53.251736,44.4105835 55.0558376,43.5106017 C55.6572047,43.2106077 56.5592555,43.2106077 57.1606227,42.6106198 C56.2585719,42.6106198 55.3565212,42.6106198 54.4544704,42.6106198 C47.8394315,42.6106198 41.2243926,42.6106198 34.6093536,42.6106198 C34.0079865,42.6106198 33.1059357,42.6106198 32.5045685,42.3106259 C28.8963655,40.5106622 25.8895296,37.5107228 22.8826937,34.8107773 C22.2813266,33.9107954 21.3792758,33.3108075 21.0785922,32.4108257 C19.8758579,29.7108802 17.4703892,26.7109407 16.5683384,23.1110134 C15.9669712,21.0110557 15.0649205,18.9110981 14.4635533,16.8111405 C14.1628697,15.9111587 14.1628697,15.0111768 13.260819,14.7111829 C12.3587682,14.111195 11.4567174,14.4111889 10.5546667,14.7111829 C9.05124873,14.7111829 7.24714721,14.7111829 6.34509645,13.5112071 C5.44304569,11.7112434 4.84167851,9.91127975 3.93962775,8.11131607 C4.24031134,8.11131607 3.93962775,8.11131607 3.93962775,8.11131607 L3.93962775,8.11131607 Z M198.481909,8.41131002 C198.181225,9.31129185 197.880541,10.5112676 197.279174,11.4112495 C196.978491,12.3112313 196.677807,13.5112071 195.775756,14.111195 C194.272338,15.0111768 192.468237,15.0111768 190.664135,14.7111829 C189.762085,14.4111889 188.55935,15.3111708 188.55935,16.2111526 C187.957983,18.6111042 187.055932,21.0110557 186.454565,23.1110134 C185.552514,26.7109407 183.147046,29.7108802 180.741577,32.7108196 C179.839526,34.5107833 178.336108,35.7107591 176.83269,37.2107288 C175.028589,38.7106986 173.525171,40.5106622 171.420386,41.710638 C170.217651,42.3106259 169.315601,43.2106077 167.812183,43.2106077 C159.994409,43.2106077 152.47732,43.2106077 144.659547,43.2106077 C145.561597,43.5106017 146.764332,43.8105956 147.666382,44.1105896 C149.771168,45.0105714 151.875953,45.9105533 153.680054,47.110529 C153.980738,47.410523 154.582105,47.410523 154.882788,47.410523 C159.092359,47.410523 163.301929,47.410523 167.511499,47.410523 C169.616284,47.410523 171.420386,46.8105351 173.224487,45.9105533 C178.636792,43.8105956 183.147046,39.3106864 185.251831,33.9107954 C186.755249,30.610862 187.657299,27.0109347 188.258667,23.4110073 C188.860034,21.3110497 188.860034,19.2110921 190.062768,17.4111284 C191.566186,17.1111344 193.370288,17.7111223 194.873706,17.1111344 C196.07644,16.8111405 196.677807,15.3111708 196.978491,14.4111889 C197.880541,12.3112313 198.481909,10.2112737 198.481909,8.41131002 L198.481909,8.41131002 Z M93.5433367,27.9109165 C93.5433367,28.2109104 93.5433367,28.5109044 93.8440203,28.8108983 C88.7323993,28.8108983 83.9214619,28.8108983 78.8098409,28.8108983 C77.6071066,28.8108983 76.4043723,29.1108923 75.2016379,29.4108862 C73.0968528,30.0108741 70.9920677,30.910856 70.0900169,32.7108196 C68.8872826,35.7107591 69.4886497,39.3106864 70.6913841,42.3106259 C72.194802,42.3106259 73.3975364,42.3106259 74.9009543,42.3106259 C75.2016379,42.3106259 75.5023215,42.6106198 75.8030051,42.6106198 C75.8030051,42.6106198 75.5023215,42.3106259 75.2016379,42.3106259 C79.4112081,42.3106259 83.6207783,42.3106259 88.1310321,42.3106259 C89.3337665,49.2104867 91.7392352,56.1103474 94.1447039,62.7102142 C95.6481218,66.3101416 96.8508562,69.9100689 98.3542741,73.5099963 C98.6549577,74.4099781 98.9556413,75.3099599 99.857692,75.9099478 C101.060426,76.8099297 102.864528,77.1099236 104.367946,76.2099418 C105.871364,70.2100629 107.675465,64.5101779 109.178883,58.8102929 C110.682301,53.4104019 112.185719,48.0105109 113.388453,42.6106198 C114.290504,42.6106198 115.493239,42.6106198 116.395289,42.6106198 C120.60486,42.6106198 125.115113,42.6106198 129.324684,42.6106198 C130.527418,42.3106259 131.730152,42.6106198 132.932887,42.6106198 C132.632203,42.6106198 132.331519,42.6106198 132.030836,42.6106198 C133.23357,39.6106804 133.534254,36.310747 132.632203,33.0108136 C131.429469,30.910856 129.024,30.0108741 126.618531,29.4108862 C124.513746,28.8108983 122.709645,29.1108923 120.60486,29.1108923 C116.996657,29.1108923 113.388453,29.1108923 109.479567,29.1108923 L109.479567,29.1108923 C108.577516,33.9107954 107.374782,38.7106986 106.472731,43.5106017 C105.871364,38.7106986 104.969313,33.9107954 104.367946,29.1108923 C102.563844,30.0108741 100.459059,30.0108741 98.6549577,29.1108923 C98.6549577,30.910856 98.3542741,32.7108196 98.0535905,34.5107833 C97.7529069,36.010753 97.7529069,37.5107228 97.4522234,39.0106925 C97.1515398,40.5106622 97.1515398,41.710638 96.8508562,43.2106077 C95.9488054,38.1107107 94.7460711,33.0108136 93.5433367,27.9109165 L93.5433367,27.9109165 Z M65.5797631,45.9105533 C62.8736108,45.9105533 60.1674585,45.9105533 57.4613063,46.5105411 C56.2585719,46.8105351 54.755154,47.110529 53.5524196,47.410523 C51.7483181,48.6104988 49.643533,49.8104745 48.1401151,51.6104382 C44.8325956,51.6104382 41.5250761,51.6104382 38.5182403,51.6104382 C36.4134552,52.5104201 34.3086701,53.110408 32.5045685,54.0103898 C29.7984162,55.2103656 27.3929475,56.4103414 24.9874788,57.6103171 C20.477225,60.0102687 16.2676548,62.4102203 12.3587682,65.1101658 C11.1560338,66.0101476 9.95329949,67.2101234 8.14919797,67.2101234 C8.14919797,66.9101295 8.14919797,66.9101295 8.14919797,66.6101355 C8.14919797,66.6101355 7.84851438,66.6101355 7.5478308,66.6101355 C7.5478308,66.9101295 7.5478308,67.5101174 7.24714721,67.8101113 C8.14919797,67.2101234 9.05124873,67.2101234 10.2539831,67.2101234 C12.0580846,67.2101234 13.8621861,67.2101234 15.3656041,67.2101234 C15.9669712,67.2101234 16.5683384,66.9101295 17.1697056,66.6101355 C22.5820102,63.3102021 28.5956819,60.6102566 34.6093536,57.6103171 C38.5182403,55.8103535 42.7278105,53.7103958 46.9373807,52.810414 C44.8325956,55.5103595 41.8257597,57.3103232 38.8189239,58.8102929 C37.6161895,59.4102808 36.1127716,59.7102748 34.9100372,60.0102687 C39.1196074,60.9102505 43.9305448,60.6102566 47.8394315,58.510299 C48.7414822,58.210305 49.643533,57.6103171 50.5455838,57.0103293 C52.3496853,56.1103474 54.4544704,55.5103595 56.2585719,54.9103716 C58.0626734,54.3103837 59.866775,54.0103898 61.6708765,53.7103958 C59.5660914,53.110408 57.1606227,52.810414 55.0558376,52.5104201 C58.9647242,51.0104503 62.8736108,50.4104624 67.083181,50.1104685 C67.6845482,51.9104322 68.586599,53.4104019 70.0900169,54.6103777 C71.2927513,55.8103535 72.7961692,57.0103293 74.2995871,57.6103171 C75.5023215,58.210305 77.0057394,58.210305 78.2084738,58.210305 C79.1105245,58.210305 79.7118917,58.210305 80.6139425,58.210305 C81.2153096,59.4102808 81.5159932,60.6102566 82.1173604,61.5102384 C84.5228291,66.3101416 86.9282978,71.1100447 89.0330829,75.9099478 C89.9351337,77.4099176 91.137868,78.6098934 92.641286,79.5098752 C91.7392352,79.5098752 91.137868,79.5098752 90.2358173,79.5098752 C91.4385516,79.8098691 92.641286,79.5098752 93.8440203,79.5098752 C95.3474382,79.5098752 97.1515398,79.5098752 98.6549577,79.5098752 C96.5501726,77.4099176 94.4453875,75.6099539 92.3406024,73.5099963 C91.7392352,72.9100084 91.7392352,72.3100205 91.4385516,71.7100326 C90.5365008,69.610075 89.6344501,67.5101174 88.7323993,65.7101537 C88.1310321,64.8101718 88.1310321,63.91019 87.529665,63.0102082 C87.8303486,62.1102263 88.7323993,61.2102445 88.7323993,60.0102687 C85.7255635,54.9103716 81.2153096,50.1104685 75.5023215,48.3105048 C72.7961692,46.2105472 69.1879662,45.9105533 65.5797631,45.9105533 L65.5797631,45.9105533 Z M140.149293,45.9105533 C137.743824,45.9105533 135.338355,45.9105533 132.932887,46.5105411 C128.121949,47.110529 123.611695,49.2104867 120.003492,52.5104201 C117.898707,54.6103777 116.094606,57.0103293 114.591188,59.4102808 C114.591188,60.6102566 115.192555,61.5102384 116.094606,62.4102203 C114.591188,65.7101537 113.08777,69.310081 111.584352,72.6100144 C111.283668,73.2100023 110.682301,73.5099963 110.381618,73.8099902 C109.178883,75.009966 107.976149,76.2099418 106.773415,77.1099236 C106.172047,77.7099115 105.269997,78.3098994 104.969313,78.9098873 C106.773415,78.9098873 108.577516,78.9098873 110.381618,78.9098873 C110.982985,78.9098873 111.885036,78.9098873 112.486403,78.6098934 C114.591188,77.7099115 115.793922,75.6099539 116.695973,73.5099963 C117.898707,70.8100508 119.101442,68.1101052 120.60486,65.1101658 C121.50691,63.3102021 122.108277,61.5102384 123.010328,60.0102687 C123.611695,59.1102869 123.611695,58.210305 124.213063,57.6103171 C126.017164,57.6103171 128.121949,57.3103232 129.926051,56.1103474 C132.331519,54.6103777 134.736988,52.2104261 135.639039,49.5104806 C139.848609,49.8104745 143.757496,50.7104564 147.666382,51.9104322 C145.561597,52.2104261 143.156129,52.810414 141.051343,53.110408 C144.058179,53.7103958 147.065015,54.3103837 150.071851,55.5103595 C152.47732,56.4103414 154.582105,58.210305 156.987574,59.1102869 C160.295093,60.3102627 164.20398,60.6102566 167.812183,59.7102748 C166.308765,59.1102869 164.805347,58.8102929 163.301929,57.9103111 C161.197144,57.0103293 159.092359,55.8103535 157.288257,54.0103898 C155.484156,52.5104201 154.281421,50.7104564 152.47732,49.2104867 C150.973902,48.0105109 149.1698,46.8105351 147.365699,45.9105533 C144.96023,46.2105472 142.554761,45.9105533 140.149293,45.9105533 L140.149293,45.9105533 Z M30.3997834,63.0102082 C27.9943147,63.0102082 26.1902132,64.210184 24.3861117,65.7101537 C23.1833773,66.6101355 21.980643,67.2101234 21.0785922,68.1101052 C24.6867953,69.0100871 27.9943147,70.5100568 31.3018342,72.6100144 C35.5114044,75.009966 38.8189239,78.3098994 42.4271269,81.6098328 C44.2312284,79.8098691 46.6366971,78.0099055 48.7414822,76.8099297 C50.2449002,75.9099478 51.7483181,75.009966 53.5524196,74.1099842 C50.2449002,73.5099963 46.9373807,72.3100205 43.9305448,71.1100447 C43.0284941,70.8100508 42.7278105,70.2100629 42.1264433,69.610075 C39.420291,67.8101113 37.6161895,65.1101658 34.6093536,63.91019 C33.1059357,63.3102021 31.9032014,63.0102082 30.3997834,63.0102082 L30.3997834,63.0102082 Z M80.0125753,69.610075 C79.4112081,70.2100629 79.4112081,70.8100508 79.1105245,71.4100387 C78.8098409,72.9100084 79.4112081,74.4099781 80.3132589,75.3099599 C81.2153096,76.2099418 82.418044,76.8099297 83.6207783,76.5099357 C83.3200948,76.2099418 83.3200948,75.9099478 83.0194112,75.6099539 C82.418044,75.3099599 81.5159932,75.6099539 80.9146261,75.009966 C80.0125753,74.1099842 80.0125753,72.6100144 80.9146261,71.7100326 C80.9146261,71.4100387 80.6139425,70.5100568 80.0125753,69.610075 L80.0125753,69.610075 Z M121.807594,69.610075 C121.206227,70.5100568 120.905543,71.1100447 120.60486,72.0100265 C121.206227,72.6100144 121.807594,73.5099963 121.50691,74.4099781 C121.206227,75.6099539 119.702809,75.9099478 118.800758,75.9099478 C118.800758,76.2099418 118.500074,76.5099357 118.500074,76.8099297 C119.101442,76.8099297 120.003492,76.8099297 120.60486,76.5099357 C122.709645,75.3099599 123.611695,72.3100205 122.709645,70.2100629 C122.108277,70.2100629 122.108277,69.610075 121.807594,69.610075 L121.807594,69.610075 Z M133.23357,74.7099721 C132.632203,75.6099539 132.030836,76.5099357 131.429469,77.4099176 C129.625367,79.5098752 127.520582,81.6098328 124.81443,82.8098086 C123.912379,83.1098025 123.010328,83.7097904 122.408961,84.0097844 C120.905543,84.6097723 120.304176,86.109742 119.402125,87.6097117 C120.003492,89.4096754 119.702809,91.2096391 118.800758,93.0096028 C121.807594,93.0096028 124.213063,94.5095725 126.618531,96.0095422 C126.919215,94.2095785 127.520582,92.7096088 128.121949,90.9096451 C128.422633,90.0096633 128.121949,88.8096875 129.024,88.5096936 C129.926051,87.9097057 130.828102,87.0097238 131.429469,86.109742 C131.730152,85.2097602 132.331519,84.3097783 132.632203,83.7097904 C131.730152,84.0097844 131.128785,84.6097723 130.226734,84.9097662 C128.723316,85.5097541 126.919215,86.4097359 125.115113,86.7097299 C126.317848,85.8097481 127.821266,85.2097602 129.024,84.0097844 C129.926051,82.5098147 131.429469,81.6098328 132.331519,80.1098631 C133.534254,78.3098994 133.23357,76.5099357 133.23357,74.7099721 L133.23357,74.7099721 Z M70.9920677,74.7099721 C70.9920677,75.9099478 70.9920677,76.8099297 71.2927513,78.0099055 C71.5934349,79.8098691 73.0968528,81.0098449 74.2995871,82.5098147 C75.8030051,84.0097844 77.6071066,85.2097602 79.1105245,86.4097359 C78.5091574,86.109742 77.9077902,86.109742 77.6071066,85.8097481 C75.5023215,85.2097602 73.69822,84.0097844 71.8941184,83.1098025 C72.7961692,85.2097602 73.9989036,87.3097178 76.1036887,88.5096936 C76.7050558,90.9096451 77.306423,93.3095967 77.9077902,95.7095483 C78.8098409,95.4095543 79.7118917,94.5095725 80.9146261,94.2095785 C82.418044,93.6095906 84.2221455,92.7096088 86.026247,92.7096088 C85.1241963,91.2096391 84.8235127,89.4096754 85.1241963,87.6097117 C85.1241963,86.7097299 84.2221455,85.8097481 83.6207783,85.2097602 C82.7187276,84.0097844 81.2153096,83.7097904 80.0125753,83.1098025 C77.306423,81.9098268 74.9009543,79.8098691 72.7961692,77.4099176 C71.8941184,76.5099357 71.5934349,75.6099539 70.9920677,74.7099721 L70.9920677,74.7099721 Z M108.8782,82.2098207 C108.577516,84.6097723 108.276832,87.0097238 107.976149,89.4096754 C107.374782,92.7096088 107.074098,96.0095422 106.472731,99.3094756 C106.172047,97.209518 105.871364,94.8095664 105.57068,92.7096088 C105.269997,90.0096633 104.668629,87.3097178 104.367946,84.6097723 C103.766579,84.9097662 103.465895,85.2097602 102.864528,85.5097541 C101.36111,86.109742 99.857692,85.8097481 98.6549577,84.6097723 C98.0535905,89.7096694 97.7529069,94.5095725 97.1515398,99.6094696 C96.249489,93.9095846 95.3474382,88.2096996 94.1447039,82.2098207 C92.641286,82.8098086 90.5365008,84.0097844 90.8371844,85.8097481 C91.137868,88.5096936 91.7392352,91.509633 91.7392352,94.2095785 C92.0399188,96.9095241 92.0399188,99.3094756 92.0399188,102.009421 C94.4453875,103.509391 97.1515398,103.809385 99.857692,104.409373 C103.465895,104.709367 106.773415,104.709367 110.381618,104.409373 C113.689137,104.109379 116.996657,103.809385 120.304176,103.209397 C120.304176,103.209397 120.60486,103.209397 120.60486,103.209397 C117.598024,105.909342 113.989821,108.0093 110.080934,109.209276 C107.374782,109.809264 104.668629,110.109258 101.962477,110.109258 C98.9556413,110.109258 95.6481218,109.809264 92.641286,108.909282 C89.0330829,107.709306 86.026247,105.609348 83.0194112,103.209397 C82.7187276,103.509391 82.418044,103.509391 82.418044,103.809385 C81.2153096,105.009361 79.7118917,106.50933 78.8098409,108.309294 C77.306423,110.709246 77.306423,113.709185 77.306423,116.409131 C77.306423,118.509088 77.9077902,120.609046 78.5091574,122.409009 C79.4112081,122.709003 80.6139425,122.709003 81.2153096,123.308991 C82.1173604,123.908979 83.3200948,124.508967 83.9214619,125.708943 C83.9214619,126.308931 83.3200948,126.908919 83.0194112,127.508907 C82.1173604,129.30887 83.3200948,132.008816 85.4248799,132.008816 C87.2289814,132.008816 89.3337665,131.708822 91.137868,131.708822 C97.4522234,131.108834 103.766579,130.508846 110.080934,130.508846 C113.989821,130.80884 117.598024,131.108834 121.206227,131.708822 C122.408961,132.008816 123.912379,131.108834 124.213063,129.608864 C124.513746,128.408888 124.513746,127.208913 123.611695,126.308931 C122.709645,125.108955 121.206227,124.808961 120.003492,124.808961 C120.905543,123.908979 121.807594,123.308991 122.709645,122.709003 C123.311012,122.409009 124.513746,122.409009 125.115113,121.809022 C125.716481,121.209034 125.716481,120.609046 126.017164,120.009058 C126.618531,117.609106 127.821266,114.909161 128.723316,112.509209 C129.024,111.609227 128.723316,111.00924 128.723316,110.109258 C128.422633,108.609288 126.919215,107.409312 126.017164,105.909342 C124.513746,103.809385 122.108277,102.309415 120.60486,100.209457 C119.402125,98.1094998 118.500074,95.7095483 117.598024,93.6095906 C117.29734,93.9095846 117.29734,94.2095785 116.996657,94.8095664 C116.094606,96.9095241 115.793922,99.3094756 115.793922,101.709427 C114.891871,99.9094635 114.290504,98.1094998 113.689137,96.3095362 C112.486403,92.7096088 111.885036,88.8096875 111.584352,84.9097662 C111.584352,83.1098025 110.080934,82.5098147 108.8782,82.2098207 L108.8782,82.2098207 Z M67.3838646,83.4097965 C67.6845482,83.7097904 67.6845482,84.0097844 67.9852318,84.3097783 C67.083181,85.2097602 66.1811303,86.109742 65.8804467,87.3097178 C64.9783959,88.8096875 63.7756616,90.3096572 63.1742944,92.1096209 C61.3701929,95.7095483 60.7688257,99.6094696 60.7688257,103.209397 C60.7688257,104.709367 61.0695093,106.209336 61.3701929,107.709306 L61.3701929,107.709306 C63.7756616,111.609227 65.5797631,115.809143 67.6845482,120.009058 C68.8872826,122.109016 70.0900169,123.908979 71.5934349,125.708943 C72.194802,126.608925 73.0968528,127.208913 73.9989036,128.108894 C74.6002707,128.708882 75.5023215,128.708882 76.4043723,128.408888 C77.306423,127.508907 77.6071066,126.308931 77.6071066,125.108955 C77.6071066,124.508967 77.9077902,123.908979 77.306423,123.608985 C76.4043723,122.709003 75.5023215,121.809022 74.9009543,120.309052 C73.9989036,117.309112 72.7961692,114.309173 71.5934349,111.609227 C71.8941184,109.809264 72.194802,108.0093 72.7961692,106.209336 C72.4954856,101.409433 72.194802,96.3095362 72.194802,91.509633 C72.194802,90.6096512 72.194802,89.7096694 71.8941184,88.8096875 C70.3907005,87.6097117 68.8872826,85.5097541 67.3838646,83.4097965 L67.3838646,83.4097965 Z M77.6071066,131.108834 C77.306423,131.108834 77.0057394,131.108834 76.7050558,131.108834 C77.0057394,131.408828 77.306423,131.408828 77.6071066,131.408828 C77.6071066,131.408828 77.6071066,131.108834 77.6071066,131.108834 L77.6071066,131.108834 Z M105.871364,133.508785 C104.969313,133.508785 104.367946,133.808779 103.766579,134.408767 C101.661794,135.608743 99.5570085,136.508725 97.7529069,137.708701 C98.9556413,137.708701 100.459059,137.708701 101.661794,137.708701 C103.165212,137.108713 104.668629,136.208731 106.172047,135.608743 C106.472731,136.508725 105.871364,137.108713 105.269997,138.008695 C109.178883,138.008695 113.08777,138.008695 116.996657,138.008695 C117.29734,137.408707 117.598024,136.508725 116.996657,135.908737 C116.395289,135.008755 115.493239,134.108773 114.290504,134.108773 C111.283668,133.508785 108.577516,133.508785 105.871364,133.508785 L105.871364,133.508785 Z" id="Shape" fill="#683B7A" fill-rule="nonzero"></path>
                <path d="M198.481909,8.11131607 C197.579858,9.01129791 196.677807,9.91127975 195.775756,10.2112737 C193.670971,11.1112555 191.566186,10.5112676 189.762085,10.2112737 C189.160717,9.91127975 188.258667,9.91127975 187.957983,10.8112616 C187.356616,12.0112374 186.755249,13.2112132 185.853198,14.111195 C184.049096,17.4111284 181.944311,20.4110679 179.238159,23.1110134 C177.434058,24.910977 175.629956,26.7109407 173.224487,27.6109226 C171.420386,28.5109044 169.315601,29.1108923 167.210816,29.4108862 C163.001245,30.0108741 159.092359,29.7108802 154.882788,29.7108802 C148.26775,29.7108802 141.652711,29.7108802 135.037672,29.7108802 C134.135621,29.7108802 133.534254,29.1108923 132.932887,28.8108983 C130.226734,27.6109226 127.520582,26.4109468 124.81443,26.1109528 C120.003492,26.1109528 115.192555,26.1109528 110.381618,26.1109528 C110.080934,27.0109347 110.080934,27.9109165 109.78025,28.8108983 C113.388453,28.8108983 116.996657,28.8108983 120.905543,28.8108983 C123.010328,28.8108983 125.115113,28.5109044 126.919215,29.1108923 C129.324684,29.7108802 131.730152,30.610862 132.932887,32.7108196 C139.547926,32.7108196 146.463648,32.7108196 153.078687,32.7108196 C157.288257,32.7108196 161.197144,32.7108196 165.406714,32.7108196 C155.484156,33.6108015 145.862281,35.1107712 135.939723,36.010753 C136.54109,37.2107288 137.44314,38.1107107 137.743824,39.3106864 C147.967066,39.3106864 158.190308,39.3106864 168.41355,39.3106864 C170.518335,38.7106986 172.322437,37.5107228 174.427222,36.6107409 C176.83269,35.1107712 178.937475,33.9107954 181.042261,32.1108317 C183.447729,29.4108862 185.552514,26.1109528 186.755249,22.5110255 C187.356616,20.1110739 188.258667,18.0111163 188.860034,15.6111647 C189.160717,14.7111829 190.062768,13.811201 190.964819,14.111195 C192.76892,14.4111889 194.573022,14.7111829 196.07644,13.5112071 C196.978491,12.9112192 197.279174,11.7112434 197.579858,10.8112616 C197.579858,10.5112676 197.880541,9.31129185 198.481909,8.11131607 C198.481909,8.41131002 198.481909,8.11131607 198.481909,8.11131607 L198.481909,8.11131607 Z M4.24031134,8.41131002 C4.84167851,9.91127975 5.44304569,11.7112434 6.34509645,13.2112132 C7.24714721,14.4111889 9.05124873,14.7111829 10.5546667,14.4111889 C11.4567174,14.4111889 12.6594518,13.811201 13.260819,14.4111889 C14.1628697,15.0111768 14.1628697,15.9111587 14.4635533,16.8111405 C15.0649205,18.9110981 15.9669712,21.0110557 16.5683384,23.1110134 C17.4703892,26.7109407 19.8758579,29.7108802 21.980643,32.4108257 C23.1833773,33.3108075 24.3861117,34.2107894 25.588846,35.1107712 C28.2949983,36.6107409 31.0011506,38.4107046 33.7073029,39.6106804 C34.3086701,39.9106743 35.2107208,39.9106743 35.812088,39.9106743 C45.4339628,39.9106743 55.0558376,39.9106743 64.6777124,39.9106743 C65.2790795,38.7106986 65.8804467,37.5107228 66.4818139,36.6107409 C56.8599391,35.4107651 47.2380643,34.2107894 37.3155059,33.3108075 C39.1196074,33.3108075 40.923709,33.3108075 42.4271269,33.3108075 C51.4476345,33.3108075 60.4681421,33.3108075 69.1879662,33.3108075 C70.0900169,31.2108499 72.194802,30.610862 74.2995871,30.0108741 C75.5023215,29.7108802 76.7050558,29.4108862 77.9077902,29.4108862 C83.0194112,29.4108862 87.8303486,29.4108862 92.9419695,29.4108862 C92.9419695,29.1108923 92.9419695,28.8108983 92.641286,28.5109044 C92.641286,27.9109165 92.3406024,27.3109286 92.3406024,26.7109407 C87.2289814,26.7109407 82.1173604,26.7109407 77.0057394,26.7109407 C73.69822,27.0109347 70.6913841,28.5109044 67.6845482,30.0108741 C67.3838646,30.0108741 67.083181,30.3108681 66.7824975,30.3108681 C57.4613063,30.3108681 47.8394315,30.3108681 38.2175567,30.3108681 C35.812088,30.3108681 33.7073029,30.0108741 31.3018342,29.4108862 C29.1970491,28.2109104 26.1902132,26.1109528 24.0854281,23.7110013 C22.2813266,21.9110376 20.477225,19.81108 18.9738071,17.7111223 C17.4703892,15.3111708 15.9669712,13.2112132 14.7642369,10.8112616 C14.1628697,9.91127975 13.260819,10.2112737 12.6594518,10.2112737 C10.5546667,10.8112616 8.14919797,11.1112555 6.04441286,9.91127975 C5.44304569,9.6112858 4.84167851,9.01129791 4.24031134,8.41131002 L4.24031134,8.41131002 Z M113.388453,42.6106198 C112.185719,48.0105109 110.682301,53.4104019 109.178883,58.8102929 C107.675465,64.8101718 105.871364,70.5100568 104.367946,76.2099418 C105.269997,75.6099539 105.871364,74.4099781 106.172047,73.5099963 C107.675465,70.2100629 108.8782,67.2101234 110.080934,63.91019 C112.787086,57.0103293 115.192555,49.8104745 116.395289,42.6106198 C115.192555,42.6106198 114.290504,42.6106198 113.388453,42.6106198 L113.388453,42.6106198 Z M131.128785,42.6106198 C130.527418,42.6106198 129.926051,42.6106198 129.324684,42.6106198 C128.422633,43.2106077 127.520582,43.5106017 126.618531,44.1105896 C123.311012,46.5105411 120.304176,48.9104927 117.898707,52.2104261 C116.395289,54.3103837 114.591188,56.7103353 114.591188,59.4102808 C116.094606,57.0103293 117.898707,54.6103777 120.003492,52.5104201 C123.611695,49.2104867 128.121949,47.110529 132.932887,46.5105411 C137.743824,45.6105593 142.554761,45.9105533 147.365699,46.8105351 C142.855445,44.4105835 138.044508,43.2106077 132.932887,42.9106138 C132.331519,42.6106198 131.730152,42.6106198 131.128785,42.6106198 L131.128785,42.6106198 Z M70.6913841,42.6106198 C69.1879662,42.6106198 67.9852318,42.9106138 66.4818139,42.9106138 C61.9715601,43.5106017 57.4613063,45.0105714 53.5524196,47.410523 C54.755154,47.110529 56.2585719,46.5105411 57.4613063,46.5105411 C60.1674585,45.9105533 62.8736108,45.9105533 65.5797631,45.9105533 C69.1879662,46.2105472 72.7961692,46.5105411 76.1036887,47.7105169 C81.8166768,49.5104806 86.3269306,54.3103837 89.3337665,59.4102808 C89.3337665,57.0103293 88.1310321,54.9103716 86.6276142,53.110408 C83.6207783,49.2104867 79.7118917,45.6105593 75.2016379,42.9106138 C74.9009543,42.9106138 74.6002707,42.6106198 74.2995871,42.6106198 C73.3975364,42.6106198 71.8941184,42.6106198 70.6913841,42.6106198 L70.6913841,42.6106198 Z M30.3997834,51.6104382 C29.7984162,51.6104382 29.4977327,51.9104322 28.8963655,52.2104261 C24.6867953,54.6103777 20.7779086,57.3103232 16.5683384,60.0102687 C14.1628697,61.8102324 12.0580846,63.3102021 9.65261591,65.1101658 C9.05124873,65.7101537 8.44988156,66.0101476 7.84851438,66.6101355 L7.84851438,66.6101355 C7.84851438,66.9101295 7.84851438,66.9101295 7.84851438,67.2101234 C9.65261591,67.2101234 10.5546667,66.0101476 12.0580846,65.1101658 C15.9669712,62.4102203 20.1765415,60.0102687 24.3861117,57.9103111 C26.7915804,56.4103414 29.4977327,55.5103595 31.9032014,54.3103837 C34.0079865,53.4104019 36.1127716,52.810414 37.9168731,51.9104322 C35.812088,51.6104382 33.1059357,51.6104382 30.3997834,51.6104382 L30.3997834,51.6104382 Z M80.9146261,57.6103171 C80.0125753,57.6103171 79.4112081,57.6103171 78.5091574,57.6103171 C81.5159932,63.6101961 84.2221455,69.610075 87.2289814,75.6099539 C88.1310321,77.1099236 89.3337665,78.0099055 90.8371844,78.9098873 C91.7392352,78.9098873 92.3406024,78.9098873 93.2426531,78.9098873 C91.7392352,78.0099055 90.5365008,76.8099297 89.6344501,75.3099599 C87.2289814,70.5100568 84.8235127,65.7101537 82.7187276,60.9102505 C81.8166768,60.0102687 81.5159932,58.8102929 80.9146261,57.6103171 L80.9146261,57.6103171 Z M74.9009543,66.3101416 C74.6002707,67.5101174 74.2995871,68.4100992 74.2995871,69.610075 C74.2995871,73.5099963 76.1036887,77.1099236 79.4112081,79.2098812 C81.2153096,80.409857 83.3200948,80.709851 85.1241963,80.409857 C84.8235127,80.1098631 84.8235127,79.5098752 84.5228291,79.2098812 C83.6207783,79.2098812 82.418044,79.5098752 81.5159932,79.2098812 C80.3132589,78.9098873 79.1105245,78.0099055 78.2084738,76.8099297 C76.7050558,74.7099721 76.4043723,72.0100265 77.306423,69.610075 C77.6071066,68.7100931 78.2084738,68.1101052 78.5091574,67.2101234 C77.306423,66.6101355 76.1036887,66.3101416 74.9009543,66.3101416 L74.9009543,66.3101416 Z M126.919215,66.3101416 C125.716481,66.6101355 124.213063,66.9101295 123.010328,66.9101295 C123.611695,68.1101052 124.513746,69.310081 124.513746,70.8100508 C125.115113,73.2100023 124.213063,76.2099418 122.108277,77.7099115 C120.905543,78.9098873 118.800758,79.2098812 116.996657,78.9098873 C116.695973,79.2098812 116.695973,79.8098691 116.395289,80.1098631 C118.199391,80.1098631 120.304176,80.1098631 122.108277,78.9098873 C123.912379,77.7099115 125.415797,76.2099418 126.317848,74.1099842 C127.821266,71.7100326 127.821266,69.0100871 126.919215,66.3101416 L126.919215,66.3101416 Z M66.4818139,81.6098328 C61.3701929,85.8097481 56.8599391,90.6096512 53.5524196,96.3095362 C56.2585719,100.209457 58.6640406,104.109379 61.3701929,108.0093 C61.3701929,106.50933 60.7688257,105.009361 60.7688257,103.509391 C60.7688257,99.6094696 61.3701929,95.7095483 63.1742944,92.4096149 C63.7756616,90.6096512 64.9783959,89.1096815 65.8804467,87.6097117 C66.4818139,86.4097359 67.3838646,85.5097541 67.9852318,84.6097723 C67.6845482,84.3097783 67.6845482,84.0097844 67.3838646,83.7097904 C67.083181,82.8098086 66.7824975,82.2098207 66.4818139,81.6098328 L66.4818139,81.6098328 Z M91.137868,85.8097481 C90.5365008,91.2096391 89.6344501,96.6095301 87.529665,102.009421 C87.529665,99.0094817 86.9282978,96.3095362 85.7255635,93.6095906 C84.8235127,95.7095483 84.2221455,98.1094998 83.0194112,99.9094635 C82.1173604,101.409433 80.6139425,102.309415 79.7118917,103.809385 C78.2084738,105.609348 76.4043723,107.709306 75.2016379,109.809264 C74.9009543,110.709246 74.6002707,111.609227 74.9009543,112.509209 C76.1036887,115.509149 77.0057394,118.509088 78.2084738,121.209034 C78.2084738,121.509028 78.5091574,121.809022 78.8098409,121.809022 C78.2084738,119.709064 77.6071066,117.9091 77.6071066,115.809143 C77.6071066,113.109197 77.6071066,110.109258 79.1105245,107.709306 C80.0125753,105.909342 81.5159932,104.709367 82.7187276,103.209397 C83.0194112,102.909403 83.3200948,102.909403 83.3200948,102.609409 C84.8235127,103.209397 86.026247,103.809385 87.529665,104.109379 C92.3406024,105.909342 97.4522234,106.50933 102.563844,106.209336 C106.773415,106.209336 110.982985,105.909342 115.192555,105.009361 C116.996657,104.709367 118.500074,103.509391 120.304176,103.209397 C116.996657,103.809385 113.689137,104.109379 110.381618,104.409373 C106.773415,104.709367 103.465895,104.709367 99.857692,104.409373 C97.1515398,104.109379 94.4453875,103.509391 92.0399188,102.009421 C92.0399188,99.3094756 92.0399188,96.9095241 91.7392352,94.2095785 C92.0399188,91.509633 91.4385516,88.5096936 91.137868,85.8097481 L91.137868,85.8097481 Z" id="Shape" fill="#FAD40B" fill-rule="nonzero"></path>
                <path d="M123.611695,106.809324 C122.709645,107.409312 121.807594,108.309294 120.905543,109.209276 C118.800758,110.709246 116.395289,112.209215 114.290504,113.409191 C111.885036,114.609167 109.178883,115.809143 106.773415,116.709124 C106.773415,118.209094 106.773415,120.009058 106.773415,121.509028 C107.074098,121.509028 107.374782,121.509028 107.976149,121.509028 C107.976149,119.109076 110.381618,117.309112 112.787086,118.209094 C113.989821,118.509088 114.891871,119.40907 115.192555,120.609046 C116.996657,120.609046 118.800758,120.009058 120.60486,119.40907 C121.206227,119.109076 121.807594,118.809082 122.408961,118.509088 C123.010328,117.309112 123.311012,116.409131 123.611695,115.209155 C123.912379,114.009179 122.709645,112.809203 123.311012,111.609227 C123.010328,109.809264 123.611695,108.309294 123.611695,106.809324 L123.611695,106.809324 Z M82.1173604,106.809324 C82.1173604,108.309294 82.418044,109.809264 83.0194112,111.309233 C83.3200948,112.209215 82.7187276,113.409191 82.418044,114.309173 C82.7187276,115.809143 83.3200948,117.009118 83.9214619,118.209094 C86.026247,119.40907 88.7323993,120.309052 91.137868,120.309052 C91.4385516,119.109076 92.3406024,118.209094 93.5433367,117.9091 C95.6481218,117.309112 98.3542741,118.809082 98.0535905,121.209034 C98.3542741,121.209034 98.6549577,121.209034 99.2563249,121.209034 C99.2563249,119.709064 99.2563249,117.9091 99.2563249,116.409131 C98.0535905,115.809143 96.8508562,115.509149 95.6481218,115.209155 C90.8371844,113.109197 86.3269306,110.109258 82.1173604,106.809324 L82.1173604,106.809324 Z M85.4248799,123.908979 C86.9282978,126.308931 89.6344501,127.8089 92.3406024,127.8089 C98.0535905,127.8089 103.465895,127.8089 109.178883,127.8089 C112.486403,127.508907 115.793922,126.308931 118.500074,124.208973 C117.598024,124.208973 116.996657,124.208973 116.094606,124.208973 C110.982985,124.808961 105.871364,124.508967 100.759743,124.508967 C95.3474382,124.808961 90.2358173,124.508967 85.4248799,123.908979 L85.4248799,123.908979 Z" id="Shape" fill="#000000" fill-rule="nonzero"></path>
            </g>
        </g>
    </g>
</svg>