<svg width="200" height="200" viewBox="0 0 200 200" fill="none" xmlns="http://www.w3.org/2000/svg">
<g clip-path="url(#clip0_10_304310)">
<path d="M101.29 166.911C101.29 166.911 96.1475 172.226 89.113 172.183C82.9598 172.145 76.0659 166.495 74.9196 165.289C70.0695 160.185 67.3552 155.459 64.9058 150.609C63.6892 148.208 62.5375 145.77 61.2236 143.239C59.9206 140.73 58.4607 138.14 56.6331 135.421C53.2753 130.435 50.707 126.234 48.0359 122.357C45.4027 118.529 42.6776 115.02 39.0387 111.424C26.6674 99.1883 14.1123 96.2036 -0.00537109 98.1447C8.03486 88.4337 16.751 81.0856 27.8516 75.2514C23.0772 72.8669 18.5245 68.8982 16.2427 63.675C14.5071 59.7117 13.9718 57.2136 12.9931 52.9583C12.501 50.8117 12.1334 48.2164 11.9171 47.4107C9.11085 47.4053 6.58578 47.6919 4.9853 44.3125C2.47645 38.992 3.73087 33.3146 3.27669 27.9995C4.55274 30.1137 6.17484 36.2831 11.1871 36.1047C12.6254 36.0506 13.9231 35.6072 15.3343 35.5207C15.3343 35.5207 16.6699 35.8019 17.2592 36.1966C17.9784 36.6778 18.1946 37.3969 18.757 38.089C19.0814 38.7974 20.7305 41.2575 21.9417 43.3176C25.3103 49.0599 28.0787 50.9739 28.0787 50.9739C31.2958 53.5423 35.0699 54.748 41.0609 54.748H68.6096C71.3348 53.1584 74.3194 52.2122 77.4717 51.785H126.027C129.184 52.2176 132.185 53.1584 134.927 54.748H162.475C166.558 54.748 169.11 54.3912 171.456 53.2503C172.819 52.6447 174.046 51.8985 175.209 50.9685C175.209 50.9685 177.977 49.049 181.346 43.3122C182.557 41.2521 184.206 38.7865 184.531 38.0836C185.093 37.3915 185.304 36.6724 186.028 36.1912C186.618 35.7965 187.953 35.5153 187.953 35.5153C189.364 35.5964 190.662 36.0452 192.1 36.0993C197.113 36.2777 198.735 30.1083 200.011 27.9941C199.557 33.3092 200.806 38.9866 198.302 44.3125C196.702 47.6919 194.177 47.4053 191.37 47.4107C191.154 48.2164 190.786 50.8117 190.294 52.9583C189.316 57.2136 188.775 59.7117 187.045 63.675C186.693 64.4807 186.282 65.2593 185.828 66.0054C181.557 73.4455 173.316 77.7927 167.001 77.7927H156.847C157.02 77.982 168.699 87.3091 174.144 88.3364C174.144 88.3364 162.356 93.392 158.534 94.3544C151.964 96.009 147.33 96.2036 141.237 94.6518C140.193 96.6578 139.501 98.215 139.501 98.215L139.295 104.476C139.085 108.348 134.683 114.404 131.791 116.729L129.941 131.046C131.52 133.458 132.337 136.129 132.677 139.373C131.466 142.244 130.369 145.126 129.439 148.041C129.168 149.468 128.098 150.712 126.708 151.339C129.817 155.037 127.308 162.558 121.014 160.623C120.76 160.59 120.512 161.65 120.203 163.002C119.684 164.748 118.722 165.803 116.943 166.57C116.618 166.711 116.002 166.889 115.488 166.906H101.306L101.29 166.911Z" fill="#231F20"/>
<path d="M79.5586 94.4041C78.4988 95.7504 77.8283 97.4861 77.8283 99.4002C77.8283 103.309 80.64 106.478 84.1113 106.478C84.5493 106.478 84.9764 106.429 85.3927 106.332C85.3927 106.332 85.9064 107.376 86.0146 107.565C85.6252 107.619 85.2251 107.646 84.825 107.646C79.6721 107.646 75.3357 103.196 75.1302 97.6429C75.0762 96.2479 75.2924 94.9177 75.725 93.7012C77.0876 93.9445 78.4934 94.1608 79.564 94.4095" fill="#FEBC11"/>
<path d="M123.615 94.4412C123.794 94.4574 127.551 93.7113 127.454 93.7329C127.887 94.9495 128.098 96.2796 128.049 97.6746C127.843 103.228 123.502 107.678 118.354 107.678C117.949 107.678 117.554 107.651 117.165 107.596C117.273 107.407 117.786 106.364 117.786 106.364C118.203 106.461 118.63 106.51 119.068 106.51C122.539 106.51 125.351 103.341 125.351 99.4319C125.351 97.5178 124.68 95.7821 123.621 94.4358" fill="#FEBC11"/>
<path d="M94.4824 106.489H92.0546C90.7137 105.932 89.9837 105.413 89.0267 104.331C88.4265 103.65 88.1345 103.207 87.7506 102.39L79.5428 85.4283C79.4995 85.4877 79.3968 85.5526 79.5049 85.3526C80.6242 85.3688 80.9973 85.3309 81.9327 85.3526L90.1784 102.39C90.5569 103.212 90.8488 103.655 91.4544 104.331C92.4115 105.413 93.1414 105.932 94.4824 106.489Z" fill="#FEBC11"/>
<path d="M90.2107 86.9631C90.6811 80.8856 78.856 71.6667 75.7578 70.2879H70.7617C64.0299 70.6718 59.6286 72.0073 54.2703 75.3596C59.2718 73.3482 67.3444 72.7697 74.752 74.5432C81.2621 76.1004 86.4042 80.3395 90.2107 86.9631ZM132.245 70.25C131.845 70.2933 129.736 70.2933 129.736 70.2933C126.649 71.6667 114.91 80.8153 115.278 86.8928C119.079 80.3179 124.21 76.1004 130.693 74.5486C136.603 73.132 142.945 73.2185 147.801 74.3323C147.055 73.9106 146.325 73.5321 145.6 73.1914C141.604 71.3044 137.684 70.4987 132.25 70.25M197.594 36.8076C194.539 39.9437 190.208 38.181 188.694 38.0891C188.694 38.0891 188.245 38.1594 188.007 38.3162C187.721 38.5054 187.58 38.6893 187.472 39.0191C187.099 39.9329 185.331 42.5391 183.99 44.8046C181.811 48.4976 178.886 51.1903 178.886 51.1903C174.993 55.3645 170.721 57.5706 162.589 57.5706H134.759C132.142 56.0458 128.454 54.521 125.427 54.1101H110.687L110.103 56.8406H125.156C127.362 57.1434 128.6 57.4895 130.628 58.3762C131.623 58.8142 132.726 60.2146 132.942 60.7607H165.482L135.932 64.2428C136.808 65.4648 137.235 66.2272 137.836 67.6222H167.888C169.288 67.6222 177.766 62.837 180.551 60.22L180.611 60.1443C182.692 57.6625 184.185 55.2888 185.271 52.8989C185.807 51.412 186.018 50.7469 186.488 49.3357C187.25 47.0269 187.667 45.7184 188.364 43.3934C188.586 42.95 188.808 42.7121 189.24 42.4634C189.473 42.3282 189.624 42.2741 189.884 42.2147C191.095 42.3498 191.787 42.7337 193.377 42.5499C194.653 42.3985 195.783 41.9605 196.285 40.9981C196.875 39.8464 197.616 37.9269 198.194 36.1426C197.999 36.3859 197.745 36.6562 197.599 36.8076M104.334 131.863C103.793 131.879 103.269 131.863 102.766 131.83C98.8781 131.549 95.3528 130.76 93.071 129.414C93.0926 127.905 93.071 126.634 93.0115 124.796C92.8764 120.968 92.6709 118.156 92.2545 115.139C92.1626 114.474 92.0599 113.803 91.9463 113.106C91.8923 113.836 91.8328 114.479 91.7571 115.134C91.6598 115.966 91.5408 116.815 91.3732 117.87C90.6541 122.395 90.0052 124.92 88.4534 129.159C88.4696 127.791 88.4102 127.013 88.1831 125.65C87.8641 123.688 87.5396 122.579 86.7448 120.719C85.6742 123.25 84.8307 126.196 83.0518 128.3C82.2624 129.235 81.6676 129.635 80.862 130.56C78.3315 133.469 76.0281 135.805 75.7199 139.006C76.5472 140.925 79.202 148.225 79.5156 148.625C79.6724 148.825 79.8509 148.971 80.0347 149.084C79.3264 146.911 76.585 137.892 82.257 132.355C83.2735 131.365 83.9548 130.63 84.4955 130.046L84.3657 129.927C91.211 132.75 95.5636 133.636 102.966 133.728C110.26 133.82 114.629 133.058 121.323 130.511L121.539 130.425C118.711 131.041 115.791 131.42 112.131 131.706C109.081 131.944 107.286 131.982 104.339 131.863M105.994 102.395C109.573 93.9922 115.478 79.2797 116.802 70.2879L113.839 70.277C112.412 76.1274 111.574 79.4203 110.011 85.2328C108.059 92.4945 106.886 96.6308 104.756 103.719C105.285 103.39 105.713 102.93 105.994 102.395ZM13.9664 42.2147C14.2314 42.2687 14.3773 42.3282 14.6098 42.4634C15.0424 42.7121 15.2641 42.9446 15.4858 43.3934C16.1833 45.7238 16.5942 47.0323 17.362 49.3357C17.8324 50.7469 18.0379 51.412 18.5786 52.8989C19.66 55.2942 21.1577 57.6625 23.2394 60.1443L23.2989 60.22C26.0835 62.837 34.5563 67.6222 35.9621 67.6222H66.0143C66.6145 66.2272 67.0416 65.4648 67.9176 64.2428L38.3953 60.685L70.9509 60.7607C71.1239 60.2092 72.2216 58.8142 73.2165 58.3762C75.2387 57.4895 76.4823 57.138 78.6884 56.8406H94.5309L94.028 54.6237L93.9091 54.1101H78.4126C75.3847 54.5264 71.6917 56.0458 69.0747 57.576H41.2448C33.1126 57.576 28.8411 55.3699 24.9481 51.1903C24.9481 51.1903 22.0229 48.4976 19.8438 44.8046C18.5083 42.5337 16.7402 39.9329 16.3617 39.0191C16.2536 38.6947 16.113 38.5108 15.8264 38.3162C15.5939 38.1594 15.1397 38.0891 15.1397 38.0891C13.6312 38.1756 9.28935 39.9383 6.23979 36.8076C6.0938 36.6562 5.83967 36.3859 5.64502 36.1426C6.22357 37.9269 6.96433 39.8464 7.5537 40.9981C8.05114 41.9605 9.18661 42.3985 10.4627 42.5499C12.0523 42.7337 12.7498 42.3498 13.9556 42.2147M26.116 82.3834C19.195 86.7738 16.8213 88.0283 9.1001 94.7276C9.3326 94.6735 10.1653 94.5654 11.0683 94.4842C14.9397 91.5969 18.5029 89.3908 23.7098 86.5468C29.3277 83.4756 34.5779 81.1289 39.7038 79.2689H31.2202C30.2037 79.8529 28.0084 81.183 26.1214 82.3834M65.1762 110.932C63.4946 112.446 62.0888 113.793 60.8398 115.139C58.5418 117.61 56.7521 120.086 54.6596 123.617C56.3574 126.196 58.1417 128.965 60.2342 132.031C61.0345 133.204 61.7644 134.35 62.4403 135.48C60.8831 128.305 61.9861 122.552 66.0684 115.907C66.2306 115.642 66.3874 115.388 66.5496 115.144C67.3769 113.852 68.1447 112.819 69.0098 111.857C68.3934 110.965 67.8148 110.029 67.3282 109.099C66.6523 109.651 65.9981 110.202 65.1816 110.938" fill="#FEBC11"/>
<path d="M4.49317 100.984V101.384H3.3631V104.337H2.9035V101.384H1.77344V100.984H4.49317Z" fill="#231F20"/>
<path d="M4.89317 100.984H5.54202L6.50446 103.818L7.46151 100.984H8.10494V104.331H7.67238V102.352C7.67238 102.282 7.67238 102.174 7.67238 102.012C7.67238 101.855 7.67238 101.682 7.67238 101.503L6.71534 104.326H6.26656L5.30411 101.503V101.606C5.30411 101.687 5.30411 101.812 5.30411 101.985C5.30411 102.152 5.30951 102.277 5.30951 102.352V104.331H4.87695V100.984H4.89317Z" fill="#231F20"/>
<path d="M82.2192 99.7346L80.8945 97.0527C80.3916 97.8259 80.0942 98.7938 80.0942 99.8482C80.0942 102.389 81.8407 104.45 83.9927 104.45C84.1711 104.45 84.3496 104.433 84.5226 104.406L84.0684 103.487C83.917 103.514 83.7602 103.536 83.598 103.536C82.349 103.536 81.3324 102.59 81.3324 101.422C81.3324 100.74 81.6785 100.129 82.2192 99.74" fill="#49306E"/>
<path d="M72.4755 110.382C72.5945 110.728 72.7459 111.09 72.9351 111.496C73.8651 113.502 74.8059 114.567 76.6876 115.778L78.2718 122.126L78.5043 123.045C78.5043 123.045 79.137 122.634 80.0886 122.126C81.7972 121.196 84.5278 119.931 86.377 120.147C85.9336 119.774 84.7927 116.935 85.7011 114.978C85.7011 114.978 84.8197 112.458 82.7651 111.42C78.8125 109.798 76.228 108.019 73.903 105.159C73.1784 104.261 72.4809 103.266 71.7726 102.131C71.7726 102.131 71.6699 103.775 71.9024 105.159C71.9564 105.478 72.0267 105.781 72.1187 106.046C72.6702 107.624 73.4217 108.16 74.5897 109.403C76.4226 111.355 77.6663 112.318 80.0183 113.632C78.261 113.194 77.2824 112.853 75.644 112.107C74.3355 111.512 73.4488 111.036 72.4701 110.387" fill="#49306E"/>
<path d="M29.3278 88.1849C30.6687 87.536 32.0475 86.8872 33.4912 86.2167C39.2605 83.524 43.2184 81.3504 48.5389 80.3014C47.4737 81.5234 46.3869 82.7292 44.6729 83.8322C41.6882 85.7571 39.7903 86.6168 36.3353 87.6063C39.7741 88.2822 41.8558 88.2822 45.1919 87.6063C49.0742 86.8169 50.5611 84.6433 54.2811 83.324C57.5956 82.1452 59.553 81.6424 63.0675 81.0476L56.3791 79.7716C58.8663 78.9064 60.3154 78.5117 62.9161 77.9926C64.9708 77.5817 66.1549 77.4087 68.2583 77.2194C69.1342 79.6093 70.0804 80.9395 72.0486 82.5616C74.4601 84.546 76.4391 85.2867 79.5103 85.3516C80.6295 85.3678 81.0026 85.33 81.938 85.3516L83.3114 88.1849L90.1891 102.389C90.5676 103.211 90.8596 103.649 91.4652 104.33C91.7463 104.649 92.0059 104.92 92.2708 105.157C92.9034 105.725 93.5469 106.098 94.4931 106.493H100.241L98.7917 105.157L93.6009 100.378L88.8968 89.6556C89.3781 89.2068 89.7187 88.7148 89.935 88.1849C90.0972 87.7956 90.1891 87.39 90.2215 86.9629C86.415 80.3393 81.2729 76.1002 74.7629 74.543C67.3607 72.7749 59.2826 73.3534 54.2811 75.3594C53.7404 75.7001 53.1835 76.0623 52.6158 76.4462C51.3289 77.3168 50.1934 78.3333 49.3013 79.2525L39.7146 79.2687C34.5888 81.1287 29.3386 83.4754 23.7207 86.5465C22.6826 87.1143 21.7147 87.655 20.7901 88.1795C17.0863 90.2936 14.1827 92.1698 11.0791 94.4786C11.4792 94.4408 12.9013 94.3813 14.0638 94.4083C15.3939 94.4354 17.1728 94.5543 17.4594 94.6408C21.4822 92.1212 25.2238 90.1692 29.3278 88.1849Z" fill="#49306E"/>
<path d="M71.5727 70.289H88.6913C89.4158 75.204 91.5083 81.8168 93.8442 88.1808C95.715 93.2797 97.7372 98.2217 99.3377 101.99L99.5702 102.466C100.143 103.548 101.354 104.288 102.75 104.288C103.496 104.288 104.182 104.077 104.761 103.721C106.583 97.6539 107.708 93.7447 109.216 88.1862C109.47 87.2562 109.735 86.2776 110.011 85.234C111.574 79.4161 112.417 76.1286 113.839 70.2782L116.802 70.289H129.736C129.736 70.289 131.85 70.289 132.245 70.2458C132.742 69.0671 132.948 68.3587 133.148 67.0989C133.537 64.6549 133.64 63.1139 132.921 60.7673L132.899 60.6862C132.623 60.0968 131.574 58.7991 130.623 58.3828C128.6 57.496 127.357 57.1446 125.151 56.8418H110.103L107.07 71.2731L105.026 56.9553C104.199 57.6961 103.22 57.7069 101.982 57.7069C101.03 57.7069 100.143 57.4366 99.408 56.9716L97.8129 71.2731L94.5308 56.8418H78.6883C76.4822 57.1446 75.244 57.4906 73.2164 58.3828C72.2215 58.8208 71.1185 60.2212 70.9455 60.7727C70.1506 63.1031 70.2534 64.6387 70.6481 67.0989C70.8481 68.3587 71.0698 69.1103 71.5673 70.289" fill="#49306E"/>
<path d="M34.1938 90.8397C28.4894 89.9854 28.4137 91.7589 22.2983 95.5925C26.2725 96.5766 29.7762 98.2689 34.0045 100.994C35.751 102.113 37.6759 103.698 39.325 105.157C41.4986 107.077 43.191 108.786 43.3803 108.975C44.8456 107.477 46.4515 106.206 47.9762 105.157C51.0961 103.011 53.8591 101.8 54.3511 101.524C54.6809 101.335 47.8465 100.94 42.0339 96.3711C39.0925 94.0569 36.9351 91.2561 34.1938 90.8451" fill="#49306E"/>
<path d="M12.6252 44.8703C12.6252 44.8703 13.5335 44.7081 13.8742 45.2055C14.1391 45.5949 14.9231 48.9796 15.399 51.1479C15.9775 54.2893 17.2103 58.9069 18.827 62.6324C22.1307 70.24 30.7062 74.8901 36.6107 74.8901H49.4361C51.1015 73.8627 52.1018 73.3491 53.9023 72.5704C55.9083 71.7053 57.0816 71.3052 59.212 70.7645H36.0105C32.7014 70.4401 24.1529 62.5675 23.304 60.2154C21.2007 57.7228 19.6813 55.3221 18.5837 52.8943C18.0484 51.4074 17.8375 50.7423 17.3671 49.3311C16.6047 47.0223 16.1884 45.7138 15.4909 43.3888C15.2692 42.9454 15.0475 42.7075 14.6149 42.4588C14.3824 42.3236 14.231 42.2695 13.9715 42.2101C12.7603 42.3452 12.0682 42.7291 10.4786 42.5453C9.20252 42.3939 8.07245 41.9559 7.5696 40.9935C6.98024 39.8418 6.23948 37.9223 5.66093 36.138C5.58523 36.0407 5.52034 35.9542 5.47168 35.873C5.74744 39.101 6.44494 41.4044 7.29925 43.2212C8.35902 45.4651 10.5326 44.8108 12.6306 44.8649" fill="#49306E"/>
<path d="M119.576 103.563C119.414 103.563 119.257 103.547 119.106 103.514L118.651 104.434C118.824 104.461 119.003 104.477 119.181 104.477C121.339 104.477 123.08 102.417 123.08 99.8755C123.08 98.8265 122.782 97.8533 122.279 97.0801L120.955 99.762C121.495 100.151 121.842 100.757 121.842 101.444C121.842 102.611 120.825 103.558 119.576 103.558" fill="#49306E"/>
<path d="M76.6175 148.771C76.239 148.02 76.1579 147.895 75.947 146.716C75.0873 144.256 74.114 141.818 73.0596 139.39C73.0705 139.293 73.0759 139.201 73.0867 139.103C73.2813 137.195 73.6544 135.486 74.2546 133.907C74.087 131.793 73.9951 129.684 73.8491 126.986C73.768 125.532 73.6815 123.774 73.6003 122.131C73.4598 119.265 73.3462 116.745 73.3462 116.745C72.0269 115.696 70.4102 113.885 69.0098 111.857C67.9825 112.998 67.0903 114.253 66.0738 115.907C64.7599 118.048 63.7542 120.098 63.0459 122.125C61.5589 126.402 61.3913 130.614 62.4457 135.481C63.181 136.708 63.8569 137.914 64.4949 139.098C64.6355 139.357 64.7707 139.617 64.9059 139.871C66.2414 142.407 67.4093 144.856 68.6421 147.273C69.3234 148.603 70.394 150.29 71.5889 151.826C74.7034 155.822 78.6721 158.785 78.8343 151.826C78.8343 151.68 78.8397 151.534 78.8397 151.383C78.8397 151.383 77.2176 149.966 76.6121 148.766" fill="#49306E"/>
<path d="M131.628 105.153C129.309 108.013 126.719 109.798 122.766 111.414C120.717 112.452 119.83 114.972 119.83 114.972C120.739 116.929 119.598 119.773 119.154 120.141C121.003 119.93 123.729 121.19 125.443 122.12H125.448C126.394 122.634 127.027 123.039 127.027 123.039L127.259 122.12L128.844 115.772C130.725 114.561 131.661 113.496 132.596 111.49C132.785 111.084 132.937 110.722 133.056 110.376C132.077 111.025 131.19 111.501 129.882 112.096C128.243 112.842 127.265 113.182 125.508 113.62C127.86 112.312 129.103 111.344 130.942 109.392C132.11 108.148 132.861 107.613 133.413 106.034C133.505 105.769 133.575 105.461 133.629 105.148C133.861 103.763 133.759 102.125 133.759 102.125C133.056 103.255 132.353 104.255 131.634 105.148" fill="#49306E"/>
<path d="M198.189 36.1423C197.61 37.9267 196.869 39.8462 196.28 40.9978C195.783 41.9603 194.647 42.3983 193.371 42.5497C191.781 42.7335 191.084 42.3496 189.878 42.2144C189.613 42.2685 189.467 42.328 189.235 42.4631C188.802 42.7119 188.58 42.9444 188.359 43.3932C187.661 45.7236 187.245 47.0321 186.483 49.3355C186.012 50.7467 185.807 51.4118 185.266 52.8987C184.168 55.3264 182.649 57.7271 180.546 60.2198C179.697 62.5718 171.148 70.4444 167.839 70.7689H144.638C146.768 71.3096 147.936 71.7097 149.947 72.5748C151.748 73.3534 152.748 73.8671 154.414 74.8944H167.239C173.143 74.8944 181.719 70.2444 185.023 62.6367C186.639 58.9113 187.872 54.2937 188.451 51.1522C188.921 48.984 189.689 45.5884 189.976 45.2099C190.376 44.6692 191.225 44.8747 191.225 44.8747C193.317 44.8206 195.491 45.4749 196.556 43.2309C197.41 41.4142 198.108 39.1108 198.383 35.8828C198.335 35.9585 198.27 36.0504 198.194 36.1478" fill="#49306E"/>
<path d="M151.207 76.4473C150.012 75.6471 148.893 74.9441 147.801 74.3277C142.94 73.2139 136.597 73.1274 130.688 74.544C124.205 76.0958 119.073 80.3133 115.272 86.8882C115.299 87.337 115.391 87.7696 115.559 88.1859C115.775 88.7158 116.116 89.2078 116.597 89.6566L111.893 100.379L106.702 105.159L105.253 106.494H112.147C113.093 106.099 113.731 105.726 114.353 105.159C114.612 104.921 114.872 104.65 115.148 104.331C115.743 103.65 116.024 103.207 116.397 102.39L123.085 88.1859L124.421 85.3526C127.487 85.2878 129.455 84.547 131.845 82.5626C133.791 80.9459 134.721 79.6104 135.565 77.2205C137.668 77.4097 138.852 77.5828 140.918 77.9937C143.524 78.5128 144.984 78.9075 147.476 79.7726L140.804 81.0487C144.324 81.638 146.287 82.1463 149.617 83.325C153.354 84.6443 154.873 86.8179 158.766 87.6074C162.108 88.2832 164.195 88.2832 167.623 87.6074C164.157 86.6179 162.248 85.7582 159.237 83.8333C155.663 81.5461 154.765 78.8318 151.207 76.4473Z" fill="#49306E"/>
<path d="M114.44 160.525H105.75L98.0347 164.537H101.836C102.458 164.397 103.555 163.829 104.626 163.315C105.453 162.915 106.324 162.396 106.713 162.223C106.762 162.748 106.686 163.083 106.448 163.553C106.205 164.029 105.978 164.262 105.518 164.554H117.349C117.868 163.294 117.716 162.667 117.1 161.764C116.456 160.817 115.429 160.542 114.44 160.525Z" fill="#49306E"/>
<path d="M123.653 141.39C123.399 142.288 123.236 142.79 122.917 143.661C122.658 144.375 122.496 144.775 122.193 145.467C120.982 146.137 120.252 146.456 118.943 146.889C117.505 147.365 116.656 147.549 115.153 147.716C114.656 145.656 112.222 144.461 110.27 145.326C108.892 145.937 108.156 147.046 108.145 148.543H107.037V143.656C111.2 142.32 113.801 141.168 117.121 139.087C117.737 138.703 118.376 138.286 119.051 137.827C121.095 136.453 122.204 135.599 124.064 133.961C123.961 135.323 123.82 136.091 123.442 137.4C123.247 138.065 123.117 138.438 122.858 139.081C122.858 139.081 122.858 139.092 122.853 139.092L123.653 141.379V141.39ZM112.677 151.826C114.585 151.717 116.575 151.561 118.987 151.333C118.765 151.512 118.549 152.209 118.343 152.361C117.127 153.258 116.169 153.237 114.596 153.848C112.85 154.529 111.784 154.783 109.919 154.956H92.5138C90.4267 154.697 89.1722 154.129 87.5988 152.734C87.2203 152.399 86.9446 152.128 86.6904 151.82C86.4796 151.566 86.2795 151.29 86.047 150.944C89.9022 151.393 92.8274 151.669 95.877 151.82C98.2506 151.944 100.695 151.993 103.717 152.009C107.253 152.026 109.881 151.977 112.671 151.82L112.677 151.826ZM85.0305 145.472C84.7223 144.775 84.5547 144.38 84.2843 143.666C83.9545 142.79 83.7869 142.288 83.5273 141.395L84.3005 139.103C84.0356 138.465 83.9004 138.086 83.7004 137.421C83.3056 136.113 83.1597 135.34 83.0461 133.982C84.9223 135.615 86.0416 136.475 88.0963 137.848C88.7829 138.303 89.4264 138.719 90.0428 139.108C93.3843 141.19 95.9959 142.342 100.176 143.677L100.224 148.565H99.1157C99.0887 147.067 98.3425 145.954 96.9584 145.348C95.001 144.488 92.5787 145.683 92.1028 147.738C90.5997 147.57 89.7454 147.381 88.3017 146.911C86.9824 146.478 86.2525 146.159 85.0359 145.488M124.75 130.565C123.831 129.738 123.339 129.24 122.534 128.305C121.057 126.586 120.209 124.298 119.349 122.13C119.16 121.654 118.97 121.184 118.77 120.73C118.559 121.243 118.381 121.698 118.23 122.13C117.829 123.266 117.608 124.239 117.391 125.661C117.186 127.024 117.137 127.808 117.164 129.17C116.132 126.44 115.245 124.428 114.537 122.13C114.147 120.86 113.812 119.502 113.536 117.891C113.142 115.577 112.979 114.252 112.812 111.895C112.32 111.03 111.86 110.581 110.963 110.1C110.411 109.802 110.005 109.662 109.459 109.586L107.724 122.13L107.064 126.915L106.41 122.13L105.009 111.846C104.442 112.549 103.225 113.025 102.209 113.025C101.192 113.025 100.089 112.592 99.5159 111.922L98.4993 122.13L98.0235 126.905L97.2233 122.13L95.1254 109.608C94.6874 109.689 94.3251 109.829 93.8547 110.083C92.9626 110.565 92.503 111.013 92.0272 111.879C92.0001 112.322 91.9731 112.727 91.9461 113.111C92.4489 116.193 92.7247 118.821 92.8977 122.13C92.9409 122.968 92.9788 123.855 93.0112 124.801C93.0761 126.64 93.0977 127.91 93.0707 129.419C95.3525 130.765 98.8778 131.56 102.765 131.836C103.268 131.874 103.793 131.879 104.334 131.868C107.286 131.987 109.075 131.949 112.125 131.706C115.786 131.419 118.705 131.041 121.533 130.425L121.317 130.511L121.771 130.338C115.872 135.458 110.773 137.329 102.96 137.237C95.2281 137.145 90.2104 135.199 84.4898 130.051C83.9545 130.635 83.2678 131.371 82.2513 132.36C80.2399 134.323 79.2828 136.729 78.926 139.108C78.2663 143.439 79.5748 147.689 80.029 149.095C80.7752 149.544 81.716 149.446 82.6135 149.993C83.6463 150.614 84.2843 151.101 84.9872 151.842C85.1711 152.031 85.3549 152.242 85.555 152.469C85.1927 153.21 84.8845 153.502 84.4844 154.291C83.6895 155.859 84.387 159.298 88.2206 158.741C91.3459 158.746 102.809 156.93 112.141 157.406C115.856 157.595 117.959 157.822 121.641 158.298C122.274 158.525 122.717 158.552 123.382 158.422C125.329 158.033 125.935 155.751 125.259 154.042C124.794 152.869 123.804 152.615 122.588 152.372C122.101 152.269 121.582 151.723 121.036 151.809C121.809 151.025 122.301 150.614 123.231 149.993C123.653 149.711 123.896 149.56 124.345 149.317C125.151 149.414 125.767 149.203 126.324 148.641C126.681 148.279 126.827 147.987 126.902 147.505C127.335 146.121 127.6 145.348 128.087 143.975C128.768 142.066 129.19 140.979 129.968 139.119C129.979 139.087 129.995 139.06 130.006 139.027C129.66 135.826 128.898 135.502 126.892 132.885C126.151 131.917 125.67 131.403 124.745 130.581" fill="#49306E"/>
</g>
<defs>
<clipPath id="clip0_10_304310">
<rect width="200" height="144.189" fill="white" transform="translate(0 28)"/>
</clipPath>
</defs>
</svg>
