<?xml version="1.0" encoding="UTF-8"?>
<svg width="200px" height="200px" viewBox="0 0 200 200" version="1.1" xmlns="http://www.w3.org/2000/svg" xmlns:xlink="http://www.w3.org/1999/xlink">
    <!-- Generator: Sketch 54.1 (76490) - https://sketchapp.com -->
    <title>union-ny</title>
    <desc>Created with Sketch.</desc>
    <g id="union-ny" stroke="none" stroke-width="1" fill="none" fill-rule="evenodd">
        <g id="union-ny_BGL">
            <g id="union-ny" transform="translate(8.000000, 0.000000)">
                <path d="M0.149253731,0.223880597 C1.28731343,0.186567164 2.40671642,0.279850746 3.54477612,0.130597015 C10.130597,0.111940299 16.7350746,0.149253731 23.3208955,0.111940299 C42.9104478,0.111940299 62.6119403,0.0746268657 82.1641791,0.0746268657 C82.1641791,20.9701493 82.1455224,41.9029851 82.1828358,62.7985075 C79.2537313,62.8358209 76.3246269,62.7985075 73.3955224,62.8171642 C73.3768657,84.9626866 73.3955224,107.145522 73.3768657,129.291045 C73.3768657,129.626866 73.3768657,129.94403 73.3955224,130.279851 C75.2238806,132.238806 76.9776119,134.253731 78.7686567,136.25 C86.6604478,136.268657 94.5335821,136.25 102.425373,136.25 C104.272388,134.347015 106.156716,132.481343 108.003731,130.578358 C108.264925,130.298507 108.675373,130.018657 108.787313,129.645522 C108.824627,129.216418 108.80597,128.787313 108.80597,128.358209 C108.80597,107.145522 108.80597,85.9514925 108.80597,64.738806 C108.80597,64.1977612 108.80597,63.6380597 108.824627,63.0970149 C105.503731,63.0223881 102.164179,63.0783582 98.8432836,63.0597015 C98.8432836,42.108209 98.8432836,21.1567164 98.8432836,0.205223881 C126.679104,0.205223881 154.514925,0.205223881 182.350746,0.205223881 C182.350746,21.1567164 182.350746,42.108209 182.350746,63.0597015 C179.067164,63.0783582 175.802239,63.0410448 172.518657,63.0783582 C172.518657,65.6902985 172.518657,68.2835821 172.518657,70.8955224 C172.462687,77.9850746 172.5,85.0746269 172.481343,92.1641791 C172.462687,100.690299 172.481343,109.197761 172.462687,117.723881 C172.425373,125.932836 172.481343,134.141791 172.425373,142.350746 C172.425373,146.977612 172.406716,151.604478 172.44403,156.231343 C167.593284,161.287313 162.66791,166.212687 157.817164,171.25 C155.186567,173.91791 152.55597,176.567164 149.981343,179.272388 C146.865672,182.44403 143.75,185.615672 140.652985,188.80597 C137.108209,192.350746 133.656716,195.988806 130.130597,199.552239 C129.925373,199.738806 129.813433,199.94403 129.496269,199.906716 C104.981343,199.906716 80.4850746,199.88806 55.9701493,199.869403 C54.7014925,199.682836 53.4328358,199.813433 52.1268657,199.757463 C50.858209,198.470149 49.5708955,197.201493 48.3022388,195.914179 C44.4962687,192.182836 40.7835821,188.376866 36.9776119,184.645522 C33.4328358,181.156716 29.9626866,177.61194 26.4179104,174.123134 C23.1156716,170.839552 19.8320896,167.537313 16.5298507,164.253731 C14.1604478,161.958955 11.8656716,159.589552 9.51492537,157.276119 C9.32835821,157.052239 9.04850746,156.884328 9.10447761,156.567164 C9.10447761,151.529851 9.10447761,146.473881 9.10447761,141.436567 C9.06716418,140.559701 9.17910448,139.701493 9.16044776,138.824627 C9.16044776,116.884328 9.19776119,94.9067164 9.19776119,72.9664179 C9.23507463,69.6268657 9.21641791,66.3059701 9.21641791,62.9664179 C6.19402985,62.9477612 3.17164179,62.9664179 0.149253731,62.9664179 C0.149253731,42.0335821 0.149253731,21.119403 0.149253731,0.223880597 Z" id="Shape" fill="#100F0D" fill-rule="nonzero"></path>
                <path d="M7.35074627,6.97761194 C29.7014925,6.95895522 52.238806,6.97761194 74.608209,6.95895522 C74.7201493,7.85447761 74.6268657,8.78731343 74.6641791,9.70149254 C74.7201493,16.6044776 74.6455224,23.5074627 74.7201493,30.4104478 C74.7014925,38.5634328 74.738806,46.7164179 74.7201493,54.869403 C71.6977612,54.7947761 68.6753731,54.8507463 65.6529851,54.7947761 C65.6529851,80.5037313 65.6529851,106.19403 65.6529851,131.902985 C65.6902985,132.257463 65.5410448,132.798507 65.8022388,133.097015 C69.141791,136.679104 72.4626866,140.317164 75.7835821,143.899254 C85.6716418,143.91791 95.5597015,143.899254 105.447761,143.91791 C105.764925,143.973881 105.876866,143.75 106.08209,143.563433 C109.421642,140.074627 112.779851,136.567164 116.156716,133.097015 C116.324627,132.723881 116.212687,132.145522 116.25,131.716418 C116.19403,130.223881 116.343284,128.731343 116.30597,127.238806 C116.30597,119.347015 116.30597,111.436567 116.30597,103.544776 C116.36194,93.2835821 116.30597,83.0223881 116.343284,72.761194 C116.36194,66.8283582 116.343284,60.8768657 116.343284,54.9440299 C113.059701,54.9253731 109.757463,54.9813433 106.473881,54.9813433 C106.473881,42.0708955 106.492537,29.1604478 106.492537,16.25 C106.529851,13.1902985 106.529851,10.1119403 106.492537,7.03358209 C106.828358,6.79104478 107.276119,6.90298507 107.66791,6.88432836 C129.440299,6.88432836 151.19403,6.88432836 172.966418,6.88432836 C173.376866,6.88432836 173.768657,6.88432836 174.179104,6.86567164 C174.197761,7.07089552 174.216418,7.2761194 174.216418,7.46268657 C174.216418,22.761194 174.216418,38.0597015 174.216418,53.358209 C174.216418,53.880597 174.235075,54.4216418 174.197761,54.9440299 C170.951493,54.9067164 167.705224,54.9440299 164.458955,54.9253731 C164.458955,87.8171642 164.440299,120.727612 164.458955,153.619403 C159.272388,158.86194 154.029851,164.085821 148.824627,169.328358 C142.630597,175.578358 136.529851,181.716418 130.317164,187.947761 C128.936567,189.309701 127.61194,190.727612 126.212687,192.033582 C103.190299,192.014925 80.130597,192.033582 57.108209,192.014925 C56.7723881,192.014925 56.4365672,192.014925 56.1007463,192.033582 C52.3507463,188.395522 48.2835821,184.421642 44.5895522,180.783582 C41.7350746,178.041045 38.9365672,175.261194 36.1007463,172.481343 C33.6567164,170.130597 31.25,167.761194 28.8432836,165.391791 C26.5298507,163.097015 24.1604478,160.858209 21.8656716,158.563433 C20.2238806,156.958955 18.6007463,155.317164 16.9216418,153.75 C16.7164179,153.246269 16.8097015,152.761194 16.7910448,152.220149 C16.7910448,120.559701 16.7910448,88.9179104 16.7910448,57.2574627 C16.7910448,56.4925373 16.8097015,55.7089552 16.7723881,54.9440299 C13.6380597,54.9440299 10.5037313,54.9440299 7.36940299,54.9440299 C7.35074627,39.011194 7.33208955,22.9291045 7.35074627,6.97761194 Z" id="Shape" fill="#FFFFFF" fill-rule="nonzero"></path>
                <path d="M13.8059701,11.8097015 C31.9589552,11.8097015 50.130597,11.8097015 68.2835821,11.8097015 C68.75,11.8097015 69.2164179,11.7910448 69.7014925,11.8470149 C69.6641791,14.2350746 69.7014925,16.641791 69.6828358,19.0298507 C69.608209,21.7723881 69.6641791,24.4962687 69.6455224,27.238806 C69.5522388,34.8134328 69.6828358,42.369403 69.5522388,49.9440299 C66.6044776,49.9253731 63.6753731,49.9626866 60.7276119,49.9253731 C60.6716418,50.5037313 60.7089552,51.0820896 60.6902985,51.6791045 C60.6902985,79.0485075 60.6902985,106.399254 60.6902985,133.768657 C60.6902985,134.402985 60.6902985,135.037313 60.7089552,135.690299 C62.4626866,137.44403 64.1044776,139.291045 65.8395522,141.063433 C68.358209,143.731343 71.0074627,146.548507 73.5261194,149.197761 C74.011194,149.253731 74.4962687,149.216418 74.9813433,149.235075 C85.858209,149.235075 96.7537313,149.235075 107.630597,149.235075 C107.873134,149.216418 108.227612,149.291045 108.451493,149.160448 C112.705224,144.589552 117.126866,139.850746 121.399254,135.279851 C121.399254,106.847015 121.399254,78.3955224 121.399254,49.9626866 C118.078358,49.9626866 114.738806,49.9626866 111.41791,49.9626866 C111.436567,49.3656716 111.455224,48.75 111.455224,48.1529851 C111.455224,36.1007463 111.511194,23.8992537 111.492537,11.8843284 C111.697761,11.8470149 111.902985,11.8283582 112.108209,11.8283582 C131.175373,11.8283582 150.261194,11.8283582 169.309701,11.8283582 C169.309701,24.5335821 169.309701,37.238806 169.309701,49.9626866 C166.13806,49.9813433 162.966418,49.9626866 159.794776,49.9813433 C159.776119,83.6753731 159.794776,117.369403 159.794776,151.063433 C153.246269,157.593284 146.697761,164.272388 140.16791,170.820896 C134.869403,176.13806 129.533582,181.473881 124.253731,186.809701 C123.955224,187.182836 123.544776,186.996269 123.115672,187.033582 C115.149254,187.033582 107.201493,187.014925 99.2350746,187.033582 C98.7873134,187.033582 98.358209,186.940299 97.9291045,186.940299 C84.3656716,186.940299 70.7649254,186.921642 57.2014925,186.902985 C54.011194,183.619403 50.7089552,180.429104 47.5186567,177.145522 C42.3507463,172.033582 37.2761194,166.847015 32.1268657,161.735075 C28.6753731,158.227612 25.1679104,154.776119 21.7164179,151.268657 C21.6604478,143.283582 21.6977612,135.279851 21.6791045,127.276119 C21.641791,118.63806 21.6791045,109.981343 21.6604478,101.343284 C21.6977612,100.410448 21.5671642,99.4776119 21.6044776,98.5447761 C21.6044776,82.3880597 21.6044776,66.2313433 21.5858209,50.0932836 C20.2985075,50.0932836 19.011194,50.0746269 17.7238806,50.0746269 C15.9141791,49.9253731 14.1044776,50.0373134 12.2947761,49.9813433 C12.238806,47.891791 12.2947761,45.7835821 12.2761194,43.6940299 C12.4067164,41.2686567 12.3134328,38.8432836 12.3320896,36.4179104 C12.3507463,30.2798507 12.369403,24.0858209 12.369403,17.9477612 C12.3507463,15.9141791 12.4440299,13.8992537 12.3880597,11.8656716 C12.8731343,11.8097015 13.3395522,11.8097015 13.8059701,11.8097015 Z" id="Shape" fill="#791328" fill-rule="nonzero"></path>
            </g>
        </g>
    </g>
</svg>