<?xml version="1.0" encoding="UTF-8"?>
<svg width="200px" height="200px" viewBox="0 0 200 200" version="1.1" xmlns="http://www.w3.org/2000/svg" xmlns:xlink="http://www.w3.org/1999/xlink">
    <!-- Generator: Sketch 54.1 (76490) - https://sketchapp.com -->
    <title>alas-anchorage</title>
    <desc>Created with Sketch.</desc>
    <g id="alas-anchorage" stroke="none" stroke-width="1" fill="none" fill-rule="evenodd">
        <g id="alas-anchorage_BGL" transform="translate(-0.000000, 0.000000)">
            <g id="alas-anchorage" transform="translate(0.000000, 35.000000)">
                <g id="g10" transform="translate(99.807319, 64.857550) scale(-1, 1) rotate(-180.000000) translate(-99.807319, -64.857550) translate(0.000000, 0.229450)" fill-rule="nonzero">
                    <g id="g12">
                        <path d="M105.309439,128.908967 C101.348745,128.908967 97.3333309,128.544908 93.3764909,127.825969 C82.517917,126.183115 71.3972236,120.534848 62.0529464,111.915984 C53.507359,104.031355 47.1314824,94.3424942 43.9258563,84.4264786 C31.9018104,78.2734246 18.1512134,70.7189734 5.47929081,61.0647589 L0,56.8895542 L5.75264726,53.0940874 C17.0562616,45.636693 58.2035438,18.3681473 63.4688231,14.8597975 C69.0688229,10.741955 78.2682061,5.42580816 86.3021173,2.7671305 L86.3845836,2.74053737 L86.4662791,2.71663645 C92.6204216,0.913313601 98.935643,0 105.236992,0 C121.569168,0 136.974178,6.04454764 148.95568,17.0900406 C151.263965,16.2849045 153.071287,15.5834028 155.880536,14.3934045 L155.959148,14.3596755 L156.038532,14.3292353 C157.076682,13.9312179 158.151056,13.7302207 159.228512,13.7302207 C162.414639,13.7302207 165.339495,15.5427904 166.681306,18.3475734 C167.584582,20.234255 167.718686,22.2825451 167.190747,24.1402397 C173.149899,25.6026704 177.913676,29.0993948 181.242385,31.8924759 C184.894022,34.9987548 195.458955,45.4995591 197.90751,49.8653593 L197.999224,50.030639 L198.079378,50.2018079 C200.094793,54.5535352 198.770708,58.8957787 194.622731,61.5338289 C188.763772,65.2623732 178.657414,69.7593417 168.738339,73.0976699 C167.371094,82.8723449 163.959919,92.0059398 158.57726,100.289809 L158.551826,100.330345 L158.524081,100.371646 C146.22042,118.507285 126.823118,128.908967 105.309439,128.908967 L105.309439,128.908967" id="path14" fill="#1E513D"></path>
                        <path d="M105.309439,127.811437 C101.408861,127.811437 97.4551035,127.451967 93.5576085,126.74297 C82.9117513,125.136828 71.9936013,119.587989 62.8067807,111.112148 C54.2735247,103.239757 47.9431973,93.5486011 44.8416174,83.6601194 C32.7640069,77.4894743 18.9005005,69.9048123 6.15305572,60.1938475 L1.89968396,56.9541059 L6.36530235,54.0082882 C17.6797683,46.5428631 58.9276286,19.2070889 64.1061256,15.7564073 C69.6336013,11.6890435 78.7229267,6.43293576 86.652021,3.80742111 L86.7152194,3.7868013 L86.7791886,3.76827713 C92.8323676,1.99632759 99.0420014,1.09765283 105.236992,1.09765283 C121.507511,1.09765283 136.843157,7.20403694 148.687472,18.345126 C151.337183,17.4351317 153.223888,16.7124442 156.313676,15.4029795 L156.376104,15.3775872 L156.437761,15.3524243 C157.347973,15.0038149 158.286701,14.8269099 159.228512,14.8269099 C161.989977,14.8269099 164.522539,16.3942751 165.680921,18.8187084 C166.634293,20.8042825 166.568782,23.0542582 165.678609,24.9364273 C172.003849,26.1302498 177.065121,29.8259829 180.529475,32.7301938 C184.252789,35.8994946 194.64354,46.3050776 196.941036,50.3992869 L197.013483,50.5268604 L197.074369,50.6600937 C198.868588,54.5353323 197.730246,58.2537043 194.02697,60.6094559 C188.107895,64.3768535 177.778801,68.9437274 167.7341,72.2760899 C166.452404,82.1442272 163.065121,91.3581292 157.648551,99.6955365 L157.626971,99.7276593 L157.606932,99.7582525 C145.512135,117.58643 126.450093,127.811437 105.309439,127.811437 L105.309439,127.811437" id="path16" fill="#FFFFFF"></path>
                        <path d="M189.866662,56.3025475 C191.263194,55.1436013 194.418492,54.1693613 193.53988,52.2599643 C192.788434,50.9989133 190.536411,48.2906517 188.972635,46.5389625 L183.050477,40.4005932 C183.050477,40.4005932 179.431209,36.8937731 177.997683,35.6464125 C177.262423,35.0061737 162.69672,29.4154988 157.811942,28.732506 C156.453946,27.9972753 154.978031,27.3799814 153.468204,26.9802814 C131.618494,33.3298202 95.762618,33.9315116 68.6822334,19.0672781 L66.2963375,18.8790535 L14.654412,53.2043758 C28.4399222,65.1592741 59.1504417,81.3748086 83.3579941,89.7818154 C87.1406529,91.282411 91.5283214,94.1352254 90.4685912,98.638542 C89.4096317,103.144153 87.7441211,107.646705 88.1988417,108.398532 C88.6527916,109.148065 96.2173386,112.001645 107.865893,111.551925 C116.49017,104.043593 129.650864,87.6800637 132.222733,83.4765603 C137.822733,80.7728877 140.394601,77.1697755 141.756451,74.3178025 C143.116759,71.4649881 144.93333,68.6108736 151.438147,67.112037 C157.944505,65.6104471 179.577645,60.6554986 189.866662,56.3025475" id="path18" fill="#FFFFFF"></path>
                        <path d="M162.4262,69.208129 C161.492867,79.2776459 158.291326,88.4173594 152.907125,96.704288 C139.558378,116.377235 117.082078,125.594961 94.2134851,121.412873 C73.9989962,118.392561 54.6423108,99.957873 49.256415,80.5181995 C62.7110582,86.3003111 78.9387264,92.4564245 81.4851617,93.4032835 C84.0300557,94.3532018 85.9383408,98.1398731 84.6658938,100.82366 C83.3949883,103.508977 82.4393043,106.982068 82.2797667,108.402356 C82.1209999,109.82494 83.3942176,111.717128 84.6658938,112.192087 C85.9383408,112.665517 103.598456,115.348539 106.303658,115.348539 C109.00809,115.348539 109.751057,114.172231 112.349901,112.033767 C117.917531,107.455497 130.487087,92.1413147 133.669361,87.2464053 C137.00963,86.6154209 141.622347,83.4582044 143.212328,80.1419033 C144.805391,76.8263671 147.956836,72.6788492 154.509437,70.5104043 C157.371865,69.5657633 159.844312,69.484156 162.4262,69.208129" id="path20" fill="#FBC01C"></path>
                        <path d="M146.504813,23.8199291 C131.364159,8.48509591 109.197685,2.59892917 88.047782,8.79316926 C83.1306338,10.4198853 78.4809229,12.680951 73.9923681,15.3799581 C94.2127144,25.9895977 121.000382,31.2830597 146.504813,23.8199291" id="path22" fill="#FBC01C"></path>
                        <polyline id="path24" fill="#1E513D" points="173.483618 22.3996406 173.483618 21.9721008 172.265121 21.9721008 172.265121 18.8064712 171.768782 18.8064712 171.768782 21.9721008 170.550285 21.9721008 170.550285 22.3996406 173.483618 22.3996406"></polyline>
                        <path d="M173.922154,22.3996406 L174.628127,22.3996406 L175.666277,19.3609726 L176.700574,22.3996406 L177.400381,22.3996406 L177.400381,18.8064712 L176.931017,18.8064712 L176.931017,20.9318561 C176.931017,21.0044384 176.9341,21.1230635 176.936412,21.2951502 C176.940265,21.4618065 176.940265,21.6446773 176.940265,21.8374143 L175.90751,18.8064712 L175.42042,18.8064712 L174.376874,21.8374143 L174.376874,21.7274318 C174.376874,21.6423063 174.379957,21.5069315 174.383811,21.3258963 C174.388435,21.1460084 174.390747,21.0136929 174.390747,20.9318561 L174.390747,18.8064712 L173.922154,18.8064712 L173.922154,22.3996406" id="path26" fill="#1E513D"></path>
                        <path d="M94.9410381,87.624996 C97.6439282,90.3072533 99.697878,96.3891782 97.6971074,101.238963 C96.8130997,103.043196 94.2643522,105.312445 92.5518281,106.652426 C102.891712,104.848193 112.974178,98.9192345 120.350671,92.3699987 C110.843928,94.3279625 102.319073,91.9569907 94.9410381,87.624996" id="path28" fill="#1E513D"></path>
                        <path d="M178.053945,35.6365462 C172.366084,30.8662276 165.719456,27.1332473 157.868975,28.7232516 C157.868975,28.7232516 162.284389,31.2624093 163.847395,33.5829023 C163.121383,33.8383554 159.329476,34.7414661 157.308667,35.2379935 C158.701345,36.6254709 160.006932,38.3577334 160.865507,39.6886898 C167.207703,38.536627 173.067433,37.138748 178.053945,35.6365462" id="path30" fill="#1E513D"></path>
                        <path d="M159.132944,39.9976045 C153.206933,35.3076695 145.845083,32.5375332 137.914447,34.0471538 C139.515989,36.9092991 141.208474,39.3696029 143.210786,42.0718988 C148.675141,41.5885265 154.04701,40.8747875 159.132944,39.9976045" id="path32" fill="#1E513D"></path>
                        <path d="M141.77649,42.1916711 C135.850478,37.3412749 129.033523,33.8093683 120.7815,34.8395173 L125.347974,42.7187152 C130.776105,42.8235733 136.313677,42.6293831 141.77649,42.1916711" id="path34" fill="#1E513D"></path>
                        <path d="M123.989207,42.7028832 C118.539496,36.9810401 111.973022,33.7299025 104.205778,33.4902814 C104.843928,36.1137234 105.565315,38.6552521 106.925624,40.9611368 C112.299805,41.9762951 118.06782,42.5307966 123.989207,42.7028832" id="path36" fill="#1E513D"></path>
                        <path d="M125.270132,81.5759588 C116.117145,81.462764 112.397685,77.4451142 109.917531,72.8329623 C107.501346,68.3408122 104.529477,66.8888598 100.153369,66.0704921 C100.099419,64.2367367 100.598071,61.4161217 101.468976,59.5963626 C106.764545,60.425132 109.629284,59.527375 112.032367,57.6651679 C115.141423,55.2628382 117.855874,53.3874761 125.626972,53.4843035 C133.394987,53.5811309 135.21464,55.5517143 138.450093,57.7828752 C140.95568,59.5055009 143.866663,60.2464678 149.107511,59.1269867 C150.077068,60.8974907 150.732944,63.6861359 150.781499,65.5181322 C146.459341,66.5768858 143.40963,68.1543468 141.066663,72.684203 C138.659727,77.3342139 134.424659,81.6906832 125.270132,81.5759588 L125.270132,81.5759588 Z M144.568012,23.7832173 C129.965315,27.8060679 99.5144484,28.1167417 76.7310963,15.369174 C80.9749498,12.9025986 85.462811,10.9905247 90.1865103,9.64465404 C109.891327,4.63648108 130.313677,9.87616796 144.568012,23.7832173 Z M145.399611,79.7870224 C148.90096,73.5153433 155.218493,72.0514595 161.314061,70.2295589 C160.357607,79.6883594 157.149129,88.9726257 151.700189,96.8396628 C137.844313,116.631923 114.29518,125.612552 90.5895931,119.335595 C73.687397,115.280469 57.0279755,99.7811974 51.9011933,83.0880269 C60.8715977,87.2211659 69.7166842,91.0552567 79.2462408,93.917249 C80.7714816,94.4725153 82.7722523,94.9490041 83.4142561,96.7769468 C84.8616549,102.476457 77.221578,109.851709 83.301732,112.995158 C91.7926759,116.494254 104.027743,117.38375 108.455489,117.07017 C109.908282,116.965389 110.903273,116.144726 111.569169,115.574164 C120.506355,107.581694 129.861268,97.1134718 135.15992,88.6575159 C138.43622,87.8835084 142.228898,85.4589986 145.399611,79.7870224 Z M182.922539,40.2187167 C160.892482,45.9961629 131.058186,50.703689 105.165315,45.7284726 C100.483234,44.5154529 99.0473964,38.015931 98.0346796,33.7299025 C97.539882,31.521763 98.6473964,30.8318867 99.9576083,30.8662276 C119.468205,33.2219792 141.451249,33.4813329 160.913291,24.7475909 C162.563387,23.7832173 162.878609,21.8251006 162.217337,20.4484073 C161.56069,19.0756147 159.791133,18.1455819 157.818108,18.9026102 C153.868975,20.5748336 151.757992,21.345017 147.684775,22.7016718 C132.145661,6.96383456 109.568398,1.06000792 87.865123,7.41646071 C80.1764913,9.96190535 73.1259327,14.01642 66.3192276,18.8643688 C71.7647766,22.5991846 78.2088612,25.7443168 83.6470114,27.8060679 C86.1425797,28.8027174 86.4901712,31.6241737 85.7834275,33.4902814 C85.0697474,35.3718387 82.5572234,36.5902122 79.9244681,35.7993784 C75.0698247,34.3399306 65.8682835,29.9989108 57.6668194,24.5883534 C56.7325612,25.2080183 51.3788812,28.7522386 51.3788812,28.7522386 C62.141116,36.3461551 73.9146802,42.4259384 88.1179169,46.9551828 C90.0084756,47.564599 91.6269727,50.3969159 90.7452771,52.8045994 C89.8843908,55.1722824 87.2816934,56.3583801 84.8200364,55.6652915 C70.8305955,51.7329202 57.1122144,43.4324542 43.2493245,34.1236368 L36.9222341,38.2606 C54.5454322,50.3419246 72.4725993,59.6940314 92.8978782,65.4162569 C94.9410381,65.965634 96.4323675,68.8194426 95.6362211,71.1569148 C94.9764909,73.0935398 92.8639668,74.8711567 90.0269727,74.1845692 C67.6839289,68.7919087 48.136415,56.3814015 28.6714444,43.8223643 L22.5072056,47.7988663 C53.0229659,69.3366204 86.6805373,83.1400353 124.093253,88.3990035 C125.497492,88.6598104 125.719457,89.5370699 125.184583,90.3072533 C123.261654,93.0812902 114.457801,104.54838 107.489015,110.193587 C101.381886,110.413858 94.890171,109.748457 90.2134852,108.251685 C89.5899785,107.993173 89.2762983,107.37519 89.5899785,106.601948 C91.5552964,101.719276 93.9021171,95.2059868 89.7957588,91.233462 C89.054333,90.4778103 87.5113658,89.5340106 86.5025027,89.2104877 C60.9519831,81.0214573 36.7617717,69.5767769 14.654412,53.2028462 L8.48716742,57.1763653 C20.9038145,66.6354717 34.4382265,74.1077803 48.0566462,81.0214573 C53.5811162,100.973567 73.4462409,119.890097 94.1919052,122.990716 C117.659342,127.283704 140.729091,117.825057 154.4262,97.6343208 C159.95067,89.1294158 163.23699,79.7495457 164.194986,69.4157802 C175.539109,65.8643705 186.44778,60.9130168 191.957606,57.4055083 C194.24277,55.9529439 194.474754,54.1559003 193.589976,52.2491802 C189.284774,54.1741033 182.801537,56.7721529 178.810786,57.8521688 C178.203464,58.0179838 177.49672,58.1969539 176.941807,57.7153407 C174.312134,56.0112239 169.666277,50.9107284 166.519456,46.8412996 C169.04277,46.0107712 171.813483,46.0962026 173.544504,46.6462681 C175.277838,47.1968689 177.653175,48.2720663 179.737953,49.9424541 C182.777645,49.0309302 186.139494,47.7626898 189.027356,46.525272 C187.492096,44.6950348 185.112134,42.3524383 182.922539,40.2187167 L182.922539,40.2187167 Z" id="path38" fill="#1E513D"></path>
                        <path d="M135.217723,67.614836 C135.286316,62.3978569 131.076683,58.1145053 125.818879,58.0485005 C120.560305,57.9830311 116.246625,62.1603008 116.180344,67.3778918 C116.113292,72.594259 120.322926,76.8768458 125.580729,76.9441508 C130.83622,77.0068668 135.151442,72.8329623 135.217723,67.614836" id="path40" fill="#1E513D"></path>
                    </g>
                </g>
            </g>
        </g>
    </g>
</svg>