<svg width="200" height="200" viewBox="0 0 200 200" fill="none" xmlns="http://www.w3.org/2000/svg">
<path d="M44.5847 96.9492H22.1543L14.321 104.576L11.6638 116.722H9.24826L4.96924 126.902H9.45531L6.0735 142.328H17.5302L20.912 126.902H33.197L29.8151 142.328H41.824L50.106 104.576L44.5847 96.9492ZM24.846 109.545L26.8474 107.267H35.9576L37.1654 109.545L35.578 116.757H23.2586L24.846 109.545Z" fill="white"/>
<path d="M72.5365 96.9492H56.7318L59.941 101.608L51.0034 142.328H66.9807L63.5644 137.876L72.5365 96.9492Z" fill="white"/>
<path d="M114.326 112.927L116.224 104.299L110.323 96.9492H81.6809L73.3989 135.115L79.0583 142.328H100.971L109.529 134.839L111.461 126.074H99.7977L98.5209 130.181L96.2779 132.01H87.9614L86.3395 129.594L91.2052 107.543H102.8L103.87 109.407L103.076 112.927H114.326Z" fill="white"/>
<path d="M38.2351 120.035H19.1865L21.8091 108.026L25.3635 103.988H37.9245L40.6161 109.061L38.2351 120.035ZM27.365 113.444H32.9208L33.5419 110.545H28.3312L27.8826 111.062L27.365 113.444Z" fill="black"/>
<path d="M44.4811 145.606H25.7086L29.0904 130.181H23.5346L20.1528 145.606H1.96697L5.34877 130.181H0L7.07418 113.41H9.04115L11.3532 102.885L20.843 93.6367H46.241L53.6258 103.817L44.4811 145.606ZM33.9216 139.015H39.2013L46.5861 105.3L42.8937 100.228H23.5001L17.3576 106.232L14.3209 120.035H11.4567L9.93836 123.624H13.5272L10.1454 139.015H14.8385L18.2203 123.59H37.2689L33.9216 139.015ZM38.2351 120.035H19.1866L21.8092 108.027L25.3635 103.989H37.9245L40.6162 109.062L38.2351 120.035ZM27.365 113.444H32.9208L33.542 110.546H28.3312L27.8826 111.063L27.365 113.444Z" fill="#FFB71B"/>
<path d="M73.675 145.606H46.9312L56.4209 102.298L50.451 93.6367H76.6427L67.1185 137.083L73.675 145.606ZM55.1096 139.015H60.3203L60.0443 138.67L68.4643 100.228H63.012L63.4951 100.918L55.1096 139.015Z" fill="#FFB71B"/>
<path d="M102.179 145.606H77.4367L69.8794 135.909L79.0241 93.6367H111.91L119.778 103.437L116.983 116.171H99.0043L100.178 110.787H93.8281L89.9287 128.663H95.1049L95.657 128.214L97.3479 122.727H115.499L112.497 136.599L102.179 145.606ZM80.646 139.015H99.729L106.562 133.045L107.39 129.353H102.283L101.42 132.079L97.5205 135.288H86.2363L82.889 130.25L88.5828 104.231H104.767L107.39 108.855L107.217 109.614H111.703L112.704 105.128L108.805 100.228H84.4074L76.9536 134.322L80.646 139.015Z" fill="#FFB71B"/>
<path d="M36.4406 117.826H21.9126L23.8451 109.026L26.3642 106.162H36.6131L38.304 109.371L36.4406 117.826ZM24.6387 115.652H34.6806L35.9919 109.716L35.3018 108.405H27.3649L25.881 110.096L24.6387 115.652Z" fill="white"/>
<path d="M42.7209 143.43H28.469L31.8508 128.005H21.7744L18.3926 143.43H4.69283L8.07463 128.005H3.3125L8.52324 115.616H10.7663L13.3199 103.987L21.7054 95.8086H45.1365L51.2789 104.298L42.7209 143.43ZM31.1951 141.221H40.961L48.9324 104.815L43.9977 98.0171H22.6026L15.3214 105.126L12.5607 117.825H10.0071L6.6598 125.796H10.8353L7.45349 141.221H16.6672L20.049 125.796H34.6114L31.1951 141.221ZM36.4404 117.825H21.9124L23.8449 109.025L26.364 106.161H36.6129L38.3038 109.37L36.4404 117.825ZM24.6386 115.651H34.6805L35.9918 109.715L35.3016 108.404H27.3647L25.8809 110.095L24.6386 115.651Z" fill="white"/>
<path d="M69.2234 143.433H49.6572L58.7674 101.85L54.6264 95.8457H73.9165L64.7718 137.635L69.2234 143.433ZM52.3834 141.224H64.7718L62.4253 138.153L71.2249 98.0542H58.8364L61.1485 101.402L52.3834 141.224Z" fill="white"/>
<path d="M101.351 143.433H78.5061L72.2256 135.392L80.7836 95.8457H110.84L117.362 104.024L115.154 114.032H101.661L102.627 109.58L102.11 108.648H91.9988L87.4437 129.388L88.4444 130.906H95.7947L97.4856 129.526L98.9004 124.971H112.704L110.426 135.427L101.351 143.433ZM79.5758 141.224H100.522L108.494 134.253L110.047 127.179H100.591L99.4526 130.837L96.6574 133.149H87.3402L85.1662 129.871L90.2734 106.509H103.421L105.008 109.269L104.422 111.858H113.394L114.981 104.611L109.771 98.0887H82.5435L74.5721 134.874L79.5758 141.224Z" fill="white"/>
<path d="M44.5842 96.9512H22.1538L14.3205 104.577L11.6633 116.724H9.24777L4.96875 126.904H9.45482L6.07301 142.329H17.5297L20.9115 126.904H33.1965L29.8147 142.329H41.8235L50.1055 104.577L44.5842 96.9512ZM35.5775 116.724H23.2581L24.8455 109.547L26.847 107.269H35.9571L37.1649 109.547L35.5775 116.724Z" fill="black"/>
<path d="M56.7318 96.9492H72.5365L63.5644 137.876L66.9807 142.328H51.0034L59.941 101.608L56.7318 96.9492Z" fill="black"/>
<path d="M81.6809 96.9492H110.323L116.224 104.299L114.326 112.927H103.076L103.939 109.545L102.8 107.543H91.2052L86.3395 129.594L87.9614 132.01H96.2779L98.5209 130.181L99.7977 126.074H111.461L109.529 134.839L100.971 142.328H79.0583L73.3989 135.115L81.6809 96.9492Z" fill="black"/>
<path d="M199.388 50.8106C198.767 50.1204 197.835 49.8444 196.8 50.0859C196.075 50.2239 195.385 50.6035 194.799 51.1557L153.389 90.1499C153.837 88.183 154.148 85.9054 153.734 84.2145C153.044 81.5919 148.489 78.7277 145.693 77.2094C144.865 75.8981 143.865 74.9318 142.726 74.3452C143.519 73.586 144.21 72.9994 144.727 72.6198C146.798 71.1359 153.354 70.1007 158.358 69.6866C158.6 69.6521 158.841 69.583 159.014 69.4795C160.532 68.5478 161.05 66.7189 160.463 64.5103C160.256 63.7512 159.531 63.268 158.738 63.3716C155.252 63.8892 146.108 67.2365 143.416 68.7894C142.381 69.376 140.828 71.0324 138.619 73.8276C137.826 74.0001 136.997 74.3452 136.169 74.8973C134.685 74.7938 133.098 74.8283 131.442 75.0008C132.166 74.1381 133.305 73.4825 134.375 72.8613C135.41 72.2747 136.342 71.7226 137.032 70.9634C138.274 69.5485 137.584 67.478 136.721 66.5463C135.997 65.7526 135.41 66.0632 135.238 66.1667C134.237 66.8569 133.374 67.6851 132.201 68.8239C131.683 69.307 131.097 69.8591 130.406 70.5148C129.337 71.481 128.267 73.2409 127.197 75.76C122.746 76.7953 118.915 78.6587 117.397 80.4876C116.258 81.9025 116.154 83.4899 116.465 84.6286C116.396 84.7322 116.327 84.8012 116.292 84.9047C99.7976 74.0346 99.0039 73.655 98.6243 73.448C97.8996 73.1029 97.1404 72.8958 96.5193 72.9303C95.5876 72.9994 94.9664 73.517 94.8629 74.3107C94.7594 75.1389 95.1045 75.8981 97.2785 78.5897C98.4863 80.1081 99.9011 81.799 101.316 83.3173C105.629 88.0449 109.322 91.1162 112.359 92.531C109.977 99.4327 110.633 105.851 113.946 107.611C114.049 107.68 114.153 107.715 114.257 107.784C113.083 107.818 111.737 108.163 110.909 109.475C109.598 111.58 110.875 113.926 111.392 114.754C111.323 115.134 111.22 115.755 111.323 116.411C111.461 117.377 111.979 118.585 113.566 119.275C113.704 120.207 114.222 120.966 115.085 121.449C116.603 122.312 118.915 122.208 120.951 121.138C121.917 121.483 123.574 121.794 125.61 120.897C127.577 120 128.543 118.171 129.026 116.756L130.613 117.48L131.304 120.207C129.682 120.483 125.955 121.345 122.297 123.761L122.435 124.141C121.365 124.624 119.64 125.624 119.088 127.074C119.019 127.143 118.915 127.246 118.846 127.315C117.914 128.282 117.19 129.075 117.569 129.8C117.673 129.972 117.88 130.214 118.121 130.456C117.19 130.801 116.292 131.387 115.913 132.284C115.533 133.113 115.671 134.044 116.258 135.08C118.639 139.083 123.85 138.185 125.506 137.426C126.265 137.047 127.611 136.115 128.888 134.942C128.923 134.942 128.957 134.976 129.026 135.011C128.405 135.701 127.784 136.494 127.439 137.185C126.507 137.15 124.989 137.426 123.781 138.599C122.987 138.634 121.71 138.91 120.433 140.187C119.916 140.256 118.915 140.256 117.017 140.014C115.533 139.807 114.188 140.152 113.256 140.981C112.255 141.843 111.703 143.155 111.634 144.88C111.565 146.502 112.117 147.917 113.187 148.917C114.326 149.987 115.982 150.539 117.983 150.539C118.397 150.539 118.846 150.505 119.295 150.47C123.125 150.022 125.437 147.434 126.403 144.983C127.749 144.811 129.785 144.397 131.269 143.534C131.373 143.5 131.614 143.5 131.787 143.465C132.822 143.362 134.582 143.155 136.1 142.223L136.169 142.43L136.928 142.085C136.963 142.05 141.967 139.738 146.039 133.872C156.943 130.904 162.05 125.866 164.155 123.105C164.431 122.76 164.431 122.277 164.155 121.897C163.879 121.552 163.431 121.38 163.017 121.552C158.841 123.036 154.562 123.795 150.352 123.795C150.352 123.795 150.352 123.795 150.318 123.795C150.559 122.588 150.732 121.38 150.835 120.103C155.045 120.069 158.91 118.723 161.395 116.445C163.086 117.17 164.949 117.204 166.882 116.583C172.161 114.858 172.127 107.439 172.058 106.058C172.437 105.334 173.749 102.607 173.645 99.6052C174.301 99.5017 174.922 99.3981 175.543 99.2601C182.169 97.8453 188.001 86.9752 188.656 85.7674C189.001 85.1117 188.932 84.3526 188.449 83.8694C188.07 83.4899 187.552 83.3173 186.965 83.4208C186.827 83.4553 186.689 83.4899 186.551 83.5244L177.165 87.0442C180.823 85.1117 184.239 83.0412 186.793 81.0398C191.003 77.727 194.557 71.412 197.594 61.7497C198.733 58.1608 199.492 54.9861 199.871 53.4332C200.147 52.3635 199.975 51.4317 199.388 50.8106ZM131.649 131.663L131.58 131.698C131.58 131.698 131.58 131.698 131.58 131.663H131.649Z" fill="white"/>
<path d="M198.837 51.2965C198.388 50.8134 197.698 50.6063 196.939 50.7788C196.352 50.9169 195.8 51.2275 195.283 51.6761L152.009 92.4303C153.045 89.1865 153.493 86.1843 153.01 84.3898C152.355 81.8707 147.282 78.903 145.142 77.7643C144.314 76.4184 143.106 75.1071 141.381 74.624C142.451 73.5543 143.486 72.6225 144.28 72.0359C147.144 69.9999 156.806 69.1027 158.255 68.9647C158.393 68.9647 158.497 68.9302 158.601 68.8611C160.291 67.7914 160.015 65.7554 159.739 64.6857C159.636 64.2716 159.256 64.03 158.842 64.099C155.322 64.6166 146.316 67.9294 143.762 69.4133C142.658 70.0689 140.829 72.1739 139 74.486C138.068 74.624 137.171 75.0381 136.343 75.6248C134.238 75.4522 131.995 75.5902 129.855 75.9353C130.2 75.4522 130.511 74.9691 130.821 74.5895C132.305 72.7261 135.169 71.9324 136.481 70.483C137.827 68.9647 136.101 66.4456 135.653 66.7561C134.272 67.7224 133.064 69.0337 130.856 71.0352C129.614 72.1394 128.509 74.3825 127.681 76.3494C123.195 77.3502 119.365 79.1791 117.915 80.939C116.88 82.2158 116.811 83.7342 117.225 84.7694C116.949 85.149 116.673 85.5286 116.431 85.9082C99.4189 74.693 98.5907 74.2789 98.2801 74.1064C97.659 73.7958 97.0379 73.6578 96.5547 73.6578C96.0026 73.6923 95.623 73.9684 95.5885 74.417C95.5195 74.9346 95.6575 75.4522 97.8315 78.1784C99.0393 79.6967 100.489 81.3876 101.835 82.8715C107.494 89.083 111.048 91.2915 113.257 92.1542C110.738 98.9868 111.221 105.371 114.292 106.958C115.051 107.372 115.914 107.579 116.811 107.614L116.431 108.787C116.431 108.787 112.981 107.614 111.566 109.822C110.22 111.962 112.221 114.55 112.221 114.55C112.221 114.55 111.186 117.725 114.326 118.726C114.326 121.452 118.019 122.004 120.987 120.313C121.78 120.658 123.368 121.107 125.369 120.209C127.233 119.381 128.199 117.449 128.613 115.723L131.305 116.931L132.271 120.761C132.271 120.761 127.44 121.245 122.781 124.316C123.057 124.281 123.437 124.316 123.816 124.35C123.713 124.385 123.644 124.419 123.54 124.454C123.54 124.454 120.331 125.593 119.813 127.387C119.261 128.008 118.122 129.078 118.295 129.423C118.398 129.665 119.089 130.286 119.71 130.734C118.295 131.045 115.396 131.977 116.984 134.668C119.054 138.119 123.747 137.463 125.3 136.739C126.542 136.152 129.993 133.53 131.132 131.148L132.581 130.527L133.513 131.287L129.269 134.254C129.269 134.254 129.683 134.461 130.304 134.806C129.648 135.497 128.268 137.049 127.992 137.981C127.509 137.843 125.611 137.809 124.196 139.327C123.506 139.292 122.229 139.465 120.918 140.88C120.365 140.983 119.261 141.018 117.053 140.742C114.879 140.466 112.601 141.397 112.463 144.917C112.325 148.437 115.293 150.197 119.33 149.748C122.815 149.334 125.128 146.884 125.99 144.331C127.44 144.158 129.614 143.778 131.063 142.881C131.408 142.64 134.583 142.847 136.619 141.018C136.653 141.156 136.722 141.294 136.757 141.432C137.861 140.914 142.244 138.395 145.729 133.253C150.698 131.908 158.98 128.871 163.708 122.659C163.88 122.452 163.639 122.142 163.397 122.245C161.016 123.108 155.978 124.695 149.559 124.523C149.939 122.936 150.181 121.245 150.284 119.416C154.287 119.519 158.67 118.346 161.361 115.62C162.811 116.379 164.639 116.655 166.779 115.93C172.024 114.205 171.438 105.923 171.438 105.923C171.438 105.923 173.37 102.541 172.99 99.0213C173.128 99.0213 173.266 98.9868 173.405 98.9868C174.129 98.8833 174.785 98.7798 175.51 98.6072C181.928 97.2269 187.863 85.9772 188.14 85.4596C188.347 85.08 188.312 84.6659 188.036 84.4244C187.829 84.2173 187.518 84.1483 187.208 84.1828C187.104 84.1828 187.035 84.2173 186.932 84.2518L165.088 92.4303C164.225 92.4648 163.501 92.6373 163.087 92.7408C169.229 90.3598 180.134 85.4941 186.483 80.4904C190.417 77.2466 193.937 71.0352 196.974 61.4419C198.112 57.8875 198.872 54.7473 199.217 53.1599C199.389 52.4352 199.251 51.7451 198.837 51.2965ZM158.773 64.7892C159.498 64.8582 159.498 66.8597 159.015 67.5843C158.946 66.4801 159.153 65.2378 157.634 65.4103C156.116 65.6174 144.28 69.7584 144.28 69.7584C144.28 69.7584 156.357 64.3751 158.773 64.7892ZM135.756 67.5498C136.067 67.5843 136.412 68.2745 136.412 69.1027C135.998 68.7921 136.377 66.7907 130.58 72.0704C130.58 72.0359 135.445 67.4808 135.756 67.5498ZM119.537 129.389L119.192 129.112C119.192 129.112 120.296 128.112 120.503 127.939C120.607 126.041 124.506 124.937 124.506 124.937C126.163 124.971 127.302 125.834 127.992 126.904C127.819 127.042 127.578 127.249 127.267 127.422C126.542 127.836 125.438 128.25 123.747 128.388C123.747 128.388 125.99 128.457 127.578 127.87C127.854 127.767 128.13 127.629 128.337 127.491C128.406 127.663 128.475 127.836 128.544 127.974C128.682 128.388 128.751 128.802 128.785 129.216C128.82 129.734 128.751 130.251 128.613 130.631C128.578 130.734 128.509 130.838 128.475 130.941C128.406 131.045 128.371 131.114 128.302 131.183C127.06 132.184 124.92 131.908 123.402 131.528C122.332 131.252 121.539 130.907 121.539 130.907L123.506 130.01L120.918 130.251L120.676 130.286L119.537 129.389ZM126.301 134.841C125.852 135.186 125.369 135.531 124.886 135.738C122.263 137.049 118.191 135.289 117.777 133.564C117.536 132.529 118.882 131.804 120.02 131.39C120.227 131.321 120.4 131.252 120.572 131.183C121.125 131.356 122.091 131.701 122.919 132.08L122.505 132.253L121.918 132.46L122.436 132.632L122.815 132.356L123.092 132.149C123.195 132.184 123.299 132.253 123.368 132.287C123.644 132.425 124.196 132.529 124.886 132.563L124.437 132.943L124.403 132.977L123.437 133.806L123.195 133.771C122.677 133.184 121.849 132.632 120.434 132.598C120.434 132.598 121.573 132.839 122.677 133.702L122.988 133.944C123.299 134.22 123.575 134.53 123.851 134.91C123.851 134.91 123.816 134.737 123.678 134.461L124.679 133.046L124.713 133.012L125.059 132.529C125.128 132.529 125.162 132.529 125.231 132.529C125.714 132.667 126.266 132.77 126.922 132.736C127.612 132.736 128.233 132.632 128.785 132.46C128.026 133.288 127.164 134.151 126.301 134.841ZM131.063 130.389L130.752 130.493L130.545 130.562L130.476 130.596L130.2 130.7H130.166L129.648 130.872C129.683 130.769 129.683 130.7 129.717 130.596C129.717 130.527 129.752 130.458 129.752 130.389C129.821 130.01 129.855 129.665 129.855 129.32C129.855 129.285 129.855 129.285 129.855 129.251C129.855 129.181 129.855 129.112 129.855 129.043C129.855 128.733 129.821 128.457 129.752 128.181C129.717 128.077 129.717 127.974 129.683 127.87C129.648 127.801 129.648 127.732 129.614 127.663C129.51 127.353 129.407 127.076 129.234 126.8C129.234 126.766 129.2 126.766 129.2 126.731C129.13 126.628 129.096 126.524 129.027 126.455C128.647 125.903 128.164 125.455 127.647 125.11C126.887 124.592 126.059 124.316 125.507 124.178C125.404 124.143 125.266 124.109 125.197 124.109C124.955 124.04 124.541 124.04 124.541 124.04L125.266 123.626C129.959 124.247 130.994 127.353 131.166 129.112C131.166 129.181 131.166 129.251 131.166 129.32C131.201 129.941 131.132 130.355 131.132 130.355L131.063 130.389ZM154.425 106.82C154.632 106.82 154.874 106.786 155.081 106.751C155.115 106.717 156.875 108.235 157.496 110.789C157.496 110.823 157.531 110.858 157.531 110.892C157.531 110.927 157.565 110.996 157.565 111.03C153.217 109.822 152.182 107.407 151.94 106.441C152.769 106.751 153.597 106.889 154.425 106.82ZM137.827 107.752C136.722 109.408 135.756 110.34 134.928 110.823C132.926 111.996 131.719 110.513 131.235 109.65C131.615 109.615 132.098 109.546 132.719 109.374C133.996 109.063 135.722 108.511 137.551 107.786L137.827 107.752ZM122.608 111.03C122.643 111.03 122.643 111.03 122.608 111.03L122.574 110.927L122.091 109.201C122.091 109.201 122.608 114.205 118.847 113.101C116.673 112.48 117.122 109.477 117.639 107.579C118.226 107.545 118.813 107.441 119.434 107.269C119.503 107.269 119.537 107.234 119.572 107.234C119.606 107.234 119.606 107.234 119.641 107.234C120.193 107.096 120.4 107.027 120.4 107.027C120.4 107.027 120.918 107.234 121.711 107.372C122.47 107.51 123.471 107.579 124.472 107.407C124.575 107.372 124.679 107.372 124.782 107.338C124.955 107.303 125.128 107.234 125.3 107.2C125.3 107.2 125.3 107.2 125.335 107.234C125.335 107.269 125.335 107.338 125.335 107.372C125.335 107.372 125.335 107.372 125.335 107.407V107.441C125.3 107.683 125.266 107.924 125.231 108.131C125.197 108.27 125.197 108.442 125.162 108.58C125.128 108.718 125.128 108.822 125.093 108.96C124.99 109.443 124.851 109.891 124.748 110.271C124.058 112.238 123.161 112.79 123.161 112.79L122.954 112.031L122.815 111.582L122.746 111.375L122.608 111.03ZM114.534 92.5683C114.603 92.3267 114.706 92.1197 114.775 91.9126C115.465 90.1182 116.224 88.4963 116.88 87.3576C117.053 87.047 117.225 86.7709 117.398 86.5294C117.605 86.2188 117.812 85.9772 117.95 85.8047C118.605 86.4603 119.537 87.116 119.537 87.116C118.157 84.2863 118.26 81.4912 121.953 79.8693C123.609 79.1446 125.335 78.558 127.025 78.0403C127.612 77.8678 128.233 77.6953 128.82 77.5227C131.719 76.729 134.341 76.2459 135.894 76.0043C132.961 78.2819 130.787 82.3194 130.787 82.3194C133.271 79.3171 135.342 77.9023 136.929 77.2121C138.137 76.6945 139.069 76.5565 139.656 76.453H139.69C143.21 75.8663 146.661 81.5602 146.661 81.5602C146.661 81.5602 146.454 80.4904 145.867 79.1791C146.35 79.4897 147.109 79.9728 147.868 80.5594C149.594 81.8362 151.561 83.6307 151.906 85.2871C152.216 86.8399 151.492 90.0837 150.388 93.2239C148.973 93.638 147.592 94.8113 146.937 97.5375C146.695 98.5382 146.626 99.5044 146.73 100.367C145.763 101.368 144.107 102.541 142.175 103.68C140.173 104.853 137.896 105.957 135.756 106.717C135.722 106.717 135.722 106.717 135.687 106.751C135.515 106.82 135.342 106.855 135.169 106.924C135.135 106.924 135.1 106.958 135.066 106.958C134.997 106.993 134.893 106.993 134.824 107.027C134.272 107.2 133.72 107.372 133.168 107.476C132.65 107.545 131.891 107.786 130.994 107.959C129.648 108.166 128.026 108.235 126.404 107.062C127.336 106.751 128.268 106.441 128.958 106.234C129.648 106.026 130.097 105.888 130.097 105.888C130.097 105.888 127.888 106.372 125.645 106.613C124.782 106.717 123.954 106.751 123.195 106.717C122.919 106.717 122.677 106.682 122.436 106.648C122.332 106.648 122.263 106.613 122.16 106.613H122.125C122.091 106.613 122.056 106.613 122.022 106.579C121.953 106.544 121.884 106.544 121.78 106.51H121.815C121.884 106.475 121.953 106.441 122.022 106.406C122.47 106.199 122.885 105.957 123.333 105.681C123.471 105.612 123.609 105.509 123.747 105.44C123.851 105.405 123.92 105.371 124.023 105.302C131.822 101.54 141.174 99.3664 144.349 98.6762C145.073 98.5382 145.487 98.4347 145.487 98.4347H145.453C145.384 98.4347 145.28 98.4347 145.211 98.4347C145.177 98.4347 145.142 98.4347 145.108 98.4347C144.866 98.4347 144.625 98.4347 144.349 98.4347C144.556 95.536 143.348 94.0176 142.796 93.4655C144.659 93.431 145.901 94.0521 145.901 94.0521C141.415 89.6006 131.65 96.7783 127.888 100.471C127.44 100.919 126.956 101.333 126.439 101.713C124.506 103.231 122.298 104.577 120.262 105.336C119.261 105.716 118.295 105.957 117.432 106.026C116.604 106.096 115.845 105.992 115.189 105.716C111.876 103.473 112.808 97.4685 114.534 92.5683ZM142.727 95.1564L135.998 98.2967L140.898 96.7783L143.348 96.0191C143.348 96.0191 143.555 96.8128 143.555 97.71C143.555 97.71 143.555 97.71 143.141 97.7445C141.07 98.0896 133.927 99.4009 128.199 102.196C128.199 102.196 129.89 100.747 132.202 99.0903C135.238 96.8818 139.31 94.2592 141.864 93.9831C141.864 93.9831 142.002 94.1212 142.14 94.2937C142.313 94.4317 142.727 95.1219 142.727 95.1219V95.1564ZM103.387 82.6299C100.178 78.903 97.728 75.4177 98.1421 75.6248C98.7978 75.9353 109.116 82.4229 115.879 86.7019C114.913 88.2548 114.119 89.8421 113.498 91.4295C110.324 90.0492 106.597 86.3568 103.387 82.6299ZM112.877 113.687C111.566 112.065 111.359 108.097 116.259 109.546C116.259 109.546 116.224 109.822 116.19 110.271C116.19 111.375 116.466 113.48 118.675 114.239C119.641 114.585 120.4 114.481 120.987 114.239C121.194 114.17 121.332 114.067 121.504 113.963C121.815 113.756 122.022 113.515 122.125 113.342C122.194 113.273 122.229 113.204 122.229 113.135C122.781 113.308 122.643 114.999 121.228 115.792C121.09 115.861 120.952 115.93 120.814 115.999C120.538 116.103 120.227 116.172 119.882 116.206C117.225 116.448 114.188 115.344 112.877 113.687ZM120.434 119.692C120.193 119.83 119.917 119.933 119.641 120.002C119.537 120.037 119.399 120.071 119.296 120.071C114.603 120.831 114.982 118.208 114.982 118.208C114.982 118.208 112.498 117.242 113.015 114.999C113.015 114.999 114.361 116.137 116.362 116.724C117.639 117.104 119.158 117.242 120.78 116.759C120.918 116.724 121.021 116.69 121.159 116.621C121.401 116.551 121.608 116.448 121.849 116.344C121.918 116.31 121.573 116.724 121.09 117.207C120.987 117.311 120.849 117.414 120.71 117.518C120.4 117.759 120.055 118.001 119.744 118.139C120.089 118.173 120.365 118.139 120.676 118.07C120.78 118.035 120.883 118.001 120.987 117.966C121.746 117.69 122.298 117.207 122.608 116.931C122.608 117.828 121.987 118.76 121.09 119.381C120.849 119.485 120.641 119.588 120.434 119.692ZM126.094 117.725C125.404 118.691 124.23 119.105 123.161 119.278C122.815 119.312 122.505 119.347 122.229 119.381C124.541 117.276 123.161 114.136 123.161 114.136C123.161 114.136 123.816 113.239 124.575 112.065C124.748 112.272 125.093 112.687 125.335 113.273C125.576 113.791 125.749 114.412 125.749 115.171C126.094 114.343 125.99 113.446 125.783 112.652C125.611 111.996 125.3 111.41 125.093 111.134C125.266 110.858 125.404 110.582 125.542 110.34L126.232 112.065L127.164 114.446C127.06 115.758 126.646 116.966 126.094 117.725ZM131.166 110.961C134.514 115.654 139.207 107.269 139.207 107.269L139.552 107.131L141.277 106.475C140.76 107.338 140.277 108.062 139.794 108.753C133.306 118.104 131.166 110.961 131.166 110.961ZM113.843 145.607C113.843 145.573 113.843 145.538 113.809 145.504C113.119 142.019 116.259 141.535 117.881 141.501C119.503 141.466 120.745 142.019 121.677 140.949C122.263 140.259 123.092 140.052 123.575 139.983C123.437 140.224 123.264 140.5 123.161 140.811C122.815 141.087 121.78 142.502 121.78 142.502C121.78 142.502 121.504 143.088 121.815 143.64C122.332 144.503 123.885 144.331 124.61 144.331C124.748 144.331 124.955 144.331 125.231 144.296C123.471 148.886 114.913 150.301 113.843 145.607ZM136.343 140.293L136.308 140.328C134.859 141.811 131.374 141.95 131.374 141.95L132.616 140.466C132.616 140.466 130.649 141.846 130.511 142.226C129.648 142.916 127.819 143.364 126.128 143.571C125.887 143.606 125.645 143.64 125.404 143.64C124.92 143.675 124.437 143.709 124.023 143.709C123.368 143.709 122.919 143.64 122.746 143.537C122.056 143.088 122.539 142.364 122.539 142.364C122.539 142.364 122.815 142.019 123.092 141.639C123.299 141.397 123.471 141.19 123.609 141.052L124.575 140.638L125.231 140.362L125.369 140.293L125.231 140.328L124.437 140.466L123.816 140.569C123.851 140.466 123.92 140.362 123.954 140.293C123.989 140.224 124.058 140.121 124.092 140.052C124.265 139.776 124.437 139.568 124.644 139.361C126.059 137.947 128.095 138.326 128.371 138.533C128.785 137.084 130.2 135.6 130.787 135.048C130.925 134.91 131.028 134.841 131.028 134.841C131.995 135.22 132.823 135.738 133.513 136.256C133.444 136.394 133.375 136.566 133.237 136.773C133.168 136.877 133.099 137.015 132.995 137.118C132.443 137.809 131.477 138.568 129.717 138.878C129.717 138.878 132.133 139.016 133.548 137.498C133.617 137.429 133.686 137.325 133.755 137.222C133.858 137.084 133.996 136.911 134.065 136.704C135.86 138.188 136.688 139.741 136.688 139.741C136.619 139.983 136.515 140.155 136.343 140.293ZM137.93 139.776C137.136 138.05 135.929 136.808 134.755 135.876C134.617 135.773 134.479 135.669 134.341 135.566C132.581 134.358 131.028 133.909 131.028 133.909L131.719 133.426C136.791 134.772 139.241 138.809 139.241 138.809L137.93 139.776ZM161.051 123.833C161.189 123.798 161.327 123.971 161.223 124.074C161.12 124.178 160.982 124.316 160.878 124.419C158.877 126.386 155.529 128.215 155.529 128.215C155.702 127.87 155.736 127.387 155.702 126.938C155.633 126.041 155.322 125.144 155.322 125.144C156.565 124.937 159.67 124.316 161.051 123.833ZM153.114 125.351C153.217 125.593 153.286 125.8 153.355 126.041C153.7 127.284 153.562 128.353 153.39 128.974C153.286 129.389 153.183 129.665 153.183 129.63C151.63 130.562 147.696 131.563 146.523 131.839C147.454 130.286 148.283 128.56 148.904 126.593C149.007 126.248 149.111 125.903 149.214 125.558C151.285 125.524 153.114 125.351 153.114 125.351ZM147.627 124.695C147.592 124.833 147.523 124.971 147.489 125.11C146.626 125.11 145.591 125.11 144.487 125.075H144.452C141.001 124.902 136.757 124.212 133.789 121.521L133.617 120.761C133.617 120.761 138.206 124.074 147.972 123.281C147.972 123.281 147.903 123.764 147.765 124.35C147.696 124.454 147.661 124.557 147.627 124.695ZM157.6 116.103C157.496 116.137 157.427 116.137 157.324 116.172C153.735 117.069 149.904 115.62 149.145 115.275C149.042 115.24 149.007 115.206 149.007 115.206C149.007 115.206 149.076 115.275 149.18 115.378C149.663 115.792 150.974 116.897 152.838 117.38C151.733 117.621 150.767 117.621 149.904 117.518C149.456 117.449 149.007 117.38 148.593 117.311C144.97 116.068 144.004 113.377 143.727 111.134C143.658 110.616 143.589 109.477 143.969 108.27C144.245 107.303 144.797 106.303 145.832 105.474C146.005 105.336 146.178 105.233 146.35 105.095C146.212 105.405 146.109 105.75 146.04 106.096C145.971 106.475 145.971 106.855 146.005 107.2C146.143 108.925 147.04 110.616 147.73 111.065C147.765 111.065 147.765 111.099 147.799 111.099C146.971 109.374 147.04 107.924 147.351 106.82C147.73 105.474 148.455 104.681 148.455 104.681C148.593 104.646 148.766 104.612 148.904 104.612C149.352 105.06 149.835 105.405 150.353 105.716C150.526 106.372 151.699 109.995 154.908 111.41C156.15 111.962 157.22 112.134 158.014 112.031C158.29 112.583 158.635 113.135 159.118 113.653C158.221 113.825 157.462 113.86 156.841 113.791C155.667 113.722 155.046 113.411 155.046 113.411C155.943 114.136 156.737 114.55 157.462 114.792C158.531 115.137 159.394 115.102 159.981 114.964C159.153 115.551 158.393 115.896 157.6 116.103ZM171.714 101.92C171.576 102.99 171.3 103.887 171.092 104.405C170.885 102.3 170.299 100.574 169.574 99.1594C169.402 98.8488 169.264 98.5727 169.091 98.2967C168.539 97.3994 167.918 96.6403 167.297 96.0191C165.675 94.3627 164.122 93.7071 164.122 93.7071C168.849 93.7761 170.816 95.8466 171.507 98.1931C171.576 98.4692 171.645 98.7798 171.714 99.0558C171.852 100.022 171.817 101.023 171.714 101.92ZM187.07 85.08C187.07 85.08 185.689 87.7371 183.619 90.6013C181.41 93.638 178.408 96.9508 175.337 97.6065C174.44 97.8135 173.612 97.9171 172.783 98.0206C172.438 96.5022 171.61 94.9839 169.919 93.7071C169.022 93.0169 168.056 92.6373 167.159 92.4303L187.07 85.08ZM162.155 93.362C162.293 93.431 162.431 93.5 162.534 93.569C162.776 93.6726 163.018 93.8106 163.259 93.9141C165.192 94.9494 166.675 96.5712 167.78 98.2967C167.952 98.5727 168.125 98.8833 168.297 99.1594C169.954 102.093 170.54 105.129 170.437 105.992C170.437 107.372 170.299 108.546 170.023 109.546L170.057 109.512C170.023 109.65 169.988 109.753 169.919 109.857C169.919 109.891 169.919 109.891 169.885 109.926C169.885 109.926 169.885 109.926 169.885 109.96C168.815 113.032 166.399 114.619 163.673 114.723C162.983 114.757 162.362 114.619 161.844 114.412C160.429 113.86 159.429 112.652 158.842 111.686C158.428 110.996 158.221 110.444 158.186 110.375C158.566 110.616 158.98 110.823 159.36 110.961C160.084 111.237 160.809 111.341 161.292 111.375C161.672 111.41 161.948 111.375 161.948 111.341C161.706 111.306 161.465 111.272 161.223 111.237C160.533 111.065 159.981 110.754 159.463 110.375C158.014 109.27 157.358 107.579 157.358 107.579C157.807 107.614 158.221 107.648 158.635 107.648C158.67 107.648 158.704 107.648 158.704 107.648C158.98 107.648 159.222 107.614 159.498 107.579C162.603 107.165 164.191 105.129 164.191 105.129C162.189 106.096 159.981 106.13 158.428 105.957C158.255 105.923 158.083 105.923 157.945 105.888C157.255 105.785 156.772 105.681 156.53 105.612C156.426 105.578 156.392 105.578 156.392 105.578L156.426 105.543C156.806 105.233 157.048 104.819 157.186 104.37C157.634 102.817 156.806 100.816 156.565 100.264C156.53 100.16 156.496 100.126 156.496 100.126C157.082 99.8495 157.738 99.884 158.324 100.057C159.084 100.298 159.739 100.747 160.119 101.057C160.188 101.126 160.257 101.161 160.291 101.23C160.188 100.747 159.808 100.264 159.463 99.8495C159.153 99.4699 158.842 99.1939 158.739 99.0903C158.739 99.0903 158.739 99.0903 158.739 99.0558C158.117 98.0551 159.084 95.467 159.153 95.4325C157.565 96.1916 157.669 98.4692 157.876 98.5382C156.737 98.2621 156.15 99.2629 156.012 99.1594C155.253 97.6065 154.667 97.3649 154.667 97.3649C154.839 97.6755 155.219 98.4692 155.598 99.3664C155.736 99.6425 155.84 99.953 155.943 100.264C156.185 100.85 156.392 101.437 156.53 101.955C156.634 102.541 156.565 103.093 156.392 103.542C156.219 104.025 155.978 104.405 155.667 104.681C155.564 104.784 155.426 104.888 155.288 104.991C155.15 105.095 154.977 105.198 154.805 105.267C154.46 105.44 154.08 105.509 153.7 105.578H153.666C153.528 105.578 153.424 105.612 153.286 105.612C152.872 105.612 152.493 105.578 152.113 105.509C151.802 105.44 151.492 105.336 151.216 105.233C151.112 105.198 151.043 105.129 150.974 105.095C150.733 104.957 150.491 104.784 150.25 104.577C149.18 103.645 148.455 102.162 148.145 100.609C148.145 100.54 148.11 100.436 148.11 100.367C148.11 100.333 148.076 100.264 148.076 100.229C148.041 99.9876 148.006 99.7805 148.006 99.5389C147.972 99.1594 147.972 98.7798 147.972 98.4347C147.972 98.4002 147.972 98.3657 147.972 98.3312C148.041 96.9163 148.455 95.7085 149.249 95.0529C149.387 94.8458 149.559 94.6733 149.766 94.5353C150.077 94.3282 150.457 94.1902 150.836 94.1212C151.009 94.0867 151.147 94.0867 151.319 94.0521C151.595 94.0521 151.871 94.0521 152.147 94.0867C153.39 94.2247 154.46 94.7078 154.46 94.7078C154.632 94.8458 154.839 94.9148 155.012 94.9839C156.081 95.2599 157.324 94.5698 157.324 94.5698C157.324 94.5698 156.668 94.2247 156.565 94.2247C157.979 92.2577 160.084 92.6373 161.465 93.1894C161.844 93.2239 162.017 93.293 162.155 93.362ZM197.319 53.2979C196.939 54.9888 196.249 57.9911 195.179 61.3729C193.178 67.8604 190.037 75.6248 185.517 79.2136C178.788 84.5624 166.33 89.9112 160.878 91.9471C160.464 91.8091 160.015 91.7056 159.532 91.6711C159.084 91.6366 158.635 91.6711 158.186 91.8091C157.6 92.0162 157.048 92.3957 156.634 93.1204C156.392 93.3965 155.219 93.8796 154.494 93.5C154.321 93.3965 153.873 93.2239 153.286 93.0859L196.352 53.0564C196.801 52.6078 197.422 52.7803 197.319 53.2979Z" fill="black"/>
<path d="M127.957 141.155C129.061 142.328 129.924 142.018 129.924 142.018L128.992 140.672C128.889 141.397 128.647 141.431 127.957 141.155Z" fill="black"/>
<path d="M121.987 145.09L118.951 146.332C118.951 146.332 118.813 144.089 116.432 143.123C116.432 143.123 118.744 144.917 118.157 147.022C118.985 147.057 120.987 145.918 122.16 145.194C122.229 145.159 122.333 145.09 122.402 145.056C122.816 144.779 123.092 144.607 123.092 144.607L122.298 144.952L121.987 145.09Z" fill="black"/>
<path d="M120.883 143.779L121.504 143.606L121.677 143.572C121.677 143.572 121.608 143.572 121.504 143.606C121.366 143.641 121.159 143.675 120.883 143.71C120.193 143.779 119.157 143.813 118.053 143.537C118.364 143.917 118.847 144.365 118.847 144.365L120.883 143.779Z" fill="black"/>
<path d="M130.511 88.3582C131.339 87.8061 132.133 87.1505 132.857 86.4603C132.685 87.323 132.926 88.1167 133.789 88.6343C135.963 89.9456 139.345 87.5991 140.587 85.356C141.346 83.9757 141.243 82.6989 140.587 82.0432C140.208 81.6637 139.587 81.4566 138.827 81.4911C140.035 81.1805 141.312 81.1805 142.416 81.3186C143.935 81.4911 145.039 81.8707 145.039 81.8707C141.105 78.5234 136.136 79.5932 133.03 84.1137C129.924 88.6343 126.542 89.6351 126.542 89.6351C127.992 89.6696 129.303 89.1519 130.511 88.3582ZM136.929 84.9419C136.308 86.0807 134.583 87.2885 133.479 86.5983C133.306 86.4948 133.168 86.3568 133.099 86.2187C133.065 86.1497 133.03 86.0807 133.03 86.0117C134.031 85.011 134.928 83.9412 135.756 83.0095C135.929 82.975 136.067 82.975 136.205 82.975C136.515 82.975 136.791 83.0785 136.929 83.251C137.275 83.5961 137.309 84.2518 136.929 84.9419ZM138.896 82.2503C139 82.3538 139.034 82.5954 138.896 82.8714C138.655 83.2855 138.068 83.6996 137.654 83.4581C137.206 83.182 137.654 82.5264 138.206 82.2503C138.517 82.1123 138.758 82.1123 138.896 82.2503Z" fill="black"/>
<path d="M123.747 88.9798C123.747 88.9453 123.713 88.8763 123.678 88.8418C123.402 88.2897 122.505 87.0819 122.815 85.322C122.884 84.9424 122.988 84.5628 123.195 84.1487C123.195 84.1142 120.641 87.5995 123.747 88.9798Z" fill="black"/>
<path d="M137.344 89.6008C135.273 90.6705 133.962 91.9819 133.962 91.9819C143.659 87.8754 144.97 89.8078 146.764 89.0141C146.109 88.7036 145.488 88.4965 144.867 88.3585C141.968 87.7373 139.311 88.5655 137.344 89.6008Z" fill="black"/>
<path d="M148.869 126.593C148.213 128.56 147.42 130.32 146.488 131.838C147.661 131.562 151.595 130.562 153.148 129.63C153.148 129.664 153.251 129.388 153.355 128.974C153.527 128.353 153.631 127.283 153.32 126.041L148.869 126.593Z" fill="#FFB71B"/>
<path d="M126.094 117.724C126.646 116.93 127.06 115.722 127.232 114.446L126.301 112.064L125.852 112.651C126.059 113.41 126.128 114.342 125.818 115.17C125.818 114.446 125.611 113.79 125.404 113.272L124.299 114.687C124.299 114.687 124.679 117.793 123.229 119.277C124.23 119.139 125.404 118.725 126.094 117.724Z" fill="#FFB71B"/>
<path d="M146.971 97.4335C147.627 94.7074 149.007 93.5341 150.422 93.12C151.526 90.0142 152.251 86.736 151.94 85.1831C151.595 83.5267 149.594 81.7323 147.903 80.4555C147.109 79.8688 146.384 79.3857 145.901 79.0751C146.488 80.3865 146.695 81.4562 146.695 81.4562C146.695 81.4562 143.244 75.7624 139.724 76.349H139.69C139.103 76.4525 138.171 76.5906 136.964 77.1082C135.376 77.7983 133.306 79.2132 130.821 82.2154C130.821 82.2154 132.995 78.1779 135.928 75.9004C134.376 76.1419 131.753 76.6596 128.854 77.4188C128.268 77.5913 127.681 77.7293 127.06 77.9364C125.369 78.454 123.609 79.0406 121.987 79.7653C118.295 81.3872 118.191 84.1824 119.571 87.012C119.571 87.012 118.64 86.3564 117.984 85.7007C117.812 85.8733 117.639 86.1148 117.432 86.4254C117.259 86.667 117.087 86.943 116.914 87.2536C116.259 88.3924 115.5 90.0142 114.809 91.8087C114.74 92.0157 114.637 92.2573 114.568 92.4643C112.842 97.3645 111.911 103.369 115.223 105.474C115.879 105.75 116.638 105.854 117.466 105.785C118.329 105.715 119.295 105.474 120.296 105.094C122.332 104.335 124.541 102.989 126.473 101.471C126.991 101.057 127.474 100.643 127.922 100.229C131.684 96.5708 141.45 89.3931 145.936 93.8102C145.936 93.8102 144.693 93.189 142.83 93.2235C143.417 93.7756 144.59 95.294 144.383 98.1927C144.624 98.1927 144.901 98.1927 145.142 98.1927C145.901 98.1582 146.281 98.1582 146.281 98.1582C141.691 98.8138 127.543 104.611 126.197 105.163C127.577 105.543 131.442 104.956 131.442 104.956C131.442 104.956 131.339 105.232 130.994 105.543C130.649 105.854 130.062 106.268 129.096 106.544C130.096 107.13 133.099 106.82 135.756 106.406C137.895 105.646 140.207 104.542 142.174 103.369C144.107 102.23 145.763 101.057 146.729 100.056C146.66 99.4005 146.729 98.4343 146.971 97.4335ZM123.195 84.1133C123.022 84.5274 122.884 84.9415 122.815 85.2866C122.505 87.0811 123.402 88.2543 123.678 88.8065C123.712 88.8755 123.712 88.91 123.747 88.9445C120.641 87.5987 123.195 84.1133 123.195 84.1133ZM136.135 78.2469C137.067 77.6603 138.102 77.2117 139.103 77.0047C140.38 76.7631 141.657 76.9011 142.934 77.6603C142.934 77.6603 140.863 77.2117 137.619 78.6265C136.688 79.0406 135.687 79.5928 134.583 80.352C133.168 81.3527 131.615 82.664 129.993 84.4584C130.062 84.4584 132.685 80.421 136.135 78.2469ZM134.203 90.6354C131.994 90.2558 130.89 88.9445 130.511 88.3579C129.303 89.1515 127.991 89.6692 126.542 89.6002C126.542 89.6002 129.958 88.5994 133.03 84.0788C136.101 79.5583 141.105 78.4885 145.039 81.8358C145.039 81.8358 143.9 81.4562 142.416 81.2837C143.589 82.0429 145.901 84.1479 144.831 88.3924C145.453 88.5304 146.108 88.7374 146.729 89.048C144.935 89.8417 143.624 87.9092 133.927 92.0157C133.927 92.0157 135.238 90.7044 137.309 89.6347C136.377 89.8762 135.342 90.1868 134.203 90.6354ZM137.826 92.7059C144.831 88.8755 146.971 93.5341 146.971 93.5341C143.382 90.3938 137.826 92.7059 137.826 92.7059Z" fill="#FFB71B"/>
<path d="M132.719 109.407C132.961 109.89 133.616 110.994 134.928 110.856C135.756 110.373 136.722 109.407 137.826 107.785L137.55 107.854C135.687 108.579 133.962 109.096 132.719 109.407Z" fill="#FFB71B"/>
<path d="M157.393 114.861C156.668 114.619 155.874 114.205 154.977 113.48C154.977 113.48 155.633 113.791 156.771 113.86C155.84 112.79 154.287 112.307 153.01 111.997C150.802 111.513 149.663 107.994 149.283 106.82C148.593 106.717 147.937 106.751 147.316 106.855C147.006 107.959 146.971 109.443 147.765 111.134C147.73 111.134 147.73 111.099 147.696 111.099C147.006 110.651 146.074 108.96 145.97 107.234C145.108 107.545 144.383 107.994 143.934 108.27C143.555 109.477 143.624 110.616 143.693 111.134C143.969 113.377 144.935 116.069 148.558 117.311C148.973 117.414 149.421 117.483 149.87 117.518C150.732 117.621 151.699 117.621 152.803 117.38C150.94 116.897 149.628 115.792 149.145 115.378C149.042 115.275 148.973 115.206 148.973 115.206C148.973 115.206 149.042 115.24 149.111 115.275C149.87 115.585 153.7 117.069 157.289 116.172C157.393 116.138 157.462 116.138 157.565 116.103C157.6 115.654 157.531 115.24 157.393 114.861Z" fill="#FFB71B"/>
<path d="M133.547 137.498C132.133 139.016 129.717 138.878 129.717 138.878C131.442 138.567 132.443 137.808 132.995 137.118C132.098 136.531 131.339 136.186 131.166 136.117C130.649 136.359 128.785 138.671 128.578 139.292C127.336 138.671 125.921 139.154 124.92 139.706C124.644 139.844 124.403 139.982 124.23 140.12C124.161 140.189 124.092 140.224 124.023 140.258C123.989 140.362 123.92 140.431 123.885 140.534L124.506 140.431L125.3 140.293L125.438 140.258L125.3 140.327L124.644 140.603L123.678 141.017C123.54 141.121 123.333 141.362 123.16 141.604C122.884 141.949 122.608 142.329 122.608 142.329C122.608 142.329 122.125 143.053 122.815 143.502C122.988 143.605 123.471 143.674 124.092 143.674C124.506 143.674 124.955 143.64 125.472 143.605C125.714 143.571 125.956 143.571 126.197 143.536C127.888 143.329 129.751 142.881 130.58 142.191C130.718 141.811 132.685 140.431 132.685 140.431L131.442 141.915C131.442 141.915 134.893 141.777 136.377 140.293L136.412 140.258C136.308 140.086 136.204 139.913 136.066 139.775C135.307 138.878 134.41 138.084 133.547 137.498ZM127.957 141.155C128.682 141.431 128.889 141.397 128.958 140.672L129.889 142.018C129.889 142.018 129.027 142.329 127.957 141.155Z" fill="#FFB71B"/>
<path d="M123.298 131.562C124.851 131.976 126.956 132.252 128.199 131.217C128.268 131.148 128.337 131.079 128.371 130.975C128.371 130.872 128.371 130.768 128.371 130.665C128.337 130.147 128.233 129.664 128.095 129.215C127.991 128.905 127.888 128.629 127.784 128.353C127.715 128.18 127.612 128.007 127.508 127.835C125.921 128.422 123.678 128.353 123.678 128.353C125.369 128.215 126.508 127.8 127.198 127.386C126.956 127.076 126.715 126.834 126.542 126.662C125.817 126.075 124.23 125.73 122.712 126.282C121.193 126.834 121.193 128.042 121.193 128.042L119.502 129.353L120.572 130.25L120.814 130.216L123.402 129.974L121.435 130.872C121.435 130.941 122.229 131.286 123.298 131.562Z" fill="#FFB71B"/>
<path d="M155.529 128.249C155.529 128.249 158.842 126.42 160.878 124.453C159.29 125.35 156.737 126.489 155.701 126.972C155.736 127.421 155.701 127.904 155.529 128.249Z" fill="#A7A9AC"/>
<path d="M140.897 96.7781L137.412 97.8478L143.037 96.502L143.14 97.7098C143.555 97.6408 143.555 97.6753 143.555 97.6753C143.52 96.7781 143.348 95.9844 143.348 95.9844L140.897 96.7781Z" fill="#A7A9AC"/>
<path d="M157.531 110.927C157.531 110.892 157.496 110.858 157.496 110.823C156.875 108.235 155.115 106.717 155.081 106.786C154.873 106.82 154.666 106.855 154.425 106.855C153.597 106.889 152.768 106.786 151.906 106.51C152.147 107.476 153.183 109.892 157.531 111.099C157.531 111.03 157.531 110.996 157.531 110.927Z" fill="#A7A9AC"/>
<path d="M170.609 99.0901C170.402 98.7795 170.23 98.5035 169.988 98.2274C169.091 97.1231 168.056 96.3985 167.296 95.9844C167.883 96.6055 168.504 97.3647 169.091 98.2619C169.263 98.538 169.436 98.814 169.574 99.1246C170.299 100.539 170.885 102.265 171.092 104.37C171.299 103.852 171.575 102.955 171.713 101.885C171.506 100.816 171.092 99.8838 170.609 99.0901Z" fill="#A7A9AC"/>
<path d="M169.988 109.89C170.022 109.786 170.057 109.648 170.126 109.545L170.091 109.579C170.057 109.683 170.022 109.786 169.988 109.89Z" fill="#A7A9AC"/>
<path d="M162.948 113.721C162.499 113.617 162.12 113.445 161.878 113.237C161.464 112.927 161.223 112.582 161.119 112.306C161.016 112.099 161.016 111.961 161.016 111.961C161.016 111.961 161.257 111.961 161.602 111.961C162.292 111.926 163.431 111.823 164.19 111.305C163.19 111.098 161.982 110.718 160.878 109.959C160.084 109.407 159.394 108.648 158.876 107.647C158.842 107.647 158.807 107.647 158.807 107.647C158.393 107.647 157.979 107.647 157.53 107.578C157.53 107.578 158.151 109.235 159.635 110.373C160.118 110.753 160.705 111.063 161.395 111.236C161.637 111.305 161.844 111.34 162.12 111.34C162.12 111.374 161.844 111.409 161.464 111.374C160.981 111.34 160.291 111.236 159.532 110.96C159.152 110.822 158.738 110.615 158.358 110.373C158.358 110.442 158.6 110.994 159.014 111.685C159.601 112.651 160.567 113.824 162.016 114.411C162.568 114.618 163.19 114.756 163.845 114.721C166.571 114.618 168.987 112.996 170.057 109.959C169.16 111.512 166.364 114.445 162.948 113.721Z" fill="#A7A9AC"/>
<path d="M158.082 105.853C158.152 105.749 158.186 105.611 158.255 105.473C158.738 104.369 159.187 102.609 158.324 100.78C158.29 100.642 160.498 101.263 160.981 102.505C160.947 102.195 160.671 101.608 160.222 101.021C159.842 100.711 159.187 100.228 158.428 100.021C157.841 99.8481 157.185 99.8136 156.599 100.09C156.599 100.09 156.633 100.159 156.668 100.228C156.909 100.78 157.772 102.781 157.289 104.334C157.151 104.783 156.909 105.197 156.53 105.507L156.495 105.542C156.495 105.542 156.564 105.542 156.633 105.577C156.909 105.646 157.392 105.784 158.082 105.853Z" fill="#A7A9AC"/>
<path d="M153.459 105.543C153.597 105.543 153.7 105.543 153.838 105.509H153.873C154.252 105.474 154.632 105.371 154.977 105.198C155.15 105.129 155.288 105.026 155.46 104.922C155.598 104.819 155.702 104.75 155.84 104.612C154.287 102.507 152.976 104.646 151.423 103.335C150.284 102.403 149.663 101.299 149.318 100.194C149.283 100.125 149.283 100.056 149.249 100.022C149.18 99.7459 149.111 99.4698 149.076 99.2282C149.042 99.0902 149.042 98.9522 149.007 98.7796C149.007 98.7451 149.007 98.7451 149.007 98.7106C148.938 98.0204 148.973 97.3303 149.007 96.7782C149.007 96.6746 149.042 96.5711 149.042 96.4676C149.18 95.5704 149.387 94.9492 149.387 94.9492C148.593 95.5704 148.179 96.8127 148.11 98.2275C148.11 98.262 148.11 98.2965 148.11 98.331C148.11 98.7106 148.11 99.0557 148.144 99.4353C148.179 99.6768 148.179 99.8839 148.213 100.125C148.213 100.16 148.248 100.229 148.248 100.263C148.248 100.332 148.282 100.436 148.282 100.505C148.593 102.058 149.318 103.542 150.387 104.473C150.629 104.681 150.871 104.853 151.112 104.991C151.181 105.026 151.285 105.095 151.354 105.129C151.63 105.233 151.94 105.336 152.251 105.405C152.665 105.543 153.079 105.578 153.459 105.543Z" fill="#A7A9AC"/>
<path d="M121.815 143.64C121.504 143.088 121.78 142.501 121.78 142.501C121.78 142.501 122.815 141.121 123.16 140.811C122.608 140.983 120.952 141.639 120.814 142.916C120.779 143.192 120.814 143.433 120.848 143.64C121.125 143.606 121.332 143.571 121.47 143.537C121.573 143.502 121.642 143.502 121.642 143.502L121.47 143.537L120.848 143.709C121.055 144.296 121.539 144.744 121.953 145.021L122.298 144.883L123.091 144.537C123.091 144.537 122.815 144.71 122.401 144.986C122.332 145.021 122.229 145.09 122.16 145.124C122.505 145.331 122.815 145.435 122.815 145.435C122.815 145.435 120.296 148.333 117.57 147.816C115.741 147.471 114.464 146.297 113.843 145.573C114.913 150.266 123.471 148.851 125.231 144.261C124.955 144.296 124.748 144.296 124.61 144.296C123.885 144.33 122.332 144.503 121.815 143.64Z" fill="#A7A9AC"/>
<path d="M119.882 116.241C120.227 116.207 120.538 116.138 120.814 116.034C120.952 115.965 121.09 115.896 121.228 115.827C122.643 115.034 122.781 113.343 122.229 113.17C122.194 113.239 122.159 113.308 122.125 113.377C122.021 114.136 121.745 114.688 121.331 115.034C121.193 115.172 121.021 115.275 120.883 115.344C119.709 115.931 117.949 115.586 116.742 115.206C114.775 114.619 113.015 112.342 113.187 110.962C113.325 109.823 115.43 110.133 116.19 110.271C116.19 109.823 116.259 109.547 116.259 109.547C111.358 108.063 111.565 112.031 112.877 113.688C114.188 115.344 117.225 116.448 119.882 116.241Z" fill="#A7A9AC"/>
<path d="M120.434 119.69C120.641 119.587 120.814 119.483 121.021 119.345C121.918 118.724 122.539 117.827 122.539 116.895C122.228 117.171 121.676 117.654 120.917 117.93C120.814 117.965 120.71 117.999 120.606 118.034C120.33 118.103 120.02 118.137 119.675 118.103C119.985 117.965 120.33 117.758 120.641 117.482C120.779 117.378 120.883 117.275 121.021 117.171C121.504 116.723 121.849 116.274 121.78 116.309C121.538 116.412 121.331 116.516 121.09 116.585C120.952 116.619 120.848 116.688 120.71 116.723C119.088 117.206 117.57 117.068 116.293 116.688C116.845 117.102 117.88 117.723 118.916 117.654C118.881 117.896 118.122 118.655 117.294 118.655C118.95 118.897 120.054 118.655 120.054 118.655C120.054 118.655 120.089 119.276 119.606 119.966C119.916 119.932 120.192 119.828 120.434 119.69Z" fill="#A7A9AC"/>
<path d="M124.195 108.648C123.885 109.649 123.126 110.649 122.608 111.029L122.677 111.305L122.746 111.512L122.884 111.961L123.091 112.72C123.091 112.72 123.988 112.168 124.679 110.201C124.817 109.821 124.92 109.407 125.024 108.889C125.058 108.751 125.058 108.648 125.093 108.51C125.127 108.372 125.162 108.234 125.162 108.061C125.196 107.854 125.231 107.613 125.265 107.371V107.337C125.265 107.337 125.265 107.337 125.265 107.302C125.265 107.268 125.265 107.199 125.265 107.164C125.265 107.164 125.265 107.164 125.231 107.13C125.058 107.199 124.886 107.233 124.713 107.268C124.61 107.302 124.506 107.302 124.402 107.337C123.402 107.509 122.401 107.44 121.642 107.302C120.848 107.164 120.33 106.957 120.33 106.957C120.33 106.957 120.123 107.026 119.571 107.164C119.571 107.164 119.537 107.164 119.502 107.164C119.468 107.164 119.399 107.199 119.364 107.199C120.779 108.51 122.953 108.648 124.195 108.648Z" fill="#A7A9AC"/>
<path d="M125.162 132.596C125.093 132.596 125.058 132.596 124.989 132.596L124.644 133.079L124.61 133.114C124.955 133.287 125.197 133.425 125.162 133.494C125.058 133.873 125.196 134.736 126.266 134.839C127.163 134.149 127.992 133.287 128.682 132.527C128.13 132.7 127.509 132.803 126.818 132.803C126.197 132.838 125.645 132.734 125.162 132.596Z" fill="#A7A9AC"/>
<path d="M124.403 132.977L124.851 132.598C124.161 132.563 123.609 132.425 123.333 132.322C123.229 132.287 123.16 132.218 123.057 132.184L122.781 132.391C123.367 132.598 123.954 132.805 124.403 132.977Z" fill="#A7A9AC"/>
<path d="M122.505 132.251L122.919 132.079C122.056 131.699 121.09 131.32 120.572 131.182C120.4 131.251 120.227 131.285 120.02 131.389C120.434 131.527 121.435 131.872 122.505 132.251Z" fill="#A7A9AC"/>
<path d="M142.278 95.3628L142.692 95.1557L142.727 95.1212C142.727 95.1212 142.278 94.431 142.14 94.293C142.002 94.1205 141.864 93.9824 141.864 93.9824C139.31 94.2585 135.238 96.8811 132.202 99.0896C135.894 96.8811 139.897 95.2247 141.657 94.5C141.967 94.7761 142.278 95.3628 142.278 95.3628Z" fill="#A7A9AC"/>
<path d="M149.179 125.559C149.076 125.904 148.972 126.249 148.869 126.594L153.32 126.042C153.251 125.835 153.182 125.593 153.079 125.352C153.113 125.352 151.284 125.524 149.179 125.559Z" fill="#D08829"/>
<path d="M124.575 112.064C123.816 113.238 123.16 114.135 123.16 114.135C123.16 114.135 124.506 117.275 122.229 119.38C122.539 119.38 122.85 119.346 123.16 119.277C124.644 117.793 124.23 114.687 124.23 114.687L125.334 113.272C125.093 112.72 124.782 112.272 124.575 112.064Z" fill="#D08829"/>
<path d="M126.3 112.065L125.61 110.34C125.472 110.616 125.3 110.892 125.162 111.134C125.369 111.444 125.645 111.996 125.852 112.652L126.3 112.065Z" fill="#D08829"/>
<path d="M132.719 109.408C132.098 109.546 131.614 109.65 131.235 109.684C131.718 110.547 132.926 112.031 134.927 110.858C133.581 111.03 132.926 109.891 132.719 109.408Z" fill="#D08829"/>
<path d="M125.265 89.6002C125.265 89.6002 122.263 85.6662 124.023 83.0781C124.023 83.0781 123.195 83.6303 122.815 85.2867C122.504 87.0811 123.402 88.2544 123.678 88.8065C124.402 89.3931 125.265 89.6002 125.265 89.6002Z" fill="#D08829"/>
<path d="M134.617 80.3523C135.721 79.5931 136.722 79.041 137.653 78.6269C140.897 77.212 142.968 77.6606 142.968 77.6606C141.691 76.9015 140.414 76.7634 139.137 77.005C138.102 77.212 137.101 77.6606 136.169 78.2473C132.719 80.4213 130.062 84.4588 130.062 84.4588C131.649 82.6643 133.202 81.3185 134.617 80.3523Z" fill="#D08829"/>
<path d="M137.826 92.7062C137.826 92.7062 143.417 90.3941 146.971 93.5344C146.971 93.5344 144.797 88.8413 137.826 92.7062Z" fill="#D08829"/>
<path d="M157.392 114.859C157.53 115.239 157.599 115.653 157.599 116.102C158.393 115.86 159.152 115.515 159.877 115.032C159.29 115.17 158.427 115.239 157.392 114.859Z" fill="#D08829"/>
<path d="M157.979 112.066C157.185 112.169 156.15 111.997 154.873 111.445C151.664 110.03 150.525 106.406 150.318 105.751C149.801 105.44 149.317 105.061 148.869 104.646C148.731 104.681 148.593 104.681 148.42 104.716C148.42 104.716 147.696 105.509 147.316 106.855C147.937 106.751 148.593 106.717 149.283 106.821C149.662 107.994 150.767 111.479 153.01 111.997C154.321 112.307 155.839 112.79 156.771 113.86C157.392 113.895 158.151 113.895 159.049 113.722C158.6 113.17 158.221 112.618 157.979 112.066Z" fill="#D08829"/>
<path d="M130.752 135.049C130.199 135.601 128.785 137.05 128.336 138.534C128.06 138.327 126.058 137.947 124.609 139.362C124.402 139.569 124.23 139.776 124.057 140.052C124.022 140.121 123.953 140.19 123.919 140.294C123.988 140.259 124.057 140.19 124.126 140.156C124.333 140.018 124.575 139.88 124.816 139.742C125.817 139.19 127.232 138.741 128.474 139.328C128.716 138.741 130.545 136.394 131.062 136.153C131.235 136.222 131.994 136.567 132.891 137.154C132.995 137.05 133.064 136.912 133.133 136.808C133.236 136.601 133.34 136.429 133.409 136.291C132.684 135.773 131.89 135.29 130.924 134.876C130.993 134.841 130.924 134.91 130.752 135.049Z" fill="#D08829"/>
<path d="M134.099 136.738C133.996 136.911 133.892 137.083 133.789 137.256C133.72 137.359 133.651 137.428 133.582 137.532C134.41 138.119 135.341 138.912 136.032 139.844C136.17 140.017 136.273 140.155 136.377 140.327C136.515 140.155 136.653 139.982 136.756 139.81C136.722 139.775 135.894 138.222 134.099 136.738Z" fill="#D08829"/>
<path d="M128.267 127.49C128.06 127.628 127.784 127.766 127.508 127.87C127.611 128.042 127.68 128.18 127.784 128.387C127.922 128.629 128.025 128.94 128.094 129.25C128.232 129.699 128.302 130.147 128.371 130.699C128.371 130.803 128.371 130.907 128.371 131.01C128.44 130.907 128.474 130.803 128.509 130.699C128.647 130.285 128.716 129.802 128.681 129.285C128.647 128.871 128.578 128.456 128.44 128.042C128.405 127.835 128.336 127.663 128.267 127.49Z" fill="#D08829"/>
<path d="M126.542 126.697C126.749 126.87 126.956 127.112 127.197 127.422C127.543 127.215 127.784 127.042 127.922 126.904C127.232 125.835 126.093 124.972 124.437 124.938C124.437 124.938 120.572 126.076 120.434 127.94C120.192 128.112 119.123 129.113 119.123 129.113L119.468 129.389L121.159 128.078C121.159 128.078 121.124 126.87 122.677 126.318C124.23 125.766 125.852 126.111 126.542 126.697Z" fill="#D08829"/>
<path d="M122.125 106.51H122.159C122.228 106.51 122.332 106.544 122.435 106.544C122.677 106.579 122.918 106.579 123.194 106.614C123.953 106.648 124.816 106.579 125.644 106.51C127.922 106.268 130.096 105.785 130.096 105.785C130.096 105.785 129.647 105.923 128.957 106.13C128.267 106.337 127.335 106.648 126.404 106.959C128.025 108.097 129.647 108.063 130.993 107.856C131.89 107.718 132.65 107.476 133.167 107.373C133.685 107.269 134.237 107.097 134.824 106.924C134.893 106.89 134.996 106.89 135.065 106.855C135.1 106.855 135.134 106.821 135.169 106.821C135.341 106.752 135.514 106.717 135.686 106.648C135.721 106.648 135.721 106.648 135.755 106.614C133.098 107.028 130.096 107.338 129.095 106.752C130.061 106.441 130.648 106.061 130.993 105.751C131.338 105.406 131.442 105.164 131.442 105.164C131.442 105.164 127.577 105.751 126.197 105.371C127.542 104.785 141.691 99.0217 146.28 98.366C146.28 98.366 145.901 98.3315 145.142 98.4006C145.176 98.4006 145.211 98.4006 145.245 98.4006C145.314 98.4006 145.418 98.4006 145.487 98.4006H145.521C145.521 98.4006 145.107 98.4696 144.382 98.6421C141.449 99.2633 133.271 101.196 125.886 104.439C125.851 104.439 125.851 104.474 125.817 104.474C125.403 104.647 124.989 104.854 124.575 105.061C124.506 105.095 124.402 105.13 124.333 105.164C124.23 105.199 124.161 105.268 124.057 105.302C123.953 105.337 123.884 105.371 123.781 105.44C123.643 105.544 123.505 105.613 123.367 105.682C122.953 105.923 122.504 106.165 122.056 106.406C121.987 106.441 121.917 106.475 121.848 106.51H121.814C121.883 106.544 121.952 106.544 122.056 106.579C122.056 106.475 122.09 106.475 122.125 106.51Z" fill="#D08829"/>
<path d="M143.968 108.269C144.417 107.993 145.107 107.544 146.004 107.234C145.97 106.854 146.004 106.475 146.039 106.13C146.108 105.785 146.211 105.439 146.349 105.129C146.177 105.232 146.004 105.37 145.832 105.508C144.831 106.302 144.279 107.337 143.968 108.269Z" fill="#D08829"/>
<path d="M158.773 64.7888C156.357 64.4092 144.279 69.758 144.279 69.758C144.279 69.758 156.116 65.617 157.634 65.41C159.152 65.2029 158.945 66.4452 159.014 67.584C159.532 66.8593 159.497 64.8578 158.773 64.7888Z" fill="#D1D3D4"/>
<path d="M135.756 67.549C135.445 67.5145 130.58 72.0351 130.58 72.0351C136.377 66.7898 135.963 68.7568 136.411 69.0674C136.446 68.2737 136.101 67.5835 135.756 67.549Z" fill="#D1D3D4"/>
<path d="M115.879 86.7012C109.116 82.4566 98.7976 75.9346 98.1419 75.624C97.7278 75.417 100.178 78.9023 103.387 82.6292C106.596 86.3561 110.323 90.0485 113.498 91.4288C114.119 89.8414 114.913 88.254 115.879 86.7012Z" fill="white"/>
<path d="M196.352 53.0566L153.286 93.1206C153.873 93.2586 154.321 93.4312 154.494 93.5347C155.219 93.9143 156.392 93.4312 156.633 93.1551C157.048 92.4304 157.565 92.0163 158.186 91.8438C158.6 91.7057 159.084 91.6712 159.532 91.7057C160.015 91.7403 160.464 91.8438 160.878 91.9818C166.33 89.9458 178.788 84.5971 185.517 79.2483C190.037 75.6594 193.178 67.8606 195.179 61.4075C196.214 58.0257 196.939 55.0235 197.319 53.3326C197.422 52.7805 196.801 52.6079 196.352 53.0566Z" fill="white"/>
<path d="M169.954 93.7423C171.644 94.9846 172.473 96.5029 172.818 98.0558C173.646 97.9523 174.509 97.8143 175.371 97.6417C178.408 96.9861 181.41 93.6733 183.653 90.6365C185.758 87.7724 187.104 85.1152 187.104 85.1152L167.193 92.5C168.056 92.6725 169.022 93.0521 169.954 93.7423Z" fill="white"/>
<path d="M161.05 123.833C159.67 124.281 156.53 124.937 155.288 125.178C155.288 125.178 155.598 126.076 155.667 126.973C156.702 126.524 159.256 125.351 160.843 124.454C160.947 124.35 161.085 124.212 161.189 124.109C161.327 123.971 161.223 123.798 161.05 123.833Z" fill="white"/>
<path d="M118.847 113.1C122.643 114.204 122.091 109.201 122.091 109.201L122.574 110.926L122.608 111.03C123.091 110.65 123.851 109.649 124.196 108.649C122.919 108.683 120.745 108.511 119.433 107.303C118.812 107.475 118.226 107.579 117.639 107.613C117.121 109.477 116.707 112.479 118.847 113.1Z" fill="white"/>
<path d="M134.203 90.6354C135.308 90.2213 136.377 89.8762 137.344 89.6001C139.31 88.5649 141.968 87.7367 144.866 88.3923C145.936 84.1478 143.624 82.0428 142.451 81.2837C141.381 81.1456 140.07 81.1456 138.862 81.4562C139.621 81.4217 140.242 81.6287 140.622 82.0083C141.277 82.664 141.346 83.9408 140.622 85.3211C139.38 87.5987 135.998 89.9107 133.824 88.5994C132.961 88.0818 132.719 87.2881 132.892 86.4254C132.167 87.1155 131.374 87.8057 130.545 88.3233C130.89 88.9445 131.995 90.2558 134.203 90.6354Z" fill="white"/>
<path d="M143.037 96.5366L137.412 97.8825L140.897 96.8127L135.997 98.3311L142.726 95.1908L142.312 95.3979C142.312 95.3979 142.002 94.8112 141.691 94.5352C139.931 95.2253 135.928 96.8817 132.236 99.1247C129.924 100.816 128.233 102.23 128.233 102.23C133.961 99.4698 141.104 98.124 143.175 97.7789L143.037 96.5366Z" fill="white"/>
<path d="M171.506 98.1579C170.816 95.8114 168.849 93.7409 164.122 93.6719C164.122 93.6719 165.64 94.3275 167.296 95.9839C168.09 96.4325 169.125 97.1227 169.988 98.227C170.195 98.503 170.402 98.7791 170.609 99.0897C171.092 99.8834 171.506 100.815 171.713 101.919C171.817 101.022 171.851 100.021 171.713 99.0207C171.644 98.7446 171.575 98.434 171.506 98.1579Z" fill="white"/>
<path d="M167.779 98.2972C166.675 96.5718 165.191 94.9499 163.259 93.9147C163.017 93.7766 162.776 93.6731 162.534 93.5696C162.431 93.5006 162.293 93.4316 162.155 93.3625C161.982 93.2935 161.81 93.2245 161.637 93.1555C160.257 92.6034 158.117 92.2583 156.737 94.1907C156.806 94.1907 157.496 94.5358 157.496 94.5358C157.496 94.5358 156.219 95.226 155.184 94.9499C154.977 94.8809 154.804 94.8119 154.632 94.6739C154.632 94.6739 153.562 94.1907 152.32 94.0527C152.044 94.0182 151.768 94.0182 151.492 94.0182C151.319 94.0182 151.181 94.0527 151.008 94.0872C150.629 94.1562 150.249 94.2943 149.939 94.5013C149.732 94.6393 149.559 94.8119 149.421 95.0189C149.421 95.0189 149.214 95.6056 149.076 96.5373C149.076 96.6408 149.042 96.7443 149.042 96.8479C148.972 97.4 148.972 98.0902 149.042 98.7803C149.042 98.8148 149.042 98.8148 149.042 98.8493C149.042 98.9874 149.076 99.1254 149.111 99.2979C149.145 99.574 149.214 99.8156 149.283 100.092C149.283 100.161 149.318 100.23 149.352 100.264C149.697 101.368 150.318 102.473 151.457 103.404C153.01 104.716 154.321 102.576 155.874 104.681C156.15 104.405 156.426 104.026 156.599 103.542C156.771 103.094 156.806 102.542 156.737 101.955C156.599 101.437 156.392 100.851 156.15 100.264C156.047 99.9536 155.909 99.6775 155.805 99.367C155.426 98.4698 155.046 97.6761 154.873 97.3655C154.873 97.3655 155.46 97.6416 156.219 99.1599C156.357 99.2634 156.944 98.2627 158.083 98.5388C157.876 98.5043 157.772 96.1922 159.359 95.433C159.256 95.4675 158.324 98.0557 158.945 99.0564C158.945 99.0564 158.945 99.0564 158.945 99.0909C159.014 99.1944 159.325 99.4705 159.67 99.8501C160.015 100.264 160.395 100.747 160.498 101.23C160.464 101.196 160.395 101.127 160.326 101.058C160.774 101.645 161.016 102.231 161.085 102.542C160.602 101.299 158.359 100.678 158.428 100.816C159.29 102.645 158.842 104.405 158.359 105.509C158.29 105.647 158.255 105.751 158.186 105.889C158.324 105.924 158.497 105.924 158.669 105.958C160.222 106.131 162.431 106.096 164.432 105.13C164.432 105.13 162.845 107.2 159.739 107.58C159.497 107.614 159.221 107.649 158.945 107.649C159.463 108.684 160.153 109.409 160.947 109.961C162.017 110.72 163.259 111.1 164.26 111.307C163.5 111.824 162.362 111.962 161.672 111.962C161.326 111.962 161.085 111.962 161.085 111.962C161.085 111.962 161.119 112.1 161.188 112.308C161.292 112.584 161.533 112.929 161.948 113.239C162.224 113.446 162.569 113.619 163.017 113.722C166.468 114.482 169.229 111.548 170.023 109.961C170.023 109.961 170.023 109.961 170.023 109.926C170.023 109.892 170.022 109.892 170.057 109.857C170.092 109.754 170.126 109.65 170.161 109.547C170.402 108.546 170.575 107.373 170.575 105.993C170.644 105.13 170.057 102.093 168.435 99.1599C168.159 98.8839 167.987 98.5733 167.779 98.2972Z" fill="white"/>
<path d="M113.222 110.997C113.05 112.377 114.81 114.654 116.777 115.241C117.984 115.621 119.71 115.966 120.917 115.379C121.09 115.31 121.228 115.207 121.366 115.069C121.78 114.723 122.056 114.171 122.16 113.412C122.022 113.585 121.815 113.826 121.539 114.033C121.401 114.137 121.228 114.24 121.021 114.309C120.434 114.551 119.675 114.62 118.709 114.309C116.5 113.55 116.224 111.445 116.224 110.341C115.465 110.168 113.36 109.858 113.222 110.997Z" fill="white"/>
<path d="M121.676 140.949C120.745 142.019 119.502 141.467 117.881 141.501C116.259 141.536 113.118 142.019 113.809 145.504C113.809 145.539 113.809 145.573 113.843 145.608C114.464 146.333 115.741 147.506 117.57 147.851C120.331 148.369 122.815 145.47 122.815 145.47C122.815 145.47 122.539 145.366 122.16 145.159C120.952 145.884 118.95 147.023 118.157 146.988C118.743 144.918 116.431 143.089 116.431 143.089C118.812 144.055 118.95 146.298 118.95 146.298L121.987 145.056C121.538 144.78 121.055 144.331 120.883 143.744L118.812 144.331C118.812 144.331 118.364 143.882 118.019 143.503C119.088 143.779 120.158 143.744 120.848 143.675C120.779 143.468 120.779 143.227 120.814 142.951C120.986 141.674 122.608 141.018 123.16 140.846C123.298 140.535 123.436 140.259 123.574 140.018C123.091 140.052 122.298 140.259 121.676 140.949Z" fill="white"/>
<path d="M119.296 120.071C119.399 120.036 119.537 120.036 119.641 120.002C120.124 119.312 120.089 118.69 120.089 118.69C120.089 118.69 118.985 118.932 117.329 118.69C118.157 118.69 118.916 117.931 118.951 117.69C117.915 117.759 116.88 117.138 116.328 116.723C114.326 116.137 112.981 114.998 112.981 114.998C112.463 117.241 114.948 118.207 114.948 118.207C114.948 118.207 114.603 120.83 119.296 120.071Z" fill="white"/>
<path d="M125.162 133.495C125.196 133.426 124.955 133.288 124.61 133.115L123.609 134.53C123.747 134.772 123.782 134.979 123.782 134.979C123.505 134.599 123.229 134.289 122.919 134.013L122.608 133.771C121.469 132.874 120.365 132.667 120.365 132.667C121.78 132.701 122.643 133.288 123.126 133.84L123.367 133.875L124.334 133.046C123.885 132.839 123.333 132.632 122.746 132.425L122.367 132.701L121.849 132.529L122.436 132.322C121.4 131.942 120.4 131.597 119.951 131.459C118.812 131.873 117.467 132.632 117.708 133.633C118.122 135.358 122.194 137.118 124.817 135.807C125.3 135.565 125.749 135.255 126.232 134.91C125.196 134.703 125.058 133.84 125.162 133.495Z" fill="white"/>
<path d="M131.167 110.961C131.167 110.961 133.272 118.069 139.828 108.752C140.311 108.096 140.794 107.337 141.312 106.475L139.587 107.13L139.241 107.268C139.207 107.268 134.514 115.654 131.167 110.961Z" fill="white"/>
<path d="M133.478 86.6331C134.583 87.2888 136.308 86.1155 136.929 84.9767C137.309 84.2866 137.274 83.6309 136.929 83.2858C136.757 83.1133 136.515 83.0098 136.205 83.0098C136.067 83.0098 135.928 83.0098 135.756 83.0443C134.928 83.976 133.996 85.0458 133.03 86.0465C133.064 86.1155 133.064 86.1845 133.099 86.2535C133.168 86.3916 133.306 86.5296 133.478 86.6331Z" fill="white"/>
<path d="M137.654 83.4578C138.068 83.6994 138.689 83.2853 138.896 82.8712C139.034 82.6296 139.034 82.388 138.896 82.25C138.758 82.112 138.517 82.112 138.206 82.25C137.654 82.5261 137.205 83.1817 137.654 83.4578Z" fill="white"/>
<path d="M133.582 120.727L133.755 121.486C136.722 124.177 140.967 124.902 144.418 125.04H144.452C145.556 125.075 146.592 125.075 147.454 125.075C147.523 124.937 147.558 124.799 147.592 124.66C147.627 124.557 147.661 124.419 147.696 124.315C147.834 123.729 147.903 123.246 147.903 123.246C138.172 124.074 133.582 120.727 133.582 120.727Z" fill="white"/>
<path d="M131.718 133.426L131.028 133.909C131.028 133.909 132.616 134.358 134.341 135.565C134.479 135.669 134.617 135.772 134.755 135.876C135.928 136.773 137.136 138.05 137.93 139.775L139.241 138.844C139.241 138.809 136.791 134.772 131.718 133.426Z" fill="white"/>
<path d="M131.132 130.389C131.132 130.389 131.201 129.975 131.166 129.354C131.166 129.285 131.166 129.216 131.166 129.147C130.994 127.387 129.958 124.281 125.265 123.66L124.541 124.074C124.541 124.074 124.955 124.074 125.196 124.143C125.3 124.178 125.403 124.178 125.507 124.212C126.059 124.35 126.887 124.626 127.646 125.144C128.164 125.489 128.647 125.903 129.027 126.49C129.096 126.593 129.165 126.662 129.199 126.766C129.199 126.8 129.234 126.8 129.234 126.835C129.372 127.111 129.51 127.387 129.613 127.698C129.648 127.767 129.648 127.836 129.682 127.905C129.717 128.008 129.717 128.112 129.751 128.215C129.786 128.491 129.82 128.767 129.855 129.078C129.855 129.147 129.855 129.216 129.855 129.285C129.855 129.32 129.855 129.32 129.855 129.354C129.855 129.699 129.82 130.044 129.751 130.424C129.751 130.493 129.717 130.562 129.717 130.631C129.682 130.734 129.682 130.803 129.648 130.907L130.165 130.734H130.2L130.476 130.631L130.545 130.596L130.752 130.527L131.063 130.424L131.132 130.389Z" fill="white"/>
</svg>
