<?xml version="1.0" encoding="UTF-8"?>
<svg width="200px" height="200px" viewBox="0 0 200 200" version="1.1" xmlns="http://www.w3.org/2000/svg" xmlns:xlink="http://www.w3.org/1999/xlink">
    <!-- Generator: Sketch 54.1 (76490) - https://sketchapp.com -->
    <title>augustana-sd</title>
    <desc>Created with Sketch.</desc>
    <g id="augustana-sd" stroke="none" stroke-width="1" fill="none" fill-rule="evenodd">
        <g id="augustana-sd_BGL" transform="translate(0.000000, 0.000000)">
            <g id="augustana-sd" transform="translate(0.000000, 16.000000)">
                <g id="g10" transform="translate(99.999998, 84.425286) scale(-1, 1) rotate(-180.000000) translate(-99.999998, -84.425286) translate(0.000000, 0.006387)" fill-rule="nonzero">
                    <g id="g12">
                        <path d="M96.1094484,160.386969 L96.1094484,160.386969 C92.4125137,153.242653 90.6648764,145.971899 90.6648764,139.448272 C90.6648764,127.830137 96.9754765,118.704722 102.328478,114.402424 C99.9081712,114.493995 98.3611725,114.352488 96.0005085,114.132436 C90.9166005,113.67356 86.9171115,113.311619 81.1808409,117.221325 L73.9513391,122.156319 L74.4754771,120.467302 C74.5427823,120.251083 75.8381846,116.174199 78.070113,112.862832 C73.5669203,115.548018 71.0162179,119.572283 71.0162179,124.234863 C71.0162179,125.369346 71.3978271,129.85568 72.5676866,133.510852 L73.2943788,135.779052 L71.557214,134.149422 C69.4154516,132.135373 67.2555539,129.487864 67.163089,129.375476 C64.2157072,125.531925 62.7261798,121.648911 62.7261798,117.820431 C62.7261798,116.577264 62.8771376,115.357213 63.1710074,114.192845 C63.3607902,113.417111 63.6517225,112.633841 63.9936127,111.838439 C61.4759882,112.919665 58.9541492,113.732947 56.3220931,114.148145 C52.7825019,114.696293 48.2996157,114.122986 47.0555544,113.76909 C46.1565761,113.513663 45.4362696,113.307788 45.4362696,113.307788 L47.3703692,112.807405 C50.7473806,111.786715 53.8675593,110.334991 56.0768824,109.151849 C50.5662823,110.049933 45.0272019,109.647251 39.5616848,107.841632 C28.3422726,104.360662 22.2057466,96.2201764 21.9508296,95.8731777 L20.5464874,93.9724114 C20.6467428,94.0257959 32.6950183,100.324135 41.8512122,99.0911853 C45.4805863,98.6187715 49.2496795,97.2835225 51.9997433,95.9517217 C46.3731789,94.8865877 42.8362697,92.9080437 41.4060015,91.9609172 C35.8077897,91.5845443 17.3793099,89.0007641 4.75260525,71.5708794 C3.2524648,69.7070225 1.16588886,65.9254134 1.07783522,65.7660265 L0,63.8070227 L2.3931417,65.2048515 C4.71918251,66.5685807 11.7985693,70.719283 18.0383137,71.955426 C22.5462319,72.8486572 27.1978282,72.7651323 31.8633453,71.7020416 C37.8752226,70.2403558 42.9979555,67.2190277 46.6467421,64.7346089 C38.2094499,63.9159626 30.4388243,59.4349921 24.6293736,51.8991047 L22.9858232,49.8056182 L25.0559381,50.5978276 L26.6854399,51.2330766 C29.8743288,52.5174955 35.2116211,54.6669207 41.4054907,54.7038301 C46.7565761,54.7292451 51.2533831,53.5758607 60.9697303,47.2100882 L61.0584914,47.153511 C63.7821185,45.4335876 66.6007646,43.6905481 69.7100877,42.0854396 C69.2406113,42.1980832 65.7933572,42.6547882 65.384545,42.7533834 L67.912642,41.2771382 L70.3996151,39.752234 L76.5642382,35.980842 C96.7415046,24.0153251 112.90038,29.6692202 116.470112,31.190293 C119.375093,24.4022982 124.855808,17.600255 133.257979,10.4202041 L134.66794,9.21201765 C134.66794,9.21201765 136.630903,10.5785566 136.947634,10.7995144 C136.706255,10.1545591 136.298847,9.23885034 136.298847,9.23885034 C141.724134,12.1966791 144.380584,14.5696037 146.407404,16.6947633 C148.768834,17.141762 150.598975,17.5670494 152.005105,17.9872282 C152.399741,17.655172 153.564492,16.6819919 153.564492,16.6819919 C153.564492,16.6819919 153.876114,16.4252869 154.182627,16.1775219 C148.803317,9.9169857 135.69476,1.79183904 135.560661,1.70882499 L132.99872,0 L136.102168,0.593869717 C138.100891,0.925925903 145.189013,2.29754784 152.487863,6.00001262 C156.361426,7.96042126 169.556828,15.5734351 177.006381,31.3448268 C189.745845,42.6264357 191.122601,55.2397176 191.266917,57.6584915 C191.675602,60.4572143 191.888884,63.2941236 191.888884,66.0365245 L191.782882,69.4745832 C191.729242,70.69655 191.596419,72.0524886 191.389523,73.3864605 C190.260532,81.500892 187.552997,87.141888 185.860787,90.0277117 C186.38186,90.4367793 187.621962,91.4118751 187.621962,91.4118751 L187.619408,91.711492 L187.619408,102.554914 L185.871004,103.050828 C185.871004,103.050828 184.831413,103.346102 182.772665,103.754276 C182.584925,104.323241 181.47126,107.707916 181.223495,108.460406 C186.116215,111.362705 199.876112,121.342781 199.876112,141.671772 C199.876112,144.210724 199.664107,146.839077 199.245206,149.484032 L199.227326,149.581095 C198.214554,155.816088 193.945078,163.719025 191.836521,166.392078 L190.50702,168.081733 L190.78799,165.472537 C191.035755,163.209447 191.268194,161.071516 191.295014,157.827582 C191.295014,157.75734 191.295014,157.68582 191.295014,157.615577 C191.295014,142.932308 178.003827,135.260533 169.715194,131.905488 C163.72158,141.425284 156.62324,149.844185 148.583649,156.914428 C148.581095,156.916982 147.431669,157.916982 147.431669,157.916982 C147.429115,157.918259 145.8378,159.292461 145.8378,159.292461 L144.272027,157.896548 C131.854403,147.098336 123.858107,135.780329 121.258873,131.950188 C116.09591,133.424007 101.713918,140.185182 100.361683,159.607914 C100.197826,162.393355 100.361683,165.508297 100.799742,168.748399 C98.4619388,165.03831 96.1094484,160.386969 96.1094484,160.386969" id="path14" fill="#FFFFFF"></path>
                        <path d="M161.174964,73.0498066 C169.982116,68.3744555 179.499357,74.3588743 179.499357,74.3588743 C179.499357,74.3588743 185.261809,55.3180063 174.297569,34.4904206 C190.899101,47.4913143 195.044695,71.1906751 179.249038,85.7547871 C177.882499,84.8528714 180.219663,79.4736889 161.174964,73.0498066" id="path16" fill="#FCD006"></path>
                        <path d="M179.54278,74.4726674 L179.570877,74.3802025 C179.584925,74.3325652 181.014044,69.525541 181.084287,62.2356306 C181.146866,55.572157 180.054912,45.4232428 174.523623,34.7624512 C178.810979,38.1787985 182.393354,42.4636005 184.897824,47.1711355 C187.416343,51.907917 188.855679,57.0876103 189.060021,62.1503177 C189.234989,66.5123866 188.521068,70.7143022 186.938693,74.6390786 C185.272026,78.7689635 182.683265,82.4763709 179.243929,85.6596403 C179.02043,85.4810962 178.901656,85.1395892 178.742013,84.6780311 C178.394632,83.6793083 177.813533,82.0076608 175.416343,79.9794361 C172.567045,77.5681973 167.839076,75.232182 161.362704,73.0351195 C165.842908,70.7227313 170.491694,71.2031911 173.616854,72.0213264 C177.04725,72.9191553 179.436777,74.4063838 179.459766,74.4213264 L179.54278,74.4726674 Z M174.343546,34.4316722 L174.232435,34.5236262 C179.887607,45.2676872 180.999995,55.5197943 180.936139,62.2284786 C180.873559,68.9473801 179.651337,73.5487849 179.455934,74.2458474 C179.00255,73.9758602 176.750953,72.6895256 173.658999,71.8798194 C170.47126,71.0444427 165.711362,70.5582358 161.140481,72.9846725 L160.989779,73.0648768 L161.151976,73.1196661 C167.69476,75.326818 172.46232,77.6726673 175.320558,80.0920797 C177.687096,82.0942508 178.237543,83.6782865 178.602805,84.7264347 C178.782882,85.246358 178.914427,85.6220924 179.208169,85.8163452 L179.2567,85.848146 L179.298846,85.8089378 C182.777773,82.6017859 185.393354,78.8621947 187.075347,74.6943787 C188.666662,70.7499344 189.383137,66.5274568 189.206892,62.1444429 C189.00255,57.0597687 187.556828,51.8579808 185.026815,47.1019145 C182.461043,42.2773936 178.767556,37.8965508 174.343546,34.4316722 L174.343546,34.4316722 Z" id="path18" fill="#FCD006"></path>
                        <path d="M37.9941242,101.604595 C55.0955286,105.219154 60.9961671,99.3552976 75.6655153,93.522603 C94.4581075,86.0509557 102.64061,99.0911853 112.361811,96.0519772 C115.753254,91.9355022 95.0321815,80.3484016 88.3403554,82.0463581 C71.2060008,86.8117475 54.2292451,103.861939 37.9941242,101.604595" id="path20" fill="#FCD006"></path>
                        <path d="M40.9699862,101.880457 C44.5864612,101.880457 48.5259247,101.028733 52.9220932,99.3038289 C57.9508287,97.3306489 63.1315438,94.4089376 68.1417607,91.5835226 C74.7519777,87.8556811 81.5870989,84.0011473 88.360151,82.1174948 C90.8339696,81.4900363 95.709193,82.7246467 101.082373,85.3404832 C106.271262,87.8667922 110.586204,91.0163451 112.074838,93.3642378 C112.763216,94.4498061 112.84508,95.332437 112.318643,95.9882479 C108.420048,97.197571 104.771006,95.809193 100.547379,94.2019134 C97.4817345,93.0353744 94.0070219,91.7130245 89.9620667,91.2651318 C85.3210707,90.7510833 80.6357579,91.4671752 75.6383123,93.4541484 C72.45632,94.7192824 69.7472524,95.9582351 67.1272014,97.1564471 C58.3388236,101.175732 51.8950179,104.123114 39.5320552,101.83448 C40.0058738,101.865132 40.4850565,101.880457 40.9699862,101.880457 Z M89.8813515,81.8040848 C89.2966772,81.8040848 88.7740719,81.8602789 88.32222,81.9748383 C81.5302662,83.8638549 74.687099,87.7229863 68.069347,91.4550424 C63.0636,94.2780308 57.8873549,97.1970601 52.8681979,99.1664088 C47.2564484,101.368452 42.3942518,102.142143 38.0043413,101.531415 L37.9789263,101.676754 C51.3965504,104.512896 58.0206882,101.483395 67.1886318,97.2905467 C69.8068948,96.093101 72.5143021,94.8550423 75.6927184,93.5911854 C80.6673032,91.6134077 85.3297552,90.9002532 89.9457193,91.4117474 C93.9720283,91.8575967 97.4375455,93.1763706 100.494889,94.3398444 C104.752105,95.9597677 108.429116,97.3590014 112.383778,96.1223475 L112.404723,96.1158341 L112.418643,96.0988482 C113.005489,95.3867154 112.93167,94.4400998 112.199359,93.2853106 C110.697188,90.915962 106.358746,87.7453362 101.146741,85.2077884 C96.6356298,83.0114922 92.5914409,81.8040848 89.8813515,81.8040848 L89.8813515,81.8040848 Z" id="path22" fill="#FCD006"></path>
                        <path d="M12.980204,72.8486572 C28.3475089,83.1643657 40.5090667,83.7770094 51.3849285,80.688376 C67.6454645,76.0605345 80.8805855,63.995273 96.5365238,70.6306496 C81.6840337,66.2051069 70.5901643,79.8375459 54.5862055,85.1135355 C70.0914414,86.9873541 83.6446978,68.0734338 97.0079158,71.8158347 C108.118771,75.0574694 114.481351,88.3559365 114.481351,88.3559365 C114.481351,88.3559365 114.155553,59.5602795 82.0090656,59.8955285 C49.8550435,60.2344813 38.6012762,85.7939953 12.980204,72.8486572" id="path24" fill="#FCD006"></path>
                        <path d="M27.018007,76.5715179 C34.7140477,76.5715179 41.4575979,73.2316712 48.8496795,69.5710072 C57.7976997,65.1398451 67.9395896,60.117623 82.0098319,59.9692194 C89.3289888,59.8954008 95.5859491,61.3381849 100.607533,64.2647494 C104.62273,66.6048515 107.862322,69.8925908 110.236013,74.036652 C113.780712,80.2246468 114.315834,86.5132801 114.394378,88.0188995 C113.927073,87.1113644 112.403445,84.3033185 109.968835,81.2555535 C107.243803,77.8441871 102.786587,73.4249024 97.0286055,71.7449535 C90.2203043,69.8383124 83.4409941,73.741122 76.2633442,77.872795 C69.4561924,81.7911857 62.4192832,85.8417603 54.9275848,85.0772648 C60.5066396,83.1925905 65.4590022,80.3251576 70.2513392,77.5504451 C74.6549151,75.0007644 78.814302,72.5925908 83.0978268,71.1587466 C87.9021689,69.550573 92.1657704,69.4053622 96.515451,70.7014031 L96.5652594,70.5628335 C85.6987207,65.9573419 75.9698576,70.3476355 65.6698579,74.9955281 C61.0952731,77.0597682 56.365005,79.1943786 51.3647497,80.6174948 C45.357087,82.323625 39.6374192,82.6849277 33.8789264,81.7223479 C27.410855,80.6412496 20.8881221,77.9206877 13.9687097,73.4140467 C18.7273303,75.6613008 23.0034477,76.5715179 27.018007,76.5715179 L27.018007,76.5715179 Z M82.5587463,59.8189002 C82.3757323,59.8189002 82.1925905,59.8197942 82.0082994,59.8217099 C67.9043406,59.9704966 57.7463587,65.0006369 48.78429,69.4388233 C37.2971894,75.1270735 27.3767554,80.0401002 13.0134096,72.7828845 L12.9390801,72.9099599 C20.2295014,77.8038295 27.0710083,80.7340976 33.8546607,81.8679418 C39.6351203,82.8342253 45.3759886,82.4716454 51.4049796,80.759385 C56.4158351,79.3332036 61.151084,77.1964221 65.730522,75.1300109 C75.626818,70.6642383 84.9943785,66.4370354 95.3326924,70.2339701 C93.7527435,69.8632166 92.20881,69.694762 90.6952723,69.6946343 C83.5243913,69.6941234 77.0011475,73.4717734 70.1773929,77.4227311 C65.3006369,80.2463581 60.2578529,83.1661537 54.5630893,85.0434206 L54.5773933,85.1867156 C62.2432935,86.1132801 69.408172,81.9890146 76.3369074,78.0006366 C83.4870988,73.8848002 90.2408662,69.997444 96.9881202,71.886716 C100.144442,72.807661 104.93895,75.1962944 109.851466,81.3448256 C112.792207,85.0256684 114.398848,88.3546593 114.414812,88.3877373 L114.555042,88.3551702 C114.554276,88.2830118 114.426434,81.054915 110.36411,73.9633443 C107.977264,69.79655 104.719665,66.4905475 100.681734,64.1372909 C95.7634714,61.2708797 89.6683247,59.8189002 82.5587463,59.8189002 L82.5587463,59.8189002 Z" id="path26" fill="#FCD006"></path>
                        <path d="M163.609191,102.365898 L163.24393,102.371645 C159.425283,133.240099 145.27075,153.559383 145.27075,153.559383 C145.27075,153.559383 132.158362,132.399741 130.948911,102.612003 C130.867174,100.86296 130.673049,96.4892696 130.867174,94.1390781 C141.017876,94.2552978 159.189013,94.3807128 163.886412,93.8284779 C163.886331,96.5191547 163.896548,94.6010193 163.609191,102.365898" id="path28" fill="#9AA0C3"></path>
                        <path d="M164.808425,89.2969326 C161.186458,89.0392059 157.066407,92.6291165 157.066407,92.6291165 L161.771388,93.1587461 C161.75734,93.069474 161.745845,92.9791803 161.744568,92.8860769 C161.706254,91.5752212 162.735628,90.4877372 164.044696,90.4498062 C164.10983,90.4475073 164.17241,90.459257 164.236267,90.4624498 C163.919536,90.6540207 163.708808,91.0010194 163.717748,91.3964217 C163.743291,91.9938674 164.231158,92.4468687 164.817365,92.427073 C165.411235,92.4176222 165.879945,91.9264345 165.855679,91.3383119 C165.854402,91.2859492 165.844185,91.236013 165.835245,91.1859492 C166.222218,91.5906746 166.47126,92.1282225 166.491694,92.7339696 C166.504466,93.0679415 166.441886,93.3825009 166.328221,93.671262 L169.674325,94.0480181 C169.674325,94.0480181 154.522346,95.2378009 133.513407,94.8072773 C132.8825,94.7950168 132.595144,96.4131521 132.650061,98.0192824 C133.139205,98.593995 133.429115,98.9090652 133.429115,98.9090652 C133.429115,98.9090652 133.19029,99.03729 132.76628,99.266281 C132.931031,100.297699 133.260533,101.113152 133.756063,101.157341 C153.228604,102.752488 185.134095,100.48033 185.134095,100.48033 C185.134095,100.48033 170.310341,105.266792 138.185182,104.168069 C137.236267,127.928477 145.026816,149.780328 145.026816,149.780328 C145.026816,149.780328 136.643675,132.753509 134.692206,104.073816 C133.845463,104.060534 132.563215,103.937545 132.563215,103.937545 C132.563215,103.937545 133.237545,127.187481 145.789268,152.808425 C153.441886,147.177519 164.767557,134.73052 164.767557,134.73052 C164.767557,134.73052 157.042142,146.540226 145.789268,156.14559 C130.899103,143.192844 122.119409,129.245207 122.119409,129.245207 C122.119409,129.245207 99.8699847,133.670495 98.1768813,159.339715 C83.3563198,130.706255 104.339972,114.024518 111.899869,110.38084 C97.3619388,115.34227 91.5795635,107.228988 79.7489124,115.285438 C81.9544041,110.943165 84.4754768,109.004978 86.8839059,108.177775 C84.4261792,108.191824 82.8666646,108.181862 80.6458473,108.9613 C69.2756049,113.231287 67.4716458,122.064748 68.9922077,127.952743 C56.6128977,111.786715 77.2057452,101.462577 79.7750938,100.558618 C69.9121311,102.657213 70.5449535,108.776753 55.7393345,111.986843 C62.4201772,109.133458 63.4615565,106.065259 66.1068949,103.355681 C47.4250307,113.07356 32.1642393,102.001658 29.2330772,99.8943781 C55.5317994,112.833714 67.6454645,95.6777754 81.8616838,92.891824 C96.9625774,89.6071497 102.621326,98.6998698 111.916089,96.4994867 C101.730649,95.7648763 96.5933565,83.5469966 82.0090656,86.9873541 C68.7941234,90.3158343 58.8616844,106.347635 37.5353758,102.055553 C52.1536385,101.094633 58.4563204,94.6361407 58.884162,94.3103425 C47.8385684,94.1500615 42.1393348,89.6458471 42.1393348,89.6458471 C42.1393348,89.6458471 19.8687096,89.0054895 6.64735616,70.2303942 C28.7738179,90.9748381 49.924903,84.8817348 51.4490409,84.3988485 C65.8749664,80.9270733 80.895528,64.9094492 97.1978264,71.3001259 C78.2681973,68.6908029 73.6934847,81.9600235 53.571263,87.5333311 C71.9971885,88.3452085 82.0282227,69.9661541 97.0079158,72.2662817 C108.16296,74.1558091 113.134863,85.1292444 114.380329,88.623114 C114.391951,88.4966772 114.404467,88.3719007 114.415451,88.2446977 C109.925285,66.8628336 93.8674306,59.7251581 76.2886316,62.7102155 C52.6370357,67.1888872 38.2330769,89.4647487 12.4550955,72.9597683 C33.6546607,80.6001257 49.2374189,65.6273291 56.4919526,60.5085553 C45.2554267,66.9776484 31.5600248,55.9937406 30.7868447,55.3251583 C59.1650049,64.1734339 61.6947622,37.5249033 97.0523603,38.5146861 C90.6274562,36.2899097 79.074583,37.779054 77.0245191,38.5146861 C95.6344804,27.3243927 111.051721,30.8837796 117.779946,34.5593861 C121.095527,23.9859509 131.90932,14.7356318 134.743292,12.3154658 C138.581095,15.0012768 140.458489,17.453384 140.458489,17.453384 C140.458489,17.453384 139.883777,15.7228604 138.35121,13.4623241 C145.496804,17.7394632 149.528732,23.9310339 149.528732,23.9310339 C149.528732,23.9310339 152.833968,19.7535116 157.518515,16.6947633 C154.699868,12.0664237 143.461044,4.61939963 143.461044,4.61939963 C143.461044,4.61939963 169.15453,11.5351083 177.825027,40.4457206 C180.712639,50.0802031 184.888884,60.3344813 180.257978,76.9200492 C179.754785,75.9265626 171.784159,71.4633443 163.625794,73.1784145 C165.043419,73.464366 180.810979,76.2867158 180.445717,89.3432928 C183.098335,90.6220922 184.888884,92.6853106 184.888884,92.6853106 L172.173687,93.9002531 C172.173687,93.9002531 169.10983,89.5979543 164.808425,89.2969326" id="path30" fill="#0E1B3B"></path>
                        <path d="M149.522346,24.0574707 L149.586203,23.9770109 C149.619409,23.9348653 152.938693,19.7726687 157.558106,16.756066 L157.618131,16.7164747 L157.581094,16.6564491 C155.090673,12.5657468 145.942525,6.21328209 143.905488,4.82888877 C145.512129,5.33590025 151.084287,7.2912131 157.353764,11.7548145 C161.706254,14.8531286 165.537671,18.5351209 168.742014,22.6998717 C172.747122,27.9042139 175.780328,33.8825023 177.754785,40.4661548 C178.021707,41.3582365 178.306509,42.2748393 178.581094,43.1611739 C181.29246,51.9010204 184.36398,61.8017864 180.228603,76.7480185 C179.325666,75.6561922 173.724134,72.7229867 167.41762,72.7224758 C166.166024,72.7224758 164.887608,72.8379292 163.610468,73.1062562 L163.611746,73.2508283 L163.722857,73.2727951 C168.054913,74.1274566 171.120047,75.6029355 172.928476,76.6902918 C178.016598,79.7498064 180.521068,84.0062559 180.371643,89.3412494 L180.370366,89.3890144 L180.413789,89.409704 C182.676879,90.500764 184.326943,92.1860769 184.735628,92.6257959 L172.208169,93.8228584 C171.902933,93.4121305 168.89527,89.5089377 164.813534,89.2232417 L164.813534,89.2232417 C161.201784,88.9650042 157.060022,92.5374179 157.017876,92.5735609 L156.891439,92.683778 L161.859511,93.2429095 L161.844185,93.1472518 C161.827582,93.0426541 161.819919,92.9615558 161.817365,92.8845443 C161.781605,91.6250296 162.772665,90.569985 164.02937,90.5241357 C163.780328,90.7444422 163.637288,91.0638547 163.643674,91.398082 C163.671771,92.0384396 164.183904,92.5223476 164.819919,92.500764 C165.12771,92.4959108 165.415066,92.3699849 165.625794,92.1461024 C165.817365,91.943165 165.924645,91.6832672 165.929753,91.4076606 C166.229881,91.7899083 166.402295,92.2540207 166.418897,92.7365239 C166.430392,93.0409938 166.376752,93.3463578 166.259255,93.6444421 L166.224772,93.7338418 L168.869728,94.031543 C165.472537,94.2635992 151.58748,95.103829 133.515961,94.7335864 C133.389524,94.7309044 133.264364,94.7851828 133.157085,94.8947614 C132.666663,95.3916962 132.537672,96.8899082 132.575986,98.0218366 L132.577264,98.0476348 L132.593866,98.0671751 C132.948911,98.4830116 133.200508,98.7656425 133.311619,98.8888864 L132.68582,99.2263066 L132.693483,99.277903 C132.805872,99.9821176 133.093228,101.172284 133.749677,101.230777 C151.435501,102.679691 179.715193,100.915195 184.457211,100.600253 C183.077901,100.98033 179.512128,101.86577 173.689651,102.66411 C166.648783,103.629627 154.773942,104.661811 138.187736,104.094378 L138.113662,104.091824 L138.111108,104.165131 C137.840354,110.944059 138.153253,121.95236 141.178796,135.90038 C142.462321,141.81992 143.817365,146.312895 144.503189,148.443164 C143.715194,146.621963 142.237544,142.941248 140.660277,137.656446 C138.527455,130.507021 135.772666,118.874837 134.765003,104.068835 L134.761172,104.001019 L134.693483,104.000125 C133.859511,103.986971 132.583649,103.865387 132.570878,103.864238 L132.487864,103.856192 L132.490418,103.939716 C132.491695,103.997826 132.678158,109.8613 134.397187,118.77918 C135.983394,127.008809 139.23499,139.598975 145.722857,152.840354 L145.761171,152.920814 L145.832691,152.868451 C152.33333,148.085565 161.58748,138.272027 164.144313,135.514684 C162.174964,138.358873 155.180073,148.019153 145.789268,156.048527 C131.107276,143.26181 122.269473,129.344824 122.181862,129.205616 L122.154914,129.162193 L122.105106,129.172411 C122.049295,129.183905 116.46015,130.332053 110.73895,134.607915 C107.378414,137.118771 104.629499,140.201784 102.568197,143.771388 C100.03116,148.164747 98.535502,153.311618 98.1214535,159.071516 C92.8752212,148.823751 91.7111088,139.146868 94.6613003,130.303956 C98.2808405,119.45568 107.220304,112.718133 111.931926,110.447251 L111.875987,110.311108 C105.298209,112.555936 100.438184,112.110981 96.1496783,111.718133 C90.8740718,111.235119 86.308427,110.817111 79.9461027,115.063471 C81.8393338,111.436268 84.1185164,109.205489 86.9077884,108.247635 L86.883395,108.104084 L86.7108535,108.105106 C84.3567029,108.118005 82.8014028,108.126562 80.6214539,108.891696 C69.6418884,113.01494 67.4079166,121.472411 68.835375,127.62273 C65.4469971,123.073943 64.3796919,118.585821 65.6628336,114.277903 C68.0476356,106.271262 77.9489125,101.279308 79.7996149,100.628222 L79.7597681,100.48646 C75.3021693,101.434991 72.9321821,103.238695 70.4231145,105.148273 C67.4349919,107.422347 64.0606625,109.990674 56.4591301,111.749933 C60.9954008,109.683267 62.7240086,107.535246 64.3980827,105.454914 C64.971135,104.742782 65.5123866,104.070112 66.1596407,103.407149 L66.072923,103.290163 C54.3372911,109.394761 41.5586197,108.343548 30.0044692,100.348912 C48.1747114,108.960917 59.5250304,103.129882 69.5556815,97.976115 C73.7587466,95.8166004 77.7288614,93.7768814 81.87586,92.9642378 C90.2579799,91.1408662 95.712769,93.136013 100.525413,94.8961662 C104.422347,96.3214535 107.788248,97.552488 111.933075,96.571262 L111.921325,96.4259235 C107.829627,96.1307767 104.579052,93.9887588 101.137801,91.7209428 C96.0166004,88.3462302 90.7211982,84.8564474 81.9920797,86.9155789 C77.369219,88.0799467 73.1650046,90.7828841 68.7140468,93.6446975 C64.5528719,96.3200487 60.2500624,99.0865876 55.2238811,100.85517 C49.6925914,102.801275 44.0851841,103.206639 38.0982111,102.089525 C43.6482748,101.666536 48.6180064,100.410215 52.8782873,98.352488 C55.173051,97.2440589 57.1581084,95.948018 58.7784149,94.5001254 C58.8523612,94.4340973 58.9021697,94.3893974 58.9288619,94.3690909 L59.0985937,94.2397167 L58.8851837,94.2366515 C53.194507,94.1540206 48.9569592,92.894506 46.4040857,91.8523604 C43.6381854,90.7232417 42.1992327,89.5992315 42.1850564,89.5879927 L42.1658993,89.5727947 L42.141506,89.5721561 C42.0858227,89.5704958 36.4985942,89.3830118 29.3706251,86.9074052 C25.18544,85.4537654 21.2957849,83.5072776 17.8097058,81.1220925 C13.6564492,78.2803301 10.0675987,74.8039573 7.13376738,70.7823737 C12.049259,75.2974438 17.2956573,78.8446979 22.7372919,81.330777 C27.300127,83.4154513 32.0196671,84.7670477 36.7651332,85.348146 C45.1298839,86.3722839 50.8468697,84.6670477 51.4712631,84.4692188 C56.4697304,83.2664092 61.4432935,80.6099597 66.709066,77.7974438 C76.2784144,72.6862051 86.1671754,67.4038297 96.5757319,71.1453367 C85.832948,69.843421 79.6974437,73.7630888 72.6158347,78.2870989 C67.5707518,81.5100874 61.8524889,85.1630885 53.5515951,87.4621945 L53.5680702,87.6070221 C62.934992,88.0200489 70.0358859,83.5492955 76.9039572,79.2263071 C83.45351,75.1037018 89.6397168,71.2091936 96.996677,72.3392064 C108.64623,74.3123864 113.463471,86.2707514 114.310853,88.6478905 L114.453765,88.6298828 L114.466025,88.4996146 C114.473943,88.4169837 114.481734,88.3346083 114.488886,88.2510834 L114.489908,88.2402277 L114.487609,88.2296274 C113.398975,83.0457195 111.585438,78.5185166 109.097188,74.7739445 C106.74955,71.2404835 103.789142,68.3814798 100.298337,66.2766267 C93.7643655,62.3369078 85.4577246,61.0784148 76.2762433,62.6374186 C68.3296279,64.1422717 61.4486575,67.6412499 54.7943792,71.0251579 C48.1768826,74.3902919 41.9264357,77.5687082 35.1283516,78.570113 C27.6681985,79.6693467 20.6351208,77.9761155 13.0438055,73.2444426 C17.2311618,74.6738168 21.4750952,75.3097044 25.6679432,75.1358857 C29.4355037,74.9791808 33.2743287,74.1615563 37.0775214,72.7054899 C44.0311611,70.0435487 49.6158353,65.790803 53.6934852,62.685439 C54.7688364,61.8665374 55.697572,61.1593854 56.5344813,60.5688363 L56.455171,60.4445706 C45.9159631,66.5121312 33.2204334,57.1523613 31.1314168,55.5084277 C45.6019146,59.8985936 53.3132809,55.0151966 62.2293726,49.3674317 C70.5590021,44.0913144 80.0003811,38.1136644 97.0503169,38.5874831 L97.0764982,38.4444435 C91.1379288,36.3882494 80.6274565,37.5261804 77.5559368,38.2835239 C85.6219647,33.5312891 93.7959108,31.0932304 101.85849,31.0357591 C101.952105,31.0357591 102.045974,31.0357591 102.13895,31.0357591 C110.287609,31.0357591 115.756958,33.5389519 117.744442,34.6245202 L117.823496,34.6679429 L117.850316,34.5823746 C120.583777,25.8646226 128.537672,17.7190289 134.747123,12.4087098 C138.499358,15.0434224 140.380584,17.4738182 140.399741,17.4980839 L140.527455,17.4291183 C140.522346,17.4125155 139.980839,15.8058744 138.596421,13.6960405 C145.469984,17.9093227 149.426561,23.9105997 149.466152,23.9719023 L149.522346,24.0574707 Z M143.480201,4.54791815 L143.420175,4.68071508 C143.532563,4.75480192 154.57854,12.1060278 157.417621,16.6717748 C153.159639,19.4687096 150.014045,23.2196674 149.53384,23.8071514 C149.019153,23.051085 145.017876,17.3678157 138.389524,13.3984671 L138.291184,13.5031925 C139.362704,15.0855679 139.968068,16.4176241 140.229882,17.0613023 C139.567046,16.2899102 137.752232,14.3320558 134.785437,12.2554531 L134.738183,12.2222219 L134.69476,12.2592334 C133.25287,13.4916983 129.874837,16.3767557 126.386842,20.3307785 C122.066664,25.2298844 119.156702,29.9808422 117.736523,34.4521064 C115.675859,33.3397182 110.216089,30.887611 102.138695,30.887611 C102.045336,30.887611 101.951466,30.887611 101.857341,30.8888881 C93.6034459,30.9463594 85.2356301,33.4916978 76.9864604,38.4508292 L77.0492956,38.5836517 C79.0302662,37.8735623 90.1140463,36.4584921 96.5500614,38.4278407 C96.0784139,38.4189007 95.6108533,38.4137921 95.1508278,38.4137921 C79.2455919,38.4137921 70.1830123,44.1547882 62.1504454,49.2427829 C53.190037,54.9185171 45.4514676,59.8206882 30.8086838,55.2547879 L30.7385688,55.3809692 C30.8739456,55.4980829 44.2249031,66.5998706 55.5879935,61.071646 C54.9813524,61.5192833 54.3257969,62.0186447 53.6042132,62.56807 C49.5335875,65.6679422 43.9587473,69.9132805 37.0247756,72.5676866 C33.2365254,74.0180058 29.4134092,74.8324375 25.6619406,74.9883762 C21.2836521,75.1707516 16.8481477,74.4646214 12.4800891,72.8904196 L12.415287,73.0218373 C20.2490416,78.0375459 27.4727962,79.8471244 35.1499353,78.71609 C41.9717742,77.7112369 48.2326936,74.5273289 54.8611736,71.1565755 C61.5063842,67.7773929 68.3776484,64.2832679 76.3022969,62.7826293 C85.4469966,61.2296281 93.7188993,62.4817353 100.22222,66.4030635 C103.694123,68.4964223 106.638695,71.3403558 108.974454,74.855426 C111.450572,78.5821181 113.256064,83.0881205 114.340993,88.2491677 C114.339844,88.2632162 114.338567,88.277137 114.337417,88.2910578 C113.225923,85.3229864 108.31379,74.1065116 97.0203041,72.1936125 C96.1339695,72.0574695 95.2642377,71.9934848 94.4097039,71.9934848 C88.1172392,71.9932294 82.612897,75.4583634 76.8252854,79.1012752 C70.0922077,83.3395892 63.1333318,87.720432 54.0458479,87.4763707 C62.1231147,85.1653874 67.7339702,81.5809686 72.6952728,78.4113646 C79.8902917,73.8149407 86.1043401,69.8450813 97.1876093,71.373306 L97.2247741,71.2314158 C94.5489121,70.1825014 91.9080437,69.7347364 89.3006363,69.7346087 C81.4911857,69.7340979 73.9722842,73.7507006 66.6394619,77.6673033 C61.3823739,80.4752215 56.4168568,83.1274564 51.4316718,84.3270732 C50.8056181,84.5252852 45.1171125,86.2219646 36.7830131,85.2016582 C32.052745,84.6224755 27.3476366,83.274966 22.7985946,81.1966774 C17.1729242,78.6264348 11.7558618,74.9186444 6.69780315,70.1766266 L6.58704964,70.2729229 C9.60787971,74.5624502 13.3565769,78.2544042 17.7291183,81.2457196 C21.2266917,83.6384398 25.1288627,85.5906747 29.3272023,87.0485291 C36.2360144,89.4472519 41.7039581,89.7028075 42.1131535,89.718644 C42.2943795,89.8567027 43.732566,90.9203042 46.3417613,91.9862046 C48.8785428,93.022603 53.0698582,94.2726669 58.69042,94.3809683 C58.6870994,94.3839057 58.6836512,94.3869708 58.6802029,94.390036 C57.0701135,95.828861 55.0964226,97.117239 52.8141749,98.2196655 C48.4288621,100.337801 43.2867167,101.603573 37.5305227,101.98199 L37.5209441,102.127839 C43.7406119,103.379691 49.5473806,103.008937 55.2729233,100.99425 C60.3153242,99.2200486 64.6255412,96.4487843 68.793868,93.7687077 C73.2343532,90.9137908 77.428606,88.2169837 82.0270733,87.0588739 C90.6929735,85.0149404 95.961428,88.4864601 101.056575,91.8441867 C104.379435,94.0338418 107.525285,96.1068941 111.430776,96.5297549 C107.540227,97.3043398 104.302424,96.1205595 100.576115,94.7575966 C95.7446975,92.9905468 90.2684524,90.9878649 81.845975,92.8197933 C77.679947,93.6361407 73.7010199,95.6804574 69.4882486,97.8449529 C59.3413778,103.058363 47.8407395,108.967303 29.2655165,99.8282223 L29.1900376,99.9542759 L29.2278409,99.981479 C40.8835239,108.362705 53.8380574,109.648273 65.7545322,103.619282 C65.230522,104.185055 64.7681976,104.75964 64.2831402,105.362449 C62.5379295,107.531032 60.7333318,109.773688 55.7103434,111.918899 L55.7550433,112.058873 C63.9094492,110.290802 67.4173674,107.621198 70.5123865,105.265642 C72.9425269,103.416217 75.0629611,101.802169 78.9320542,100.829627 C77.5828844,101.446741 75.232182,102.724008 72.8959113,104.523241 C70.2429101,106.566409 66.80996,109.909959 65.5214543,114.235885 C64.1973164,118.681479 65.3453368,123.311619 68.933587,127.997443 L69.0635998,127.934863 C67.4840341,121.818005 69.5763712,113.19706 80.6717732,109.030393 C82.7499341,108.301019 84.2610451,108.267047 86.4635994,108.253893 C83.7523606,109.319793 81.5310324,111.613918 79.6831398,115.251977 L79.7904195,115.346357 C86.2343529,110.958235 90.8228585,111.378158 96.1362684,111.865004 C100.242271,112.240866 104.870751,112.665004 111.027839,110.74342 C106.138822,113.372411 97.9512108,119.977392 94.5214536,130.257979 C91.5355022,139.206893 92.7434204,149.002551 98.1113641,159.374198 L98.2330754,159.609191 L98.2504445,159.344824 C98.6357574,153.503189 100.130777,148.28863 102.693995,143.849294 C104.744186,140.29757 107.479052,137.228604 110.822092,134.729243 C116.23167,130.684543 121.520687,129.450827 122.084799,129.328222 C122.643037,130.200508 131.42273,143.745846 145.740737,156.201784 L145.787991,156.242653 L145.836523,156.201784 C156.969345,146.698591 164.750954,134.890163 164.828859,134.771389 L164.71264,134.681989 C164.598974,134.805871 153.375475,147.10983 145.816088,152.697314 C139.362704,139.498081 136.122602,126.955552 134.541504,118.75121 C132.93614,110.421198 132.669218,104.763471 132.639843,104.018771 C132.929754,104.045208 133.911874,104.130776 134.623241,104.14623 C135.636012,118.935757 138.388247,130.555552 140.521069,137.7037 C142.835245,145.461044 144.939971,149.771388 144.960405,149.813534 L145.095782,149.756063 C145.076625,149.701146 143.128987,144.19923 141.321836,135.865897 C139.657723,128.192845 137.776497,116.4825 138.255424,104.244314 C154.817365,104.806766 166.679434,103.774838 173.716471,102.809321 C181.356317,101.7613 185.120046,100.56245 185.157083,100.550444 L185.128986,100.406766 C184.809702,100.429499 153.006382,102.660023 133.762449,101.083778 C133.361427,101.048146 133.029371,100.401275 132.848017,99.3062555 L133.547889,98.9291163 L133.482755,98.8592568 C133.480201,98.8561917 133.195399,98.5455914 132.722857,97.9910576 C132.678158,96.5725391 132.893994,95.3717728 133.26181,94.9982096 C133.340993,94.9176221 133.417621,94.8773923 133.512129,94.881096 C154.283521,95.3066387 169.528731,94.1334587 169.679434,94.1214536 L169.681988,93.9747103 L166.430392,93.6085545 C166.531286,93.3200488 166.577263,93.025285 166.565769,92.7311599 C166.545334,92.1383119 166.305232,91.5713898 165.888885,91.1349913 L165.72158,90.9591293 L165.766279,91.21775 C165.773942,91.260151 165.781605,91.3001254 165.782882,91.340483 C165.793099,91.6035737 165.699868,91.8533821 165.518514,92.0448253 C165.334606,92.239589 165.085564,92.3490398 164.816088,92.3533821 C164.804594,92.3537653 164.793099,92.3540207 164.781605,92.3540207 C164.245207,92.3540207 163.814811,91.9383119 163.791822,91.3933566 C163.784159,91.0432927 163.969345,90.7102148 164.274581,90.5256682 L164.481477,90.4010195 L164.240098,90.3888866 C164.21711,90.3877372 164.194121,90.3853106 164.171133,90.3830118 C164.130264,90.3787972 164.086841,90.3743272 164.042141,90.3761152 C162.696037,90.415068 161.63218,91.5420156 161.670494,92.888248 C161.671771,92.9462301 161.675603,93.0061279 161.684543,93.074838 L157.246484,92.5750935 C157.97573,91.9764983 161.610469,89.1430374 164.802039,89.3704959 L164.803316,89.3704959 C169.02043,89.665515 172.08301,93.9003808 172.113661,93.9430372 L172.137927,93.9777754 L185.03831,92.7450807 L184.945078,92.636907 C184.927198,92.6163451 183.132818,90.5701127 180.521068,89.2975712 C180.655168,83.9277118 178.126432,79.6438039 173.005104,76.5637273 C171.220941,75.4916967 168.223495,74.0441872 164.00255,73.1785422 C172.112384,71.6505729 179.757339,76.0952727 180.191566,76.9533825 L180.277135,77.1229866 L180.32822,76.9399725 C184.537671,61.8674314 181.448271,51.9062567 178.721579,43.1176234 C178.446994,42.2314166 178.163469,41.3151969 177.896547,40.4240092 C175.915704,33.8211997 172.874836,27.8263084 168.856956,22.6066406 C165.642397,18.4291183 161.799485,14.736909 157.434223,11.6308937 C150.002551,6.34099601 143.545335,4.56446987 143.480201,4.54791815 L143.480201,4.54791815 Z" id="path32" fill="#0E1B3B"></path>
                        <path d="M174.629625,117.770878 C198.333328,136.743292 193.615576,158.98467 193.615576,158.98467 C193.615576,158.98467 202.581093,131.145591 175.630902,115.567813 C175.306509,116.399614 174.818642,117.217877 174.629625,117.770878" id="path34" fill="#9AA0C3"></path>
                        <path d="M168.598974,128.951465 C172.266918,123.192717 174.717748,117.609448 174.717748,117.609448 C174.717748,117.609448 199.394631,130.146868 193.615576,158.98467 C194.445717,137.349933 170.416343,129.740737 168.598974,128.951465" id="path36" fill="#0E1B3B"></path>
                        <path d="M120.245208,125.362066 C119.885948,124.640738 119.156063,123.392206 118.449933,122.312385 C95.4731777,129.574709 97.312769,152.334607 97.312769,152.334607 C97.312769,152.334607 99.4180052,132.335884 120.245208,125.362066" id="path38" fill="#FFFFFF"></path>
                        <path d="M117.0613,88.6044678 C117.917877,88.9496785 118.896421,89.5400999 120.914684,89.8094486 C124.904722,86.5200489 128.245208,85.0005087 135.31545,84.4265624 C129.744569,82.7445701 121.727072,83.0019136 117.0613,88.6044678" id="path40" fill="#FFFFFF"></path>
                        <path d="M176.463597,113.617877 L178.049804,109.579691 C178.049804,109.579691 201.357594,120.113152 196.776496,149.167302 C197.569599,122.818771 176.463597,113.617877 176.463597,113.617877" id="path42" fill="#0E1B3B"></path>
                        <path d="M135.320559,95.8684523 C134.206893,95.8496783 133.295016,96.7203041 133.295016,97.810087 C133.295016,98.9090652 134.206893,99.8362683 135.334607,99.8652593 C135.879946,99.8794356 136.372921,99.6800741 136.736906,99.3476348 C136.219665,100.446868 135.076625,101.190291 133.742015,101.151338 C131.920814,101.099487 130.453381,99.6075326 130.45849,97.8234969 C130.45849,96.0402275 131.920814,94.6361407 133.742015,94.6937397 C134.93614,94.7259236 135.974454,95.3767537 136.551721,96.3206872 C136.209447,96.0550423 135.786714,95.8849274 135.320559,95.8684523" id="path44" fill="#0E1B3B"></path>
                        <path d="M166.54278,97.8268175 C166.54278,96.5720282 165.514683,95.5296272 164.243929,95.4957831 C162.964236,95.4518495 161.934862,96.440866 161.934862,97.685055 C161.934862,98.9315429 162.964236,99.9776476 164.243929,100.007916 C165.514683,100.051594 166.54278,99.0655148 166.54278,97.8268175" id="path46" fill="#FFFFFF"></path>
                        <path d="M164.661554,95.9904191 C163.618131,95.961428 162.773942,96.7638545 162.773942,97.786843 C162.773942,98.8048507 163.618131,99.6656425 164.661554,99.6896527 C165.338438,99.7075326 165.928476,99.3673028 166.260532,98.8469963 C165.916982,100.12107 164.727965,101.039589 163.312895,100.999359 C161.625794,100.950572 160.27075,99.5745824 160.27075,97.9111087 C160.27075,96.2660257 161.620686,94.9577243 163.312895,95.0098316 C164.394632,95.0441866 165.343546,95.6311598 165.885053,96.4819899 C165.555551,96.1914408 165.130264,96.0030627 164.661554,95.9904191" id="path48" fill="#0E1B3B"></path>
                        <path d="M178.168578,95.4911854 C177.183904,95.457852 176.3908,96.2220921 176.378029,97.1825008 C176.3908,98.1438034 177.183904,98.9527434 178.158361,98.9807127 C178.687096,98.9959107 179.154529,98.7839056 179.481477,98.4392057 C179.070238,99.5015301 178.012767,100.239078 176.777773,100.195017 C175.189012,100.157341 173.899102,98.8561917 173.90421,97.2887587 C173.899102,95.7254127 175.183904,94.4976988 176.777773,94.5458469 C177.736905,94.5743271 178.588757,95.0621943 179.114938,95.7883756 C178.840353,95.6102147 178.517237,95.4997422 178.168578,95.4911854" id="path50" fill="#0E1B3B"></path>
                        <path d="M134.357596,92.9823732 C134.363981,92.8996145 134.37803,92.8187716 134.375476,92.7339696 C134.357596,92.1263068 134.104722,91.5872263 133.713917,91.1816069 C133.724135,91.2330756 133.733075,91.2844166 133.734352,91.3383119 C133.756063,91.9264345 133.283522,92.4176222 132.702423,92.427073 C132.108554,92.4468687 131.616855,91.9938674 131.595144,91.3964217 C131.583649,91.0010194 131.795654,90.6540207 132.112385,90.4624498 C132.048528,90.459257 131.985948,90.4475073 131.920814,90.4498062 C130.606638,90.4877372 129.584927,91.5752212 129.627072,92.8860769 C129.630904,93.0163451 129.652615,93.1412493 129.675603,93.2652595 C127.803317,93.3595124 125.838311,93.4343527 123.972283,93.4600232 C126.401657,90.8028074 129.116216,89.2065112 131.854403,89.2425265 C134.913151,89.2736887 138.996165,92.6188993 138.996165,92.6188993 C138.996165,92.6188993 137.093228,92.7923348 134.357596,92.9823732" id="path52" fill="#FFFFFF"></path>
                        <path d="M121.481862,126.986587 C116.505361,128.637289 112.143803,131.131542 108.518005,134.399741 C105.617239,137.015322 103.178158,140.128988 101.268324,143.656446 C98.0150678,149.664109 97.4206872,154.854402 97.4150678,154.906765 L97.2679414,154.901656 C97.2670474,154.877391 97.23282,153.915705 97.3528711,152.342269 L97.2392057,152.340992 C97.234608,152.283521 96.8057447,146.559383 99.195783,140.021708 C100.59987,136.18135 102.687609,132.814811 105.400891,130.015322 C108.792207,126.517621 113.174965,123.902168 118.427711,122.242015 L118.480968,122.225284 L118.511619,122.272028 C118.840227,122.774454 119.181223,123.325157 119.489014,123.845846 C119.637673,123.80204 119.784416,123.756063 119.934352,123.714045 L119.985821,123.699741 L120.015706,123.744058 C120.530137,124.513279 120.874965,125.353126 121.152104,126.028094 C121.288375,126.359767 121.405872,126.646102 121.524646,126.883649 L121.562704,126.959767 L121.481862,126.986587" id="path54" fill="#9AA0C3"></path>
                        <path d="M137.054914,97.9200486 C137.054914,97.2173667 136.469984,96.6436757 135.770112,96.6240078 C135.056191,96.6062556 134.49425,97.1500614 134.48531,97.8482734 C134.48531,98.5374177 135.056191,99.1213257 135.770112,99.139078 C136.469984,99.1625773 137.054914,98.6140461 137.054914,97.9200486" id="path56" fill="#FFFFFF"></path>
                        <path d="M149.655169,96.3275838 C148.611746,96.2994867 147.772666,97.0928456 147.768834,98.1163449 C147.772666,99.139078 148.611746,99.9851827 149.655169,100.018388 C150.164747,100.032309 150.625794,99.8459745 150.965513,99.5326923 C150.486586,100.555936 149.427838,101.246613 148.19029,101.204723 C146.498081,101.16577 145.139205,99.7896527 145.139205,98.1257958 C145.139205,96.4770091 146.500635,95.1809682 148.19029,95.2303935 C149.286075,95.2602786 150.245207,95.8577243 150.781605,96.7264344 C150.467429,96.4862045 150.080456,96.3351189 149.655169,96.3275838" id="path58" fill="#0E1B3B"></path>
                        <path d="M151.245207,98.187737 C151.249038,97.5185161 150.690929,96.9509554 150.003828,96.9349912 C149.30651,96.9111087 148.75734,97.4358852 148.75734,98.1257958 C148.75734,98.7883756 149.316727,99.3552976 150.003828,99.3688353 C150.690929,99.3979541 151.245207,98.8624496 151.245207,98.187737" id="path60" fill="#FFFFFF"></path>
                        <path d="M123.260661,97.3500614 C123.240482,96.3275838 122.381095,95.4872262 121.344952,95.4872262 C120.302807,95.4777754 119.488375,96.3039567 119.499103,97.3323092 C119.533458,98.3455914 120.383139,99.1851827 121.420814,99.1851827 C122.462704,99.196677 123.291312,98.3710065 123.260661,97.3500614" id="path62" fill="#9AA0C3"></path>
                        <path d="M155.23499,83.9957833 C162.960405,87.9876095 166.955296,83.1643657 173.593865,90.8120028 C175.252869,90.4777755 177.41762,89.483395 178.376752,88.585183 C178.249038,86.1621945 174.592588,81.8427821 170.272026,81.3429098 C165.03831,80.8469967 163.043419,83.670496 155.23499,83.9957833" id="path64" fill="#FFFFFF"></path>
                        <path d="M178.485308,89.7316708 C183.126432,85.4208152 187.848016,77.6475076 189.316726,67.6291171 C189.540225,73.9300109 186.657722,85.3197935 181.795653,91.7254128 C180.694759,91.0689632 178.927199,89.951211 178.485308,89.7316708" id="path66" fill="#0E1B3B"></path>
                        <path d="M178.611745,89.7145571 C183.906764,84.757086 187.845461,76.8869713 189.254146,68.5020417 C189.228603,71.5920799 188.551719,75.6648768 187.392077,79.6173671 C185.979561,84.4344806 183.985947,88.6965495 181.776496,91.6282225 C181.371643,91.3860769 180.883776,91.0859492 180.409957,90.7951446 C179.660276,90.3342251 178.947633,89.8964218 178.611745,89.7145571 Z M189.243929,67.6183891 C187.96679,76.3316711 183.925921,84.5781588 178.4355,89.6775201 L178.356317,89.7501893 L178.452103,89.7976989 C178.724133,89.9329479 179.505743,90.4127691 180.333329,90.9209428 C180.828859,91.2256682 181.342269,91.5407385 181.757339,91.7887589 L181.813533,91.8226031 L181.854402,91.7699849 C184.090672,88.8229863 186.107275,84.521837 187.53384,79.6587464 C188.809702,75.3085549 189.503188,70.8104708 189.3908,67.6265628 L189.243929,67.6183891 L189.243929,67.6183891 Z" id="path68" fill="#0E1B3B"></path>
                        <path d="M150.787991,71.3278399 C151.347378,71.8978271 153.835245,75.0574694 158.951465,76.4913135 C158.927199,76.63397 159.080456,81.2047234 154.321835,80.5444424 C153.994888,78.2309048 153.00255,75.4209432 153.00255,75.4209432 C153.00255,75.4209432 154.231158,83.2305215 149.890162,92.1590015 C148.344824,92.0893974 146.924645,92.1171114 146.13665,92.1171114 C141.878668,83.4412495 143.579818,75.4209432 143.579818,75.4209432 C143.579818,75.4209432 142.084288,79.4635995 142.084288,80.0916966 C136.510852,81.2047234 137.463598,75.9176226 137.463598,75.9176226 C137.463598,75.9176226 142.164747,75.9176226 146.162193,71.5978271 C147.260533,70.4738169 149.720303,70.2116202 150.787991,71.3278399" id="path70" fill="#FFFFFF"></path>
                        <path d="M167.911873,61.7782871 C167.664108,62.2554263 167.049804,63.283651 166.791822,63.7581082 C168.040864,63.328734 169.817365,62.8107264 171.128987,62.8107264 C167.776496,64.8229869 164.708808,68.8713904 163.504466,70.5808411 C161.937416,73.4498066 160.805871,74.2026801 158.22605,74.0582357 C154.791822,73.8901642 152.284798,72.0068948 150.282244,71.0469969 C149.338438,70.721965 147.776497,70.4401004 146.380584,71.4014031 C145.33333,71.8956559 144.513406,72.2595129 143.841631,72.5284784 C142.384415,73.1613009 140.505744,73.7484017 137.840354,73.9430377 C135.66794,74.0739445 134.455935,73.5084273 132.890163,71.0095768 C131.777774,69.4657709 128.45849,65.1155795 124.951849,63.0017864 C126.260916,63.0017864 128.048528,63.5246472 129.302679,63.9549154 C129.04342,63.4846727 128.42273,62.4399729 128.178796,61.9678145 C126.522091,58.7330764 121.679946,53.1552988 119.366664,51.8462311 C134.139205,55.2536385 134.275859,68.2982103 139.464875,68.7575973 C141.531286,69.1687084 144.215833,67.9687084 147.467429,67.8332039 C147.665386,67.8049791 149.311618,67.7750941 149.734351,67.8518502 C152.538949,68.1016586 154.744568,68.9332039 156.6143,68.5660264 C161.809702,68.1071503 161.877391,55.5407394 176.716471,51.6546603 C174.418897,52.9565759 169.56066,58.5380573 167.911873,61.7782871" id="path72" fill="#FCD006"></path>
                        <path d="M155.592589,68.7321822 C155.948911,68.7321822 156.292461,68.7042128 156.628349,68.6384402 C158.662831,68.4590021 159.936139,66.426946 161.547889,63.8544045 C164.079179,59.8116205 167.530009,54.3012758 176.261809,51.8542771 C173.825028,53.5289897 169.403572,58.6836512 167.845462,61.744826 C167.7037,62.019411 167.441886,62.4719014 167.19029,62.9097047 C167.007659,63.2246472 166.836522,63.5220929 166.726688,63.7227315 L166.636011,63.8895259 L166.814811,63.82784 C167.982116,63.4269461 169.595143,62.9542768 170.856956,62.8915693 C167.570877,64.9627059 164.591311,68.9097045 163.44444,70.5384401 C161.887608,73.3873545 160.768834,74.1266904 158.229881,73.9846725 C155.583649,73.8550429 153.457212,72.6817351 151.7484,71.7388232 C151.242653,71.4601515 150.765003,71.1969331 150.314172,70.9805857 C149.260533,70.6169842 147.722857,70.3873546 146.338438,71.340739 C145.312895,71.823753 144.484032,72.1918245 143.814811,72.4600237 C141.975731,73.2582357 140.076625,73.7057453 137.833968,73.8694745 C135.572155,74.0061284 134.430393,73.3287338 132.952743,70.9703686 C131.740737,69.288504 128.605361,65.2191555 125.223113,63.0826293 C126.482883,63.14572 128.103445,63.6211989 129.278413,64.0246472 L129.45849,64.0865884 L129.366536,63.9192832 C129.263087,63.7293726 129.099614,63.4455923 128.925923,63.1453369 C128.674326,62.7090661 128.389524,62.2144301 128.24393,61.9339704 C126.666536,58.8533829 122.208937,53.6679425 119.787609,52.0228595 C128.541504,54.1980829 132.008937,59.8344813 134.550444,63.9680699 C136.159639,66.5848004 137.43167,68.6515947 139.458489,68.8310328 C140.616855,69.0623227 141.955297,68.7916969 143.504466,68.4786701 C144.692206,68.2385679 146.038311,67.9665373 147.469984,67.9068949 C147.655169,67.8808412 149.300124,67.8481465 149.720303,67.9245194 C150.78416,68.0194108 151.736906,68.192974 152.659,68.3607901 C153.73052,68.555937 154.697314,68.7321822 155.592589,68.7321822 L155.592589,68.7321822 Z M176.697314,51.5833959 C167.56066,53.9762439 164.012767,59.6403561 161.422729,63.7759882 C159.832691,66.3139192 158.577263,68.3186445 156.606637,68.4925909 C155.450826,68.7192831 154.168579,68.4859498 152.684543,68.2157071 C151.759894,68.0472524 150.803317,67.8730507 149.740737,67.7784147 C149.32439,67.7026803 147.680712,67.7284785 147.457212,67.7601516 C146.020431,67.819794 144.66794,68.0928463 143.475092,68.3339702 C141.941248,68.6439319 140.618132,68.9116202 139.478924,68.6853112 C137.518515,68.5112371 136.264364,66.4722844 134.67688,63.890803 C132.077902,59.6669206 128.52107,53.881991 119.383266,51.7744559 L119.330265,51.9104712 C121.613662,53.2025529 126.456446,58.7667929 128.113662,62.001531 C128.260533,62.2853113 128.545335,62.7812245 128.798209,63.2190278 C128.925923,63.4398452 129.047251,63.6517225 129.144314,63.8233701 C127.887609,63.4008924 126.201529,62.9280955 124.951849,62.9280955 L124.686715,62.9280955 L124.91379,63.0648771 C126.062194,63.757342 129.132819,65.921582 132.830137,71.0527441 C134.340993,73.4637274 135.512129,74.1577248 137.844186,74.016601 C140.104722,73.8517223 142.019154,73.4003813 143.871005,72.5960391 C144.541503,72.3275844 145.372921,71.9584912 146.411235,71.4681974 C147.756063,70.5438041 149.24393,70.7675589 150.257978,71.1167287 C150.697314,71.3280953 151.173687,71.5904197 151.67688,71.8680697 C153.398464,72.8181336 155.54278,74.0007644 158.222218,74.1319266 C160.832691,74.2779036 161.982116,73.5222204 163.5696,70.6162179 C164.733074,68.9637275 167.813533,64.8864607 171.166024,62.8739448 L171.394632,62.7370355 L171.128987,62.7370355 C169.874836,62.7370355 168.197952,63.2067673 166.94891,63.6266906 C167.051081,63.4446983 167.18135,63.2189001 167.318003,62.9833956 C167.570877,62.5441875 167.832691,62.089909 167.977007,61.8121313 L167.977007,61.8117481 C169.620685,58.5839066 174.458489,53.0186449 176.752231,51.7189004 L176.697314,51.5833959 L176.697314,51.5833959 Z" id="path74" fill="#FCD006"></path>
                        <path d="M167.661554,53.6200497 C166.914428,54.6549156 166.157084,55.5365248 165.338438,56.3816078 C166.661554,53.7664099 165.300124,52.1800753 163.665385,52.0984661 C160.141758,51.8507011 157.346101,55.6220931 157.346101,55.6220931 C157.346101,55.6220931 157.584926,53.1850561 160.750954,48.3952734 C155.936139,52.7058735 153.54278,57.6247751 153.54278,57.6247751 C153.54278,57.6247751 155.312895,50.353894 158.398463,44.8090666 C153.865897,48.7750946 148.597697,60.7650049 148.597697,60.7650049 C148.597697,60.7650049 145.435501,51.7402286 140.489141,44.421838 C142.546612,49.4104713 143.439332,57.2122591 143.439332,57.2122591 C143.439332,57.2122591 141.983394,52.1421443 137.720303,47.6247753 C140.209447,52.9066398 140.020431,55.3501902 140.020431,55.3501902 C140.020431,55.3501902 138.362704,52.6010204 135.100891,51.7367803 C132.771389,51.0747114 130.587481,52.5469974 130.867174,55.6522336 C130.255425,54.911876 129.518515,53.8817356 128.781606,52.5355032 C126.232947,47.2163462 126.599358,41.4573425 128.0166,36.3805866 C129.062577,33.0868446 130.347379,30.1008932 131.597698,27.6615574 C132.878668,25.2771386 134.094505,23.4750952 134.750954,22.5530007 L135.256702,21.8646227 C137.988502,23.8544055 142.524901,28.2413786 145.197953,37.2669212 C145.010213,33.1404845 144.435501,31.2209443 144.435501,31.2209443 C144.435501,31.2209443 148.19923,35.632183 149.025539,42.0464868 C150.348655,35.7650055 153.767557,31.9514679 154.224773,31.411238 C153.356318,34.3895266 153.07407,37.4572149 153.07407,37.4572149 C153.07407,37.4572149 156.819919,26.2094502 162.476369,21.7994886 C163.609191,23.1877389 165.481477,26.180076 167.228604,30.0651333 C166.636011,29.6871002 166.015322,29.328224 165.357595,28.997445 C169.128987,35.0344819 172.745845,45.9315442 167.661554,53.6200497" id="path76" fill="#FCD006"></path>
                        <path d="M153.144313,37.4802034 C153.153253,37.4533835 154.098336,34.6334602 155.72158,31.3128983 C157.20817,28.2720299 159.579817,24.180076 162.464875,21.9016597 C163.513406,23.2056188 165.315449,26.0344821 167.060021,29.8710082 C166.499357,29.5210721 165.951465,29.2132815 165.3908,28.9323109 L165.155807,28.813537 L165.295015,29.0370363 C168.638565,34.3895266 172.887607,45.5826298 167.600251,53.5780319 C166.98467,54.4312885 166.339715,55.2123869 165.591311,56.009194 C166.048527,54.9146857 166.062576,53.9149412 165.624517,53.1607905 C165.234989,52.4911864 164.504466,52.0665377 163.669217,52.0247752 C163.556829,52.0168569 163.445717,52.0131532 163.334606,52.0131532 C160.47126,52.0127701 158.122601,54.5665376 157.467429,55.3517228 C157.629626,54.5868441 158.291184,52.2508288 160.812257,48.4358864 L160.702423,48.3402287 C156.874836,51.7667931 154.552997,55.619028 153.772665,57.033715 C154.27075,55.1698581 155.931031,49.3925914 158.46232,44.8449542 L158.349932,44.753511 C154.149421,48.4291176 149.265641,59.0968057 148.60536,60.5674314 C148.13665,59.277904 145.070239,51.068198 140.550443,44.3805864 L140.420175,44.4500627 C142.084288,48.4819911 142.992334,54.425286 143.27075,56.4858223 C142.7037,54.9296283 141.070239,51.0665377 137.773943,47.5740729 L137.653892,47.6561929 C139.461044,51.4923359 139.938694,54.0782873 139.952742,55.1160906 C139.498081,54.4675593 137.863343,52.3925913 135.118771,51.6653882 C133.943803,51.3311609 132.796932,51.5307778 131.973177,52.2125147 C131.126434,52.9137918 130.706255,54.0480191 130.776497,55.4246474 C130.086842,54.5636002 129.438056,53.5808416 128.84674,52.4999987 C126.644697,47.9048519 126.38863,42.4869721 128.086842,36.4010208 C129.031925,33.4291179 130.268196,30.4176238 131.662832,27.694763 C132.959128,25.2822471 134.191568,23.4648781 134.81098,22.5964234 L135.273304,21.968071 C138.38697,24.2541501 142.601529,28.7611742 145.12771,37.2873554 L145.272027,37.2630897 C145.128987,34.1340988 144.758617,32.2528728 144.591312,31.5351205 C145.39591,32.5810975 148.251593,36.6181345 148.952742,42.0559376 L149.098336,42.0616848 C149.900379,38.2503183 151.659,34.5874832 154.061299,31.7177514 C153.273304,34.5644947 153.003828,37.421455 153.001273,37.4508292 L153.144313,37.4802034 Z M162.487863,21.6973175 L162.430392,21.7407402 C159.49808,24.0280965 157.090673,28.1736902 155.58748,31.2503185 C154.408681,33.6628344 153.58748,35.8109825 153.219664,36.8224767 C153.351209,35.7662826 153.674326,33.5644947 154.296292,31.4316723 L154.168579,31.3639839 L154.10983,31.4329494 C151.696037,34.2477642 149.905488,37.8556823 149.042142,41.6288623 C148.11877,35.485312 144.527455,31.2158357 144.491695,31.172413 L144.363981,31.2413785 C144.370367,31.2592585 144.8825,33.0114934 145.093228,36.66922 C142.523624,28.4214552 138.367813,24.0395907 135.300124,21.8058743 L135.241376,21.7624516 L134.692206,22.509578 C134.070239,23.381864 132.832691,25.2056188 131.532564,27.6257975 C130.134096,30.3575982 128.893994,33.3767552 127.946357,36.3588752 C126.236651,42.4827576 126.495782,47.9353756 128.715195,52.5674316 C129.355041,53.7361417 130.058745,54.7886321 130.809703,55.6991046 L130.961683,55.8831404 L130.939971,55.6455925 C130.81098,54.2135363 131.212002,53.0347369 132.067685,52.32618 C132.853126,51.6757331 133.951465,51.4867165 135.080456,51.8076615 C138.277136,52.6549157 139.939971,55.3610459 139.956574,55.3882489 L140.075348,55.5855669 L140.093228,55.3559373 C140.10089,55.2579807 140.246484,52.9639834 137.984671,48.0191559 C141.943802,52.3844176 143.353764,57.183268 143.367813,57.2325656 L143.512129,57.20383 C143.503189,57.1291173 142.671772,49.9840345 140.81098,45.0393348 C145.477646,52.1591302 148.496803,60.7016588 148.527455,60.7895259 L148.590035,60.9658989 L148.665386,60.7947622 C148.716471,60.677904 153.726688,49.3440601 158.120047,45.1623233 C155.195398,50.6003819 153.487863,57.5362693 153.471261,57.607406 L153.609192,57.6570867 C153.63218,57.6094494 155.908042,52.9946347 160.374198,48.8394624 C157.530009,53.2736896 157.274581,55.5911863 157.272027,55.6148134 L157.246484,55.8798198 L157.404849,55.665899 C157.432946,55.6284788 160.214555,51.9270741 163.660277,52.1720293 C164.446995,52.2113652 165.132818,52.6085555 165.496803,53.2348646 C165.962959,54.0367803 165.882499,55.1423996 165.272027,56.3482745 L165.3908,56.4328211 C166.278412,55.51724 167.017876,54.6371634 167.721579,53.663217 L167.722857,53.6606628 C172.978284,45.7135365 168.897825,34.650063 165.559383,29.1839073 C166.102167,29.4648779 166.638565,29.7752228 167.189012,30.1277132 L167.397186,30.2605356 L167.296292,30.034482 C165.48914,26.015325 163.600251,23.0613021 162.532563,21.7522344 L162.487863,21.6973175 L162.487863,21.6973175 Z" id="path78" fill="#FCD006"></path>
                        <path d="M163.478923,70.6211987 C161.925922,73.4523609 160.798208,74.1964222 158.22605,74.0582357 C157.13665,74.0053621 156.135373,73.7758602 155.222218,73.46079 C155.782882,73.5997427 156.390801,73.6952727 157.03831,73.7279675 C159.517237,73.8624503 160.606637,73.1406112 162.10983,70.4021694 C163.021707,68.7753495 166.762448,64.1781593 171.128987,62.8107264 C167.762448,64.8363968 164.665385,68.9284785 163.478923,70.6211987" id="path80" fill="#FFFFFF"></path>
                        <path d="M167.610468,62.2666651 C167.42656,62.6141747 167.05619,63.2601517 166.758617,63.7862053 C166.103444,63.9620674 165.454657,64.1687085 164.918259,64.3556817 C165.177518,63.8816076 165.789268,62.8254135 166.034479,62.3467417 C167.591311,59.2588746 171.888885,53.8166015 176.716471,51.6546603 C174.325666,53.0213269 169.316726,58.8670483 167.610468,62.2666651" id="path82" fill="#FFFFFF"></path>
                        <path d="M156.946356,61.0521058 C154.754785,60.6503178 152.389524,61.596167 148.407404,61.5390789 C145.090673,61.4925911 140.999996,60.2960394 138.977008,61.511365 C137.572155,62.3420163 138.69476,65.2969332 140.411235,66.1378017 C142.026816,66.9357582 145.989779,66.2731784 148.597697,66.3016586 C151.157084,66.3390788 154.149421,66.8452091 156.334607,66.0551708 C158.742014,64.8667928 159.09195,61.2860777 156.946356,61.0521058" id="path84" fill="#FFFFFF"></path>
                        <path d="M165.206892,40.2247755 C165.206892,40.2247755 187.68965,47.4019145 187.107275,67.3372908 C187.900378,63.8680699 194.971898,44.1300117 164.362703,32.8352482 C165.10089,36.0025534 165.206892,40.2247755 165.206892,40.2247755" id="path86" fill="#FCD006"></path>
                        <path d="M165.279689,40.1711356 C165.264364,39.6832685 165.126433,35.8837794 164.464875,32.952745 C176.656445,37.4750948 184.266917,43.8601522 187.085564,51.93065 C189.349931,58.4125145 187.853124,64.1586191 187.214555,66.6121312 C187.206892,66.6408668 187.199229,66.669347 187.191566,66.6971886 C187.210723,62.3771376 186.136649,58.3287342 183.994887,54.6536385 C182.197952,51.5697305 179.648782,48.7413781 176.420174,46.2468699 C171.200507,42.2145583 165.850571,40.3614294 165.279689,40.1711356 L165.279689,40.1711356 Z M164.259255,32.7190286 L164.291184,32.8531282 C165.019153,35.9757335 165.131541,40.183907 165.132818,40.2260526 L165.134095,40.2784153 L165.183904,40.2950181 C165.240098,40.3128981 170.85951,42.1360143 176.333329,46.3664101 C179.546611,48.8490409 182.081732,51.6630894 183.86845,54.7300114 C186.100889,58.5618121 187.166023,62.8028081 187.034478,67.3352474 L187.180072,67.3537659 C187.222218,67.1660264 187.284797,66.9265628 187.357594,66.6492959 C187.999995,64.182757 189.504465,58.4062565 187.224772,51.8821188 C184.380583,43.7398456 176.697314,37.3090668 164.388246,32.7662827 L164.259255,32.7190286 L164.259255,32.7190286 Z" id="path88" fill="#FCD006"></path>
                        <path d="M180.257978,83.1067668 C188.869727,74.933076 198.178795,44.4890155 153.185181,36.3192839 C192.623239,50.1730511 183.56066,74.7045958 180.257978,83.1067668" id="path90" fill="#0E1B3B"></path>
                        <path d="M180.450826,82.815579 C181.303955,80.6372904 182.735628,76.8544042 183.334606,72.3851834 C184.058744,66.9827569 183.371643,61.9394621 181.291183,57.3951454 C177.291183,48.6563206 168.140481,41.6496797 154.086842,36.5619403 C163.618131,38.3882494 171.251592,41.3596414 176.785436,45.400382 C181.655168,48.9561929 184.88633,53.3137918 186.388246,58.3522335 C188.100889,64.0929741 187.181349,69.4208156 186.109829,72.8793085 C184.893993,76.7998704 182.791822,80.4840337 180.450826,82.815579 L180.450826,82.815579 Z M153.197953,36.246487 L153.159639,36.3882494 C167.673048,41.4864613 177.09195,48.5747114 181.157084,57.4565758 C186.054912,68.1565756 181.943801,78.6141743 180.189012,83.0798191 L180.307786,83.1602789 C182.763725,80.8296276 184.985947,77.0025524 186.250315,72.9229867 C187.32822,69.4449536 188.252869,64.086333 186.530008,58.3100879 C185.017875,53.2399731 181.768833,48.856576 176.872282,45.2812249 C171.14559,41.0987218 163.180073,38.0587475 153.197953,36.246487 L153.197953,36.246487 Z" id="path92" fill="#0E1B3B"></path>
                        <path d="M161.045973,32.0510848 C187.213278,41.8174958 188.798207,58.3137916 188.798207,58.3137916 C188.798207,58.3137916 188.722856,30.2017872 147.300124,19.1839076 C163.845462,28.1468703 167.295015,33.0689647 167.295015,33.0689647 C167.295015,33.0689647 163.266918,31.8365254 161.045973,32.0510848" id="path94" fill="#0E1B3B"></path>
                        <path d="M167.478923,33.2017872 L167.355041,33.0268191 C167.321835,32.9770107 163.786714,28.0996162 147.885054,19.417624 C157.061299,21.9195397 164.906765,25.4802037 171.210724,30.0025535 C176.362703,33.6973172 180.503188,38.0408675 183.51596,42.91111 C186.195398,47.2441878 187.469983,51.2011481 188.066407,53.7577253 C188.386968,55.1309054 188.551719,56.257853 188.636011,57.0475082 C188.537671,56.6366525 188.401017,56.1357585 188.212,55.5606627 C187.702422,54.0057458 186.694759,51.5712631 184.795653,48.8030639 C182.661554,45.6933577 179.85951,42.8042135 176.466151,40.2158355 C172.302678,37.0408675 167.233712,34.3128982 161.393355,32.1034475 C163.625794,32.0293734 167.234989,33.1277131 167.273304,33.1392073 L167.478923,33.2017872 Z M147.319281,19.1123878 L147.265641,19.2490417 C161.872282,27.162196 166.298846,31.9719021 167.094504,32.9323108 C166.215832,32.6807144 162.94891,31.7943798 161.03831,31.9770107 L161.019153,32.1200503 C166.982116,34.3448267 172.148144,37.1085559 176.376752,40.3333323 C179.757339,42.912004 182.549165,45.789654 184.674325,48.8864611 C186.563214,51.6403563 187.564491,54.0609182 188.071515,55.6066397 C188.620685,57.2785426 188.724133,58.3105988 188.72541,58.3209436 L188.872281,58.3135362 C188.872281,58.2959117 188.860787,56.5159628 188.212,53.7323103 C187.613022,51.1652605 186.335883,47.1920806 183.646228,42.8416337 C180.623239,37.9527449 176.47126,33.5938689 171.302678,29.8863339 C164.845462,25.2528729 156.776497,21.6283519 147.319281,19.1123878 L147.319281,19.1123878 Z" id="path96" fill="#0E1B3B"></path>
                        <path d="M179.461043,29.2311615 L179.800762,29.2311615 C180.187735,29.2311615 180.514683,29.3729239 180.514683,29.7356314 C180.514683,29.9936136 180.32822,30.2515957 179.800762,30.2515957 C179.648782,30.2515957 179.54278,30.2388243 179.461043,30.22733 L179.461043,29.2311615 Z M179.461043,27.6040862 L178.992333,27.6040862 L178.992333,30.5440605 C179.238821,30.5785433 179.472537,30.6143032 179.82375,30.6143032 C180.269472,30.6143032 180.561937,30.5197949 180.736905,30.392081 C180.91315,30.2630899 181.006381,30.0638562 181.006381,29.7828856 C181.006381,29.3959124 180.748399,29.162196 180.432946,29.0676877 L180.432946,29.0446991 C180.690928,28.997445 180.865896,28.7637285 180.924644,28.3307783 C180.994887,27.8735625 181.06513,27.6973173 181.112384,27.6040862 L180.620685,27.6040862 C180.550442,27.6973173 180.4802,27.9667937 180.421451,28.3537669 C180.351209,28.7279686 180.163469,28.8684539 179.789268,28.8684539 L179.461043,28.8684539 L179.461043,27.6040862 Z M179.952741,31.3639839 C178.793099,31.3639839 177.844185,30.3678153 177.844185,29.1379303 C177.844185,27.8850568 178.793099,26.9016596 179.964236,26.9016596 C181.135372,26.8901654 182.072792,27.8850568 182.072792,29.1264361 C182.072792,30.3678153 181.135372,31.3639839 179.964236,31.3639839 L179.952741,31.3639839 Z M179.964236,31.7739456 C181.404849,31.7739456 182.552997,30.6015318 182.552997,29.1379303 C182.552997,27.6513403 181.404849,26.4916979 179.952741,26.4916979 C178.512128,26.4916979 177.340992,27.6513403 177.340992,29.1379303 C177.340992,30.6015318 178.512128,31.7739456 179.952741,31.7739456 L179.964236,31.7739456 L179.964236,31.7739456 Z" id="path98" fill="#0E1B3B"></path>
                        <path d="M179.53384,29.3052355 L179.800762,29.3052355 C180.039587,29.3052355 180.441886,29.3601525 180.441886,29.7356314 C180.441886,30.0166021 180.208169,30.1775216 179.800762,30.1775216 C179.689651,30.1775216 179.604082,30.1711359 179.53384,30.1634731 L179.53384,29.3052355 Z M179.800762,29.1583645 L179.388246,29.1583645 L179.388246,30.291187 L179.450826,30.300127 C179.536394,30.3116212 179.644951,30.3243926 179.800762,30.3243926 C180.380583,30.3243926 180.588757,30.0204335 180.588757,29.7356314 C180.588757,29.3742011 180.293738,29.1583645 179.800762,29.1583645 Z M180.660276,27.6768831 L180.999995,27.6768831 C180.955296,27.795657 180.90421,27.9833965 180.853124,28.3192841 C180.816087,28.5887605 180.711362,28.9195395 180.420174,28.9719022 L180.360149,28.9833965 L180.360149,29.1226046 L180.412511,29.1379303 C180.5696,29.1839073 180.933584,29.3409954 180.933584,29.7828856 C180.933584,30.034482 180.855679,30.2145586 180.693482,30.3320554 C180.564491,30.4278409 180.307786,30.5402291 179.82375,30.5402291 C179.50702,30.5402291 179.288629,30.5121321 179.06513,30.4802036 L179.06513,27.6768831 L179.388246,27.6768831 L179.388246,28.9412509 L179.789268,28.9412509 C180.206892,28.9412509 180.41762,28.7701142 180.492971,28.3665382 C180.56066,27.9220938 180.624517,27.7458486 180.660276,27.6768831 L180.660276,27.6768831 Z M181.229881,27.5312892 L180.583648,27.5312892 L180.561937,27.5606634 C180.482754,27.6641117 180.411234,27.9272024 180.348654,28.3422726 C180.287352,28.6717745 180.135372,28.795657 179.789268,28.795657 L179.53384,28.795657 L179.53384,27.5312892 L178.919536,27.5312892 L178.919536,30.6066404 L179.003827,30.6194118 C179.247761,30.6538945 179.477646,30.6871001 179.82375,30.6871001 C180.238821,30.6871001 180.5696,30.6053632 180.780328,30.4508294 C180.979561,30.3039584 181.080455,30.0791819 181.080455,29.7828856 C181.080455,29.4610465 180.908041,29.199233 180.611745,29.0587477 C180.777773,28.9680708 180.93997,28.7675599 180.997441,28.3397183 C181.06513,27.8978282 181.132818,27.7266915 181.177518,27.6360146 L181.229881,27.5312892 Z M179.952741,31.2899098 C178.831413,31.2899098 177.918259,30.3243926 177.918259,29.1379303 C177.918259,27.9246481 178.817365,26.9744565 179.964236,26.9744565 C179.970621,26.9744565 179.977007,26.9744565 179.983393,26.9744565 C180.49808,26.9744565 180.98467,27.1762445 181.356317,27.5453378 C181.771388,27.9552994 181.999995,28.5172407 181.999995,29.1264361 C181.999995,30.319284 181.086841,31.2899098 179.964236,31.2899098 L179.952741,31.2899098 Z M179.98467,26.8275855 C178.748399,26.813537 177.771388,27.8352483 177.771388,29.1379303 C177.771388,30.4061295 178.749676,31.4367808 179.952741,31.4367808 L179.964236,31.4367808 C181.167301,31.4367808 182.145589,30.401021 182.145589,29.1264361 C182.145589,28.4776494 181.901656,27.8799482 181.459766,27.4418895 C181.060021,27.0446992 180.536394,26.8275855 179.98467,26.8275855 L179.98467,26.8275855 Z M179.952741,31.6998715 C178.552997,31.6998715 177.413789,30.5504462 177.413789,29.1379303 C177.413789,27.694763 178.528731,26.5644949 179.952741,26.5644949 C181.369089,26.5644949 182.478923,27.694763 182.478923,29.1379303 C182.478923,30.5747119 181.374197,31.6998715 179.964236,31.6998715 L179.952741,31.6998715 Z M179.952741,26.4176239 C178.446994,26.4176239 177.268195,27.6130261 177.268195,29.1379303 C177.268195,30.6321831 178.472537,31.8467425 179.952741,31.8467425 L179.964236,31.8467425 C181.431669,31.8467425 182.625794,30.6321831 182.625794,29.1379303 C182.625794,27.6130261 181.452103,26.4176239 179.952741,26.4176239 L179.952741,26.4176239 Z" id="path100" fill="#0E1B3B"></path>
                    </g>
                </g>
            </g>
        </g>
    </g>
</svg>