<?xml version="1.0" encoding="UTF-8"?>
<svg width="200px" height="200px" viewBox="0 0 200 200" version="1.1" xmlns="http://www.w3.org/2000/svg" xmlns:xlink="http://www.w3.org/1999/xlink">
    <!-- Generator: Sketch 54.1 (76490) - https://sketchapp.com -->
    <title>bemidji-st</title>
    <desc>Created with Sketch.</desc>
    <g id="bemidji-st" stroke="none" stroke-width="1" fill="none" fill-rule="evenodd">
        <g id="bemidji-st_BGL">
            <g id="bemidji-st" transform="translate(0.000000, 21.000000)">
                <g id="g10">
                    <g transform="translate(99.296167, 78.941847) scale(-1, 1) rotate(-180.000000) translate(-99.296167, -78.941847) translate(0.000000, 0.134863)">
                        <g id="g12">
                            <path d="M197.794585,78.5603646 C197.794585,35.172442 153.5161,0 98.8964474,0 C44.2775553,0 0,35.172442 0,78.5603646 C0,121.947697 44.2775553,157.120898 98.8964474,157.120898 C153.5161,157.120898 197.794585,121.947697 197.794585,78.5603646" id="path14" fill="#FFFFFF" fill-rule="nonzero"></path>
                            <path d="M113.453688,18.2099762 C110.284661,23.8992504 106.369435,28.9563831 109.228319,35.0670851 C121.059352,60.3527484 123.506686,77.4620397 140.496048,83.1101826 C143.03127,83.953038 159.087671,90.6954602 159.087671,110.923991 C159.087671,118.50969 150.214397,119.773973 143.03127,121.881112 C128.242479,126.095389 119.157936,124.409678 103.73534,124.409678 C64.6504246,124.409678 14.5798041,117.034693 14.5798041,78.0530499 C14.5798041,36.3313683 58.101103,13.1528435 99.9325078,13.1528435 C105.636756,13.1528435 109.862125,13.995699 113.453688,18.2099762 L113.453688,18.2099762" id="path16" fill="#CFAA6D" fill-rule="nonzero"></path>
                            <path d="M69.0253715,36.758696 L63.5013778,36.7603817 L69.0253715,36.7619831 C69.1926961,38.4374954 68.1307764,40.9881446 65.1532435,44.5255246 C59.4819535,51.2649967 55.7920234,57.7675422 53.4294507,63.7300702 C50.282903,71.6713699 49.4906464,78.6545116 49.5067873,83.9586009 C49.5176887,87.588695 49.9078593,90.4333321 50.1812407,92.2606427 C50.8545954,96.7657051 48.0173448,91.7136296 48.0173448,91.7136296 C48.0173448,91.7136296 46.2839295,88.9633922 44.99553,83.9635737 L44.9946004,83.9635737 C44.3779501,81.5765228 43.8646523,78.6776058 43.6896375,75.3210183 C43.5301721,72.2639816 44.0089064,68.151437 44.9572482,63.7300702 L44.9582623,63.7300702 C47.2283839,53.1430472 52.1919247,40.8076892 57.5221429,37.0711425 C57.6729886,36.9657855 57.8248484,36.8624515 57.9773842,36.758696 L57.9829617,36.758696 C62.8352062,33.5834909 68.670525,33.2236759 69.0253715,36.758696" id="path18" fill="#231F20"></path>
                            <path d="M23.8610803,83.961888 C19.4053443,79.7640465 15.1073837,74.7003395 12.1578227,68.9159069 C12.1578227,68.9159069 12.6629233,66.4969961 13.67304,63.7300702 L13.6743921,63.7300702 C14.9228196,60.3149042 16.9427149,56.375145 19.7338245,55.8191133 C20.5930955,58.5919391 21.5117752,61.2268738 22.4710184,63.7284688 L22.4730466,63.7284688 C25.6334535,71.9613965 29.2283127,78.7104772 32.5148891,83.9586009 C38.201644,93.0394412 42.9650713,97.6271034 42.9650713,97.6271034 C42.9650713,97.6271034 33.0799899,92.6483562 23.8647141,83.961888 L23.8610803,83.961888" id="path20" fill="#231F20"></path>
                            <path d="M38.4145181,69.2362763 C36.4517498,67.295433 34.4628687,66.2829951 32.1365496,63.7300702 L32.1319862,63.7300702 C29.5907649,60.936763 26.64788,56.309318 22.8995553,46.6326632 C21.819044,43.813986 25.221818,39.6774201 28.6516344,36.758696 C31.6308575,34.2232182 34.6308693,32.6066215 34.730588,33.5684038 C34.8461096,34.6867887 34.9553776,35.7489551 35.0586457,36.758696 L35.0589837,36.758696 C36.924146,55.0661062 36.7458354,55.9780758 39.1493942,63.7300702 L39.1497323,63.7300702 C39.5082125,64.887395 39.9231438,66.1928095 40.4106668,67.7320321 C41.5532065,71.3358292 39.3421556,70.1532187 38.4145181,69.2362763" id="path22" fill="#231F20"></path>
                            <path d="M63.0279675,84.2598374 C63.0279675,84.2598374 63.8971259,89.308963 67.2718434,95.9843781 C71.1749856,103.704934 75.2006635,106.407971 75.2006635,106.407971 C76.1853435,106.692857 76.3768372,107.611569 75.4822421,107.969783 C73.4339523,108.793252 68.4915384,109.369765 66.1467967,108.964352 C62.7780792,108.381939 61.6573424,106.603514 60.8898464,101.153611 C60.0926883,95.4904648 60.4712813,88.0151799 61.0846359,85.2775854 C61.5263559,83.3083379 63.0279675,84.2598374 63.0279675,84.2598374" id="path24" fill="#231F20"></path>
                            <path d="M150.327637,80.8999628 L144.40874,64.1514979 C144.374092,64.0553281 144.126485,63.9095141 143.747047,63.7350431 L143.736906,63.7350431 C142.069576,62.987346 137.883925,61.792177 137.905897,62.4151314 C137.905897,62.4151314 138.172941,62.9452032 138.542238,63.7300702 C139.204776,65.1441288 140.183371,67.3879786 140.469006,68.8451913 C140.469006,68.8451913 138.309843,66.3310378 136.50054,63.7300702 C136.193778,63.2908582 135.895467,62.8473477 135.622508,62.4151314 C135.236309,61.8040612 130.274881,60.9871657 130.405868,61.5106633 L130.996574,63.7300702 L134.749547,77.8495846 C142.731269,82.8342317 150.327637,80.8999628 150.327637,80.8999628 Z M160.356127,110.881848 C160.818382,117.375206 160.577536,116.413508 158.759783,118.120291 C156.383435,120.3547 133.891797,129.489568 103.7421,129.021783 C81.1815886,128.671155 40.670865,119.489931 20.364334,105.632544 C12.3361333,100.153984 15.2938915,89.6182909 15.2938915,89.6182909 C38.9559568,112.375388 77.7352088,120.369029 88.6127447,122.241011 C130.648404,129.471025 150.712145,117.720777 150.712145,117.720777 C150.712145,117.720777 140.249287,116.166552 145.194659,107.323312 C146.344804,105.57523 149.176646,110.388778 152.620322,110.266564 C154.214131,110.212621 153.405395,107.976525 151.895248,107.323312 C148.696644,106.610257 148.087346,106.236872 147.063962,105.061088 C147.063962,105.061088 145.852971,103.031492 147.130723,102.137223 C152.350743,91.5509585 137.48336,85.5936562 133.01292,83.9635737 L133.000244,83.9635737 C132.450101,83.7643227 132.062212,83.6326687 131.887282,83.5635545 C125.775709,81.1847636 122.606682,81.8942793 121.231747,83.9586009 L121.228367,83.9586009 C119.287232,86.8756393 120.933436,92.4941137 122.911754,95.9017783 C123.983307,97.7467888 117.929199,99.226843 110.90072,90.3490466 C109.060995,87.9469086 107.812821,85.8431414 106.895071,83.9602866 L106.895071,83.9602866 C103.126887,76.228015 104.972528,72.2413088 94.4091057,66.5694816 C91.9347297,65.2402986 88.9119008,64.188415 85.6955501,63.7350431 L85.6651274,63.7350431 C83.5731473,63.4469551 81.3994486,63.4139994 79.2415527,63.7300702 L79.2319189,63.7300702 C73.3906845,64.5837985 67.6600703,67.9762917 63.9605064,75.7045175 C63.5918007,76.3893376 62.1096259,76.3383448 62.088161,74.1719535 C62.0584144,71.2153851 61.2299041,67.5002469 61.4065245,63.7300702 L73.2966278,63.7290588 L61.4065245,63.7264459 C61.4758205,62.2372889 61.7019623,60.7386077 62.1954853,59.2754949 C65.5757804,51.2683682 69.3786123,45.7898078 81.6321819,47.4755187 C89.3538744,48.5376008 93.4643132,62.6469167 113.094532,59.8055667 C116.359052,59.3327248 114.976511,57.3411416 111.404384,56.9509839 C100.042367,55.7084464 88.0626017,45.9767531 79.2009047,36.7603817 L79.1992991,36.7603817 C71.0505908,28.2853859 65.5394422,20.2506135 65.5757804,19.661289 C62.0403298,13.1129764 88.9490841,9.78732172 90.506555,15.025584 C93.8868501,26.4041325 95.5769976,27.6684157 104.451117,33.5684038 C104.451117,33.5684038 100.010255,20.6700184 101.915051,15.4470117 C103.605198,10.8113068 118.620469,14.7871402 121.775129,18.3970058 C112.905235,21.9724829 111.275933,29.3767994 113.833971,36.758696 C117.002998,45.9086504 126.605571,55.0249749 136.834344,56.7830871 C142.218309,57.7086266 146.428466,57.2509561 147.245653,60.6002951 L148.298615,63.7300702 L154.004553,80.6744147 C155.295825,81.6077928 156.388506,82.7190134 157.308791,83.9586009 L145.15494,83.9612137 L157.308791,83.9635737 C162.754446,91.3385589 162.098669,103.392235 160.356127,110.881848 L160.356127,110.881848 Z" id="path26" fill="#231F20"></path>
                            <path d="M107.000705,109.764222 C107.000705,109.764222 104.742668,108.276582 106.840986,106.648185 C111.102693,103.337449 114.04862,105.335859 116.164685,106.659985 C117.359619,106.611942 118.757371,106.035429 119.609205,105.535616 C120.041883,106.081786 118.954273,107.848411 117.872579,108.938223 C113.168898,113.691928 107.000705,109.764222 107.000705,109.764222" id="path28" fill="#231F20"></path>
                            <path d="M128.5391,116.408451 C126.584444,122.242697 117.624127,121.539755 108.176202,120.004073 C93.2936083,117.587606 91.6871231,109.242494 91.6871231,109.242494 C105.088303,115.657467 121.21231,114.888783 128.14445,113.109515 C128.972623,114.289513 128.796002,115.639767 128.5391,116.408451" id="path30" fill="#231F20"></path>
                            <path d="M176.899291,11.2360217 L178.95282,16.586468 L180.934518,16.586468 L180.934518,9.31186696 L179.641555,9.31186696 L179.641555,15.226015 L179.606907,15.226015 L177.323518,9.31186696 L176.438726,9.31186696 L174.155336,15.226015 L174.119843,15.226015 L174.119843,9.31186696 L172.827726,9.31186696 L172.827726,16.586468 L174.809424,16.586468 L176.899291,11.2360217 Z M171.552509,15.5269987 L169.305458,15.5269987 L169.305458,9.31186696 L168.012495,9.31186696 L168.012495,15.5269987 L165.763754,15.5269987 L165.763754,16.586468 L171.552509,16.586468 L171.552509,15.5269987 L171.552509,15.5269987 Z" id="path32" fill="#FFFFFF" fill-rule="nonzero"></path>
                            <path d="M84.8885047,2.10878218 C88.8662669,1.70348671 92.9200857,1.49606842 97.0347499,1.49606842 C149.909325,1.49606842 192.769776,35.8358535 192.769776,78.1962511 C192.769776,120.556143 149.909325,154.896602 97.0347499,154.896602 C67.2197024,154.896602 40.6005549,143.976567 23.0431334,126.856487 L23.2223735,126.734273 C39.9380171,141.104116 63.6792659,150.079683 90.0333137,150.079683 C140.639711,150.079683 181.662972,116.98075 181.662972,76.1500509 C181.662972,35.3173289 140.639711,2.21907824 90.0333137,2.21907824 C88.3161238,2.21907824 86.6090748,2.25727645 84.9147019,2.33234116 L84.8885047,2.10878218 L84.8885047,2.10878218" id="path34" fill="#004C40" fill-rule="nonzero"></path>
                            <path d="M88.3313352,2.02022336 C91.2138818,1.81213921 94.1293863,1.70678228 97.0347499,1.70678228 C149.706507,1.70678228 192.558508,36.020186 192.558508,78.1962511 C192.558508,120.3724 149.706507,154.685888 97.0347499,154.685888 C69.632388,154.685888 43.8530748,145.384979 25.7051157,129.060554 C42.9660854,142.773812 65.6651892,150.290397 90.0333137,150.290397 C140.674359,150.290397 181.87424,117.030479 181.87424,76.1500509 C181.87424,35.2685275 140.674359,2.00836438 90.0333137,2.00836438 C89.4671143,2.00836438 88.8983797,2.01264609 88.3313352,2.02022336 Z M97.0347499,1.28535455 C92.9589591,1.28535455 88.8654218,1.49178671 84.8673778,1.89906289 L84.6535741,1.9207917 L84.7279406,2.55227586 L84.9248428,2.54305502 C86.6073847,2.46799031 88.3271098,2.42979211 90.0333137,2.42979211 C140.441119,2.42979211 181.451703,35.5003128 181.451703,76.1500509 C181.451703,116.798693 140.441119,149.86897 90.0333137,149.86897 C64.5121706,149.86897 40.8338798,141.595501 23.360036,126.574974 L23.2372468,126.468774 L22.7110194,126.826987 L22.8955835,127.006516 C41.2092615,144.864937 68.2321008,155.107316 97.0347499,155.107316 C149.940593,155.107316 192.981045,120.605029 192.981045,78.1962511 C192.981045,35.7878108 149.940593,1.28535455 97.0347499,1.28535455 L97.0347499,1.28535455 Z" id="path36" fill="#004C40" fill-rule="nonzero"></path>
                            <path d="M118.081312,137.178095 C110.714804,138.988549 102.873364,139.965418 94.7412197,139.965418 C51.8020076,139.965418 16.9948559,112.74203 16.9948559,79.1592977 C16.9948559,45.5763968 51.8020076,18.3531773 94.7412197,18.3531773 C126.728107,18.3531773 154.216666,33.472234 166.150798,55.0621448 L166.45925,54.9449879 C155.644841,28.5204583 124.697394,9.44427955 88.2223207,9.44427955 C42.749493,9.44427955 5.8874599,39.0923941 5.8874599,75.6676847 C5.8874599,112.24306 42.749493,141.893028 88.2223207,141.893028 C98.7908131,141.893028 108.894515,140.29076 118.178495,137.371952 L118.081312,137.178095 L118.081312,137.178095" id="path38" fill="#004C40" fill-rule="nonzero"></path>
                            <path d="M88.2223207,141.682315 C42.9389585,141.682315 6.09872834,112.067746 6.09872834,75.6676847 C6.09872834,39.2678766 42.9389585,9.65499341 88.2223207,9.65499341 C123.465277,9.65499341 154.574977,27.5494888 165.948825,54.2707035 C153.393564,32.2981364 125.549229,18.1424635 94.7412197,18.1424635 C51.7555286,18.1424635 16.7835875,45.514194 16.7835875,79.1592977 C16.7835875,112.804401 51.7555286,140.176132 94.7412197,140.176132 C101.605754,140.176132 108.388316,139.480776 114.949469,138.106079 C106.376195,140.480403 97.4006668,141.682315 88.2223207,141.682315 Z M88.2223207,9.23356569 C42.7059717,9.23356569 5.67619146,39.0360914 5.67619146,75.6676847 C5.67619146,112.300374 42.7059717,142.103742 88.2223207,142.103742 C98.5803898,142.103742 108.679866,140.579017 118.241876,137.573394 L118.476806,137.499223 L118.195397,136.932824 L118.031453,136.973281 C110.523817,138.819135 102.688293,139.754704 94.7412197,139.754704 C51.9881774,139.754704 17.2061244,112.57093 17.2061244,79.1592977 C17.2061244,45.7469907 51.9881774,18.5638912 94.7412197,18.5638912 C125.719089,18.5638912 153.676664,32.930278 165.966572,55.1638775 L166.054459,55.3242729 L166.736434,55.0654319 L166.654462,54.8655909 C155.484277,27.5715716 123.964715,9.23356569 88.2223207,9.23356569 L88.2223207,9.23356569 Z" id="path40" fill="#004C40" fill-rule="nonzero"></path>
                        </g>
                    </g>
                </g>
            </g>
        </g>
    </g>
</svg>