<?xml version="1.0" encoding="UTF-8"?>
<svg width="200px" height="200px" viewBox="0 0 200 200" version="1.1" xmlns="http://www.w3.org/2000/svg" xmlns:xlink="http://www.w3.org/1999/xlink">
    <!-- Generator: Sketch 54.1 (76490) - https://sketchapp.com -->
    <title>ferris-st</title>
    <desc>Created with Sketch.</desc>
    <g id="ferris-st" stroke="none" stroke-width="1" fill="none" fill-rule="evenodd">
        <g id="ferris-st_BGL">
            <g id="ferris-st" transform="translate(28.000000, 0.000000)">
                <g id="g10" transform="translate(71.340470, 99.652451) scale(-1, 1) rotate(-180.000000) translate(-71.340470, -99.652451) translate(0.000000, 0.212570)" fill-rule="nonzero">
                    <g id="g12">
                        <path d="M98.6440699,185.366419 C100.96511,186.49389 102.887518,188.946837 103.418058,189.808747 C103.948889,190.670947 108.160598,198.163153 111.573293,198.163444 C114.424873,198.163735 115.854594,197.223206 116.480643,196.770994 C116.480643,196.770994 119.21837,197.310561 121.012947,197.12857 C123.843854,196.841752 125.005393,196.119612 126.199836,195.144723 C127.86833,193.784012 129.21186,192.262277 130.869288,189.610158 C132.52759,186.957749 136.439378,183.11206 136.969918,182.647911 C137.500167,182.183761 141.942494,179.398862 142.406644,178.802222 C142.870794,178.205583 142.870794,175.221513 141.278882,175.155123 C141.278882,175.155123 140.346797,175.344685 139.025688,175.685663 C136.969918,176.216203 131.399829,177.476163 130.14016,178.072803 C128.8802,178.669733 122.489841,183.50982 120.678957,184.040651 C118.868074,184.5709 116.083175,186.75916 113.496865,183.178742 C110.910554,179.598033 111.375869,176.017032 108.855949,172.436905 C108.855949,172.436905 112.701054,168.325947 116.148692,167.729017 C116.148692,167.729017 120.326623,168.524827 122.912933,167.397648 C125.49837,166.270468 128.017708,164.347478 128.548248,163.286689 C129.078788,162.225609 129.87489,160.03764 127.354969,156.589712 C127.354969,156.589712 124.901148,153.738423 124.835341,149.229414 C124.76895,144.720696 125.961938,142.068286 126.624967,141.272767 C126.624967,141.272767 129.808208,139.548949 131.067877,137.891229 C132.328128,136.233509 135.643276,131.658401 136.041036,125.558354 C136.439378,119.458307 133.455599,119.259428 132.52759,118.596398 C132.52759,118.596398 133.322527,116.739799 132.659789,114.883199 C132.659789,114.883199 134.903956,100.475627 136.041036,96.8474548 C136.711927,94.7054936 137.703705,85.323785 136.836555,82.72408 L139.753943,77.9503834 C139.753943,77.9503834 139.952532,77.4192609 139.555063,77.2206723 C139.157595,77.0217925 133.455599,76.3587629 133.455599,76.3587629 C133.455599,76.3587629 129.344349,70.4570133 128.415176,69.1312453 C127.487459,67.8051861 125.232809,65.2191669 124.57007,64.6889179 C123.906458,64.1580866 122.97845,62.5006582 120.857163,62.5006582 C120.857163,62.5006582 117.408361,58.1911114 116.679232,57.4614003 L119.132179,47.8473255 C119.132179,47.8473255 119.464131,47.0515153 118.403051,47.0515153 C117.34197,47.0515153 110.710801,49.835832 110.710801,49.835832 C110.710801,49.835832 101.826437,43.1400192 97.7160615,41.5481076 C97.7160615,41.5481076 98.5118717,38.1004702 97.8482597,35.3822526 C97.8482597,35.3822526 111.395087,33.5911701 111.506902,18.9354788 C111.588726,8.27604782 104.407506,0 94.757907,0 C86.1245454,0 74.4089842,3.49364475 73.9981213,18.5001855 C73.5989059,33.0900397 86.3109041,35.4468959 87.1722311,35.7785562 L86.3775856,37.5681829 C86.3775856,37.5681829 77.7564538,33.5233238 60.2527054,35.1149443 L57.2700913,30.7384248 C57.2700913,30.7384248 56.7395512,30.1423679 56.4075996,30.8714966 C56.075648,31.6009165 53.6893821,36.7068559 53.6893821,36.7068559 C53.6893821,36.7068559 40.4948893,38.8933685 26.9684449,50.8954563 L18.7465576,48.5749983 C18.7465576,48.5749983 17.6188832,48.3755362 17.8175882,49.1716376 C18.0173415,49.9668655 20.6026328,57.9240942 20.6026328,57.9240942 C20.6026328,57.9240942 10.523855,71.2510764 7.14281173,84.5780587 L0.643907438,85.5724575 C0.643907438,85.5724575 -0.549385683,85.7052381 0.313024513,86.5671475 C1.1745233,87.429348 5.88296814,91.6727957 5.88296814,91.6727957 C5.88296814,91.6727957 2.5674387,104.866124 6.0150208,123.897141 L3.23012179,126.217016 C3.23012179,126.217016 2.3021861,127.013118 3.62753189,127.278096 C4.95391138,127.543367 7.00962344,128.272495 7.00962344,128.272495 C7.00962344,128.272495 14.2369372,147.501518 22.8570499,156.518954 L21.0000429,161.822899 C21.0000429,161.822899 20.469561,162.950079 21.7959114,162.619001 C23.1222909,162.28734 26.9673093,161.15987 26.9673093,161.15987 C26.9673093,161.15987 32.1399011,165.60278 34.5931397,166.862448 C34.5931397,166.862448 39.5657161,184.699313 40.2284545,187.616702 C40.8911929,190.53409 45.6651807,195.771937 50.0419914,195.838327 C54.4176373,195.905008 54.5507091,194.777538 54.9481774,194.512559 C54.9481774,194.512559 61.3137857,197.429947 63.5017542,198.026878 C65.6894316,198.623808 68.7398919,199.883477 70.795371,197.363848 C72.8511413,194.844219 77.1603969,186.489813 77.690937,185.694003 C77.690937,185.694003 85.0509441,188.280022 89.8907398,184.898193 C89.8907398,184.898193 94.0022804,185.958982 95.2619493,185.892883 C96.5219093,185.826784 98.6440699,185.366419 98.6440699,185.366419" id="path14" fill="#231F20"></path>
                        <path d="M102.822292,181.719611 C103.418058,180.990482 105.539636,178.139193 105.539636,178.139193 C105.936813,178.735832 107.529598,179.133883 107.529598,179.133883 C106.667107,178.404172 106.269638,176.746452 106.269638,176.746452 C106.269638,176.746452 106.269638,176.746452 106.335155,176.680353 C106.401837,176.614254 107.595115,174.425994 107.595115,174.425994 C107.860385,174.492093 108.855949,175.354585 109.916155,179.598033 C110.976945,183.841189 115.220683,186.095839 116.016494,186.603376 C116.812304,187.111203 116.877821,187.421898 116.413962,187.952439 C115.950103,188.482979 113.496865,187.554388 113.496865,187.554388 C118.933882,191.533148 127.620531,188.681858 127.620531,188.681858 C126.426087,188.814639 124.238119,188.350198 124.238119,188.350198 C124.835341,188.151318 128.349659,185.23393 131.598708,181.786001 C134.847466,178.338073 140.682825,175.951224 141.345272,176.083714 C142.009176,176.216203 142.074692,177.410064 141.677224,178.139193 C141.278882,178.868322 136.198567,182.003808 134.118337,184.23924 C131.711106,186.827006 127.951026,192.527547 125.100611,194.118876 C122.096449,195.795523 119.432392,195.672642 117.676834,195.319725 C115.765783,194.934778 112.568856,192.858916 112.568856,192.858916 C113.695453,195.245764 115.619316,196.439334 115.619316,196.439334 C113.762135,197.632904 111.441094,197.036264 110.181426,196.439334 C108.921465,195.842695 107.064575,193.058087 105.804615,190.737338 C104.54582,188.416588 102.887518,185.830569 100.102619,184.23924 C100.102619,184.23924 102.22507,182.449031 102.822292,181.719611" id="path16" fill="#FBBF16"></path>
                        <path d="M35.6909094,162.202897 C35.4850412,160.661069 39.5965817,152.02829 40.7263818,150.69233 C41.8570555,149.356079 44.7342604,149.150502 46.2757969,149.561656 C47.818207,149.97281 50.3870463,153.261752 49.7706064,153.056175 C49.1538753,152.850598 46.8922368,153.467038 46.8922368,153.467038 C50.3870463,153.672615 55.3200214,157.886652 56.861558,159.222321 C58.4030945,160.558572 60.7669391,164.360873 63.4391493,170.733179 C66.1113595,177.104902 64.364246,179.365958 64.2617486,179.674323 C64.1583777,179.982398 60.5622357,179.365958 60.5622357,179.365958 C60.5622357,179.365958 64.8781885,181.113071 66.5222224,182.346242 C68.1671298,183.579705 69.913661,186.765857 69.913661,186.765857 C69.8111637,185.943549 69.913661,183.785282 70.3253974,182.654899 C70.7359691,181.524225 71.8666428,181.318648 72.7917394,180.907494 C73.7165448,180.496631 74.6413503,179.263169 75.1558752,177.721633 C75.6689442,176.180096 75.1558752,174.843846 75.1558752,174.843846 C75.1558752,174.843846 74.1274077,177.516056 73.5106766,178.338364 C72.8939455,179.160381 71.146832,179.263169 69.913661,179.057592 C68.68049,178.852015 66.3172277,174.843846 64.9806859,170.835967 C63.6450175,166.827797 58.8148309,158.913955 57.8897343,157.886652 C56.9649288,156.858476 51.9285828,153.569826 51.6202173,153.261752 C51.3121429,152.953386 49.2563726,149.767525 48.4349381,148.842428 C47.6123388,147.917331 45.0423347,147.711754 44.0153231,148.02012 C42.9877292,148.328485 41.2403244,149.048005 40.9322501,148.945216 C40.6238845,148.842428 36.9240804,147.300891 34.2518702,142.162048 C31.57966,137.023205 30.5523572,128.287637 30.5523572,128.287637 C33.2245674,133.220903 46.3791678,143.292431 46.3791678,143.292431 C46.3791678,143.292431 36.6157148,134.556863 31.3746653,126.540523 C27.9414125,121.290738 25.3111912,114.105151 23.4603574,106.602463 C21.6105135,99.1000666 21.5131702,89.8598741 22.6387772,85.8423865 C23.0249184,84.4642051 25.4831655,81.644655 26.4081456,75.9921603 C27.3330093,70.3396655 30.2827194,67.0859577 30.2827194,67.0859577 C31.7220497,64.8251927 35.5467725,63.8109933 41.4994796,61.5117919 C51.3569855,57.7048314 62.103481,66.1099036 62.103481,66.1099036 C58.8148309,72.4819179 51.5180111,77.209316 51.5180111,77.209316 C57.5813687,75.5646998 63.7475149,68.7818226 65.9054913,66.7266347 C68.0637589,64.6711556 72.2775056,59.0183696 75.5664469,56.2436621 C78.8553882,53.4686634 83.9939404,53.3658749 87.0770134,54.0853945 C90.1600865,54.8046229 96.3271062,57.2712561 97.1485407,58.29885 C97.97114,59.3270264 101.46595,63.3349049 101.979019,63.7457678 C102.493252,64.1569218 105.370457,66.3154806 106.603628,66.9319205 C107.837673,67.5489428 109.379209,67.7542286 109.379209,67.7542286 C109.379209,67.7542286 107.117571,66.2126921 105.782194,65.184807 C104.445652,64.1569218 103.315852,60.7657744 103.315852,60.7657744 C103.315852,60.7657744 105.062092,60.4571177 108.042667,60.4571177 C111.023534,60.4571177 113.696618,63.2580319 113.974991,64.0954817 C114.253656,64.9329314 119.069866,72.5395727 119.278646,72.8887042 C119.487717,73.2372534 119.348239,73.7258628 119.348239,73.7258628 C119.348239,73.7258628 118.720443,73.9355164 115.44082,73.9355164 C112.160323,73.9355164 108.461683,71.841892 108.461683,71.841892 C108.461683,71.841892 109.160238,72.5395727 110.066407,73.3071379 C110.973159,74.0749943 114.324414,74.8428507 116.1385,75.051922 C117.953169,75.2612844 120.884826,74.9820374 121.582215,74.9121529 C122.279896,74.8422683 125.001316,75.4007623 125.839057,76.2385033 C126.676798,77.0756619 129.677175,79.9368515 129.537988,81.8912892 C129.39851,83.8457269 127.695948,84.4068415 126.160817,84.6863797 C124.625396,84.9659179 121.590659,83.6940192 121.590659,83.6940192 C121.79944,83.5545413 122.001231,83.0775793 122.140418,82.5190853 C122.279896,81.9605914 121.629387,81.9201166 121.349849,81.9201166 C121.070311,81.9201166 120.087851,82.496664 118.372476,82.728739 C115.457126,83.1227131 113.062707,82.3405886 109.503254,80.0865209 C107.699651,78.9439086 104.585712,76.3820578 101.956597,74.975049 C98.9597151,73.3714899 94.298125,72.0075766 89.3398167,70.236877 C81.8330521,67.5553489 78.0351184,69.5386139 78.0351184,69.5386139 C77.1970862,70.0965255 74.6148524,70.8649643 74.2665944,74.7027904 C73.6746141,81.2110796 72.731464,83.2170572 72.731464,83.2170572 C72.4516346,82.8682169 70.7074329,79.5880112 70.7074329,79.5880112 C70.7770263,80.9836637 72.521228,85.799291 73.4288535,87.2648281 C74.3361878,88.7303652 79.5693753,96.686138 80.965319,98.7797624 C82.3615539,100.873387 90.247151,114.132232 90.247151,114.132232 C87.5944502,113.853276 82.0121312,108.340259 82.0121312,108.340259 C87.385379,118.877683 98.7608354,118.528552 98.7608354,118.528552 C105.460434,118.109827 110.136292,115.876725 114.952501,116.99313 C123.03989,118.868657 120.883952,125.018787 120.883952,125.018787 C120.04592,128.438471 113.62586,130.113371 112.439861,130.462211 C111.252697,130.811051 107.06574,130.811051 106.576839,132.904676 C106.08823,134.9983 106.896561,136.785015 108.427906,137.871428 C109.940615,138.943865 115.417234,138.539117 115.417234,138.539117 C115.417234,138.539117 116.29079,138.410995 116.83589,138.627346 C122.945546,139.464505 124.98501,137.88162 125.874873,137.408734 C126.696599,136.971956 127.92977,135.841574 127.722737,134.649169 C127.591703,133.890048 126.39726,132.62572 123.815317,130.322442 C121.233084,128.019746 121.86088,124.879601 121.930764,124.111453 C122.001231,123.343888 122.768505,122.36696 124.234333,121.389741 C125.698997,120.412523 128.491176,118.598436 131.28219,119.994089 C134.074368,121.389741 134.004484,123.971975 133.655352,127.042527 C133.307094,130.113079 129.677175,136.254475 128.770714,137.510649 C127.862215,138.766824 124.024097,139.464505 124.024097,139.464505 C123.256823,139.604274 117.743515,139.88323 114.603079,139.744043 C111.461477,139.604274 108.810815,138.766824 107.554349,138.348099 C106.298466,137.929374 100.784575,134.509691 95.7610414,129.136152 C90.7357604,123.762613 85.5016994,122.36696 85.5016994,122.36696 C86.7575828,122.925454 90.8749471,125.158265 93.1773516,127.949862 C95.481212,130.741167 102.18081,136.463837 105.112467,138.976186 C108.042667,141.488245 119.767546,141.279173 119.767546,141.279173 C117.235397,141.932303 115.512743,142.36151 110.833681,141.976854 C108.467798,141.782633 101.064405,139.325027 99.528983,138.627346 C97.9938525,137.929374 90.3167443,132.765198 89.1307454,131.927748 C87.9435818,131.090298 75.8011425,118.947568 75.8011425,118.947568 L87.7345105,132.904676 C87.7345105,132.904676 86.1294955,131.927748 79.9883913,129.554877 C73.8478695,127.182005 64.3558016,126.763572 64.3558016,126.763572 C70.6366748,127.74079 79.9185068,130.671573 83.0586522,131.997633 C86.1993801,133.323692 99.1798514,140.860448 99.1798514,140.860448 C97.0859358,141.418651 86.3385668,140.302246 86.3385668,140.302246 C87.9435818,141.279173 93.5966589,142.535057 93.5966589,142.535057 C93.1773516,143.023666 91.7822814,145.675785 91.7822814,147.490162 C91.7822814,149.304539 92.8293848,152.584745 92.8293848,152.584745 C92.5495555,152.933294 90.5258156,153.910513 88.1538178,153.840629 C85.780364,153.770744 83.0586522,153.631557 81.8021864,154.18976 C80.5465941,154.748254 79.7793201,156.143616 79.7793201,156.143616 C80.965319,155.306166 82.1513179,155.236572 83.6171462,155.236572 C85.0829745,155.236572 85.0829745,155.37605 87.1067144,155.794775 C89.1307454,156.2135 93.1773516,155.097095 94.0852683,154.67837 C94.9926026,154.259354 96.5976176,153.212541 98.4821708,152.514861 C100.367015,151.81718 105.949043,149.304539 107.345278,148.606568 C108.741222,147.908596 109.508204,148.187843 109.996814,148.397205 C110.485423,148.606568 111.671713,149.513902 112.370268,149.932627 C113.068822,150.351643 113.974991,152.375092 118.371312,153.282426 C122.768505,154.18976 124.303927,159.284052 124.303927,159.284052 C124.303927,159.07469 124.234333,157.120834 123.535488,155.724891 C122.838099,154.328947 121.302677,152.933586 121.302677,152.933586 C121.302677,152.933586 121.302677,152.933586 121.302677,152.724223 C121.302677,152.514861 122.000358,150.002511 121.721693,148.676452 C120.643142,143.554498 117.604037,143.442682 117.604037,143.442682 C118.092647,143.442682 120.256156,142.604941 122.000358,141.767783 C123.744559,140.930042 124.512707,141.139113 124.512707,141.139113 C124.512707,141.139113 123.815317,141.488245 123.396301,146.79219 C122.977285,152.096136 126.2572,157.329906 126.606331,158.167064 C126.955463,159.004514 128.142918,160.679705 126.117722,163.052285 C124.094856,165.425156 120.535694,166.192722 118.440905,166.122837 C116.347572,166.053244 111.113219,160.749298 111.113219,160.749298 C111.741016,162.214835 114.952501,166.471677 114.952501,166.471677 C114.952501,166.471677 112.788119,167.379012 110.205885,169.542229 C107.624816,171.705447 103.925303,177.707365 103.227622,178.754177 C102.530233,179.800989 99.3199117,182.871541 97.1558204,183.639398 C94.9926026,184.407254 91.3635566,183.708991 91.3635566,183.708991 C91.3635566,183.708991 91.9217593,182.941426 92.271182,181.964498 C92.6203136,180.98757 94.7835313,178.614699 94.7835313,178.614699 C93.9457904,178.824353 92.7586267,179.591627 91.852166,180.219714 C90.9457052,180.847801 89.4790034,183.290266 87.9435818,184.127716 C86.4093249,184.965166 80.4071162,185.244413 79.9185068,185.104935 C79.4301886,184.965457 78.6629145,184.825688 78.9415791,184.127716 C79.2211173,183.429744 83.0586522,178.963539 83.0586522,178.963539 C82.0121312,179.591627 79.0108813,181.894613 77.4058663,183.499628 C75.8011425,185.104643 71.8238385,191.246039 70.7074329,193.409257 C69.5898626,195.572766 68.6834019,195.99149 67.9848476,196.4801 C67.2874581,196.968418 65.0543558,196.201144 64.2166149,196.061084 C63.3788739,195.921606 58.0752195,193.200185 57.8661482,192.851054 C57.6573682,192.502213 55.3535078,191.315632 54.3069867,190.687545 C53.2601745,190.059749 49.7706064,184.68621 49.7706064,184.68621 C49.6311285,186.710241 53.1209878,192.572098 53.1209878,192.572098 C52.7715651,192.851054 50.8878855,193.827981 48.6539096,193.618619 C46.4210985,193.409257 44.466952,191.664764 42.861937,188.873459 C41.256922,186.082154 37.4188047,171.984985 35.8836742,164.936547 C35.8836742,164.936547 35.895904,163.744433 35.6909094,162.202897" id="path18" fill="#FBBF16"></path>
                        <path d="M129.333867,86.2745059 C129.626799,86.1283308 130.067363,86.1280396 131.168336,84.8800181 C132.269309,83.6322879 132.269309,81.5773911 131.756531,80.5497972 C131.242006,79.5227856 128.599497,76.7332276 128.012467,76.3663337 C127.424854,75.9994399 127.05796,74.5315733 125.516424,73.6507369 C123.974887,72.7701917 121.993952,73.5036882 121.993952,73.5036882 C120.305949,72.916658 114.928915,63.1293279 114.928915,63.1293279 C114.928915,63.1293279 118.217857,63.8488475 119.553525,63.7457678 C120.889776,63.6432704 121.712666,63.6432704 122.534974,64.36279 C125.273284,66.7607034 129.928759,73.7072269 132.859833,78.365614 C134.129111,80.3835302 135.536993,83.4604884 135.594066,85.5110173 C135.711414,89.7116607 135.455753,93.5037707 134.903956,95.7438614 C134.127364,98.8979838 132.914576,105.163715 132.606502,107.835634 C132.298136,110.507845 131.783902,113.48842 131.783902,113.48842 C131.783902,113.48842 130.859097,111.741307 129.625926,111.329862 C128.392755,110.918999 127.364287,111.432941 127.159584,112.255249 C126.953716,113.076975 126.747847,115.132454 126.747847,115.132454 L125.103814,112.768901 C125.103814,112.768901 128.495252,102.080351 128.803327,99.5112206 C129.111692,96.9415078 129.215063,91.7001671 129.215063,91.7001671 C129.215063,91.7001671 127.776024,101.052757 126.953716,103.108236 C126.131116,105.163715 125.514385,109.171885 123.972849,111.329862 C123.972849,111.329862 118.115359,104.85535 116.778526,102.080351 C115.442858,99.3056436 113.284882,91.8032468 113.181511,90.3642076 C113.079013,88.9254596 112.976516,87.178346 113.181511,86.3563291 C113.181511,86.3563291 115.049757,88.5084818 115.666197,88.71435 C116.282928,88.9199271 117.806703,88.617094 118.011989,88.1034426 C118.011989,88.1034426 118.856718,92.3911505 120.169965,93.4472807 C120.267221,93.5250272 120.416599,94.06605 120.206946,94.8775843 C119.897415,96.0705717 119.243995,100.410111 119.142371,101.258334 C119.065789,101.903601 120.31119,101.890789 120.927921,101.582715 C121.544361,101.274349 126.419099,99.1792691 127.963547,91.7511246 C128.668216,88.3643449 128.290258,86.6644034 128.290258,86.6644034 C128.290258,86.6644034 129.04006,86.4212635 129.333867,86.2745059" id="path20" fill="#FBBF16"></path>
                        <path d="M83.4951394,75.576056 C83.585407,76.2673306 84.9825155,79.8157183 85.8706315,80.0865209 C86.5619061,80.2970481 87.975321,79.2141288 88.1864305,79.093578 C88.1864305,79.093578 90.1999789,82.6419657 89.6286728,86.2497552 C89.057949,89.8575447 87.3743139,89.2859473 86.8926929,89.4364903 C86.8926929,89.4364903 85.0890894,89.3465139 84.5183656,88.985735 C84.5183656,88.985735 85.7497895,86.1591964 86.2616938,85.2274025 C86.7727245,84.2956086 86.7124491,83.2126894 86.6827481,83.0627288 C86.6530472,82.9124771 85.0593885,86.3394403 84.5183656,86.9413209 C83.9767604,87.5426192 82.8038648,89.7078753 80.6089078,89.8575447 C78.4148244,90.0077964 77.8138173,89.6173165 77.2113543,89.2262543 C76.6100561,88.835192 75.1372394,87.5723201 74.716185,86.640235 C74.716185,86.640235 75.2580814,82.040085 75.2580814,81.6496052 C75.2580814,81.6496052 77.5433059,81.5596288 78.4448165,80.326749 C79.3457447,79.093578 79.4066025,77.5601947 79.3457447,77.1094394 C79.3457447,77.1094394 80.7297499,77.2599823 81.4812999,76.8989122 C82.2334323,76.5381332 83.4951394,75.576056 83.4951394,75.576056" id="path22" fill="#D41042"></path>
                        <path d="M128.233768,117.694014 C128.233768,117.694014 127.841541,117.380407 127.763794,117.0668 C127.684883,116.752611 127.292656,113.10522 128.116129,112.085197 C128.116129,112.085197 129.019386,111.026155 130.626731,113.301188 C132.234658,115.57593 131.764393,117.537065 131.490096,117.890273 C131.215508,118.24319 130.116574,118.125551 129.764239,118.086241 C129.41074,118.047222 128.233768,117.694014 128.233768,117.694014 L128.233768,117.694014 Z M123.998473,116.517333 C124.11553,116.125106 124.586668,115.497601 125.174281,115.57593 C125.763349,115.65455 127.174726,117.929583 126.664568,118.24319 C126.154411,118.557088 124.43001,118.753056 123.998473,118.557088 C123.998473,118.557088 123.880834,116.90956 123.998473,116.517333 Z M109.838118,114.870096 C109.917029,114.046332 110.941129,112.376965 111.524956,112.085197 C111.760816,111.967558 111.917474,111.967558 112.074132,112.045887 C112.23079,112.124507 112.309992,112.517025 112.388612,112.948271 C112.46665,113.379517 112.937788,114.791767 112.937788,114.791767 C112.937788,114.791767 111.956493,115.026754 111.602994,115.026754 C111.250659,115.026754 109.838118,114.870096 109.838118,114.870096 Z M104.033915,115.262032 C103.954713,114.870096 104.151554,114.085642 104.38625,113.614795 C104.790707,112.805008 105.445001,112.085197 105.994177,111.85021 C106.235861,111.746548 106.544226,112.124507 106.544226,112.281165 C106.544226,112.438114 106.857542,114.046332 107.211041,114.438559 C107.563376,114.830786 107.720034,115.026754 107.720034,115.026754 L104.033915,115.262032 Z M101.170105,115.69386 C100.856498,115.811499 97.2778271,117.106692 95.9535151,115.223013 C94.9343655,113.771744 97.2091073,109.928385 97.8369035,109.261279 C98.4638261,108.594464 99.0488179,108.280857 100.228411,108.280857 C100.620929,108.280857 100.856498,109.300589 100.895226,109.849765 C100.895226,109.849765 100.778752,111.575331 100.699549,112.673683 C100.620929,113.771744 101.209706,115.105083 101.209706,115.262032 C101.209706,115.418981 101.170105,115.69386 101.170105,115.69386 Z M77.0014095,72.4190218 C77.24222,72.0885262 77.9940612,71.0964569 80.2187191,70.7053946 C82.4433771,70.3143324 83.0740851,70.7353867 83.0740851,70.7353867 C83.1346517,71.0358903 83.1346517,74.2531999 83.0149744,74.7042464 C82.8941324,75.1552929 81.8420788,75.8468586 81.3310481,76.0570946 C80.8200174,76.2673306 79.8273657,76.1473622 79.2863429,75.9971104 C78.7459024,75.8462763 77.1519525,73.9526964 76.8508666,73.0808867 C76.8508666,73.0808867 76.7608902,72.7498087 77.0014095,72.4190218 L77.0014095,72.4190218 Z M75.2877823,80.7777955 C75.2877823,80.7777955 75.5285928,76.5684165 75.8890806,75.8468586 C76.2498595,75.1253007 76.7903,75.7865832 76.9411341,75.8768508 C77.0913859,75.9671183 78.2951471,77.1094394 78.3842499,77.4702183 C78.4742263,77.8312885 78.3842499,79.9362691 77.2113543,80.3567411 C76.0396235,80.7777955 76.1892929,80.6872368 75.8890806,80.7475122 C75.5888682,80.8074964 75.2877823,80.7777955 75.2877823,80.7777955 Z M85.780364,70.9159218 C86.5322052,71.126449 90.1999789,71.6671806 91.0717886,72.3893209 C91.0717886,72.3893209 90.8309781,75.6363315 89.3581614,77.0191718 C87.8853446,78.4025946 86.6530472,78.9736095 86.4422288,79.0038929 C86.2319928,79.033885 84.818578,76.9894709 84.818578,75.0047499 C84.818578,73.0206113 85.780364,70.9159218 85.780364,70.9159218 L85.780364,70.9159218 Z M94.7701368,73.9829797 C98.2579578,74.975049 102.106267,77.4405174 102.106267,77.4405174 C102.106267,77.4405174 102.407353,81.4687789 101.265323,83.7240113 C100.122128,85.9789526 99.4614279,86.8507622 99.4011525,87.1215648 C99.4011525,87.1215648 99.0097991,85.0165842 99.0097991,84.235042 C99.0097991,84.235042 98.1676903,88.5044052 99.2206174,93.0739807 C100.272671,97.6441386 99.911892,97.9752166 99.8813175,98.3656965 C99.8516166,98.7564676 99.0097991,99.8687966 97.5061166,98.7864597 C96.003599,97.7041228 91.2817334,90.3682842 90.6507342,85.2568123 C90.019735,80.1456316 91.3134726,77.9069967 91.8839052,76.7489516 C92.8762657,74.7345297 93.7183744,74.4937192 94.7701368,73.9829797 L94.7701368,73.9829797 Z M103.429414,82.6716666 C103.579957,82.3105965 103.820476,79.1847191 103.699634,78.4625788 L109.563821,82.1009428 C109.563821,82.1009428 107.549108,82.7616429 106.376212,82.8519105 C105.203317,82.942178 103.429414,82.6716666 103.429414,82.6716666 L103.429414,82.6716666 Z M117.770887,86.9707307 C117.199581,88.0227842 116.118117,87.5723201 116.118117,87.5723201 C114.313058,87.001014 113.321571,83.4232166 113.321571,83.4232166 C113.501815,83.483492 116.02785,84.445278 118.011989,84.6855062 C118.011989,84.6855062 118.342484,85.9186771 117.770887,86.9707307 L117.770887,86.9707307 Z M120.747677,100.680622 C120.567433,100.801173 119.845002,101.342196 119.936434,100.710905 C120.026702,100.079324 120.627709,95.6297167 120.958787,94.6676395 C121.289282,93.7052711 121.348975,91.5403062 120.838818,90.2177412 C120.838818,90.2177412 120.807953,91.3906368 120.657701,91.9016675 C120.657701,91.9016675 119.30427,90.367993 119.03405,87.6020211 C119.03405,87.6020211 119.274569,85.2870956 119.153727,84.6558052 C119.153727,84.6558052 120.17608,84.4446957 120.477166,84.264743 C120.477166,84.264743 123.845018,86.6399439 126.220219,86.519393 C126.220219,86.519393 127.273146,90.5167888 126.190518,93.3744843 C125.10789,96.2310149 123.574507,98.0951851 123.122878,98.7261843 C122.549534,99.5284006 120.747677,100.680622 120.747677,100.680622 L120.747677,100.680622 Z" id="path24" fill="#FFFFFF"></path>
                        <path d="M136.192452,81.1950644 C135.945527,80.762945 134.556572,78.0773403 134.494258,77.8612806 C134.494258,77.8612806 138.166982,77.9233031 138.476512,77.9850345 C138.784586,78.0467658 138.754012,78.2313775 138.631132,78.3551313 C138.507087,78.478594 136.192452,81.1950644 136.192452,81.1950644" id="path26" fill="#FFFFFF"></path>
                        <path d="M93.0177819,39.8900968 L90.595409,38.8811387 C90.595409,38.8811387 90.9989922,36.9432986 91.4025754,36.4191645 C91.4025754,36.4191645 92.2507991,36.3778162 93.0576743,36.4191645 C93.5023147,37.3867743 93.0177819,39.8900968 93.0177819,39.8900968" id="path28" fill="#FFFFFF"></path>
                        <path d="M1.95390192,85.9539106 C1.67943621,85.9885617 0.99423865,86.1594876 1.61073388,86.7418588 C2.22836473,87.3245212 11.1692388,94.9643576 11.6146654,95.2380721 C12.0603249,95.5117865 14.7664,95.5464376 16.0343094,91.3667596 C17.3024518,87.1870816 15.8427675,84.5568021 15.2467397,84.3084208 C14.0125205,83.7944782 1.95390192,85.9539106 1.95390192,85.9539106" id="path30" fill="#FFFFFF"></path>
                        <path d="M11.2040354,95.8874159 C11.4611232,96.0111698 11.7520758,96.1529772 12.0603249,96.1617128 C13.293525,96.1954903 15.1761272,95.3461019 16.2741008,93.2152057 C17.4048326,91.0228694 17.6783724,87.2889965 17.3024518,85.8499573 C16.9604252,84.5469018 16.1030292,83.5551237 15.4516179,83.3146044 C14.8012258,83.0746674 12.1288991,83.4861127 12.1288991,83.4861127 C12.539762,81.6702793 13.8763621,80.9507597 13.8763621,80.9507597 C14.6292225,80.5742568 16.2730525,80.2099836 16.8567922,81.1909878 C20.3854957,87.117197 17.542214,95.0310391 15.7947801,96.8128037 C14.3290683,98.3062947 13.0538793,98.2524253 12.4371482,98.0471395 C11.2121304,97.6386061 10.1080129,95.3408606 9.93592218,94.8612779 C9.93592218,94.8612779 10.432743,95.5170279 11.2040354,95.8874159" id="path32" fill="#FBBF16"></path>
                        <path d="M13.293525,99.0392088 C14.0125205,98.9707802 18.2960062,97.4633124 19.1522665,90.885721 C20.008556,84.3084208 18.3635612,81.3962737 17.9528439,80.8482624 L19.8365527,81.0197707 C19.8365527,81.0197707 20.1109077,81.1906967 20.4193897,81.6702793 C20.7276388,82.149862 21.4127112,83.3489643 21.3442534,83.6229699 C21.2755336,83.8972667 21.2755336,83.8972667 21.2755336,83.8972667 C21.2755336,83.8972667 20.0586981,86.4687267 19.871262,89.6866187 C19.7032479,92.5670266 19.8365527,95.1681875 19.8365527,95.1681875 C19.8365527,95.1681875 17.5073009,98.9017692 17.1304776,99.2444946 C16.7535087,99.5875113 16.1030292,99.6559399 15.8284412,99.62158 C15.5549888,99.5875113 13.293525,99.0392088 13.293525,99.0392088" id="path34" fill="#FFFFFF"></path>
                        <path d="M16.714519,130.187041 C16.9798764,130.187041 17.4027652,130.221109 17.6096817,129.756668 C19.2976555,125.968635 18.2641505,121.182126 15.5438655,118.651141 C15.3031715,118.496813 15.1299452,118.357626 14.8728866,118.460123 C14.6260485,118.558253 4.58527042,125.606691 4.07613241,126.019884 C3.43916393,126.536447 3.71453814,126.639818 4.13142856,126.74843 L16.714519,130.187041" id="path36" fill="#FFFFFF"></path>
                        <path d="M18.5910645,129.997479 C20.2103185,125.985232 19.2833,119.702903 15.2702967,117.664895 C14.9405581,117.497464 14.4416698,117.772634 14.4416698,117.772634 L13.0158796,118.725684 C12.9493436,118.460414 13.2811205,116.338545 14.1426222,115.675515 C15.0049392,115.012486 16.0661651,115.741906 16.0661651,115.741906 C24.2111794,122.981362 20.3762943,131.854078 20.0443718,132.119057 C19.712595,132.384618 19.3816916,132.583498 18.8510933,132.583498 C18.3205822,132.583498 17.4725042,131.633068 17.1272745,131.058268 C18.1607796,131.064965 18.5910645,129.997479 18.5910645,129.997479" id="path38" fill="#FBBF16"></path>
                        <path d="M20.9672846,132.407622 C20.9672846,132.407622 23.1182143,129.017639 21.5837827,122.952243 C20.1448017,117.26568 17.9528439,115.998149 16.3078783,114.901835 C16.3078783,114.901835 17.3904772,114.59347 17.7817724,114.59347 C18.2612095,114.59347 18.6320052,114.788855 18.7067526,114.867475 C19.2884249,115.484206 22.3714688,118.773148 23.2974681,123.19218 C24.3308276,128.132144 23.0567741,130.112497 22.543676,131.654034 C22.4401595,131.962108 22.269088,132.099548 22.0980165,132.167685 C21.9270614,132.236114 20.9672846,132.407622 20.9672846,132.407622" id="path40" fill="#FFFFFF"></path>
                        <path d="M116.341166,59.8147622 C117.574628,60.7057902 117.951422,61.9736122 117.985199,62.213258 C117.985199,62.213258 116.854526,63.0352749 114.251618,61.562167 C114.251618,61.562167 115.41636,61.1169442 115.724726,60.8085787 C116.033091,60.5005043 116.341166,59.8147622 116.341166,59.8147622 L116.341166,59.8147622 Z M38.5066741,44.4684079 C44.9820593,41.3157415 52.9640388,38.8840506 52.9640388,38.8840506 C52.9640388,38.8840506 51.181983,42.9606489 50.8048976,43.2002946 C50.428977,43.4399404 49.366732,44.4334656 49.1608637,45.1873451 C48.9654782,45.9022058 48.6131436,47.5366305 48.6131436,48.6128525 C48.6131436,48.9547043 49.4692293,50.3256061 49.4692293,50.3256061 C50.6689139,51.7302854 53.3749017,53.8888442 58.7880418,53.5804787 C64.6560139,53.2461976 68.1581031,48.812897 68.3453354,48.5782014 C68.6199234,48.2354759 68.9620665,47.2766018 68.995844,46.7973103 C69.0307863,46.31831 68.8933467,42.9268714 67.6263982,41.6587581 C66.3582849,40.3918096 63.9606627,39.9113534 63.9606627,39.9113534 L61.5280983,36.8285715 C61.5280983,36.8285715 68.9282889,35.903766 77.7666453,36.9319424 C86.6047104,37.9592452 92.4287135,41.316615 92.4287135,41.316615 C91.7438449,42.7556542 89.5168575,43.7483059 89.5168575,43.7483059 C89.276047,43.6458086 88.0090985,43.3726765 87.1530129,44.0228939 C86.2957625,44.6731114 86.2279162,45.598208 86.2279162,45.598208 C86.2616938,49.6063777 89.5168575,50.1549714 90.2023084,50.2571775 C90.8871769,50.3602572 91.6064053,50.1893313 92.1544166,49.7085838 C93.0771838,48.9005438 93.3538101,47.4137502 93.3538101,47.4137502 C96.1631687,45.8387273 97.1907626,43.3726765 97.1907626,43.3726765 C101.918743,44.5018943 108.392964,50.4630457 108.392964,50.4630457 L108.392964,50.4630457 C108.392964,50.4630457 108.392964,50.4630457 108.187095,50.4630457 C107.982101,50.4630457 106.440564,49.4351606 105.172742,49.6410288 C103.905502,49.8460234 103.254411,50.3946171 103.048543,50.5999029 C102.843549,50.8051888 101.610086,51.5940106 100.685572,52.8609591 C99.7604755,54.12849 100.787778,56.800409 100.787778,56.800409 L92.8057988,53.3402506 C92.8057988,53.3402506 85.5765341,49.7085838 79.8559019,51.4903485 C74.1355609,53.271822 72.3881562,57.0747058 71.4633507,57.6911457 C70.5382541,58.308168 66.0266245,58.8523939 63.2516258,58.8870449 C60.4772095,58.9214048 56.6976205,60.9797958 56.6976205,60.9797958 C56.2867576,60.9119496 53.9229129,59.5751165 49.0924351,58.4106653 C42.643839,56.8557342 38.2844995,59.9950061 38.2844995,59.9950061 C39.6210413,58.5821736 39.1068076,55.267608 38.9265637,54.4968397 C38.7474846,53.7257803 36.7942116,51.8249207 36.1518562,51.4650153 C35.5097919,51.1054011 34.9699338,50.8736174 34.1484993,50.8226599 C31.5313232,50.6593048 30.1650804,51.9023761 30.1650804,51.9023761 L28.4186948,51.2594383 C28.4186948,51.2594383 33.6310625,46.8415705 38.5066741,44.4684079 L38.5066741,44.4684079 Z M10.2104811,79.4100968 C10.8270957,77.9369888 11.9230309,75.2304187 13.5678801,71.7018317 C15.2119431,68.1732447 21.0021104,60.2253339 21.0021104,60.2253339 C20.2480853,61.629722 20.5903448,64.9879655 20.9672846,65.7756225 C21.6226851,67.1439036 22.0980165,67.4202388 23.5022007,68.4134728 C24.8288132,69.3516728 25.7690223,69.2698496 25.7690223,69.2698496 C25.7690223,69.2698496 25.7802621,69.4509671 25.5242517,70.0575067 C24.7703431,71.8389801 24.5306683,74.6483387 23.9478603,77.5599035 C23.3660424,80.4717594 21.8941865,82.8655962 21.8941865,82.8655962 C21.8941865,82.8655962 21.3442534,81.2940675 21.1731819,80.9172734 C21.0021104,80.540188 20.3168051,80.0608966 20.3168051,80.0608966 C20.3168051,80.0608966 16.8567922,79.3416681 15.5549888,79.4785254 C14.2531854,79.6150914 13.1224535,80.4376907 12.6430164,80.7804162 C12.1627931,81.1231416 11.0329639,83.6919809 11.0329639,83.6919809 L8.90867764,84.0344152 C8.90867764,84.0344152 9.59389558,80.883787 10.2104811,79.4100968 L10.2104811,79.4100968 Z M16.0661651,144.453388 C14.6075,142.066539 8.50716182,128.606485 8.50716182,128.606485 C8.50716182,128.606485 15.8674601,130.263914 15.9996292,130.860844 C16.132701,131.457483 17.3926611,132.982713 17.7899547,133.247692 C18.1884131,133.512962 18.5857067,133.579353 18.9833789,133.579353 C19.3816916,133.579353 21.4374037,133.181593 22.232253,132.982713 C23.0281215,132.783542 23.2278457,132.121095 23.2278457,132.121095 C27.2715691,123.301957 20.9068927,114.947551 18.8510933,113.953444 C17.995852,113.540251 17.0607386,113.820954 17.0607386,113.820954 C17.0607386,113.820954 15.5355376,113.820954 13.8782839,114.882035 C12.2200111,115.942824 12.4853685,119.125482 12.4853685,119.125482 L7.04852583,122.839263 C5.59009367,116.672826 5.05946616,101.687251 7.18078233,92.6701063 L9.43508296,94.459733 C9.30291381,95.9182816 11.29209,98.7043454 11.9547701,99.2345943 C12.6184695,99.7648433 15.9996292,100.494263 16.928686,100.229284 C17.8564906,99.9643054 20.0443718,96.9802355 20.0443718,96.9802355 C20.5083469,103.544723 22.3796512,110.483676 23.0281215,112.827429 C24.2521201,117.251412 26.639609,122.281352 26.7419899,122.508768 C27.9352685,125.160304 28.13409,128.409935 28.13409,128.409935 C28.2661718,136.764341 32.8413672,142.864388 33.2400002,143.792687 C33.6371774,144.720987 39.4058552,149.826344 39.4058552,149.826344 L38.743408,150.688545 C37.5489646,147.969745 33.6371774,144.389327 28.7311369,143.659907 C28.3152948,143.598175 27.2060524,143.593808 27.2060524,143.593808 C27.2060524,143.593808 25.9462379,144.124348 24.7528137,145.781776 C23.558749,147.439496 25.2169053,150.356884 25.2169053,150.356884 L23.3598983,154.931701 C23.3598983,154.931701 17.5247138,146.840527 16.0661651,144.453388 L16.0661651,144.453388 Z M33.7705404,162.756732 C33.5707871,161.695942 34.3665973,159.375193 34.3665973,159.375193 L28.7977893,160.701252 C29.8578796,161.960921 34.1013272,164.878601 34.1013272,164.878601 C34.1013272,164.878601 33.9694201,163.817521 33.7705404,162.756732 L33.7705404,162.756732 Z" id="path42" fill="#D41042"></path>
                        <path d="M34.963819,158.048843 L35.5607494,156.589712 C33.9027386,150.290785 28.5979486,148.898627 27.6700275,148.832236 C26.7419899,148.765846 26.4768363,149.561656 26.4768363,149.561656 C26.4768363,149.561656 21.9014662,160.568181 21.570592,161.297601 C21.2386986,162.026729 21.9014662,161.76175 22.2998081,161.69536 L34.963819,158.048843" id="path44" fill="#FFFFFF"></path>
                        <path d="M34.0349369,151.749625 C32.3775085,149.628047 29.1951412,148.036717 27.6700275,147.903937 C26.3467346,147.788627 26.0117547,148.500576 26.0117547,148.500576 L25.4822628,149.826926 C25.4822628,149.628047 23.8238735,146.047337 26.6089181,146.312899 C34.6094461,147.075223 37.0195892,153.871494 37.0195892,153.871494 L36.090416,155.661703 C36.090416,155.661703 35.6929477,153.871494 34.0349369,151.749625" id="path46" fill="#FBBF16"></path>
                        <path d="M33.7693756,148.235597 C29.9286377,145.162133 25.879702,145.517088 25.879702,145.517088 L27.2715691,144.323228 C35.3612873,145.781776 38.4114564,151.617135 38.4114564,151.617135 L37.6156462,152.877096 C37.6156462,152.877096 37.085106,150.887716 33.7693756,148.235597" id="path48" fill="#FFFFFF"></path>
                        <path d="M24.1557668,158.181332 C24.1557668,158.181332 26.4768363,152.213775 26.9406949,151.816015 C27.4046701,151.418256 27.2725883,151.152986 28.3327077,151.285766 C29.3940209,151.418256 30.1231496,152.412946 30.1231496,152.412946 C30.1231496,152.412946 29.2618227,152.280165 28.5979486,152.744315 C27.9352685,153.208465 24.1557668,158.181332 24.1557668,158.181332" id="path50" fill="#231F20"></path>
                        <path d="M7.69172569,124.608507 C7.69172569,124.608507 13.5802846,120.941024 14.027866,120.803294 C14.4754473,120.665272 14.6650674,120.786114 14.9927677,121.164655 C15.3194197,121.543779 15.8542694,122.783356 15.8542694,122.783356 C15.8542694,122.783356 15.6298526,122.576614 14.8370416,122.490714 C14.0452789,122.404523 7.69172569,124.608507 7.69172569,124.608507" id="path52" fill="#231F20"></path>
                        <path d="M4.79728265,86.7747628 C4.79728265,86.7747628 13.5700349,85.8633519 13.8076714,85.9868146 C14.5953285,86.3979686 14.8687808,88.5565274 14.5605318,89.3101157 C14.5605318,89.3101157 14.040154,88.1544001 12.3686905,87.5970709 C11.0329639,87.1518481 4.79728265,86.7747628 4.79728265,86.7747628" id="path54" fill="#231F20"></path>
                        <path d="M26.7891911,67.7737381 C26.9263686,67.637172 28.436195,65.5353944 28.436195,65.5353944 C26.8260552,66.6660681 23.0577933,66.6663593 23.0577933,66.6663593 C24.1537285,68.0710386 25.8662783,68.139176 26.2432181,68.139176 C26.2432181,68.139176 26.6520135,67.9108865 26.7891911,67.7737381" id="path56" fill="#FFFFFF"></path>
                        <path d="M22.1319396,62.2813954 C22.235194,62.6922583 23.2288648,63.6854923 23.8106828,63.7882808 C24.3934034,63.8907782 27.4764182,64.4734406 30.5942879,61.698733 C33.7111385,58.9237343 33.6424187,55.1552104 32.9922013,53.9220394 C32.3416927,52.688286 31.107357,52.2092857 31.107357,52.2092857 C31.3132252,52.0034175 33.8482869,51.3526177 34.8080347,51.9349889 C35.7666176,52.5179425 36.0412056,55.1898615 35.5619142,57.4162665 C35.0814579,59.6429627 32.4092477,62.0755272 32.4092477,62.0755272 C32.1358245,62.1786069 31.6215907,62.2813954 30.3196999,63.2062008 C29.018013,64.1312975 29.018013,64.4047208 29.018013,64.4047208 C27.37395,65.6035318 23.2974681,65.8094001 22.9206158,65.7069027 C22.543676,65.603823 22.235194,65.6378917 21.6186085,64.5421604 C21.0021104,63.4461378 21.481431,60.4652709 21.481431,60.4652709 C21.481431,60.4652709 22.0294422,61.8699502 22.1319396,62.2813954" id="path58" fill="#FBBF16"></path>
                        <path d="M36.2462003,58.3413631 C37.205948,56.5595985 36.5542747,53.0659537 36.5542747,53.0659537 C40.3227986,56.731398 36.6229945,60.6708479 36.6229945,60.6708479 L34.1566525,61.5272247 C34.1566525,61.5272247 35.2873261,60.1228366 36.2462003,58.3413631" id="path60" fill="#FFFFFF"></path>
                        <path d="M24.3246836,62.8294067 C23.8106828,62.6922583 23.4685397,62.6238297 23.2974681,62.1786069 C23.1265131,61.7328017 19.1860732,50.290955 19.0836923,50.1538066 C18.9801758,50.0166582 18.6719268,49.1946413 19.6653646,49.5370755 C20.6589481,49.879801 31.1760768,53.3053083 31.1760768,53.3053083 C31.1760768,53.3053083 32.1358245,53.8882619 32.44419,54.6074903 C32.7522644,55.3264275 32.9581326,58.375723 29.70326,61.1507217 C27.1670335,63.313066 24.3246836,62.8294067 24.3246836,62.8294067" id="path62" fill="#FFFFFF"></path>
                        <path d="M21.8921482,51.9349889 C21.8921482,51.9349889 30.0800542,54.5731304 30.2509801,55.3954385 C30.4230708,56.2177466 29.2239685,58.375723 29.2239685,58.375723 C29.2239685,58.375723 28.8817381,56.5942496 27.7508897,55.6350842 C26.6200414,54.6759189 21.8921482,51.9349889 21.8921482,51.9349889" id="path64" fill="#231F20"></path>
                        <path d="M52.5185248,42.9606489 C52.8956102,42.0358435 56.4576835,32.7857507 56.5264033,32.5126186 C56.5951231,32.2377394 56.9372662,31.142008 57.3827802,31.7587391 C57.639897,32.1139855 63.4126514,41.0760957 63.5489263,41.4528899 C63.6860747,41.8299752 64.6006887,43.2853208 64.1653662,44.1938199 C63.7894456,44.9814769 61.2194415,46.9685274 58.4450252,47.036956 C55.6703177,47.105967 53.3318062,46.4676882 52.5185248,44.4334656 C52.2439368,43.7483059 52.5185248,42.9606489 52.5185248,42.9606489" id="path66" fill="#FFFFFF"></path>
                        <path d="M51.5249996,43.8854543 C51.5587771,45.0848478 52.9631652,48.0992011 56.8347689,48.270127 C60.705499,48.4413441 63.7894456,46.6263843 64.5083828,46.0099444 C65.2276112,45.3932134 65.6731252,43.9192319 65.6731252,43.57738 C65.6731252,43.2352369 64.7483198,41.4182388 64.6458224,41.2470217 C64.6458224,41.2470217 66.2557876,41.3157415 66.7691478,42.2754892 C67.2833815,43.2352369 66.9062962,44.9814769 66.6328729,45.4269909 C66.3582849,45.8725048 64.7788942,48.7735869 59.7119737,49.6748063 C56.6289007,50.2228176 53.5807699,49.4351606 52.1755082,47.8933329 C51.7349444,47.4099648 50.7711201,46.1462193 50.7711201,45.2211227 C50.7711201,44.9130483 51.5249996,43.8854543 51.5249996,43.8854543" id="path68" fill="#FBBF16"></path>
                        <path d="M50.2571775,46.9347499 C50.7024003,47.9617615 53.0327586,51.5928458 58.8555969,51.0791944 C64.6796,50.565543 67.2146617,46.7288817 67.5914559,45.598208 C67.9685412,44.4684079 67.7973241,43.4748827 67.695118,43.0631462 C67.695118,43.0631462 68.5849811,45.5294882 68.208187,46.6942306 C67.8313928,47.8595553 64.5771026,51.8671427 59.3698307,52.620731 C54.1625587,53.3746105 50.7373425,50.0518917 50.2231088,49.1262127 C49.708875,48.2016984 50.2571775,46.9347499 50.2571775,46.9347499" id="path70" fill="#FFFFFF"></path>
                        <path d="M107.365661,57.5542885 C108.769758,57.7255056 110.413792,57.6221347 113.498029,60.6370704 C113.498029,60.6370704 114.628412,60.6030016 114.937069,59.9862706 C115.245434,59.3698307 117.951422,48.7150586 117.951422,48.7150586 C117.951422,48.7150586 118.259496,48.0992011 117.403411,48.3388468 C116.547034,48.5782014 107.845244,51.9361536 107.845244,51.9361536 C107.845244,51.9361536 106.988575,52.2785879 106.645559,52.9975251 C106.303707,53.7170447 106.337193,54.9505069 106.611781,56.0468207 C106.757083,56.6280271 107.365661,57.5542885 107.365661,57.5542885" id="path72" fill="#FFFFFF"></path>
                        <path d="M105.035303,57.6567858 C105.035303,57.6567858 104.453514,56.6976205 104.281423,56.3205351 C104.110497,55.9434498 103.224419,53.5097206 104.658508,51.6274969 C105.755696,50.1893313 107.707804,50.9764059 107.707804,50.9764059 L106.509575,51.4903485 C106.509575,51.4903485 105.789182,52.107662 105.584479,52.6553821 C104.910384,54.4505412 105.447039,56.4576835 106.200918,57.4512088 L105.035303,57.6567858" id="path74" fill="#FBBF16"></path>
                        <path d="M103.116972,51.9361536 C102.7064,53.0662449 102.603029,54.2656384 102.843549,55.3275922 C103.083194,56.3892549 103.974513,57.8623628 104.008291,57.9310826 C104.041777,57.9995113 101.918743,57.211563 101.918743,57.211563 C101.918743,57.211563 101.027424,54.8483008 101.370732,53.8888442 C101.712875,52.9290965 103.116972,51.9361536 103.116972,51.9361536" id="path76" fill="#FFFFFF"></path>
                        <path d="M115.724726,50.5314743 C115.724726,50.5314743 108.735107,53.2033933 108.392964,53.5804787 C108.051112,53.9566905 107.639375,54.3681357 107.845244,55.0532954 C108.051112,55.7384551 108.769758,56.9029063 108.769758,56.9029063 C108.769758,56.9029063 109.352711,54.9507981 109.763283,54.5052841 C110.174146,54.0597702 115.724726,50.5314743 115.724726,50.5314743" id="path78" fill="#231F20"></path>
                        <path d="M59.298199,62.0417497 C59.298199,62.0417497 60.5724272,61.6090479 63.2516258,61.1553807 C64.5177008,60.9410681 68.9128561,61.047642 68.9128561,61.047642 C68.9128561,61.047642 66.9677363,63.3159778 65.8440511,63.8130316 C64.7215307,64.3100854 63.8141964,64.3531809 63.1226306,64.0721868 C62.4304824,63.7917751 59.298199,62.0417497 59.298199,62.0417497" id="path80" fill="#FBBF16"></path>
                        <path d="M92.3859092,47.6749437 C92.2639024,48.1195841 91.69842,49.289859 90.4070119,49.1690169 C89.1153126,49.0481749 87.8227397,47.8767353 87.4593401,46.3427696 C87.0863314,44.7674555 88.267089,44.7284366 88.7918054,44.6873795 C88.7918054,44.6873795 87.9843477,46.4647763 89.0745466,47.4332596 C90.1641631,48.4023253 90.6486959,48.1594765 90.9314371,48.1594765 C91.2138872,48.1594765 92.3859092,47.6749437 92.3859092,47.6749437" id="path82" fill="#FBBF16"></path>
                        <path d="M92.22401,46.7871188 C91.9811612,46.9493092 90.2975261,47.4472365 90.0433211,46.2626935 C89.922479,45.6975023 90.1108761,45.3338115 90.3659547,45.1320199 C91.1332287,44.526645 93.3558484,43.3100716 94.2427997,40.4482996 C95.1306246,37.582451 93.9600585,33.3829724 93.4758168,32.2522987 C92.991284,31.1224986 94.0002421,30.5969086 95.1306246,31.4052398 C96.2615894,32.2121151 97.2705475,37.0982094 96.6252802,40.6509648 C95.6369963,46.0847791 92.22401,46.7871188 92.22401,46.7871188" id="path84" fill="#FFFFFF"></path>
                        <path d="M87.5001061,37.6223434 L89.034363,38.1866611 C89.034363,38.1866611 89.6397378,36.5714546 89.922479,36.1282701 L88.3072726,35.8455289 L87.5001061,37.6223434" id="path86" fill="#FFFFFF"></path>
                        <path d="M93.0311764,35.2401541 L92.6674856,34.4326964 C92.6674856,34.4326964 80.529123,32.9939484 78.2540899,21.7541845 C76.1092169,11.1596879 81.8872126,6.41109145 85.7640576,3.78576214 C85.7640576,3.78576214 75.9647888,7.25893654 75.5489758,17.1103275 C75.1098679,27.5179413 80.5320348,30.9096419 81.6053449,31.8076583 C86.0866912,35.5624965 93.0311764,35.2401541 93.0311764,35.2401541" id="path88" fill="#FBBF16"></path>
                        <path d="M92.5323755,33.3503596 C92.5323755,33.3503596 91.4017019,30.7660874 93.2184088,30.079763 C95.0354069,29.3934385 95.8836305,30.5241122 96.2470301,30.9678791 C96.6107209,31.4122283 97.6330736,33.9146773 97.6330736,33.9146773 C97.6330736,33.9146773 107.517369,32.4427341 109.871022,22.5573326 C111.936692,13.8779636 105.586517,4.62871531 100.585113,3.33407505 C94.8933083,1.86131364 89.8007635,1.48936772 84.110997,6.21739479 C78.0636546,11.2423846 78.6413668,19.6617248 79.9225834,22.9689817 C81.5971917,27.2937575 83.3815771,29.7233518 87.5123359,31.9715958 C90.3598398,33.5221591 92.5323755,33.3503596 92.5323755,33.3503596" id="path90" fill="#FBBF16"></path>
                        <path d="M59.5224119,44.4634578 C60.0520785,44.2308005 62.2019017,43.7020074 62.0359259,42.4781544 C61.9101338,41.5390808 57.770057,34.4411408 57.770057,34.4411408 C57.770057,34.4411408 60.2628969,40.0659729 60.3490878,41.4528899 C60.4483821,43.0404338 59.5224119,44.4634578 59.5224119,44.4634578" id="path92" fill="#231F20"></path>
                        <path d="M109.968278,149.7419 C111.81818,153.13363 113.771453,155.702761 114.183189,156.730646 C114.593761,157.758531 115.004333,161.561123 115.621355,162.280352 C115.621355,162.280352 113.668955,158.374971 112.846356,157.03872 C112.024048,155.702761 110.585009,153.955647 110.482511,153.03055 C110.380014,152.105745 109.968278,149.7419 109.968278,149.7419" id="path94" fill="#231F20"></path>
                        <path d="M107.091364,156.113915 C106.988575,157.244588 106.988575,159.09449 106.885496,159.505644 C106.885496,159.505644 107.297232,158.477759 105.138091,160.43045 C102.979823,162.38314 101.644155,162.588717 101.233292,162.896792 C101.233292,162.896792 103.904629,160.636027 104.727228,159.09449 C105.549827,157.552954 107.091364,156.113915 107.091364,156.113915" id="path96" fill="#231F20"></path>
                        <path d="M108.221746,149.7419 C108.221746,149.7419 106.474633,152.311613 105.754531,153.544493 C105.035303,154.777955 101.33579,160.636027 100.000121,161.458044 C98.6632882,162.280352 93.8331016,166.494099 87.0502244,163.616311 C80.267056,160.738815 83.7615743,161.869198 82.6309006,161.663621 C81.4999358,161.458044 80.5751303,160.738815 78.006291,162.177563 C78.006291,162.177563 78.9313876,159.81401 83.3495466,160.841604 C83.3495466,160.841604 88.2836865,163.10266 90.5444515,162.999872 C92.8057988,162.896792 97.8409801,161.458044 99.8967504,158.888913 C101.952229,156.319492 108.221746,149.7419 108.221746,149.7419" id="path98" fill="#231F20"></path>
                        <path d="M93.524736,152.105745 C92.8057988,150.153054 92.1881942,145.631233 95.3746381,142.856235 C95.3746381,142.856235 104.881848,142.470996 107.656555,143.190224 C107.656555,143.190224 108.324244,144.397771 108.221746,144.911714 C108.118376,145.425656 107.707804,146.556039 106.782707,146.967193 C106.195095,147.228386 106.208198,147.339328 102.158098,147.78921 C102.158098,147.78921 102.363092,144.397771 99.794253,143.78104 C99.794253,143.78104 98.3552138,143.78104 97.6362766,144.50056 C96.9161746,145.220079 96.0947401,147.891998 96.6078091,150.256134 L93.524736,152.105745" id="path100" fill="#FFFFFF"></path>
                        <path d="M112.049672,147.78921 C112.049672,147.78921 111.201449,147.17277 111.098951,146.042096 C110.996745,144.911714 111.81818,144.089406 112.229916,143.883828 C112.640488,143.678543 116.341166,143.883828 116.341166,143.883828 C116.341166,143.883828 118.524766,144.192485 119.860435,146.45325 C121.197268,148.714306 120.81232,151.437765 120.606452,152.46565 C120.606452,152.46565 118.448185,152.131369 116.906648,151.617718 C116.906648,151.617718 117.779331,147.686712 115.312989,145.528154 C115.312989,145.528154 113.668955,144.16657 112.538282,145.939599 C111.734027,147.19985 112.049672,147.78921 112.049672,147.78921" id="path102" fill="#FFFFFF"></path>
                        <path d="M97.7006286,149.59689 C97.5637714,149.026166 97.8604895,147.564123 98.1805025,147.449978 C98.4999331,147.335834 98.6373727,147.723984 98.7058013,147.929561 C98.7739387,148.135138 98.7058013,149.185736 98.7058013,149.185736 L97.7006286,149.59689" id="path104" fill="#FFFFFF"></path>
                        <path d="M114.073121,149.715985 L113.029512,148.696835 C113.029512,148.696835 112.955551,147.503265 113.37777,147.428722 C113.799989,147.35447 113.940632,147.893745 113.99916,148.19949 C114.124078,148.845922 114.073121,149.715985 114.073121,149.715985" id="path106" fill="#FFFFFF"></path>
                        <path d="M105.472663,127.080673 C105.472663,126.640691 105.115379,126.283989 104.67598,126.283989 C104.235416,126.283989 103.879005,126.640691 103.879005,127.080673 C103.879005,127.520072 104.235416,127.877065 104.67598,127.877065 C105.115379,127.877065 105.472663,127.520072 105.472663,127.080673" id="path108" fill="#231F20"></path>
                        <path d="M111.073327,126.283989 C111.073327,125.886812 110.751858,125.56476 110.35439,125.56476 C109.956921,125.56476 109.634288,125.886812 109.634288,126.283989 C109.634288,126.681457 109.956921,127.003508 110.35439,127.003508 C110.751858,127.003508 111.073327,126.681457 111.073327,126.283989" id="path110" fill="#231F20"></path>
                        <path d="M108.247371,123.791731 C108.247371,123.394554 107.925028,123.072503 107.52756,123.072503 C107.129801,123.072503 106.808332,123.394554 106.808332,123.791731 C106.808332,124.1892 107.129801,124.511251 107.52756,124.511251 C107.925028,124.511251 108.247371,124.1892 108.247371,123.791731" id="path112" fill="#231F20"></path>
                        <path d="M104.599107,122.995339 C104.599107,122.498576 104.196397,122.096158 103.699634,122.096158 C103.202872,122.096158 102.800453,122.498576 102.800453,122.995339 C102.800453,123.49181 103.202872,123.89452 103.699634,123.89452 C104.196397,123.89452 104.599107,123.49181 104.599107,122.995339" id="path114" fill="#231F20"></path>
                        <path d="M112.024048,121.916205 C112.024048,121.50476 111.690058,121.171061 111.279195,121.171061 C110.867459,121.171061 110.53376,121.50476 110.53376,121.916205 C110.53376,122.32765 110.867459,122.661058 111.279195,122.661058 C111.690058,122.661058 112.024048,122.32765 112.024048,121.916205" id="path116" fill="#231F20"></path>
                        <path d="M107.142321,119.911975 C107.142321,119.543042 106.843274,119.243995 106.474633,119.243995 C106.105701,119.243995 105.806944,119.543042 105.806944,119.911975 C105.806944,120.281198 106.105701,120.579954 106.474633,120.579954 C106.843274,120.579954 107.142321,120.281198 107.142321,119.911975" id="path118" fill="#231F20"></path>
                        <path d="M130.695159,129.153041 C130.695159,128.77479 130.388832,128.46759 130.01,128.46759 C129.632041,128.46759 129.32484,128.77479 129.32484,129.153041 C129.32484,129.531291 129.632041,129.838491 130.01,129.838491 C130.388832,129.838491 130.695159,129.531291 130.695159,129.153041" id="path120" fill="#231F20"></path>
                        <path d="M130.07872,125.418876 C130.07872,124.964627 129.710661,124.596568 129.257285,124.596568 C128.802453,124.596568 128.434686,124.964627 128.434686,125.418876 C128.434686,125.873126 128.802453,126.240893 129.257285,126.240893 C129.710661,126.240893 130.07872,125.873126 130.07872,125.418876" id="path122" fill="#231F20"></path>
                        <path d="M132.614655,126.069967 C132.614655,125.691426 132.307163,125.384517 131.929204,125.384517 C131.550663,125.384517 131.243171,125.691426 131.243171,126.069967 C131.243171,126.447926 131.550663,126.754836 131.929204,126.754836 C132.307163,126.754836 132.614655,126.447926 132.614655,126.069967" id="path124" fill="#231F20"></path>
                        <path d="M69.7846658,110.688088 C69.7846658,110.688088 65.7028261,103.82397 57.967772,95.8347113 C52.2308335,89.9090845 50.8736174,87.2558014 50.154389,85.9201331 C50.154389,85.9201331 56.4241972,92.6002218 57.4515,93.6275245 C58.4796763,94.6557009 56.3205351,88.4889724 56.1158316,87.769744 C56.1158316,87.769744 58.796195,93.5768582 60.1237102,95.7860833 C61.3434866,97.8162293 63.6185196,100.751962 65.7467952,103.687987 C67.4205299,105.995341 69.7846658,110.688088 69.7846658,110.688088" id="path126" fill="#231F20"></path>
                        <path d="M84.0699398,116.957314 C84.0699398,116.957314 81.3974384,115.518566 80.4729242,113.87395 C79.5478275,112.229916 79.4441655,110.071357 79.0335938,109.043763 C78.6227309,108.016169 77.6979255,107.501936 77.3898511,106.885496 C77.3898511,106.885496 79.1360911,107.399438 80.1642674,109.146552 C81.1915702,110.893665 80.7195584,112.935459 81.8208223,114.403325 C82.2147964,114.929789 84.0699398,116.957314 84.0699398,116.957314" id="path128" fill="#231F20"></path>
                        <path d="M70.8116774,90.3388744 C70.8116774,90.3388744 65.9814907,83.2476317 66.0848616,81.8088837 C66.187359,80.3698445 66.4957245,78.9310965 67.2146617,78.006291 C67.9347637,77.0811944 69.476009,73.8953328 69.9893692,72.6621618 C70.503603,71.4286996 71.3262023,68.3456266 71.3262023,68.3456266 C71.3262023,68.3456266 69.0642726,73.8953328 67.7288955,74.9229268 C66.3932272,75.9508119 65.1600562,77.6979255 65.0563941,78.211868 C65.0563941,78.211868 63.9257204,76.567543 64.2349595,75.5396578 C64.5433251,74.5120639 63.000915,77.800714 63.5148576,80.67821 C64.0290913,83.5559972 64.3374569,85.3031108 64.6458224,85.6111852 C64.6458224,85.6111852 64.4399542,84.0696486 64.8516906,83.1448432 C65.2622623,82.2200377 67.3180326,86.2282074 68.2431292,87.3585899 C69.1679347,88.4889724 70.8116774,90.3388744 70.8116774,90.3388744" id="path130" fill="#231F20"></path>
                        <path d="M85.3031108,8.07868222 L86.0395192,8.11828346 C88.6392241,8.26180884 88.6392241,8.26180884 88.5940904,9.64756108 L88.0827685,25.3217613 C88.0379259,26.7323225 88.0379259,26.7323225 85.8499573,26.7323225 L84.7428697,26.7209372 L84.6639584,29.3296689 L104.773236,29.5122423 L105.080436,22.5674659 L101.795572,22.4978434 L101.71171,23.2444724 C101.317445,26.7497063 101.317445,26.7497063 98.3141567,26.7497063 C98.1082885,26.7497063 97.8922287,26.7489201 97.6627745,26.7457462 L92.639823,26.686257 L92.8928633,19.4343671 L94.8318682,19.4954579 C96.0763954,19.533312 97.05012,19.5877928 97.3442175,19.903438 C97.6292882,20.2086296 97.6310353,21.1613306 97.5952194,22.0524168 L97.564645,22.8187008 L100.58919,22.8903616 L100.957831,13.8962501 L98.0418981,13.7786402 L97.9094087,14.4032333 C97.8039995,14.9064311 97.7539156,15.3486547 97.7143143,15.7039011 C97.5838632,16.8573746 97.57571,16.9260653 95.7022219,16.9260653 C95.4649056,16.9260653 95.2045857,16.9210569 94.9209709,16.911506 L92.9831308,16.8462222 L93.2256884,9.90872544 C93.2699486,8.62148129 93.2699486,8.62148129 94.6749191,8.62148129 C95.0080354,8.62148129 95.3941475,8.63478847 95.8416998,8.65924806 L96.6089738,8.7021397 L96.7073946,6.10671515 L95.9523503,6.07791689 C95.1370307,6.04734241 94.321711,6.00832354 93.5063913,5.96930467 C92.6858303,5.93063522 91.8655605,5.8918493 91.0449995,5.86069244 C90.2625838,5.79925228 89.4493025,5.74512088 88.6360211,5.68982473 C87.8145865,5.63444123 86.993152,5.57937804 86.172591,5.5159287 L85.3828956,5.45542033 L85.3031108,8.07868222" id="path132" fill="#231F20"></path>
                        <path d="M100.172212,14.6204869 L98.6490201,14.5586973 C98.1371158,16.9895438 99.0383352,17.804514 94.8953466,17.6662008 L92.2015887,17.5750889 L92.4709354,9.88222755 C92.5303372,8.16627085 92.5117013,7.71868947 95.8836305,7.90545591 L95.9235229,6.83296114 C94.2879335,6.77155009 92.6532175,6.67714773 91.0164633,6.61570757 C89.382621,6.48968244 87.747905,6.39562949 86.1143539,6.26867257 L86.0802851,7.36437484 C89.4525055,7.55102481 89.4032951,7.99735409 89.3468051,9.7244632 L88.8378127,25.3462209 C88.7824875,27.0753683 88.8019969,27.5240853 85.4752015,27.4849499 L85.4422975,28.5810016 L104.051095,28.7502678 L104.291615,23.3058834 L102.468793,23.2683496 C102.025026,27.2095757 102.010758,27.5517188 97.6546213,27.500441 L91.8582809,27.4328568 L92.1646081,18.6556786 L94.855163,18.740763 C97.9609485,18.8370872 98.4708145,19.0409171 98.3499725,22.0821177 L99.8650111,22.1179335 L100.172212,14.6204869" id="path134" fill="#D41042"></path>
                        <path d="M116.81638,135.723352 C116.186546,136.036668 115.56603,136.313585 114.958325,136.475776 C114.322085,136.645537 114.115925,136.726487 113.453187,136.832478 C112.407248,136.999619 111.397999,136.863926 110.878233,136.832478 C109.658165,136.758808 108.97417,135.575721 108.858861,134.608694 C108.738019,133.599153 109.984293,132.607958 111.126032,132.670854 C111.470795,132.690072 112.455585,132.808002 112.689989,132.981549 C113.056301,133.252351 113.884724,133.639046 114.324414,133.809681 C115.2664,134.173663 115.286491,134.121249 116.304185,134.263348 C116.750281,134.325661 117.806703,134.122996 117.960157,134.577537 C118.125551,135.06702 117.551915,135.357623 116.81638,135.723352" id="path136" fill="#FFFFFF"></path>
                    </g>
                </g>
            </g>
        </g>
    </g>
</svg>