<?xml version="1.0" encoding="UTF-8"?>
<svg width="200px" height="200px" viewBox="0 0 200 200" version="1.1" xmlns="http://www.w3.org/2000/svg" xmlns:xlink="http://www.w3.org/1999/xlink">
    <!-- Generator: Sketch 54.1 (76490) - https://sketchapp.com -->
    <title>lake-superior-st</title>
    <desc>Created with Sketch.</desc>
    <g id="lake-superior-st" stroke="none" stroke-width="1" fill="none" fill-rule="evenodd">
        <g id="lake-superior-st_BGL">
            <g id="lake-superior-st" transform="translate(17.000000, 0.000000)">
                <g id="g10" transform="translate(82.946077, 100.046246) scale(-1, 1) rotate(-180.000000) translate(-82.946077, -100.046246) translate(0.000000, 0.179169)" fill-rule="nonzero">
                    <g id="g12">
                        <path d="M82.4404375,182.084887 C82.4404375,178.259082 85.5412936,175.158226 89.367762,175.158226 C93.1925715,175.158226 96.2937594,178.259082 96.2937594,182.084887 C96.2937594,185.910028 93.1925715,189.010884 89.367762,189.010884 C85.5412936,189.010884 82.4404375,185.910028 82.4404375,182.084887 Z M89.2280808,0.229916239 C86.775863,3.61578538 81.0144285,7.5112981 76.6803301,7.84736243 C57.0994157,9.37330481 38.6057584,28.1014672 31.9158255,47.1664571 C30.1986095,49.6674472 30.2054774,53.5430197 26.7632152,54.6677685 C22.3738084,56.2274865 19.2646245,51.1511866 17.1080265,49.0891471 C20.9181047,60.5347104 22.5781875,73.6219424 22.0858196,86.8840247 C22.1219841,87.3551584 21.999622,88.2751963 21.999622,88.2751963 L22.038109,88.8252947 C27.2783767,74.5924115 41.6064157,62.4355027 55.5317348,57.8874034 C55.4451391,57.5440066 55.702272,57.1120235 55.3575481,56.8545589 C51.050656,56.2606649 45.8887557,59.1116875 42.0941386,56.0187942 C41.2295087,54.297829 42.6913504,52.9172745 43.2912164,51.5380471 C47.4660583,46.0984434 52.2029429,40.4066836 57.7191888,36.169798 L57.9617231,35.9627646 C61.181358,33.4786955 65.2102148,31.0971477 69.2311089,33.3373554 L69.2788858,33.3459818 C77.2420409,36.9504865 81.2699024,45.908331 81.993524,54.1919898 L82.42418,57.3774509 L82.42418,143.278399 L66.0622369,143.278399 L66.0622369,156.411417 L82.42418,156.411417 L82.42418,166.206685 L82.408918,166.389166 C76.3963227,169.058371 72.2029009,175.081915 72.2029009,182.084887 C72.2029009,191.563964 79.887689,199.248752 89.367762,199.248752 C98.8468397,199.248752 106.53196,191.563964 106.53196,182.084887 C106.53196,175.106799 102.367403,169.101835 96.3896451,166.4177 L96.4185103,166.206685 L96.4185103,156.411417 L112.349797,156.411417 L112.349797,143.278399 L96.4185103,143.278399 L96.4185103,57.5931107 L97.0303206,54.5702239 C98.9513517,46.6634721 103.412192,39.6535332 110.326577,34.297871 C113.856762,31.5427009 118.419791,33.2653582 121.864708,35.1605102 C128.668277,39.464748 134.35141,46.1827166 139.261154,52.5552978 C139.863011,53.933198 141.328171,55.3107665 140.466858,57.032727 C136.677882,60.1325878 131.510673,57.2921824 127.204776,57.8940391 C126.860052,58.1528308 127.119176,58.5834869 127.031585,58.9285426 C140.806937,63.3973454 155.07134,74.9656688 160.455536,88.9964954 L160.530851,88.7244322 C160.014595,75.4620181 161.651286,61.5118152 165.438936,50.0579573 C163.287978,52.1249736 160.186127,57.2062502 155.79463,55.6554904 C152.350045,54.5370455 152.350045,50.661473 150.627421,48.1641325 C143.39386,27.6678251 121.607243,12.5116526 101.370391,8.46517799 C97.0641626,7.86096559 91.5525617,3.62072896 89.3136812,0.0886487854 L89.2280808,0.229916239 Z" id="path14" fill="#FBC018"></path>
                        <path d="M89.367762,188.844992 C85.6395018,188.844992 82.6063296,185.812483 82.6063296,182.084887 C82.6063296,178.356958 85.6395018,175.324118 89.367762,175.324118 C93.0953587,175.324118 96.1278673,178.356958 96.1278673,182.084887 C96.1278673,185.812483 93.0953587,188.844992 89.367762,188.844992 Z M89.367762,174.992333 C85.4566886,174.992333 82.2745453,178.174145 82.2745453,182.084887 C82.2745453,185.995296 85.4566886,189.176776 89.367762,189.176776 C93.2781719,189.176776 96.4596516,185.995296 96.4596516,182.084887 C96.4596516,178.174145 93.2781719,174.992333 89.367762,174.992333 Z M25.1233381,55.1259626 C25.6667676,55.1259626 26.2314313,55.0327312 26.8186564,54.8240389 C29.1847098,54.0509815 29.9737261,52.0078537 30.73683,50.0320781 C31.1077648,49.0712308 31.4912411,48.0778686 32.0525538,47.260352 L32.0723945,47.2215333 C35.3967406,37.7471006 41.776621,28.2086667 49.5762065,21.0521124 C57.9670316,13.3523608 67.5974029,8.72164726 76.6932697,8.01259101 C81.0990335,7.67082 86.8535005,3.73828014 89.314013,0.393476281 C91.6192503,3.85467008 97.0283299,8.02360625 101.347166,8.62937804 C111.570104,10.6738661 122.023964,15.5213012 130.77378,22.2769937 C140.253521,29.5968523 147.064721,38.5672714 150.471151,48.2192087 L150.490726,48.2583592 C151.054096,49.0748804 151.439629,50.0675791 151.812555,51.0277629 C152.579308,53.0018795 153.371941,55.0433483 155.743203,55.8134197 C159.388849,57.1000792 162.175174,53.9395019 164.209675,51.6316103 C164.504963,51.2965081 164.790298,50.9730184 165.061034,50.6817118 C161.546774,61.6385568 159.877899,74.9364718 160.348038,88.2735374 C155.115799,75.3913481 141.907798,63.6249494 127.215393,58.814077 C127.221034,58.7118874 127.210417,58.6103614 127.200131,58.5111579 C127.176906,58.289526 127.168612,58.1524991 127.274451,58.0519684 C128.814925,57.8462621 130.510675,58.0874693 132.149358,58.3213773 C135.081336,58.7387619 138.114176,59.172404 140.572034,57.1611276 L140.615498,57.1070467 C141.297978,55.7417543 140.596586,54.5649153 139.977808,53.527094 C139.763808,53.1684352 139.562083,52.8296834 139.413112,52.4889409 L139.392541,52.4544354 C134.634754,46.2789341 128.842464,39.3788158 121.953626,35.0204972 C116.890266,32.233874 113.05683,31.9568009 110.224387,34.1668162 C103.44902,39.4149803 98.8305822,46.4567705 96.8690734,54.5310733 L96.255936,57.5599323 L96.2526182,143.444291 L112.183905,143.444291 L112.183905,156.245525 L96.2526182,156.245525 L96.2526182,166.206685 L96.2084909,166.51823 L96.3216293,166.569325 C102.423143,169.308537 106.366067,175.398769 106.366067,182.084887 C106.366067,191.457462 98.7406687,199.08286 89.367762,199.08286 C79.9945236,199.08286 72.368793,191.457462 72.368793,182.084887 C72.368793,175.368245 76.3362698,169.266732 82.4762702,166.540792 L82.5661837,166.500978 L82.5894086,166.220288 L82.5900722,156.245525 L66.2281291,156.245525 L66.2281291,143.444291 L82.5900722,143.444291 L82.5900722,57.3774509 L82.158089,54.1694285 C81.4912026,46.5350715 77.7748865,37.0098759 69.3472334,33.1950199 L69.2875122,33.1790943 C65.1617743,30.8993711 61.0148023,33.3980719 57.8601971,35.8317098 L57.6113589,36.0440518 C51.9511186,40.390758 47.1292972,46.2649991 43.1598298,51.4368529 L43.1392592,51.472022 C42.9909516,51.8127645 42.7898903,52.1515163 42.5768848,52.5101751 C41.959766,53.5499872 41.2603646,54.728485 41.9461628,56.0931139 L41.9892948,56.1471947 C44.4504707,58.1528308 47.481984,57.7152073 50.4139619,57.2915188 C52.0523128,57.054293 53.747067,56.8091044 55.2882051,57.01282 C55.3940443,57.1130188 55.3860815,57.2507093 55.3635202,57.472673 C55.3532349,57.5708812 55.3426178,57.6714118 55.3482581,57.7729378 C40.8744995,62.5483093 27.3947667,74.8432404 22.2076508,87.9178646 C22.2394026,87.6026695 22.2733441,87.1610646 22.2511809,86.8714169 C22.7414918,73.6936078 21.0950121,60.8575365 17.4871232,49.7119063 C17.7601817,50.0038765 18.0470092,50.3280297 18.344288,50.6637955 C20.0537734,52.5954437 22.2935829,55.1259626 25.1233381,55.1259626 Z M89.4540259,0 L89.1736682,0.177556363 C89.178645,0.185462119 89.1839535,0.193756727 89.1889303,0.201792211 L89.0937082,0.132713723 C86.703534,3.43293905 81.0124378,7.34500781 76.6673905,7.68183524 C67.4978676,8.3968636 57.7968263,13.05767 49.3515885,20.8075542 C41.4040272,28.1004387 35.159183,37.4345598 31.7666553,47.091142 C31.1901801,47.9365285 30.8024237,48.9411713 30.4272089,49.912304 C29.6581328,51.9036734 28.9319897,53.7845587 26.7116228,54.5101709 C23.2716831,55.7324643 20.6776938,52.8001546 18.5927612,50.4441543 C18.1053037,49.8930605 17.6447208,49.3724909 17.2227243,48.969373 L16.9505616,49.1415691 C20.6999566,60.4046509 22.418367,73.4540595 21.9200602,86.8777208 C21.954798,87.3455367 21.8363178,88.2446721 21.8351566,88.2536303 L21.8329668,88.2702195 L21.8727477,88.8369071 L22.1939149,88.8823616 C27.1053512,75.5423099 40.8356807,62.8618455 55.5834932,58.0450009 L55.7304736,57.9968922 L55.6926502,57.8465939 C55.6680982,57.7500447 55.6803742,57.6315977 55.6933138,57.506515 C55.719193,57.2546907 55.751376,56.9414863 55.4567516,56.7218451 L55.4225778,56.6962977 L55.3804412,56.6903256 C53.7799137,56.4696891 52.04435,56.720518 50.3661849,56.9627205 C47.5168213,57.3747966 44.5709085,57.8004759 42.2268523,55.9126232 C41.6492158,54.7231765 42.2656711,53.6846916 42.8622193,52.6797169 C43.067262,52.3339977 43.2792721,51.976666 43.4352108,51.6229839 C47.3890844,46.4717007 52.1896715,40.625993 57.820383,36.3015164 L58.069553,36.0888426 C63.9265414,31.5703053 67.0685387,32.3221286 69.1504853,33.4823451 L69.2294499,33.50557 C74.6650722,35.9753724 80.8236525,42.7066124 81.8282954,54.2065883 L82.259615,57.4000123 L82.2582879,143.112507 L65.8963448,143.112507 L65.8963448,156.577309 L82.2582879,156.577309 L82.251984,166.277687 C76.0429725,169.075956 72.0370087,175.269705 72.0370087,182.084887 C72.0370087,191.640606 79.8117104,199.414645 89.367762,199.414645 C98.9238136,199.414645 106.697852,191.640606 106.697852,182.084887 C106.697852,175.310183 102.726725,169.135013 96.5707993,166.317833 L96.5827436,166.229246 L96.5844025,156.577309 L112.51569,156.577309 L112.51569,143.112507 L96.5844025,143.112507 L96.5844025,57.5931107 L97.1932267,54.6034023 C99.1351602,46.6090594 103.712125,39.6306401 110.427771,34.4289258 C113.145416,32.3087909 116.860073,32.5958506 121.784748,35.3061635 C128.615855,39.6276541 134.379944,46.4926032 139.11716,52.6405664 C139.273762,52.9942484 139.486768,53.3515801 139.692474,53.6969676 C140.291013,54.6999516 140.909127,55.7371093 140.334145,56.9268878 C137.993738,58.8187219 135.04683,58.3993466 132.196471,57.9929108 C130.517311,57.7533625 128.782742,57.5055197 127.181551,57.7298059 L127.139415,57.735778 L127.105241,57.7616571 C126.81128,57.9822937 126.843795,58.2945027 126.870006,58.5456635 C126.883277,58.6714097 126.895553,58.7901885 126.871001,58.8877331 L126.832846,59.0383632 L126.98049,59.0864719 C141.887227,63.9222282 155.277378,75.9659985 160.300593,89.0558848 L160.480751,89.5256913 L160.697738,88.7436757 L160.696743,88.7177966 C160.16257,74.991548 161.902447,61.2805615 165.596534,50.1100475 L165.323807,49.938515 C164.9041,50.3419647 164.445906,50.8618707 163.960837,51.4119691 C161.879222,53.7742733 159.288319,56.712887 155.850038,55.4988882 C153.624429,54.7765937 152.894503,52.8973674 152.121778,50.9076569 C151.744871,49.936856 151.355024,48.9328767 150.776724,48.0881539 C147.346406,38.3837947 140.500037,29.3679543 130.9765,22.0142869 C122.187202,15.2278712 111.684238,10.3582729 101.402574,8.30223871 C97.0737843,7.69480801 91.6341806,3.4399397 89.4540259,0 L89.4540259,0 Z" id="path16" fill="#25529B"></path>
                        <path d="M13.3928053,54.1634563 C12.3762182,55.1797117 11.4503078,55.9895972 10.6142445,56.5957671 C9.77960788,57.2039277 8.968163,57.5708812 8.18146923,57.7039267 C7.39477546,57.8329908 6.57556682,57.7191888 5.7240424,57.3582074 C4.87089223,56.9985532 3.90520083,56.3429474 2.82379633,55.3927172 C2.62783456,55.1966327 2.39014429,55.1379068 2.11421919,55.2198576 C1.83803198,55.2984905 1.60202716,55.4358492 1.40762147,55.6319337 C1.21321577,55.8263593 1.08361418,56.051309 1.01881007,56.3134186 C0.955435951,56.5745329 1.02179281,56.8014734 1.21930733,56.9985532 C2.26688973,58.0463281 3.50875176,59.1969561 4.94488013,60.4451286 C6.37958183,61.6946283 7.68638068,62.9069682 8.86189248,64.08248 C9.54825468,64.7692735 10.177749,65.4295243 10.7516364,66.0665501 C11.3239643,66.7022489 11.8824236,67.3223537 12.425455,67.9255376 C12.9684864,68.5303804 13.5176226,69.1428542 14.0762147,69.7642862 C14.6345413,70.3847229 15.2594902,71.0386698 15.9474118,71.7267904 C16.1432641,71.9225432 16.3638343,71.9829279 16.6077621,71.9026361 C16.852818,71.8210172 17.0627711,71.6756956 17.2417687,71.464349 C17.4190743,71.2530024 17.5486692,71.0094727 17.6288947,70.7347553 C17.7092528,70.4570519 17.6675143,70.2364153 17.5039447,70.0728456 C16.5538471,68.9915606 15.8734239,68.0320404 15.4631062,67.1972711 C15.0541821,66.3615064 14.9060736,65.5592519 15.0219326,64.7891806 C15.1359669,64.017782 15.504712,63.2234904 16.1279688,62.404315 C16.7513583,61.5848077 17.6198369,60.6193154 18.7336369,59.5041883 L35.840668,42.3970577 C36.8910971,41.3479557 37.8167753,40.5194903 38.6190298,39.9133203 C39.4226114,39.3071504 40.1910238,38.8980604 40.9299075,38.6853866 C41.667464,38.4707222 42.3970577,38.4634229 43.1157025,38.6588439 C43.836338,38.8565873 44.6399196,39.1989887 45.5254519,39.6926838 C46.0825178,40.0506791 46.6717667,40.4932793 47.2951894,41.0194892 C47.9169532,41.5423813 48.5400441,42.1147092 49.163135,42.7378002 C49.9501274,43.5244607 50.6535102,44.2945321 51.2766011,45.0490096 C51.9000238,45.8014964 52.3240441,46.423592 52.5539707,46.9169553 C52.9796499,47.8011605 53.2991582,48.611046 53.5134909,49.3482707 C53.7264964,50.0858272 53.7819044,50.8310148 53.6846916,51.5838333 C53.5861516,52.3379791 53.324042,53.1405653 52.898031,53.993251 C52.4740106,54.8452731 51.8336669,55.8293453 50.9806495,56.9431453 C50.8170798,57.17274 50.8001588,57.4182604 50.9328725,57.68037 C51.0622684,57.9414842 51.2427591,58.188 51.4726856,58.4179265 C51.7009532,58.6465259 51.9570907,58.8018009 52.2347942,58.8824245 C52.5124976,58.9657024 52.7188675,58.9086355 52.8485951,58.710892 C54.0629257,57.1714129 55.1982916,55.7381047 56.2643146,54.4129581 C57.3303375,53.0848256 58.4995454,51.815087 59.7752561,50.6057332 C59.8741278,50.5081886 59.9464568,50.3018188 59.9958927,49.9935912 C60.0453285,49.6797232 59.8233648,49.2789278 59.3326558,48.7882188 L41.5005765,30.9565044 C40.226193,29.6821209 39.0400641,28.4140744 37.9448441,27.1522655 C36.8476334,25.8901912 35.7603762,24.652868 34.6804183,23.4386038 C34.4504917,23.2089758 34.1960132,23.1197922 33.9183097,23.1691617 C33.6406062,23.2179008 33.4030487,23.3414241 33.205637,23.5390681 C33.0096852,23.7348871 32.8785309,23.9803744 32.8123067,24.2749325 C32.7472438,24.5683625 32.8123067,24.8473931 33.0081258,25.1111616 C33.8937577,26.2574764 34.5739155,27.2150059 35.0490306,27.9866699 C35.5244775,28.7550823 35.7693344,29.460124 35.7865871,30.0988088 C35.8018492,30.7387875 35.5642917,31.4176514 35.0722555,32.1379883 C34.5815465,32.8598514 33.7948859,33.7627029 32.7119751,34.8439879 L13.4421748,54.1150158 L13.3928053,54.1634563" id="path18" fill="#324EA9"></path>
                        <path d="M2.3849585,56.1783871 C2.3857385,56.1783871 2.3869085,56.1783871 2.3884785,56.1773871 C2.3873085,56.1783871 2.3857385,56.1783871 2.3849585,56.1783871 Z M14.0926712,54.8711523 L14.1378934,54.827025 L33.4159883,35.5477024 C34.5520177,34.4130001 35.3635621,33.4803544 35.8954124,32.6977416 C36.5032412,31.8078629 36.8018471,30.9246199 36.7816083,30.0745553 C36.7597105,29.2561098 36.4617682,28.3781753 35.8954124,27.4631806 C35.4013856,26.660163 34.7142603,25.6911206 33.7958813,24.5026692 C33.7859278,24.4890661 33.780951,24.4744012 33.7806192,24.4744012 C33.8157884,24.3497166 33.8705328,24.2817009 33.9090197,24.2431807 C33.9388803,24.2132538 33.9687409,24.1917541 34.0022511,24.1761935 C35.0254739,25.3244658 36.1047683,26.5527313 37.1936844,27.805217 C38.2922222,29.0706424 39.5045621,30.3678527 40.796862,31.6602521 L58.6289413,49.4919333 C58.8605268,49.7235187 58.957076,49.8698356 58.9948994,49.9375196 C58.990918,49.9557678 58.9872684,49.9716934 58.9839505,49.9849648 C57.7374369,51.1740797 56.5572801,52.4577532 55.4879393,53.7898672 C54.404,55.1372433 53.2759333,56.5622569 52.2895386,57.8127519 C52.2513834,57.7842185 52.2138917,57.7517036 52.1767319,57.7145438 C52.0672431,57.6047232 51.9753388,57.4912529 51.9020145,57.375792 C52.7271621,56.2835581 53.3615337,55.2955044 53.7888719,54.4368466 C54.2619963,53.490266 54.559275,52.5732142 54.6717499,51.7125657 C54.786879,50.8220566 54.7188633,49.93387 54.470025,49.0718944 C54.2407621,48.2835748 53.8980289,47.4139682 53.4507836,46.4849721 C53.1863516,45.9169574 52.7238442,45.2358042 52.0430228,44.4139745 C51.401352,43.6366038 50.6687722,42.8356765 49.8668496,42.0340856 C49.2314826,41.3987187 48.5818489,40.8008434 47.9358649,40.2577125 C47.2809227,39.7049598 46.6505325,39.232499 46.063606,38.8552602 L46.0101888,38.8234089 C45.0662624,38.2975308 44.1810619,37.9189649 43.3791392,37.6989919 C42.4793402,37.4544669 41.5626201,37.4644204 40.6518722,37.729516 C39.8038315,37.9737093 38.9169721,38.4415252 38.0194955,39.1186969 C37.1880441,39.7470964 36.2185703,40.6127217 35.1372853,41.6926796 L18.0298892,58.800142 C16.8696726,59.9617189 15.9886194,60.9431369 15.3357011,61.8014629 C14.6123781,62.7523567 14.1754845,63.7082273 14.0373295,64.643859 C13.8919085,65.6090196 14.0707734,66.6163167 14.5689475,67.6345628 C14.9987409,68.5088144 15.6906771,69.4995224 16.6277023,70.5824663 C16.5889499,70.6730435 16.5401113,70.7523399 16.479063,70.8250007 C16.4750484,70.8296456 16.4711333,70.8339588 16.4672514,70.8386038 C15.8569674,70.2228121 15.3019918,69.63854 14.8158614,69.0983951 L11.4914158,65.4003272 C10.91222,64.7579928 10.2644443,64.077835 9.56577289,63.3787655 C8.38767317,62.2009312 7.05287173,60.9610532 5.59859475,59.6946325 C4.25254582,58.5244293 3.05786021,57.4225736 2.044362,56.4156082 C2.06250728,56.3887337 2.08453776,56.3625227 2.11136584,56.3356482 C2.15737437,56.2891984 2.20675383,56.2533657 2.26313062,56.2248322 C3.39846666,57.2108952 4.40510024,57.8824266 5.33731461,58.2752593 C6.35741864,58.707906 7.36962621,58.84626 8.34281594,58.6860082 C9.2882685,58.52642 10.2481205,58.094105 11.200441,57.400344 C12.074759,56.7663042 13.0483137,55.9149457 14.0926712,54.8711523 Z M34.0642948,22.1606038 C33.9581238,22.1606038 33.8509575,22.1701924 33.7434594,22.1893695 C33.2643628,22.2737422 32.8456179,22.4913596 32.5015244,22.8357185 C32.1715317,23.1651471 31.9492694,23.5759956 31.8411741,24.0566847 C31.7123754,24.638369 31.8395151,25.2070473 32.2086252,25.7043256 C33.0833081,26.83644 33.7494315,27.7746265 34.2013217,28.5085666 C34.5812148,29.1221021 34.77929,29.6655316 34.791566,30.1253515 C34.8015195,30.5470825 34.6197017,31.0360994 34.2504258,31.5765429 C33.7948859,32.2468467 33.0409061,33.1086896 32.0084929,34.1396098 L12.6890576,53.4597418 C11.7171619,54.4312063 10.8226382,55.2152126 10.0301382,55.789863 C9.32715362,56.3018062 8.65011456,56.6153424 8.01570979,56.7225087 C7.41564469,56.8217122 6.79145887,56.7291444 6.11246229,56.4418192 C5.36790512,56.1279512 4.48970524,55.5294123 3.50005901,54.6617964 C3.0487859,54.2284861 2.44250317,54.0841599 1.83077585,54.2659777 C1.40023263,54.3880743 1.01634823,54.6126923 0.700894349,54.9308734 C0.379478301,55.2520406 0.1604489,55.6379058 0.0526190004,56.0748657 C-0.0948697412,56.6813674 0.0702450417,57.2580086 0.516339328,57.7032631 C1.58712009,58.7742629 2.85788053,59.9497747 4.29206133,61.1962883 C5.71123553,62.4325166 7.01232769,63.6405433 8.15814479,64.7861945 C8.83246322,65.4610438 9.45625089,66.1156542 10.012255,66.732773 L13.3359043,70.4298456 C13.8939987,71.0496186 14.5357691,71.722809 15.2435314,72.4308367 C15.707399,72.8940076 16.3174508,73.0466284 16.9191748,72.8478896 C17.3411713,72.7075448 17.7041765,72.4587066 18.0013889,72.1076788 C18.2709636,71.7861798 18.4659865,71.4195581 18.5844666,71.0137859 C18.761374,70.4019757 18.6339689,69.8163764 18.2358277,69.3976646 C17.3573624,68.3960078 16.7250478,67.5081529 16.3563028,66.7583204 C16.0354342,66.1020511 15.9206036,65.5058347 16.0062703,64.9374881 C16.0951553,64.3359632 16.402454,63.6873249 16.9201038,63.0068353 C17.5100495,62.2314553 18.357128,61.2895197 19.4377495,60.2075711 L36.5443825,43.1007722 C37.5609696,42.085844 38.4607687,41.2802717 39.2188958,40.7072802 C39.9209514,40.1780842 40.5894968,39.8194254 41.2056202,39.641589 C41.76899,39.4776876 42.3081395,39.4707201 42.8542564,39.6193595 C43.493273,39.7945416 44.2202124,40.1067506 45.0135087,40.5466966 C45.5208069,40.8748313 46.0722324,41.2895617 46.652855,41.7799389 C47.2567024,42.2879006 47.8641995,42.8466254 48.4594205,43.4415147 C49.2168841,44.1989782 49.9063319,44.9527922 50.509184,45.6827177 C51.2115714,46.5304266 51.5181401,47.0500008 51.6518491,47.337326 C52.0569578,48.178731 52.3598768,48.944821 52.5576203,49.6259742 C52.7324706,50.2311487 52.7782569,50.8303512 52.6976333,51.4564282 C52.6140236,52.0947812 52.3817746,52.7994911 52.0075219,53.5483282 C51.6136939,54.3396338 51.0025472,55.277588 50.1903393,56.3379707 L50.1701004,56.3658406 C49.7915345,56.8966955 49.7457483,57.5400252 50.0446859,58.1299377 C50.2185409,58.480302 50.463066,58.8160677 50.7686393,59.1213092 C51.1163493,59.469351 51.5164811,59.7105582 51.958086,59.8382951 C52.6266314,60.0386928 53.2739426,59.8346455 53.6505178,59.3014681 C54.6803763,57.9962287 55.8857487,56.471348 57.0396945,55.0367126 C58.0798383,53.7410949 59.2304663,52.4939177 60.4600589,51.3283594 C60.7357717,51.0566281 60.8913785,50.6979692 60.9789696,50.1508569 C61.1312586,49.1793925 60.3074381,48.3552403 60.0363704,48.0845043 L42.204291,30.2527567 C40.9451695,28.9932703 39.7650128,27.7305656 38.6966673,26.4995794 C37.5855217,25.2215795 36.4849931,23.9697241 35.4242787,22.7769927 L35.383801,22.7342257 C35.0072258,22.3586458 34.5477045,22.1606038 34.0642948,22.1606038 L34.0642948,22.1606038 Z" id="path20" fill="#25529B"></path>
                        <path d="M66.4335036,75.3409169 C66.0725223,75.70223 65.8362918,75.9056138 65.7208309,75.9563768 C65.6066971,76.0044855 65.4846005,75.9643396 65.3535457,75.8332848 C62.8960193,72.9172325 61.4723328,70.3641523 61.0801638,68.1674084 C60.6883265,65.9723234 61.1989426,64.1704028 62.6090259,62.7603195 C63.591771,61.7762473 64.6670839,61.1929704 65.8303197,61.0124798 C66.9932237,60.8319891 68.1475013,61.3134082 69.2938161,62.4597229 C70.0463029,63.2122097 70.6929505,64.154809 71.2327636,65.283871 C71.7742356,66.4149237 72.090426,67.5874494 72.1909567,68.800121 C72.1892977,69.3243402 72.0582429,69.7181682 71.7958015,69.9802778 L66.4335036,75.3409169 Z M75.9178898,75.0725034 C77.0658635,73.9245297 77.9759478,73.2274508 78.6471475,72.9822622 C79.3210014,72.7354147 79.967649,72.9238682 80.59074,73.5469591 C80.9503941,73.9062815 81.2032138,74.242379 81.3515214,74.5542563 C81.4994972,74.8658017 81.6537769,75.3654689 81.8186737,76.0539213 C81.8511885,76.2171592 81.9573595,76.323662 82.138182,76.3714389 C82.3170137,76.4208748 82.5067943,76.4301647 82.7025471,76.3963227 C82.8986316,76.3638079 83.0884122,76.2911471 83.2689029,76.1773451 C83.4464075,76.0628795 83.5373164,75.9085998 83.5359893,75.7111882 C83.7888089,72.9016386 83.0482663,70.6299115 81.3113755,68.8926889 C80.3608134,67.9421268 79.2947905,67.3867199 78.1162926,67.2201642 C76.9361358,67.0565945 75.8392569,67.1554662 74.8210109,67.5164476 C74.5927433,67.6149875 74.4786095,67.5320414 74.4786095,67.2696 C74.3797377,65.6654229 74.0111254,64.048638 73.3707817,62.4272081 C72.7324286,60.8054464 71.56123,59.1425434 69.8568541,57.4381674 C67.9885766,55.56989 66.0476384,54.6256319 64.0343713,54.6090427 C62.0197769,54.5917899 60.0977505,55.4972293 58.2649739,57.3303375 C55.9076464,59.6853426 55.1996187,62.5921049 56.137573,66.0509563 C57.0755272,69.5081488 59.6455284,73.3369397 63.8445906,77.5363336 C63.9096204,77.6013634 63.8771055,77.7354042 63.7460507,77.9314887 C63.6149959,78.1269097 63.2540146,78.5204059 62.6647656,79.1113137 L61.3363013,80.4377874 C60.5157987,81.2589536 59.6793704,81.9623363 58.8280119,82.5545713 C57.9749945,83.1438202 57.1216452,83.5545692 56.2699549,83.7838321 C55.4169374,84.0140904 54.5579479,84.0048005 53.6876776,83.7596119 C52.8193981,83.5144233 51.976666,82.9819095 51.1574905,82.1630658 C49.9434917,80.9487352 49.1983042,79.7287643 48.9192736,78.501826 C48.6399112,77.2725651 48.8774688,76.28053 49.6319463,75.5277114 C49.9912687,75.1667301 50.4587528,74.9304997 51.0310807,74.8150387 C51.6034086,74.7005732 52.0708927,74.4633474 52.431874,74.1036932 C52.8900682,73.6458308 53.1030737,72.9729723 53.0705588,72.090426 C53.038044,71.2065526 52.6956426,70.436813 52.0416957,69.7828662 C51.1591494,68.9003199 50.292197,68.5084826 49.4405067,68.6086815 C48.5891482,68.7072214 47.8177497,69.1023765 47.129629,69.7918243 C46.3104536,70.6109998 45.7596916,71.6186287 45.4790021,72.8157065 C45.1996397,74.0111254 45.1903498,75.2639429 45.451464,76.5751545 C45.7119147,77.8850389 46.2102547,79.2191436 46.9461523,80.5784639 C47.6820499,81.9377842 48.6229902,83.1886111 49.769305,84.3349259 C52.3870832,86.952704 55.054629,88.4075782 57.772606,88.6995484 C60.4909149,88.992514 63.2599867,87.7290793 66.0818122,84.9089127 L75.9178898,75.0725034 L75.9178898,75.0725034 Z" id="path22" fill="#324EA9"></path>
                        <path d="M65.6889796,74.67768 C63.616323,72.124268 62.3963521,69.8774247 62.0602546,67.992558 C61.7261478,66.1222899 62.1362332,64.640873 63.3127404,63.464034 C64.1511593,62.6249515 65.0244156,62.1451914 65.9829405,61.9962203 C66.8213594,61.8661608 67.6740451,62.247381 68.5901016,63.1634374 C69.2583152,63.8323146 69.8452416,64.689977 70.3346235,65.7131998 C70.8110657,66.7075574 71.1000499,67.7579865 71.1949402,68.8366173 C71.1892998,69.0901005 71.1372097,69.2311089 71.0924188,69.2758997 L65.7294573,74.6375341 C65.7155223,74.6511373 65.702251,74.6647405 65.6889796,74.67768 L65.6889796,74.67768 Z M66.3124023,59.9796352 C66.1017193,59.9796352 65.8900409,59.9958927 65.6773671,60.0290711 C64.305439,60.2417448 63.0360323,60.9242252 61.9049796,62.0569368 C60.2573387,63.7045777 59.6498416,65.8193708 60.1004047,68.3422587 C60.5270793,70.7340918 61.996552,73.3946701 64.5924325,76.4749556 L64.6504947,76.5379946 C65.0688747,76.9553793 65.613001,77.0817891 66.1060325,76.8740922 C66.3346319,76.7738933 66.5788251,76.6036879 67.1375499,76.0446314 L72.4995161,70.6843241 C72.9527334,70.2317703 73.1836553,69.5983941 73.1863096,68.8031071 L73.1863096,68.7606387 L73.1829917,68.7178385 C73.0721758,67.3807478 72.7178301,66.0808169 72.1302401,64.8542103 C71.5439773,63.6269401 70.825996,62.5848056 69.9975306,61.7560084 C68.8167103,60.5751881 67.5798184,59.9796352 66.3124023,59.9796352 L66.3124023,59.9796352 Z M63.1442172,78.2433892 C63.1422172,78.2413892 63.1402172,78.2403892 63.1392172,78.2383892 C63.1402172,78.2393892 63.1422172,78.2423892 63.1442172,78.2433892 Z M82.4082823,75.4139187 C82.4072823,75.4129187 82.4042823,75.4129187 82.4022823,75.4119187 C82.4042823,75.4129187 82.4062823,75.4129187 82.4082823,75.4139187 Z M55.0310723,84.9450772 C55.5340573,84.9450772 56.034388,84.8783886 56.5294102,84.7450113 C57.484949,84.4875466 58.4484507,84.0263665 59.3933724,83.3737467 C60.2998071,82.7433565 61.1893208,81.9928604 62.0403476,81.1415019 L63.3678166,79.8156918 C64.2112123,78.9699736 64.4504288,78.6687135 64.573189,78.4852367 C65.1790271,77.578802 64.706898,76.9905484 64.5476416,76.8316238 C60.492242,72.7758924 57.9852798,69.0605717 57.0980885,65.7905056 C56.2530339,62.673392 56.8645124,60.1365692 58.9683567,58.0343838 C60.603058,56.3993508 62.2424042,55.6040638 63.9773044,55.6040638 C63.9938936,55.6040638 64.0098192,55.6040638 64.0260766,55.6043956 C65.7586543,55.6189941 67.4836009,56.4726751 69.1531395,58.141882 C70.7516763,59.7404188 71.8591724,61.3047818 72.4447717,62.7921708 C73.0396609,64.2991351 73.3893616,65.8173801 73.4835883,67.3064281 C73.4965279,67.924874 73.8249944,68.2337652 74.022406,68.3634929 C74.2171634,68.4915616 74.6235992,68.6697298 75.1770154,68.446439 C76.0439678,68.1438517 76.9610196,68.0645552 77.9795975,68.2062271 C78.9487394,68.343254 79.8090561,68.7977986 80.6073292,69.5967352 C82.0187396,71.0078138 82.6673779,72.793477 82.5821094,75.0419792 C82.4706298,74.660759 82.3624682,74.3624849 82.2506568,74.1272499 C82.0499273,73.705552 81.7373865,73.2855131 81.2944545,72.8429128 C80.090741,71.6395311 78.9049439,71.8276528 78.3050779,72.0472941 C77.4888885,72.3458999 76.4776099,73.1050224 75.2141753,74.3687888 L65.3780977,84.2051982 C62.7934979,86.7884708 60.2706101,87.9656415 57.8794406,87.7098358 C55.4056568,87.4444084 52.9139566,86.0721485 50.4730195,83.6312113 C49.3987019,82.5568938 48.5065339,81.3704331 47.8213993,80.1046759 C47.1362647,78.8392506 46.6674535,77.5864331 46.4275734,76.3807289 C46.195988,75.216166 46.2029555,74.0927443 46.4481441,73.0416516 C46.6876923,72.0217467 47.1409097,71.1883045 47.8333435,70.4955388 C48.3645302,69.9636886 48.9275682,69.6700595 49.5549723,69.5973987 C50.0858272,69.532369 50.6853614,69.8336292 51.3376494,70.4865807 C51.8114374,70.9600369 52.0526446,71.4965321 52.0758695,72.1269223 C52.0977672,72.7191573 51.9806474,73.1474908 51.7281595,73.3996469 C51.5081865,73.6192881 51.2158846,73.7629507 50.8359915,73.8392611 C50.0652566,73.9942044 49.4232539,74.3263205 48.926241,74.8259876 C48.2348026,75.5154354 47.5012275,76.754318 47.9484727,78.7224625 C48.2693081,80.1308869 49.1120403,81.5250446 50.453776,82.8667803 C51.3913985,83.8044028 52.3887421,84.4271619 53.4172734,84.7174732 C53.9554276,84.8694304 54.4945771,84.9450772 55.0310723,84.9450772 L55.0310723,84.9450772 Z M63.9782997,53.613358 C61.7191804,53.613358 59.5605917,54.6266272 57.5609276,56.626623 C54.9451402,59.240088 54.1428857,62.4988735 55.1767256,66.311407 C56.1166706,69.7752351 58.6216421,73.6103299 62.6262787,77.718815 C62.4812889,77.8764125 62.2699423,78.0977127 61.959724,78.4085946 L60.6329185,79.7334093 C59.8645061,80.5024853 59.066233,81.1763393 58.2596654,81.7373865 C57.5048561,82.2589515 56.7470607,82.6245778 56.0111631,82.8229848 C55.3313371,83.0057979 54.6594739,82.999494 53.9577501,82.8014188 C53.261003,82.6050025 52.5556296,82.1531123 51.861205,81.4590195 C50.7888781,80.3866926 50.1256413,79.3173518 49.8897427,78.2808576 C49.6233199,77.1086637 50.0161525,76.5506025 50.3349972,76.2327531 C50.5549702,76.011453 50.8462768,75.8677903 51.2278288,75.7904846 C51.9912645,75.6381956 52.6332671,75.3077384 53.1342614,74.8090666 C53.7955075,74.1481523 54.1080484,73.2214787 54.0652482,72.0539297 C54.0231116,70.9132553 53.5791842,69.9125938 52.7450784,69.0788199 C51.6405685,67.9739781 50.4886134,67.4832691 49.3243822,67.620296 C48.2497328,67.7447152 47.2736234,68.238742 46.4252509,69.0887734 C45.4766796,70.0373447 44.8320227,71.2145154 44.5098601,72.5881025 C44.19931,73.9182258 44.1876976,75.3243277 44.4750228,76.7692483 C44.7537216,78.1703734 45.2908804,79.6116445 46.0709053,81.0522519 C46.8476124,82.4872191 47.8549095,83.8282912 49.0652587,85.0389722 C51.8359894,87.8090393 54.7298121,89.3737341 57.666435,89.6889292 C60.6869994,90.0164003 63.7536817,88.6428133 66.7855267,85.612959 L76.6219361,75.7765497 C77.9852378,74.4129162 78.6899477,74.0260557 78.9888853,73.9168986 C79.1332115,73.8644767 79.4019568,73.7659368 79.8870254,74.2510054 C80.2304222,74.5937386 80.3840383,74.8376001 80.4523859,74.9815945 C80.530687,75.1464913 80.6627372,75.5044865 80.847541,76.272899 C80.9610112,76.7957911 81.3462128,77.1912779 81.8827081,77.3336134 C82.1979031,77.4205409 82.5340006,77.4354712 82.8730842,77.3770772 C83.1942514,77.3239917 83.5091147,77.2025586 83.8004213,77.0187501 C84.2543023,76.7264481 84.5154165,76.272899 84.5306786,75.7629465 C84.7997557,72.6756935 83.9533739,70.1275901 82.01509,68.1889743 C80.9158886,67.0894412 79.6511268,66.4318447 78.255642,66.2347648 C77.2579666,66.0967425 76.2984464,66.1262713 75.3916799,66.3216923 C75.2221381,64.9046415 74.8551846,63.4753147 74.2967917,62.0619135 C73.6106617,60.3197142 72.353531,58.5267518 70.5605686,56.7344529 C68.5088144,54.682367 66.3160519,53.6326014 64.0426659,53.6136897 C64.0214317,53.6136897 63.9998657,53.613358 63.9782997,53.613358 L63.9782997,53.613358 Z" id="path24" fill="#25529B"></path>
                        <path d="M111.769838,99.8405337 C111.213436,99.3468386 110.648076,98.8458443 110.079066,98.3365554 C109.506738,97.8256076 108.926779,97.2765045 108.335871,96.6855967 C107.680265,96.0296591 107.056842,95.3624409 106.464607,94.6736567 C105.870713,93.9891856 105.297058,93.3670901 104.74132,92.8116831 C104.511061,92.5817566 104.264546,92.5001377 104.002104,92.5648356 C103.741654,92.6315242 103.527321,92.7144703 103.363419,92.8116831 C101.722082,93.9288009 100.000785,94.7818183 98.197206,95.3727262 C96.3939583,95.965293 94.6398147,96.3279332 92.9337797,96.4599834 C91.2270813,96.5917017 89.6617229,96.4699369 88.2360457,96.0933617 C86.8090414,95.7181137 85.6550956,95.0877235 84.7712222,94.2031865 L88.6093031,90.3647739 C89.5611923,89.4115575 90.3651056,88.6404908 91.0220386,88.049583 C91.6776444,87.460334 92.2917771,87.0578797 92.8674229,86.8448741 C93.439419,86.6302097 94.0396168,86.6056577 94.6630396,86.7695591 C95.2844716,86.9324652 96.0389491,87.3243025 96.9248132,87.9477252 C97.1530808,88.1109631 97.3982694,88.1610625 97.660379,88.0953692 C97.9244793,88.0293441 98.1368213,87.9122243 98.3007227,87.7486546 C98.4639606,87.5854167 98.5721223,87.3800422 98.6198992,87.1351854 C98.6706622,86.889665 98.5966743,86.6673695 98.4009216,86.4716168 C97.4832062,85.5532378 96.5880521,84.7758672 95.7194408,84.1388413 C94.8511613,83.5031426 93.925483,82.6935889 92.9460558,81.7138298 C91.9002716,80.6680457 90.9281436,79.5797932 90.0283446,78.4477451 C89.1292091,77.3170242 88.1557539,76.2264492 87.1086427,75.1786743 C86.9447412,75.0154365 86.7380396,74.9570424 86.492851,75.0061465 C86.2473306,75.0555824 86.0426197,75.1617533 85.87905,75.3256548 C85.6826337,75.5214075 85.5612007,75.7417123 85.5101059,75.9885598 C85.4623289,76.2327531 85.5193958,76.4732967 85.6826337,76.7032232 C86.5018092,77.7181514 87.0684968,78.5761456 87.3797104,79.2811873 C87.6915877,79.9842382 87.7901276,80.624582 87.6743349,81.1985688 C87.558874,81.7708967 87.2655766,82.3292897 86.7904615,82.8691028 C86.3153464,83.4089159 85.7015454,84.0558953 84.948395,84.810041 L65.6402073,104.11657 C64.2317829,105.526653 63.0775053,106.614242 62.1753838,107.384313 C61.2759165,108.153721 60.44911,108.619878 59.6962914,108.783448 C58.9434728,108.947018 58.1873364,108.815963 57.4345178,108.390283 C56.6816992,107.964272 55.731469,107.276152 54.5851542,106.325922 C54.4202574,106.162352 54.2165418,106.120879 53.9710214,106.201171 C53.7258328,106.28279 53.5144862,106.396923 53.3356545,106.541913 C53.156491,106.689889 53.0270951,106.885973 52.9451444,107.129835 C52.8635254,107.375023 52.9222512,107.59566 53.118004,107.791413 C54.2334628,109.036599 55.4351856,110.437393 56.728149,111.992134 C58.0207807,113.547207 59.0931076,115.109911 59.9398211,116.678919 C60.2669604,117.2685 60.5940998,117.544213 60.9209073,117.512029 C61.2480466,117.479515 61.527409,117.380975 61.7573356,117.217405 L82.6653872,96.3090215 C82.8953138,97.3246133 83.0416306,98.3564625 83.1066604,99.4035737 C83.1730172,100.451349 83.1730172,101.467936 83.1079875,102.450681 C83.0416306,103.433094 82.9600117,104.366735 82.86114,105.252267 C82.7639272,106.1378 82.6823082,106.907539 82.6176103,107.563145 C82.4201986,109.070441 82.0930593,109.969909 81.6332063,110.26586 C81.1753439,110.562144 80.3883515,110.216756 79.2745516,109.232352 C79.1109819,109.068782 78.8983082,109.019347 78.6375257,109.084376 C78.3750844,109.149074 78.1637378,109.263208 78.001827,109.426778 C77.8060743,109.622862 77.6839776,109.84184 77.6345418,110.087028 C77.5867648,110.330558 77.6454907,110.535933 77.8087285,110.699502 C78.3332795,111.224053 78.7994365,111.657364 79.2111808,112.001756 C79.6202709,112.345484 80.0058042,112.648071 80.3667856,112.908522 C80.7277669,113.169305 81.0734861,113.431746 81.4002937,113.693856 C81.7290919,113.955965 82.0900732,114.283105 82.4832376,114.676601 C83.2360562,115.429419 83.9474018,116.257885 84.6186014,117.160006 C85.2878104,118.062791 86.0004831,118.891257 86.7549606,119.645734 C86.8846883,119.77513 87.07281,119.816603 87.3166714,119.769158 C87.56186,119.71939 87.7821648,119.599285 87.9782493,119.403532 C88.141819,119.241289 88.2546257,119.043878 88.3193236,118.817269 C88.3840215,118.587342 88.3515067,118.375996 88.2204519,118.178584 C87.629544,117.457949 87.1872756,116.817937 86.8923193,116.26253 C86.5976948,115.705796 86.3863482,115.131477 86.2536345,114.540901 C86.1225797,113.951652 86.0502507,113.337519 86.0329979,112.697176 C86.0160769,112.058491 85.992852,111.298041 85.9586783,110.412509 C85.926827,109.855775 85.8943121,109.102624 85.8601383,108.152726 C85.8296142,107.200505 85.7785194,106.185577 85.7138214,105.104292 C85.6487917,104.022675 85.5748038,102.981536 85.4931849,101.981538 C85.4112342,100.983531 85.3216524,100.139803 85.2231125,99.4516825 C85.1892705,99.2217559 85.2400335,99.0751073 85.3697611,99.0090822 C85.5008159,98.9443843 85.6166086,98.9599781 85.7151486,99.0581863 C87.0910581,100.303373 88.4012743,101.171652 89.6461291,101.662361 C90.8923109,102.154397 92.0973515,102.407549 93.2602555,102.423143 C94.4238231,102.438405 95.5701379,102.293415 96.7008588,101.980211 C97.8319115,101.669992 98.9868526,101.333895 100.165682,100.972582 C101.345839,100.611932 102.559838,100.316976 103.805024,100.087381 C105.049879,99.8574547 106.378012,99.8236127 107.786768,99.9881777 C108.180264,100.05188 108.598312,100.209146 109.039254,100.454335 C109.482186,100.699855 109.901561,100.986517 110.295057,101.315315 C110.491142,101.511068 110.720405,101.575766 110.983178,101.511068 C111.243629,101.444711 111.473555,101.315315 111.669971,101.117903 C111.834868,100.954334 111.941039,100.749291 111.990475,100.50377 C112.038584,100.256923 111.965923,100.036286 111.769838,99.8405337" id="path26" fill="#324EA9"></path>
                        <path d="M97.6444533,86.9441288 C97.6444533,86.9401288 97.6454533,86.9371288 97.6464533,86.9331288 C97.6454533,86.9371288 97.6444533,86.9401288 97.6444533,86.9441288 Z M86.5028045,76.1348767 C86.514417,76.1106565 86.5339923,76.0811277 86.5668389,76.0456267 C87.5190599,77.0094601 88.4208496,78.0253837 89.249315,79.0671864 C90.1673622,80.2224594 91.1743276,81.3498625 92.2423413,82.4175444 C93.2536198,83.4294865 94.2257478,84.2785225 95.131519,84.9420911 C95.922161,85.5217183 96.7456497,86.2333957 97.5807508,87.0592068 C97.5538762,87.0807728 97.5167164,87.0993527 97.4709301,87.1146148 C96.4838718,86.4245034 95.6517568,85.9994877 94.9148638,85.806721 C94.0913752,85.5903977 93.2844758,85.6255668 92.5177222,85.9125602 C91.8236295,86.1700249 91.1156017,86.6272236 90.356811,87.3090404 C89.6866067,87.9118925 88.8617909,88.703198 87.904925,89.6613911 L83.3637932,94.2028547 L84.0671759,94.906901 C85.0744731,95.91453 86.3919886,96.637488 87.9828943,97.055868 C89.5074432,97.4583223 91.1985478,97.5916996 93.0100901,97.452682 C94.7871269,97.3149915 96.6364926,96.9331078 98.5080879,96.3183115 C100.380015,95.7048423 102.191225,94.8093564 103.890956,93.6567378 C103.926126,93.637826 103.990492,93.6079655 104.094008,93.5737917 C104.611592,94.0936977 105.15041,94.6776381 105.712784,95.3259446 C106.306014,96.0153924 106.934746,96.6919006 107.631825,97.3893112 C108.229036,97.9868547 108.829566,98.5552013 109.416161,99.0787569 C109.928436,99.5376146 110.43872,99.9901684 110.942037,100.43675 C110.916489,100.459643 110.891274,100.478555 110.864731,100.494481 C110.446019,100.151747 109.994792,99.8455104 109.521668,99.5834008 C108.977542,99.2811453 108.447019,99.0863879 107.945693,99.0054326 L107.902561,98.9997922 C106.4019,98.8242783 104.963283,98.8614382 103.624202,99.1086175 C102.342187,99.3451797 101.080743,99.6517484 99.8747075,100.021024 C98.7021817,100.380015 97.5455816,100.716112 96.437422,101.020359 C95.4092225,101.305361 94.3438631,101.44272 93.2735269,101.42779 C92.2353738,101.413855 91.1378313,101.181274 90.0114236,100.736351 C88.8886655,100.294083 87.6723442,99.4848609 86.3956382,98.3315786 C85.994511,97.9493631 85.4354544,97.8667488 84.928488,98.1165824 C84.7221181,98.2220898 84.0950458,98.623217 84.2383766,99.5963404 C84.3319398,100.24896 84.4205262,101.079748 84.5011498,102.063157 C84.5834323,103.069459 84.6570884,104.11292 84.7201274,105.163681 C84.7898021,106.322272 84.8372473,107.310326 84.865449,108.184909 C84.9002863,109.165995 84.933133,109.912178 84.9649843,110.469576 C84.9981627,111.331883 85.0213876,112.088351 85.0379768,112.723718 C85.0568885,113.428096 85.1388392,114.112236 85.2818383,114.756561 C85.4351226,115.438709 85.680643,116.100951 86.0124273,116.728023 C86.3166735,117.301015 86.7552924,117.94534 87.3183304,118.646068 C87.3040636,118.66863 87.2897969,118.684555 87.2778527,118.696168 C87.2669038,118.707448 87.2562867,118.71707 87.2463332,118.725696 C86.6049941,118.064782 85.9908613,117.339502 85.4178698,116.567108 C84.7174732,115.625172 83.9669771,114.752911 83.1869522,113.972886 C82.7715582,113.55716 82.3793892,113.201488 82.0210621,112.915821 C81.6872871,112.648071 81.325974,112.373686 80.9493988,112.101623 C80.6079927,111.855439 80.2390486,111.565459 79.8521881,111.239979 C79.5097867,110.953981 79.1162905,110.591672 78.6783352,110.160021 C78.686298,110.150731 78.695588,110.140777 78.7058733,110.13016 C78.7184811,110.117553 78.7337432,110.106604 78.7506642,110.096982 C79.4421027,110.700166 80.9404406,111.899566 82.1736829,111.101625 C82.916548,110.623192 83.3581529,109.571436 83.6046686,107.692541 C83.6723526,107.008402 83.7539715,106.242312 83.8505208,105.360761 C83.9493925,104.475892 84.0336657,103.518694 84.1010179,102.517701 C84.1690337,101.491824 84.1683701,100.423479 84.1000226,99.3408665 C84.0320068,98.2416651 83.8757364,97.1474404 83.6358563,96.0890485 L83.2373834,94.3292645 L61.1292679,116.437712 C61.0911127,116.458282 61.0479807,116.475535 61.0002038,116.489138 C60.9544175,116.43174 60.8897196,116.339504 60.8100914,116.196173 C59.9441343,114.591332 58.826353,112.959617 57.4935754,111.356103 C56.2102337,109.812643 55.0662414,108.47887 54.000882,107.285442 C54.0324015,107.262549 54.0675707,107.240983 54.1057259,107.220744 C55.2357832,108.149076 56.1654428,108.815963 56.9444724,109.256572 C57.9139461,109.80468 58.9106262,109.972563 59.907638,109.756239 C60.833648,109.554846 61.7871961,109.026314 62.8223632,108.14045 C63.7447236,107.353789 64.9298571,106.23634 66.3445854,104.820284 L85.6524413,85.5137555 C86.4178677,84.7473338 87.0519076,84.0787884 87.5376398,83.5266993 C88.124898,82.8594811 88.4994825,82.1424952 88.6501126,81.3956487 C88.8070465,80.6172827 88.6859453,79.7705692 88.289463,78.8774058 C87.9483888,78.1050119 87.363453,77.2068718 86.5028045,76.1348767 L86.5028045,76.1348767 Z M86.6590749,73.9935408 C86.5406279,73.993209 86.4195267,74.0058168 86.2967665,74.0303689 C85.8561569,74.1186235 85.4782546,74.3180259 85.1743402,74.6226038 C84.8415605,74.9543882 84.6262325,75.3472208 84.5353236,75.7878303 C84.4321387,76.3130449 84.5489267,76.8256516 84.8710893,77.2795326 L84.9082491,77.3283049 C85.6716848,78.2745537 86.1968994,79.0668546 86.4692943,79.6833099 C86.6955712,80.1932624 86.7725452,80.6361944 86.6985573,81.0018207 C86.6179337,81.4022844 86.3972971,81.8093837 86.0432833,82.2115063 C85.5847573,82.7324077 84.9795828,83.3700971 84.244017,84.10699 L64.9364928,103.412855 C63.5585926,104.792414 62.4126096,105.873368 61.529068,106.62685 C60.7603237,107.28511 60.0728666,107.682919 59.4846131,107.810656 C58.9730017,107.921804 58.4623856,107.828241 57.9245632,107.523995 C57.2298069,107.130498 56.3290125,106.477215 55.2470639,105.581729 C54.8193939,105.18392 54.2444117,105.064478 53.6621302,105.254922 C53.3008171,105.375028 52.9819724,105.547224 52.7089139,105.768524 C52.3787885,106.041582 52.1432217,106.390951 52.0015498,106.813313 C51.8031428,107.409197 51.9454782,108.011386 52.3917281,108.472234 C53.476331,109.683247 54.6445436,111.042899 55.9627226,112.628496 C57.211227,114.130816 58.2546886,115.65271 59.0639106,117.151712 C59.604719,118.126494 60.2606565,118.578052 61.0184519,118.502406 C61.5184509,118.45297 61.9607193,118.293713 62.3333131,118.029281 L62.4613819,117.921119 L82.0127675,98.3690703 C82.0568948,98.7327059 82.090405,99.0983322 82.1132981,99.4652856 C82.1763372,100.463956 82.1770007,101.445706 82.1146253,102.384988 C82.0492638,103.35612 81.9676448,104.284121 81.872091,105.142115 C81.7742146,106.033288 81.6919321,106.806677 81.6272341,107.465601 C81.4706319,108.657702 81.2602807,109.15206 81.1504601,109.339518 C80.9779322,109.273493 80.606002,109.078072 79.9510598,108.501763 C79.5442923,108.113244 78.9799271,107.972899 78.3973139,108.118552 C77.9580315,108.226714 77.5864331,108.431425 77.2944629,108.726381 C76.9626786,109.058829 76.7476823,109.45133 76.6590959,109.889949 C76.5459575,110.467585 76.7048822,111.002421 77.1046822,111.402885 C77.6594256,111.957628 78.1395175,112.403215 78.5731596,112.765523 C78.9951892,113.120532 79.4036157,113.441036 79.7841723,113.715753 C80.1335412,113.967909 80.467648,114.221724 80.7775345,114.470231 C81.0801218,114.711438 81.4162193,115.017011 81.7795231,115.380315 C82.4912005,116.092324 83.1776622,116.890597 83.8199966,117.754232 C84.5124305,118.688205 85.2635901,119.561793 86.0512461,120.349449 C86.265247,120.562786 86.7383714,120.895898 87.5074474,120.745931 C87.9550244,120.655686 88.3481888,120.441353 88.6819639,120.107578 C88.9626534,119.829543 89.1640465,119.485814 89.2765213,119.089332 C89.4221746,118.575066 89.3435418,118.070091 89.0495809,117.627822 L88.9901915,117.547199 C88.4467288,116.884625 88.0366434,116.295376 87.7715477,115.795709 C87.5230413,115.325903 87.338901,114.829885 87.2244354,114.322587 C87.1099698,113.805003 87.0436129,113.248269 87.0280191,112.670965 C87.0110981,112.028962 86.9878732,111.264199 86.9533676,110.374022 C86.9211845,109.812311 86.8893332,109.080395 86.8551595,108.117225 C86.8262942,107.227711 86.7778537,106.221741 86.7075154,105.044571 C86.6434811,103.979211 86.5684978,102.921483 86.48522,101.900582 C86.4563547,101.551877 86.4271577,101.224406 86.3972971,100.91651 C87.3853508,101.661698 88.3508431,102.22175 89.2811663,102.588371 C90.6318602,103.12188 91.9666285,103.401243 93.2469841,103.418164 C94.5074327,103.436744 95.7589231,103.273838 96.966618,102.939399 C98.0913668,102.63084 99.2665468,102.289102 100.457321,101.924471 C101.590696,101.577756 102.77782,101.289104 103.985515,101.066145 C105.12254,100.855794 106.354123,100.824938 107.647418,100.973909 C107.9155,101.020359 108.221073,101.138142 108.555844,101.324273 C108.935073,101.534624 109.296055,101.780477 109.629498,102.056521 C110.06878,102.47291 110.631486,102.62354 111.221067,102.477887 C111.668312,102.363753 112.053846,102.143117 112.375345,101.819959 C112.676605,101.521685 112.876671,101.143782 112.966253,100.701182 C113.079391,100.119232 112.903545,99.5658163 112.472889,99.1361556 L112.315955,98.9944837 C111.797377,98.5342989 111.27183,98.0681419 110.742634,97.5946857 C110.183246,97.0950185 109.610254,96.552883 109.039585,95.9818822 C108.378339,95.3199725 107.782786,94.6796288 107.219085,94.0246865 C106.587036,93.2960882 106.007409,92.6700112 105.445034,92.1076368 C104.966601,91.6298674 104.368394,91.4483814 103.763551,91.5986797 C103.403234,91.6909157 103.099983,91.8106899 102.855126,91.9560114 L102.803699,91.988858 C101.248626,93.0469182 99.5946815,93.8674208 97.8873195,94.4268091 C96.166686,94.9925014 94.4742543,95.342202 92.8568058,95.4676165 C91.2692179,95.5893813 89.800077,95.4769065 88.4901925,95.1308554 C87.6272215,94.9042467 86.8757301,94.5711353 86.2446763,94.1371614 L89.3130176,91.0684884 C90.2453315,90.1348473 91.0442681,89.3680938 91.6875979,88.789462 C92.2479816,88.2861452 92.7615837,87.9454027 93.2131421,87.7781834 C93.5943623,87.6355161 93.9845406,87.6209176 94.4098881,87.7323972 C94.7585934,87.8236379 95.3773712,88.0761257 96.3521535,88.7615921 C96.8146608,89.0933764 97.3534785,89.198552 97.9012544,89.0611933 C98.3385461,88.9517045 98.7091492,88.7473254 99.0037736,88.4533645 C99.3073563,88.14945 99.512399,87.7599353 99.597004,87.324966 C99.7137921,86.7602691 99.5399371,86.2028715 99.1046361,85.7679023 C98.158719,84.8209899 97.2174469,84.0028098 96.3083579,83.3362551 C95.4838739,82.7324077 94.5897152,81.9500603 93.6501021,81.0101153 C92.6351739,79.9955189 91.6793033,78.9251827 90.8077059,77.8286356 C89.8856773,76.6693812 88.8780484,75.5413146 87.8123572,74.4749598 C87.4948396,74.1587694 87.0943759,73.9935408 86.6590749,73.9935408 L86.6590749,73.9935408 Z" id="path28" fill="#25529B"></path>
                        <path d="M109.981189,128.018643 C110.439383,128.476837 110.536596,128.900858 110.273823,129.296013 C110.010386,129.689177 109.650732,130.115188 109.191211,130.573382 C108.50309,131.26283 107.733019,131.818237 106.88166,132.245575 C106.02997,132.672913 105.163018,132.935355 104.278481,133.035554 C103.395271,133.135752 102.527655,133.053802 101.677955,132.793019 C100.827924,132.533896 100.04259,132.043519 99.3249409,131.326201 C98.4430582,130.443655 97.8385472,129.528925 97.512735,128.580022 C97.1872546,127.629792 97.055868,126.680889 97.1225566,125.733976 C97.1899088,124.785073 97.4523502,123.851432 97.9138622,122.933717 C98.3717245,122.017329 98.93244,121.133455 99.5863869,120.282097 C99.9168441,119.822244 100.20981,119.478183 100.473246,119.248257 C100.734029,119.018662 100.928454,118.965908 101.054532,119.092318 L109.981189,128.018643 Z M102.694874,117.312295 C102.540594,117.158016 102.511397,117.014685 102.611264,116.883298 C102.710468,116.755229 102.841191,116.607254 103.004429,116.443684 C104.709468,114.740635 106.338529,113.48649 107.895261,112.684236 C109.451661,111.881982 110.934406,111.446681 112.343825,111.381983 C113.752581,111.315957 115.086686,111.585698 116.349125,112.191868 C117.611565,112.798038 118.781768,113.642097 119.863385,114.723714 C120.977185,115.837514 121.968888,117.009708 122.837831,118.237973 C123.704784,119.465907 124.205778,120.769488 124.335174,122.145397 C124.369679,122.440022 124.491444,122.662317 124.704118,122.810293 C124.915133,122.956942 125.147382,123.02164 125.392239,123.004719 C125.637759,122.989457 125.860054,122.91381 126.057134,122.784414 C126.252887,122.653359 126.367353,122.472537 126.399867,122.24261 C126.726343,119.819257 126.49708,117.691857 125.709756,115.857421 C124.921768,114.021659 123.562116,112.139778 121.629804,110.206471 C119.662987,108.239653 117.670954,106.83886 115.65636,106.004423 C113.639775,105.166667 111.634802,104.814976 109.635138,104.944372 C107.635806,105.074099 105.701503,105.630833 103.833226,106.61192 C101.96329,107.594665 100.195543,108.92147 98.52335,110.592336 C96.9171821,112.198172 95.6643646,113.990803 94.7625748,115.973214 C93.8611169,117.955293 93.3770436,119.962588 93.3103549,121.991118 C93.2426709,124.021638 93.5694785,126.020638 94.2887869,127.983142 C95.0094224,129.948632 96.1872567,131.748894 97.8229533,133.383927 C99.1975357,134.758509 100.687911,135.773769 102.290429,136.427716 C103.894938,137.080336 105.508405,137.382592 107.129835,137.333487 C108.749938,137.282393 110.363405,136.896528 111.969241,136.174897 C113.57574,135.452934 115.050522,134.420753 116.393916,133.077027 C117.082037,132.388906 117.180577,131.79833 116.689868,131.307621 L102.694874,117.312295 L102.694874,117.312295 Z" id="path30" fill="#324EA9"></path>
                        <path d="M103.555523,132.08101 C103.020354,132.08101 102.489831,132.00105 101.970257,131.841462 C101.280146,131.631442 100.627858,131.221357 100.028987,130.622486 C99.2582522,129.851088 98.7283927,129.055137 98.454007,128.256864 C98.172654,127.435034 98.0585202,126.609223 98.1152553,125.803983 C98.1733175,124.988789 98.4045712,124.173263 98.8030441,123.380962 C99.2260691,122.534912 99.7546015,121.696825 100.375702,120.888267 C100.55022,120.645732 100.705495,120.446993 100.843518,120.288732 L109.277475,128.722358 C109.324256,128.769471 109.357435,128.807958 109.38066,128.83815 C109.158364,129.153014 108.858099,129.499728 108.488492,129.868341 C107.881658,130.476501 107.191215,130.9765 106.435079,131.356061 C105.694868,131.72766 104.931432,131.959909 104.166337,132.046505 C103.962622,132.069398 103.758906,132.08101 103.555523,132.08101 Z M100.900253,118.030608 C100.573777,118.030608 100.201515,118.160668 99.8149863,118.501742 C99.5007865,118.775796 99.1600441,119.169292 98.7781603,119.701142 C98.0986661,120.585016 97.5017861,121.531265 97.0233531,122.488794 C96.5074285,123.515335 96.2061684,124.584012 96.129858,125.663306 C96.0538794,126.736629 96.2025187,127.825876 96.5711311,128.902516 C96.9447202,129.990437 97.6344998,131.042525 98.6208946,132.029915 C99.4536732,132.862362 100.384328,133.439335 101.387976,133.74524 C102.365744,134.045505 103.377023,134.139732 104.390955,134.024603 C105.389294,133.911464 106.377348,133.612195 107.328242,133.135089 C108.275818,132.659642 109.139784,132.034229 109.895921,131.276433 C110.393265,130.780416 110.799038,130.29966 111.100961,129.850424 C111.301027,129.548832 111.855439,128.485795 110.685236,127.314597 L110.684904,127.314597 L101.758247,118.388604 C101.5542,118.184224 101.254267,118.030608 100.900253,118.030608 Z M106.793737,136.343111 C105.420482,136.343111 104.03296,136.06209 102.665345,135.505688 C101.19355,134.904826 99.8007196,133.954264 98.5266678,132.680213 C97.0017871,131.155332 95.8903097,129.459914 95.2230915,127.640409 C94.5512282,125.806969 94.2420053,123.917125 94.3050443,122.024296 C94.367088,120.135116 94.8259457,118.237973 95.668346,116.38529 C96.5170503,114.520994 97.714128,112.808655 99.2273963,111.29605 C100.822947,109.701495 102.528318,108.422135 104.296397,107.493139 C106.03362,106.580732 107.851798,106.057508 109.699504,105.937734 C111.537258,105.818623 113.413498,106.150408 115.274476,106.923465 C117.160338,107.704817 119.061794,109.045889 120.92609,110.910185 C122.759862,112.744953 124.061783,114.541565 124.795027,116.249922 C125.493765,117.877988 125.70677,119.809304 125.428735,121.993108 C125.398874,122.003062 125.366359,122.009034 125.329863,122.011356 C125.327209,122.011688 125.324555,122.011688 125.322232,122.01202 C125.176579,120.497093 124.613209,119.026625 123.650703,117.663987 C122.750904,116.392257 121.713746,115.166314 120.567099,114.02 C119.409836,112.862404 118.135452,111.945684 116.780113,111.294723 C115.37368,110.61921 113.862734,110.313305 112.297044,110.387957 C110.753915,110.458627 109.118882,110.93341 107.43939,111.799367 C105.803029,112.642763 104.074101,113.968241 102.301046,115.739306 C102.114252,115.926764 101.953668,116.106591 101.82394,116.274474 C101.482866,116.722051 101.40556,117.430079 101.990828,118.015678 L115.980845,132.006027 C115.948662,132.069729 115.871688,132.191826 115.690202,132.373312 C114.439707,133.624139 113.050858,134.597594 111.561146,135.266803 C110.082715,135.931367 108.581391,136.292017 107.098647,136.338466 C106.997453,136.341452 106.895595,136.343111 106.793737,136.343111 L106.793737,136.343111 Z M110.432416,103.92314 C110.144759,103.92314 109.857765,103.93243 109.570772,103.951009 C107.442376,104.089032 105.356448,104.687902 103.370719,105.7307 C101.425136,106.75326 99.5575217,108.152062 97.8199672,109.88829 C96.137489,111.570104 94.8040479,113.478528 93.8564719,115.560806 C92.9045827,117.654033 92.3860039,119.806318 92.3153338,121.958271 C92.2440002,124.107901 92.593369,126.250233 93.3541505,128.325544 C94.1215676,130.418439 95.3879883,132.357386 97.1192388,134.087973 C98.5814122,135.550147 100.194879,136.647358 101.914186,137.349413 C103.642782,138.052464 105.410197,138.381594 107.160027,138.328177 C108.905213,138.273432 110.660683,137.854389 112.377335,137.082659 C114.088015,136.313914 115.676267,135.2031 117.097963,133.780741 C118.377986,132.500717 118.090329,131.300322 117.393914,130.603906 L103.823272,117.033265 C105.408538,115.465916 106.93176,114.300357 108.351133,113.568773 C109.774819,112.835198 111.133144,112.434071 112.38928,112.376672 C113.642761,112.317946 114.796707,112.550859 115.918138,113.089013 C117.070756,113.642761 118.161331,114.429421 119.15967,115.427429 C120.226689,116.494447 121.190854,117.633462 122.02496,118.812956 C122.787732,119.892914 123.231991,121.045864 123.344466,122.23896 C123.432389,122.99576 123.822567,123.409495 124.135108,123.627146 C124.531258,123.902195 124.986135,124.029932 125.460586,123.997749 C125.870671,123.972202 126.257532,123.843469 126.603583,123.616197 C127.045188,123.320246 127.31327,122.89523 127.385599,122.381296 C127.735631,119.782098 127.479494,117.456953 126.624485,115.46492 C125.791043,113.523318 124.347118,111.517351 122.333851,109.502756 C120.283424,107.452661 118.165313,105.966267 116.03758,105.084716 C114.179256,104.312986 112.297375,103.92314 110.432416,103.92314 L110.432416,103.92314 Z" id="path32" fill="#25529B"></path>
                        <path d="M133.429713,134.868994 C134.249884,134.048491 134.96123,133.385254 135.569059,132.876297 C136.173901,132.368335 136.804623,132.081674 137.460561,132.015317 C138.116167,131.950619 138.853723,132.129451 139.672899,132.55513 C140.491742,132.982468 141.540844,133.735287 142.818214,134.814913 C143.047809,134.980141 143.28603,135.038867 143.529228,134.989431 C143.773089,134.941654 143.995053,134.818231 144.189478,134.625464 C144.353048,134.461894 144.458224,134.256852 144.507328,134.01299 C144.555437,133.769129 144.481117,133.547165 144.283705,133.349422 C142.875281,131.940997 141.5717,130.754868 140.376281,129.790703 C139.178872,128.826538 138.089956,127.853083 137.110197,126.873324 C136.064413,125.82754 135.083326,124.730661 134.168265,123.583019 C133.253536,122.436704 132.272118,121.338166 131.223348,120.289396 C131.059446,120.125494 130.854735,120.068428 130.609215,120.114877 C130.365685,120.164313 130.16197,120.270484 129.9984,120.434054 C129.803974,120.627152 129.680551,120.849116 129.632774,121.092977 C129.584997,121.338166 129.642064,121.574065 129.807292,121.803991 C130.626136,122.82091 131.189506,123.681559 131.502378,124.384941 C131.812265,125.088324 131.910805,125.728668 131.797003,126.300996 C131.682869,126.874983 131.396207,127.441338 130.937681,127.996414 C130.47816,128.553479 129.871658,129.209085 129.119172,129.963231 L121.944004,137.137071 C120.337836,138.742907 119.035915,139.980131 118.036249,140.848742 C117.03791,141.717354 116.161999,142.281719 115.407522,142.54416 C114.654703,142.804611 113.93274,142.755507 113.245947,142.396184 C112.556831,142.033212 111.722061,141.427374 110.739648,140.575684 C110.575747,140.412446 110.369377,140.371968 110.123856,140.453919 C109.878336,140.535538 109.674952,140.658962 109.511383,140.822531 C109.347481,140.986101 109.224389,141.191144 109.142438,141.436332 C109.06082,141.681521 109.117886,141.903816 109.313971,142.099569 C109.904547,142.821864 110.739648,143.804609 111.819606,145.047804 C112.900559,146.294318 113.881977,147.684494 114.764192,149.222315 C115.091331,149.810236 115.450654,150.203401 115.842823,150.397826 C116.235987,150.595238 116.645077,150.447262 117.070756,149.956885 L120.1172,146.712366 C120.183557,146.647668 120.240955,146.621457 120.290059,146.638378 C120.337836,146.653972 120.36272,146.726301 120.361393,146.856029 C119.668627,148.924704 119.410831,150.866969 119.589995,152.688797 C119.767167,154.507639 120.692846,156.254151 122.363711,157.924685 C123.739289,159.300926 125.108231,159.962504 126.470206,159.9134 C127.830853,159.862306 129.021959,159.327137 130.039873,158.31055 C130.598266,157.752157 130.896208,157.028536 130.928723,156.143003 C130.962565,155.255812 130.587649,154.419716 129.800988,153.633055 C129.047838,152.880237 128.341801,152.536176 127.684204,152.60386 C127.027272,152.670217 126.484141,152.920382 126.055144,153.347721 C125.595622,153.808901 125.142073,154.080632 124.699473,154.165237 C124.254882,154.248515 123.738294,153.994036 123.148713,153.404788 C122.52529,152.781365 122.165968,152.011625 122.067096,151.095237 C121.970215,150.177522 122.019651,149.259806 122.215404,148.341427 C122.412815,147.423712 122.707772,146.570694 123.099277,145.785029 C123.495759,144.9987 123.855414,144.441634 124.18388,144.113168 L133.429713,134.868994" id="path34" fill="#324EA9"></path>
                        <path d="M116.290409,149.508981 C116.290409,149.508981 116.289409,149.508981 116.288409,149.507981 C116.289409,149.508981 116.290409,149.508981 116.290409,149.508981 Z M143.425071,134.024289 C143.423071,134.023289 143.422071,134.022289 143.420071,134.020289 C143.422071,134.021289 143.424071,134.022289 143.426071,134.023289 L143.425071,134.024289 Z M143.338452,134.012995 C143.340452,134.012995 143.341452,134.012995 143.343452,134.011995 C143.341452,134.012995 143.340452,134.012995 143.338452,134.012995 Z M130.6268,121.234981 C130.637085,121.214411 130.654338,121.188531 130.682871,121.157675 C131.637083,122.123168 132.547167,123.147386 133.390231,124.203787 C134.322213,125.372663 135.337141,126.507697 136.406482,127.577038 C137.411125,128.582013 138.536869,129.587651 139.751863,130.566083 C140.888556,131.482803 142.137724,132.617505 143.466189,133.939998 C143.435996,133.967536 143.410117,133.984125 143.389546,133.994742 C142.078667,132.891891 141.012975,132.131773 140.133415,131.672584 C139.144366,131.15865 138.210725,130.942326 137.362685,131.024941 C136.504359,131.111536 135.68651,131.477826 134.929047,132.113857 C134.29932,132.641394 133.578353,133.312593 132.725667,134.165279 L123.480166,143.409122 C123.076052,143.813235 122.660658,144.443957 122.210427,145.33712 C121.781762,146.197437 121.456945,147.136387 121.24228,148.132071 C121.025293,149.149986 120.969885,150.181503 121.077384,151.199749 C121.201139,152.346727 121.661324,153.324496 122.444999,154.108502 C123.278772,154.942276 124.096953,155.290981 124.88295,155.143669 C125.530593,155.019582 126.160983,154.651965 126.760517,154.050108 C127.024286,153.787003 127.360383,153.637037 127.784403,153.594236 C128.121164,153.560063 128.584004,153.823831 129.097274,154.33677 C129.683205,154.923033 129.957259,155.501664 129.934034,156.10518 C129.910809,156.736897 129.715056,157.227606 129.336159,157.606504 C128.49409,158.447577 127.544192,158.876906 126.433046,158.918711 C125.360719,158.95753 124.232321,158.386197 123.067758,157.220971 C121.570747,155.724292 120.733987,154.167228 120.580702,152.592248 C120.416469,150.921714 120.659999,149.098559 121.305319,147.172219 L121.355087,147.022916 L121.356746,146.865982 C121.365041,146.006661 120.776787,145.749528 120.596296,145.691466 C120.203132,145.55643 119.758209,145.670895 119.420453,146.001684 L119.391919,146.031213 L116.318933,149.304265 C116.263525,149.3683 116.218402,149.412427 116.183565,149.442288 C116.052178,149.344079 115.860075,149.145009 115.633798,148.738241 C114.718737,147.143354 113.690538,145.685826 112.571429,144.395516 C111.558492,143.229295 110.752256,142.28205 110.172297,141.576677 C110.185568,141.558429 110.199835,141.541508 110.215097,141.526246 C110.231023,141.510652 110.247944,141.495722 110.267187,141.482118 C111.237325,142.309257 112.061809,142.89751 112.782444,143.27674 C113.707791,143.761145 114.727696,143.832479 115.733334,143.484769 C116.618866,143.176873 117.585686,142.560417 118.689532,141.59957 C119.695834,140.725318 121.027616,139.460557 122.647719,137.841117 L129.822886,130.667277 C130.597602,129.89057 131.230647,129.205436 131.70543,128.629458 C132.267805,127.9493 132.627127,127.230655 132.773112,126.49509 C132.927392,125.720705 132.806622,124.87565 132.413126,123.983482 C132.063426,123.197817 131.479485,122.299013 130.6268,121.234981 L130.6268,121.234981 Z M130.769135,119.103931 C130.655997,119.103931 130.540536,119.114879 130.424079,119.136777 C129.97418,119.228018 129.5986,119.426757 129.295017,119.730008 C128.963233,120.059138 128.741269,120.465242 128.656001,120.902201 C128.554807,121.418458 128.673585,121.931065 128.998402,122.384282 L129.032244,122.428409 C129.788381,123.367359 130.313595,124.161651 130.592958,124.789718 C130.81658,125.296685 130.893554,125.740944 130.820562,126.10657 C130.739274,126.515992 130.520629,126.938353 130.170264,127.362374 C129.734632,127.890574 129.144055,128.528927 128.414462,129.260512 L121.24029,136.433025 C119.652702,138.020281 118.355093,139.253191 117.383297,140.097251 C116.486484,140.877607 115.711768,141.384574 115.080714,141.603883 C114.588014,141.774089 114.151054,141.746219 113.707791,141.514302 C113.094653,141.191807 112.321596,140.628437 111.411843,139.840782 C110.981851,139.433682 110.400233,139.312581 109.809657,139.509329 C109.418483,139.639388 109.081722,139.844763 108.807668,140.118817 C108.534278,140.391543 108.329567,140.728968 108.198512,141.120805 C108.002759,141.709391 108.138127,142.303948 108.569779,142.761811 C109.165995,143.489414 110.006073,144.477799 111.068115,145.700424 C112.102618,146.893521 113.055834,148.24521 113.900557,149.717669 C114.327232,150.483759 114.819932,151.001674 115.400554,151.289663 C115.77912,151.479443 116.778123,151.79862 117.808313,150.625099 L118.666639,149.711365 C118.524967,150.770088 118.502074,151.797293 118.599287,152.78601 C118.798689,154.831128 119.828216,156.797282 121.659997,158.6284 C123.231327,160.200726 124.863374,160.965488 126.506038,160.90809 C128.121164,160.847373 129.546178,160.210347 130.743256,159.014597 C131.48413,158.273722 131.881276,157.319842 131.923413,156.179831 C131.967872,155.009296 131.490766,153.915072 130.504703,152.929341 C129.531911,151.956549 128.552152,151.514281 127.582015,151.613816 C126.698805,151.703066 125.948309,152.049117 125.352756,152.642347 C125.042538,152.953893 124.753222,153.141351 124.51301,153.187469 C124.523959,153.184483 124.303986,153.151968 123.852428,152.701073 C123.391911,152.239893 123.131128,151.679841 123.056809,150.988402 C122.97154,150.181171 123.015999,149.359673 123.188859,148.549124 C123.367691,147.717673 123.637431,146.936652 123.989786,146.228957 C124.422101,145.372289 124.717057,144.987751 124.887595,144.816883 L134.13376,135.57304 C134.932696,134.773108 135.63077,134.122811 136.208075,133.639069 C136.661292,133.258844 137.103561,133.051811 137.561092,133.005693 C138.0163,132.960239 138.574361,133.105892 139.213709,133.43834 C139.965532,133.830841 140.962876,134.549817 142.175879,135.575362 L142.236264,135.622476 C142.693795,135.951938 143.210051,136.070053 143.727966,135.964545 C144.158622,135.880604 144.55245,135.667267 144.890207,135.332165 C145.195448,135.027587 145.393855,134.651011 145.483105,134.210402 C145.596244,133.632765 145.420398,133.079017 144.988083,132.646371 C143.566719,131.225007 142.225647,130.003709 141.001363,129.015987 C139.840782,128.08135 138.768455,127.123821 137.813911,126.169609 C136.797324,125.15269 135.832495,124.073396 134.946631,122.962582 C134.009672,121.788066 132.993749,120.652036 131.927062,119.585681 C131.610208,119.269159 131.207754,119.103931 130.769135,119.103931 L130.769135,119.103931 Z" id="path36" fill="#25529B"></path>
                        <path d="M144.318874,178.239175 C144.582643,177.77899 144.934334,177.245481 145.377598,176.640638 C145.821525,176.033141 146.336786,175.435929 146.926367,174.84668 C147.54979,174.22193 148.211368,173.592535 148.915746,172.953851 C149.621451,172.315166 150.15496,171.813508 150.514614,171.454186 C150.613486,171.355646 150.628416,171.207338 150.563719,171.011585 C150.497693,170.815501 150.390859,170.627379 150.244874,170.446888 C150.096566,170.267725 149.932665,170.135343 149.750515,170.053724 C149.573674,169.971773 149.416077,169.962483 149.286349,170.02884 C147.188145,171.40475 145.263132,172.149937 143.510648,172.264071 C141.757831,172.379864 139.981126,171.535805 138.178874,169.734216 C136.966534,168.521544 136.269123,167.217964 136.088301,165.82646 C135.908142,164.43363 136.32619,163.230248 137.342777,162.214988 C138.194468,161.363298 139.176881,161.03649 140.292672,161.233902 C141.407799,161.431314 142.702089,161.873914 144.178861,162.565352 C144.800293,162.859977 145.555766,163.205364 146.43964,163.59886 C147.325504,163.993684 148.047466,164.305229 148.606191,164.536815 C149.851046,164.996668 151.056086,165.380542 152.220649,165.694078 C153.385212,166.005624 154.525223,166.147296 155.639023,166.114781 C156.75415,166.082598 157.826809,165.861961 158.860317,165.453203 C159.892498,165.044445 160.884201,164.365614 161.834763,163.415384 C163.078291,162.170529 163.856989,160.868276 164.168866,159.507628 C164.478752,158.146981 164.478752,156.803254 164.166875,155.476449 C163.855993,154.151302 163.289637,152.847722 162.470462,151.570352 C161.649959,150.291655 160.732908,149.143682 159.718311,148.128422 C158.866621,147.277063 157.818846,146.42106 156.578636,145.564724 C155.338426,144.707062 154.145994,144.065059 152.999679,143.63938 C152.73591,143.506998 152.56471,143.269109 152.483091,142.926707 C152.401472,142.582647 152.507311,142.195455 152.801935,141.771103 C152.899812,141.67389 152.89019,141.535204 152.776056,141.354713 C152.659932,141.175882 152.522573,141.003022 152.358008,140.839452 C152.227285,140.706739 152.069687,140.601895 151.885547,140.523262 C151.702402,140.444297 151.559071,140.458564 151.454228,140.561749 C151.194772,140.822531 150.869624,141.21271 150.480772,141.732616 C150.091921,142.254181 149.700084,142.710716 149.304597,143.104212 C148.913092,143.497376 148.453239,143.906466 147.930346,144.332146 C147.406127,144.759484 146.888876,145.175873 146.378259,145.582973 C145.869634,145.990404 145.415753,146.357689 145.021262,146.683169 C144.626107,147.006991 144.346744,147.252511 144.181516,147.416081 C144.050461,147.547136 144.018278,147.710705 144.084303,147.908117 C144.149664,148.10387 144.255835,148.29365 144.403811,148.474141 C144.552119,148.654632 144.723319,148.793649 144.922058,148.892189 C145.116484,148.991061 145.298633,148.991061 145.461871,148.893848 C146.640701,148.171885 147.772749,147.633731 148.854366,147.272418 C149.937642,146.913096 150.994043,146.757157 152.028214,146.808252 C153.061059,146.857356 154.085609,147.144681 155.102528,147.670559 C156.119115,148.196437 157.169544,149.000019 158.252488,150.082963 C159.43364,151.264779 160.067016,152.554756 160.148635,153.947587 C160.231581,155.342408 159.683806,156.628736 158.503981,157.809224 C157.453551,158.858326 156.257801,159.31652 154.912747,159.183807 C153.569353,159.052752 152.172872,158.722295 150.728947,158.197744 C150.073341,157.935634 149.409773,157.664234 148.736914,157.384872 C148.064387,157.10551 147.383898,156.817189 146.69445,156.522565 C145.676536,156.095226 144.66028,155.684809 143.641703,155.289986 C142.624784,154.894831 141.617818,154.657605 140.616825,154.573995 C139.6155,154.492377 138.607871,154.631062 137.590952,154.992044 C136.574365,155.351698 135.558441,156.039487 134.541523,157.056074 C133.361366,158.236231 132.616178,159.489048 132.304633,160.815854 C131.992756,162.142659 131.985124,163.461502 132.280081,164.772713 C132.572714,166.082598 133.097929,167.344373 133.850748,168.558704 C134.603234,169.769717 135.45592,170.851002 136.406482,171.801564 C137.32287,172.717952 138.240918,173.422662 139.158633,173.914698 C140.075021,174.405407 141.240248,174.797244 142.649667,175.09021 C142.845088,175.156567 143.010981,175.338716 143.140045,175.631682 C143.271763,175.926306 143.173887,176.370897 142.844093,176.961805 C142.74688,177.125043 142.762142,177.307193 142.893861,177.503277 C143.023588,177.69903 143.180191,177.870231 143.361013,178.018538 C143.539845,178.164855 143.729625,178.271358 143.925378,178.336388 C144.121131,178.402413 144.252849,178.37023 144.318874,178.239175" id="path38" fill="#324EA9"></path>
                        <path d="M144.249232,177.395793 C144.247232,177.393793 144.244232,177.393793 144.242232,177.392793 C144.244232,177.393793 144.247232,177.393793 144.249232,177.395793 Z M143.727317,176.959174 C143.726317,176.958174 143.725317,176.956174 143.724317,176.954174 C143.725317,176.956174 143.726317,176.958174 143.727317,176.959174 Z M142.23097,176.038823 C142.22997,176.035823 142.22897,176.033823 142.22797,176.029823 C142.22897,176.033823 142.22997,176.035823 142.23097,176.038823 Z M149.337462,170.959173 C149.335462,170.959173 149.334462,170.958173 149.333462,170.957173 C149.334462,170.958173 149.335462,170.959173 149.337462,170.959173 Z M149.8109,170.753812 C149.8119,170.751812 149.8129,170.749812 149.8149,170.748812 C149.8129,170.749812 149.8129,170.751812 149.8109,170.753812 Z M145.378631,148.007671 C145.375631,148.005671 145.373631,148.004671 145.370631,148.003671 C145.373631,148.004671 145.375631,148.005671 145.378631,148.007671 Z M145.179855,147.850718 C145.296643,147.74886 145.450922,147.617806 145.651984,147.452909 C146.045812,147.128424 146.495711,146.764125 147.000355,146.360011 C147.512298,145.951917 148.031872,145.533205 148.559078,145.103876 C149.126097,144.642032 149.601212,144.217348 150.010302,143.806268 C150.436645,143.381584 150.864315,142.883244 151.278714,142.327505 C151.402469,142.161945 151.513617,142.018282 151.612821,141.893531 C151.450246,142.322196 151.416736,142.744558 151.514612,143.156634 C151.705388,143.95557 152.184485,144.343758 152.552765,144.528894 L152.652964,144.572689 C153.714674,144.966849 154.844731,145.576005 156.012612,146.383236 C157.197746,147.201748 158.207697,148.025569 159.014597,148.832136 C159.971794,149.789998 160.852682,150.891853 161.632375,152.107843 C162.387516,153.285013 162.914058,154.494699 163.197733,155.704053 C163.472782,156.874588 163.472782,158.07996 163.198397,159.28666 C162.930979,160.452882 162.235227,161.605832 161.130717,162.711669 C160.282344,163.55971 159.394821,164.170857 158.493695,164.527856 C157.572994,164.891824 156.602525,165.091226 155.610158,165.120091 C154.605183,165.146966 153.548782,165.018897 152.478114,164.732567 C151.335781,164.425003 150.155292,164.047101 148.969163,163.609809 C148.393186,163.370925 147.678522,163.06137 146.84508,162.689771 C145.973814,162.301916 145.220664,161.957523 144.605204,161.665885 C143.054444,160.939941 141.663604,160.465489 140.466195,160.253811 C139.037532,160.000991 137.714376,160.435629 136.639063,161.511274 C135.397858,162.750488 134.880274,164.245508 135.101243,165.953865 C135.310267,167.563351 136.108872,169.071643 137.474828,170.43793 C139.481127,172.443566 141.534872,173.389815 143.576341,173.257433 C145.379921,173.139982 147.350388,172.419014 149.438306,171.113775 C149.117471,171.420675 148.71933,171.789288 148.248196,172.215631 C147.532537,172.864269 146.851384,173.512907 146.221657,174.143961 C145.601221,174.763734 145.046477,175.406732 144.573685,176.053711 C144.353048,176.35464 144.150991,176.643624 143.968178,176.918673 C144.238914,176.257759 144.262471,175.704011 144.048802,175.226241 C143.744556,174.534803 143.293329,174.257431 142.968512,174.147611 L142.852388,174.116091 C141.540513,173.843033 140.455578,173.480061 139.62844,173.03746 C138.800638,172.593533 137.953261,171.940581 137.110197,171.097518 C136.21637,170.204022 135.404162,169.173169 134.696466,168.033489 C134.004032,166.917035 133.517636,165.746832 133.251213,164.555726 C132.990763,163.396472 132.998394,162.21532 133.273775,161.043458 C133.540529,159.905769 134.204098,158.801259 135.245237,157.759788 C136.151672,156.854017 137.052466,156.238226 137.922736,155.93033 C138.800969,155.618452 139.681193,155.496356 140.535538,155.566031 C141.437659,155.641346 142.36201,155.860655 143.281053,156.217655 C144.28271,156.605843 145.301288,157.016923 146.309248,157.44028 C146.996042,157.733909 147.679849,158.023889 148.355694,158.304246 C149.032202,158.584936 149.699752,158.858326 150.359339,159.122095 C151.910431,159.685796 153.399811,160.03616 154.815866,160.174183 C156.465166,160.336094 157.940943,159.777701 159.207363,158.513271 C160.591567,157.128735 161.242528,155.572998 161.142329,153.888529 C161.046112,152.251837 160.310878,150.734256 158.956534,149.379249 C157.807897,148.230611 156.665232,147.35835 155.560058,146.786354 C154.420711,146.197105 153.248517,145.869966 152.07566,145.813894 C150.931667,145.757823 149.739898,145.930019 148.54083,146.327828 C147.464521,146.687151 146.345413,147.210043 145.209383,147.883897 C145.19943,147.87328 145.189476,147.862331 145.179855,147.850718 L145.179855,147.850718 Z M151.495383,141.438659 C151.494383,141.437659 151.493383,141.437659 151.492383,141.437659 C151.493383,141.437659 151.494383,141.437659 151.495383,141.438659 Z M151.669224,139.477478 C151.32815,139.477146 151.007978,139.604551 150.756153,139.85173 C150.449585,140.16029 150.101543,140.578006 149.683827,141.136399 C149.326827,141.615164 148.963191,142.039516 148.602541,142.398839 C148.244546,142.758493 147.807918,143.148339 147.301615,143.560084 C146.78005,143.985431 146.265453,144.39983 145.757491,144.804938 C145.243225,145.216683 144.785695,145.586954 144.387885,145.915089 C143.982113,146.247868 143.676208,146.515618 143.480787,146.708717 C143.07601,147.114489 142.95325,147.665251 143.140376,148.224307 C143.244888,148.535853 143.410781,148.832468 143.633408,149.104863 C143.873288,149.396501 144.157627,149.624437 144.480453,149.784357 C144.967513,150.0322 145.514293,150.021251 145.970828,149.749188 C147.080979,149.069362 148.153306,148.55576 149.169561,148.216676 C150.132067,147.897168 151.077984,147.757487 151.979442,147.802278 C152.865638,147.844414 153.762119,148.097898 154.644997,148.554765 C155.568353,149.032202 156.545126,149.783362 157.548774,150.787009 C158.562043,151.80061 159.087589,152.853694 159.154941,154.005981 C159.220966,155.11414 158.777703,156.127741 157.800266,157.105178 C156.964501,157.939947 156.05309,158.294293 155.010292,158.193099 C153.759133,158.071002 152.433323,157.757798 151.069026,157.262444 C150.44693,157.012942 149.787011,156.743201 149.118798,156.465498 C148.448925,156.187463 147.771754,155.900469 147.085624,155.607172 C146.05477,155.174525 145.019271,154.756145 144.001357,154.361653 C142.90481,153.935642 141.793664,153.673201 140.699439,153.58196 C139.559097,153.489061 138.402165,153.647985 137.258172,154.054089 C136.106549,154.461189 134.955589,155.234578 133.837808,156.352028 C132.53091,157.659589 131.688841,159.084603 131.335491,160.58825 C130.990767,162.0554 130.982141,163.536817 131.308948,164.991359 C131.623811,166.399452 132.19448,167.776688 133.004698,169.083255 C133.793681,170.352994 134.701443,171.503953 135.702768,172.505278 C136.683522,173.486033 137.687833,174.255441 138.688163,174.791936 C139.625122,175.293594 140.79997,175.70202 142.18351,176.008257 C142.159622,176.093526 142.104214,176.244487 141.974818,176.476405 C141.694792,176.946875 141.724321,177.547073 142.067718,178.05802 C142.245554,178.327429 142.470172,178.575272 142.730623,178.78861 C143.002686,179.011569 143.299301,179.177129 143.611842,179.280977 C144.358357,179.533797 144.936988,179.186087 145.19014,178.720926 C145.439973,178.286952 145.773085,177.784962 146.180516,177.229223 C146.593588,176.663531 147.080979,176.099166 147.62975,175.550726 C148.237247,174.942234 148.894512,174.316489 149.584623,173.691075 C150.284356,173.057367 150.834455,172.541443 151.217997,172.158232 C151.391852,171.985041 151.771745,171.493336 151.50864,170.698713 C151.403796,170.387831 151.239563,170.094534 151.019258,169.821475 C150.763121,169.512252 150.475464,169.287966 150.157615,169.145299 C149.710038,168.938597 149.235918,168.936275 148.832468,169.142976 L148.740564,169.196393 C146.797635,170.470777 145.015953,171.168519 143.44595,171.271041 C142.00866,171.365267 140.465531,170.612781 138.882588,169.030501 C137.834482,167.982063 137.226653,166.860964 137.075359,165.69806 C136.934019,164.60483 137.242579,163.721952 138.046492,162.919366 C138.668256,162.297602 139.326848,162.07398 140.11948,162.213993 C141.144694,162.395479 142.368646,162.816845 143.756832,163.46681 C144.381582,163.763094 145.149662,164.114121 146.035195,164.508281 C146.892857,164.890497 147.629418,165.209673 148.224971,165.456189 L148.261467,165.470456 C149.509308,165.931636 150.754495,166.330109 151.961858,166.655257 C153.220979,166.991687 154.466166,167.144639 155.667888,167.109802 C156.891841,167.074301 158.089582,166.828449 159.226275,166.378881 C160.382212,165.921019 161.496343,165.160901 162.538478,164.119098 C163.912065,162.744184 164.786648,161.267412 165.139003,159.729924 C165.482068,158.223955 165.480741,156.716658 165.136017,155.248845 C164.800251,153.819518 164.185455,152.400808 163.308217,151.033193 C162.451218,149.697098 161.480086,148.483099 160.422357,147.424707 C159.530521,146.533203 158.42767,145.631745 157.143997,144.745549 C155.884543,143.874615 154.648315,143.204411 153.468158,142.752189 C153.463182,142.739249 153.457541,142.720669 153.451237,142.695785 C153.448915,142.673224 153.470813,142.562408 153.595895,142.373955 C153.869949,142.027904 154.015934,141.453917 153.617461,140.823195 C153.451901,140.567721 153.266765,140.33879 153.060064,140.133415 C152.845399,139.916097 152.57964,139.737265 152.276389,139.607869 C152.073337,139.520278 151.867631,139.477478 151.669224,139.477478 L151.669224,139.477478 Z" id="path40" fill="#25529B"></path>
                    </g>
                </g>
            </g>
        </g>
    </g>
</svg>