<svg width="1024" height="1024" viewBox="0 0 1024 1024" fill="none" xmlns="http://www.w3.org/2000/svg">
<circle cx="512" cy="512" r="512" fill="#009CDE"/>
<path d="M201.294 539.496H299.15L302.67 600.04C313.465 579.859 327.31 563.667 344.206 551.464C361.102 539.261 381.283 533.16 404.75 533.16C433.379 533.16 457.081 542.077 475.854 559.912C495.097 577.747 502.371 605.437 497.678 642.984L480.078 788.008H520.91L514.574 839.4L493.454 857H385.038L406.862 678.184C410.147 650.963 408.035 631.485 400.526 619.752C393.486 608.019 381.283 602.152 363.918 602.152C344.206 602.152 328.953 608.253 318.158 620.456C307.363 632.659 300.323 648.851 297.038 669.032L274.51 857H187.214L217.486 608.488H173.134L179.47 558.504L201.294 539.496ZM536.409 391.656L558.233 372.648H665.945L638.489 597.224C648.345 579.859 661.017 564.84 676.505 552.168C692.462 539.496 712.174 533.16 735.641 533.16C774.126 533.16 802.521 546.771 820.825 573.992C839.129 600.744 848.281 631.955 848.281 667.624C848.281 698.131 842.649 728.637 831.385 759.144C820.59 789.181 803.929 814.291 781.401 834.472C758.873 854.184 730.009 864.04 694.809 864.04C650.692 864.04 621.828 845.736 608.217 809.128L595.545 857H508.249C513.412 840.573 518.105 824.147 522.329 807.72C526.553 791.293 529.604 775.101 531.481 759.144L570.201 441.64H530.073L536.409 391.656ZM683.545 795.048C705.604 795.048 722.734 782.376 734.937 757.032C747.14 731.688 753.241 705.405 753.241 678.184C753.241 657.533 749.252 639.699 741.273 624.68C733.764 609.661 721.092 602.152 703.257 602.152C681.198 602.152 663.833 612.008 651.161 631.72C638.489 650.963 630.276 671.613 626.521 693.672L623.001 721.832C622.532 744.36 627.694 762.195 638.489 775.336C649.284 788.477 664.302 795.048 683.545 795.048Z" fill="white"/>
</svg>
