<svg width="1172" height="1024" viewBox="0 0 1172 1024" fill="none" xmlns="http://www.w3.org/2000/svg">
<circle cx="586" cy="512" r="512" fill="#000064"/>
<mask id="path-2-inside-1_6_117" fill="white">
<path d="M1172 128H924L908 192H1140V224H868L880 176H640L592 368H824L836 320H1108V352H860L844 416H1076V448H804L816 400H552L580 288H340L228 736H459L487 624H759L771 576H1043V608H795L779 672H1011V704H739L751 656H511L463 848H695L707 800H979V832H731L715 896H947V928H675L687 880H423L451 768H188L248 528H0V496H256L316 256H588L616 144H888L900 96H1172V128Z"/>
</mask>
<path d="M1172 128H924L908 192H1140V224H868L880 176H640L592 368H824L836 320H1108V352H860L844 416H1076V448H804L816 400H552L580 288H340L228 736H459L487 624H759L771 576H1043V608H795L779 672H1011V704H739L751 656H511L463 848H695L707 800H979V832H731L715 896H947V928H675L687 880H423L451 768H188L248 528H0V496H256L316 256H588L616 144H888L900 96H1172V128Z" fill="#808080"/>
<path d="M1172 128V130H1174V128H1172ZM924 128V126H922.438L922.06 127.515L924 128ZM908 192L906.06 191.515L905.438 194H908V192ZM1140 192H1142V190H1140V192ZM1140 224V226H1142V224H1140ZM868 224L866.06 223.515L865.438 226H868V224ZM880 176L881.94 176.485L882.562 174H880V176ZM640 176V174H638.438L638.06 175.515L640 176ZM592 368L590.06 367.515L589.438 370H592V368ZM824 368V370H825.562L825.94 368.485L824 368ZM836 320V318H834.438L834.06 319.515L836 320ZM1108 320H1110V318H1108V320ZM1108 352V354H1110V352H1108ZM860 352V350H858.438L858.06 351.515L860 352ZM844 416L842.06 415.515L841.438 418H844V416ZM1076 416H1078V414H1076V416ZM1076 448V450H1078V448H1076ZM804 448L802.06 447.515L801.438 450H804V448ZM816 400L817.94 400.485L818.562 398H816V400ZM552 400L550.06 399.515L549.438 402H552V400ZM580 288L581.94 288.485L582.562 286H580V288ZM340 288V286H338.438L338.06 287.515L340 288ZM228 736L226.06 735.515L225.438 738H228V736ZM459 736V738H460.562L460.94 736.485L459 736ZM487 624V622H485.438L485.06 623.515L487 624ZM759 624V626H760.562L760.94 624.485L759 624ZM771 576V574H769.438L769.06 575.515L771 576ZM1043 576H1045V574H1043V576ZM1043 608V610H1045V608H1043ZM795 608V606H793.438L793.06 607.515L795 608ZM779 672L777.06 671.515L776.438 674H779V672ZM1011 672H1013V670H1011V672ZM1011 704V706H1013V704H1011ZM739 704L737.06 703.515L736.438 706H739V704ZM751 656L752.94 656.485L753.562 654H751V656ZM511 656V654H509.438L509.06 655.515L511 656ZM463 848L461.06 847.515L460.438 850H463V848ZM695 848V850H696.562L696.94 848.485L695 848ZM707 800V798H705.438L705.06 799.515L707 800ZM979 800H981V798H979V800ZM979 832V834H981V832H979ZM731 832V830H729.438L729.06 831.515L731 832ZM715 896L713.06 895.515L712.438 898H715V896ZM947 896H949V894H947V896ZM947 928V930H949V928H947ZM675 928L673.06 927.515L672.438 930H675V928ZM687 880L688.94 880.485L689.562 878H687V880ZM423 880L421.06 879.515L420.438 882H423V880ZM451 768L452.94 768.485L453.562 766H451V768ZM188 768L186.06 767.515L185.438 770H188V768ZM248 528L249.94 528.485L250.562 526H248V528ZM0 528H-2V530H0V528ZM0 496V494H-2V496H0ZM256 496V498H257.562L257.94 496.485L256 496ZM316 256V254H314.438L314.06 255.515L316 256ZM588 256V258H589.562L589.94 256.485L588 256ZM616 144V142H614.438L614.06 143.515L616 144ZM888 144V146H889.562L889.94 144.485L888 144ZM900 96V94H898.438L898.06 95.5149L900 96ZM1172 96H1174V94H1172V96ZM1172 128V126H924V128V130H1172V128ZM924 128L922.06 127.515L906.06 191.515L908 192L909.94 192.485L925.94 128.485L924 128ZM908 192V194H1140V192V190H908V192ZM1140 192H1138V224H1140H1142V192H1140ZM1140 224V222H868V224V226H1140V224ZM868 224L869.94 224.485L881.94 176.485L880 176L878.06 175.515L866.06 223.515L868 224ZM880 176V174H640V176V178H880V176ZM640 176L638.06 175.515L590.06 367.515L592 368L593.94 368.485L641.94 176.485L640 176ZM592 368V370H824V368V366H592V368ZM824 368L825.94 368.485L837.94 320.485L836 320L834.06 319.515L822.06 367.515L824 368ZM836 320V322H1108V320V318H836V320ZM1108 320H1106V352H1108H1110V320H1108ZM1108 352V350H860V352V354H1108V352ZM860 352L858.06 351.515L842.06 415.515L844 416L845.94 416.485L861.94 352.485L860 352ZM844 416V418H1076V416V414H844V416ZM1076 416H1074V448H1076H1078V416H1076ZM1076 448V446H804V448V450H1076V448ZM804 448L805.94 448.485L817.94 400.485L816 400L814.06 399.515L802.06 447.515L804 448ZM816 400V398H552V400V402H816V400ZM552 400L553.94 400.485L581.94 288.485L580 288L578.06 287.515L550.06 399.515L552 400ZM580 288V286H340V288V290H580V288ZM340 288L338.06 287.515L226.06 735.515L228 736L229.94 736.485L341.94 288.485L340 288ZM228 736V738H459V736V734H228V736ZM459 736L460.94 736.485L488.94 624.485L487 624L485.06 623.515L457.06 735.515L459 736ZM487 624V626H759V624V622H487V624ZM759 624L760.94 624.485L772.94 576.485L771 576L769.06 575.515L757.06 623.515L759 624ZM771 576V578H1043V576V574H771V576ZM1043 576H1041V608H1043H1045V576H1043ZM1043 608V606H795V608V610H1043V608ZM795 608L793.06 607.515L777.06 671.515L779 672L780.94 672.485L796.94 608.485L795 608ZM779 672V674H1011V672V670H779V672ZM1011 672H1009V704H1011H1013V672H1011ZM1011 704V702H739V704V706H1011V704ZM739 704L740.94 704.485L752.94 656.485L751 656L749.06 655.515L737.06 703.515L739 704ZM751 656V654H511V656V658H751V656ZM511 656L509.06 655.515L461.06 847.515L463 848L464.94 848.485L512.94 656.485L511 656ZM463 848V850H695V848V846H463V848ZM695 848L696.94 848.485L708.94 800.485L707 800L705.06 799.515L693.06 847.515L695 848ZM707 800V802H979V800V798H707V800ZM979 800H977V832H979H981V800H979ZM979 832V830H731V832V834H979V832ZM731 832L729.06 831.515L713.06 895.515L715 896L716.94 896.485L732.94 832.485L731 832ZM715 896V898H947V896V894H715V896ZM947 896H945V928H947H949V896H947ZM947 928V926H675V928V930H947V928ZM675 928L676.94 928.485L688.94 880.485L687 880L685.06 879.515L673.06 927.515L675 928ZM687 880V878H423V880V882H687V880ZM423 880L424.94 880.485L452.94 768.485L451 768L449.06 767.515L421.06 879.515L423 880ZM451 768V766H188V768V770H451V768ZM188 768L189.94 768.485L249.94 528.485L248 528L246.06 527.515L186.06 767.515L188 768ZM248 528V526H0V528V530H248V528ZM0 528H2V496H0H-2V528H0ZM0 496V498H256V496V494H0V496ZM256 496L257.94 496.485L317.94 256.485L316 256L314.06 255.515L254.06 495.515L256 496ZM316 256V258H588V256V254H316V256ZM588 256L589.94 256.485L617.94 144.485L616 144L614.06 143.515L586.06 255.515L588 256ZM616 144V146H888V144V142H616V144ZM888 144L889.94 144.485L901.94 96.4851L900 96L898.06 95.5149L886.06 143.515L888 144ZM900 96V98H1172V96V94H900V96ZM1172 96H1170V128H1172H1174V96H1172Z" fill="black" mask="url(#path-2-inside-1_6_117)"/>
<g filter="url(#filter0_d_6_117)">
<path d="M275.294 539.496H373.15L376.67 600.04C387.465 579.859 401.31 563.667 418.206 551.464C435.102 539.261 455.283 533.16 478.75 533.16C507.379 533.16 531.081 542.077 549.854 559.912C569.097 577.747 576.371 605.437 571.678 642.984L554.078 788.008H594.91L588.574 839.4L567.454 857H459.038L480.862 678.184C484.147 650.963 482.035 631.485 474.526 619.752C467.486 608.019 455.283 602.152 437.918 602.152C418.206 602.152 402.953 608.253 392.158 620.456C381.363 632.659 374.323 648.851 371.038 669.032L348.51 857H261.214L291.486 608.488H247.134L253.47 558.504L275.294 539.496ZM610.409 391.656L632.233 372.648H739.945L712.489 597.224C722.345 579.859 735.017 564.84 750.505 552.168C766.462 539.496 786.174 533.16 809.641 533.16C848.126 533.16 876.521 546.771 894.825 573.992C913.129 600.744 922.281 631.955 922.281 667.624C922.281 698.131 916.649 728.637 905.385 759.144C894.59 789.181 877.929 814.291 855.401 834.472C832.873 854.184 804.009 864.04 768.809 864.04C724.692 864.04 695.828 845.736 682.217 809.128L669.545 857H582.249C587.412 840.573 592.105 824.147 596.329 807.72C600.553 791.293 603.604 775.101 605.481 759.144L644.201 441.64H604.073L610.409 391.656ZM757.545 795.048C779.604 795.048 796.734 782.376 808.937 757.032C821.14 731.688 827.241 705.405 827.241 678.184C827.241 657.533 823.252 639.699 815.273 624.68C807.764 609.661 795.092 602.152 777.257 602.152C755.198 602.152 737.833 612.008 725.161 631.72C712.489 650.963 704.276 671.613 700.521 693.672L697.001 721.832C696.532 744.36 701.694 762.195 712.489 775.336C723.284 788.477 738.302 795.048 757.545 795.048Z" fill="white"/>
</g>
<defs>
<filter id="filter0_d_6_117" x="213.134" y="348.648" width="739.147" height="555.392" filterUnits="userSpaceOnUse" color-interpolation-filters="sRGB">
<feFlood flood-opacity="0" result="BackgroundImageFix"/>
<feColorMatrix in="SourceAlpha" type="matrix" values="0 0 0 0 0 0 0 0 0 0 0 0 0 0 0 0 0 0 127 0" result="hardAlpha"/>
<feOffset dx="-2" dy="8"/>
<feGaussianBlur stdDeviation="16"/>
<feComposite in2="hardAlpha" operator="out"/>
<feColorMatrix type="matrix" values="0 0 0 0 0 0 0 0 0 0 0 0 0 0 0 0 0 0 1 0"/>
<feBlend mode="normal" in2="BackgroundImageFix" result="effect1_dropShadow_6_117"/>
<feBlend mode="normal" in="SourceGraphic" in2="effect1_dropShadow_6_117" result="shape"/>
</filter>
</defs>
</svg>
