<?xml version="1.0" encoding="UTF-8"?>
<svg width="200px" height="200px" viewBox="0 0 200 200" version="1.1" xmlns="http://www.w3.org/2000/svg" xmlns:xlink="http://www.w3.org/1999/xlink">
    <title>minn-duluth</title>
    <defs>
        <polygon id="path-1" points="0.0545454545 0.27 182.299091 0.27 182.299091 199.090909 0.0545454545 199.090909"></polygon>
    </defs>
    <g id="minn-duluth" stroke="none" stroke-width="1" fill="none" fill-rule="evenodd">
        <g id="Group" transform="translate(0.000000, 0.000000)">
            <g id="minn-duluth" transform="translate(9.000000, 0.000000)">
                <g id="Group-3">
                    <mask id="mask-2" fill="white">
                        <use xlink:href="#path-1"></use>
                    </mask>
                    <g id="Clip-2"></g>
                    <path d="M94.1954545,0.835454545 C92.5109091,7.01363636 88.8372727,12.1327273 85.43,16.4009091 C79.6627273,22.2054545 73.0354545,27.5227273 65.8463636,30.63 L65.1372727,30.97 C69.84,32.7581818 79.9827273,33.4854545 81.8472727,33.5909091 C88.6990909,26.8509091 97.5290909,22.2654545 105.911818,18.0490909 C108.097273,17 109.948182,16.0727273 111.770909,15.4090909 C114.02,14.5909091 117.907273,13.0990909 120.293636,14.3863636 L121.013636,14.7272727 C125.37,16.3181818 128.702727,18.9318182 131.543636,23.6290909 C136.673636,26.4 150.066364,31.3181818 150.066364,31.3181818 C150.066364,31.3181818 152.15,31.8863636 146.770909,34.1218182 C142.188182,35.7127273 137.327273,37.6327273 132.497273,38.3436364 L129.614545,39.0554545 C135.230909,43.0245455 139.274545,48.9027273 141.484545,54.8945455 C142.87,57.8336364 144.915455,58.5536364 147.604545,58.6672727 C150.748182,59.0454545 152.452727,59.7272727 153.93,60.75 C158.740909,64.1218182 157.519091,68.9318182 156.127273,72 C155.246364,74.1872727 153.712727,75.3518182 153.314545,78.3354545 C153.206364,79.5572727 153.729091,80.9318182 154.366364,81.9427273 C156.837273,82.1681818 159.981818,83.1618182 160.730909,85.9736364 C161.518182,88.9309091 160.955455,91.74 160.356364,94.5854545 C161.816364,95.4090909 164.703636,97.5272727 166.089091,98.8745455 C166.904545,97.4927273 167.387273,96.5363636 168.002727,95.0681818 C168.4,94 169.590909,91.2518182 170.076364,90.2390909 C172.583636,85.0109091 173.116364,89.8409091 173.457273,91.6309091 C173.94,93.5909091 174.564545,99.7245455 174.564545,103.96 C174.564545,106.318182 173.742727,109.779091 177.434545,111.858182 C179.202727,112.854545 181.099091,113.477273 182.008182,116.318182 C182.837273,119.548182 181.780909,122.142727 180.275455,123.506364 C177.86,125.920909 173.929091,127.8 170.559091,128.960909 C167.001818,130.233636 155.814545,132.517273 155.814545,132.517273 C155.814545,132.517273 157.47,136.762727 157.945455,138.296364 C158.427273,139.849091 159.318182,142.45 159.536364,143.62 C159.879091,145.456364 160.288182,147.169091 160.389091,149.35 C160.447273,150.627273 161.058182,155.519091 161.070909,156.858182 C161.127273,161.574545 159.877273,165.097273 158.172727,166.83 C154.820909,170.04 149.081818,170.75 144.621818,170.779091 C141.850909,170.796364 138.724545,170.293636 136.44,169.244545 C135.275455,168.761818 134.536364,167.543636 133.172727,167.426364 C131.866364,170.125455 129.905455,172.298182 128.911818,173.718182 C126.546364,176.74 124.337273,178.875455 121.780909,180.707273 C121.031818,183.59 120.36,187.710909 120.076364,192 C119.877273,195.181818 116.639091,191.431818 114.025455,189.415455 C110.908182,187.009091 108.570909,185.125455 102.320909,185.665455 C96.0136364,186.517273 95.4654545,194.713636 95.4654545,194.713636 C95.4654545,194.713636 94.6218182,202.029091 91.87,197.746364 C88.7690909,191.886364 87.0772727,190.283636 82.8890909,187.454545 C82.0645455,187.710909 79.7636364,188.307273 79.7636364,188.307273 C75.9318182,189.065455 73.9718182,189.395455 69.9645455,189.507273 L69.6781818,189.529091 C65.1109091,189.791818 61.1509091,190.064545 56.9745455,189.269091 C55.6672727,189.012727 53.6681818,188.513636 52.3772727,188.022727 C49.0009091,186.736364 45.4627273,185.558182 42.2636364,183.522727 C36.6145455,180.118182 33.23,175.75 30.8718182,171.12 C28.9681818,167.454545 28.7409091,163.022727 28.7381818,158.017273 C25.36,155.396364 19.7354545,150.892727 16.5690909,147.27 C11.16,146.403636 5.82272727,145.360909 0.58,144.012727 C-0.690909091,143.648182 0.275454545,142.511818 2.04090909,140.418182 C5.13272727,136.659091 14.7590909,127.062727 14.7590909,127.062727 C14.7590909,127.062727 13.7409091,123.875455 13.3490909,121.886364 C10.7727273,121.508182 5.79727273,120.418182 4.48,120.097273 C2.06454545,119.529091 0.318181818,119.262727 0.243636364,117.426364 C0.246363636,116.176364 2.46272727,114.983636 4.36181818,113.832727 C7.48818182,111.894545 10.1754545,110.178182 13.4854545,108.562727 C13.4854545,108.562727 13.8663636,103.056364 14.0536364,100.21 L14.06,99.8281818 C14.6590909,94.8854545 14.5645455,89.6418182 15.8572727,85.0745455 C16.1272727,83.7045455 16.29,82.9727273 16.6672727,81.5736364 C18.0027273,74.67 21.9227273,65.8918182 25.4054545,59.0127273 C28.5990909,54.3581818 22.5481818,52.3690909 24.8445455,47.3309091 C26.7327273,43.1863636 29.0009091,39.2427273 31.6963636,35.4609091 C30.0490909,29.4690909 30.6109091,22.0927273 33.3063636,16.7754545 C38.9981818,6.92727273 48.8518182,3.82818182 59.6781818,4.01727273 C62.5436364,4.06727273 64.9627273,3.44909091 68.5336364,3.42454545 C76.44,3.25 82.8081818,2.99636364 89.5490909,1.12363636 C91.44,0.579090909 93.3172727,-0.329090909 94.1954545,0.835454545" id="Fill-1" fill="#262520" mask="url(#mask-2)"></path>
                </g>
                <path d="M114,86.1609091 L131.149091,85.9363636 C124.820909,87.2463636 105.743636,89.6845455 101.099091,89.94 L99.1681818,90.0618182 C98.4127273,90.1009091 97.0890909,90.2336364 96.2554545,90.3527273 C92.9172727,90.75 87.3490909,92.4118182 85.35,93.2272727 C82.1218182,94.5563636 79.5863636,95.4727273 76.1981818,97.3563636 C71.0281818,99.94 63.0309091,107.156364 60.2663636,110.761818 C58.6045455,112.929091 56.9745455,114.969091 55.2118182,117.426364 C53.3290909,119.699091 51.8663636,121.418182 50.0072727,123.717273 C47.5581818,126.746364 45.0645455,128.885455 42.2936364,131.806364 C46.3372727,122.930909 49.6327273,113.532727 48.7709091,102.860909 C48.6854545,101.875455 48.4763636,100.03 48.4763636,100.03 C48.0645455,97.3345455 47.0290909,93.4954545 46.3545455,91.7345455 C45.2881818,88.9627273 39.41,73.2045455 39.41,73.2045455 C39.41,73.2045455 43.4918182,96.5327273 43.7163636,98.5545455 C44.2781818,104.320909 44.1954545,110.75 43.1727273,116.266364 C42.7181818,118.552727 41.9072727,122.800909 41.2036364,125.03 C40.4336364,128.080909 39.3854545,131.545455 38.5518182,133.590909 C38.2509091,134.416364 36.7263636,138.296364 36.7263636,138.296364 C36.7263636,138.296364 31.1727273,130.308182 30.7981818,126.600909 C30.3863636,124.429091 30.0118182,122.032727 30.4236364,119.749091 C32.0336364,120.160909 32.4163636,122.135455 34.4009091,121.419091 C35.1545455,120.960909 38.1,124.129091 38.1,124.129091 C38.1,124.129091 34.9154545,117.113636 30.9472727,115.443636 C28.9963636,114.395455 27.02,113.793636 24.5072727,113.120909 C22.2263636,112.757273 20.5318182,112.405455 19.3472727,110.787273 C17.9454545,109.120909 18.4354545,104.84 18.2490909,102.038182 C18.1254545,100.193636 18.1554545,96.2518182 18.6945455,92.9472727 C19.7245455,87.0854545 20.8754545,83.9454545 22.6045455,79.7654545 C25.1545455,73.6 25.76,62.87 29.65,58.7881818 C31.6309091,57.1627273 39.61,62.4972727 40.8263636,63.1145455 C42.7863636,64.1072727 29.2718182,51.5272727 30.7981818,48.9409091 C31.9418182,47.3227273 32.1127273,46.8863636 32.7563636,45.22 C33.2490909,43.4963636 33.2672727,42.0763636 34.9172727,41.7518182 C37.3963636,43.4963636 47.96,55.6681818 47.96,55.6681818 C47.96,55.6681818 42.0363636,45.9209091 41.0209091,44.4472727 C39.7472727,42.2381818 38.8736364,40.7690909 37.9872727,37.4454545 L36.6390909,31.3 C35.4263636,24.4627273 37.6427273,18.9509091 41.0209091,15.69 C46.47,10.4281818 54.8527273,10.0081818 62.5290909,9.70909091 L71.2981818,9.06454545 C77.2636364,8.70454545 80.1836364,7.92 84.0954545,6.27363636 L91.8945455,2.54 L87.9009091,8.61272727 C82.9581818,15.84 76.1845455,20.8454545 70.37,23.7618182 C68.76,24.6327273 66.3254545,25.7472727 64.4990909,26.4136364 C62.5518182,27.0872727 60.2945455,27.55 58.23,27.7954545 C55.32,28.1427273 52.4290909,27.7145455 50.3809091,25.95 C49.0063636,24.7654545 46.7118182,20.4081818 46.7118182,20.4081818 L47.2736364,24.34 C47.2736364,24.34 47.6690909,28.9290909 50.0290909,31.1863636 C52.1881818,33.25 56.1081818,35.4854545 56.1081818,35.4854545 C56.4918182,37.3145455 57.7845455,40.12 60.2181818,42.9654545 C61.0218182,43.7954545 66.62,48.42 66.62,48.42 C66.62,48.42 62.1127273,38.8563636 61.5818182,37.6445455 C60.8809091,35.9772727 57.7581818,31.2663636 57.7581818,31.2663636 C57.7581818,31.2663636 66.6763636,33.9890909 70.1236364,35.4854545 C76.3172727,37.8527273 84.5909091,39.0427273 93.3618182,39.4818182 C95.0081818,39.5636364 97.1881818,39.3863636 99.0254545,39.0836364 C102.945455,38.4772727 105.212727,38.8272727 109.002727,39.0118182 C117.524545,39.4263636 123.183636,41.3281818 129.362727,45.5063636 C131.928182,47.2418182 137.054545,50.0663636 137.93,56.0081818 C138.897273,60.2 142.630909,61.7090909 146.451818,61.8581818 C148.938182,61.9963636 152.074545,62.2654545 153.650909,64.7890909 C157.263636,70.8636364 149.087273,76.3472727 150.135455,81.6645455 C149.087273,82.6754545 145.452727,82.0418182 144.18,82.5654545 C143.280909,82.2663636 142.852727,80.2718182 142.945455,79.0390909 C142.884545,76.1263636 144.517273,73.3172727 145.452727,69.9845455 C145.851818,68.2145455 145.483636,66.1881818 143.688182,65.2209091 C141.338182,64.0690909 138.850909,64.0690909 135.905455,64.4054545 C135.043636,62.7945455 133.691818,59.5090909 132.540909,58.2654545 C130.330909,55.5318182 115.797273,47.9290909 115.797273,47.9290909 L124.341818,54.9490909 C124.341818,54.9490909 130.099091,60.9827273 132.160909,66.39 C134.014545,69.1363636 140.195455,65.7545455 142.49,67.8918182 C144.516364,69.9654545 140.924545,74.5254545 140.397273,77.3609091 C140.136364,78.9709091 140.136364,80.9181818 140.397273,82.5654545 C139.312727,83.4645455 137.423636,83.5181818 135.905455,83.6518182 C134.028182,83.8172727 133.700909,83.6454545 132.497273,83.2772727 C131.749091,83.0681818 131.330909,82.8254545 130.175455,82.1909091 C124.801818,79.4536364 124.409091,76.2381818 120.814545,73.7663636 C116.658182,70.9581818 113.614545,65.6918182 108.608182,63.5063636 C105.041818,61.95 99.9754545,61.3518182 97.6363636,60.9972727 C95.0154545,60.81 89.1936364,60.2463636 88.65,59.5381818 C87.7509091,57.9645455 90.3345455,50.1763636 90.3345455,50.1763636 L85.9536364,54.8945455 C82.61,59.6009091 78.2490909,66.2045455 80.7490909,71.22 C81.8472727,73.0227273 86.8472727,71.5081818 86.0281818,74.1409091 C84.8681818,77.2481818 80.3745455,81.5918182 81.6472727,85.0745455 C82.38,86.9618182 84.1763636,87.7445455 85.9536364,87.5836364 C89.1936364,87.4218182 93.1063636,85.7809091 95.4654545,85.4490909 C97.0245455,85.0727273 98.7772727,84.9354545 100.331818,84.8872727 C101.835455,84.8418182 103.215455,85 104.638182,85.0745455 C104.638182,85.0745455 110.847273,86.2018182 114,86.1609091" id="Fill-4" fill="#F5BA54"></path>
                <path d="M126.866364,23.9890909 C128.116364,26.7245455 130.275455,27.3981818 130.275455,27.3981818 C130.275455,27.3981818 131.920909,27.7681818 133.059091,28.5909091 C135.37,28.5345455 147.062727,31.8281818 147.062727,31.8281818 L136.26,32.7954545 L127.452727,33.8563636 C119.065455,34.3436364 112.647273,32.6109091 106.099091,25.95 C104.465455,25.21 109.806364,32.0154545 109.806364,32.0154545 C109.806364,32.0154545 106.056364,32 107.709091,33.6636364 L108.39,34.2181818 C108.015455,34.6681818 100.086364,34.6327273 96.2227273,33.8372727 C93.7227273,33.5154545 91.5327273,33.8509091 89.5490909,33.8509091 C94.1536364,29.6190909 98.9472727,26.0618182 104.376364,23.0290909 C108.513636,20.5227273 113.811818,16.6636364 117.857273,16.1018182 C121.601818,15.6518182 124.820909,20.4372727 126.866364,23.9890909" id="Fill-5" fill="#F5BA54"></path>
                <path d="M103.814545,64.78 C106.248182,65.7154545 108.497273,67.0627273 110.218182,69.2736364 C108.832727,71.7072727 106.885455,73.9163636 106.099091,76.6118182 C105.987273,77.96 105.35,79.9445455 106.622727,80.9554545 C103.440909,81.48 101.032727,81.3718182 96.7054545,81.02 C95.2318182,81.0418182 93.1054545,81.5918182 92.7681818,79.6827273 C92.4690909,74.4781818 92.1909091,65.3127273 95.5772727,63.0945455 C96.8890909,61.9963636 101.342727,63.7463636 103.814545,64.78" id="Fill-6" fill="#FFFFFE"></path>
                <path d="M138.619091,86.1681815 C139.63,90.5490909 144.368182,94.8472727 148.336364,95.8590909 C151.669091,96.72 154.701818,98.4418182 157.848182,99.8281818 C160.634545,97.1136364 161.791818,101.667273 163.551818,102.379091 C163.963636,104.476364 160.543636,109.527273 160.543636,109.527273 C157.585455,106.643636 156.564545,102.508182 151.695455,100.598182 C149.825455,101.198182 148.255455,108.558182 146.657273,110.711818 C145.534545,109.065455 144.629091,106.343636 143.468182,104.658182 C141.371818,101.887273 138.854545,98.9318182 135.293636,97.7954545 C134.806364,97.64 132.945455,96.8863636 132.945455,98.4018182 C132.683636,105.104545 132.197273,110.959091 130.511818,117.063636 C124.709091,118.448182 120.293636,123.704545 117.415455,128.552727 C116.785455,129.48 116.315455,130.47 115.804545,131.204545 C109.737273,140.004545 106.024545,149.667273 101.605455,159.29 C97.4109091,169.026364 89.2590909,177.042727 79.9154545,181.128182 C76.4572727,182.535455 73.0790909,182.875455 69.4990909,183.187273 C65.7209091,183.516364 62.2309091,183.656364 58.2490909,183.360909 C55.7536364,183.201818 53.5881818,182.679091 51.5818182,182.113636 C46.5818182,180.707273 39.6990909,179.022727 35.7863636,171.848182 C33.5654545,167.437273 33.0445455,164.045455 32.7445455,159.664545 C32.7445455,157.491818 32.9118182,155.169091 33.5136364,153.06 C35.5590909,143.931818 41.7318182,137.609091 48.9209091,132.142727 C52.89,127.387273 56.9718182,123.006364 60.6036364,117.763636 C63.59,113.477273 66.4854545,109.344545 71.1272727,106.014545 C80.9,99.0072727 92.8463636,94.6845455 108.589091,92.2654545 C113.499091,91.5109091 114.915455,91.3563636 119.763636,90.6745455 C123.892727,90.3718182 125.18,90.2581818 128.589091,89.1190909 C130.407273,88.3636364 135.975455,86.1681815 138.619091,86.1681815" id="Fill-7" fill="#F5BA54"></path>
                <path d="M172.263636,96.2327273 C172.390909,98.73 172.112727,101.263636 171.922727,103.619091 C171.876364,104.845455 171.933636,105.459091 171.837273,107.710909 C171.795455,109.613636 171.276364,111.261818 173.428182,112.934545 C170.928182,111.943636 166.31,112.56 163.239091,112.372727 C165.748182,106.755455 169.005455,95.4463636 171.777273,90.0545455 L172.263636,96.2327273" id="Fill-8" fill="#FFFFFE"></path>
                <path d="M121.413636,97.3563636 C121.413636,97.3563636 106.98,105.011818 104.450909,108.627273 C101.999091,112.134545 99.5463636,116.041818 97.1127273,119.749091 C94.9381818,123.422727 93.2118182,125.722727 91.1581818,129.297273 C84.7181818,138.659091 78.5518182,149.55 68.7409091,155.466364 C66.4945455,156.589091 62.3263636,157.642727 60.0790909,156.07 C57.7754545,154.272727 56.5254545,150.920909 57.0090909,149.03 C58.6936364,152.025455 61.8909091,154.543636 64.1390909,154.613636 C70.4663636,154.810909 77.6036364,144.536364 77.6036364,144.536364 C77.6036364,144.536364 88.8372727,127.687273 99.8081818,107.167273 C101.207273,104.55 104.043636,102.795455 107.184545,101.475455 C108.608182,102.560909 121.413636,97.3563636 121.413636,97.3563636" id="Fill-9" fill="#262520"></path>
                <path d="M130.999091,102.025455 C132.603636,102.31 126.240909,103.760909 124.971818,104.845455 C118.455455,109.264545 107.371818,119.823636 107.371818,119.823636 C107.371818,119.823636 101.192727,135.924545 99.8827273,141.354545 C98.9845455,141.541818 101.492727,133.752727 100.856364,133.229091 C101.230909,130.869091 101.530909,128.510909 102.13,126.226364 C105.275455,117.464545 111.303636,111.098182 118.792727,104.471818 C120.483636,103.439091 120.438182,103.255455 125.861818,102.227273 C127.559091,101.754545 129.1,101.869091 130.999091,102.025455" id="Fill-10" fill="#262520"></path>
                <path d="M142.57,110.949091 C142.945455,112.435455 144.063636,115.219091 141.484545,115.63 C139.500909,116.083636 138.200909,116.363636 135.380909,116.341818 C135.42,116.095455 135.432727,115.872727 135.520909,115.617273 L135.568182,115.443636 C136.728182,111.772727 136.952727,103.909091 134.519091,99.79 C140.698182,100.726364 141.621818,108.238182 142.57,110.949091" id="Fill-11" fill="#FFFFFE"></path>
                <path d="M158.034545,113.270909 C156.011818,113.420909 154.085455,113.908182 152.207273,114.216364 C151.141818,114.415455 150.246364,114.429091 148.86,114.543636 C150.508182,112.110909 150.882727,105.557273 152.118182,102.972727 C156.237273,104.283636 157.248182,110.686364 158.034545,113.270909" id="Fill-12" fill="#FFFFFE"></path>
                <path d="M13.1990909,119.823636 C12.45,118.138182 2.27727273,117.327273 2.27727273,117.327273 C2.27727273,117.327273 11.5136364,112.41 13.1990909,111.210909 L13.3490909,113.458182 C13.3490909,115.255455 13.1990909,118.026364 13.1990909,119.823636" id="Fill-13" fill="#F5BA54"></path>
                <path d="M176.411818,116.602727 C178.684545,115.963636 179.820909,114.657273 179.820909,118.003636 C179.783636,123.209091 169.155455,126.563636 169.155455,126.563636 C169.155455,126.563636 158.627273,129.840909 151.354545,129.784545 L148.187273,129.933636 L142.943636,129.933636 C143.475455,129.519091 149.683636,126.788182 149.31,126.563636 L144.214545,127.511818 C143.436364,127.596364 142.017273,127.627273 141.11,127.649091 C140.33,127.668182 137.718182,127.321818 137.074545,127.170909 C136.292727,127.023636 133.943636,126.447273 132.497273,125.851818 C131.165455,125.503636 127.967273,123.754545 129.277273,126.189091 C130.01,127.435455 131.891818,128.246364 133.021818,128.998182 C134.518182,129.991818 138.627273,132.946364 138.172727,136.431818 C136.625455,149.124545 134.231818,153.817273 129.877273,164.764545 C128.134545,170.03 124.877273,171.393636 119.763636,172.832727 C110.741818,175.332727 106.711818,175.715455 104.952727,169.007273 C104.543636,166.965455 104.006364,163.893636 106.436364,158.055455 C108.682727,151.24 111.844545,145.855455 114.990909,138.628182 C118.117273,130.418182 125.710909,122.454545 125.710909,122.454545 C125.710909,122.454545 128.665455,119.613636 137.111818,118.514545 C148.551818,117 157.806364,116.571818 168.589091,115.522727 C170.726364,116.498182 173.311818,117.362727 176.411818,116.602727" id="Fill-14" fill="#F5BA54"></path>
                <path d="M26.1172727,117.950909 C26.3427273,120.909091 27.2036364,124.241818 26.6418182,127.499091 C26.1918182,131.468182 30.76,133.678182 32.7445455,136.299091 C33.6436364,137.272727 34.8418182,138.284545 36.0027273,138.995455 L36.0027273,139.52 L34.6863636,141.356364 C31.0163636,137.761818 28.4854545,134.415455 25.7427273,129.633636 C23.7127273,125.58 22.8218182,121.732727 22.1481818,117.763636 C21.1745455,117.277273 20.0145455,117.314545 18.9281818,117.052727 C21.0245455,116.565455 23.9454545,117.128182 26.1172727,117.950909" id="Fill-15" fill="#F5BA54"></path>
                <path d="M21.0709091,128.704545 C19.7972727,128.854545 17.58,127.35 16.5690909,128.922727 C16.3436364,126.975455 17.9163636,124.46 18.9281818,122.625455 C19.7518182,124.422727 20.5472701,126.758182 21.0709091,128.704545" id="Fill-16" fill="#791127"></path>
                <path d="M20.5309091,135.721818 C20.7718182,137.505455 21.0245455,139.301818 20.6845455,141.744545 C20.5290909,142.896364 20.0854545,145.01 19.19,145.099091 C17.4909091,145.267273 17.2636364,143.193636 15.9281818,142.29 L15.2581818,141.916364 C12.6372727,140.904545 2.43454545,142.568182 2.43454545,142.568182 C2.43454545,142.568182 14.4718182,135.138182 18.3663636,132.142727 C20.0145455,132.554545 20.3509091,134.386364 20.5309091,135.721818" id="Fill-17" fill="#F5BA54"></path>
                <path d="M147.093636,133.220909 C148.215455,133.205455 150.432727,133.003636 151.557273,132.891818 C155.675455,139.594545 158.134545,150.825455 157.339091,158.477273 C157.037273,160.517273 156.663636,161.543636 155.862727,163.071818 C154.081818,166.469091 150.531818,165.554545 149.839091,165.493636 C145.095455,164.729091 143.286364,162.454545 141.192727,159.287273 C137.983636,153.363636 138.742727,148.83 138.93,146.582727 C139.016364,145.550909 139.574545,140.598182 139.948182,137.983636 C140.305455,135.828182 140.493636,135.656364 140.672727,133.534545 L140.772727,132.517273 C143.243636,132.742727 144.270909,133.098182 147.093636,133.220909" id="Fill-18" fill="#F5BA54"></path>
                <path d="M32.3390909,143.938182 C32.3390909,143.938182 32.0745455,145.295455 30.6272727,146.54 C29.84,147.53 28.5809091,148.170909 27.6809091,148.477273 C25.85,148.943636 23.7409091,149.916364 22.0927273,147.340909 C21.8090909,146.582727 21.6618182,145.757273 22.2263636,144.916364 C22.9836364,144.234545 23.4927273,144.948182 23.7790909,144.007273 C23.8909091,143.483636 23.7790909,143.113636 23.7581818,142.215455 C23.8336364,140.192727 22.7563636,134.386364 23.6272727,132.517273 C25.1254545,136.636364 32.3390909,143.938182 32.3390909,143.938182" id="Fill-19" fill="#791127"></path>
                <path d="M124.763636,174.492727 C124.200909,175.877273 122.52,177.040909 121.283636,178.08 C120.463636,178.769091 119.280909,176.473636 118.457273,176.062727 C118.793636,175.163636 120.175455,174.663636 121.269091,174.493636 C122.363636,174.322727 123.996364,174.272727 124.763636,174.492727" id="Fill-20" fill="#791127"></path>
                <path d="M108.087273,176.688182 C105.654545,178.71 107.15,182.568182 102.036364,184.130909 C100.858182,184.490909 99.9354545,184.788182 99.0736364,184.638182 C98.9618182,183.327273 99.9909091,182.483636 99.4336364,181.233636 C98.68,179.543636 97.0081818,178.818182 95.19,178.363636 C93.4672727,178.065455 92.3190909,178.649091 90.8218182,178.873636 C91.3827273,177.863636 92.7654545,176.987273 93.6272727,176.2 C98.0081818,177.922727 103.258182,176.050909 108.087273,176.688182" id="Fill-21" fill="#791127"></path>
                <path d="M118.772727,180.163636 C118.915455,183.18 118.24,190.81 118.24,190.81 C118.24,190.81 112.739091,183.89 108.907273,183.428182 C107.708182,183.284545 108.344545,181.849091 108.764545,181.050909 C109.970909,178.85 112.313636,177.394545 114.726364,177.820909 C115.821818,177.899091 118.24,179.524545 118.772727,180.163636" id="Fill-22" fill="#F5BA54"></path>
                <path d="M94.9872727,182.136364 C96.1272727,182.819091 95.4027273,184.145455 95.0090909,184.994545 C94.2954545,187.562727 93.7963636,193.770909 92.7963636,196.052727 C92.5118182,195.196364 92.3645455,192.183636 91.5481818,191.058182 C90.5854545,189.558182 79.9136364,186.229091 90.4063636,182.282727 C91.9590909,181.698182 93.0145455,181.277273 94.5381818,181.853636 L94.9872727,182.136364" id="Fill-23" fill="#F5BA54"></path>
                <path d="M113.737273,73.2045455 L116.171818,76.3872727 C116.171818,76.3872727 114.111818,78.8209091 112.427273,77.8854545 L113.737273,73.2045455" id="Fill-24" fill="#FFFFFE"></path>
                <path d="M148.462727,83.5990909 C148.462727,83.5990909 159.981818,81.0681818 159.981818,88.1827273 L158.858182,89.1190909 C159.233636,88.6672727 160.683636,82.8481818 148.462727,83.5990909" id="Fill-25" fill="#FFFFFE"></path>
                <path d="M49.7072727,151.277273 C49.7072727,151.277273 56.0727273,172.62 76.6672727,158.391818 C76.6672727,158.391818 68.43,171.497273 58.6936364,167.753636 C58.6936364,167.753636 52.0363636,164.727273 49.7072727,151.277273" id="Fill-26" fill="#262520"></path>
                <path d="M43.7163636,70.0218182 C43.7163636,70.0218182 54.2009091,83.1272727 54.2009091,100.726364 C54.2009091,100.726364 60.1918182,83.5018182 43.7163636,70.0218182" id="Fill-27" fill="#262520"></path>
                <path d="M30.2363636,61.7845455 C30.2363636,61.7845455 18.4409091,98.2927273 22.3727273,109.527273 C22.3727273,109.527273 31.4309091,111.431818 35.1609091,115.250909 C35.1609091,115.250909 19.7636364,101.204545 33.0445455,62.3454545 L30.2363636,61.7845455" id="Fill-28" fill="#262520"></path>
                <path d="M134.550909,191.778182 C132.657273,191.778182 131.108182,190.229091 131.108182,188.336364 C131.108182,186.442727 132.657273,184.893636 134.550909,184.893636 C136.444545,184.893636 137.993636,186.442727 137.993636,188.336364 C137.993636,190.229091 136.444545,191.778182 134.550909,191.778182 Z M134.550909,184.16 C132.253636,184.16 130.375455,186.04 130.375455,188.336364 C130.375455,190.632727 132.253636,192.511818 134.550909,192.511818 C136.847273,192.511818 138.727273,190.632727 138.727273,188.336364 C138.727273,186.04 136.847273,184.16 134.550909,184.16 L134.550909,184.16 Z" id="Fill-29" fill="#262520"></path>
                <path d="M135.01,187.939091 C135.126364,187.919091 135.229091,187.881818 135.316364,187.824545 C135.402727,187.768182 135.473636,187.692727 135.525455,187.598182 C135.579091,187.501818 135.604545,187.378182 135.604545,187.227273 C135.604545,187.017273 135.546364,186.846364 135.43,186.714545 C135.312727,186.581818 135.124545,186.515455 134.864545,186.515455 L133.488182,186.515455 L133.488182,187.968182 L134.641818,187.968182 C134.77,187.968182 134.892727,187.958182 135.01,187.939091 Z M134.892727,186.05 C135.29,186.05 135.6,186.146364 135.822727,186.340909 C136.046364,186.535455 136.158182,186.801818 136.158182,187.14 C136.158182,187.392727 136.101818,187.613636 135.986364,187.804545 C135.871818,187.994545 135.688182,188.125455 135.434545,188.195455 L135.434545,188.207273 C135.556364,188.23 135.654545,188.269091 135.73,188.323636 C135.806364,188.377273 135.865455,188.442727 135.910909,188.518182 C135.955455,188.594545 135.988182,188.679091 136.009091,188.772727 C136.030909,188.865455 136.048182,188.962727 136.06,189.063636 C136.067273,189.164545 136.073636,189.268182 136.076364,189.372727 C136.080909,189.478182 136.090909,189.580909 136.106364,189.682727 C136.120909,189.783636 136.144545,189.879091 136.173636,189.970909 C136.202727,190.061818 136.246364,190.142727 136.303636,190.212727 L135.686364,190.212727 C135.647273,190.17 135.621818,190.111818 135.607273,190.037273 C135.593636,189.964545 135.585455,189.880909 135.581818,189.79 C135.578182,189.699091 135.573636,189.600909 135.57,189.495455 C135.565455,189.39 135.553636,189.287273 135.535455,189.186364 C135.519091,189.084545 135.5,188.989091 135.476364,188.898182 C135.452727,188.806364 135.416364,188.726364 135.365455,188.659091 C135.315455,188.59 135.248182,188.536364 135.167273,188.495455 C135.086364,188.454545 134.977273,188.434545 134.840909,188.434545 L133.488182,188.434545 L133.488182,190.212727 L132.933636,190.212727 L132.933636,186.05 L134.892727,186.05 L134.892727,186.05 Z" id="Fill-30" fill="#262520"></path>
            </g>
        </g>
    </g>
</svg>