<?xml version="1.0" encoding="UTF-8"?>
<svg width="200px" height="200px" viewBox="0 0 200 200" version="1.1" xmlns="http://www.w3.org/2000/svg" xmlns:xlink="http://www.w3.org/1999/xlink">
    <!-- Generator: Sketch 54.1 (76490) - https://sketchapp.com -->
    <title>rensselaer</title>
    <desc>Created with Sketch.</desc>
    <g id="rensselaer" stroke="none" stroke-width="1" fill="none" fill-rule="evenodd">
        <g id="rensselaer_BGL">
            <g id="rensselaer" transform="translate(0.000000, 13.000000)">
                <path d="M19.2873563,1.74311927 C24.6666667,0.642201835 30.3908046,0.366972477 35.8850575,0.275229358 C37.7471264,0.137614679 39.5402299,0.298165138 41.4022989,0.366972477 C45.7241379,0.688073394 50.137931,1.44495413 54.137931,3.11926606 C57.5862069,4.56422018 60.6896552,6.65137615 63.0574713,9.56422018 C65.5172414,12.6146789 67.0114943,16.4908257 67.1264368,20.412844 C67.1034483,21.7201835 67.1724138,22.9587156 67.7471264,24.1513761 C68.7356322,26.3073394 70.8045977,27.8669725 72.9195402,28.8073394 C72.2068966,29.2201835 71.4252874,29.4954128 70.7356322,30 C69.1724138,31.0091743 67.908046,32.3853211 67.3563218,34.1743119 C67.0114943,35.3440367 67.1954023,36.3761468 67.0344828,37.6146789 C66.8045977,40.1376147 65.9310345,42.5688073 64.5747126,44.7018349 C62.1149425,48.5779817 58.2068966,51.4449541 54.137931,53.4633028 C57.0114943,56.1238532 59.1494253,59.7247706 60.6896552,63.3027523 C62.5287356,67.6146789 63.7471264,72.2018349 64.4137931,76.8577982 C64.6666667,78.5091743 65.9770115,80.0458716 67.0804598,81.2385321 C69.4712644,83.7155963 72.3678161,85.7568807 75.4022989,87.3623853 C73.3333333,89.4495413 70.8965517,91.0550459 68,91.7431193 C64.2758621,92.6376147 60.1609195,91.9954128 56.5747126,90.8027523 C54.2068966,91.7201835 51.7471264,92.293578 49.1954023,92.2706422 C47.7471264,92.3165138 46.4137931,91.9954128 44.9655172,91.8348624 C45.2873563,85.0458716 45.2183908,78.1880734 43.4252874,71.5825688 C42.4367816,68.0963303 40.8505747,64.4266055 38.1609195,61.9266055 C35.8850575,59.6330275 32.6896552,58.3256881 29.4712644,58.2568807 C29.4712644,64.3119266 29.4712644,70.3440367 29.4712644,76.3990826 C29.4712644,78.2798165 30.2068966,79.9311927 31.1494253,81.5366972 C32.6896552,84.0366972 34.7586207,86.2385321 37.2643678,87.7752294 C34.6896552,90.0917431 31.4712644,91.6513761 28.0229885,92.087156 C24.7586207,92.4311927 21.6321839,91.8348624 18.5517241,90.8027523 C15.2643678,92.0412844 11.7011494,92.6376147 8.22988506,91.7889908 C5.31034483,91.0550459 2.87356322,89.266055 0.988505747,86.9495413 C3.70114943,86.3761468 6,84.5642202 7.37931034,82.1559633 C8.43678161,80.2981651 9.12643678,78.0963303 9.03448276,75.940367 C9.03448276,68.2110092 9.03448276,60.5045872 9.03448276,52.7752294 C8.98850575,50.9862385 8.59770115,49.266055 7.51724138,47.7981651 C6.48275862,46.3761468 4.8045977,45.3669725 3.2183908,44.6559633 C4.73563218,44.3119266 6.16091954,43.7614679 7.28735632,42.6146789 C8.59770115,41.3302752 9.14942529,39.4266055 9.12643678,37.6376147 C9.12643678,30.2981651 9.12643678,22.9587156 9.12643678,15.6192661 C9.12643678,13.440367 8.32183908,11.3073394 6.94252874,9.61009174 C5.28735632,7.45412844 2.8045977,6.16972477 0.137931034,5.75688073 C2.29885057,3.25688073 5.37931034,1.53669725 8.55172414,0.733944954 C12.2298851,-0.229357798 15.7931034,0.481651376 19.2873563,1.74311927 Z M38.1609195,15.2522936 C35.7471264,15.2293578 33.1724138,15.2752294 30.8275862,15.9633028 C30.2528736,16.1697248 29.3563218,16.3990826 29.4712644,17.2018349 C29.4712644,24.4266055 29.4712644,31.7431193 29.4712644,38.9908257 C29.4712644,39.4954128 29.4252874,40 29.5172414,40.5045872 C29.9770115,41.3073394 30.9195402,41.8348624 31.7471264,42.1788991 C33.6091954,42.912844 35.7241379,43.0963303 37.7011494,43.0733945 C39.9310345,43.0963303 42.3678161,42.6605505 44.2068966,41.353211 C45.7241379,40.3211009 46.6896552,38.7155963 47.1264368,36.9495413 C47.6781609,35.0229358 47.2643678,32.7752294 45.908046,31.2844037 C44.8505747,30.0688073 43.3793103,29.3348624 41.908046,28.7385321 C43.4482759,28.0733945 45.1494253,27.2706422 46.183908,25.8944954 C47.1494253,24.6559633 47.3793103,23.0504587 47.3563218,21.5366972 C47.1494253,19.5412844 45.954023,17.706422 44.2298851,16.6513761 C42.4597701,15.5733945 40.2068966,15.1834862 38.1609195,15.2522936 Z" id="Shape" fill="#232020" fill-rule="nonzero"></path>
                <path d="M9.70114943,3.34862385 C12.8275862,2.75229358 16.2298851,3.53211009 19.0804598,4.81651376 C21.3563218,4.17431193 23.6321839,3.89908257 25.9770115,3.66972477 C29.2643678,3.34862385 32.5517241,3.23394495 35.862069,3.14220183 C39.8850575,3.02752294 43.9770115,3.32568807 47.9310345,4.19724771 C52.0229885,5.1146789 56.1609195,6.81192661 59.2413793,9.70183486 C61.816092,12.087156 63.5862069,15.3211009 64.1149425,18.8073394 C64.3908046,20.3211009 64.1609195,21.8348624 64.4137931,23.3486239 C64.7356322,25.412844 65.4482759,27.3853211 67.0344828,28.8302752 C64.9655172,30.6422018 64.2298851,33.3256881 64.2528736,36.0091743 C64.2298851,39.587156 62.7356322,42.912844 60.3218391,45.5045872 C57.1264368,48.9449541 52.5977011,51.3073394 48.183908,52.7752294 C49.0344828,53.233945 49.8850575,53.6926606 50.6666667,54.2889908 C53.5632184,56.3990826 55.7471264,59.6100917 57.3103448,62.7981651 C59.2413793,66.766055 60.5057471,71.1238532 61.2873563,75.4587156 C61.4942529,76.559633 61.5402299,77.5458716 61.908046,78.5550459 C62.5057471,80.1376147 63.4942529,81.5137615 64.6206897,82.7752294 C66.3218391,84.6559633 68.2758621,86.2155963 70.3908046,87.6376147 C69.2413793,88.3715596 67.9770115,88.853211 66.6206897,89.0825688 C63.2643678,89.6330275 59.6551724,88.8990826 56.5057471,87.6834862 C53.7931034,88.9220183 50.9195402,89.6100917 47.9310345,89.3348624 C48.0229885,86.5825688 48.0229885,83.8073394 47.862069,81.0779817 C47.5172414,75.940367 46.6436782,70.6880734 44.4597701,65.9633028 C42.8965517,62.6376147 40.6896552,59.7018349 37.5402299,57.7522936 C34.3448276,55.7568807 30.3678161,54.9770642 26.6436782,55.5504587 C26.5977011,62.5688073 26.6436782,69.587156 26.6206897,76.6055046 C26.6206897,77.2018349 26.6896552,77.7522936 26.8275862,78.3256881 C27.7011494,81.8807339 29.7241379,85.1834862 32.4367816,87.6146789 C30.8735632,88.7155963 28.7816092,89.1972477 26.8965517,89.266055 C24.0689655,89.3577982 21.1954023,88.7385321 18.5747126,87.6834862 C16.7126437,88.4174312 14.8735632,89.059633 12.8735632,89.2201835 C10.5747126,89.4495413 7.88505747,89.0825688 6.02298851,87.6376147 C8.57471264,86.1697248 9.97701149,83.7614679 10.9425287,81.0779817 C11.4252874,79.6559633 11.908046,78.1192661 11.9310345,76.6055046 C11.908046,68.8073394 11.9310345,61.0091743 11.908046,53.2110092 C11.862069,50.3669725 11.3333333,47.4311927 9.26436782,45.3211009 C10.1609195,44.7018349 10.7356322,43.7844037 11.1264368,42.7981651 C11.9310345,40.7110092 12.045977,38.2568807 12.0229885,36.0321101 C12,33.5091743 12.0689655,30.9862385 11.9770115,28.4633028 C11.9770115,23.9449541 11.9770115,19.4495413 11.9770115,14.9311927 C11.9310345,13.646789 11.5632184,12.3623853 11.1494253,11.146789 C10.2068966,8.50917431 8.50574713,6.16972477 5.95402299,4.8853211 C7.12643678,4.12844037 8.36781609,3.57798165 9.70114943,3.34862385 Z M38.1609195,15.2522936 C35.7471264,15.2293578 33.1724138,15.2752294 30.8275862,15.9633028 C30.2528736,16.1697248 29.3563218,16.3990826 29.4712644,17.2018349 C29.4712644,24.4266055 29.4712644,31.7431193 29.4712644,38.9908257 C29.4712644,39.4954128 29.4252874,40 29.5172414,40.5045872 C29.9770115,41.3073394 30.9195402,41.8348624 31.7471264,42.1788991 C33.6091954,42.912844 35.7241379,43.0963303 37.7011494,43.0733945 C39.9310345,43.0963303 42.3678161,42.6605505 44.2068966,41.353211 C45.7241379,40.3211009 46.6896552,38.7155963 47.1264368,36.9495413 C47.6781609,35.0229358 47.2643678,32.7752294 45.908046,31.2844037 C44.8505747,30.0688073 43.3793103,29.3348624 41.908046,28.7385321 C43.4482759,28.0733945 45.1494253,27.2706422 46.183908,25.8944954 C47.1494253,24.6559633 47.3793103,23.0504587 47.3563218,21.5366972 C47.1494253,19.5412844 45.954023,17.706422 44.2298851,16.6513761 C42.4597701,15.5733945 40.2068966,15.1834862 38.1609195,15.2522936 Z" id="Shape" fill="#EE2724" fill-rule="nonzero"></path>
                <path d="M44.0689655,13.3715596 C46.2528736,14.2431193 48.091954,15.8486239 49.1494253,17.9357798 C49.816092,19.2431193 50.3218391,20.7798165 50.2068966,22.2477064 C50.0689655,24.6559633 49.4252874,27.0642202 47.6321839,28.7614679 C49.4942529,30.3899083 50.2068966,32.9357798 50.2068966,35.3211009 C50.1149425,38.7844037 48.2988506,42.2477064 45.2873563,44.059633 C42.5287356,45.7568807 39.0114943,46.1238532 35.8390805,45.8944954 C33.3103448,45.733945 30.5057471,45.1834862 28.4827586,43.5779817 C27.5632184,42.8211009 26.5287356,41.6284404 26.5977011,40.3669725 C26.6206897,33.0275229 26.5977011,25.6880734 26.5977011,18.3486239 C26.5977011,17.4770642 26.5057471,16.6055046 26.8275862,15.7798165 C27.2183908,14.7018349 28.137931,13.9678899 29.1724138,13.5321101 C30.9195402,12.7752294 33.0114943,12.5917431 34.8965517,12.4541284 C37.954023,12.2477064 41.1954023,12.1788991 44.0689655,13.3715596 Z M38.1609195,15.2522936 C35.7471264,15.2293578 33.1724138,15.2752294 30.8275862,15.9633028 C30.2528736,16.1697248 29.3563218,16.3990826 29.4712644,17.2018349 C29.4712644,24.4266055 29.4712644,31.7431193 29.4712644,38.9908257 C29.4712644,39.4954128 29.4252874,40 29.5172414,40.5045872 C29.9770115,41.3073394 30.9195402,41.8348624 31.7471264,42.1788991 C33.6091954,42.912844 35.7241379,43.0963303 37.7011494,43.0733945 C39.9310345,43.0963303 42.3678161,42.6605505 44.2068966,41.353211 C45.7241379,40.3211009 46.6896552,38.7155963 47.1264368,36.9495413 C47.6781609,35.0229358 47.2643678,32.7752294 45.908046,31.2844037 C44.8505747,30.0688073 43.3793103,29.3348624 41.908046,28.7385321 C43.4482759,28.0733945 45.1494253,27.2706422 46.183908,25.8944954 C47.1494253,24.6559633 47.3793103,23.0504587 47.3563218,21.5366972 C47.1494253,19.5412844 45.954023,17.706422 44.2298851,16.6513761 C42.4597701,15.5733945 40.2068966,15.1834862 38.1609195,15.2522936 Z" id="Shape" fill="#232020" fill-rule="nonzero"></path>
                <path d="M89.4252874,41.7431193 C91.2643678,41.9495413 93.0114943,42.4770642 94.7586207,43.0963303 C95.7011494,43.0045872 96.6206897,42.7293578 97.5862069,42.5917431 C102.850575,41.8119266 108.252874,41.6513761 113.563218,41.5825688 C118.413793,41.6743119 123.402299,42.2477064 128,43.853211 C131.724138,45.1605505 135.149425,47.1330275 137.83908,50.0917431 C140.988506,53.5321101 142.781609,58.1651376 142.643678,62.8440367 C142.666667,64.4495413 143.034483,66.1926606 144.16092,67.4082569 C145.425287,68.853211 147.08046,69.587156 148.827586,70.2752294 C147.195402,70.7110092 145.701149,71.3990826 144.505747,72.5917431 C143.287356,73.8302752 142.62069,75.5504587 142.643678,77.293578 C142.643678,80.6192661 141.609195,83.8990826 139.747126,86.6743119 C137.103448,90.6192661 132.988506,93.6009174 128.758621,95.6651376 C123.103448,98.3715596 116.666667,99.9311927 110.367816,99.4954128 C108.574713,99.4954128 106.781609,99.4036697 105.011494,99.3577982 C105.034483,105.068807 105.011494,110.802752 105.011494,116.513761 C105.034483,117.385321 104.942529,118.188073 105.149425,119.036697 C105.678161,121.238532 106.781609,123.325688 108.206897,125.091743 C109.517241,126.697248 111.195402,127.866972 112.850575,129.288991 C110.666667,130.619266 108.850575,132.110092 106.505747,132.844037 C102.781609,134.013761 98.7356322,133.577982 95.0574713,132.454128 C94.5977011,132.33945 94.1609195,132.06422 93.7011494,132.270642 C91.5172414,133.073394 89.2413793,133.555046 86.9195402,133.53211 C84.4827586,133.463303 81.816092,132.844037 79.8850575,131.307339 C78.7586207,130.321101 77.6551724,129.288991 76.5517241,128.279817 C77.862069,127.66055 79.1494253,126.972477 80.4137931,126.284404 C82.0689655,125.321101 83.0574713,123.279817 83.7241379,121.582569 C84.091954,120.481651 84.5287356,119.288991 84.5517241,118.119266 C84.5517241,110.16055 84.5517241,102.201835 84.5517241,94.266055 C84.5517241,92.5458716 84.091954,90.7798165 83.1034483,89.3577982 C82.0689655,87.8440367 80.5287356,86.766055 78.8735632,86.0091743 C80.5517241,85.5733945 82.3908046,84.8853211 83.4942529,83.5091743 C84.4827586,82.2706422 84.6206897,80.6880734 84.6896552,79.1513761 C84.6896552,71.6513761 84.6896552,64.1513761 84.6896552,56.6743119 C84.5057471,53.8761468 83.2643678,51.0321101 80.9425287,49.3348624 C79.4022989,48.1880734 77.6781609,47.6376147 75.816092,47.2247706 C77.1954023,45.2293578 79.2183908,43.853211 81.4482759,42.9587156 C83.9770115,41.9036697 86.6666667,41.3761468 89.4252874,41.7431193 Z M111.954023,56.6055046 C110.091954,56.6972477 108.183908,56.7431193 106.390805,57.2477064 C105.954023,57.4082569 105.356322,57.5917431 105.08046,58.0045872 C104.942529,58.4174312 105.011494,58.9220183 104.988506,59.3577982 C104.988506,66.1697248 104.988506,72.9587156 104.988506,79.7706422 C105.011494,80.4587156 104.942529,81.146789 105.034483,81.8119266 C105.402299,82.5458716 106.229885,83.0275229 106.942529,83.3715596 C108.942529,84.266055 111.172414,84.4036697 113.333333,84.4266055 C115.655172,84.3577982 118.068966,83.9678899 119.954023,82.5 C121.425287,81.3761468 122.298851,79.7477064 122.689655,77.9587156 C123.103448,76.3990826 122.758621,74.6559633 121.931034,73.2798165 C120.988506,71.6972477 119.310345,70.733945 117.632184,70.0688073 C119.103448,69.2431193 120.574713,68.6697248 121.678161,67.2706422 C122.643678,66.0321101 122.850575,64.587156 122.873563,63.0733945 C122.712644,60.8256881 121.310345,58.8073394 119.333333,57.7752294 C116.988506,56.559633 114.528736,56.5366972 111.954023,56.6055046 Z" id="Shape" fill="#232020" fill-rule="nonzero"></path>
                <path d="M86.2068966,44.5642202 C89.1264368,44.3119266 91.862069,45 94.5287356,46.146789 C95.1494253,46.1009174 95.7471264,45.8486239 96.3678161,45.7568807 C99.4482759,45.1605505 102.643678,44.9082569 105.770115,44.7477064 C111.241379,44.4724771 116.436782,44.266055 121.862069,45.2752294 C126.206897,46.0550459 130.643678,47.6146789 134.068966,50.4816514 C137.126437,53.0045872 139.218391,56.6513761 139.701149,60.5963303 C139.885057,61.9724771 139.724138,63.3486239 139.954023,64.7247706 C140.252874,66.766055 141.011494,68.853211 142.597701,70.2522936 C141.126437,71.4908257 140.321839,73.2568807 140,75.1146789 C139.724138,76.6284404 139.908046,78.1422018 139.609195,79.6559633 C139.126437,82.4770642 137.724138,85.0229358 135.83908,87.1330275 C133.126437,90.1605505 129.425287,92.4311927 125.701149,94.0137615 C122.022989,95.5275229 118.068966,96.5366972 114.091954,96.7201835 C112.781609,96.8119266 111.494253,96.6743119 110.183908,96.6972477 C107.517241,96.5825688 104.873563,96.559633 102.206897,96.3761468 C102.206897,103.256881 102.206897,110.137615 102.206897,117.018349 C102.206897,117.798165 102.16092,118.646789 102.321839,119.426606 C103.149425,123.119266 105.218391,126.536697 108.045977,129.059633 C106.735632,129.885321 105.287356,130.366972 103.747126,130.59633 C100.413793,130.986239 97.1954023,130.344037 94.1149425,129.105505 C91.816092,130.068807 89.4942529,130.756881 86.9655172,130.688073 C85.0344828,130.711009 83.1954023,130.206422 81.6091954,129.105505 C82.1609195,128.646789 82.7816092,128.325688 83.2873563,127.821101 C84.8275862,126.399083 85.816092,124.472477 86.5287356,122.522936 C87.0344828,121.009174 87.5862069,119.311927 87.4942529,117.706422 C87.4942529,109.747706 87.4942529,101.811927 87.4942529,93.853211 C87.4022989,91.2385321 86.7356322,88.6697248 84.9195402,86.6972477 C85.7471264,86.0550459 86.2758621,85.3211009 86.6896552,84.3348624 C87.5862069,82.087156 87.7011494,79.4724771 87.6091954,77.1100917 C87.6091954,70.2293578 87.6091954,63.3486239 87.6091954,56.4678899 C87.5862069,55.0917431 87.1954023,53.6926606 86.7356322,52.3853211 C85.7931034,49.8165138 84.1149425,47.5458716 81.6321839,46.3073394 C82.8505747,45.2293578 84.5747126,44.7018349 86.2068966,44.5642202 Z M111.954023,56.6055046 C110.091954,56.6972477 108.183908,56.7431193 106.390805,57.2477064 C105.954023,57.4082569 105.356322,57.5917431 105.08046,58.0045872 C104.942529,58.4174312 105.011494,58.9220183 104.988506,59.3577982 C104.988506,66.1697248 104.988506,72.9587156 104.988506,79.7706422 C105.011494,80.4587156 104.942529,81.146789 105.034483,81.8119266 C105.402299,82.5458716 106.229885,83.0275229 106.942529,83.3715596 C108.942529,84.266055 111.172414,84.4036697 113.333333,84.4266055 C115.655172,84.3577982 118.068966,83.9678899 119.954023,82.5 C121.425287,81.3761468 122.298851,79.7477064 122.689655,77.9587156 C123.103448,76.3990826 122.758621,74.6559633 121.931034,73.2798165 C120.988506,71.6972477 119.310345,70.733945 117.632184,70.0688073 C119.103448,69.2431193 120.574713,68.6697248 121.678161,67.2706422 C122.643678,66.0321101 122.850575,64.587156 122.873563,63.0733945 C122.712644,60.8256881 121.310345,58.8073394 119.333333,57.7752294 C116.988506,56.559633 114.528736,56.5366972 111.954023,56.6055046 Z" id="Shape" fill="#EE2724" fill-rule="nonzero"></path>
                <path d="M113.793103,53.7385321 C116.367816,53.6697248 119.08046,54.1972477 121.287356,55.5963303 C122.988506,56.6513761 124.298851,58.2568807 125.057471,60.1146789 C125.563218,61.3761468 125.885057,62.6605505 125.701149,64.0366972 C125.494253,66.3073394 124.850575,68.4862385 123.172414,70.1146789 C124.390805,71.2385321 125.149425,72.7293578 125.494253,74.3577982 C126.45977,78.5779817 124.413793,83.3486239 120.666667,85.5275229 C118.367816,86.9036697 115.54023,87.3394495 112.896552,87.3394495 C110.436782,87.293578 107.885057,87.0183486 105.655172,85.9633028 C104.275862,85.3211009 102.91954,84.2201835 102.321839,82.7981651 C102,82.087156 102.091954,81.2844037 102.091954,80.5275229 C102.091954,73.4174312 102.091954,66.3073394 102.091954,59.1972477 C102.114943,58.1651376 102.183908,57.1330275 102.850575,56.2844037 C103.655172,55.206422 104.965517,54.7247706 106.229885,54.3807339 C108.643678,53.7844037 111.287356,53.7155963 113.793103,53.7385321 Z M111.954023,56.6055046 C110.091954,56.6972477 108.183908,56.7431193 106.390805,57.2477064 C105.954023,57.4082569 105.356322,57.5917431 105.08046,58.0045872 C104.942529,58.4174312 105.011494,58.9220183 104.988506,59.3577982 C104.988506,66.1697248 104.988506,72.9587156 104.988506,79.7706422 C105.011494,80.4587156 104.942529,81.146789 105.034483,81.8119266 C105.402299,82.5458716 106.229885,83.0275229 106.942529,83.3715596 C108.942529,84.266055 111.172414,84.4036697 113.333333,84.4266055 C115.655172,84.3577982 118.068966,83.9678899 119.954023,82.5 C121.425287,81.3761468 122.298851,79.7477064 122.689655,77.9587156 C123.103448,76.3990826 122.758621,74.6559633 121.931034,73.2798165 C120.988506,71.6972477 119.310345,70.733945 117.632184,70.0688073 C119.103448,69.2431193 120.574713,68.6697248 121.678161,67.2706422 C122.643678,66.0321101 122.850575,64.587156 122.873563,63.0733945 C122.712644,60.8256881 121.310345,58.8073394 119.333333,57.7752294 C116.988506,56.559633 114.528736,56.5366972 111.954023,56.6055046 Z" id="Shape" fill="#232020" fill-rule="nonzero"></path>
                <path d="M158.16092,83.1192661 C160.827586,83.5779817 163.701149,84.0137615 166.206897,85.1376147 C169.586207,83.3256881 173.448276,82.706422 177.241379,83.0504587 C181.931034,83.5550459 186.505747,85.5733945 190.206897,88.440367 C190.344828,88.5779817 190.482759,88.6926606 190.62069,88.853211 C187.885057,88.8761468 185.241379,89.266055 182.712644,90.3440367 C180.896552,91.1238532 179.195402,92.3165138 178.045977,93.9449541 C176.873563,95.5963303 176.321839,97.5688073 176.321839,99.5642202 C176.321839,106.444954 176.321839,113.325688 176.321839,120.206422 C176.344828,122.316514 177.402299,124.220183 178.988506,125.573394 C181.172414,127.431193 184.137931,128.417431 186.91954,128.899083 C184.022989,129.495413 181.287356,130.321101 178.988506,132.270642 C177.402299,133.623853 176.344828,135.527523 176.321839,137.637615 C176.298851,144.518349 176.321839,151.399083 176.321839,158.279817 C176.321839,159.724771 176.597701,161.146789 177.195402,162.454128 C178.022989,164.288991 179.471264,165.711009 181.195402,166.720183 C184,168.37156 187.517241,168.96789 190.735632,168.96789 C186.781609,172.133028 181.83908,174.357798 176.781609,174.770642 C173.126437,175 169.448276,174.380734 166.206897,172.637615 C162.965517,174.357798 159.287356,175.022936 155.632184,174.770642 C150.551724,174.334862 145.609195,172.110092 141.678161,168.922018 C143.977011,168.944954 146.298851,168.623853 148.505747,167.912844 C150.689655,167.155963 152.735632,165.986239 154.183908,164.12844 C155.494253,162.454128 156.091954,160.366972 156.091954,158.256881 C156.091954,151.834862 156.091954,145.412844 156.091954,138.990826 C156.091954,137.844037 156.114943,136.766055 155.770115,135.665138 C155.287356,134.174312 154.298851,132.912844 153.057471,131.949541 C150.850575,130.229358 148.183908,129.40367 145.471264,128.899083 C148.390805,128.325688 151.103448,127.5 153.425287,125.550459 C155.011494,124.197248 156.045977,122.293578 156.091954,120.183486 C156.114943,113.463303 156.091954,106.720183 156.091954,100 C156.091954,98.5091743 155.931034,97.0642202 155.333333,95.6880734 C154.436782,93.5091743 152.689655,91.8577982 150.62069,90.7568807 C147.931034,89.3577982 144.735632,88.8302752 141.724138,88.8302752 C144.965517,86.1238532 148.965517,84.2201835 153.103448,83.3486239 C154.781609,83.0504587 156.482759,82.7981651 158.16092,83.1192661 Z" id="Shape" fill="#232020" fill-rule="nonzero"></path>
                <path d="M199.931034,84.1055046 C199.931034,85.3899083 199.931034,86.6743119 199.931034,87.9587156 L199.195402,87.9357798 C199.195402,86.9724771 199.195402,86.0091743 199.195402,85.0458716 C198.850575,85.9862385 198.574713,86.9724771 198.183908,87.8899083 L197.563218,87.9816514 C197.218391,87.0183486 196.873563,86.0321101 196.574713,85.0458716 C196.528736,86.0091743 196.528736,86.9724771 196.528736,87.9357798 C196.275862,87.9357798 196.022989,87.9357798 195.793103,87.9357798 C195.793103,86.6513761 195.793103,85.3899083 195.793103,84.1055046 C196.183908,84.1055046 196.551724,84.1055046 196.942529,84.1284404 C197.241379,85 197.563218,85.8715596 197.862069,86.7431193 C198.183908,85.8715596 198.45977,84.9770642 198.804598,84.1284404 C199.195402,84.1055046 199.563218,84.1055046 199.931034,84.1055046 Z" id="Shape" fill="#232020" fill-rule="nonzero"></path>
                <path d="M191.954023,84.1284404 C193.034483,84.1284404 194.137931,84.1284404 195.218391,84.1284404 C195.218391,84.3577982 195.218391,84.587156 195.241379,84.793578 C194.804598,84.793578 194.390805,84.793578 193.954023,84.793578 C193.954023,85.8486239 193.954023,86.9036697 193.954023,87.9587156 C193.701149,87.9587156 193.425287,87.9587156 193.172414,87.9587156 C193.172414,86.9036697 193.172414,85.8486239 193.172414,84.793578 C192.758621,84.793578 192.367816,84.793578 191.954023,84.793578 C191.954023,84.5642202 191.954023,84.3348624 191.954023,84.1284404 Z" id="Shape" fill="#232020" fill-rule="nonzero"></path>
                <path d="M158.390805,85.8715596 C161.241379,86.0550459 163.977011,86.7889908 166.252874,88.6009174 C168.45977,86.7889908 171.218391,86.0779817 174.022989,85.8715596 C176.91954,85.6651376 180.091954,86.0550459 182.666667,87.4770642 C179.885057,88.0275229 177.333333,89.4724771 175.678161,91.8119266 C173.770115,94.4954128 173.402299,97.7293578 173.494253,100.917431 C173.425287,103.142202 173.448276,105.344037 173.425287,107.568807 C173.310345,109.793578 173.471264,111.995413 173.310345,114.220183 C173.264368,116.055046 173.333333,117.889908 173.264368,119.724771 C173.264368,122.614679 174.137931,125.504587 176.45977,127.33945 C177.333333,128.073394 178.321839,128.440367 179.333333,128.944954 C177.287356,129.633028 175.517241,130.917431 174.482759,132.821101 C173.37931,134.83945 173.172414,137.178899 173.287356,139.426606 C173.241379,142.568807 173.402299,145.688073 173.356322,148.830275 C173.448276,150.894495 173.37931,152.958716 173.425287,155.022936 C173.54023,156.972477 173.333333,158.807339 173.655172,160.756881 C174.045977,163.486239 175.241379,166.123853 177.402299,167.912844 C178.896552,169.174312 180.666667,169.931193 182.574713,170.344037 C180.62069,171.536697 178.091954,171.926606 175.83908,171.995413 C172.45977,172.018349 168.896552,171.444954 166.229885,169.220183 C163.977011,171.03211 161.218391,171.788991 158.367816,171.949541 C155.517241,172.155963 152.321839,171.766055 149.793103,170.344037 C152.505747,169.793578 155.011494,168.440367 156.643678,166.146789 C158.229885,164.013761 158.873563,161.307339 158.91954,158.692661 C158.91954,151.743119 158.91954,144.770642 158.91954,137.821101 C158.896552,135.688073 158.367816,133.509174 157.034483,131.788991 C155.954023,130.366972 154.45977,129.472477 152.781609,128.922018 C154.114943,128.37156 155.37931,127.798165 156.390805,126.720183 C158.16092,124.977064 158.896552,122.362385 158.896552,119.931193 C158.896552,113.738532 158.896552,107.545872 158.896552,101.353211 C158.896552,99.8853211 158.965517,98.4633028 158.712644,96.9954128 C158.367816,94.6100917 157.448276,92.3623853 155.747126,90.6192661 C154.137931,88.9220183 152,87.8899083 149.724138,87.4541284 C152.390805,86.0779817 155.471264,85.6880734 158.390805,85.8715596 Z" id="Shape" fill="#EE2724" fill-rule="nonzero"></path>
            </g>
        </g>
    </g>
</svg>