<?xml version="1.0" encoding="UTF-8"?>
<svg width="200px" height="200px" viewBox="0 0 200 200" version="1.1" xmlns="http://www.w3.org/2000/svg" xmlns:xlink="http://www.w3.org/1999/xlink">
    <!-- Generator: Sketch 54.1 (76490) - https://sketchapp.com -->
    <title>st-lawrence</title>
    <desc>Created with Sketch.</desc>
    <g id="st-lawrence" stroke="none" stroke-width="1" fill="none" fill-rule="evenodd">
        <g id="st-lawrence_BGL" transform="translate(0.000000, 0.000000)">
            <g id="st-lawrence" transform="translate(0.000000, 17.000000)">
                <g id="g10" transform="translate(99.955375, 83.441323) scale(-1, 1) rotate(-180.000000) translate(-99.955375, -83.441323) translate(0.000000, 0.264172)" fill-rule="nonzero">
                    <g id="g12">
                        <path d="M53.5689411,100.808922 L53.7199451,100.795 C53.7702798,100.854259 53.8184726,100.907806 53.8638095,100.955999 C53.9091464,101.004192 53.9619799,101.033108 54.0223101,101.043103 C54.1133409,101.05774 54.2522075,101.043817 54.4389098,101.002764 C54.5820602,100.970636 54.7662637,100.940649 54.9900923,100.912804 C55.0579192,100.904237 55.1282449,100.896026 55.2032115,100.888172 C55.5262815,100.852831 55.9171784,100.841765 56.3766162,100.854259 C56.8356969,100.866753 57.3833096,100.924228 58.0190972,101.026325 C58.0305206,101.028467 58.0408732,101.030966 58.0522966,101.032751 C58.0612212,101.034179 58.0690749,101.035964 58.0779994,101.037391 C58.8683609,101.168047 59.5337781,101.350823 60.0703242,101.586075 C60.3059333,101.689957 60.5172676,101.801693 60.7121805,101.918784 C60.9720645,102.074429 61.19982,102.240069 61.3872363,102.419275 C61.7149471,102.732349 61.9473434,103.06363 62.0837111,103.41276 C62.2197218,103.761532 62.2879056,104.105308 62.2879056,104.4423 C62.2879056,104.881747 62.1968748,105.232304 62.0155272,105.494687 C61.8805875,105.689243 61.7149471,105.84703 61.5193202,105.969832 C61.4507794,106.01267 61.3793827,106.051581 61.3037022,106.085495 C61.0109757,106.217222 60.6782671,106.299328 60.3048624,106.3311 C59.9311007,106.363228 59.5480574,106.372867 59.1543046,106.360729 C58.7862547,106.349306 58.4285572,106.326102 58.0779994,106.295401 C58.0697888,106.294687 58.0605072,106.29433 58.0522966,106.293616 C58.0365894,106.292545 58.0194541,106.292188 58.0037469,106.29076 C57.6303422,106.256133 57.2972766,106.235785 57.0049071,106.229716 C56.7118237,106.223291 56.4747866,106.248993 56.293439,106.306825 C56.2548848,106.318962 56.2231133,106.335026 56.1927697,106.352519 C56.0796059,106.417133 56.0210606,106.516731 56.0210606,106.653813 C56.0210606,106.828021 56.1520736,107.012581 56.4144564,107.208208 C56.6764823,107.403478 57.13592,107.554125 57.7920557,107.659435 C57.8773747,107.673357 57.9655496,107.681211 58.0522966,107.691921 C58.0608642,107.692992 58.0694318,107.694062 58.0779994,107.695133 C58.3410963,107.727619 58.6077629,107.751537 58.8819262,107.758319 C59.255331,107.766887 59.5933943,107.757606 59.8961163,107.729404 C60.1988383,107.701559 60.4483698,107.655151 60.6454246,107.589466 C60.7064688,107.569118 60.7543046,107.547342 60.7964286,107.524495 C60.8903153,107.473804 60.94065,107.416686 60.94065,107.353143 L60.94065,107.184647 L60.9663528,107.175722 L61.1223546,107.121818 L62.1629614,109.412581 L62.1668882,109.421149 L62.0001769,109.455776 C61.9494853,109.386164 61.8941528,109.323692 61.8338226,109.267646 C61.7731354,109.212313 61.6924572,109.176258 61.5917878,109.159837 C61.4904045,109.143772 61.3240502,109.150198 61.092011,109.179114 C60.8596147,109.208386 60.571886,109.236231 60.2288249,109.263005 C59.8857638,109.289422 59.492725,109.300131 59.0482805,109.29549 C58.7434166,109.291921 58.4160628,109.263362 58.0779994,109.223023 C58.0694318,109.222309 58.0608642,109.220881 58.0522966,109.21981 C57.9059334,109.202318 57.762783,109.188038 57.6099941,109.163763 C57.0552418,109.074518 56.5508241,108.929225 56.0967411,108.728244 C55.6423012,108.527262 55.256402,108.289154 54.9386867,108.013206 C54.6202574,107.737257 54.3732249,107.426325 54.1965181,107.081122 C54.0198112,106.735919 53.9319933,106.36894 53.9319933,105.980899 C53.9319933,105.490046 54.0854962,105.128779 54.3935729,104.897454 C54.4731803,104.837124 54.5588563,104.782862 54.6491731,104.733598 C54.9072722,104.592233 55.2078523,104.494063 55.5516273,104.439801 C56.0157059,104.365905 56.5151258,104.344129 57.050244,104.374473 C57.4015157,104.39375 57.7313685,104.413027 58.0522966,104.431947 C58.0608642,104.432304 58.0694318,104.433018 58.0779994,104.433732 C58.2368571,104.443014 58.3974997,104.452652 58.5485037,104.461577 C59.0129392,104.490493 59.3988383,104.491207 59.7069151,104.464076 C59.8654157,104.450154 59.9817923,104.414455 60.0585438,104.358766 C60.1306545,104.306289 60.1684947,104.236677 60.1684947,104.147432 C60.1684947,103.810082 59.9917879,103.523424 59.6387312,103.287815 C59.3028098,103.06363 58.778758,102.892992 58.0779994,102.771617 C58.0690749,102.770189 58.0612212,102.768404 58.0522966,102.766619 C58.0248089,102.762336 58.001605,102.756267 57.9737603,102.751626 C57.5800075,102.68844 57.1912525,102.664165 56.8082092,102.679159 C56.424095,102.694152 56.0838897,102.733777 55.7861655,102.798748 C55.4905832,102.862291 55.2503333,102.942969 55.0639879,103.040069 C55.062917,103.040783 55.0607751,103.041497 55.0597041,103.041854 C54.8726448,103.139667 54.7798291,103.239623 54.7798291,103.34172 C54.7798291,103.49201 54.7891106,103.598034 54.8083877,103.663362 C54.8091017,103.66479 54.8091017,103.667289 54.8098157,103.668717 L54.6584547,103.721193 L53.5382405,100.811778 L53.5689411,100.808922" id="path14" fill="#FFFFFF"></path>
                        <path d="M72.7700116,108.522264 C72.6122249,108.093527 72.4515823,107.654437 72.2891548,107.205352 C72.1260134,106.755553 71.9632289,106.313964 71.8008014,105.879515 C71.63766,105.445424 71.4898688,105.051314 71.3574279,104.696472 C71.225344,104.341631 71.118249,104.04819 71.0372138,103.815794 C70.9554645,103.583398 70.9047729,103.440604 70.8844248,103.387771 C70.8333762,103.260328 70.7826845,103.171082 70.7316359,103.120747 C70.6809442,103.069698 70.599195,103.029002 70.4874592,102.998659 L70.4874592,102.814098 L70.513519,102.816597 L73.1898241,103.064344 L73.1898241,103.232483 L73.1898241,103.24819 C73.0884408,103.238909 73.0234698,103.24462 72.9845586,103.261756 C72.9802748,103.263897 72.9720642,103.263897 72.9684944,103.266039 C72.932796,103.288172 72.9149469,103.324585 72.9149469,103.37599 C72.9149469,103.396338 72.9228005,103.430609 72.9381508,103.477731 C72.9531441,103.525209 72.9784899,103.601604 73.0141883,103.707271 C73.0495296,103.812581 73.0980794,103.955374 73.1594805,104.13458 C73.2205247,104.313786 73.30156,104.546539 73.4036572,104.832126 L77.0216848,105.166619 C77.0227558,105.162693 77.0259686,105.154125 77.0270396,105.149484 C77.039534,105.096651 77.0695206,105.011689 77.1212832,104.884602 C77.1769726,104.74645 77.2358749,104.601158 77.2969191,104.448369 C77.3576063,104.29558 77.4136527,104.157427 77.4647013,104.034625 C77.515393,103.911465 77.5410958,103.845067 77.5410958,103.834714 C77.5410958,103.722264 77.4439963,103.651939 77.2508682,103.623737 L77.2508682,103.43989 L77.276571,103.442389 L80.258811,103.718337 L80.258811,103.88969 L80.258811,103.901827 C80.2134741,103.8979 80.172778,103.901827 80.1363657,103.913607 C80.0988824,103.925388 80.065683,103.945022 80.0371243,103.973581 C79.9814349,104.029627 79.912537,104.146004 79.8311448,104.32271 C79.6683603,104.695758 79.4877267,105.118784 79.2892439,105.591073 C79.0904041,106.063005 78.8844246,106.547432 78.6709485,107.043996 C78.4571154,107.540203 78.2507789,108.027128 78.0526531,108.504772 C77.8541703,108.982059 77.6785344,109.410439 77.5257455,109.789912 C77.3729566,110.169029 77.2483693,110.477463 77.1516268,110.713429 C77.0548843,110.949752 77.0066915,111.078266 77.0066915,111.098614 C77.0066915,111.180363 77.0320373,111.233911 77.083086,111.259256 C77.1337776,111.284245 77.2001766,111.305664 77.2815688,111.32387 L77.2815688,111.490225 L77.2815688,111.507717 L73.2969192,111.138953 L73.2969192,110.955107 C73.3054868,110.95475 73.3136974,110.952251 73.322622,110.951894 C73.3843801,110.947253 73.4447103,110.94047 73.5028987,110.928333 C73.5375261,110.920479 73.5621579,110.907271 73.5785792,110.889422 C73.5935725,110.873357 73.6021401,110.85408 73.6021401,110.830162 C73.6021401,110.81981 73.5639428,110.708788 73.4875484,110.497454 C73.4111539,110.285763 73.3119125,110.010885 73.1898241,109.672465 C73.0677358,109.334045 72.9274413,108.950644 72.7700116,108.522264 L72.7700116,108.522264 Z M76.6250762,106.356445 L73.8177581,106.096918 L73.7852726,106.093706 L75.1439517,109.868806 L75.1610869,109.828467 L76.6250762,106.356445 L76.6250762,106.356445 Z" id="path16" fill="#FFFFFF"></path>
                        <path d="M89.5414525,104.477284 C89.4957586,104.429806 89.3754552,104.392679 89.1816131,104.365548 L89.1816131,104.181702 L89.2073159,104.182416 L92.3380611,104.287369 L92.3380611,104.459078 L92.3380611,104.471573 C92.1949107,104.481568 92.0931704,104.500488 92.0303413,104.527262 C92.0082083,104.536901 91.9900022,104.54761 91.9782217,104.559034 C91.9318139,104.603656 91.9089669,104.661488 91.9089669,104.732884 L91.9089669,111.877909 C91.9089669,111.949306 91.9318139,112.009279 91.9782217,112.056401 C92.0239156,112.104236 92.143862,112.141363 92.3380611,112.168493 L92.3380611,112.336633 L92.3380611,112.35234 L89.1816131,112.246316 L89.1816131,112.062469 C89.1908947,112.061755 89.1980344,112.060684 89.2073159,112.05997 C89.3590339,112.047476 89.4607742,112.024629 89.5146787,111.991787 C89.5239603,111.986075 89.5350268,111.981077 89.5414525,111.975008 C89.5875033,111.930385 89.6103503,111.872197 89.6103503,111.8008 L89.6103503,104.656133 C89.6103503,104.584379 89.5875033,104.524763 89.5414525,104.477284" id="path18" fill="#FFFFFF"></path>
                        <path d="M102.232929,104.690046 C102.186878,104.645067 102.066575,104.61508 101.872376,104.59973 L101.872376,104.415883 L101.898436,104.415169 L104.784647,104.339489 L104.784647,104.512983 L104.784647,104.523692 C104.645067,104.541898 104.545468,104.566173 104.482282,104.595446 C104.45765,104.607226 104.437302,104.619364 104.424451,104.632572 C104.3784,104.680051 104.355553,104.738953 104.355553,104.810707 L104.355553,109.625343 C104.364478,109.614991 104.372688,109.605709 104.381613,109.595356 C105.044174,108.834625 105.613563,108.187771 106.087637,107.655865 C106.56778,107.11682 106.971171,106.667021 107.298168,106.305754 C107.625165,105.944486 107.888261,105.656401 108.087458,105.441854 C108.287012,105.227307 108.437659,105.062023 108.539756,104.947075 C108.641854,104.831769 108.70861,104.751091 108.738953,104.703969 C108.769654,104.657204 108.785004,104.61865 108.785004,104.587949 C108.785004,104.536901 108.762157,104.496561 108.716106,104.467289 C108.670412,104.437659 108.575455,104.424808 108.432661,104.428378 L108.432661,104.244531 L108.458721,104.243817 L111.344933,104.168494 L111.344933,104.341631 L111.344933,104.35234 C111.204995,104.370903 111.105397,104.395178 111.042211,104.424808 C111.017936,104.436231 110.997231,104.448369 110.984379,104.461577 C110.938685,104.508699 110.915481,104.567958 110.915481,104.639712 L110.915481,111.784736 C110.915481,111.856133 110.938685,111.914321 110.984379,111.959301 C111.03043,112.004281 111.150377,112.033911 111.344933,112.049618 L111.344933,112.219185 L111.344933,112.233107 L108.539756,112.306646 L108.539756,112.122443 C108.549752,112.121729 108.556178,112.118516 108.565816,112.117445 C108.659346,112.107092 108.733241,112.082103 108.781791,112.038551 C108.834982,111.99143 108.861755,111.924674 108.861755,111.838284 L108.861755,107.757249 L108.861755,107.744397 C108.677909,107.943594 108.458007,108.181702 108.202764,108.459078 C107.947164,108.736454 107.681568,109.029895 107.40562,109.338685 C107.129672,109.647119 106.856222,109.95591 106.585629,110.264701 C106.314678,110.573134 106.07193,110.853009 105.857739,111.103969 C105.642835,111.354928 105.469341,111.563763 105.336544,111.730832 C105.203389,111.8979 105.137347,111.99143 105.137347,112.012135 C105.137347,112.062826 105.165191,112.105664 105.221595,112.140292 C105.277641,112.174562 105.39259,112.194553 105.566441,112.200265 L105.566441,112.369832 L105.566441,112.384111 L101.872376,112.480497 L101.872376,112.29665 C101.882014,112.295223 101.889154,112.293795 101.898436,112.292367 C102.045156,112.271305 102.145825,112.24346 102.200801,112.20919 C102.212581,112.202407 102.225433,112.195267 102.232929,112.187414 C102.278623,112.140292 102.301827,112.080675 102.301827,112.009279 L102.301827,104.864611 C102.301827,104.792858 102.278623,104.734669 102.232929,104.690046" id="path20" fill="#FFFFFF"></path>
                        <path d="M119.871483,112.141363 L119.871483,109.412224 L119.897543,109.409725 L120.054615,109.395446 C120.074964,109.566798 120.105664,109.679248 120.146003,109.731724 C120.186699,109.783844 120.248101,109.806691 120.329493,109.798837 L122.955463,109.555731 L122.955463,109.54288 L122.955463,103.821506 C122.955463,103.749752 122.932259,103.693349 122.886922,103.651225 C122.840872,103.609457 122.720925,103.587324 122.527797,103.585183 L122.527797,103.400979 L122.553857,103.39848 L125.672821,103.109681 L125.672821,103.284246 L125.672821,103.29317 C125.537882,103.320301 125.440782,103.350287 125.377596,103.382773 C125.350465,103.397052 125.327975,103.410975 125.314053,103.426325 C125.268002,103.47666 125.245512,103.537347 125.245512,103.6091 L125.245512,109.343326 L127.871483,109.099863 C127.918248,109.095937 127.956445,109.079872 127.990001,109.057739 C128.014276,109.042032 128.037123,109.024183 128.054615,108.99848 C128.095311,108.938507 128.125655,108.820702 128.146003,108.645066 L128.170278,108.642925 L128.329493,108.628288 L128.329493,111.344933 L128.329493,111.357427 L128.146003,111.374562 C128.125655,111.202496 128.095311,111.090046 128.054615,111.037927 C128.013562,110.98545 127.952875,110.96296 127.871483,110.970457 L120.329493,111.66943 C120.293794,111.673 120.264165,111.683353 120.236677,111.696204 C120.200265,111.713696 120.16885,111.7369 120.146003,111.770814 C120.106378,111.829002 120.076391,111.943594 120.0564,112.111733 C120.055686,112.116374 120.054972,112.119944 120.054615,112.124584 L119.871483,112.141363" id="path22" fill="#FFFFFF"></path>
                        <path d="M136.240603,102.343594 L136.268091,102.332528 L136.422308,102.269341 C136.472643,102.31218 136.520835,102.350734 136.566172,102.384647 C136.611509,102.418204 136.664343,102.430698 136.725387,102.420702 C136.816061,102.406423 136.954927,102.348949 137.14163,102.247922 C137.315124,102.154036 137.549662,102.043728 137.840603,101.918784 C137.863093,101.909145 137.883441,101.899864 137.906645,101.890225 C138.229715,101.752072 138.620969,101.616776 139.080407,101.482907 C139.539845,101.349395 140.087457,101.232304 140.723602,101.132349 C140.919586,101.101649 141.107002,101.077374 141.287636,101.05774 C141.295847,101.056669 141.305128,101.054884 141.313339,101.05417 C141.875945,100.994553 142.363584,100.989199 142.7759,101.039533 C143.213562,101.092724 143.577328,101.192322 143.874695,101.335116 C143.95109,101.372242 144.026413,101.410082 144.093883,101.45292 C144.421594,101.662113 144.654347,101.919141 144.790715,102.225076 C144.926726,102.530296 144.994909,102.852296 144.994909,103.189288 C144.994909,103.628735 144.904236,104.008922 144.722531,104.328422 C144.540826,104.648279 144.303075,104.921015 144.010349,105.145914 C143.868626,105.255151 143.716195,105.35475 143.555195,105.446137 C143.3842,105.543594 143.203209,105.631769 143.010795,105.709591 C142.637033,105.860238 142.253633,105.991965 141.859523,106.105129 C141.67532,106.15832 141.493615,106.207226 141.313339,106.253991 C141.304771,106.256133 141.295847,106.258989 141.287636,106.261131 C141.092009,106.311465 140.898881,106.358587 140.708609,106.401425 C140.334847,106.485673 140.001781,106.571349 139.709055,106.658453 C139.428823,106.741631 139.201067,106.838016 139.022576,106.94761 C139.014365,106.952608 139.005084,106.957249 138.99723,106.962246 C138.815525,107.077552 138.724495,107.22213 138.724495,107.395981 C138.724495,107.569475 138.855864,107.712626 139.118247,107.824718 C139.380987,107.936811 139.840068,107.941095 140.496561,107.83757 C140.754303,107.797231 141.019184,107.737257 141.287636,107.668003 C141.296204,107.665504 141.304771,107.663362 141.313339,107.66122 C141.404726,107.636945 141.494686,107.616597 141.587145,107.589466 C141.96055,107.479515 142.29897,107.362425 142.602049,107.238195 C142.904771,107.113964 143.15466,106.987592 143.351357,106.859435 C143.352071,106.859078 143.352428,106.858721 143.352785,106.858721 C143.548769,106.730921 143.64694,106.621327 143.64694,106.529225 L143.64694,106.360729 L143.829001,106.240069 L143.829715,106.241854 L144.873535,108.205977 L144.873892,108.207048 L144.707181,108.294509 C144.656489,108.240961 144.601157,108.195981 144.540826,108.159569 C144.480139,108.123157 144.398747,108.113161 144.298435,108.128868 C144.197051,108.144576 144.030697,108.203835 143.798658,108.307003 C143.565904,108.410171 143.278176,108.529404 142.935115,108.665058 C142.591697,108.801068 142.197944,108.937079 141.753856,109.073804 C141.612491,109.116999 141.461844,109.152697 141.313339,109.19018 C141.304771,109.192322 141.296204,109.194821 141.287636,109.19732 C140.976703,109.275142 140.656489,109.345825 140.314856,109.399373 C139.75939,109.486833 139.254615,109.502541 138.800175,109.446137 C138.345735,109.389734 137.959479,109.274428 137.641407,109.099863 C137.323691,108.924585 137.075945,108.692545 136.899238,108.403746 C136.722531,108.114589 136.634356,107.775812 136.634356,107.387414 C136.634356,106.896918 136.788216,106.486744 137.096293,106.157249 C137.330831,105.906289 137.611063,105.687101 137.936275,105.498971 C138.038015,105.440069 138.144039,105.384022 138.254704,105.331189 C138.719497,105.109502 139.219274,104.928868 139.754392,104.788217 C140.28951,104.647922 140.789287,104.51798 141.254079,104.399105 C141.26586,104.396249 141.275855,104.393036 141.287636,104.39018 C141.296204,104.387681 141.304414,104.38554 141.313339,104.383398 C141.750287,104.269163 142.117979,104.152429 142.412491,104.03284 C142.493883,103.999997 142.562781,103.964299 142.622754,103.927173 C142.789465,103.823648 142.874427,103.704415 142.874427,103.569118 C142.874427,103.231769 142.697721,103.001515 142.344307,102.878355 C142.099416,102.793036 141.751714,102.769475 141.313339,102.800533 C141.304414,102.80089 141.296561,102.80089 141.287636,102.801604 C141.10022,102.815883 140.900666,102.837302 140.678265,102.872287 C140.284512,102.934045 139.895757,103.033643 139.512,103.170368 C139.128243,103.307806 138.787681,103.455598 138.489599,103.615169 C138.421416,103.651939 138.356445,103.688351 138.293972,103.724763 C138.084066,103.846851 137.906645,103.968583 137.762781,104.089957 C137.575722,104.24703 137.482549,104.376615 137.482549,104.478712 C137.482549,104.632215 137.492545,104.737882 137.512893,104.796428 L137.38652,104.879962 L137.361532,104.89674 L136.240603,102.343594" id="path24" fill="#FFFFFF"></path>
                        <path d="M137.045601,72.2477447 C136.953499,73.278713 136.496561,74.0255225 135.730117,74.575277 L135.511643,77.1120016 C135.868627,77.6092796 136.168136,78.336455 136.104593,79.0775527 C136.038551,79.8529208 135.693348,80.5479676 135.167868,81.0563121 L134.931545,83.717981 L132.882103,83.717981 L133.746717,68.7521625 C131.287815,68.7996413 127.400979,68.2041929 124.22454,66.1640323 L136.464789,66.1640323 L136.132794,69.9494851 C136.657917,70.4945989 137.128064,71.3113771 137.045601,72.2477447" id="path26" fill="#FFFFFF"></path>
                        <path d="M116.808565,66.1640323 C113.632126,68.2041929 109.744933,68.7996413 107.286387,68.7521625 L108.151001,83.717981 L106.097275,83.717981 L105.861309,81.0563121 C105.33583,80.5479676 104.990627,79.8529208 104.924942,79.0775527 C104.861399,78.336455 105.160551,77.6092796 105.517534,77.1120016 L105.298703,74.575277 C104.532974,74.0255225 104.075321,73.278713 103.983576,72.2477447 C103.901113,71.3113771 104.37126,70.4945989 104.896383,69.9494851 L104.564388,66.1640323 L116.808565,66.1640323" id="path28" fill="#FFFFFF"></path>
                        <path d="M131.031501,86.7359193 C131.031501,86.7359193 127.338149,87.7972312 122.603835,85.3972312 C122.193304,85.1891099 121.775633,84.9577846 121.350822,84.6943308 L121.350822,83.717981 L121.350822,66.0572942 C125.779203,70.1276198 131.977507,70.3593021 131.977507,70.3593021 L131.205708,83.717981 L131.108966,85.3972312 L131.031501,86.7359193" id="path30" fill="#FFFFFF"></path>
                        <path d="M119.681925,83.717981 L119.681925,84.6943308 C119.257114,84.9577846 118.839444,85.1891099 118.428913,85.3972312 C113.694955,87.7972312 110.000533,86.7359193 110.000533,86.7359193 L109.923424,85.3972312 L109.826325,83.717981 L109.05524,70.3593021 C109.05524,70.3593021 115.253545,70.1276198 119.681925,66.0572942 L119.681925,83.717981" id="path32" fill="#FFFFFF"></path>
                        <path d="M72.5176242,35.76439 C72.4594359,35.1090397 72.7889317,34.5361883 73.1566247,34.1548229 L72.9242284,31.5045061 L81.4979007,31.5045061 C79.2738936,32.9326899 76.5518946,33.3489684 74.8301632,33.3170184 L75.4359642,43.7965183 L73.9969638,43.7965183 L73.8327514,41.9327076 C73.4639875,41.576795 73.2230236,41.0898696 73.1766158,40.5468977 C73.1319928,40.0282007 73.3415421,39.5191423 73.5917875,39.1707264 L73.4386416,37.3947336 C72.9017385,37.0099054 72.5818813,36.4858536 72.5176242,35.76439" id="path34" fill="#FFFFFF"></path>
                        <path d="M95.0107964,40.5468977 C94.9643885,41.0898696 94.7234247,41.576795 94.3546607,41.9327076 L94.1897344,43.7965183 L92.7539468,43.7965183 L93.3601048,33.3170184 C91.6380165,33.3489684 88.9156604,32.9326899 86.6916533,31.5045061 L95.2628267,31.5045061 L95.0304305,34.1548229 C95.3981235,34.5361883 95.7276192,35.1090397 95.6690739,35.76439 C95.6058878,36.4858536 95.2856737,37.0099054 94.7498415,37.3947336 L94.5963386,39.1707264 C94.845513,39.5191423 95.0547053,40.0282007 95.0107964,40.5468977" id="path36" fill="#FFFFFF"></path>
                        <path d="M85.5650135,44.9727789 C85.2740719,44.8257017 84.9799176,44.666844 84.6789805,44.4804987 L84.6789805,43.7965183 L84.6789805,31.4298966 C87.7808099,34.2803026 92.1203011,34.4419447 92.1203011,34.4419447 L91.5805421,43.7965183 L91.5127152,44.9727789 L91.4588107,45.9098605 C91.4588107,45.9098605 88.8756783,46.6470314 85.5650135,44.9727789" id="path38" fill="#FFFFFF"></path>
                        <path d="M83.5109305,31.4298966 L83.5109305,44.4804987 C83.2103504,44.666844 82.9158391,44.8257017 82.6252545,44.9727789 C79.3145897,46.6470314 76.7311003,45.9098605 76.7311003,45.9098605 L76.6768388,44.9727789 L76.6090119,43.7965183 L76.0688959,34.4419447 C76.0688959,34.4419447 80.409815,34.2803026 83.5109305,31.4298966" id="path40" fill="#FFFFFF"></path>
                        <path d="M99.5212827,7.36796055 C118.18545,16.5365458 133.030608,35.2132075 138.664164,55.5641218 L99.5212827,55.5641218 L99.5212827,7.36796055 Z M104.422309,39.8250771 C104.73574,39.8250771 105.028467,39.7283346 105.265504,39.5655501 C105.101291,39.8004452 105.003835,40.0881739 105.003835,40.3962507 C105.003835,41.2165987 105.664254,41.880945 106.479248,41.880945 C107.299953,41.880945 107.956088,41.2165987 107.956088,40.3962507 C107.956088,40.1842025 107.912179,39.9871476 107.829716,39.8036581 L112.883531,39.8036581 L112.883531,45.0431046 C112.701113,44.9588565 112.502273,44.9163755 112.290582,44.9163755 C111.471305,44.9163755 110.806601,45.5703692 110.806601,46.3917882 C110.806601,47.2071385 111.471305,47.8672009 112.290582,47.8672009 C112.599372,47.8672009 112.887815,47.7697445 113.123067,47.60696 C112.959926,47.8414981 112.862826,48.1356525 112.862826,48.4483701 C112.862826,49.2605075 113.5286,49.9234258 114.33931,49.9234258 C115.15109,49.9234258 115.816865,49.2605075 115.816865,48.4483701 C115.816865,48.1356525 115.719408,47.8414981 115.557338,47.60696 C115.794018,47.7697445 116.080318,47.8672009 116.388752,47.8672009 C117.2091,47.8672009 117.874517,47.2071385 117.874517,46.3917882 C117.874517,45.5703692 117.2091,44.9163755 116.388752,44.9163755 C116.178132,44.9163755 115.978578,44.9588565 115.795803,45.0431046 L115.795803,39.8036581 L121.031679,39.8036581 C120.949216,39.9871476 120.906378,40.1842025 120.906378,40.3962507 C120.906378,41.2165987 121.561086,41.880945 122.381077,41.880945 C123.197498,41.880945 123.856847,41.2165987 123.856847,40.3962507 C123.856847,40.0881739 123.760104,39.8004452 123.596606,39.5655501 C123.831858,39.7283346 124.125298,39.8250771 124.438373,39.8250771 C125.25051,39.8250771 125.913785,39.157518 125.913785,38.3475225 C125.913785,37.535742 125.25051,36.8703248 124.438373,36.8703248 C124.125298,36.8703248 123.831858,36.9681383 123.596606,37.1294948 C123.760104,36.8938857 123.856847,36.606871 123.856847,36.2980803 C123.856847,35.4783034 123.197498,34.8124579 122.381077,34.8124579 C121.561086,34.8124579 120.906378,35.4783034 120.906378,36.2980803 C120.906378,36.5090575 120.949216,36.7078973 121.031679,36.8913869 L115.795803,36.8913869 L115.795803,31.839428 C115.978578,31.9228194 116.178132,31.966764 116.388752,31.966764 C117.2091,31.966764 117.874517,31.3095575 117.874517,30.4901376 C117.874517,29.6734308 117.2091,29.0146534 116.388752,29.0146534 C116.080318,29.0146534 115.794018,29.1117173 115.557338,29.2755727 C115.719408,29.0386427 115.816865,28.7451309 115.816865,28.4327704 C115.816865,27.622168 115.15109,26.9582501 114.33931,26.9582501 C113.5286,26.9582501 112.862826,27.622168 112.862826,28.4327704 C112.862826,28.7451309 112.959926,29.0386427 113.123067,29.2755727 C112.887815,29.1117173 112.599372,29.0146534 112.290582,29.0146534 C111.471305,29.0146534 110.806601,29.6734308 110.806601,30.4901376 C110.806601,31.3095575 111.471305,31.966764 112.290582,31.966764 C112.502273,31.966764 112.701113,31.9228194 112.883531,31.839428 L112.883531,36.8913869 L107.829716,36.8913869 C107.912179,36.7078973 107.956088,36.5090575 107.956088,36.2980803 C107.956088,35.4783034 107.299953,34.8124579 106.479248,34.8124579 C105.664254,34.8124579 105.003835,35.4783034 105.003835,36.2980803 C105.003835,36.606871 105.101291,36.8938857 105.265504,37.1294948 C105.028467,36.9681383 104.73574,36.8703248 104.422309,36.8703248 C103.61267,36.8703248 102.947253,37.535742 102.947253,38.3475225 C102.947253,39.157518 103.61267,39.8250771 104.422309,39.8250771 L104.422309,39.8250771 Z" id="path42" fill="#BE2032"></path>
                        <path d="M99.5212827,94.2882618 L99.5212827,96.4358744 C85.9341344,96.4294487 72.6364997,95.3606402 59.6455139,93.3179807 C59.644443,93.311555 59.642658,93.3051293 59.6412301,93.2983466 C58.9361877,90.263987 58.5074506,86.7437729 58.2568482,83.2064236 C58.2564912,83.1996409 58.2557772,83.1932152 58.2554202,83.1864325 C58.0055318,79.6494402 57.9302083,76.1031663 57.9302083,73.0298955 C57.9302083,67.1917877 58.7873256,61.3111988 60.378401,55.5641218 L99.5212827,55.5641218 L99.5212827,94.2729115 L99.5212827,94.2882618 Z M93.2715729,73.8256117 C92.8246295,73.8256117 92.40446,73.9651923 92.0688955,74.1965176 C92.3016487,73.8602391 92.4412293,73.4497081 92.4412293,73.0088335 C92.4412293,71.8375707 91.497008,70.8862097 90.3318139,70.8862097 C89.1609081,70.8862097 88.2245404,71.8375707 88.2245404,73.0088335 C88.2245404,73.3097706 88.2862986,73.5942864 88.4051741,73.8563123 L80.9235143,73.8563123 L80.9235143,66.6388203 C81.1855401,66.7580528 81.4711269,66.8198109 81.771707,66.8198109 C82.9436838,66.8198109 83.8950448,65.8827293 83.8950448,64.7111095 C83.8950448,63.5452014 82.9436838,62.603479 81.771707,62.603479 C81.3311894,62.603479 80.9199444,62.7412746 80.5847369,62.9758128 C80.8149913,62.6388204 80.9549288,62.2197218 80.9549288,61.7717075 C80.9549288,60.6140101 80.0039248,59.665148 78.8444425,59.665148 C77.6863881,59.665148 76.7335992,60.6140101 76.7335992,61.7717075 C76.7335992,62.2197218 76.8731797,62.6388204 77.104862,62.9758128 C76.7700115,62.7412746 76.3580525,62.603479 75.9175349,62.603479 C74.7459151,62.603479 73.797053,63.5452014 73.797053,64.7111095 C73.797053,65.8827293 74.7459151,66.8198109 75.9175349,66.8198109 C76.2209709,66.8198109 76.5029878,66.7580528 76.7642997,66.6388203 L76.7642997,73.8563123 L69.5428809,73.8563123 C69.6631843,73.5942864 69.7245855,73.3097706 69.7245855,73.0088335 C69.7245855,71.8375707 68.7867899,70.8862097 67.6158841,70.8862097 C66.4492621,70.8862097 65.5082536,71.8375707 65.5082536,73.0088335 C65.5082536,73.4497081 65.6474772,73.8602391 65.8813013,74.1965176 C65.543952,73.9651923 65.1244964,73.8256117 64.677553,73.8256117 C63.5191417,73.8256117 62.5699226,74.7762587 62.5699226,75.936455 C62.5699226,77.0937955 63.5191417,78.0462274 64.677553,78.0462274 C65.1244964,78.0462274 65.543952,77.9066469 65.8813013,77.6753216 C65.6474772,78.0116 65.5082536,78.422845 65.5082536,78.8630056 C65.5082536,80.0349824 66.4492621,80.9831305 67.6158841,80.9831305 C68.7867899,80.9831305 69.7245855,80.0349824 69.7245855,78.8630056 C69.7245855,78.5595697 69.6631843,78.2768387 69.5428809,78.0169548 L76.7642997,78.0169548 L76.7642997,85.4996855 C76.5029878,85.381167 76.2209709,85.3190519 75.9175349,85.3190519 C74.7459151,85.3190519 73.797053,86.2554195 73.797053,87.4273963 C73.797053,88.5918764 74.7459151,89.5368117 75.9175349,89.5368117 C76.3580525,89.5368117 76.7700115,89.3965172 77.104862,89.1637639 C76.8731797,89.4996854 76.7335992,89.919141 76.7335992,90.3657273 C76.7335992,91.5259236 77.6863881,92.4737148 78.8444425,92.4737148 C80.0039248,92.4737148 80.9549288,91.5259236 80.9549288,90.3657273 C80.9549288,89.919141 80.8149913,89.4996854 80.5847369,89.1637639 C80.9199444,89.3965172 81.3311894,89.5368117 81.771707,89.5368117 C82.9436838,89.5368117 83.8950448,88.5918764 83.8950448,87.4273963 C83.8950448,86.2554195 82.9436838,85.3190519 81.771707,85.3190519 C81.4711269,85.3190519 81.1855401,85.381167 80.9235143,85.4996855 L80.9235143,78.0169548 L88.4051741,78.0169548 C88.2862986,78.2768387 88.2245404,78.5595697 88.2245404,78.8630056 C88.2245404,80.0349824 89.1609081,80.9831305 90.3318139,80.9831305 C91.497008,80.9831305 92.4412293,80.0349824 92.4412293,78.8630056 C92.4412293,78.422845 92.3016487,78.0116 92.0688955,77.6753216 C92.40446,77.9066469 92.8246295,78.0462274 93.2715729,78.0462274 C94.4303412,78.0462274 95.3781324,77.0937955 95.3781324,75.936455 C95.3781324,74.7762587 94.4303412,73.8256117 93.2715729,73.8256117 L93.2715729,73.8256117 Z" id="path44" fill="#BE2032"></path>
                        <path d="M34.629361,85.1323495 C39.0857643,86.3061112 43.5901819,87.3620683 48.1388654,88.298079 C48.1481469,88.2998639 48.1577855,88.3016488 48.1670671,88.3037907 L40.4519401,89.5978559 L40.431592,89.6014257 L40.4240954,89.6028536 L40.3980356,89.6071374 L40.3969646,102.242211 L40.3969646,102.263273 C36.6700571,101.419007 32.9710657,100.500131 29.3048453,99.5030765 L34.6034083,94.2950445 L34.6034083,85.1259238 C34.6121901,85.1280657 34.620722,85.1302076 34.629361,85.1323495" id="path46" fill="#BE2032"></path>
                        <path d="M158.899773,102.266843 L158.899773,89.638195 L158.874427,89.6339112 L151.119318,88.3084315 C151.136453,88.3048617 151.153588,88.3012919 151.170724,88.297722 C155.738684,87.3588555 160.262022,86.2982575 164.737881,85.1198551 L164.737881,94.2889758 L170.029447,99.4902251 L170.035873,99.4966508 C166.363584,100.495491 162.658809,101.415437 158.925833,102.260774 C158.916908,102.262559 158.908341,102.264701 158.899773,102.266843" id="path48" fill="#BE2032"></path>
                        <polyline id="path50" fill="#BE2032" points="73.7852726 106.093706 73.8177581 106.096918 76.6250762 106.356445 75.1610869 109.828467 75.1439517 109.868806 73.7852726 106.093706"></polyline>
                        <path d="M45.1630511,104.379828 L45.1630511,95.4873693 C45.1716187,95.4887973 45.1801863,95.4905822 45.1891109,95.4923671 C47.8814803,96.0642546 50.589557,96.5897343 53.3097711,97.0784447 C53.3183387,97.0798726 53.3269063,97.0813006 53.3358309,97.0830855 C53.4871919,97.1102162 53.6385529,97.137347 53.7899139,97.1644777 C54.5670669,97.3022733 55.3449339,97.4375701 56.1242289,97.568583 C56.7664421,97.676749 57.4086554,97.784915 58.0522966,97.8880832 C58.0608642,97.8895112 58.0694318,97.8909391 58.0779994,97.892367 C62.75484,98.6434603 67.4705918,99.2706802 72.2248978,99.7693862 C81.231948,100.713964 90.3757229,101.20089 99.6490827,101.20089 C108.932081,101.20089 118.106914,100.713964 127.143593,99.7693862 C131.898256,99.2721082 136.614008,98.6466731 141.287636,97.8995067 C141.296204,97.8980788 141.304771,97.8962938 141.313339,97.8952229 C141.843102,97.8102608 142.371438,97.7213719 142.90013,97.633554 C143.679425,97.503969 144.457292,97.3715281 145.234445,97.2348035 C145.500041,97.1880386 145.76528,97.1405598 146.031232,97.093081 C146.0398,97.0912961 146.048368,97.0898682 146.056935,97.0884402 C148.765012,96.6036567 151.459523,96.0828178 154.136185,95.515928 L154.136185,103.288886 L154.136185,103.298168 L154.136185,104.387324 L157.225163,107.433465 L157.233374,107.441318 L159.163227,109.344754 L159.17108,109.352251 C140.010349,113.607494 120.093884,115.857204 99.6501537,115.857204 C79.2139204,115.857204 59.3024528,113.609279 40.1449343,109.354393 L42.075501,107.440604 L42.0922792,107.423826 L45.1630511,104.379828 Z M102.232929,112.187414 C102.225433,112.195267 102.212581,112.202407 102.200801,112.20919 C102.145825,112.24346 102.045156,112.271305 101.898436,112.292367 C101.889154,112.293795 101.882014,112.295223 101.872376,112.29665 L101.872376,112.480497 L105.566441,112.384111 L105.566441,112.369832 L105.566441,112.200265 C105.39259,112.194553 105.277641,112.174562 105.221595,112.140292 C105.165191,112.105664 105.137347,112.062826 105.137347,112.012135 C105.137347,111.99143 105.203389,111.8979 105.336544,111.730832 C105.469341,111.563763 105.642835,111.354928 105.857739,111.103969 C106.07193,110.853009 106.314678,110.573134 106.585629,110.264701 C106.856222,109.95591 107.129672,109.647119 107.40562,109.338685 C107.681568,109.029895 107.947164,108.736454 108.202764,108.459078 C108.458007,108.181702 108.677909,107.943594 108.861755,107.744397 L108.861755,107.757249 L108.861755,111.838284 C108.861755,111.924674 108.834982,111.99143 108.781791,112.038551 C108.733241,112.082103 108.659346,112.107092 108.565816,112.117445 C108.556178,112.118516 108.549752,112.121729 108.539756,112.122443 L108.539756,112.306646 L111.344933,112.233107 L111.344933,112.219185 L111.344933,112.049618 C111.150377,112.033911 111.03043,112.004281 110.984379,111.959301 C110.938685,111.914321 110.915481,111.856133 110.915481,111.784736 L110.915481,104.639712 C110.915481,104.567958 110.938685,104.508699 110.984379,104.461577 C110.997231,104.448369 111.017936,104.436231 111.042211,104.424808 C111.105397,104.395178 111.204995,104.370903 111.344933,104.35234 L111.344933,104.341631 L111.344933,104.168494 L108.458721,104.243817 L108.432661,104.244531 L108.432661,104.428378 C108.575455,104.424808 108.670412,104.437659 108.716106,104.467289 C108.762157,104.496561 108.785004,104.536901 108.785004,104.587949 C108.785004,104.61865 108.769654,104.657204 108.738953,104.703969 C108.70861,104.751091 108.641854,104.831769 108.539756,104.947075 C108.437659,105.062023 108.287012,105.227307 108.087458,105.441854 C107.888261,105.656401 107.625165,105.944486 107.298168,106.305754 C106.971171,106.667021 106.56778,107.11682 106.087637,107.655865 C105.613563,108.187771 105.044174,108.834625 104.381613,109.595356 C104.372688,109.605709 104.364478,109.614991 104.355553,109.625343 L104.355553,104.810707 C104.355553,104.738953 104.3784,104.680051 104.424451,104.632572 C104.437302,104.619364 104.45765,104.607226 104.482282,104.595446 C104.545468,104.566173 104.645067,104.541898 104.784647,104.523692 L104.784647,104.512983 L104.784647,104.339489 L101.898436,104.415169 L101.872376,104.415883 L101.872376,104.59973 C102.066575,104.61508 102.186878,104.645067 102.232929,104.690046 C102.278623,104.734669 102.301827,104.792858 102.301827,104.864611 L102.301827,112.009279 C102.301827,112.080675 102.278623,112.140292 102.232929,112.187414 L102.232929,112.187414 Z M120.146003,111.770814 C120.16885,111.7369 120.200265,111.713696 120.236677,111.696204 C120.264165,111.683353 120.293794,111.673 120.329493,111.66943 L127.871483,110.970457 C127.952875,110.96296 128.013562,110.98545 128.054615,111.037927 C128.095311,111.090046 128.125655,111.202496 128.146003,111.374562 L128.329493,111.357427 L128.329493,111.344933 L128.329493,108.628288 L128.170278,108.642925 L128.146003,108.645066 C128.125655,108.820702 128.095311,108.938507 128.054615,108.99848 C128.037123,109.024183 128.014276,109.042032 127.990001,109.057739 C127.956445,109.079872 127.918248,109.095937 127.871483,109.099863 L125.245512,109.343326 L125.245512,103.6091 C125.245512,103.537347 125.268002,103.47666 125.314053,103.426325 C125.327975,103.410975 125.350465,103.397052 125.377596,103.382773 C125.440782,103.350287 125.537882,103.320301 125.672821,103.29317 L125.672821,103.284246 L125.672821,103.109681 L122.553857,103.39848 L122.527797,103.400979 L122.527797,103.585183 C122.720925,103.587324 122.840872,103.609457 122.886922,103.651225 C122.932259,103.693349 122.955463,103.749752 122.955463,103.821506 L122.955463,109.54288 L122.955463,109.555731 L120.329493,109.798837 C120.248101,109.806691 120.186699,109.783844 120.146003,109.731724 C120.105664,109.679248 120.074964,109.566798 120.054615,109.395446 L119.897543,109.409725 L119.871483,109.412224 L119.871483,112.141363 L120.054615,112.124584 C120.054972,112.119944 120.055686,112.116374 120.0564,112.111733 C120.076391,111.943594 120.106378,111.829002 120.146003,111.770814 L120.146003,111.770814 Z M137.512893,104.796428 C137.492545,104.737882 137.482549,104.632215 137.482549,104.478712 C137.482549,104.376615 137.575722,104.24703 137.762781,104.089957 C137.906645,103.968583 138.084066,103.846851 138.293972,103.724763 C138.356445,103.688351 138.421416,103.651939 138.489599,103.615169 C138.787681,103.455598 139.128243,103.307806 139.512,103.170368 C139.895757,103.033643 140.284512,102.934045 140.678265,102.872287 C140.900666,102.837302 141.10022,102.815883 141.287636,102.801604 C141.296561,102.80089 141.304414,102.80089 141.313339,102.800533 C141.751714,102.769475 142.099416,102.793036 142.344307,102.878355 C142.697721,103.001515 142.874427,103.231769 142.874427,103.569118 C142.874427,103.704415 142.789465,103.823648 142.622754,103.927173 C142.562781,103.964299 142.493883,103.999997 142.412491,104.03284 C142.117979,104.152429 141.750287,104.269163 141.313339,104.383398 C141.304414,104.38554 141.296204,104.387681 141.287636,104.39018 C141.275855,104.393036 141.26586,104.396249 141.254079,104.399105 C140.789287,104.51798 140.28951,104.647922 139.754392,104.788217 C139.219274,104.928868 138.719497,105.109502 138.254704,105.331189 C138.144039,105.384022 138.038015,105.440069 137.936275,105.498971 C137.611063,105.687101 137.330831,105.906289 137.096293,106.157249 C136.788216,106.486744 136.634356,106.896918 136.634356,107.387414 C136.634356,107.775812 136.722531,108.114589 136.899238,108.403746 C137.075945,108.692545 137.323691,108.924585 137.641407,109.099863 C137.959479,109.274428 138.345735,109.389734 138.800175,109.446137 C139.254615,109.502541 139.75939,109.486833 140.314856,109.399373 C140.656489,109.345825 140.976703,109.275142 141.287636,109.19732 C141.296204,109.194821 141.304771,109.192322 141.313339,109.19018 C141.461844,109.152697 141.612491,109.116999 141.753856,109.073804 C142.197944,108.937079 142.591697,108.801068 142.935115,108.665058 C143.278176,108.529404 143.565904,108.410171 143.798658,108.307003 C144.030697,108.203835 144.197051,108.144576 144.298435,108.128868 C144.398747,108.113161 144.480139,108.123157 144.540826,108.159569 C144.601157,108.195981 144.656489,108.240961 144.707181,108.294509 L144.873892,108.207048 L144.873535,108.205977 L143.829715,106.241854 L143.829001,106.240069 L143.64694,106.360729 L143.64694,106.529225 C143.64694,106.621327 143.548769,106.730921 143.352785,106.858721 C143.352428,106.858721 143.352071,106.859078 143.351357,106.859435 C143.15466,106.987592 142.904771,107.113964 142.602049,107.238195 C142.29897,107.362425 141.96055,107.479515 141.587145,107.589466 C141.494686,107.616597 141.404726,107.636945 141.313339,107.66122 C141.304771,107.663362 141.296204,107.665504 141.287636,107.668003 C141.019184,107.737257 140.754303,107.797231 140.496561,107.83757 C139.840068,107.941095 139.380987,107.936811 139.118247,107.824718 C138.855864,107.712626 138.724495,107.569475 138.724495,107.395981 C138.724495,107.22213 138.815525,107.077552 138.99723,106.962246 C139.005084,106.957249 139.014365,106.952608 139.022576,106.94761 C139.201067,106.838016 139.428823,106.741631 139.709055,106.658453 C140.001781,106.571349 140.334847,106.485673 140.708609,106.401425 C140.898881,106.358587 141.092009,106.311465 141.287636,106.261131 C141.295847,106.258989 141.304771,106.256133 141.313339,106.253991 C141.493615,106.207226 141.67532,106.15832 141.859523,106.105129 C142.253633,105.991965 142.637033,105.860238 143.010795,105.709591 C143.203209,105.631769 143.3842,105.543594 143.555195,105.446137 C143.716195,105.35475 143.868626,105.255151 144.010349,105.145914 C144.303075,104.921015 144.540826,104.648279 144.722531,104.328422 C144.904236,104.008922 144.994909,103.628735 144.994909,103.189288 C144.994909,102.852296 144.926726,102.530296 144.790715,102.225076 C144.654347,101.919141 144.421594,101.662113 144.093883,101.45292 C144.026413,101.410082 143.95109,101.372242 143.874695,101.335116 C143.577328,101.192322 143.213562,101.092724 142.7759,101.039533 C142.363584,100.989199 141.875945,100.994553 141.313339,101.05417 C141.305128,101.054884 141.295847,101.056669 141.287636,101.05774 C141.107002,101.077374 140.919586,101.101649 140.723602,101.132349 C140.087457,101.232304 139.539845,101.349395 139.080407,101.482907 C138.620969,101.616776 138.229715,101.752072 137.906645,101.890225 C137.883441,101.899864 137.863093,101.909145 137.840603,101.918784 C137.549662,102.043728 137.315124,102.154036 137.14163,102.247922 C136.954927,102.348949 136.816061,102.406423 136.725387,102.420702 C136.664343,102.430698 136.611509,102.418204 136.566172,102.384647 C136.520835,102.350734 136.472643,102.31218 136.422308,102.269341 L136.268091,102.332528 L136.240603,102.343594 L137.361532,104.89674 L137.38652,104.879962 L137.512893,104.796428 Z M73.4875484,110.497454 C73.5639428,110.708788 73.6021401,110.81981 73.6021401,110.830162 C73.6021401,110.85408 73.5935725,110.873357 73.5785792,110.889422 C73.5621579,110.907271 73.5375261,110.920479 73.5028987,110.928333 C73.4447103,110.94047 73.3843801,110.947253 73.322622,110.951894 C73.3136974,110.952251 73.3054868,110.95475 73.2969192,110.955107 L73.2969192,111.138953 L77.2815688,111.507717 L77.2815688,111.490225 L77.2815688,111.32387 C77.2001766,111.305664 77.1337776,111.284245 77.083086,111.259256 C77.0320373,111.233911 77.0066915,111.180363 77.0066915,111.098614 C77.0066915,111.078266 77.0548843,110.949752 77.1516268,110.713429 C77.2483693,110.477463 77.3729566,110.169029 77.5257455,109.789912 C77.6785344,109.410439 77.8541703,108.982059 78.0526531,108.504772 C78.2507789,108.027128 78.4571154,107.540203 78.6709485,107.043996 C78.8844246,106.547432 79.0904041,106.063005 79.2892439,105.591073 C79.4877267,105.118784 79.6683603,104.695758 79.8311448,104.32271 C79.912537,104.146004 79.9814349,104.029627 80.0371243,103.973581 C80.065683,103.945022 80.0988824,103.925388 80.1363657,103.913607 C80.172778,103.901827 80.2134741,103.8979 80.258811,103.901827 L80.258811,103.88969 L80.258811,103.718337 L77.276571,103.442389 L77.2508682,103.43989 L77.2508682,103.623737 C77.4439963,103.651939 77.5410958,103.722264 77.5410958,103.834714 C77.5410958,103.845067 77.515393,103.911465 77.4647013,104.034625 C77.4136527,104.157427 77.3576063,104.29558 77.2969191,104.448369 C77.2358749,104.601158 77.1769726,104.74645 77.1212832,104.884602 C77.0695206,105.011689 77.039534,105.096651 77.0270396,105.149484 C77.0259686,105.154125 77.0227558,105.162693 77.0216848,105.166619 L73.4036572,104.832126 C73.30156,104.546539 73.2205247,104.313786 73.1594805,104.13458 C73.0980794,103.955374 73.0495296,103.812581 73.0141883,103.707271 C72.9784899,103.601604 72.9531441,103.525209 72.9381508,103.477731 C72.9228005,103.430609 72.9149469,103.396338 72.9149469,103.37599 C72.9149469,103.324585 72.932796,103.288172 72.9684944,103.266039 C72.9720642,103.263897 72.9802748,103.263897 72.9845586,103.261756 C73.0234698,103.24462 73.0884408,103.238909 73.1898241,103.24819 L73.1898241,103.232483 L73.1898241,103.064344 L70.513519,102.816597 L70.4874592,102.814098 L70.4874592,102.998659 C70.599195,103.029002 70.6809442,103.069698 70.7316359,103.120747 C70.7826845,103.171082 70.8333762,103.260328 70.8844248,103.387771 C70.9047729,103.440604 70.9554645,103.583398 71.0372138,103.815794 C71.118249,104.04819 71.225344,104.341631 71.3574279,104.696472 C71.4898688,105.051314 71.63766,105.445424 71.8008014,105.879515 C71.9632289,106.313964 72.1260134,106.755553 72.2891548,107.205352 C72.4515823,107.654437 72.6122249,108.093527 72.7700116,108.522264 C72.9274413,108.950644 73.0677358,109.334045 73.1898241,109.672465 C73.3119125,110.010885 73.4111539,110.285763 73.4875484,110.497454 L73.4875484,110.497454 Z M89.5414525,111.975008 C89.5350268,111.981077 89.5239603,111.986075 89.5146787,111.991787 C89.4607742,112.024629 89.3590339,112.047476 89.2073159,112.05997 C89.1980344,112.060684 89.1908947,112.061755 89.1816131,112.062469 L89.1816131,112.246316 L92.3380611,112.35234 L92.3380611,112.336633 L92.3380611,112.168493 C92.143862,112.141363 92.0239156,112.104236 91.9782217,112.056401 C91.9318139,112.009279 91.9089669,111.949306 91.9089669,111.877909 L91.9089669,104.732884 C91.9089669,104.661488 91.9318139,104.603656 91.9782217,104.559034 C91.9900022,104.54761 92.0082083,104.536901 92.0303413,104.527262 C92.0931704,104.500488 92.1949107,104.481568 92.3380611,104.471573 L92.3380611,104.459078 L92.3380611,104.287369 L89.2073159,104.182416 L89.1816131,104.181702 L89.1816131,104.365548 C89.3754552,104.392679 89.4957586,104.429806 89.5414525,104.477284 C89.5875033,104.524763 89.6103503,104.584379 89.6103503,104.656133 L89.6103503,111.8008 C89.6103503,111.872197 89.5875033,111.930385 89.5414525,111.975008 L89.5414525,111.975008 Z M54.8098157,103.668717 C54.8091017,103.667289 54.8091017,103.66479 54.8083877,103.663362 C54.7891106,103.598034 54.7798291,103.49201 54.7798291,103.34172 C54.7798291,103.239623 54.8726448,103.139667 55.0597041,103.041854 C55.0607751,103.041497 55.062917,103.040783 55.0639879,103.040069 C55.2503333,102.942969 55.4905832,102.862291 55.7861655,102.798748 C56.0838897,102.733777 56.424095,102.694152 56.8082092,102.679159 C57.1912525,102.664165 57.5800075,102.68844 57.9737603,102.751626 C58.001605,102.756267 58.0248089,102.762336 58.0522966,102.766619 C58.0612212,102.768404 58.0690749,102.770189 58.0779994,102.771617 C58.778758,102.892992 59.3028098,103.06363 59.6387312,103.287815 C59.9917879,103.523424 60.1684947,103.810082 60.1684947,104.147432 C60.1684947,104.236677 60.1306545,104.306289 60.0585438,104.358766 C59.9817923,104.414455 59.8654157,104.450154 59.7069151,104.464076 C59.3988383,104.491207 59.0129392,104.490493 58.5485037,104.461577 C58.3974997,104.452652 58.2368571,104.443014 58.0779994,104.433732 C58.0694318,104.433018 58.0608642,104.432304 58.0522966,104.431947 C57.7313685,104.413027 57.4015157,104.39375 57.050244,104.374473 C56.5151258,104.344129 56.0157059,104.365905 55.5516273,104.439801 C55.2078523,104.494063 54.9072722,104.592233 54.6491731,104.733598 C54.5588563,104.782862 54.4731803,104.837124 54.3935729,104.897454 C54.0854962,105.128779 53.9319933,105.490046 53.9319933,105.980899 C53.9319933,106.36894 54.0198112,106.735919 54.1965181,107.081122 C54.3732249,107.426325 54.6202574,107.737257 54.9386867,108.013206 C55.256402,108.289154 55.6423012,108.527262 56.0967411,108.728244 C56.5508241,108.929225 57.0552418,109.074518 57.6099941,109.163763 C57.762783,109.188038 57.9059334,109.202318 58.0522966,109.21981 C58.0608642,109.220881 58.0694318,109.222309 58.0779994,109.223023 C58.4160628,109.263362 58.7434166,109.291921 59.0482805,109.29549 C59.492725,109.300131 59.8857638,109.289422 60.2288249,109.263005 C60.571886,109.236231 60.8596147,109.208386 61.092011,109.179114 C61.3240502,109.150198 61.4904045,109.143772 61.5917878,109.159837 C61.6924572,109.176258 61.7731354,109.212313 61.8338226,109.267646 C61.8941528,109.323692 61.9494853,109.386164 62.0001769,109.455776 L62.1668882,109.421149 L62.1629614,109.412581 L61.1223546,107.121818 L60.9663528,107.175722 L60.94065,107.184647 L60.94065,107.353143 C60.94065,107.416686 60.8903153,107.473804 60.7964286,107.524495 C60.7543046,107.547342 60.7064688,107.569118 60.6454246,107.589466 C60.4483698,107.655151 60.1988383,107.701559 59.8961163,107.729404 C59.5933943,107.757606 59.255331,107.766887 58.8819262,107.758319 C58.6077629,107.751537 58.3410963,107.727619 58.0779994,107.695133 C58.0694318,107.694062 58.0608642,107.692992 58.0522966,107.691921 C57.9655496,107.681211 57.8773747,107.673357 57.7920557,107.659435 C57.13592,107.554125 56.6764823,107.403478 56.4144564,107.208208 C56.1520736,107.012581 56.0210606,106.828021 56.0210606,106.653813 C56.0210606,106.516731 56.0796059,106.417133 56.1927697,106.352519 C56.2231133,106.335026 56.2548848,106.318962 56.293439,106.306825 C56.4747866,106.248993 56.7118237,106.223291 57.0049071,106.229716 C57.2972766,106.235785 57.6303422,106.256133 58.0037469,106.29076 C58.0194541,106.292188 58.0365894,106.292545 58.0522966,106.293616 C58.0605072,106.29433 58.0697888,106.294687 58.0779994,106.295401 C58.4285572,106.326102 58.7862547,106.349306 59.1543046,106.360729 C59.5480574,106.372867 59.9311007,106.363228 60.3048624,106.3311 C60.6782671,106.299328 61.0109757,106.217222 61.3037022,106.085495 C61.3793827,106.051581 61.4507794,106.01267 61.5193202,105.969832 C61.7149471,105.84703 61.8805875,105.689243 62.0155272,105.494687 C62.1968748,105.232304 62.2879056,104.881747 62.2879056,104.4423 C62.2879056,104.105308 62.2197218,103.761532 62.0837111,103.41276 C61.9473434,103.06363 61.7149471,102.732349 61.3872363,102.419275 C61.19982,102.240069 60.9720645,102.074429 60.7121805,101.918784 C60.5172676,101.801693 60.3059333,101.689957 60.0703242,101.586075 C59.5337781,101.350823 58.8683609,101.168047 58.0779994,101.037391 C58.0690749,101.035964 58.0612212,101.034179 58.0522966,101.032751 C58.0408732,101.030966 58.0305206,101.028467 58.0190972,101.026325 C57.3833096,100.924228 56.8356969,100.866753 56.3766162,100.854259 C55.9171784,100.841765 55.5262815,100.852831 55.2032115,100.888172 C55.1282449,100.896026 55.0579192,100.904237 54.9900923,100.912804 C54.7662637,100.940649 54.5820602,100.970636 54.4389098,101.002764 C54.2522075,101.043817 54.1133409,101.05774 54.0223101,101.043103 C53.9619799,101.033108 53.9091464,101.004192 53.8638095,100.955999 C53.8184726,100.907806 53.7702798,100.854259 53.7199451,100.795 L53.5689411,100.808922 L53.5382405,100.811778 L54.6584547,103.721193 L54.8098157,103.668717 L54.8098157,103.668717 Z" id="path52" fill="#BE2032"></path>
                        <polyline id="path54" fill="#654134" points="39.2274867 125.505396 35.5655859 128.919586 31.9112531 123.835071 35.564622 120.468716 39.2274867 125.505396"></polyline>
                        <path d="M47.9775088,123.437748 C51.799731,124.134937 55.6326626,124.752518 59.4741618,125.293348 C59.5676915,125.306199 59.6615782,125.320836 59.7554648,125.334044 C59.6915648,125.52146 59.6276647,125.707806 59.5637647,125.895222 C58.9825956,127.594464 58.4014265,129.292634 57.8206144,130.988662 C56.4608643,130.789109 55.1025421,130.579916 53.7452909,130.360729 C53.7452909,140.410171 53.7452909,150.459255 53.7452909,160.508697 C51.149664,160.089599 48.558321,159.634802 45.9723326,159.144307 C45.9723326,157.76171 45.9723326,156.379113 45.9723326,154.996516 C46.6398917,154.5842 47.3081648,154.169742 47.9764379,153.752785 C47.9767949,143.647654 47.9767949,133.542879 47.9775088,123.437748" id="path56" fill="#654134"></path>
                        <path d="M130.484959,126.436409 C134.52387,125.999818 138.556355,125.475767 142.578845,124.867467 C141.933419,126.924763 141.287636,128.979916 140.641853,131.032928 C139.190715,131.242478 137.738506,131.440961 136.285226,131.62802 C136.285226,134.954392 136.285226,138.281121 136.285226,141.607493 C138.015168,141.384735 139.743325,141.14627 141.470054,140.891741 C141.470054,142.76412 141.470054,144.636855 141.470054,146.508876 C139.743325,146.763406 138.015168,147.00187 136.285226,147.224628 C136.285226,150.115123 136.285226,153.005262 136.285226,155.896114 C137.894508,155.688707 139.502005,155.467734 141.10843,155.233196 C141.716016,157.121995 142.323245,159.008653 142.930117,160.893526 C138.120121,161.627127 133.296204,162.237925 128.462647,162.726279 C128.462647,161.343682 128.462647,159.961085 128.462647,158.578488 C129.136989,157.971259 129.810974,157.361531 130.484959,156.749661 C130.484959,146.644887 130.484959,136.540827 130.484959,126.436409" id="path58" fill="#654134"></path>
                        <path d="M184.931365,115.138596 C188.848902,113.920568 192.747519,112.615437 196.623288,111.225343 C196.001423,113.408297 195.379201,115.589109 194.756265,117.767422 C193.356175,118.258275 191.953944,118.738417 190.548857,119.207137 C190.548857,122.533509 190.548857,125.859881 190.548857,129.18661 C192.221325,128.628645 193.889866,128.054972 195.554837,127.465593 C195.554837,129.337614 195.554837,131.209992 195.554837,133.082371 C193.889866,133.672107 192.221325,134.246137 190.548857,134.803745 C190.548857,137.69424 190.548857,140.584735 190.548857,143.474874 C192.104591,142.95582 193.656756,142.4232 195.206064,141.877016 C195.791874,143.647654 196.377327,145.416507 196.961709,147.183218 C192.328063,148.851402 187.662289,150.396783 182.96867,151.81972 C182.96867,150.437123 182.96867,149.054526 182.96867,147.671928 C183.623735,146.934401 184.277729,146.194374 184.931365,145.452205 C184.931365,135.347788 184.931365,125.243013 184.931365,115.138596" id="path60" fill="#654134"></path>
                        <path d="M17.143025,150.687725 C17.5934311,149.319764 18.0441227,147.951447 18.4949571,146.580987 C19.7193034,146.940469 20.9451847,147.292098 22.1728509,147.635159 C22.1728509,138.647386 22.1728509,126.776971 22.1728509,117.789198 C23.1284956,118.001246 24.9598566,118.402496 24.9598566,118.402496 C24.9598566,118.402496 27.247728,118.909769 27.85128,119.048279 C27.85128,128.035695 27.85128,140.171706 27.85128,149.159836 C29.0841224,149.477194 30.3183571,149.786342 31.5544124,150.087279 C32.1541804,152.213829 32.7544838,154.337524 33.3552156,156.459791 C27.936599,155.177506 22.5470052,153.732794 17.1916819,152.131366 C17.0325743,152.083887 16.8727528,152.039264 16.7136453,151.991429 C16.8565815,151.557337 16.9998032,151.122174 17.143025,150.687725" id="path62" fill="#654134"></path>
                        <path d="M109.408654,159.86577 C109.495758,159.793303 109.582505,159.720121 109.669609,159.647653 C110.26006,159.155373 110.85051,158.662379 111.440604,158.166886 C111.440604,149.112714 111.440604,136.906021 111.440604,127.851849 C112.286655,127.851849 114.353232,127.735472 114.353232,127.735472 C114.353232,127.735472 116.28844,127.619452 117.258007,127.568047 C117.258007,131.457025 117.26479,138.48246 117.26479,142.371438 C120.078533,142.193303 120.587235,140.031768 120.587235,137.262647 C120.587235,133.952696 120.587235,130.642746 120.587235,127.332795 C122.513518,127.191786 124.439087,127.031144 126.363228,126.850867 C126.363228,129.687815 126.363228,132.524405 126.363228,135.360996 C126.363228,139.17358 126.18545,141.745646 124.519408,144.446583 C126.398212,146.876569 126.825521,150.366083 126.57956,153.497542 C126.371438,156.140291 125.495044,158.903343 123.463451,160.87639 C121.76885,162.523512 119.497007,163.499862 117.26479,163.636587 C114.734848,163.792588 112.202407,163.913606 109.669609,164.002852 C109.582505,164.005708 109.495758,164.010348 109.408654,164.013204 C109.408654,162.630964 109.408654,161.248367 109.408654,159.86577 L109.408654,159.86577 Z M117.26479,157.624271 C120.785718,157.381165 121.003835,154.898702 121.003835,152.529046 C121.003835,150.149751 120.807851,147.734401 117.26479,147.944664 C117.26479,151.171081 117.26479,154.397497 117.26479,157.624271 L117.26479,157.624271 Z" id="path64" fill="#654134"></path>
                        <path d="M169.931633,122.521014 C170.917979,120.883531 172.222039,119.363852 173.822039,118.334669 C175.769384,117.083085 177.939844,116.737525 180.162066,116.91566 C179.691919,119.039354 179.221415,121.162335 178.750553,123.284245 C176.863896,122.934401 175.266752,123.60553 174.229001,125.153411 C172.349126,127.952875 172.191696,133.535026 172.191696,136.823557 C172.191696,140.108876 172.349126,145.619987 174.229001,147.414186 C175.266752,148.403388 176.863896,148.20312 178.750553,146.77233 C179.221415,148.624003 179.691919,150.474249 180.162066,152.324137 C177.939844,153.799907 175.769384,154.661308 173.822039,154.450331 C172.222039,154.277194 170.917979,153.425788 169.931633,152.286297 C167.643726,149.639978 166.410348,145.663896 166.410705,138.268984 C166.410348,130.870858 167.643369,126.320033 169.931633,122.521014" id="path66" fill="#654134"></path>
                        <path d="M8.88135632,137.719586 C6.5693171,140.619363 7.58240052,142.815882 8.76869233,143.907538 C9.85385071,144.90602 11.4958319,145.132705 12.6001246,144.247029 C13.3277641,146.335025 14.0563673,148.419809 14.7855418,150.50138 C8.02613099,152.149572 2.16407313,145.261576 2.16407313,138.135472 C2.1619812,134.11798 6.61590345,129.504682 9.16290919,125.594642 C11.0697007,122.670947 10.4636499,120.492277 9.27585876,119.40669 C8.18927244,118.413205 6.55232469,118.165816 5.45584993,119.019006 C4.73295838,116.911733 4.0107808,114.801604 3.28898876,112.688261 C9.9730832,111.350287 15.9245333,117.870591 15.9235694,125.000979 C15.9213204,130.025878 11.1192144,134.920122 8.88135632,137.719586" id="path68" fill="#654134"></path>
                        <path d="M61.9416317,125.629983 C63.9114665,125.889867 65.8834432,126.130474 67.8568479,126.349662 C68.027843,127.878979 68.1927694,129.354035 68.2713057,130.059078 C70.0658617,130.255061 71.8614886,130.434624 73.6585435,130.597409 C73.8074056,129.389377 73.9562677,128.181701 74.1051298,126.973669 C76.0738937,127.148591 78.0437285,127.303165 80.0146343,127.437391 C78.1954465,139.339934 76.3773296,151.224985 74.5602837,163.092544 C71.1286015,162.793035 67.7012031,162.431767 64.2798734,162.009099 C64.2798734,160.619719 64.2798734,159.229983 64.2798734,157.840603 C64.9549292,157.383664 65.630342,156.923869 66.3061117,156.461933 C64.7964285,146.353232 63.2885303,136.231679 61.7809891,126.098703 C61.7563572,125.932348 61.7313684,125.766708 61.7067365,125.600354 C61.7849159,125.610349 61.8634523,125.619631 61.9416317,125.629983 L61.9416317,125.629983 Z M70.8605069,153.189108 C70.8658617,153.189822 70.8708595,153.190179 70.8762142,153.190536 C71.5651923,147.599818 72.2541704,142.006958 72.9431486,136.411599 C71.6069594,136.287368 70.2718412,136.153499 68.9374369,136.010706 C69.5785793,141.738863 70.2193646,147.465235 70.8605069,153.189108 L70.8605069,153.189108 Z" id="path70" fill="#654134"></path>
                        <path d="M85.6385521,127.765102 C86.7773294,127.820791 87.9161067,127.868984 89.055598,127.910394 C90.4539022,133.610706 91.8525635,139.300666 93.2515818,144.979916 C94.6502431,139.36171 96.0492613,133.733508 97.4482796,128.094597 C98.5881278,128.102808 99.7279761,128.10495 100.867467,128.099595 C102.401068,138.199372 103.934669,148.287368 105.46827,158.36287 C106.060506,158.819095 106.652742,159.272107 107.24462,159.724405 C107.331724,159.790804 107.418828,159.858274 107.505932,159.924672 C107.505932,161.306913 107.505932,162.68951 107.505932,164.07175 C107.418828,164.074248 107.331724,164.075319 107.24462,164.077461 C105.014901,164.137078 102.784826,164.172062 100.554393,164.179916 C99.8297164,159.458095 99.1043259,154.733419 98.3796495,150.006243 C97.2094576,154.725922 96.0396228,159.437747 94.8694309,164.143146 C93.7906268,164.125654 92.7121797,164.101736 91.6333757,164.072107 C90.4635408,159.315659 89.2940629,154.551714 88.124585,149.780987 C87.4002656,154.476391 86.6755891,159.169295 85.9512696,163.859344 C83.6358747,163.749393 81.3215508,163.611955 79.0086549,163.445958 C79.0086549,162.063718 79.0086549,160.681477 79.0086549,159.298523 C79.6865665,158.810527 80.3648351,158.320032 81.0431037,157.826681 C82.5745629,147.818649 84.106379,137.798122 85.6385521,127.765102" id="path72" fill="#654134"></path>
                        <path d="M145.551804,156.333419 C146.222933,155.683709 146.893704,155.031857 147.564119,154.377863 C147.564119,145.323691 147.564119,133.082728 147.564119,124.028556 C148.11316,123.923245 150.44569,123.547699 150.44569,123.547699 C150.44569,123.547699 152.651848,123.171795 153.324048,123.051492 C153.324048,126.784468 153.324048,133.645691 153.324048,137.378667 C154.492812,132.374472 155.660148,127.362781 156.826413,122.343951 C156.828555,122.343594 156.831054,122.34288 156.833196,122.342523 C156.833196,122.342523 156.833196,122.342166 156.833196,122.342166 C158.747698,121.953054 160.658631,121.543951 162.566707,121.11557 C162.567064,131.220702 162.567421,141.325476 162.567778,151.430251 C163.232124,151.820077 163.896114,152.207404 164.559389,152.592589 C164.559389,153.974829 164.559389,155.357426 164.559389,156.740023 C161.990179,157.336542 159.414186,157.896649 156.833196,158.421415 C156.833196,153.843459 156.833196,149.265503 156.833196,144.68719 C155.664432,149.502897 154.494954,154.311107 153.324048,159.112178 C150.73806,159.604101 148.147073,160.060326 145.551804,160.480853 C145.551804,159.098256 145.551804,157.715659 145.551804,156.333419" id="path74" fill="#654134"></path>
                        <path d="M145.269073,82.4549734 C145.261933,82.5567137 145.253722,82.6527422 145.246226,82.7534116 C145.198747,83.4113321 145.146984,84.0474767 145.091295,84.6643442 C145.090938,84.667914 145.090938,84.6714838 145.090581,84.6746967 C145.823468,84.5401139 146.553856,84.3983915 147.284244,84.25774 C147.355641,84.2438176 147.427038,84.2306092 147.498078,84.2170439 C149.873089,83.7565352 152.236319,83.263184 154.586699,82.7362764 C159.590179,81.6149913 164.538684,80.3484139 169.423646,78.9326174 L169.423646,92.2548839 L179.052204,101.802407 L179.057916,101.808119 C173.767421,103.417043 168.314498,104.883175 162.788037,106.189734 C162.77697,106.192233 162.765904,106.194732 162.754481,106.197231 L168.738595,112.099953 L168.746091,112.107449 L160.202763,114.003032 C140.707538,118.332884 120.4423,120.62329 99.6497967,120.62329 C78.8633626,120.62329 58.6034791,118.335026 39.1111101,114.004816 L30.5950193,112.113875 L36.5615341,106.198302 C31.0321813,104.891028 25.5760458,103.423826 20.2829446,101.814188 L29.9166079,92.2613096 L29.9166079,78.9394001 C29.9253897,78.941542 29.9340287,78.9440409 29.9425606,78.9465397 C37.0855859,81.015973 44.3626941,82.7719747 51.7533231,84.2070483 C52.4840683,84.3487708 53.2151705,84.4887083 53.9477006,84.624362 C53.9473436,84.6175793 53.9466296,84.6107966 53.9459157,84.6040139 C53.8827296,83.8954017 53.8231133,83.1664415 53.7702798,82.4042817 C53.7699228,82.3974991 53.7695658,82.3907164 53.7688518,82.3842907 C53.5778657,79.6237374 53.4600611,76.5119124 53.4600611,73.0298955 C53.4600611,45.0838007 71.1921446,16.1016328 99.5212827,2.38690936 C127.850778,16.1016328 145.582504,45.0838007 145.582504,73.0298955 C145.582504,74.9101275 145.546806,76.6775527 145.485048,78.3450226 C145.431857,79.7879498 145.359389,81.1573384 145.269787,82.4449779 C145.26943,82.4485477 145.269073,82.4517605 145.269073,82.4549734 Z M40.1449343,109.354393 C59.3024528,113.609279 79.2139204,115.857204 99.6501537,115.857204 C120.093884,115.857204 140.010349,113.607494 159.17108,109.352251 L159.163227,109.344754 L157.233374,107.441318 L157.225163,107.433465 L154.136185,104.387324 L154.136185,103.298168 L154.136185,103.288886 L154.136185,95.515928 C151.459523,96.0828178 148.765012,96.6036567 146.056935,97.0884402 C146.048368,97.0898682 146.0398,97.0912961 146.031232,97.093081 C145.76528,97.1405598 145.500041,97.1880386 145.234445,97.2348035 C144.457292,97.3715281 143.679425,97.503969 142.90013,97.633554 C142.371438,97.7213719 141.843102,97.8102608 141.313339,97.8952229 C141.304771,97.8962938 141.296204,97.8980788 141.287636,97.8995067 C136.614008,98.6466731 131.898256,99.2721082 127.143593,99.7693862 C118.106914,100.713964 108.932081,101.20089 99.6490827,101.20089 C90.3757229,101.20089 81.231948,100.713964 72.2248978,99.7693862 C67.4705918,99.2706802 62.75484,98.6434603 58.0779994,97.892367 C58.0694318,97.8909391 58.0608642,97.8895112 58.0522966,97.8880832 C57.4086554,97.784915 56.7664421,97.676749 56.1242289,97.568583 C55.3449339,97.4375701 54.5670669,97.3022733 53.7899139,97.1644777 C53.6385529,97.137347 53.4871919,97.1102162 53.3358309,97.0830855 C53.3269063,97.0813006 53.3183387,97.0798726 53.3097711,97.0784447 C50.589557,96.5897343 47.8814803,96.0642546 45.1891109,95.4923671 C45.1801863,95.4905822 45.1716187,95.4887973 45.1630511,95.4873693 L45.1630511,103.276035 L45.1630511,103.296383 L45.1630511,104.379828 L42.0922792,107.423826 L42.075501,107.440604 L40.1449343,109.354393 Z M170.029447,99.4902251 L164.737881,94.2889758 L164.737881,85.1198551 C160.262022,86.2982575 155.738684,87.3588555 151.170724,88.297722 C151.153588,88.3012919 151.136453,88.3048617 151.119318,88.3084315 L158.874427,89.6339112 L158.899773,89.638195 L158.899773,89.6549732 L158.899773,102.257561 L158.899773,102.266843 C158.908341,102.264701 158.916908,102.262559 158.925833,102.260774 C162.658809,101.415437 166.363584,100.495491 170.035873,99.4966508 L170.029447,99.4902251 Z M136.464789,66.1640323 L124.22454,66.1640323 C127.400979,68.2041929 131.287815,68.7996413 133.746717,68.7521625 L132.882103,83.717981 L134.931545,83.717981 L135.167868,81.0563121 C135.693348,80.5479676 136.038551,79.8529208 136.104593,79.0775527 C136.168136,78.336455 135.868627,77.6092796 135.511643,77.1120016 L135.730117,74.575277 C136.496561,74.0255225 136.953499,73.278713 137.045601,72.2477447 C137.128064,71.3113771 136.657917,70.4945989 136.132794,69.9494851 L136.464789,66.1640323 Z M103.983576,72.2477447 C104.075321,73.278713 104.532974,74.0255225 105.298703,74.575277 L105.517534,77.1120016 C105.160551,77.6092796 104.861399,78.336455 104.924942,79.0775527 C104.990627,79.8529208 105.33583,80.5479676 105.861309,81.0563121 L106.097275,83.717981 L108.151001,83.717981 L107.286387,68.7521625 C109.744933,68.7996413 113.632126,68.2041929 116.808565,66.1640323 L104.564388,66.1640323 L104.896383,69.9494851 C104.37126,70.4945989 103.901113,71.3113771 103.983576,72.2477447 L103.983576,72.2477447 Z M131.977507,70.3593021 C131.977507,70.3593021 125.779203,70.1276198 121.350822,66.0572942 L121.350822,83.717981 L121.350822,84.6943308 C121.775633,84.9577846 122.193304,85.1891099 122.603835,85.3972312 C127.338149,87.7972312 131.031501,86.7359193 131.031501,86.7359193 L131.108966,85.3972312 L131.205708,83.717981 L131.977507,70.3593021 Z M109.826325,83.717981 L109.923424,85.3972312 L110.000533,86.7359193 C110.000533,86.7359193 113.694955,87.7972312 118.428913,85.3972312 C118.839444,85.1891099 119.257114,84.9577846 119.681925,84.6943308 L119.681925,83.717981 L119.681925,66.0572942 C115.253545,70.1276198 109.05524,70.3593021 109.05524,70.3593021 L109.826325,83.717981 Z M29.3048453,99.5030765 C32.9710657,100.500131 36.6700571,101.419007 40.3969646,102.263273 L40.3969646,102.242211 L40.3980356,89.6071374 L40.4240954,89.6028536 L40.431592,89.6014257 L40.4519401,89.5978559 L48.1670671,88.3037907 C48.1577855,88.3016488 48.1481469,88.2998639 48.1388654,88.298079 C43.5901819,87.3620683 39.0857643,86.3061112 34.629361,85.1323495 C34.620722,85.1302076 34.6121901,85.1280657 34.6034083,85.1259238 L34.6034083,94.2950445 L29.3048453,99.5030765 Z M73.1766158,40.5468977 C73.2230236,41.0898696 73.4639875,41.576795 73.8327514,41.9327076 L73.9969638,43.7965183 L75.4359642,43.7965183 L74.8301632,33.3170184 C76.5518946,33.3489684 79.2738936,32.9326899 81.4979007,31.5045061 L72.9242284,31.5045061 L73.1566247,34.1548229 C72.7889317,34.5361883 72.4594359,35.1090397 72.5176242,35.76439 C72.5818813,36.4858536 72.9017385,37.0099054 73.4386416,37.3947336 L73.5917875,39.1707264 C73.3415421,39.5191423 73.1319928,40.0282007 73.1766158,40.5468977 L73.1766158,40.5468977 Z M76.6768388,44.9727789 L76.7311003,45.9098605 C76.7311003,45.9098605 79.3145897,46.6470314 82.6252545,44.9727789 C82.9158391,44.8257017 83.2103504,44.666844 83.5109305,44.4804987 L83.5109305,43.7965183 L83.5109305,31.4298966 C80.409815,34.2803026 76.0688959,34.4419447 76.0688959,34.4419447 L76.6090119,43.7965183 L76.6768388,44.9727789 Z M91.5805421,43.7965183 L92.1203011,34.4419447 C92.1203011,34.4419447 87.7808099,34.2803026 84.6789805,31.4298966 L84.6789805,43.7965183 L84.6789805,44.4804987 C84.9799176,44.666844 85.2740719,44.8257017 85.5650135,44.9727789 C88.8756783,46.6470314 91.4588107,45.9098605 91.4588107,45.9098605 L91.5127152,44.9727789 L91.5805421,43.7965183 Z M94.7498415,37.3947336 C95.2856737,37.0099054 95.6058878,36.4858536 95.6690739,35.76439 C95.7276192,35.1090397 95.3981235,34.5361883 95.0304305,34.1548229 L95.2628267,31.5045061 L86.6916533,31.5045061 C88.9156604,32.9326899 91.6380165,33.3489684 93.3601048,33.3170184 L92.7539468,43.7965183 L94.1897344,43.7965183 L94.3546607,41.9327076 C94.7234247,41.576795 94.9643885,41.0898696 95.0107964,40.5468977 C95.0547053,40.0282007 94.845513,39.5191423 94.5963386,39.1707264 L94.7498415,37.3947336 Z M99.5212827,7.36796055 L99.5212827,55.5641218 L60.378401,55.5641218 C58.7873256,61.3111988 57.9302083,67.1917877 57.9302083,73.0298955 C57.9302083,76.1031663 58.0055318,79.6494402 58.2554202,83.1864325 C58.2557772,83.1932152 58.2564912,83.1996409 58.2568482,83.2064236 C58.5074506,86.7437729 58.9361877,90.263987 59.6412301,93.2983466 C59.642658,93.3051293 59.644443,93.311555 59.6455139,93.3179807 C72.6364997,95.3606402 85.9341344,96.4294487 99.5212827,96.4358744 L99.5212827,96.4205241 L99.5212827,94.2882618 L99.5212827,94.2729115 L99.5212827,55.5641218 L138.664164,55.5641218 C133.030608,35.2132075 118.18545,16.5365458 99.5212827,7.36796055 L99.5212827,7.36796055 Z" id="path76" fill="#654134"></path>
                        <path d="M104.422309,36.8703248 C104.73574,36.8703248 105.028467,36.9681383 105.265504,37.1294948 C105.101291,36.8938857 105.003835,36.606871 105.003835,36.2980803 C105.003835,35.4783034 105.664254,34.8124579 106.479248,34.8124579 C107.299953,34.8124579 107.956088,35.4783034 107.956088,36.2980803 C107.956088,36.5090575 107.912179,36.7078973 107.829716,36.8913869 L112.883531,36.8913869 L112.883531,31.839428 C112.701113,31.9228194 112.502273,31.966764 112.290582,31.966764 C111.471305,31.966764 110.806601,31.3095575 110.806601,30.4901376 C110.806601,29.6734308 111.471305,29.0146534 112.290582,29.0146534 C112.599372,29.0146534 112.887815,29.1117173 113.123067,29.2755727 C112.959926,29.0386427 112.862826,28.7451309 112.862826,28.4327704 C112.862826,27.622168 113.5286,26.9582501 114.33931,26.9582501 C115.15109,26.9582501 115.816865,27.622168 115.816865,28.4327704 C115.816865,28.7451309 115.719408,29.0386427 115.557338,29.2755727 C115.794018,29.1117173 116.080318,29.0146534 116.388752,29.0146534 C117.2091,29.0146534 117.874517,29.6734308 117.874517,30.4901376 C117.874517,31.3095575 117.2091,31.966764 116.388752,31.966764 C116.178132,31.966764 115.978578,31.9228194 115.795803,31.839428 L115.795803,36.8913869 L121.031679,36.8913869 C120.949216,36.7078973 120.906378,36.5090575 120.906378,36.2980803 C120.906378,35.4783034 121.561086,34.8124579 122.381077,34.8124579 C123.197498,34.8124579 123.856847,35.4783034 123.856847,36.2980803 C123.856847,36.606871 123.760104,36.8938857 123.596606,37.1294948 C123.831858,36.9681383 124.125298,36.8703248 124.438373,36.8703248 C125.25051,36.8703248 125.913785,37.535742 125.913785,38.3475225 C125.913785,39.157518 125.25051,39.8250771 124.438373,39.8250771 C124.125298,39.8250771 123.831858,39.7283346 123.596606,39.5655501 C123.760104,39.8004452 123.856847,40.0881739 123.856847,40.3962507 C123.856847,41.2165987 123.197498,41.880945 122.381077,41.880945 C121.561086,41.880945 120.906378,41.2165987 120.906378,40.3962507 C120.906378,40.1842025 120.949216,39.9871476 121.031679,39.8036581 L115.795803,39.8036581 L115.795803,45.0431046 C115.978578,44.9588565 116.178132,44.9163755 116.388752,44.9163755 C117.2091,44.9163755 117.874517,45.5703692 117.874517,46.3917882 C117.874517,47.2071385 117.2091,47.8672009 116.388752,47.8672009 C116.080318,47.8672009 115.794018,47.7697445 115.557338,47.60696 C115.719408,47.8414981 115.816865,48.1356525 115.816865,48.4483701 C115.816865,49.2605075 115.15109,49.9234258 114.33931,49.9234258 C113.5286,49.9234258 112.862826,49.2605075 112.862826,48.4483701 C112.862826,48.1356525 112.959926,47.8414981 113.123067,47.60696 C112.887815,47.7697445 112.599372,47.8672009 112.290582,47.8672009 C111.471305,47.8672009 110.806601,47.2071385 110.806601,46.3917882 C110.806601,45.5703692 111.471305,44.9163755 112.290582,44.9163755 C112.502273,44.9163755 112.701113,44.9588565 112.883531,45.0431046 L112.883531,39.8036581 L107.829716,39.8036581 C107.912179,39.9871476 107.956088,40.1842025 107.956088,40.3962507 C107.956088,41.2165987 107.299953,41.880945 106.479248,41.880945 C105.664254,41.880945 105.003835,41.2165987 105.003835,40.3962507 C105.003835,40.0881739 105.101291,39.8004452 105.265504,39.5655501 C105.028467,39.7283346 104.73574,39.8250771 104.422309,39.8250771 C103.61267,39.8250771 102.947253,39.157518 102.947253,38.3475225 C102.947253,37.535742 103.61267,36.8703248 104.422309,36.8703248" id="path78" fill="#654134"></path>
                        <path d="M93.2715729,78.0462274 C92.8246295,78.0462274 92.40446,77.9066469 92.0688955,77.6753216 C92.3016487,78.0116 92.4412293,78.422845 92.4412293,78.8630056 C92.4412293,80.0349824 91.497008,80.9831305 90.3318139,80.9831305 C89.1609081,80.9831305 88.2245404,80.0349824 88.2245404,78.8630056 C88.2245404,78.5595697 88.2862986,78.2768387 88.4051741,78.0169548 L80.9235143,78.0169548 L80.9235143,85.4996855 C81.1855401,85.381167 81.4711269,85.3190519 81.771707,85.3190519 C82.9436838,85.3190519 83.8950448,86.2554195 83.8950448,87.4273963 C83.8950448,88.5918764 82.9436838,89.5368117 81.771707,89.5368117 C81.3311894,89.5368117 80.9199444,89.3965172 80.5847369,89.1637639 C80.8149913,89.4996854 80.9549288,89.919141 80.9549288,90.3657273 C80.9549288,91.5259236 80.0039248,92.4737148 78.8444425,92.4737148 C77.6863881,92.4737148 76.7335992,91.5259236 76.7335992,90.3657273 C76.7335992,89.919141 76.8731797,89.4996854 77.104862,89.1637639 C76.7700115,89.3965172 76.3580525,89.5368117 75.9175349,89.5368117 C74.7459151,89.5368117 73.797053,88.5918764 73.797053,87.4273963 C73.797053,86.2554195 74.7459151,85.3190519 75.9175349,85.3190519 C76.2209709,85.3190519 76.5029878,85.381167 76.7642997,85.4996855 L76.7642997,78.0169548 L69.5428809,78.0169548 C69.6631843,78.2768387 69.7245855,78.5595697 69.7245855,78.8630056 C69.7245855,80.0349824 68.7867899,80.9831305 67.6158841,80.9831305 C66.4492621,80.9831305 65.5082536,80.0349824 65.5082536,78.8630056 C65.5082536,78.422845 65.6474772,78.0116 65.8813013,77.6753216 C65.543952,77.9066469 65.1244964,78.0462274 64.677553,78.0462274 C63.5191417,78.0462274 62.5699226,77.0937955 62.5699226,75.936455 C62.5699226,74.7762587 63.5191417,73.8256117 64.677553,73.8256117 C65.1244964,73.8256117 65.543952,73.9651923 65.8813013,74.1965176 C65.6474772,73.8602391 65.5082536,73.4497081 65.5082536,73.0088335 C65.5082536,71.8375707 66.4492621,70.8862097 67.6158841,70.8862097 C68.7867899,70.8862097 69.7245855,71.8375707 69.7245855,73.0088335 C69.7245855,73.3097706 69.6631843,73.5942864 69.5428809,73.8563123 L76.7642997,73.8563123 L76.7642997,66.6388203 C76.5029878,66.7580528 76.2209709,66.8198109 75.9175349,66.8198109 C74.7459151,66.8198109 73.797053,65.8827293 73.797053,64.7111095 C73.797053,63.5452014 74.7459151,62.603479 75.9175349,62.603479 C76.3580525,62.603479 76.7700115,62.7412746 77.104862,62.9758128 C76.8731797,62.6388204 76.7335992,62.2197218 76.7335992,61.7717075 C76.7335992,60.6140101 77.6863881,59.665148 78.8444425,59.665148 C80.0039248,59.665148 80.9549288,60.6140101 80.9549288,61.7717075 C80.9549288,62.2197218 80.8149913,62.6388204 80.5847369,62.9758128 C80.9199444,62.7412746 81.3311894,62.603479 81.771707,62.603479 C82.9436838,62.603479 83.8950448,63.5452014 83.8950448,64.7111095 C83.8950448,65.8827293 82.9436838,66.8198109 81.771707,66.8198109 C81.4711269,66.8198109 81.1855401,66.7580528 80.9235143,66.6388203 L80.9235143,73.8563123 L88.4051741,73.8563123 C88.2862986,73.5942864 88.2245404,73.3097706 88.2245404,73.0088335 C88.2245404,71.8375707 89.1609081,70.8862097 90.3318139,70.8862097 C91.497008,70.8862097 92.4412293,71.8375707 92.4412293,73.0088335 C92.4412293,73.4497081 92.3016487,73.8602391 92.0688955,74.1965176 C92.40446,73.9651923 92.8246295,73.8256117 93.2715729,73.8256117 C94.4303412,73.8256117 95.3781324,74.7762587 95.3781324,75.936455 C95.3781324,77.0937955 94.4303412,78.0462274 93.2715729,78.0462274" id="path80" fill="#654134"></path>
                        <polyline id="path82" fill="#654134" points="147.795088 81.9691189 147.977149 81.9402032 148.406244 81.8713054 148.373044 82.5045941 147.408832 82.6591679 146.412134 82.8187396 146.442834 82.2318587 146.443548 82.2218632 146.445333 82.1858079 147.056132 82.0876374 147.173937 79.8450672 147.576614 79.7804532 147.912892 79.7269056 147.795445 81.9648351 147.795088 81.9691189"></polyline>
                        <polyline id="path84" fill="#654134" points="151.605172 81.9869681 150.86943 82.1047726 150.609546 81.4000872 150.606333 81.3911626 150.339309 80.6657722 149.995534 81.5164638 149.991607 81.5271733 149.681388 82.2954018 148.953856 82.4121354 148.875677 81.7563567 148.874963 81.7467182 148.621505 79.6130279 149.356891 79.4955803 149.507538 81.1127155 149.515034 81.1112876 150.254704 79.352073 150.548858 79.3045942 151.144664 80.8506896 151.15216 80.8492617 151.446315 79.1607298 152.185628 79.0425683 151.770456 81.1487708 151.768314 81.1587664 151.605172 81.9869681"></polyline>
                        <path d="M10.5727083,139.069698 C9.04132061,140.990269 9.79459146,141.910572 10.2340024,142.315034 C11.4382505,143.423111 13.0630965,141.102005 13.6335561,140.644352 L15.9698345,147.330652 L17.094618,143.913963 L19.1047563,144.504414 L20.0087813,144.768582 L20.0087813,115.096829 L25.4265768,116.289511 C26.957429,116.629002 28.4867106,116.973491 30.0153495,117.322978 L30.0153495,122.639533 L35.8854074,117.230876 L42.1044166,125.782058 L35.2433369,132.178488 L30.0153495,124.90495 L30.0153495,147.477372 C31.106648,147.751536 32.2000527,148.017132 33.2934574,148.283084 L36.4383748,159.413472 C28.8753585,157.623557 21.4075854,155.663718 13.9637658,153.424003 L14.2593838,152.525833 C6.22086553,152.893526 -2.11758237e-22,147.202138 -2.11758237e-22,138.135829 C-0.00125502183,135.421683 1.46377149,132.786074 2.90788034,130.623111 C4.3348504,128.485851 6.08057102,126.3618 7.35011137,124.413027 C8.82238264,122.155463 8.04062452,121.2091 7.81572493,121.003478 C6.58941527,119.882192 5.08408733,122.050867 4.3910396,122.590269 L0.441349387,111.051492 C9.85106624,109.168047 18.0890312,114.62097 18.0874962,125.001336 C18.0851044,130.61383 13.8216864,135.005441 10.5727083,139.069698 Z M35.5655859,128.919586 L39.2274867,125.505396 L35.564622,120.468716 L31.9112531,123.835071 L35.5655859,128.919586 Z M33.3552156,156.459791 C32.7544838,154.337524 32.1541804,152.213829 31.5544124,150.087279 C30.3183571,149.786342 29.0841224,149.477194 27.85128,149.159836 C27.85128,140.171706 27.85128,128.035695 27.85128,119.048279 C27.247728,118.909769 24.9598566,118.402496 24.9598566,118.402496 C24.9598566,118.402496 23.1284956,118.001246 22.1728509,117.789198 C22.1728509,126.776971 22.1728509,138.647386 22.1728509,147.635159 C20.9451847,147.292098 19.7193034,146.940469 18.4949571,146.580987 C18.0441227,147.951447 17.5934311,149.319764 17.143025,150.687725 C16.9998032,151.122174 16.8565815,151.557337 16.7136453,151.991429 C16.8727528,152.039264 17.0325743,152.083887 17.1916819,152.131366 C22.5470052,153.732794 27.936599,155.177506 33.3552156,156.459791 L33.3552156,156.459791 Z M3.28898876,112.688261 C4.0107808,114.801604 4.73295838,116.911733 5.45584993,119.019006 C6.55232469,118.165816 8.18927244,118.413205 9.27585876,119.40669 C10.4636499,120.492277 11.0697007,122.670947 9.16290919,125.594642 C6.61590345,129.504682 2.1619812,134.11798 2.16407313,138.135472 C2.16407313,145.261576 8.02613099,152.149572 14.7855418,150.50138 C14.0563673,148.419809 13.3277641,146.335025 12.6001246,144.247029 C11.4958319,145.132705 9.85385071,144.90602 8.76869233,143.907538 C7.58240052,142.815882 6.5693171,140.619363 8.88135632,137.719586 C11.1192144,134.920122 15.9213204,130.025878 15.9235694,125.000979 C15.9245333,117.870591 9.9730832,111.350287 3.28898876,112.688261 L3.28898876,112.688261 Z" id="path86" fill="#E7D1A0"></path>
                        <path d="M45.813475,120.843549 C50.8840683,121.768136 55.9589455,122.589912 61.0580975,123.322799 C63.9746526,123.701202 66.8915646,124.064968 69.8152593,124.389466 L70.2290032,128.091028 L71.7679589,128.245601 L72.2131173,124.633286 C75.6430146,124.937793 79.0743398,125.204459 82.5095919,125.438283 L77.580007,157.661397 L79.0407834,156.604369 L83.7943754,125.508966 C86.1183379,125.62213 88.4423003,125.722442 90.7676907,125.807404 L91.1571597,127.39491 L93.2619343,135.966083 L95.7597477,125.918069 C97.4589891,125.930921 99.1582305,125.943415 100.857829,125.935561 L102.72628,125.927351 L107.47666,157.1759 L108.403032,157.885583 L109.27657,157.155195 L109.27657,125.687815 L111.440604,125.687815 C112.251314,125.687815 114.227574,125.575365 114.227574,125.575365 C115.626235,125.491474 117.02454,125.414008 118.423201,125.339042 L118.423201,125.32155 C121.732438,125.079158 125.036677,124.79964 128.340202,124.491563 C134.05051,123.873625 139.721906,123.106467 145.400086,122.250778 L145.400086,122.239711 L147.156801,121.903076 C147.717979,121.795624 150.101558,121.410796 150.101558,121.410796 C151.742968,121.131278 153.382593,120.841764 155.030072,120.513696 L156.392321,120.223826 C159.180005,119.656579 161.955195,119.035071 164.730741,118.411421 L164.731098,131.063629 C165.315837,127.187145 166.430696,124.13922 168.078175,121.40437 C169.182325,119.570546 170.698434,117.770635 172.651848,116.51441 C176.020344,114.349305 179.056845,114.655597 182.767331,114.952965 L182.767331,113.545379 C188.519763,111.756534 194.192588,109.798123 199.861485,107.765459 L196.529759,119.438462 C195.258897,119.884334 193.988036,120.329136 192.712891,120.762157 L192.712891,126.166887 C194.385002,125.589287 196.051044,124.993839 197.718871,124.403031 L197.718871,134.611688 C196.052829,135.201782 194.38643,135.790447 192.712891,136.358765 L192.712891,140.45515 L194.486028,139.836141 L196.567242,139.102183 L199.67871,148.505128 C193.433284,150.75341 187.156086,152.81142 180.804636,154.736989 L180.804636,154.428912 C176.622218,156.882459 172.142075,158.147609 168.295221,153.70245 C167.701201,153.015257 167.181076,152.260951 166.723423,151.434177 L166.723423,158.459612 C162.717354,159.389197 158.699505,160.250241 154.669162,161.058809 C151.706556,161.622843 148.737524,162.139755 145.763495,162.633463 L145.768493,162.64917 C145.459345,162.696649 145.150554,162.738416 144.841406,162.785181 C144.35698,162.864788 143.872553,162.94511 143.38777,163.023646 L143.38777,162.997229 C137.703879,163.829358 132.020345,164.541897 126.298614,165.119853 L126.298614,160.841406 C125.902005,161.417934 125.461487,161.952696 124.971349,162.428912 C122.904058,164.437658 120.144575,165.628555 117.397587,165.796694 C114.823023,165.955194 112.246673,166.069429 109.669609,166.166172 L109.669609,166.176881 C109.284781,166.187591 108.899953,166.197229 108.515481,166.207225 C108.091742,166.222575 107.66836,166.238282 107.24462,166.252919 L107.24462,166.240067 C105.0174,166.294686 102.79018,166.336453 100.561889,166.343949 L98.6980787,166.350018 L97.8780877,161.005975 L96.5551069,166.335025 C94.3443082,166.29897 92.1349375,166.250777 89.9252097,166.19009 L88.6086546,160.828555 L87.7929474,166.113338 C84.1402924,165.939844 80.4922782,165.722084 76.844978,165.460415 L76.844978,162.46818 L76.3926799,165.424717 C72.2595252,165.064164 68.1324392,164.66577 64.0142777,164.156355 L62.1158396,163.921817 L62.1158396,156.6954 L63.965014,155.437033 C62.7269953,147.142879 61.4921894,138.84694 60.2573836,130.551358 L59.2860315,133.390447 L57.5068259,133.129849 L55.9093248,132.891027 L55.9093248,163.050063 C51.8654159,162.39714 47.8325735,161.699594 43.8082988,160.936721 L43.8082988,153.792767 L45.812404,152.549037 L45.813475,120.843549 Z M128.320925,147.57233 L128.320925,139.854347 C128.127083,141.397944 127.75582,142.867288 127.042924,144.341987 C127.596248,145.311554 128.02213,146.406065 128.320925,147.57233 Z M182.96867,151.81972 C187.662289,150.396783 192.328063,148.851402 196.961709,147.183218 C196.377327,145.416507 195.791874,143.647654 195.206064,141.877016 C193.656756,142.4232 192.104591,142.95582 190.548857,143.474874 C190.548857,140.584735 190.548857,137.69424 190.548857,134.803745 C192.221325,134.246137 193.889866,133.672107 195.554837,133.082371 C195.554837,131.209992 195.554837,129.337614 195.554837,127.465593 C193.889866,128.054972 192.221325,128.628645 190.548857,129.18661 C190.548857,125.859881 190.548857,122.533509 190.548857,119.207137 C191.953944,118.738417 193.356175,118.258275 194.756265,117.767422 C195.379201,115.589109 196.001423,113.408297 196.623288,111.225343 C192.747519,112.615437 188.848902,113.920568 184.931365,115.138596 C184.931365,125.243013 184.931365,135.347788 184.931365,145.452205 C184.277729,146.194374 183.623735,146.934401 182.96867,147.671928 C182.96867,149.054526 182.96867,150.437123 182.96867,151.81972 Z M182.767331,115.162157 L180.410883,125.793125 C178.88585,125.510394 177.102361,124.754303 176.025698,126.359301 C174.443191,128.715749 174.35573,134.029805 174.35573,136.823557 C174.35573,138.561353 174.44676,144.630429 175.722619,145.8481 C177.070946,145.662468 179.348501,143.602317 180.043191,143.075409 L180.959567,146.677373 L182.767331,144.632571 L182.767331,115.162157 Z M169.931633,152.286297 C170.917979,153.425788 172.222039,154.277194 173.822039,154.450331 C175.769384,154.661308 177.939844,153.799907 180.162066,152.324137 C179.691919,150.474249 179.221415,148.624003 178.750553,146.77233 C176.863896,148.20312 175.266752,148.403388 174.229001,147.414186 C172.349126,145.619987 172.191696,140.108876 172.191696,136.823557 C172.191696,133.535026 172.349126,127.952875 174.229001,125.153411 C175.266752,123.60553 176.863896,122.934401 178.750553,123.284245 C179.221415,121.162335 179.691919,119.039354 180.162066,116.91566 C177.939844,116.737525 175.769384,117.083085 173.822039,118.334669 C172.222039,119.363852 170.917979,120.883531 169.931633,122.521014 C167.643369,126.320033 166.410348,130.870858 166.410705,138.268984 C166.410348,145.663896 167.643726,149.639978 169.931633,152.286297 L169.931633,152.286297 Z M164.731455,150.187591 L166.65631,151.309947 C165.755998,149.643191 165.121281,147.663718 164.731455,145.25515 L164.731455,150.187591 Z M153.324048,159.112178 C154.494954,154.311107 155.664432,149.502897 156.833196,144.68719 C156.833196,149.265503 156.833196,153.843459 156.833196,158.421415 C159.414186,157.896649 161.990179,157.336542 164.559389,156.740023 C164.559389,155.357426 164.559389,153.974829 164.559389,152.592589 C163.896114,152.207404 163.232124,151.820077 162.567778,151.430251 C162.567421,141.325476 162.567064,131.220702 162.566707,121.11557 C160.658631,121.543951 158.747698,121.953054 156.833196,122.342166 C156.833196,122.342166 156.833196,122.342523 156.833196,122.342523 C156.831054,122.34288 156.828555,122.343594 156.826413,122.343951 C155.660148,127.362781 154.492812,132.374472 153.324048,137.378667 C153.324048,133.645691 153.324048,126.784468 153.324048,123.051492 C152.651848,123.171795 150.44569,123.547699 150.44569,123.547699 C150.44569,123.547699 148.11316,123.923245 147.564119,124.028556 C147.564119,133.082728 147.564119,145.323691 147.564119,154.377863 C146.893704,155.031857 146.222933,155.683709 145.551804,156.333419 C145.551804,157.715659 145.551804,159.098256 145.551804,160.480853 C148.147073,160.060326 150.73806,159.604101 153.324048,159.112178 L153.324048,159.112178 Z M145.400086,153.463271 L145.400086,123.107181 L142.298613,132.980273 C141.015971,133.165548 139.73333,133.350822 138.44926,133.52503 L138.44926,139.136453 C140.179202,138.898345 141.906645,138.640246 143.634088,138.386074 L143.634088,148.377328 C141.906645,148.631857 140.179559,148.8871 138.44926,149.121638 L138.44926,153.424717 C139.836498,153.233731 141.221951,153.029537 142.607761,152.827127 L143.428823,155.378845 L145.400086,153.463271 Z M128.462647,162.726279 C133.296204,162.237925 138.120121,161.627127 142.930117,160.893526 C142.323245,159.008653 141.716016,157.121995 141.10843,155.233196 C139.502005,155.467734 137.894508,155.688707 136.285226,155.896114 C136.285226,153.005262 136.285226,150.115123 136.285226,147.224628 C138.015168,147.00187 139.743325,146.763406 141.470054,146.508876 C141.470054,144.636855 141.470054,142.76412 141.470054,140.891741 C139.743325,141.14627 138.015168,141.384735 136.285226,141.607493 C136.285226,138.281121 136.285226,134.954392 136.285226,131.62802 C137.738506,131.440961 139.190715,131.242478 140.641853,131.032928 C141.287636,128.979916 141.933419,126.924763 142.578845,124.867467 C138.556355,125.475767 134.52387,125.999818 130.484959,126.436409 C130.484959,136.540827 130.484959,146.644887 130.484959,156.749661 C129.810974,157.361531 129.136989,157.971259 128.462647,158.578488 C128.462647,159.961085 128.462647,161.343682 128.462647,162.726279 L128.462647,162.726279 Z M117.26479,163.636587 C119.497007,163.499862 121.76885,162.523512 123.463451,160.87639 C125.495044,158.903343 126.371438,156.140291 126.57956,153.497542 C126.825521,150.366083 126.398212,146.876569 124.519408,144.446583 C126.18545,141.745646 126.363228,139.17358 126.363228,135.360996 C126.363228,132.524405 126.363228,129.687815 126.363228,126.850867 C124.439087,127.031144 122.513518,127.191786 120.587235,127.332795 C120.587235,130.642746 120.587235,133.952696 120.587235,137.262647 C120.587235,140.031768 120.078533,142.193303 117.26479,142.371438 C117.26479,138.48246 117.258007,131.457025 117.258007,127.568047 C116.28844,127.619452 114.353232,127.735472 114.353232,127.735472 C114.353232,127.735472 112.286655,127.851849 111.440604,127.851849 C111.440604,136.906021 111.440604,149.112714 111.440604,158.166886 C110.85051,158.662379 110.26006,159.155373 109.669609,159.647653 C109.582505,159.720121 109.495758,159.793303 109.408654,159.86577 C109.408654,161.248367 109.408654,162.630964 109.408654,164.013204 C109.495758,164.010348 109.582505,164.005708 109.669609,164.002852 C112.202407,163.913606 114.734848,163.792588 117.26479,163.636587 L117.26479,163.636587 Z M79.0086549,163.445958 C81.3215508,163.611955 83.6358747,163.749393 85.9512696,163.859344 C86.6755891,159.169295 87.4002656,154.476391 88.124585,149.780987 C89.2940629,154.551714 90.4635408,159.315659 91.6333757,164.072107 C92.7121797,164.101736 93.7906268,164.125654 94.8694309,164.143146 C96.0396228,159.437747 97.2094576,154.725922 98.3796495,150.006243 C99.1043259,154.733419 99.8297164,159.458095 100.554393,164.179916 C102.784826,164.172062 105.014901,164.137078 107.24462,164.077461 C107.331724,164.075319 107.418828,164.074248 107.505932,164.07175 C107.505932,162.68951 107.505932,161.306913 107.505932,159.924672 C107.418828,159.858274 107.331724,159.790804 107.24462,159.724405 C106.652742,159.272107 106.060506,158.819095 105.46827,158.36287 C103.934669,148.287368 102.401068,138.199372 100.867467,128.099595 C99.7279761,128.10495 98.5881278,128.102808 97.4482796,128.094597 C96.0492613,133.733508 94.6502431,139.36171 93.2515818,144.979916 C91.8525635,139.300666 90.4539022,133.610706 89.055598,127.910394 C87.9161067,127.868984 86.7773294,127.820791 85.6385521,127.765102 C84.106379,137.798122 82.5745629,147.818649 81.0431037,157.826681 C80.3648351,158.320032 79.6865665,158.810527 79.0086549,159.298523 C79.0086549,160.681477 79.0086549,162.063718 79.0086549,163.445958 Z M66.3061117,156.461933 C65.630342,156.923869 64.9549292,157.383664 64.2798734,157.840603 C64.2798734,159.229983 64.2798734,160.619719 64.2798734,162.009099 C67.7012031,162.431767 71.1286015,162.793035 74.5602837,163.092544 C76.3773296,151.224985 78.1954465,139.339934 80.0146343,127.437391 C78.0437285,127.303165 76.0738937,127.148591 74.1051298,126.973669 C73.9562677,128.181701 73.8074056,129.389377 73.6585435,130.597409 C71.8614886,130.434624 70.0658617,130.255061 68.2713057,130.059078 C68.1927694,129.354035 68.027843,127.878979 67.8568479,126.349662 C65.8834432,126.130474 63.9114665,125.889867 61.9416317,125.629983 C61.8634523,125.619631 61.7849159,125.610349 61.7067365,125.600354 C61.7313684,125.766708 61.7563572,125.932348 61.7809891,126.098703 C63.2885303,136.231679 64.7964285,146.353232 66.3061117,156.461933 L66.3061117,156.461933 Z M45.9723326,159.144307 C48.558321,159.634802 51.149664,160.089599 53.7452909,160.508697 C53.7452909,150.459255 53.7452909,140.410171 53.7452909,130.360729 C55.1025421,130.579916 56.4608643,130.789109 57.8206144,130.988662 C58.4014265,129.292634 58.9825956,127.594464 59.5637647,125.895222 C59.6276647,125.707806 59.6915648,125.52146 59.7554648,125.334044 C59.6615782,125.320836 59.5676915,125.306199 59.4741618,125.293348 C55.6326626,124.752518 51.799731,124.134937 47.9775088,123.437748 C47.9767949,133.542879 47.9767949,143.647654 47.9764379,153.752785 C47.3081648,154.169742 46.6398917,154.5842 45.9723326,154.996516 C45.9723326,156.379113 45.9723326,157.76171 45.9723326,159.144307 L45.9723326,159.144307 Z" id="path88" fill="#E7D1A0"></path>
                        <path d="M121.003835,152.529046 C121.003835,154.898702 120.785718,157.381165 117.26479,157.624271 C117.26479,154.397497 117.26479,151.171081 117.26479,147.944664 C120.807851,147.734401 121.003835,150.149751 121.003835,152.529046" id="path90" fill="#E7D1A0"></path>
                        <path d="M70.8762142,153.190536 C70.8708595,153.190179 70.8658617,153.189822 70.8605069,153.189108 C70.2193646,147.465235 69.5785793,141.738863 68.9374369,136.010706 C70.2718412,136.153499 71.6069594,136.287368 72.9431486,136.411599 C72.2541704,142.006958 71.5651923,147.599818 70.8762142,153.190536" id="path92" fill="#E7D1A0"></path>
                        <path d="M183.126457,102.817311 L179.682637,103.86363 C175.549125,105.119855 171.318871,106.287191 167.034355,107.362068 L173.089152,113.335472 L173.055596,113.342969 L173.063449,113.350466 L160.667198,116.100666 C141.02204,120.464789 120.600086,122.772331 99.6497967,122.772331 C78.7045049,122.772331 58.2889767,120.466574 38.6438188,116.102808 L26.2881921,113.359747 L32.324997,107.373491 C28.0333773,106.297186 23.7963046,105.128422 19.6576523,103.870769 L16.214868,102.82338 L18.7685493,100.289154 L27.7668891,91.367423 L27.7668891,76.0799624 L27.7928418,76.0871021 L27.7928418,76.0649691 L30.5400796,76.8603283 C37.4372146,78.8605067 44.4583657,80.5668878 51.5887537,81.9694759 C51.4163307,79.2995964 51.3106636,76.3287799 51.3110206,73.0298955 C51.3367234,44.1817035 69.1908952,13.7355106 99.5205687,0 C129.367957,14.241142 147.705485,44.1817035 147.731188,73.0298955 C147.731188,74.4385524 147.710483,75.7815242 147.675141,77.0741614 C148.358051,76.8553305 149.112714,76.7311003 149.90843,76.7311003 C152.787859,76.7311003 155.146449,78.3236036 155.378845,80.3480569 C159.918247,79.3060221 164.41017,78.141185 168.85033,76.8539026 L171.597318,76.0578294 L171.597318,91.346004 L183.152517,102.802318 L183.121102,102.811956 L183.126457,102.817311 Z M145.582504,73.0298955 C145.582504,45.0838007 127.850778,16.1016328 99.5212827,2.38690936 C71.1921446,16.1016328 53.4600611,45.0838007 53.4600611,73.0298955 C53.4600611,76.5119124 53.5778657,79.6237374 53.7688518,82.3842907 C53.7695658,82.3907164 53.7699228,82.3974991 53.7702798,82.4042817 C53.8231133,83.1664415 53.8827296,83.8954017 53.9459157,84.6040139 C53.9466296,84.6107966 53.9473436,84.6175793 53.9477006,84.624362 C53.2151705,84.4887083 52.4840683,84.3487708 51.7533231,84.2070483 C44.3626941,82.7719747 37.0855859,81.015973 29.9425606,78.9465397 C29.9340287,78.9440409 29.9253897,78.941542 29.9166079,78.9394001 L29.9166079,92.2613096 L20.2829446,101.814188 C25.5760458,103.423826 31.0321813,104.891028 36.5615341,106.198302 L30.5950193,112.113875 L39.1111101,114.004816 C58.6034791,118.335026 78.8633626,120.62329 99.6497967,120.62329 C120.4423,120.62329 140.707538,118.332884 160.202763,114.003032 L168.746091,112.107449 L168.738595,112.099953 L162.754481,106.197231 C162.765904,106.194732 162.77697,106.192233 162.788037,106.189734 C168.314498,104.883175 173.767421,103.417043 179.057916,101.808119 L179.052204,101.802407 L169.423646,92.2548839 L169.423646,78.9326174 C164.538684,80.3484139 159.590179,81.6149913 154.586699,82.7362764 C152.236319,83.263184 149.873089,83.7565352 147.498078,84.2170439 C147.427038,84.2306092 147.355641,84.2438176 147.284244,84.25774 C146.553856,84.3983915 145.823468,84.5401139 145.090581,84.6746967 C145.090938,84.6714838 145.090938,84.667914 145.091295,84.6643442 C145.146984,84.0474767 145.198747,83.4113321 145.246226,82.7534116 C145.253722,82.6527422 145.261933,82.5567137 145.269073,82.4549734 C145.269073,82.4517605 145.26943,82.4485477 145.269787,82.4449779 C145.359389,81.1573384 145.431857,79.7879498 145.485048,78.3450226 C145.546806,76.6775527 145.582504,74.9101275 145.582504,73.0298955 Z M147.576614,79.7804532 L147.173937,79.8450672 L147.056132,82.0876374 L146.445333,82.1858079 L146.443548,82.2218632 L146.442834,82.2318587 L146.412134,82.8187396 L147.408832,82.6591679 L148.373044,82.5045941 L148.406244,81.8713054 L147.977149,81.9402032 L147.795088,81.9691189 L147.795445,81.9648351 L147.912892,79.7269056 L147.576614,79.7804532 Z M152.185628,79.0425683 L151.446315,79.1607298 L151.15216,80.8492617 L151.144664,80.8506896 L150.548858,79.3045942 L150.254704,79.352073 L149.515034,81.1112876 L149.507538,81.1127155 L149.356891,79.4955803 L148.621505,79.6130279 L148.874963,81.7467182 L148.875677,81.7563567 L148.953856,82.4121354 L149.681388,82.2954018 L149.991607,81.5271733 L149.995534,81.5164638 L150.339309,80.6657722 L150.606333,81.3911626 L150.609546,81.4000872 L150.86943,82.1047726 L151.605172,81.9869681 L151.768314,81.1587664 L151.770456,81.1487708 L152.185628,79.0425683 L152.185628,79.0425683 Z" id="path94" fill="#E7D1A0"></path>
                    </g>
                </g>
            </g>
        </g>
    </g>
</svg>